<?xml version="1.0" standalone="no"?>
<!DOCTYPE svg PUBLIC "-//W3C//DTD SVG 1.1//EN" "http://www.w3.org/Graphics/SVG/1.1/DTD/svg11.dtd" >
<svg xmlns="http://www.w3.org/2000/svg" xmlns:xlink="http://www.w3.org/1999/xlink" version="1.1">
<metadata>
Created by FontForge 20190801 at Fri Sep  7 15:55:45 2018
 By Jimmy Wärting
Copyright 2018 The KoHo Project Authors (https://github.com/cadsondemak/Koho)
</metadata>
<defs>
<font id="KoHo-SemiBoldItalic" horiz-adv-x="0" >
  <font-face 
    font-family="KoHo SemiBold"
    font-weight="600"
    font-style="italic"
    font-stretch="normal"
    units-per-em="1000"
    panose-1="0 0 7 0 0 0 0 0 0 0"
    ascent="800"
    descent="-200"
    x-height="470"
    cap-height="700"
    bbox="-600 -473 1306 1170"
    underline-thickness="50"
    underline-position="-100"
    slope="-10"
    unicode-range="U+000D-FB02"
  />
<missing-glyph horiz-adv-x="720" 
d="M227 999h536l-176 -999h-536zM547 50l158 899h-439l-158 -899h439z" />
    <glyph glyph-name="fi" unicode="fi" horiz-adv-x="569" 
d="M371.5 34.5q-16.5 24.5 -16.5 57.5q0 15 3 31l46 263h-191l-68 -386h-109l95 537q16 94 77.5 144.5t159.5 50.5h41l-14 -85h-42q-46 0 -75 -28.5t-38 -81.5l-12 -67h300l-60 -345q-2 -12 -2 -17q0 -15 7.5 -28t23.5 -28l-73 -64q-36 22 -52.5 46.5zM448 563
q-16 16 -16 39q0 29 24.5 52.5t53.5 23.5q24 0 39.5 -15.5t15.5 -38.5q0 -29 -24 -53t-53 -24q-24 0 -40 16z" />
    <glyph glyph-name="fl" unicode="fl" horiz-adv-x="587" 
d="M228 470h136l-16 -85h-135l-68 -385h-109l95 537q16 94 77.5 144.5t159.5 50.5h41l-14 -85h-42q-46 0 -75 -28.5t-38 -81.5zM491 125q-2 -12 -2 -17q0 -15 7.5 -28t23.5 -28l-73 -64q-36 22 -52.5 46.5t-16.5 57.5q0 15 3 31l84 472q1 5 1 15q0 16 -7.5 29t-23.5 29
l73 64q36 -22 52.5 -46.5t16.5 -57.5q0 -14 -3 -31z" />
    <glyph glyph-name="uni0E240E45" unicode="&#xe24;&#xe45;" horiz-adv-x="959" 
d="M868.5 530.5q46.5 -37.5 46.5 -105.5q0 -11 -4 -39l-112 -636h-106l112 636q2 16 2 23q0 36 -22 55t-61 19q-44 0 -75.5 -13.5t-75.5 -55.5q2 -11 2 -35q0 -28 -6 -63l-100 -566h-106l100 566q5 30 5 49q0 118 -123 118q-50 0 -164 -2l87 -91l-9 -51q-37 -15 -58.5 -41
t-32.5 -67q18 4 26 4q34 0 54 -21t20 -57q0 -43 -19.5 -81.5t-52 -62t-70.5 -23.5q-40 0 -64 21t-24 59q0 15 2 23l22 123q21 117 125 158l1 4l-96 104l15 86h241q138 0 192 -70q45 36 90.5 53t106.5 17q85 0 131.5 -37.5zM199.5 170.5q-6.5 9.5 -16.5 9.5q-16 0 -32 -15.5
t-26.5 -39.5t-10.5 -47q0 -14 6.5 -23t16.5 -9q16 0 32 15t26.5 39t10.5 47q0 14 -6.5 23.5z" />
    <glyph glyph-name="uni0E260E45" unicode="&#xe26;&#xe45;" horiz-adv-x="988" 
d="M899 531.5q46 -36.5 46 -104.5q0 -22 -4 -41l-112 -636h-106l112 636q2 16 2 23q0 35 -21 54.5t-62 19.5q-42 0 -73.5 -13t-76.5 -55q1 -6 1 -19q0 -29 -6 -64l-103 -581h-107l103 581q4 21 4 44q0 55 -33 81t-101 26l-177 -2l94 -96l-52 -292q-8 -48 -39.5 -75.5
t-77.5 -27.5q-45 0 -71.5 29.5t-26.5 79.5q0 59 31 97.5t79 38.5q13 0 26 -5l28 162l-81 90l15 86h255q152 0 207 -68q44 36 89.5 52t106.5 16q85 0 131 -36.5zM141.5 67q11.5 21 11.5 52q0 27 -10 44t-28 17q-17 0 -29 -21.5t-12 -52.5q0 -27 10.5 -43.5t28.5 -16.5
q17 0 28.5 21z" />
    <glyph glyph-name=".notdef" horiz-adv-x="720" 
d="M227 999h536l-176 -999h-536zM547 50l158 899h-439l-158 -899h439z" />
    <glyph glyph-name="NULL" 
 />
    <glyph glyph-name="NULL" 
 />
    <glyph glyph-name="nonmarkingreturn" unicode="&#xd;" horiz-adv-x="269" 
 />
    <glyph glyph-name="space" unicode=" " horiz-adv-x="269" 
 />
    <glyph glyph-name="A" unicode="A" horiz-adv-x="680" 
d="M475 184h-288l-87 -184h-118l274 567q40 82 75.5 113.5t91.5 31.5q57 0 82 -32.5t36 -112.5l74 -567h-118zM464 272l-35 293q-2 20 -7.5 29t-16.5 9t-19.5 -9.5t-17.5 -28.5l-139 -293h235z" />
    <glyph glyph-name="Aacute" unicode="&#xc1;" horiz-adv-x="680" 
d="M475 184h-288l-87 -184h-118l274 567q40 82 75.5 113.5t91.5 31.5q57 0 82 -32.5t36 -112.5l74 -567h-118zM464 272l-35 293q-2 20 -7.5 29t-16.5 9t-19.5 -9.5t-17.5 -28.5l-139 -293h235zM490 922h115l-134 -153h-88z" />
    <glyph glyph-name="Abreve" unicode="&#x102;" horiz-adv-x="680" 
d="M475 184h-288l-87 -184h-118l274 567q40 82 75.5 113.5t91.5 31.5q57 0 82 -32.5t36 -112.5l74 -567h-118zM464 272l-35 293q-2 20 -7.5 29t-16.5 9t-19.5 -9.5t-17.5 -28.5l-139 -293h235zM335 795.5q-39 34.5 -39 92.5q0 16 3 32h79l-1 -13q0 -32 17.5 -50.5
t50.5 -18.5q37 0 62 22t34 60h78q-13 -74 -60 -116.5t-120 -42.5q-65 0 -104 34.5z" />
    <glyph glyph-name="uni1EAE" unicode="&#x1eae;" horiz-adv-x="680" 
d="M475 184h-288l-87 -184h-118l274 567q40 82 75.5 113.5t91.5 31.5q57 0 82 -32.5t36 -112.5l74 -567h-118zM464 272l-35 293q-2 20 -7.5 29t-16.5 9t-19.5 -9.5t-17.5 -28.5l-139 -293h235zM505 1085h109l-111 -121h-82zM334.5 795.5q-38.5 34.5 -38.5 92.5q0 16 3 32h79
l-1 -13q0 -32 17.5 -50.5t50.5 -18.5q38 0 62.5 22t33.5 60h78q-13 -74 -60.5 -116.5t-120.5 -42.5q-65 0 -103.5 34.5z" />
    <glyph glyph-name="uni1EB6" unicode="&#x1eb6;" horiz-adv-x="680" 
d="M475 184h-288l-87 -184h-118l274 567q40 82 75.5 113.5t91.5 31.5q57 0 82 -32.5t36 -112.5l74 -567h-118zM464 272l-35 293q-2 20 -7.5 29t-16.5 9t-19.5 -9.5t-17.5 -28.5l-139 -293h235zM228 -168q-15 15 -15 37q0 29 23.5 52t52.5 23q23 0 38 -15.5t15 -37.5
q0 -29 -23 -51.5t-53 -22.5q-23 0 -38 15zM335 795.5q-39 34.5 -39 92.5q0 16 3 32h79l-1 -13q0 -32 17.5 -50.5t50.5 -18.5q37 0 62 22t34 60h78q-13 -74 -60 -116.5t-120 -42.5q-65 0 -104 34.5z" />
    <glyph glyph-name="uni1EB0" unicode="&#x1eb0;" horiz-adv-x="680" 
d="M475 184h-288l-87 -184h-118l274 567q40 82 75.5 113.5t91.5 31.5q57 0 82 -32.5t36 -112.5l74 -567h-118zM464 272l-35 293q-2 20 -7.5 29t-16.5 9t-19.5 -9.5t-17.5 -28.5l-139 -293h235zM360 1085h108l42 -121h-81zM334.5 795.5q-38.5 34.5 -38.5 92.5q0 16 3 32h79
l-1 -13q0 -32 17.5 -50.5t50.5 -18.5q38 0 62.5 22t33.5 60h78q-13 -74 -60.5 -116.5t-120.5 -42.5q-65 0 -103.5 34.5z" />
    <glyph glyph-name="uni1EB2" unicode="&#x1eb2;" horiz-adv-x="680" 
d="M475 184h-288l-87 -184h-118l274 567q40 82 75.5 113.5t91.5 31.5q57 0 82 -32.5t36 -112.5l74 -567h-118zM464 272l-35 293q-2 20 -7.5 29t-16.5 9t-19.5 -9.5t-17.5 -28.5l-139 -293h235zM429 1057l-7 50q36 16 79 16q39 0 61.5 -14.5t22.5 -44.5q0 -72 -86 -92l-5 -32
h-67l11 65q43 3 61 12.5t18 28.5q0 12 -9 16.5t-28 4.5q-23 0 -51 -10zM619 920q-13 -74 -60.5 -116.5t-120.5 -42.5q-65 0 -103.5 34t-38.5 93q0 16 3 32h79l-1 -13q0 -32 17.5 -50.5t50.5 -18.5q38 0 63 22t33 60h78z" />
    <glyph glyph-name="uni1EB4" unicode="&#x1eb4;" horiz-adv-x="680" 
d="M475 184h-288l-87 -184h-118l274 567q40 82 75.5 113.5t91.5 31.5q57 0 82 -32.5t36 -112.5l74 -567h-118zM464 272l-35 293q-2 20 -7.5 29t-16.5 9t-19.5 -9.5t-17.5 -28.5l-139 -293h235zM354.5 1048q32.5 32 80.5 32q18 0 31 -4.5t34 -15.5q26 -15 42 -15q25 0 39 42
h65q-13 -46 -44.5 -79t-71.5 -33q-19 0 -33.5 5.5t-31.5 15.5q-11 6 -21.5 10.5t-20.5 4.5q-29 0 -46 -43h-65q10 48 42.5 80zM335.5 795q-38.5 34 -38.5 92q0 17 3 33h78l-1 -13q0 -32 17.5 -50.5t50.5 -18.5q38 0 63 22t33 60h79q-13 -74 -60.5 -116.5t-120.5 -42.5
q-65 0 -103.5 34z" />
    <glyph glyph-name="uni01CD" unicode="&#x1cd;" horiz-adv-x="680" 
d="M475 184h-288l-87 -184h-118l274 567q40 82 75.5 113.5t91.5 31.5q57 0 82 -32.5t36 -112.5l74 -567h-118zM464 272l-35 293q-2 20 -7.5 29t-16.5 9t-19.5 -9.5t-17.5 -28.5l-139 -293h235zM342.5 858.5q-28.5 44.5 -51.5 66.5h98q29 -29 56 -81q16 21 39.5 43t45.5 38
h98q-33 -24 -77 -68t-74 -88h-90q-16 45 -44.5 89.5z" />
    <glyph glyph-name="Acircumflex" unicode="&#xc2;" horiz-adv-x="680" 
d="M475 184h-288l-87 -184h-118l274 567q40 82 75.5 113.5t91.5 31.5q57 0 82 -32.5t36 -112.5l74 -567h-118zM464 272l-35 293q-2 20 -7.5 29t-16.5 9t-19.5 -9.5t-17.5 -28.5l-139 -293h235zM340.5 838.5q43.5 43.5 73.5 86.5h90q16 -44 44.5 -88.5t51.5 -67.5h-97
q-32 33 -57 82q-32 -42 -85 -82h-98q34 26 77.5 69.5z" />
    <glyph glyph-name="uni1EA4" unicode="&#x1ea4;" horiz-adv-x="680" 
d="M475 184h-288l-87 -184h-118l274 567q40 82 75.5 113.5t91.5 31.5q57 0 82 -32.5t36 -112.5l74 -567h-118zM464 272l-35 293q-2 20 -7.5 29t-16.5 9t-19.5 -9.5t-17.5 -28.5l-139 -293h235zM645 989h107l-109 -121h-82zM338.5 837q44.5 45 75.5 88h89q15 -44 44 -88.5
t53 -67.5h-94q-18 17 -34 39.5t-23 42.5q-29 -40 -85 -82h-101q31 23 75.5 68z" />
    <glyph glyph-name="uni1EAC" unicode="&#x1eac;" horiz-adv-x="680" 
d="M475 184h-288l-87 -184h-118l274 567q40 82 75.5 113.5t91.5 31.5q57 0 82 -32.5t36 -112.5l74 -567h-118zM464 272l-35 293q-2 20 -7.5 29t-16.5 9t-19.5 -9.5t-17.5 -28.5l-139 -293h235zM228 -168q-15 15 -15 37q0 29 23.5 52t52.5 23q23 0 38 -15.5t15 -37.5
q0 -29 -23 -51.5t-53 -22.5q-23 0 -38 15zM340.5 838.5q43.5 43.5 73.5 86.5h90q16 -44 44.5 -88.5t51.5 -67.5h-97q-32 33 -57 82q-32 -42 -85 -82h-98q34 26 77.5 69.5z" />
    <glyph glyph-name="uni1EA6" unicode="&#x1ea6;" horiz-adv-x="680" 
d="M475 184h-288l-87 -184h-118l274 567q40 82 75.5 113.5t91.5 31.5q57 0 82 -32.5t36 -112.5l74 -567h-118zM464 272l-35 293q-2 20 -7.5 29t-16.5 9t-19.5 -9.5t-17.5 -28.5l-139 -293h235zM540 989h107l42 -121h-82zM338.5 837q44.5 45 75.5 88h89q15 -44 44 -88.5
t53 -67.5h-94q-18 17 -34 39.5t-23 42.5q-29 -40 -85 -82h-101q31 23 75.5 68z" />
    <glyph glyph-name="uni1EA8" unicode="&#x1ea8;" horiz-adv-x="680" 
d="M475 184h-288l-87 -184h-118l274 567q40 82 75.5 113.5t91.5 31.5q57 0 82 -32.5t36 -112.5l74 -567h-118zM464 272l-35 293q-2 20 -7.5 29t-16.5 9t-19.5 -9.5t-17.5 -28.5l-139 -293h235zM650 895l-5 -32h-67l11 64q44 4 61.5 14t17.5 28q0 12 -9 16.5t-28 4.5
q-17 0 -51 -10l-7 50q33 15 79 15q40 0 62 -14.5t22 -44.5q0 -71 -86 -91zM547 836.5q29 -44.5 53 -67.5h-94q-18 17 -34 39.5t-23 42.5q-29 -40 -85 -82h-101q31 23 75.5 68t75.5 88h89q15 -44 44 -88.5z" />
    <glyph glyph-name="uni1EAA" unicode="&#x1eaa;" horiz-adv-x="680" 
d="M475 184h-288l-87 -184h-118l274 567q40 82 75.5 113.5t91.5 31.5q57 0 82 -32.5t36 -112.5l74 -567h-118zM464 272l-35 293q-2 20 -7.5 29t-16.5 9t-19.5 -9.5t-17.5 -28.5l-139 -293h235zM346.5 1036q32.5 32 79.5 32q18 0 32 -5t34 -15q26 -15 41 -15q26 0 39 42h65
q-13 -46 -44.5 -79t-71.5 -33q-19 0 -32.5 5.5t-32.5 15.5q-26 15 -42 15q-29 0 -46 -43h-64q10 48 42.5 80zM338.5 837q44.5 45 75.5 88h89q15 -44 44 -88.5t53 -67.5h-94q-18 17 -34 39.5t-23 42.5q-29 -40 -85 -82h-101q31 23 75.5 68z" />
    <glyph glyph-name="Adieresis" unicode="&#xc4;" horiz-adv-x="680" 
d="M475 184h-288l-87 -184h-118l274 567q40 82 75.5 113.5t91.5 31.5q57 0 82 -32.5t36 -112.5l74 -567h-118zM464 272l-35 293q-2 20 -7.5 29t-16.5 9t-19.5 -9.5t-17.5 -28.5l-139 -293h235zM311.5 777.5q-13.5 13.5 -13.5 33.5q0 25 20.5 45t46.5 20q20 0 33.5 -13.5
t13.5 -33.5q0 -25 -20.5 -45t-45.5 -20q-21 0 -34.5 13.5zM485 777q-13 13 -13 33q0 26 20.5 46t46.5 20q20 0 34 -13.5t14 -33.5q0 -25 -21 -45t-47 -20q-21 0 -34 13z" />
    <glyph glyph-name="uni1EA0" unicode="&#x1ea0;" horiz-adv-x="680" 
d="M475 184h-288l-87 -184h-118l274 567q40 82 75.5 113.5t91.5 31.5q57 0 82 -32.5t36 -112.5l74 -567h-118zM464 272l-35 293q-2 20 -7.5 29t-16.5 9t-19.5 -9.5t-17.5 -28.5l-139 -293h235zM228 -168q-15 15 -15 37q0 29 23.5 52t52.5 23q23 0 38 -15.5t15 -37.5
q0 -29 -23 -51.5t-53 -22.5q-23 0 -38 15z" />
    <glyph glyph-name="Agrave" unicode="&#xc0;" horiz-adv-x="680" 
d="M475 184h-288l-87 -184h-118l274 567q40 82 75.5 113.5t91.5 31.5q57 0 82 -32.5t36 -112.5l74 -567h-118zM464 272l-35 293q-2 20 -7.5 29t-16.5 9t-19.5 -9.5t-17.5 -28.5l-139 -293h235zM310 922h115l53 -153h-89z" />
    <glyph glyph-name="uni1EA2" unicode="&#x1ea2;" horiz-adv-x="680" 
d="M475 184h-288l-87 -184h-118l274 567q40 82 75.5 113.5t91.5 31.5q57 0 82 -32.5t36 -112.5l74 -567h-118zM464 272l-35 293q-2 20 -7.5 29t-16.5 9t-19.5 -9.5t-17.5 -28.5l-139 -293h235zM474 807l-7 -38h-80l14 76q49 5 71 16.5t22 34.5q0 26 -42 26q-29 0 -60 -13
l-8 60q43 18 92 18q50 0 77.5 -18t27.5 -55q0 -83 -107 -107z" />
    <glyph glyph-name="Amacron" unicode="&#x100;" horiz-adv-x="680" 
d="M475 184h-288l-87 -184h-118l274 567q40 82 75.5 113.5t91.5 31.5q57 0 82 -32.5t36 -112.5l74 -567h-118zM464 272l-35 293q-2 20 -7.5 29t-16.5 9t-19.5 -9.5t-17.5 -28.5l-139 -293h235zM293 862h314l-14 -78h-314z" />
    <glyph glyph-name="Aogonek" unicode="&#x104;" horiz-adv-x="680" 
d="M646 -199q-45 -24 -87 -24q-63 0 -90 25t-27 61q0 70 81 137h-26l-22 184h-288l-87 -184h-118l274 567q40 82 75.5 113.5t91.5 31.5q57 0 82 -32.5t36 -112.5l74 -567h-15q-26 -27 -44 -59t-18 -56q0 -18 12 -27t32 -9q24 0 56 13zM464 272l-35 293q-2 20 -7.5 29
t-16.5 9t-19.5 -9.5t-17.5 -28.5l-139 -293h235z" />
    <glyph glyph-name="Aring" unicode="&#xc5;" horiz-adv-x="680" 
d="M475 184h-288l-87 -184h-118l274 567q40 82 75.5 113.5t91.5 31.5q57 0 82 -32.5t36 -112.5l74 -567h-118zM464 272l-35 293q-2 20 -7.5 29t-16.5 9t-19.5 -9.5t-17.5 -28.5l-139 -293h235zM364 779.5q-24 22.5 -24 61.5q0 50 36 82.5t90 32.5q44 0 68 -23t24 -61
q0 -50 -36 -82.5t-90 -32.5q-44 0 -68 22.5zM480 827.5q15 16.5 15 39.5q0 17 -10 26t-28 9q-23 0 -38.5 -16.5t-15.5 -39.5q0 -17 10.5 -26t27.5 -9q24 0 39 16.5z" />
    <glyph glyph-name="Aringacute" unicode="&#x1fa;" horiz-adv-x="680" 
d="M522 1001h-83l101 123h107zM364 779.5q-24 22.5 -24 61.5q0 50 36 82.5t90 32.5q44 0 68 -23t24 -61q0 -50 -36 -82.5t-90 -32.5q-44 0 -68 22.5zM418.5 885.5q-15.5 -16.5 -15.5 -39.5q0 -17 10.5 -26t27.5 -9q24 0 39 16.5t15 39.5q0 17 -10 26t-28 9
q-23 0 -38.5 -16.5zM505 679.5q25 -32.5 36 -112.5l74 -567h-118l-22 184h-288l-87 -184h-118l274 567q40 82 75.5 113.5t91.5 31.5q57 0 82 -32.5zM464 272l-35 293q-2 20 -7.5 29t-16.5 9t-19.5 -9.5t-17.5 -28.5l-139 -293h235z" />
    <glyph glyph-name="Atilde" unicode="&#xc3;" horiz-adv-x="680" 
d="M475 184h-288l-87 -184h-118l274 567q40 82 75.5 113.5t91.5 31.5q57 0 82 -32.5t36 -112.5l74 -567h-118zM464 272l-35 293q-2 20 -7.5 29t-16.5 9t-19.5 -9.5t-17.5 -28.5l-139 -293h235zM311 865q33 37 83 37q20 0 35.5 -6t35.5 -18q16 -9 25.5 -13t20.5 -4
q15 0 24.5 11.5t17.5 37.5h71q-14 -54 -47 -92t-76 -38q-20 0 -35.5 6t-35.5 18q-16 9 -25.5 13t-20.5 4q-15 0 -26 -11.5t-20 -37.5h-72q12 56 45 93z" />
    <glyph glyph-name="AE" unicode="&#xc6;" horiz-adv-x="1031" 
d="M722.5 579q-35.5 -28 -47.5 -85l-17 -98h314l-16 -92h-315l-12 -71h-1l-3 -18q-3 -19 -3 -35q0 -44 26 -65.5t80 -21.5h240l-16 -93h-240q-210 0 -210 158q0 17 1 26h-260l-130 -184h-131l391 555q39 56 67.5 86t61 44.5t77.5 14.5q60 0 88 -38q67 38 168 38h236l-16 -93
h-236q-61 0 -96.5 -28zM304 272h213l30 168l20 115q1 5 1 13q0 11 -5 17t-13 6q-14 0 -23.5 -8.5t-23.5 -28.5z" />
    <glyph glyph-name="AEacute" unicode="&#x1fc;" horiz-adv-x="1031" 
d="M722.5 579q-35.5 -28 -47.5 -85l-17 -98h314l-16 -92h-315l-12 -71h-1l-3 -18q-3 -19 -3 -35q0 -44 26 -65.5t80 -21.5h240l-16 -93h-240q-210 0 -210 158q0 17 1 26h-260l-130 -184h-131l391 555q39 56 67.5 86t61 44.5t77.5 14.5q60 0 88 -38q67 38 168 38h236l-16 -93
h-236q-61 0 -96.5 -28zM304 272h213l30 168l20 115q1 5 1 13q0 11 -5 17t-13 6q-14 0 -23.5 -8.5t-23.5 -28.5zM680 922h115l-134 -153h-88z" />
    <glyph glyph-name="B" unicode="B" horiz-adv-x="680" 
d="M170 700h297q91 0 143.5 -40.5t52.5 -110.5q0 -66 -38.5 -113.5t-107.5 -66.5q53 -14 81.5 -49t28.5 -88q0 -68 -33.5 -120.5t-94 -82t-138.5 -29.5h-314zM424 411q51 0 86 34.5t35 84.5q0 36 -23 56.5t-64 20.5h-186l-34 -196h186zM351 93q75 0 116.5 37t41.5 102
q0 86 -118 86h-170l-40 -225h170z" />
    <glyph glyph-name="C" unicode="C" horiz-adv-x="635" 
d="M121.5 40.5q-66.5 52.5 -66.5 147.5q0 23 5 55l38 214q22 125 103 190t216 65q94 0 156 -31.5t89 -93.5l-95 -59q-24 48 -58.5 69.5t-98.5 21.5q-165 0 -194 -162l-38 -214q-4 -21 -4 -44q0 -118 143 -118q67 0 111.5 22.5t86.5 72.5l73 -62q-55 -65 -119.5 -95.5
t-157.5 -30.5q-123 0 -189.5 52.5z" />
    <glyph glyph-name="Cacute" unicode="&#x106;" horiz-adv-x="635" 
d="M121.5 40.5q-66.5 52.5 -66.5 147.5q0 23 5 55l38 214q22 125 103 190t216 65q94 0 156 -31.5t89 -93.5l-95 -59q-24 48 -58.5 69.5t-98.5 21.5q-165 0 -194 -162l-38 -214q-4 -21 -4 -44q0 -118 143 -118q67 0 111.5 22.5t86.5 72.5l73 -62q-55 -65 -119.5 -95.5
t-157.5 -30.5q-123 0 -189.5 52.5zM491 922h115l-134 -153h-88z" />
    <glyph glyph-name="Ccaron" unicode="&#x10c;" horiz-adv-x="635" 
d="M121.5 40.5q-66.5 52.5 -66.5 147.5q0 23 5 55l38 214q22 125 103 190t216 65q94 0 156 -31.5t89 -93.5l-95 -59q-24 48 -58.5 69.5t-98.5 21.5q-165 0 -194 -162l-38 -214q-4 -21 -4 -44q0 -118 143 -118q67 0 111.5 22.5t86.5 72.5l73 -62q-55 -65 -119.5 -95.5
t-157.5 -30.5q-123 0 -189.5 52.5zM343.5 858.5q-28.5 44.5 -51.5 66.5h98q29 -29 56 -81q16 21 39.5 43t45.5 38h98q-33 -24 -77 -68t-74 -88h-90q-16 45 -44.5 89.5z" />
    <glyph glyph-name="Ccedilla" unicode="&#xc7;" horiz-adv-x="635" 
d="M428.5 103.5q44.5 22.5 86.5 72.5l73 -62q-51 -61 -110.5 -91.5t-142.5 -34.5l-14 -27q37 -4 55 -23t18 -49q0 -53 -38 -82t-108 -29q-59 0 -100 23l29 61q14 -8 32.5 -13t34.5 -5q33 0 48 8.5t15 27.5q0 27 -53 27q-8 0 -32 -2l36 86q-98 11 -150.5 62t-52.5 135
q0 23 5 55l38 214q22 125 103 190t216 65q94 0 156 -31.5t89 -93.5l-95 -59q-24 48 -58.5 69.5t-98.5 21.5q-165 0 -194 -162l-38 -214q-4 -21 -4 -44q0 -118 143 -118q67 0 111.5 22.5z" />
    <glyph glyph-name="Ccircumflex" unicode="&#x108;" horiz-adv-x="635" 
d="M121.5 40.5q-66.5 52.5 -66.5 147.5q0 23 5 55l38 214q22 125 103 190t216 65q94 0 156 -31.5t89 -93.5l-95 -59q-24 48 -58.5 69.5t-98.5 21.5q-165 0 -194 -162l-38 -214q-4 -21 -4 -44q0 -118 143 -118q67 0 111.5 22.5t86.5 72.5l73 -62q-55 -65 -119.5 -95.5
t-157.5 -30.5q-123 0 -189.5 52.5zM341.5 838.5q43.5 43.5 73.5 86.5h90q16 -44 44.5 -88.5t51.5 -67.5h-97q-32 33 -57 82q-32 -42 -85 -82h-98q34 26 77.5 69.5z" />
    <glyph glyph-name="Cdotaccent" unicode="&#x10a;" horiz-adv-x="635" 
d="M121.5 40.5q-66.5 52.5 -66.5 147.5q0 23 5 55l38 214q22 125 103 190t216 65q94 0 156 -31.5t89 -93.5l-95 -59q-24 48 -58.5 69.5t-98.5 21.5q-165 0 -194 -162l-38 -214q-4 -21 -4 -44q0 -118 143 -118q67 0 111.5 22.5t86.5 72.5l73 -62q-55 -65 -119.5 -95.5
t-157.5 -30.5q-123 0 -189.5 52.5zM395.5 779q-15.5 15 -15.5 37q0 29 23.5 52t52.5 23q23 0 38.5 -15.5t15.5 -37.5q0 -28 -23.5 -51t-52.5 -23q-23 0 -38.5 15z" />
    <glyph glyph-name="D" unicode="D" horiz-adv-x="708" 
d="M170 700h249q136 0 203 -60t67 -183q0 -144 -44.5 -246.5t-129 -156.5t-204.5 -54h-264zM318 93q119 0 186 95t67 266q0 79 -39 116t-121 37h-139l-91 -514h137z" />
    <glyph glyph-name="Eth" unicode="&#xd0;" horiz-adv-x="708" 
d="M622 640q67 -60 67 -183q0 -144 -44.5 -246.5t-129 -156.5t-204.5 -54h-264l55 312h-84l15 81h83l54 307h249q136 0 203 -60zM504 188q67 95 67 266q0 79 -39 116t-121 37h-139l-38 -214h184l-15 -81h-183l-39 -219h137q119 0 186 95z" />
    <glyph glyph-name="Dcaron" unicode="&#x10e;" horiz-adv-x="708" 
d="M170 700h249q136 0 203 -60t67 -183q0 -144 -44.5 -246.5t-129 -156.5t-204.5 -54h-264zM318 93q119 0 186 95t67 266q0 79 -39 116t-121 37h-139l-91 -514h137zM362.5 858.5q-28.5 44.5 -51.5 66.5h98q29 -29 56 -81q16 21 39.5 43t45.5 38h98q-33 -24 -77 -68t-74 -88
h-90q-16 45 -44.5 89.5z" />
    <glyph glyph-name="Dcroat" unicode="&#x110;" horiz-adv-x="708" 
d="M622 640q67 -60 67 -183q0 -144 -44.5 -246.5t-129 -156.5t-204.5 -54h-264l55 312h-84l15 81h83l54 307h249q136 0 203 -60zM504 188q67 95 67 266q0 79 -39 116t-121 37h-139l-38 -214h184l-15 -81h-183l-39 -219h137q119 0 186 95z" />
    <glyph glyph-name="uni1E0C" unicode="&#x1e0c;" horiz-adv-x="708" 
d="M170 700h249q136 0 203 -60t67 -183q0 -144 -44.5 -246.5t-129 -156.5t-204.5 -54h-264zM318 93q119 0 186 95t67 266q0 79 -39 116t-121 37h-139l-91 -514h137zM247 -168q-15 15 -15 37q0 29 23.5 52t52.5 23q23 0 38 -15.5t15 -37.5q0 -29 -23 -51.5t-53 -22.5
q-23 0 -38 15z" />
    <glyph glyph-name="uni1E0E" unicode="&#x1e0e;" horiz-adv-x="708" 
d="M170 700h249q136 0 203 -60t67 -183q0 -144 -44.5 -246.5t-129 -156.5t-204.5 -54h-264zM318 93q119 0 186 95t67 266q0 79 -39 116t-121 37h-139l-91 -514h137zM147 -75h314l-13 -78h-315z" />
    <glyph glyph-name="E" unicode="E" horiz-adv-x="577" 
d="M99.5 39q-52.5 39 -52.5 119q0 26 6 57l48 270q18 106 83.5 160.5t191.5 54.5h242l-17 -93h-236q-62 0 -98 -28.5t-48 -93.5l-16 -89h315l-16 -92h-315l-16 -89q-4 -26 -4 -36q0 -44 26.5 -65t80.5 -21h240l-16 -93h-239q-107 0 -159.5 39z" />
    <glyph glyph-name="Eacute" unicode="&#xc9;" horiz-adv-x="577" 
d="M99.5 39q-52.5 39 -52.5 119q0 26 6 57l48 270q18 106 83.5 160.5t191.5 54.5h242l-17 -93h-236q-62 0 -98 -28.5t-48 -93.5l-16 -89h315l-16 -92h-315l-16 -89q-4 -26 -4 -36q0 -44 26.5 -65t80.5 -21h240l-16 -93h-239q-107 0 -159.5 39zM489 922h115l-134 -153h-88z
" />
    <glyph glyph-name="Ebreve" unicode="&#x114;" horiz-adv-x="577" 
d="M99.5 39q-52.5 39 -52.5 119q0 26 6 57l48 270q18 106 83.5 160.5t191.5 54.5h242l-17 -93h-236q-62 0 -98 -28.5t-48 -93.5l-16 -89h315l-16 -92h-315l-16 -89q-4 -26 -4 -36q0 -44 26.5 -65t80.5 -21h240l-16 -93h-239q-107 0 -159.5 39zM334 795.5q-39 34.5 -39 92.5
q0 16 3 32h79l-1 -13q0 -32 17.5 -50.5t50.5 -18.5q37 0 62 22t34 60h78q-13 -74 -60 -116.5t-120 -42.5q-65 0 -104 34.5z" />
    <glyph glyph-name="Ecaron" unicode="&#x11a;" horiz-adv-x="577" 
d="M99.5 39q-52.5 39 -52.5 119q0 26 6 57l48 270q18 106 83.5 160.5t191.5 54.5h242l-17 -93h-236q-62 0 -98 -28.5t-48 -93.5l-16 -89h315l-16 -92h-315l-16 -89q-4 -26 -4 -36q0 -44 26.5 -65t80.5 -21h240l-16 -93h-239q-107 0 -159.5 39zM341.5 858.5
q-28.5 44.5 -51.5 66.5h98q29 -29 56 -81q16 21 39.5 43t45.5 38h98q-33 -24 -77 -68t-74 -88h-90q-16 45 -44.5 89.5z" />
    <glyph glyph-name="Ecircumflex" unicode="&#xca;" horiz-adv-x="577" 
d="M99.5 39q-52.5 39 -52.5 119q0 26 6 57l48 270q18 106 83.5 160.5t191.5 54.5h242l-17 -93h-236q-62 0 -98 -28.5t-48 -93.5l-16 -89h315l-16 -92h-315l-16 -89q-4 -26 -4 -36q0 -44 26.5 -65t80.5 -21h240l-16 -93h-239q-107 0 -159.5 39zM339.5 838.5
q43.5 43.5 73.5 86.5h90q16 -44 44.5 -88.5t51.5 -67.5h-97q-32 33 -57 82q-32 -42 -85 -82h-98q34 26 77.5 69.5z" />
    <glyph glyph-name="uni1EBE" unicode="&#x1ebe;" horiz-adv-x="577" 
d="M99.5 39q-52.5 39 -52.5 119q0 26 6 57l48 270q18 106 83.5 160.5t191.5 54.5h242l-17 -93h-236q-62 0 -98 -28.5t-48 -93.5l-16 -89h315l-16 -92h-315l-16 -89q-4 -26 -4 -36q0 -44 26.5 -65t80.5 -21h240l-16 -93h-239q-107 0 -159.5 39zM644 989h107l-109 -121h-82z
M337.5 837q44.5 45 75.5 88h89q15 -44 44 -88.5t53 -67.5h-94q-18 17 -34 39.5t-23 42.5q-29 -40 -85 -82h-101q31 23 75.5 68z" />
    <glyph glyph-name="uni1EC6" unicode="&#x1ec6;" horiz-adv-x="577" 
d="M99.5 39q-52.5 39 -52.5 119q0 26 6 57l48 270q18 106 83.5 160.5t191.5 54.5h242l-17 -93h-236q-62 0 -98 -28.5t-48 -93.5l-16 -89h315l-16 -92h-315l-16 -89q-4 -26 -4 -36q0 -44 26.5 -65t80.5 -21h240l-16 -93h-239q-107 0 -159.5 39zM236 -168q-15 15 -15 37
q0 29 23.5 52t52.5 23q23 0 38 -15.5t15 -37.5q0 -29 -23 -51.5t-53 -22.5q-23 0 -38 15zM339.5 838.5q43.5 43.5 73.5 86.5h90q16 -44 44.5 -88.5t51.5 -67.5h-97q-32 33 -57 82q-32 -42 -85 -82h-98q34 26 77.5 69.5z" />
    <glyph glyph-name="uni1EC0" unicode="&#x1ec0;" horiz-adv-x="577" 
d="M99.5 39q-52.5 39 -52.5 119q0 26 6 57l48 270q18 106 83.5 160.5t191.5 54.5h242l-17 -93h-236q-62 0 -98 -28.5t-48 -93.5l-16 -89h315l-16 -92h-315l-16 -89q-4 -26 -4 -36q0 -44 26.5 -65t80.5 -21h240l-16 -93h-239q-107 0 -159.5 39zM539 989h107l42 -121h-82z
M337.5 837q44.5 45 75.5 88h89q15 -44 44 -88.5t53 -67.5h-94q-18 17 -34 39.5t-23 42.5q-29 -40 -85 -82h-101q31 23 75.5 68z" />
    <glyph glyph-name="uni1EC2" unicode="&#x1ec2;" horiz-adv-x="577" 
d="M99.5 39q-52.5 39 -52.5 119q0 26 6 57l48 270q18 106 83.5 160.5t191.5 54.5h242l-17 -93h-236q-62 0 -98 -28.5t-48 -93.5l-16 -89h315l-16 -92h-315l-16 -89q-4 -26 -4 -36q0 -44 26.5 -65t80.5 -21h240l-16 -93h-239q-107 0 -159.5 39zM649 895l-5 -32h-67l11 64
q44 4 61.5 14t17.5 28q0 12 -9 16.5t-28 4.5q-17 0 -51 -10l-7 50q33 15 79 15q40 0 62 -14.5t22 -44.5q0 -71 -86 -91zM546 836.5q29 -44.5 53 -67.5h-94q-18 17 -34 39.5t-23 42.5q-29 -40 -85 -82h-101q31 23 75.5 68t75.5 88h89q15 -44 44 -88.5z" />
    <glyph glyph-name="uni1EC4" unicode="&#x1ec4;" horiz-adv-x="577" 
d="M99.5 39q-52.5 39 -52.5 119q0 26 6 57l48 270q18 106 83.5 160.5t191.5 54.5h242l-17 -93h-236q-62 0 -98 -28.5t-48 -93.5l-16 -89h315l-16 -92h-315l-16 -89q-4 -26 -4 -36q0 -44 26.5 -65t80.5 -21h240l-16 -93h-239q-107 0 -159.5 39zM345.5 1036q32.5 32 79.5 32
q18 0 32 -5t34 -15q26 -15 41 -15q26 0 39 42h65q-13 -46 -44.5 -79t-71.5 -33q-19 0 -32.5 5.5t-32.5 15.5q-26 15 -42 15q-29 0 -46 -43h-64q10 48 42.5 80zM337.5 837q44.5 45 75.5 88h89q15 -44 44 -88.5t53 -67.5h-94q-18 17 -34 39.5t-23 42.5q-29 -40 -85 -82h-101
q31 23 75.5 68z" />
    <glyph glyph-name="Edieresis" unicode="&#xcb;" horiz-adv-x="577" 
d="M99.5 39q-52.5 39 -52.5 119q0 26 6 57l48 270q18 106 83.5 160.5t191.5 54.5h242l-17 -93h-236q-62 0 -98 -28.5t-48 -93.5l-16 -89h315l-16 -92h-315l-16 -89q-4 -26 -4 -36q0 -44 26.5 -65t80.5 -21h240l-16 -93h-239q-107 0 -159.5 39zM310.5 777.5
q-13.5 13.5 -13.5 33.5q0 25 20.5 45t46.5 20q20 0 33.5 -13.5t13.5 -33.5q0 -25 -20.5 -45t-45.5 -20q-21 0 -34.5 13.5zM484 777q-13 13 -13 33q0 26 20.5 46t46.5 20q20 0 34 -13.5t14 -33.5q0 -25 -21 -45t-47 -20q-21 0 -34 13z" />
    <glyph glyph-name="Edotaccent" unicode="&#x116;" horiz-adv-x="577" 
d="M99.5 39q-52.5 39 -52.5 119q0 26 6 57l48 270q18 106 83.5 160.5t191.5 54.5h242l-17 -93h-236q-62 0 -98 -28.5t-48 -93.5l-16 -89h315l-16 -92h-315l-16 -89q-4 -26 -4 -36q0 -44 26.5 -65t80.5 -21h240l-16 -93h-239q-107 0 -159.5 39zM393.5 779q-15.5 15 -15.5 37
q0 29 23.5 52t52.5 23q23 0 38.5 -15.5t15.5 -37.5q0 -28 -23.5 -51t-52.5 -23q-23 0 -38.5 15z" />
    <glyph glyph-name="uni1EB8" unicode="&#x1eb8;" horiz-adv-x="577" 
d="M99.5 39q-52.5 39 -52.5 119q0 26 6 57l48 270q18 106 83.5 160.5t191.5 54.5h242l-17 -93h-236q-62 0 -98 -28.5t-48 -93.5l-16 -89h315l-16 -92h-315l-16 -89q-4 -26 -4 -36q0 -44 26.5 -65t80.5 -21h240l-16 -93h-239q-107 0 -159.5 39zM236 -168q-15 15 -15 37
q0 29 23.5 52t52.5 23q23 0 38 -15.5t15 -37.5q0 -29 -23 -51.5t-53 -22.5q-23 0 -38 15z" />
    <glyph glyph-name="Egrave" unicode="&#xc8;" horiz-adv-x="577" 
d="M99.5 39q-52.5 39 -52.5 119q0 26 6 57l48 270q18 106 83.5 160.5t191.5 54.5h242l-17 -93h-236q-62 0 -98 -28.5t-48 -93.5l-16 -89h315l-16 -92h-315l-16 -89q-4 -26 -4 -36q0 -44 26.5 -65t80.5 -21h240l-16 -93h-239q-107 0 -159.5 39zM309 922h115l53 -153h-89z" />
    <glyph glyph-name="uni1EBA" unicode="&#x1eba;" horiz-adv-x="577" 
d="M99.5 39q-52.5 39 -52.5 119q0 26 6 57l48 270q18 106 83.5 160.5t191.5 54.5h242l-17 -93h-236q-62 0 -98 -28.5t-48 -93.5l-16 -89h315l-16 -92h-315l-16 -89q-4 -26 -4 -36q0 -44 26.5 -65t80.5 -21h240l-16 -93h-239q-107 0 -159.5 39zM473 807l-7 -38h-80l14 76
q49 5 71 16.5t22 34.5q0 26 -42 26q-29 0 -60 -13l-8 60q43 18 92 18q50 0 77.5 -18t27.5 -55q0 -83 -107 -107z" />
    <glyph glyph-name="Emacron" unicode="&#x112;" horiz-adv-x="577" 
d="M99.5 39q-52.5 39 -52.5 119q0 26 6 57l48 270q18 106 83.5 160.5t191.5 54.5h242l-17 -93h-236q-62 0 -98 -28.5t-48 -93.5l-16 -89h315l-16 -92h-315l-16 -89q-4 -26 -4 -36q0 -44 26.5 -65t80.5 -21h240l-16 -93h-239q-107 0 -159.5 39zM292 862h314l-14 -78h-314z
" />
    <glyph glyph-name="Eogonek" unicode="&#x118;" horiz-adv-x="577" 
d="M267 578.5q-36 -28.5 -48 -93.5l-16 -89h315l-16 -92h-315l-16 -89q-4 -26 -4 -36q0 -44 26.5 -65t80.5 -21h240l-16 -93h-44q-26 -27 -44 -59t-18 -56q0 -18 12 -27t32 -9q24 0 56 13l8 -61q-45 -24 -87 -24q-63 0 -90 25t-27 61q0 70 81 137h-118q-107 0 -159.5 39
t-52.5 119q0 26 6 57l48 270q18 106 83.5 160.5t191.5 54.5h242l-17 -93h-236q-62 0 -98 -28.5z" />
    <glyph glyph-name="uni1EBC" unicode="&#x1ebc;" horiz-adv-x="577" 
d="M99.5 39q-52.5 39 -52.5 119q0 26 6 57l48 270q18 106 83.5 160.5t191.5 54.5h242l-17 -93h-236q-62 0 -98 -28.5t-48 -93.5l-16 -89h315l-16 -92h-315l-16 -89q-4 -26 -4 -36q0 -44 26.5 -65t80.5 -21h240l-16 -93h-239q-107 0 -159.5 39zM310 865q33 37 83 37
q20 0 35.5 -6t35.5 -18q16 -9 25.5 -13t20.5 -4q15 0 24.5 11.5t17.5 37.5h71q-14 -54 -47 -92t-76 -38q-20 0 -35.5 6t-35.5 18q-16 9 -25.5 13t-20.5 4q-15 0 -26 -11.5t-20 -37.5h-72q12 56 45 93z" />
    <glyph glyph-name="F" unicode="F" horiz-adv-x="581" 
d="M108 485q19 106 84 160.5t191 54.5h241l-16 -93h-236q-60 0 -97.5 -28t-48.5 -94l-19 -109h314l-16 -92h-315l-50 -284h-118z" />
    <glyph glyph-name="G" unicode="G" horiz-adv-x="671" 
d="M122 40.5q-67 52.5 -67 147.5q0 23 5 55l38 214q22 126 103.5 190.5t219.5 64.5q198 0 255 -121l-100 -62q-24 47 -60.5 68.5t-102.5 21.5q-168 0 -197 -162l-38 -214q-4 -21 -4 -45q0 -58 35.5 -87.5t109.5 -29.5q76 0 124.5 27.5t56.5 76.5l7 42q2 14 2 19q0 53 -58 53
h-116l16 93h148q64 0 97.5 -25.5t33.5 -82.5q0 -21 -4 -41l-12 -66q-16 -88 -96 -138.5t-205 -50.5q-124 0 -191 52.5z" />
    <glyph glyph-name="Gbreve" unicode="&#x11e;" horiz-adv-x="671" 
d="M122 40.5q-67 52.5 -67 147.5q0 23 5 55l38 214q22 126 103.5 190.5t219.5 64.5q198 0 255 -121l-100 -62q-24 47 -60.5 68.5t-102.5 21.5q-168 0 -197 -162l-38 -214q-4 -21 -4 -45q0 -58 35.5 -87.5t109.5 -29.5q76 0 124.5 27.5t56.5 76.5l7 42q2 14 2 19q0 53 -58 53
h-116l16 93h148q64 0 97.5 -25.5t33.5 -82.5q0 -21 -4 -41l-12 -66q-16 -88 -96 -138.5t-205 -50.5q-124 0 -191 52.5zM334 795.5q-39 34.5 -39 92.5q0 16 3 32h79l-1 -13q0 -32 17.5 -50.5t50.5 -18.5q37 0 62 22t34 60h78q-13 -74 -60 -116.5t-120 -42.5q-65 0 -104 34.5z
" />
    <glyph glyph-name="Gcaron" unicode="&#x1e6;" horiz-adv-x="671" 
d="M122 40.5q-67 52.5 -67 147.5q0 23 5 55l38 214q22 126 103.5 190.5t219.5 64.5q198 0 255 -121l-100 -62q-24 47 -60.5 68.5t-102.5 21.5q-168 0 -197 -162l-38 -214q-4 -21 -4 -45q0 -58 35.5 -87.5t109.5 -29.5q76 0 124.5 27.5t56.5 76.5l7 42q2 14 2 19q0 53 -58 53
h-116l16 93h148q64 0 97.5 -25.5t33.5 -82.5q0 -21 -4 -41l-12 -66q-16 -88 -96 -138.5t-205 -50.5q-124 0 -191 52.5zM341.5 858.5q-28.5 44.5 -51.5 66.5h98q29 -29 56 -81q16 21 39.5 43t45.5 38h98q-33 -24 -77 -68t-74 -88h-90q-16 45 -44.5 89.5z" />
    <glyph glyph-name="Gcircumflex" unicode="&#x11c;" horiz-adv-x="671" 
d="M122 40.5q-67 52.5 -67 147.5q0 23 5 55l38 214q22 126 103.5 190.5t219.5 64.5q198 0 255 -121l-100 -62q-24 47 -60.5 68.5t-102.5 21.5q-168 0 -197 -162l-38 -214q-4 -21 -4 -45q0 -58 35.5 -87.5t109.5 -29.5q76 0 124.5 27.5t56.5 76.5l7 42q2 14 2 19q0 53 -58 53
h-116l16 93h148q64 0 97.5 -25.5t33.5 -82.5q0 -21 -4 -41l-12 -66q-16 -88 -96 -138.5t-205 -50.5q-124 0 -191 52.5zM339.5 838.5q43.5 43.5 73.5 86.5h90q16 -44 44.5 -88.5t51.5 -67.5h-97q-32 33 -57 82q-32 -42 -85 -82h-98q34 26 77.5 69.5z" />
    <glyph glyph-name="uni0122" unicode="&#x122;" horiz-adv-x="671" 
d="M122 40.5q-67 52.5 -67 147.5q0 23 5 55l38 214q22 126 103.5 190.5t219.5 64.5q198 0 255 -121l-100 -62q-24 47 -60.5 68.5t-102.5 21.5q-168 0 -197 -162l-38 -214q-4 -21 -4 -45q0 -58 35.5 -87.5t109.5 -29.5q76 0 124.5 27.5t56.5 76.5l7 42q2 14 2 19q0 53 -58 53
h-116l16 93h148q64 0 97.5 -25.5t33.5 -82.5q0 -21 -4 -41l-12 -66q-16 -88 -96 -138.5t-205 -50.5q-124 0 -191 52.5zM327.5 -73.5q14.5 -15.5 14.5 -43.5q0 -56 -36 -104.5t-89 -85.5l-28 32q61 41 79 87q-13 -6 -30 -6q-19 0 -29.5 11.5t-10.5 31.5q0 35 27.5 64t59.5 29
q28 0 42.5 -15.5z" />
    <glyph glyph-name="Gdotaccent" unicode="&#x120;" horiz-adv-x="671" 
d="M122 40.5q-67 52.5 -67 147.5q0 23 5 55l38 214q22 126 103.5 190.5t219.5 64.5q198 0 255 -121l-100 -62q-24 47 -60.5 68.5t-102.5 21.5q-168 0 -197 -162l-38 -214q-4 -21 -4 -45q0 -58 35.5 -87.5t109.5 -29.5q76 0 124.5 27.5t56.5 76.5l7 42q2 14 2 19q0 53 -58 53
h-116l16 93h148q64 0 97.5 -25.5t33.5 -82.5q0 -21 -4 -41l-12 -66q-16 -88 -96 -138.5t-205 -50.5q-124 0 -191 52.5zM393.5 779q-15.5 15 -15.5 37q0 29 23.5 52t52.5 23q23 0 38.5 -15.5t15.5 -37.5q0 -28 -23.5 -51t-52.5 -23q-23 0 -38.5 15z" />
    <glyph glyph-name="uni1E20" unicode="&#x1e20;" horiz-adv-x="671" 
d="M122 40.5q-67 52.5 -67 147.5q0 23 5 55l38 214q22 126 103.5 190.5t219.5 64.5q198 0 255 -121l-100 -62q-24 47 -60.5 68.5t-102.5 21.5q-168 0 -197 -162l-38 -214q-4 -21 -4 -45q0 -58 35.5 -87.5t109.5 -29.5q76 0 124.5 27.5t56.5 76.5l7 42q2 14 2 19q0 53 -58 53
h-116l16 93h148q64 0 97.5 -25.5t33.5 -82.5q0 -21 -4 -41l-12 -66q-16 -88 -96 -138.5t-205 -50.5q-124 0 -191 52.5zM291 862h314l-14 -78h-314z" />
    <glyph glyph-name="H" unicode="H" horiz-adv-x="723" 
d="M170 700h118l-52 -303h310l52 303h118l-123 -700h-118l54 305h-310l-54 -305h-118z" />
    <glyph glyph-name="Hbar" unicode="&#x126;" horiz-adv-x="731" 
d="M773 507h-86l-89 -507h-118l53 305h-310l-53 -305h-118l89 507h-87l15 81h86l20 112h118l-20 -112h310l20 112h118l-20 -112h86zM569 507h-310l-19 -110h310z" />
    <glyph glyph-name="uni1E2A" unicode="&#x1e2a;" horiz-adv-x="723" 
d="M170 700h118l-52 -303h310l52 303h118l-123 -700h-118l54 305h-310l-54 -305h-118zM188 -189.5q-39 34.5 -39 92.5q0 14 3 31h79l-1 -13q0 -31 17.5 -49.5t50.5 -18.5q37 0 62 21.5t34 59.5h78q-13 -74 -60 -116t-120 -42q-65 0 -104 34.5z" />
    <glyph glyph-name="Hcircumflex" unicode="&#x124;" horiz-adv-x="723" 
d="M170 700h118l-52 -303h310l52 303h118l-123 -700h-118l54 305h-310l-54 -305h-118zM362.5 838.5q43.5 43.5 73.5 86.5h90q16 -44 44.5 -88.5t51.5 -67.5h-97q-32 33 -57 82q-32 -42 -85 -82h-98q34 26 77.5 69.5z" />
    <glyph glyph-name="uni1E24" unicode="&#x1e24;" horiz-adv-x="723" 
d="M170 700h118l-52 -303h310l52 303h118l-123 -700h-118l54 305h-310l-54 -305h-118zM253 -168q-15 15 -15 37q0 29 23.5 52t52.5 23q23 0 38 -15.5t15 -37.5q0 -29 -23 -51.5t-53 -22.5q-23 0 -38 15z" />
    <glyph glyph-name="I" unicode="I" horiz-adv-x="295" 
d="M170 700h118l-123 -700h-118z" />
    <glyph glyph-name="IJ" unicode="&#x132;" horiz-adv-x="813" 
d="M170 700h118l-123 -700h-118zM346.5 9.5q-48.5 21.5 -83.5 71.5l82 72q23 -39 51 -55.5t71 -16.5q68 0 109 31.5t51 91.5l87 496h118l-88 -497q-19 -105 -89.5 -160t-190.5 -55q-69 0 -117.5 21.5z" />
    <glyph glyph-name="Iacute" unicode="&#xcd;" horiz-adv-x="295" 
d="M170 700h118l-123 -700h-118zM299 922h115l-134 -153h-88z" />
    <glyph glyph-name="Ibreve" unicode="&#x12c;" horiz-adv-x="295" 
d="M170 700h118l-123 -700h-118zM144 795.5q-39 34.5 -39 92.5q0 16 3 32h79l-1 -13q0 -32 17.5 -50.5t50.5 -18.5q37 0 62 22t34 60h78q-13 -74 -60 -116.5t-120 -42.5q-65 0 -104 34.5z" />
    <glyph glyph-name="uni01CF" unicode="&#x1cf;" horiz-adv-x="295" 
d="M170 700h118l-123 -700h-118zM151.5 858.5q-28.5 44.5 -51.5 66.5h98q29 -29 56 -81q16 21 39.5 43t45.5 38h98q-33 -24 -77 -68t-74 -88h-90q-16 45 -44.5 89.5z" />
    <glyph glyph-name="Icircumflex" unicode="&#xce;" horiz-adv-x="295" 
d="M170 700h118l-123 -700h-118zM149.5 838.5q43.5 43.5 73.5 86.5h90q16 -44 44.5 -88.5t51.5 -67.5h-97q-32 33 -57 82q-32 -42 -85 -82h-98q34 26 77.5 69.5z" />
    <glyph glyph-name="Idieresis" unicode="&#xcf;" horiz-adv-x="295" 
d="M170 700h118l-123 -700h-118zM120.5 777.5q-13.5 13.5 -13.5 33.5q0 25 20.5 45t46.5 20q20 0 33.5 -13.5t13.5 -33.5q0 -25 -20.5 -45t-45.5 -20q-21 0 -34.5 13.5zM294 777q-13 13 -13 33q0 26 20.5 46t46.5 20q20 0 34 -13.5t14 -33.5q0 -25 -21 -45t-47 -20
q-21 0 -34 13z" />
    <glyph glyph-name="Idotaccent" unicode="&#x130;" horiz-adv-x="295" 
d="M170 700h118l-123 -700h-118zM203.5 779q-15.5 15 -15.5 37q0 29 23.5 52t52.5 23q23 0 38.5 -15.5t15.5 -37.5q0 -28 -23.5 -51t-52.5 -23q-23 0 -38.5 15z" />
    <glyph glyph-name="uni1ECA" unicode="&#x1eca;" horiz-adv-x="295" 
d="M170 700h118l-123 -700h-118zM36 -168q-15 15 -15 37q0 29 23.5 52t52.5 23q23 0 38 -15.5t15 -37.5q0 -29 -23 -51.5t-53 -22.5q-23 0 -38 15z" />
    <glyph glyph-name="Igrave" unicode="&#xcc;" horiz-adv-x="295" 
d="M170 700h118l-123 -700h-118zM119 922h115l53 -153h-89z" />
    <glyph glyph-name="uni1EC8" unicode="&#x1ec8;" horiz-adv-x="295" 
d="M170 700h118l-123 -700h-118zM283 807l-7 -38h-80l14 76q49 5 71 16.5t22 34.5q0 26 -42 26q-29 0 -60 -13l-8 60q43 18 92 18q50 0 77.5 -18t27.5 -55q0 -83 -107 -107z" />
    <glyph glyph-name="Imacron" unicode="&#x12a;" horiz-adv-x="295" 
d="M170 700h118l-123 -700h-118zM101 862h314l-14 -78h-314z" />
    <glyph glyph-name="Iogonek" unicode="&#x12e;" horiz-adv-x="295" 
d="M195 -138l9 -61q-45 -24 -88 -24q-63 0 -89.5 25t-26.5 61q0 71 80 137h-33l123 700h118l-123 -700h-7q-26 -27 -44.5 -59t-18.5 -56q0 -18 12.5 -27t32.5 -9q23 0 55 13z" />
    <glyph glyph-name="Itilde" unicode="&#x128;" horiz-adv-x="295" 
d="M170 700h118l-123 -700h-118zM120 865q33 37 83 37q20 0 35.5 -6t35.5 -18q16 -9 25.5 -13t20.5 -4q15 0 24.5 11.5t17.5 37.5h71q-14 -54 -47 -92t-76 -38q-20 0 -35.5 6t-35.5 18q-16 9 -25.5 13t-20.5 4q-15 0 -26 -11.5t-20 -37.5h-72q12 56 45 93z" />
    <glyph glyph-name="J" unicode="J" horiz-adv-x="547" 
d="M80.5 9.5q-48.5 21.5 -83.5 71.5l82 72q23 -39 51 -55.5t71 -16.5q68 0 109 31.5t51 91.5l87 496h118l-88 -497q-19 -105 -89.5 -160t-190.5 -55q-69 0 -117.5 21.5z" />
    <glyph glyph-name="Jcircumflex" unicode="&#x134;" horiz-adv-x="547" 
d="M80.5 9.5q-48.5 21.5 -83.5 71.5l82 72q23 -39 51 -55.5t71 -16.5q68 0 109 31.5t51 91.5l87 496h118l-88 -497q-19 -105 -89.5 -160t-190.5 -55q-69 0 -117.5 21.5zM425.5 838.5q43.5 43.5 73.5 86.5h90q16 -44 44.5 -88.5t51.5 -67.5h-97q-32 33 -57 82
q-32 -42 -85 -82h-98q34 26 77.5 69.5z" />
    <glyph glyph-name="K" unicode="K" horiz-adv-x="687" 
d="M516 390q27 -24 40 -60t23 -98l36 -232h-119l-35 221q-7 42 -15 63.5t-30 36.5t-67 21l-148 -135l-36 -207h-118l123 700h118l-61 -347l375 347h141l-302 -275q48 -11 75 -35z" />
    <glyph glyph-name="uni0136" unicode="&#x136;" horiz-adv-x="687" 
d="M516 390q27 -24 40 -60t23 -98l36 -232h-119l-35 221q-7 42 -15 63.5t-30 36.5t-67 21l-148 -135l-36 -207h-118l123 700h118l-61 -347l375 347h141l-302 -275q48 -11 75 -35zM363.5 -73.5q14.5 -15.5 14.5 -43.5q0 -56 -36 -104.5t-89 -85.5l-28 32q61 41 79 87
q-13 -6 -30 -6q-19 0 -29.5 11.5t-10.5 31.5q0 35 27.5 64t59.5 29q28 0 42.5 -15.5z" />
    <glyph glyph-name="L" unicode="L" horiz-adv-x="551" 
d="M103.5 39q-49.5 39 -49.5 118q0 27 6 58l85 485h118l-85 -485q-4 -28 -4 -38q0 -43 24 -63.5t75 -20.5h224l-16 -93h-223q-105 0 -154.5 39z" />
    <glyph glyph-name="Lacute" unicode="&#x139;" horiz-adv-x="551" 
d="M103.5 39q-49.5 39 -49.5 118q0 27 6 58l85 485h118l-85 -485q-4 -28 -4 -38q0 -43 24 -63.5t75 -20.5h224l-16 -93h-223q-105 0 -154.5 39zM273 922h115l-134 -153h-88z" />
    <glyph glyph-name="Lcaron" unicode="&#x13d;" horiz-adv-x="575" 
d="M103.5 39q-49.5 39 -49.5 118q0 27 6 58l85 485h118l-85 -485q-4 -28 -4 -38q0 -43 24 -63.5t75 -20.5h224l-16 -93h-223q-105 0 -154.5 39zM557.5 715.5q14.5 -15.5 14.5 -44.5q0 -56 -36 -105.5t-89 -86.5l-28 32q64 42 79 89q-11 -5 -29 -5q-19 0 -30 11.5t-11 31.5
q0 35 27.5 64t60.5 29q27 0 41.5 -15.5z" />
    <glyph glyph-name="uni013B" unicode="&#x13b;" horiz-adv-x="551" 
d="M103.5 39q-49.5 39 -49.5 118q0 27 6 58l85 485h118l-85 -485q-4 -28 -4 -38q0 -43 24 -63.5t75 -20.5h224l-16 -93h-223q-105 0 -154.5 39zM307.5 -73.5q14.5 -15.5 14.5 -43.5q0 -56 -36 -104.5t-89 -85.5l-28 32q61 41 79 87q-13 -6 -30 -6q-19 0 -29.5 11.5
t-10.5 31.5q0 35 27.5 64t59.5 29q28 0 42.5 -15.5z" />
    <glyph glyph-name="Ldot" unicode="&#x13f;" horiz-adv-x="551" 
d="M103.5 39q-49.5 39 -49.5 118q0 27 6 58l85 485h118l-85 -485q-4 -28 -4 -38q0 -43 24 -63.5t75 -20.5h224l-16 -93h-223q-105 0 -154.5 39zM358.5 293q-18.5 18 -18.5 45q0 37 28.5 65t65.5 28q28 0 46 -18.5t18 -46.5q0 -35 -27.5 -63t-63.5 -28q-30 0 -48.5 18z" />
    <glyph glyph-name="uni1E36" unicode="&#x1e36;" horiz-adv-x="551" 
d="M103.5 39q-49.5 39 -49.5 118q0 27 6 58l85 485h118l-85 -485q-4 -28 -4 -38q0 -43 24 -63.5t75 -20.5h224l-16 -93h-223q-105 0 -154.5 39zM205 -168q-15 15 -15 37q0 29 23.5 52t52.5 23q23 0 38 -15.5t15 -37.5q0 -29 -23 -51.5t-53 -22.5q-23 0 -38 15z" />
    <glyph glyph-name="uni1E38" unicode="&#x1e38;" horiz-adv-x="551" 
d="M103.5 39q-49.5 39 -49.5 118q0 27 6 58l85 485h118l-85 -485q-4 -28 -4 -38q0 -43 24 -63.5t75 -20.5h224l-16 -93h-223q-105 0 -154.5 39zM205 -168q-15 15 -15 37q0 29 23.5 52t52.5 23q23 0 38 -15.5t15 -37.5q0 -29 -23 -51.5t-53 -22.5q-23 0 -38 15zM76 862h314
l-14 -78h-314z" />
    <glyph glyph-name="uni1E3A" unicode="&#x1e3a;" horiz-adv-x="551" 
d="M103.5 39q-49.5 39 -49.5 118q0 27 6 58l85 485h118l-85 -485q-4 -28 -4 -38q0 -43 24 -63.5t75 -20.5h224l-16 -93h-223q-105 0 -154.5 39zM105 -75h314l-13 -78h-315z" />
    <glyph glyph-name="Lslash" unicode="&#x141;" horiz-adv-x="564" 
d="M510 93l-16 -93h-223q-105 0 -154.5 39t-49.5 118q0 27 6 58l6 37l-82 -35l16 93l83 35l62 355h118l-53 -302l247 104l-17 -94l-246 -103l-16 -90q-4 -28 -4 -38q0 -43 24 -63.5t75 -20.5h224z" />
    <glyph glyph-name="M" unicode="M" horiz-adv-x="830" 
d="M170 700h63q44 0 69.5 -10.5t44.5 -39t38 -86.5l58 -173l118 173q35 52 61.5 80t59 42t79.5 14h63l-123 -700h-108l102 578q-13 0 -24 -11t-29 -36l-232 -324l-116 324q-10 27 -16.5 37t-19.5 11l-103 -579h-108z" />
    <glyph glyph-name="uni1E42" unicode="&#x1e42;" horiz-adv-x="830" 
d="M170 700h63q44 0 69.5 -10.5t44.5 -39t38 -86.5l58 -173l118 173q35 52 61.5 80t59 42t79.5 14h63l-123 -700h-108l102 578q-13 0 -24 -11t-29 -36l-232 -324l-116 324q-10 27 -16.5 37t-19.5 11l-103 -579h-108zM303 -168q-15 15 -15 37q0 29 23.5 52t52.5 23
q23 0 38 -15.5t15 -37.5q0 -29 -23 -51.5t-53 -22.5q-23 0 -38 15z" />
    <glyph glyph-name="N" unicode="N" horiz-adv-x="728" 
d="M734 700l-98 -555q-12 -72 -48 -108.5t-100 -36.5h-83l-156 515l-91 -515h-111l123 700h135l180 -599h4q16 0 24.5 13t15.5 48l94 538h111z" />
    <glyph glyph-name="Nacute" unicode="&#x143;" horiz-adv-x="728" 
d="M734 700l-98 -555q-12 -72 -48 -108.5t-100 -36.5h-83l-156 515l-91 -515h-111l123 700h135l180 -599h4q16 0 24.5 13t15.5 48l94 538h111zM520 922h115l-134 -153h-88z" />
    <glyph glyph-name="Ncaron" unicode="&#x147;" horiz-adv-x="728" 
d="M734 700l-98 -555q-12 -72 -48 -108.5t-100 -36.5h-83l-156 515l-91 -515h-111l123 700h135l180 -599h4q16 0 24.5 13t15.5 48l94 538h111zM372.5 858.5q-28.5 44.5 -51.5 66.5h98q29 -29 56 -81q16 21 39.5 43t45.5 38h98q-33 -24 -77 -68t-74 -88h-90
q-16 45 -44.5 89.5z" />
    <glyph glyph-name="uni0145" unicode="&#x145;" horiz-adv-x="728" 
d="M734 700l-98 -555q-12 -72 -48 -108.5t-100 -36.5h-83l-156 515l-91 -515h-111l123 700h135l180 -599h4q16 0 24.5 13t15.5 48l94 538h111zM351.5 -73.5q14.5 -15.5 14.5 -43.5q0 -56 -36 -104.5t-89 -85.5l-28 32q61 41 79 87q-13 -6 -30 -6q-19 0 -29.5 11.5
t-10.5 31.5q0 35 27.5 64t59.5 29q28 0 42.5 -15.5z" />
    <glyph glyph-name="uni1E44" unicode="&#x1e44;" horiz-adv-x="728" 
d="M734 700l-98 -555q-12 -72 -48 -108.5t-100 -36.5h-83l-156 515l-91 -515h-111l123 700h135l180 -599h4q16 0 24.5 13t15.5 48l94 538h111zM424.5 779q-15.5 15 -15.5 37q0 29 23.5 52t52.5 23q23 0 38.5 -15.5t15.5 -37.5q0 -28 -23.5 -51t-52.5 -23q-23 0 -38.5 15z
" />
    <glyph glyph-name="uni1E46" unicode="&#x1e46;" horiz-adv-x="728" 
d="M734 700l-98 -555q-12 -72 -48 -108.5t-100 -36.5h-83l-156 515l-91 -515h-111l123 700h135l180 -599h4q16 0 24.5 13t15.5 48l94 538h111zM249 -168q-15 15 -15 37q0 29 23.5 52t52.5 23q23 0 38 -15.5t15 -37.5q0 -29 -23 -51.5t-53 -22.5q-23 0 -38 15z" />
    <glyph glyph-name="Eng" unicode="&#x14a;" horiz-adv-x="729" 
d="M337 -139h51q44 0 69.5 22t35.5 78l7 39h-12h-83l-156 515l-91 -515h-111l123 700h135l181 -599h3q16 0 24.5 12.5t14.5 43.5l95 543h111l-130 -739q-18 -101 -70 -147t-162 -46h-51z" />
    <glyph glyph-name="uni1E48" unicode="&#x1e48;" horiz-adv-x="728" 
d="M734 700l-98 -555q-12 -72 -48 -108.5t-100 -36.5h-83l-156 515l-91 -515h-111l123 700h135l180 -599h4q16 0 24.5 13t15.5 48l94 538h111zM149 -75h314l-13 -78h-315z" />
    <glyph glyph-name="Ntilde" unicode="&#xd1;" horiz-adv-x="728" 
d="M734 700l-98 -555q-12 -72 -48 -108.5t-100 -36.5h-83l-156 515l-91 -515h-111l123 700h135l180 -599h4q16 0 24.5 13t15.5 48l94 538h111zM341 865q33 37 83 37q20 0 35.5 -6t35.5 -18q16 -9 25.5 -13t20.5 -4q15 0 24.5 11.5t17.5 37.5h71q-14 -54 -47 -92t-76 -38
q-20 0 -35.5 6t-35.5 18q-16 9 -25.5 13t-20.5 4q-15 0 -26 -11.5t-20 -37.5h-72q12 56 45 93z" />
    <glyph glyph-name="O" unicode="O" horiz-adv-x="681" 
d="M119.5 39q-64.5 51 -64.5 147q0 32 5 57l37 214q23 126 103 190.5t215 64.5q121 0 186.5 -52t65.5 -147q0 -31 -5 -56l-38 -214q-22 -127 -101.5 -191t-215.5 -64q-123 0 -187.5 51zM443 122.5q50 41.5 63 120.5l38 214q4 20 4 41q0 59 -36 90t-104 31q-79 0 -129 -42
t-64 -120l-37 -214q-4 -20 -4 -41q0 -59 36 -90t103 -31q80 0 130 41.5z" />
    <glyph glyph-name="Oacute" unicode="&#xd3;" horiz-adv-x="681" 
d="M119.5 39q-64.5 51 -64.5 147q0 32 5 57l37 214q23 126 103 190.5t215 64.5q121 0 186.5 -52t65.5 -147q0 -31 -5 -56l-38 -214q-22 -127 -101.5 -191t-215.5 -64q-123 0 -187.5 51zM443 122.5q50 41.5 63 120.5l38 214q4 20 4 41q0 59 -36 90t-104 31q-79 0 -129 -42
t-64 -120l-37 -214q-4 -20 -4 -41q0 -59 36 -90t103 -31q80 0 130 41.5zM487 922h115l-134 -153h-88z" />
    <glyph glyph-name="Obreve" unicode="&#x14e;" horiz-adv-x="681" 
d="M119.5 39q-64.5 51 -64.5 147q0 32 5 57l37 214q23 126 103 190.5t215 64.5q121 0 186.5 -52t65.5 -147q0 -31 -5 -56l-38 -214q-22 -127 -101.5 -191t-215.5 -64q-123 0 -187.5 51zM443 122.5q50 41.5 63 120.5l38 214q4 20 4 41q0 59 -36 90t-104 31q-79 0 -129 -42
t-64 -120l-37 -214q-4 -20 -4 -41q0 -59 36 -90t103 -31q80 0 130 41.5zM332 795.5q-39 34.5 -39 92.5q0 16 3 32h79l-1 -13q0 -32 17.5 -50.5t50.5 -18.5q37 0 62 22t34 60h78q-13 -74 -60 -116.5t-120 -42.5q-65 0 -104 34.5z" />
    <glyph glyph-name="uni01D1" unicode="&#x1d1;" horiz-adv-x="681" 
d="M119.5 39q-64.5 51 -64.5 147q0 32 5 57l37 214q23 126 103 190.5t215 64.5q121 0 186.5 -52t65.5 -147q0 -31 -5 -56l-38 -214q-22 -127 -101.5 -191t-215.5 -64q-123 0 -187.5 51zM443 122.5q50 41.5 63 120.5l38 214q4 20 4 41q0 59 -36 90t-104 31q-79 0 -129 -42
t-64 -120l-37 -214q-4 -20 -4 -41q0 -59 36 -90t103 -31q80 0 130 41.5zM339.5 858.5q-28.5 44.5 -51.5 66.5h98q29 -29 56 -81q16 21 39.5 43t45.5 38h98q-33 -24 -77 -68t-74 -88h-90q-16 45 -44.5 89.5z" />
    <glyph glyph-name="Ocircumflex" unicode="&#xd4;" horiz-adv-x="681" 
d="M119.5 39q-64.5 51 -64.5 147q0 32 5 57l37 214q23 126 103 190.5t215 64.5q121 0 186.5 -52t65.5 -147q0 -31 -5 -56l-38 -214q-22 -127 -101.5 -191t-215.5 -64q-123 0 -187.5 51zM443 122.5q50 41.5 63 120.5l38 214q4 20 4 41q0 59 -36 90t-104 31q-79 0 -129 -42
t-64 -120l-37 -214q-4 -20 -4 -41q0 -59 36 -90t103 -31q80 0 130 41.5zM337.5 838.5q43.5 43.5 73.5 86.5h90q16 -44 44.5 -88.5t51.5 -67.5h-97q-32 33 -57 82q-32 -42 -85 -82h-98q34 26 77.5 69.5z" />
    <glyph glyph-name="uni1ED0" unicode="&#x1ed0;" horiz-adv-x="681" 
d="M119.5 39q-64.5 51 -64.5 147q0 32 5 57l37 214q23 126 103 190.5t215 64.5q121 0 186.5 -52t65.5 -147q0 -31 -5 -56l-38 -214q-22 -127 -101.5 -191t-215.5 -64q-123 0 -187.5 51zM443 122.5q50 41.5 63 120.5l38 214q4 20 4 41q0 59 -36 90t-104 31q-79 0 -129 -42
t-64 -120l-37 -214q-4 -20 -4 -41q0 -59 36 -90t103 -31q80 0 130 41.5zM642 989h107l-109 -121h-82zM335.5 837q44.5 45 75.5 88h89q15 -44 44 -88.5t53 -67.5h-94q-18 17 -34 39.5t-23 42.5q-29 -40 -85 -82h-101q31 23 75.5 68z" />
    <glyph glyph-name="uni1ED8" unicode="&#x1ed8;" horiz-adv-x="681" 
d="M119.5 39q-64.5 51 -64.5 147q0 32 5 57l37 214q23 126 103 190.5t215 64.5q121 0 186.5 -52t65.5 -147q0 -31 -5 -56l-38 -214q-22 -127 -101.5 -191t-215.5 -64q-123 0 -187.5 51zM443 122.5q50 41.5 63 120.5l38 214q4 20 4 41q0 59 -36 90t-104 31q-79 0 -129 -42
t-64 -120l-37 -214q-4 -20 -4 -41q0 -59 36 -90t103 -31q80 0 130 41.5zM225 -168q-15 15 -15 37q0 29 23.5 52t52.5 23q23 0 38 -15.5t15 -37.5q0 -29 -23 -51.5t-53 -22.5q-23 0 -38 15zM337.5 838.5q43.5 43.5 73.5 86.5h90q16 -44 44.5 -88.5t51.5 -67.5h-97
q-32 33 -57 82q-32 -42 -85 -82h-98q34 26 77.5 69.5z" />
    <glyph glyph-name="uni1ED2" unicode="&#x1ed2;" horiz-adv-x="681" 
d="M119.5 39q-64.5 51 -64.5 147q0 32 5 57l37 214q23 126 103 190.5t215 64.5q121 0 186.5 -52t65.5 -147q0 -31 -5 -56l-38 -214q-22 -127 -101.5 -191t-215.5 -64q-123 0 -187.5 51zM443 122.5q50 41.5 63 120.5l38 214q4 20 4 41q0 59 -36 90t-104 31q-79 0 -129 -42
t-64 -120l-37 -214q-4 -20 -4 -41q0 -59 36 -90t103 -31q80 0 130 41.5zM537 989h107l42 -121h-82zM335.5 837q44.5 45 75.5 88h89q15 -44 44 -88.5t53 -67.5h-94q-18 17 -34 39.5t-23 42.5q-29 -40 -85 -82h-101q31 23 75.5 68z" />
    <glyph glyph-name="uni1ED4" unicode="&#x1ed4;" horiz-adv-x="681" 
d="M119.5 39q-64.5 51 -64.5 147q0 32 5 57l37 214q23 126 103 190.5t215 64.5q121 0 186.5 -52t65.5 -147q0 -31 -5 -56l-38 -214q-22 -127 -101.5 -191t-215.5 -64q-123 0 -187.5 51zM443 122.5q50 41.5 63 120.5l38 214q4 20 4 41q0 59 -36 90t-104 31q-79 0 -129 -42
t-64 -120l-37 -214q-4 -20 -4 -41q0 -59 36 -90t103 -31q80 0 130 41.5zM647 895l-5 -32h-67l11 64q44 4 61.5 14t17.5 28q0 12 -9 16.5t-28 4.5q-17 0 -51 -10l-7 50q33 15 79 15q40 0 62 -14.5t22 -44.5q0 -71 -86 -91zM544 836.5q29 -44.5 53 -67.5h-94q-18 17 -34 39.5
t-23 42.5q-29 -40 -85 -82h-101q31 23 75.5 68t75.5 88h89q15 -44 44 -88.5z" />
    <glyph glyph-name="uni1ED6" unicode="&#x1ed6;" horiz-adv-x="681" 
d="M119.5 39q-64.5 51 -64.5 147q0 32 5 57l37 214q23 126 103 190.5t215 64.5q121 0 186.5 -52t65.5 -147q0 -31 -5 -56l-38 -214q-22 -127 -101.5 -191t-215.5 -64q-123 0 -187.5 51zM443 122.5q50 41.5 63 120.5l38 214q4 20 4 41q0 59 -36 90t-104 31q-79 0 -129 -42
t-64 -120l-37 -214q-4 -20 -4 -41q0 -59 36 -90t103 -31q80 0 130 41.5zM343.5 1036q32.5 32 79.5 32q18 0 32 -5t34 -15q26 -15 41 -15q26 0 39 42h65q-13 -46 -44.5 -79t-71.5 -33q-19 0 -32.5 5.5t-32.5 15.5q-26 15 -42 15q-29 0 -46 -43h-64q10 48 42.5 80zM335.5 837
q44.5 45 75.5 88h89q15 -44 44 -88.5t53 -67.5h-94q-18 17 -34 39.5t-23 42.5q-29 -40 -85 -82h-101q31 23 75.5 68z" />
    <glyph glyph-name="Odieresis" unicode="&#xd6;" horiz-adv-x="681" 
d="M119.5 39q-64.5 51 -64.5 147q0 32 5 57l37 214q23 126 103 190.5t215 64.5q121 0 186.5 -52t65.5 -147q0 -31 -5 -56l-38 -214q-22 -127 -101.5 -191t-215.5 -64q-123 0 -187.5 51zM443 122.5q50 41.5 63 120.5l38 214q4 20 4 41q0 59 -36 90t-104 31q-79 0 -129 -42
t-64 -120l-37 -214q-4 -20 -4 -41q0 -59 36 -90t103 -31q80 0 130 41.5zM308.5 777.5q-13.5 13.5 -13.5 33.5q0 25 20.5 45t46.5 20q20 0 33.5 -13.5t13.5 -33.5q0 -25 -20.5 -45t-45.5 -20q-21 0 -34.5 13.5zM482 777q-13 13 -13 33q0 26 20.5 46t46.5 20q20 0 34 -13.5
t14 -33.5q0 -25 -21 -45t-47 -20q-21 0 -34 13z" />
    <glyph glyph-name="uni1ECC" unicode="&#x1ecc;" horiz-adv-x="681" 
d="M119.5 39q-64.5 51 -64.5 147q0 32 5 57l37 214q23 126 103 190.5t215 64.5q121 0 186.5 -52t65.5 -147q0 -31 -5 -56l-38 -214q-22 -127 -101.5 -191t-215.5 -64q-123 0 -187.5 51zM443 122.5q50 41.5 63 120.5l38 214q4 20 4 41q0 59 -36 90t-104 31q-79 0 -129 -42
t-64 -120l-37 -214q-4 -20 -4 -41q0 -59 36 -90t103 -31q80 0 130 41.5zM225 -168q-15 15 -15 37q0 29 23.5 52t52.5 23q23 0 38 -15.5t15 -37.5q0 -29 -23 -51.5t-53 -22.5q-23 0 -38 15z" />
    <glyph glyph-name="Ograve" unicode="&#xd2;" horiz-adv-x="681" 
d="M119.5 39q-64.5 51 -64.5 147q0 32 5 57l37 214q23 126 103 190.5t215 64.5q121 0 186.5 -52t65.5 -147q0 -31 -5 -56l-38 -214q-22 -127 -101.5 -191t-215.5 -64q-123 0 -187.5 51zM443 122.5q50 41.5 63 120.5l38 214q4 20 4 41q0 59 -36 90t-104 31q-79 0 -129 -42
t-64 -120l-37 -214q-4 -20 -4 -41q0 -59 36 -90t103 -31q80 0 130 41.5zM307 922h115l53 -153h-89z" />
    <glyph glyph-name="uni1ECE" unicode="&#x1ece;" horiz-adv-x="681" 
d="M119.5 39q-64.5 51 -64.5 147q0 32 5 57l37 214q23 126 103 190.5t215 64.5q121 0 186.5 -52t65.5 -147q0 -31 -5 -56l-38 -214q-22 -127 -101.5 -191t-215.5 -64q-123 0 -187.5 51zM443 122.5q50 41.5 63 120.5l38 214q4 20 4 41q0 59 -36 90t-104 31q-79 0 -129 -42
t-64 -120l-37 -214q-4 -20 -4 -41q0 -59 36 -90t103 -31q80 0 130 41.5zM471 807l-7 -38h-80l14 76q49 5 71 16.5t22 34.5q0 26 -42 26q-29 0 -60 -13l-8 60q43 18 92 18q50 0 77.5 -18t27.5 -55q0 -83 -107 -107z" />
    <glyph glyph-name="Ohorn" unicode="&#x1a0;" horiz-adv-x="698" 
d="M786.5 588.5q-42.5 -46.5 -119.5 -56.5q2 -39 -5 -75l-38 -214q-22 -127 -101.5 -191t-215.5 -64q-123 0 -187.5 51t-64.5 147q0 32 5 57l37 214q23 126 103 190.5t215 64.5q95 0 156 -32.5t84 -92.5q42 7 63 41.5t33 101.5h98q-20 -95 -62.5 -141.5zM548 498
q0 59 -36 90t-104 31q-79 0 -129 -42t-64 -120l-37 -214q-4 -20 -4 -41q0 -59 36 -90t103 -31q80 0 130 41.5t63 120.5l38 214q4 20 4 41z" />
    <glyph glyph-name="uni1EDA" unicode="&#x1eda;" horiz-adv-x="698" 
d="M786.5 588.5q-42.5 -46.5 -119.5 -56.5q2 -39 -5 -75l-38 -214q-22 -127 -101.5 -191t-215.5 -64q-123 0 -187.5 51t-64.5 147q0 32 5 57l37 214q23 126 103 190.5t215 64.5q95 0 156 -32.5t84 -92.5q42 7 63 41.5t33 101.5h98q-20 -95 -62.5 -141.5zM548 498
q0 59 -36 90t-104 31q-79 0 -129 -42t-64 -120l-37 -214q-4 -20 -4 -41q0 -59 36 -90t103 -31q80 0 130 41.5t63 120.5l38 214q4 20 4 41zM487 922h115l-134 -153h-88z" />
    <glyph glyph-name="uni1EE2" unicode="&#x1ee2;" horiz-adv-x="698" 
d="M786.5 588.5q-42.5 -46.5 -119.5 -56.5q2 -39 -5 -75l-38 -214q-22 -127 -101.5 -191t-215.5 -64q-123 0 -187.5 51t-64.5 147q0 32 5 57l37 214q23 126 103 190.5t215 64.5q95 0 156 -32.5t84 -92.5q42 7 63 41.5t33 101.5h98q-20 -95 -62.5 -141.5zM548 498
q0 59 -36 90t-104 31q-79 0 -129 -42t-64 -120l-37 -214q-4 -20 -4 -41q0 -59 36 -90t103 -31q80 0 130 41.5t63 120.5l38 214q4 20 4 41zM225 -168q-15 15 -15 37q0 29 23.5 52t52.5 23q23 0 38 -15.5t15 -37.5q0 -29 -23 -51.5t-53 -22.5q-23 0 -38 15z" />
    <glyph glyph-name="uni1EDC" unicode="&#x1edc;" horiz-adv-x="698" 
d="M786.5 588.5q-42.5 -46.5 -119.5 -56.5q2 -39 -5 -75l-38 -214q-22 -127 -101.5 -191t-215.5 -64q-123 0 -187.5 51t-64.5 147q0 32 5 57l37 214q23 126 103 190.5t215 64.5q95 0 156 -32.5t84 -92.5q42 7 63 41.5t33 101.5h98q-20 -95 -62.5 -141.5zM548 498
q0 59 -36 90t-104 31q-79 0 -129 -42t-64 -120l-37 -214q-4 -20 -4 -41q0 -59 36 -90t103 -31q80 0 130 41.5t63 120.5l38 214q4 20 4 41zM307 922h115l53 -153h-89z" />
    <glyph glyph-name="uni1EDE" unicode="&#x1ede;" horiz-adv-x="698" 
d="M786.5 588.5q-42.5 -46.5 -119.5 -56.5q2 -39 -5 -75l-38 -214q-22 -127 -101.5 -191t-215.5 -64q-123 0 -187.5 51t-64.5 147q0 32 5 57l37 214q23 126 103 190.5t215 64.5q95 0 156 -32.5t84 -92.5q42 7 63 41.5t33 101.5h98q-20 -95 -62.5 -141.5zM548 498
q0 59 -36 90t-104 31q-79 0 -129 -42t-64 -120l-37 -214q-4 -20 -4 -41q0 -59 36 -90t103 -31q80 0 130 41.5t63 120.5l38 214q4 20 4 41zM471 807l-7 -38h-80l14 76q49 5 71 16.5t22 34.5q0 26 -42 26q-29 0 -60 -13l-8 60q43 18 92 18q50 0 77.5 -18t27.5 -55
q0 -83 -107 -107z" />
    <glyph glyph-name="uni1EE0" unicode="&#x1ee0;" horiz-adv-x="698" 
d="M786.5 588.5q-42.5 -46.5 -119.5 -56.5q2 -39 -5 -75l-38 -214q-22 -127 -101.5 -191t-215.5 -64q-123 0 -187.5 51t-64.5 147q0 32 5 57l37 214q23 126 103 190.5t215 64.5q95 0 156 -32.5t84 -92.5q42 7 63 41.5t33 101.5h98q-20 -95 -62.5 -141.5zM548 498
q0 59 -36 90t-104 31q-79 0 -129 -42t-64 -120l-37 -214q-4 -20 -4 -41q0 -59 36 -90t103 -31q80 0 130 41.5t63 120.5l38 214q4 20 4 41zM308 865q33 37 83 37q20 0 35.5 -6t35.5 -18q16 -9 25.5 -13t20.5 -4q15 0 24.5 11.5t17.5 37.5h71q-14 -54 -47 -92t-76 -38
q-20 0 -35.5 6t-35.5 18q-16 9 -25.5 13t-20.5 4q-15 0 -26 -11.5t-20 -37.5h-72q12 56 45 93z" />
    <glyph glyph-name="Ohungarumlaut" unicode="&#x150;" horiz-adv-x="681" 
d="M119.5 39q-64.5 51 -64.5 147q0 32 5 57l37 214q23 126 103 190.5t215 64.5q121 0 186.5 -52t65.5 -147q0 -31 -5 -56l-38 -214q-22 -127 -101.5 -191t-215.5 -64q-123 0 -187.5 51zM443 122.5q50 41.5 63 120.5l38 214q4 20 4 41q0 59 -36 90t-104 31q-79 0 -129 -42
t-64 -120l-37 -214q-4 -20 -4 -41q0 -59 36 -90t103 -31q80 0 130 41.5zM393 922h100l-108 -153h-81zM561 922h100l-109 -153h-81z" />
    <glyph glyph-name="Omacron" unicode="&#x14c;" horiz-adv-x="681" 
d="M119.5 39q-64.5 51 -64.5 147q0 32 5 57l37 214q23 126 103 190.5t215 64.5q121 0 186.5 -52t65.5 -147q0 -31 -5 -56l-38 -214q-22 -127 -101.5 -191t-215.5 -64q-123 0 -187.5 51zM443 122.5q50 41.5 63 120.5l38 214q4 20 4 41q0 59 -36 90t-104 31q-79 0 -129 -42
t-64 -120l-37 -214q-4 -20 -4 -41q0 -59 36 -90t103 -31q80 0 130 41.5zM290 862h314l-14 -78h-314z" />
    <glyph glyph-name="Oslash" unicode="&#xd8;" horiz-adv-x="681" 
d="M620 643q47 -49 47 -131q0 -23 -5 -55l-38 -214q-22 -127 -101.5 -191t-215.5 -64q-72 0 -125 18l-53 -76h-87l76 111q-63 50 -63 145q0 32 5 57l37 214q23 126 103 190.5t215 64.5q87 0 146 -27l59 85h87zM174 202q0 -33 13 -61l314 455q-35 23 -93 23q-79 0 -129 -42
t-64 -120l-37 -214q-4 -20 -4 -41zM548 498q0 22 -4 35l-303 -440q30 -12 72 -12q80 0 130 41.5t63 120.5l38 214q4 20 4 41z" />
    <glyph glyph-name="Oslashacute" unicode="&#x1fe;" horiz-adv-x="681" 
d="M620 643q47 -49 47 -131q0 -23 -5 -55l-38 -214q-22 -127 -101.5 -191t-215.5 -64q-72 0 -125 18l-53 -76h-87l76 111q-63 50 -63 145q0 32 5 57l37 214q23 126 103 190.5t215 64.5q87 0 146 -27l59 85h87zM174 202q0 -33 13 -61l314 455q-35 23 -93 23q-79 0 -129 -42
t-64 -120l-37 -214q-4 -20 -4 -41zM548 498q0 22 -4 35l-303 -440q30 -12 72 -12q80 0 130 41.5t63 120.5l38 214q4 20 4 41zM487 922h115l-134 -153h-88z" />
    <glyph glyph-name="Otilde" unicode="&#xd5;" horiz-adv-x="681" 
d="M119.5 39q-64.5 51 -64.5 147q0 32 5 57l37 214q23 126 103 190.5t215 64.5q121 0 186.5 -52t65.5 -147q0 -31 -5 -56l-38 -214q-22 -127 -101.5 -191t-215.5 -64q-123 0 -187.5 51zM443 122.5q50 41.5 63 120.5l38 214q4 20 4 41q0 59 -36 90t-104 31q-79 0 -129 -42
t-64 -120l-37 -214q-4 -20 -4 -41q0 -59 36 -90t103 -31q80 0 130 41.5zM308 865q33 37 83 37q20 0 35.5 -6t35.5 -18q16 -9 25.5 -13t20.5 -4q15 0 24.5 11.5t17.5 37.5h71q-14 -54 -47 -92t-76 -38q-20 0 -35.5 6t-35.5 18q-16 9 -25.5 13t-20.5 4q-15 0 -26 -11.5
t-20 -37.5h-72q12 56 45 93z" />
    <glyph glyph-name="OE" unicode="&#x152;" horiz-adv-x="1025" 
d="M713.5 577.5q-35.5 -29.5 -46.5 -92.5l-15 -89h314l-17 -92h-314l-15 -89q-4 -28 -4 -37q0 -43 26 -64t80 -21h240l-17 -93h-239q-132 0 -180 60q-84 -72 -229 -72q-118 0 -180.5 49t-62.5 144q0 29 6 62l37 214q22 125 106.5 190t221.5 65q144 0 203 -71q70 59 201 59
h237l-17 -93h-236q-64 0 -99.5 -29.5zM441 122q50 41 64 118l20 110l19 107q4 28 4 40q0 59 -36 90.5t-104 31.5q-79 0 -129 -42t-63 -120l-38 -214q-4 -20 -4 -42q0 -58 35.5 -89t103.5 -31q78 0 128 41z" />
    <glyph glyph-name="P" unicode="P" horiz-adv-x="634" 
d="M170 700h278q213 0 213 -181q0 -77 -34 -134t-95.5 -87.5t-143.5 -30.5h-175l-48 -267h-118zM401 360q65 0 103.5 43.5t38.5 111.5q0 46 -25 69t-73 23h-173l-43 -247h172z" />
    <glyph glyph-name="Thorn" unicode="&#xde;" horiz-adv-x="633" 
d="M170 700h118l-23 -133h158q213 0 213 -181q0 -77 -34 -134t-95.5 -87.5t-143.5 -30.5h-174l-24 -134h-118zM376 227q65 0 103.5 43.5t38.5 111.5q0 46 -25.5 69.5t-73.5 23.5h-170l-43 -248h170z" />
    <glyph glyph-name="Q" unicode="Q" horiz-adv-x="681" 
d="M601.5 660q65.5 -52 65.5 -147q0 -31 -5 -56l-38 -214q-36 -208 -226 -246q20 -23 57.5 -34.5t88.5 -11.5l-17 -100q-108 1 -167.5 35t-79.5 103q-110 5 -168 55.5t-58 140.5q0 28 6 58l37 214q23 126 103 190.5t215 64.5q121 0 186.5 -52zM548 498q0 59 -36 90t-104 31
q-79 0 -129 -42t-64 -120l-37 -214q-4 -20 -4 -41q0 -59 36 -90t103 -31q80 0 130 41.5t63 120.5l38 214q4 20 4 41z" />
    <glyph glyph-name="R" unicode="R" horiz-adv-x="676" 
d="M616 401q-46 -54 -125 -70q47 -17 65.5 -58.5t25.5 -109.5l19 -163h-125l-19 163q-5 49 -15 76.5t-34 41.5t-69 14h-122l-52 -295h-118l123 700h288q93 0 148.5 -46t55.5 -124q0 -75 -46 -129zM505.5 426q38.5 38 38.5 97q0 41 -27 62.5t-72 21.5h-173l-39 -219h173
q61 0 99.5 38z" />
    <glyph glyph-name="Racute" unicode="&#x154;" horiz-adv-x="676" 
d="M616 401q-46 -54 -125 -70q47 -17 65.5 -58.5t25.5 -109.5l19 -163h-125l-19 163q-5 49 -15 76.5t-34 41.5t-69 14h-122l-52 -295h-118l123 700h288q93 0 148.5 -46t55.5 -124q0 -75 -46 -129zM505.5 426q38.5 38 38.5 97q0 41 -27 62.5t-72 21.5h-173l-39 -219h173
q61 0 99.5 38zM485 922h115l-134 -153h-88z" />
    <glyph glyph-name="Rcaron" unicode="&#x158;" horiz-adv-x="676" 
d="M616 401q-46 -54 -125 -70q47 -17 65.5 -58.5t25.5 -109.5l19 -163h-125l-19 163q-5 49 -15 76.5t-34 41.5t-69 14h-122l-52 -295h-118l123 700h288q93 0 148.5 -46t55.5 -124q0 -75 -46 -129zM505.5 426q38.5 38 38.5 97q0 41 -27 62.5t-72 21.5h-173l-39 -219h173
q61 0 99.5 38zM337.5 858.5q-28.5 44.5 -51.5 66.5h98q29 -29 56 -81q16 21 39.5 43t45.5 38h98q-33 -24 -77 -68t-74 -88h-90q-16 45 -44.5 89.5z" />
    <glyph glyph-name="uni0156" unicode="&#x156;" horiz-adv-x="676" 
d="M616 401q-46 -54 -125 -70q47 -17 65.5 -58.5t25.5 -109.5l19 -163h-125l-19 163q-5 49 -15 76.5t-34 41.5t-69 14h-122l-52 -295h-118l123 700h288q93 0 148.5 -46t55.5 -124q0 -75 -46 -129zM505.5 426q38.5 38 38.5 97q0 41 -27 62.5t-72 21.5h-173l-39 -219h173
q61 0 99.5 38zM342.5 -73.5q14.5 -15.5 14.5 -43.5q0 -56 -36 -104.5t-89 -85.5l-28 32q61 41 79 87q-13 -6 -30 -6q-19 0 -29.5 11.5t-10.5 31.5q0 35 27.5 64t59.5 29q28 0 42.5 -15.5z" />
    <glyph glyph-name="uni1E5A" unicode="&#x1e5a;" horiz-adv-x="676" 
d="M616 401q-46 -54 -125 -70q47 -17 65.5 -58.5t25.5 -109.5l19 -163h-125l-19 163q-5 49 -15 76.5t-34 41.5t-69 14h-122l-52 -295h-118l123 700h288q93 0 148.5 -46t55.5 -124q0 -75 -46 -129zM505.5 426q38.5 38 38.5 97q0 41 -27 62.5t-72 21.5h-173l-39 -219h173
q61 0 99.5 38zM240 -168q-15 15 -15 37q0 29 23.5 52t52.5 23q23 0 38 -15.5t15 -37.5q0 -29 -23 -51.5t-53 -22.5q-23 0 -38 15z" />
    <glyph glyph-name="uni1E5C" unicode="&#x1e5c;" horiz-adv-x="676" 
d="M616 401q-46 -54 -125 -70q47 -17 65.5 -58.5t25.5 -109.5l19 -163h-125l-19 163q-5 49 -15 76.5t-34 41.5t-69 14h-122l-52 -295h-118l123 700h288q93 0 148.5 -46t55.5 -124q0 -75 -46 -129zM505.5 426q38.5 38 38.5 97q0 41 -27 62.5t-72 21.5h-173l-39 -219h173
q61 0 99.5 38zM240 -168q-15 15 -15 37q0 29 23.5 52t52.5 23q23 0 38 -15.5t15 -37.5q0 -29 -23 -51.5t-53 -22.5q-23 0 -38 15zM288 862h314l-14 -78h-314z" />
    <glyph glyph-name="uni1E5E" unicode="&#x1e5e;" horiz-adv-x="676" 
d="M616 401q-46 -54 -125 -70q47 -17 65.5 -58.5t25.5 -109.5l19 -163h-125l-19 163q-5 49 -15 76.5t-34 41.5t-69 14h-122l-52 -295h-118l123 700h288q93 0 148.5 -46t55.5 -124q0 -75 -46 -129zM505.5 426q38.5 38 38.5 97q0 41 -27 62.5t-72 21.5h-173l-39 -219h173
q61 0 99.5 38zM140 -75h314l-13 -78h-315z" />
    <glyph glyph-name="S" unicode="S" horiz-adv-x="629" 
d="M112.5 20q-55.5 32 -94.5 99l91 67q30 -56 69 -80.5t99 -24.5q88 0 137 34t49 93q0 28 -19.5 45t-48.5 26t-81 20l-40 9q-82 20 -121.5 60t-39.5 110q0 68 33 121t96.5 83t150.5 30q93 0 153 -30t86 -85l-89 -64q-30 44 -67 65t-91 21q-71 0 -112 -35t-41 -90
q0 -31 17 -49t43 -27.5t70 -18.5q70 -14 114 -29.5t75.5 -50.5t31.5 -97q0 -69 -37 -122t-108 -82.5t-170 -29.5q-100 0 -155.5 32z" />
    <glyph glyph-name="Sacute" unicode="&#x15a;" horiz-adv-x="629" 
d="M112.5 20q-55.5 32 -94.5 99l91 67q30 -56 69 -80.5t99 -24.5q88 0 137 34t49 93q0 28 -19.5 45t-48.5 26t-81 20l-40 9q-82 20 -121.5 60t-39.5 110q0 68 33 121t96.5 83t150.5 30q93 0 153 -30t86 -85l-89 -64q-30 44 -67 65t-91 21q-71 0 -112 -35t-41 -90
q0 -31 17 -49t43 -27.5t70 -18.5q70 -14 114 -29.5t75.5 -50.5t31.5 -97q0 -69 -37 -122t-108 -82.5t-170 -29.5q-100 0 -155.5 32zM473 922h115l-134 -153h-88z" />
    <glyph glyph-name="Scaron" unicode="&#x160;" horiz-adv-x="629" 
d="M112.5 20q-55.5 32 -94.5 99l91 67q30 -56 69 -80.5t99 -24.5q88 0 137 34t49 93q0 28 -19.5 45t-48.5 26t-81 20l-40 9q-82 20 -121.5 60t-39.5 110q0 68 33 121t96.5 83t150.5 30q93 0 153 -30t86 -85l-89 -64q-30 44 -67 65t-91 21q-71 0 -112 -35t-41 -90
q0 -31 17 -49t43 -27.5t70 -18.5q70 -14 114 -29.5t75.5 -50.5t31.5 -97q0 -69 -37 -122t-108 -82.5t-170 -29.5q-100 0 -155.5 32zM325.5 858.5q-28.5 44.5 -51.5 66.5h98q29 -29 56 -81q16 21 39.5 43t45.5 38h98q-33 -24 -77 -68t-74 -88h-90q-16 45 -44.5 89.5z" />
    <glyph glyph-name="Scedilla" unicode="&#x15e;" horiz-adv-x="629" 
d="M476 369.5q44 -15.5 75.5 -50.5t31.5 -97q0 -95 -69 -157.5t-194 -74.5l-14 -29q37 -4 54.5 -23t17.5 -49q0 -53 -37.5 -82t-108.5 -29q-57 0 -100 23l29 61q33 -18 68 -18q33 0 48 8.5t15 27.5q0 27 -54 27q-8 0 -32 -2l36 84q-87 4 -137.5 35.5t-86.5 94.5l91 67
q30 -56 69 -80.5t99 -24.5q88 0 137 34t49 93q0 28 -19.5 45t-48.5 26t-81 20l-40 9q-82 20 -121.5 60t-39.5 110q0 68 33 121t96.5 83t150.5 30q93 0 153 -30t86 -85l-89 -64q-30 44 -67 65t-91 21q-71 0 -112 -35t-41 -90q0 -31 17 -49t43 -27.5t70 -18.5
q70 -14 114 -29.5z" />
    <glyph glyph-name="Scircumflex" unicode="&#x15c;" horiz-adv-x="629" 
d="M112.5 20q-55.5 32 -94.5 99l91 67q30 -56 69 -80.5t99 -24.5q88 0 137 34t49 93q0 28 -19.5 45t-48.5 26t-81 20l-40 9q-82 20 -121.5 60t-39.5 110q0 68 33 121t96.5 83t150.5 30q93 0 153 -30t86 -85l-89 -64q-30 44 -67 65t-91 21q-71 0 -112 -35t-41 -90
q0 -31 17 -49t43 -27.5t70 -18.5q70 -14 114 -29.5t75.5 -50.5t31.5 -97q0 -69 -37 -122t-108 -82.5t-170 -29.5q-100 0 -155.5 32zM323.5 838.5q43.5 43.5 73.5 86.5h90q16 -44 44.5 -88.5t51.5 -67.5h-97q-32 33 -57 82q-32 -42 -85 -82h-98q34 26 77.5 69.5z" />
    <glyph glyph-name="uni0218" unicode="&#x218;" horiz-adv-x="629" 
d="M112.5 20q-55.5 32 -94.5 99l91 67q30 -56 69 -80.5t99 -24.5q88 0 137 34t49 93q0 28 -19.5 45t-48.5 26t-81 20l-40 9q-82 20 -121.5 60t-39.5 110q0 68 33 121t96.5 83t150.5 30q93 0 153 -30t86 -85l-89 -64q-30 44 -67 65t-91 21q-71 0 -112 -35t-41 -90
q0 -31 17 -49t43 -27.5t70 -18.5q70 -14 114 -29.5t75.5 -50.5t31.5 -97q0 -69 -37 -122t-108 -82.5t-170 -29.5q-100 0 -155.5 32zM314.5 -73.5q14.5 -15.5 14.5 -43.5q0 -56 -36 -104.5t-89 -85.5l-28 32q61 41 79 87q-13 -6 -30 -6q-19 0 -29.5 11.5t-10.5 31.5
q0 35 27.5 64t59.5 29q28 0 42.5 -15.5z" />
    <glyph glyph-name="uni1E60" unicode="&#x1e60;" horiz-adv-x="629" 
d="M112.5 20q-55.5 32 -94.5 99l91 67q30 -56 69 -80.5t99 -24.5q88 0 137 34t49 93q0 28 -19.5 45t-48.5 26t-81 20l-40 9q-82 20 -121.5 60t-39.5 110q0 68 33 121t96.5 83t150.5 30q93 0 153 -30t86 -85l-89 -64q-30 44 -67 65t-91 21q-71 0 -112 -35t-41 -90
q0 -31 17 -49t43 -27.5t70 -18.5q70 -14 114 -29.5t75.5 -50.5t31.5 -97q0 -69 -37 -122t-108 -82.5t-170 -29.5q-100 0 -155.5 32zM377.5 779q-15.5 15 -15.5 37q0 29 23.5 52t52.5 23q23 0 38.5 -15.5t15.5 -37.5q0 -28 -23.5 -51t-52.5 -23q-23 0 -38.5 15z" />
    <glyph glyph-name="uni1E62" unicode="&#x1e62;" horiz-adv-x="629" 
d="M112.5 20q-55.5 32 -94.5 99l91 67q30 -56 69 -80.5t99 -24.5q88 0 137 34t49 93q0 28 -19.5 45t-48.5 26t-81 20l-40 9q-82 20 -121.5 60t-39.5 110q0 68 33 121t96.5 83t150.5 30q93 0 153 -30t86 -85l-89 -64q-30 44 -67 65t-91 21q-71 0 -112 -35t-41 -90
q0 -31 17 -49t43 -27.5t70 -18.5q70 -14 114 -29.5t75.5 -50.5t31.5 -97q0 -69 -37 -122t-108 -82.5t-170 -29.5q-100 0 -155.5 32zM212 -168q-15 15 -15 37q0 29 23.5 52t52.5 23q23 0 38 -15.5t15 -37.5q0 -29 -23 -51.5t-53 -22.5q-23 0 -38 15z" />
    <glyph glyph-name="uni1E9E" unicode="&#x1e9e;" horiz-adv-x="666" 
d="M293 -6q-34 6 -54 15l16 93q39 -21 93 -21q64 0 97.5 20t41.5 62l13 77q1 4 1 12q0 33 -32.5 51t-89.5 18h-26l17 101l184 153q-80 44 -158 44q-62 0 -98.5 -37.5t-50.5 -117.5l-82 -464h-118l82 464q21 118 83.5 183t196.5 65q70 0 138.5 -22.5t122.5 -59.5l-15 -83
l-171 -143q72 -12 105 -43t33 -83q0 -12 -4 -38l-15 -86q-14 -84 -73 -125t-171 -41q-32 0 -66 6z" />
    <glyph glyph-name="uni018F" unicode="&#x18f;" horiz-adv-x="691" 
d="M612.5 663q64.5 -49 64.5 -146q0 -32 -5 -58l-40 -222q-21 -121 -100.5 -185t-211.5 -64q-122 0 -191.5 55.5t-69.5 157.5q0 105 47 151.5t154 46.5h283l11 60q4 21 4 44q0 58 -34.5 87t-107.5 29q-71 0 -118 -19.5t-90 -62.5l-63 68q50 54 117.5 80.5t162.5 26.5
q123 0 187.5 -49zM452 121.5q49 40.5 62 115.5l13 70h-242q-57 0 -82.5 -21.5t-25.5 -83.5q0 -59 38.5 -90t109.5 -31q78 0 127 40.5z" />
    <glyph glyph-name="T" unicode="T" horiz-adv-x="597" 
d="M306 607h-217l16 93h551l-16 -93h-216l-107 -607h-118z" />
    <glyph glyph-name="Tbar" unicode="&#x166;" horiz-adv-x="597" 
d="M424 607l-38 -214h145l-15 -83h-144l-55 -310h-118l55 310h-146l15 83h145l38 214h-217l16 93h551l-16 -93h-216z" />
    <glyph glyph-name="Tcaron" unicode="&#x164;" horiz-adv-x="597" 
d="M306 607h-217l16 93h551l-16 -93h-216l-107 -607h-118zM293.5 858.5q-28.5 44.5 -51.5 66.5h98q29 -29 56 -81q16 21 39.5 43t45.5 38h98q-33 -24 -77 -68t-74 -88h-90q-16 45 -44.5 89.5z" />
    <glyph glyph-name="uni0162" unicode="&#x162;" horiz-adv-x="597" 
d="M656 700l-16 -93h-216l-107 -607h-18l-19 -39q37 -4 55 -23t18 -49q0 -53 -38 -82t-108 -29q-59 0 -100 23l29 61q14 -8 32.5 -13t34.5 -5q33 0 48 8.5t15 27.5q0 27 -53 27q-8 0 -32 -2l40 95h-22l107 607h-217l16 93h551z" />
    <glyph glyph-name="uni021A" unicode="&#x21a;" horiz-adv-x="597" 
d="M306 607h-217l16 93h551l-16 -93h-216l-107 -607h-118zM288.5 -73.5q14.5 -15.5 14.5 -43.5q0 -56 -36 -104.5t-89 -85.5l-28 32q61 41 79 87q-13 -6 -30 -6q-19 0 -29.5 11.5t-10.5 31.5q0 35 27.5 64t59.5 29q28 0 42.5 -15.5z" />
    <glyph glyph-name="uni1E6C" unicode="&#x1e6c;" horiz-adv-x="597" 
d="M306 607h-217l16 93h551l-16 -93h-216l-107 -607h-118zM186 -168q-15 15 -15 37q0 29 23.5 52t52.5 23q23 0 38 -15.5t15 -37.5q0 -29 -23 -51.5t-53 -22.5q-23 0 -38 15z" />
    <glyph glyph-name="uni1E6E" unicode="&#x1e6e;" horiz-adv-x="597" 
d="M306 607h-217l16 93h551l-16 -93h-216l-107 -607h-118zM86 -75h314l-13 -78h-315z" />
    <glyph glyph-name="U" unicode="U" horiz-adv-x="673" 
d="M118 34.5q-65 46.5 -65 128.5q0 11 4 39l88 498h118l-88 -498q-2 -9 -2 -26q0 -47 34.5 -71.5t101.5 -24.5q75 0 120.5 31t55.5 91l88 498h118l-88 -498q-18 -102 -94 -158t-206 -56q-120 0 -185 46.5z" />
    <glyph glyph-name="Uacute" unicode="&#xda;" horiz-adv-x="673" 
d="M118 34.5q-65 46.5 -65 128.5q0 11 4 39l88 498h118l-88 -498q-2 -9 -2 -26q0 -47 34.5 -71.5t101.5 -24.5q75 0 120.5 31t55.5 91l88 498h118l-88 -498q-18 -102 -94 -158t-206 -56q-120 0 -185 46.5zM487 922h115l-134 -153h-88z" />
    <glyph glyph-name="Ubreve" unicode="&#x16c;" horiz-adv-x="673" 
d="M118 34.5q-65 46.5 -65 128.5q0 11 4 39l88 498h118l-88 -498q-2 -9 -2 -26q0 -47 34.5 -71.5t101.5 -24.5q75 0 120.5 31t55.5 91l88 498h118l-88 -498q-18 -102 -94 -158t-206 -56q-120 0 -185 46.5zM332 795.5q-39 34.5 -39 92.5q0 16 3 32h79l-1 -13
q0 -32 17.5 -50.5t50.5 -18.5q37 0 62 22t34 60h78q-13 -74 -60 -116.5t-120 -42.5q-65 0 -104 34.5z" />
    <glyph glyph-name="uni01D3" unicode="&#x1d3;" horiz-adv-x="673" 
d="M118 34.5q-65 46.5 -65 128.5q0 11 4 39l88 498h118l-88 -498q-2 -9 -2 -26q0 -47 34.5 -71.5t101.5 -24.5q75 0 120.5 31t55.5 91l88 498h118l-88 -498q-18 -102 -94 -158t-206 -56q-120 0 -185 46.5zM339.5 858.5q-28.5 44.5 -51.5 66.5h98q29 -29 56 -81
q16 21 39.5 43t45.5 38h98q-33 -24 -77 -68t-74 -88h-90q-16 45 -44.5 89.5z" />
    <glyph glyph-name="Ucircumflex" unicode="&#xdb;" horiz-adv-x="673" 
d="M118 34.5q-65 46.5 -65 128.5q0 11 4 39l88 498h118l-88 -498q-2 -9 -2 -26q0 -47 34.5 -71.5t101.5 -24.5q75 0 120.5 31t55.5 91l88 498h118l-88 -498q-18 -102 -94 -158t-206 -56q-120 0 -185 46.5zM337.5 838.5q43.5 43.5 73.5 86.5h90q16 -44 44.5 -88.5t51.5 -67.5
h-97q-32 33 -57 82q-32 -42 -85 -82h-98q34 26 77.5 69.5z" />
    <glyph glyph-name="Udieresis" unicode="&#xdc;" horiz-adv-x="673" 
d="M118 34.5q-65 46.5 -65 128.5q0 11 4 39l88 498h118l-88 -498q-2 -9 -2 -26q0 -47 34.5 -71.5t101.5 -24.5q75 0 120.5 31t55.5 91l88 498h118l-88 -498q-18 -102 -94 -158t-206 -56q-120 0 -185 46.5zM308.5 777.5q-13.5 13.5 -13.5 33.5q0 25 20.5 45t46.5 20
q20 0 33.5 -13.5t13.5 -33.5q0 -25 -20.5 -45t-45.5 -20q-21 0 -34.5 13.5zM482 777q-13 13 -13 33q0 26 20.5 46t46.5 20q20 0 34 -13.5t14 -33.5q0 -25 -21 -45t-47 -20q-21 0 -34 13z" />
    <glyph glyph-name="uni01D7" unicode="&#x1d7;" horiz-adv-x="673" 
d="M118 34.5q-65 46.5 -65 128.5q0 11 4 39l88 498h118l-88 -498q-2 -9 -2 -26q0 -47 34.5 -71.5t101.5 -24.5q75 0 120.5 31t55.5 91l88 498h118l-88 -498q-18 -102 -94 -158t-206 -56q-120 0 -185 46.5zM495 1046h108l-111 -121h-81zM308 773.5q-14 13.5 -14 33.5
q0 25 21 45.5t47 20.5q20 0 33 -13.5t13 -33.5q0 -25 -20.5 -45.5t-45.5 -20.5q-20 0 -34 13.5zM481.5 773.5q-13.5 13.5 -13.5 33.5q0 26 20.5 46t46.5 20q21 0 34.5 -13.5t13.5 -33.5q0 -25 -21 -45.5t-46 -20.5q-21 0 -34.5 13.5z" />
    <glyph glyph-name="uni01D9" unicode="&#x1d9;" horiz-adv-x="673" 
d="M118 34.5q-65 46.5 -65 128.5q0 11 4 39l88 498h118l-88 -498q-2 -9 -2 -26q0 -47 34.5 -71.5t101.5 -24.5q75 0 120.5 31t55.5 91l88 498h118l-88 -498q-18 -102 -94 -158t-206 -56q-120 0 -185 46.5zM368 990.5q-28 36.5 -51 55.5h90q15 -13 30.5 -31.5t23.5 -34.5
q14 17 36 35.5t42 30.5h95q-29 -18 -70 -55t-69 -73h-84q-15 36 -43 72.5zM308 773.5q-14 13.5 -14 33.5q0 25 21 45.5t47 20.5q20 0 33 -13.5t13 -33.5q0 -25 -20.5 -45.5t-45.5 -20.5q-20 0 -34 13.5zM481.5 773.5q-13.5 13.5 -13.5 33.5q0 26 20.5 46t46.5 20
q21 0 34.5 -13.5t13.5 -33.5q0 -25 -21 -45.5t-46 -20.5q-21 0 -34.5 13.5z" />
    <glyph glyph-name="uni01DB" unicode="&#x1db;" horiz-adv-x="673" 
d="M118 34.5q-65 46.5 -65 128.5q0 11 4 39l88 498h118l-88 -498q-2 -9 -2 -26q0 -47 34.5 -71.5t101.5 -24.5q75 0 120.5 31t55.5 91l88 498h118l-88 -498q-18 -102 -94 -158t-206 -56q-120 0 -185 46.5zM337 1042h109l42 -121h-82zM308 773.5q-14 13.5 -14 33.5
q0 25 21 45.5t47 20.5q20 0 33 -13.5t13 -33.5q0 -25 -20.5 -45.5t-45.5 -20.5q-20 0 -34 13.5zM481.5 773.5q-13.5 13.5 -13.5 33.5q0 26 20.5 46t46.5 20q21 0 34.5 -13.5t13.5 -33.5q0 -25 -21 -45.5t-46 -20.5q-21 0 -34.5 13.5z" />
    <glyph glyph-name="uni01D5" unicode="&#x1d5;" horiz-adv-x="673" 
d="M118 34.5q-65 46.5 -65 128.5q0 11 4 39l88 498h118l-88 -498q-2 -9 -2 -26q0 -47 34.5 -71.5t101.5 -24.5q75 0 120.5 31t55.5 91l88 498h118l-88 -498q-18 -102 -94 -158t-206 -56q-120 0 -185 46.5zM315 1003h314l-14 -77h-314zM309.5 773.5q-13.5 13.5 -13.5 33.5
q0 25 20.5 45.5t46.5 20.5q20 0 33.5 -13.5t13.5 -33.5q0 -25 -20.5 -45.5t-45.5 -20.5q-21 0 -34.5 13.5zM483 773.5q-13 13.5 -13 33.5q0 26 20.5 46t46.5 20q20 0 34 -13.5t14 -33.5q0 -25 -21 -45.5t-47 -20.5q-21 0 -34 13.5z" />
    <glyph glyph-name="uni1EE4" unicode="&#x1ee4;" horiz-adv-x="673" 
d="M118 34.5q-65 46.5 -65 128.5q0 11 4 39l88 498h118l-88 -498q-2 -9 -2 -26q0 -47 34.5 -71.5t101.5 -24.5q75 0 120.5 31t55.5 91l88 498h118l-88 -498q-18 -102 -94 -158t-206 -56q-120 0 -185 46.5zM224 -168q-15 15 -15 37q0 29 23.5 52t52.5 23q23 0 38 -15.5
t15 -37.5q0 -29 -23 -51.5t-53 -22.5q-23 0 -38 15z" />
    <glyph glyph-name="Ugrave" unicode="&#xd9;" horiz-adv-x="673" 
d="M118 34.5q-65 46.5 -65 128.5q0 11 4 39l88 498h118l-88 -498q-2 -9 -2 -26q0 -47 34.5 -71.5t101.5 -24.5q75 0 120.5 31t55.5 91l88 498h118l-88 -498q-18 -102 -94 -158t-206 -56q-120 0 -185 46.5zM307 922h115l53 -153h-89z" />
    <glyph glyph-name="uni1EE6" unicode="&#x1ee6;" horiz-adv-x="673" 
d="M118 34.5q-65 46.5 -65 128.5q0 11 4 39l88 498h118l-88 -498q-2 -9 -2 -26q0 -47 34.5 -71.5t101.5 -24.5q75 0 120.5 31t55.5 91l88 498h118l-88 -498q-18 -102 -94 -158t-206 -56q-120 0 -185 46.5zM471 807l-7 -38h-80l14 76q49 5 71 16.5t22 34.5q0 26 -42 26
q-29 0 -60 -13l-8 60q43 18 92 18q50 0 77.5 -18t27.5 -55q0 -83 -107 -107z" />
    <glyph glyph-name="Uhorn" unicode="&#x1af;" horiz-adv-x="752" 
d="M800 580.5q-48 -46.5 -139 -50.5l-58 -328q-18 -102 -94 -158t-206 -56q-120 0 -185 46.5t-65 128.5q0 11 4 39l88 498h118l-88 -498q-2 -9 -2 -26q0 -47 34.5 -71.5t101.5 -24.5q75 0 120.5 31t55.5 91l88 498h118l-20 -114q44 6 65.5 40t35.5 104h98
q-22 -103 -70 -149.5z" />
    <glyph glyph-name="uni1EE8" unicode="&#x1ee8;" horiz-adv-x="752" 
d="M800 580.5q-48 -46.5 -139 -50.5l-58 -328q-18 -102 -94 -158t-206 -56q-120 0 -185 46.5t-65 128.5q0 11 4 39l88 498h118l-88 -498q-2 -9 -2 -26q0 -47 34.5 -71.5t101.5 -24.5q75 0 120.5 31t55.5 91l88 498h118l-20 -114q44 6 65.5 40t35.5 104h98
q-22 -103 -70 -149.5zM487 922h115l-134 -153h-88z" />
    <glyph glyph-name="uni1EF0" unicode="&#x1ef0;" horiz-adv-x="752" 
d="M800 580.5q-48 -46.5 -139 -50.5l-58 -328q-18 -102 -94 -158t-206 -56q-120 0 -185 46.5t-65 128.5q0 11 4 39l88 498h118l-88 -498q-2 -9 -2 -26q0 -47 34.5 -71.5t101.5 -24.5q75 0 120.5 31t55.5 91l88 498h118l-20 -114q44 6 65.5 40t35.5 104h98
q-22 -103 -70 -149.5zM224 -168q-15 15 -15 37q0 29 23.5 52t52.5 23q23 0 38 -15.5t15 -37.5q0 -29 -23 -51.5t-53 -22.5q-23 0 -38 15z" />
    <glyph glyph-name="uni1EEA" unicode="&#x1eea;" horiz-adv-x="752" 
d="M800 580.5q-48 -46.5 -139 -50.5l-58 -328q-18 -102 -94 -158t-206 -56q-120 0 -185 46.5t-65 128.5q0 11 4 39l88 498h118l-88 -498q-2 -9 -2 -26q0 -47 34.5 -71.5t101.5 -24.5q75 0 120.5 31t55.5 91l88 498h118l-20 -114q44 6 65.5 40t35.5 104h98
q-22 -103 -70 -149.5zM307 922h115l53 -153h-89z" />
    <glyph glyph-name="uni1EEC" unicode="&#x1eec;" horiz-adv-x="752" 
d="M800 580.5q-48 -46.5 -139 -50.5l-58 -328q-18 -102 -94 -158t-206 -56q-120 0 -185 46.5t-65 128.5q0 11 4 39l88 498h118l-88 -498q-2 -9 -2 -26q0 -47 34.5 -71.5t101.5 -24.5q75 0 120.5 31t55.5 91l88 498h118l-20 -114q44 6 65.5 40t35.5 104h98
q-22 -103 -70 -149.5zM471 807l-7 -38h-80l14 76q49 5 71 16.5t22 34.5q0 26 -42 26q-29 0 -60 -13l-8 60q43 18 92 18q50 0 77.5 -18t27.5 -55q0 -83 -107 -107z" />
    <glyph glyph-name="uni1EEE" unicode="&#x1eee;" horiz-adv-x="752" 
d="M800 580.5q-48 -46.5 -139 -50.5l-58 -328q-18 -102 -94 -158t-206 -56q-120 0 -185 46.5t-65 128.5q0 11 4 39l88 498h118l-88 -498q-2 -9 -2 -26q0 -47 34.5 -71.5t101.5 -24.5q75 0 120.5 31t55.5 91l88 498h118l-20 -114q44 6 65.5 40t35.5 104h98
q-22 -103 -70 -149.5zM308 865q33 37 83 37q20 0 35.5 -6t35.5 -18q16 -9 25.5 -13t20.5 -4q15 0 24.5 11.5t17.5 37.5h71q-14 -54 -47 -92t-76 -38q-20 0 -35.5 6t-35.5 18q-16 9 -25.5 13t-20.5 4q-15 0 -26 -11.5t-20 -37.5h-72q12 56 45 93z" />
    <glyph glyph-name="Uhungarumlaut" unicode="&#x170;" horiz-adv-x="673" 
d="M118 34.5q-65 46.5 -65 128.5q0 11 4 39l88 498h118l-88 -498q-2 -9 -2 -26q0 -47 34.5 -71.5t101.5 -24.5q75 0 120.5 31t55.5 91l88 498h118l-88 -498q-18 -102 -94 -158t-206 -56q-120 0 -185 46.5zM393 922h100l-108 -153h-81zM561 922h100l-109 -153h-81z" />
    <glyph glyph-name="Umacron" unicode="&#x16a;" horiz-adv-x="673" 
d="M118 34.5q-65 46.5 -65 128.5q0 11 4 39l88 498h118l-88 -498q-2 -9 -2 -26q0 -47 34.5 -71.5t101.5 -24.5q75 0 120.5 31t55.5 91l88 498h118l-88 -498q-18 -102 -94 -158t-206 -56q-120 0 -185 46.5zM290 862h314l-14 -78h-314z" />
    <glyph glyph-name="Uogonek" unicode="&#x172;" horiz-adv-x="673" 
d="M691 700l-88 -498q-17 -97 -86.5 -152.5t-187.5 -60.5q-22 -26 -36.5 -54.5t-14.5 -49.5q0 -18 12.5 -27t32.5 -9q23 0 55 13l8 -61q-45 -24 -87 -24q-63 0 -90 25t-27 61q0 65 70 127q-96 10 -147.5 55t-51.5 117q0 12 4 40l88 498h118l-88 -498q-2 -9 -2 -26
q0 -47 34.5 -71.5t101.5 -24.5q75 0 120.5 31t55.5 91l88 498h118z" />
    <glyph glyph-name="Uring" unicode="&#x16e;" horiz-adv-x="673" 
d="M118 34.5q-65 46.5 -65 128.5q0 11 4 39l88 498h118l-88 -498q-2 -9 -2 -26q0 -47 34.5 -71.5t101.5 -24.5q75 0 120.5 31t55.5 91l88 498h118l-88 -498q-18 -102 -94 -158t-206 -56q-120 0 -185 46.5zM361 779.5q-24 22.5 -24 61.5q0 50 36 82.5t90 32.5q44 0 68 -23
t24 -61q0 -50 -36 -82.5t-90 -32.5q-44 0 -68 22.5zM477 827.5q15 16.5 15 39.5q0 17 -10 26t-28 9q-23 0 -38.5 -16.5t-15.5 -39.5q0 -17 10.5 -26t27.5 -9q24 0 39 16.5z" />
    <glyph glyph-name="Utilde" unicode="&#x168;" horiz-adv-x="673" 
d="M118 34.5q-65 46.5 -65 128.5q0 11 4 39l88 498h118l-88 -498q-2 -9 -2 -26q0 -47 34.5 -71.5t101.5 -24.5q75 0 120.5 31t55.5 91l88 498h118l-88 -498q-18 -102 -94 -158t-206 -56q-120 0 -185 46.5zM308 865q33 37 83 37q20 0 35.5 -6t35.5 -18q16 -9 25.5 -13
t20.5 -4q15 0 24.5 11.5t17.5 37.5h71q-14 -54 -47 -92t-76 -38q-20 0 -35.5 6t-35.5 18q-16 9 -25.5 13t-20.5 4q-15 0 -26 -11.5t-20 -37.5h-72q12 56 45 93z" />
    <glyph glyph-name="V" unicode="V" horiz-adv-x="661" 
d="M207.5 22q-26.5 34 -35.5 111l-67 567h118l60 -565q2 -20 7 -29t16 -9t19 9t17 29l260 565h118l-266 -567q-26 -55 -48 -86t-49 -45t-65 -14q-58 0 -84.5 34z" />
    <glyph glyph-name="W" unicode="W" horiz-adv-x="913" 
d="M969 700l-283 -700h-35q-47 0 -74.5 11t-43.5 39.5t-25 85.5l-31 210l-106 -210q-26 -52 -51 -81t-58 -42t-82 -13h-35l-37 700h111l30 -590q15 12 32 46l243 462l80 -462q7 -35 16 -46l238 590h111z" />
    <glyph glyph-name="Wacute" unicode="&#x1e82;" horiz-adv-x="913" 
d="M969 700l-283 -700h-35q-47 0 -74.5 11t-43.5 39.5t-25 85.5l-31 210l-106 -210q-26 -52 -51 -81t-58 -42t-82 -13h-35l-37 700h111l30 -590q15 12 32 46l243 462l80 -462q7 -35 16 -46l238 590h111zM607 922h115l-134 -153h-88z" />
    <glyph glyph-name="Wcircumflex" unicode="&#x174;" horiz-adv-x="913" 
d="M969 700l-283 -700h-35q-47 0 -74.5 11t-43.5 39.5t-25 85.5l-31 210l-106 -210q-26 -52 -51 -81t-58 -42t-82 -13h-35l-37 700h111l30 -590q15 12 32 46l243 462l80 -462q7 -35 16 -46l238 590h111zM457.5 838.5q43.5 43.5 73.5 86.5h90q16 -44 44.5 -88.5t51.5 -67.5
h-97q-32 33 -57 82q-32 -42 -85 -82h-98q34 26 77.5 69.5z" />
    <glyph glyph-name="Wdieresis" unicode="&#x1e84;" horiz-adv-x="913" 
d="M969 700l-283 -700h-35q-47 0 -74.5 11t-43.5 39.5t-25 85.5l-31 210l-106 -210q-26 -52 -51 -81t-58 -42t-82 -13h-35l-37 700h111l30 -590q15 12 32 46l243 462l80 -462q7 -35 16 -46l238 590h111zM428.5 777.5q-13.5 13.5 -13.5 33.5q0 25 20.5 45t46.5 20
q20 0 33.5 -13.5t13.5 -33.5q0 -25 -20.5 -45t-45.5 -20q-21 0 -34.5 13.5zM602 777q-13 13 -13 33q0 26 20.5 46t46.5 20q20 0 34 -13.5t14 -33.5q0 -25 -21 -45t-47 -20q-21 0 -34 13z" />
    <glyph glyph-name="Wgrave" unicode="&#x1e80;" horiz-adv-x="913" 
d="M969 700l-283 -700h-35q-47 0 -74.5 11t-43.5 39.5t-25 85.5l-31 210l-106 -210q-26 -52 -51 -81t-58 -42t-82 -13h-35l-37 700h111l30 -590q15 12 32 46l243 462l80 -462q7 -35 16 -46l238 590h111zM427 922h115l53 -153h-89z" />
    <glyph glyph-name="X" unicode="X" horiz-adv-x="600" 
d="M392 343l158 -343h-134l-117 253l-206 -253h-132l290 358l-158 342h134l116 -252l206 252h131z" />
    <glyph glyph-name="Y" unicode="Y" horiz-adv-x="595" 
d="M247 298l-162 402h132l111 -294l213 294h133l-309 -402l-51 -298h-118z" />
    <glyph glyph-name="Yacute" unicode="&#xdd;" horiz-adv-x="595" 
d="M247 298l-162 402h132l111 -294l213 294h133l-309 -402l-51 -298h-118zM447 922h115l-134 -153h-88z" />
    <glyph glyph-name="Ycircumflex" unicode="&#x176;" horiz-adv-x="595" 
d="M247 298l-162 402h132l111 -294l213 294h133l-309 -402l-51 -298h-118zM297.5 838.5q43.5 43.5 73.5 86.5h90q16 -44 44.5 -88.5t51.5 -67.5h-97q-32 33 -57 82q-32 -42 -85 -82h-98q34 26 77.5 69.5z" />
    <glyph glyph-name="Ydieresis" unicode="&#x178;" horiz-adv-x="595" 
d="M247 298l-162 402h132l111 -294l213 294h133l-309 -402l-51 -298h-118zM268.5 777.5q-13.5 13.5 -13.5 33.5q0 25 20.5 45t46.5 20q20 0 33.5 -13.5t13.5 -33.5q0 -25 -20.5 -45t-45.5 -20q-21 0 -34.5 13.5zM442 777q-13 13 -13 33q0 26 20.5 46t46.5 20q20 0 34 -13.5
t14 -33.5q0 -25 -21 -45t-47 -20q-21 0 -34 13z" />
    <glyph glyph-name="uni1E8E" unicode="&#x1e8e;" horiz-adv-x="595" 
d="M247 298l-162 402h132l111 -294l213 294h133l-309 -402l-51 -298h-118zM351.5 779q-15.5 15 -15.5 37q0 29 23.5 52t52.5 23q23 0 38.5 -15.5t15.5 -37.5q0 -28 -23.5 -51t-52.5 -23q-23 0 -38.5 15z" />
    <glyph glyph-name="uni1EF4" unicode="&#x1ef4;" horiz-adv-x="595" 
d="M247 298l-162 402h132l111 -294l213 294h133l-309 -402l-51 -298h-118zM184 -168q-15 15 -15 37q0 29 23.5 52t52.5 23q23 0 38 -15.5t15 -37.5q0 -29 -23 -51.5t-53 -22.5q-23 0 -38 15z" />
    <glyph glyph-name="Ygrave" unicode="&#x1ef2;" horiz-adv-x="595" 
d="M247 298l-162 402h132l111 -294l213 294h133l-309 -402l-51 -298h-118zM267 922h115l53 -153h-89z" />
    <glyph glyph-name="uni1EF6" unicode="&#x1ef6;" horiz-adv-x="595" 
d="M247 298l-162 402h132l111 -294l213 294h133l-309 -402l-51 -298h-118zM431 807l-7 -38h-80l14 76q49 5 71 16.5t22 34.5q0 26 -42 26q-29 0 -60 -13l-8 60q43 18 92 18q50 0 77.5 -18t27.5 -55q0 -83 -107 -107z" />
    <glyph glyph-name="uni1EF8" unicode="&#x1ef8;" horiz-adv-x="595" 
d="M247 298l-162 402h132l111 -294l213 294h133l-309 -402l-51 -298h-118zM268 865q33 37 83 37q20 0 35.5 -6t35.5 -18q16 -9 25.5 -13t20.5 -4q15 0 24.5 11.5t17.5 37.5h71q-14 -54 -47 -92t-76 -38q-20 0 -35.5 6t-35.5 18q-16 9 -25.5 13t-20.5 4q-15 0 -26 -11.5
t-20 -37.5h-72q12 56 45 93z" />
    <glyph glyph-name="Z" unicode="Z" horiz-adv-x="585" 
d="M116 129q-1 -3 -1 -10q0 -15 10.5 -21t30.5 -6h378l-17 -93h-401q-112 0 -112 84q0 14 3 30l11 61l466 433h-375l17 93h499l-19 -106l-488 -457z" />
    <glyph glyph-name="Zacute" unicode="&#x179;" horiz-adv-x="585" 
d="M116 129q-1 -3 -1 -10q0 -15 10.5 -21t30.5 -6h378l-17 -93h-401q-112 0 -112 84q0 14 3 30l11 61l466 433h-375l17 93h499l-19 -106l-488 -457zM443 922h115l-134 -153h-88z" />
    <glyph glyph-name="Zcaron" unicode="&#x17d;" horiz-adv-x="585" 
d="M116 129q-1 -3 -1 -10q0 -15 10.5 -21t30.5 -6h378l-17 -93h-401q-112 0 -112 84q0 14 3 30l11 61l466 433h-375l17 93h499l-19 -106l-488 -457zM295.5 858.5q-28.5 44.5 -51.5 66.5h98q29 -29 56 -81q16 21 39.5 43t45.5 38h98q-33 -24 -77 -68t-74 -88h-90
q-16 45 -44.5 89.5z" />
    <glyph glyph-name="Zdotaccent" unicode="&#x17b;" horiz-adv-x="585" 
d="M116 129q-1 -3 -1 -10q0 -15 10.5 -21t30.5 -6h378l-17 -93h-401q-112 0 -112 84q0 14 3 30l11 61l466 433h-375l17 93h499l-19 -106l-488 -457zM347.5 779q-15.5 15 -15.5 37q0 29 23.5 52t52.5 23q23 0 38.5 -15.5t15.5 -37.5q0 -28 -23.5 -51t-52.5 -23
q-23 0 -38.5 15z" />
    <glyph glyph-name="uni1E92" unicode="&#x1e92;" horiz-adv-x="585" 
d="M116 129q-1 -3 -1 -10q0 -15 10.5 -21t30.5 -6h378l-17 -93h-401q-112 0 -112 84q0 14 3 30l11 61l466 433h-375l17 93h499l-19 -106l-488 -457zM193 -168q-15 15 -15 37q0 29 23.5 52t52.5 23q23 0 38 -15.5t15 -37.5q0 -29 -23 -51.5t-53 -22.5q-23 0 -38 15z" />
    <glyph glyph-name="a" unicode="a" horiz-adv-x="530" 
d="M442 125q-2 -14 -2 -19q0 -16 7 -27.5t24 -26.5l-73 -64q-56 32 -66 76q-28 -34 -69.5 -55t-95.5 -21q-66 0 -103.5 31t-37.5 87q0 84 56.5 122.5t157.5 49.5l59 6q35 4 49.5 12t19.5 28q3 39 -16.5 60t-61.5 21q-45 0 -72.5 -12t-59.5 -42l-66 53q37 40 85 59t127 19
q84 0 129 -35.5t45 -99.5q0 -17 -3 -35zM296 96.5q37 28.5 45 73.5l10 54q-22 -8 -69 -13l-46 -5q-48 -5 -76 -26t-28 -61q0 -51 67 -51q60 0 97 28.5z" />
    <glyph glyph-name="aacute" unicode="&#xe1;" horiz-adv-x="530" 
d="M442 125q-2 -14 -2 -19q0 -16 7 -27.5t24 -26.5l-73 -64q-56 32 -66 76q-28 -34 -69.5 -55t-95.5 -21q-66 0 -103.5 31t-37.5 87q0 84 56.5 122.5t157.5 49.5l59 6q35 4 49.5 12t19.5 28q3 39 -16.5 60t-61.5 21q-45 0 -72.5 -12t-59.5 -42l-66 53q37 40 85 59t127 19
q84 0 129 -35.5t45 -99.5q0 -17 -3 -35zM296 96.5q37 28.5 45 73.5l10 54q-22 -8 -69 -13l-46 -5q-48 -5 -76 -26t-28 -61q0 -51 67 -51q60 0 97 28.5zM385 692h115l-134 -153h-88z" />
    <glyph glyph-name="abreve" unicode="&#x103;" horiz-adv-x="530" 
d="M442 125q-2 -14 -2 -19q0 -16 7 -27.5t24 -26.5l-73 -64q-56 32 -66 76q-28 -34 -69.5 -55t-95.5 -21q-66 0 -103.5 31t-37.5 87q0 84 56.5 122.5t157.5 49.5l59 6q35 4 49.5 12t19.5 28q3 39 -16.5 60t-61.5 21q-45 0 -72.5 -12t-59.5 -42l-66 53q37 40 85 59t127 19
q84 0 129 -35.5t45 -99.5q0 -17 -3 -35zM296 96.5q37 28.5 45 73.5l10 54q-22 -8 -69 -13l-46 -5q-48 -5 -76 -26t-28 -61q0 -51 67 -51q60 0 97 28.5zM230 565.5q-39 34.5 -39 92.5q0 16 3 32h79l-1 -13q0 -32 17.5 -50.5t50.5 -18.5q37 0 62 22t34 60h78
q-13 -74 -60 -116.5t-120 -42.5q-65 0 -104 34.5z" />
    <glyph glyph-name="uni1EAF" unicode="&#x1eaf;" horiz-adv-x="530" 
d="M442 125q-2 -14 -2 -19q0 -16 7 -27.5t24 -26.5l-73 -64q-56 32 -66 76q-28 -34 -69.5 -55t-95.5 -21q-66 0 -103.5 31t-37.5 87q0 84 56.5 122.5t157.5 49.5l59 6q35 4 49.5 12t19.5 28q3 39 -16.5 60t-61.5 21q-45 0 -72.5 -12t-59.5 -42l-66 53q37 40 85 59t127 19
q84 0 129 -35.5t45 -99.5q0 -17 -3 -35zM296 96.5q37 28.5 45 73.5l10 54q-22 -8 -69 -13l-46 -5q-48 -5 -76 -26t-28 -61q0 -51 67 -51q60 0 97 28.5zM400 855h109l-111 -121h-82zM229.5 565.5q-38.5 34.5 -38.5 92.5q0 16 3 32h79l-1 -13q0 -32 17.5 -50.5t50.5 -18.5
q38 0 62.5 22t33.5 60h78q-13 -74 -60.5 -116.5t-120.5 -42.5q-65 0 -103.5 34.5z" />
    <glyph glyph-name="uni1EB7" unicode="&#x1eb7;" horiz-adv-x="530" 
d="M442 125q-2 -14 -2 -19q0 -16 7 -27.5t24 -26.5l-73 -64q-56 32 -66 76q-28 -34 -69.5 -55t-95.5 -21q-66 0 -103.5 31t-37.5 87q0 84 56.5 122.5t157.5 49.5l59 6q35 4 49.5 12t19.5 28q3 39 -16.5 60t-61.5 21q-45 0 -72.5 -12t-59.5 -42l-66 53q37 40 85 59t127 19
q84 0 129 -35.5t45 -99.5q0 -17 -3 -35zM296 96.5q37 28.5 45 73.5l10 54q-22 -8 -69 -13l-46 -5q-48 -5 -76 -26t-28 -61q0 -51 67 -51q60 0 97 28.5zM162 -168q-15 15 -15 37q0 29 23.5 52t52.5 23q23 0 38 -15.5t15 -37.5q0 -29 -23 -51.5t-53 -22.5q-23 0 -38 15z
M230 565.5q-39 34.5 -39 92.5q0 16 3 32h79l-1 -13q0 -32 17.5 -50.5t50.5 -18.5q37 0 62 22t34 60h78q-13 -74 -60 -116.5t-120 -42.5q-65 0 -104 34.5z" />
    <glyph glyph-name="uni1EB1" unicode="&#x1eb1;" horiz-adv-x="530" 
d="M442 125q-2 -14 -2 -19q0 -16 7 -27.5t24 -26.5l-73 -64q-56 32 -66 76q-28 -34 -69.5 -55t-95.5 -21q-66 0 -103.5 31t-37.5 87q0 84 56.5 122.5t157.5 49.5l59 6q35 4 49.5 12t19.5 28q3 39 -16.5 60t-61.5 21q-45 0 -72.5 -12t-59.5 -42l-66 53q37 40 85 59t127 19
q84 0 129 -35.5t45 -99.5q0 -17 -3 -35zM296 96.5q37 28.5 45 73.5l10 54q-22 -8 -69 -13l-46 -5q-48 -5 -76 -26t-28 -61q0 -51 67 -51q60 0 97 28.5zM255 855h108l42 -121h-81zM229.5 565.5q-38.5 34.5 -38.5 92.5q0 16 3 32h79l-1 -13q0 -32 17.5 -50.5t50.5 -18.5
q38 0 62.5 22t33.5 60h78q-13 -74 -60.5 -116.5t-120.5 -42.5q-65 0 -103.5 34.5z" />
    <glyph glyph-name="uni1EB3" unicode="&#x1eb3;" horiz-adv-x="530" 
d="M442 125q-2 -14 -2 -19q0 -16 7 -27.5t24 -26.5l-73 -64q-56 32 -66 76q-28 -34 -69.5 -55t-95.5 -21q-66 0 -103.5 31t-37.5 87q0 84 56.5 122.5t157.5 49.5l59 6q35 4 49.5 12t19.5 28q3 39 -16.5 60t-61.5 21q-45 0 -72.5 -12t-59.5 -42l-66 53q37 40 85 59t127 19
q84 0 129 -35.5t45 -99.5q0 -17 -3 -35zM296 96.5q37 28.5 45 73.5l10 54q-22 -8 -69 -13l-46 -5q-48 -5 -76 -26t-28 -61q0 -51 67 -51q60 0 97 28.5zM324 827l-7 50q36 16 79 16q39 0 61.5 -14.5t22.5 -44.5q0 -72 -86 -92l-5 -32h-67l11 65q43 3 61 12.5t18 28.5
q0 12 -9 16.5t-28 4.5q-23 0 -51 -10zM514 690q-13 -74 -60.5 -116.5t-120.5 -42.5q-65 0 -103.5 34t-38.5 93q0 16 3 32h79l-1 -13q0 -32 17.5 -50.5t50.5 -18.5q38 0 63 22t33 60h78z" />
    <glyph glyph-name="uni1EB5" unicode="&#x1eb5;" horiz-adv-x="530" 
d="M442 125q-2 -14 -2 -19q0 -16 7 -27.5t24 -26.5l-73 -64q-56 32 -66 76q-28 -34 -69.5 -55t-95.5 -21q-66 0 -103.5 31t-37.5 87q0 84 56.5 122.5t157.5 49.5l59 6q35 4 49.5 12t19.5 28q3 39 -16.5 60t-61.5 21q-45 0 -72.5 -12t-59.5 -42l-66 53q37 40 85 59t127 19
q84 0 129 -35.5t45 -99.5q0 -17 -3 -35zM296 96.5q37 28.5 45 73.5l10 54q-22 -8 -69 -13l-46 -5q-48 -5 -76 -26t-28 -61q0 -51 67 -51q60 0 97 28.5zM249.5 818q32.5 32 80.5 32q18 0 31 -4.5t34 -15.5q26 -15 42 -15q25 0 39 42h65q-13 -46 -44.5 -79t-71.5 -33
q-19 0 -33.5 5.5t-31.5 15.5q-11 6 -21.5 10.5t-20.5 4.5q-29 0 -46 -43h-65q10 48 42.5 80zM230.5 565q-38.5 34 -38.5 92q0 17 3 33h78l-1 -13q0 -32 17.5 -50.5t50.5 -18.5q38 0 63 22t33 60h79q-13 -74 -60.5 -116.5t-120.5 -42.5q-65 0 -103.5 34z" />
    <glyph glyph-name="uni01CE" unicode="&#x1ce;" horiz-adv-x="530" 
d="M442 125q-2 -14 -2 -19q0 -16 7 -27.5t24 -26.5l-73 -64q-56 32 -66 76q-28 -34 -69.5 -55t-95.5 -21q-66 0 -103.5 31t-37.5 87q0 84 56.5 122.5t157.5 49.5l59 6q35 4 49.5 12t19.5 28q3 39 -16.5 60t-61.5 21q-45 0 -72.5 -12t-59.5 -42l-66 53q37 40 85 59t127 19
q84 0 129 -35.5t45 -99.5q0 -17 -3 -35zM296 96.5q37 28.5 45 73.5l10 54q-22 -8 -69 -13l-46 -5q-48 -5 -76 -26t-28 -61q0 -51 67 -51q60 0 97 28.5zM237.5 628.5q-28.5 44.5 -51.5 66.5h98q29 -29 56 -81q16 21 39.5 43t45.5 38h98q-33 -24 -77 -68t-74 -88h-90
q-16 45 -44.5 89.5z" />
    <glyph glyph-name="acircumflex" unicode="&#xe2;" horiz-adv-x="530" 
d="M442 125q-2 -14 -2 -19q0 -16 7 -27.5t24 -26.5l-73 -64q-56 32 -66 76q-28 -34 -69.5 -55t-95.5 -21q-66 0 -103.5 31t-37.5 87q0 84 56.5 122.5t157.5 49.5l59 6q35 4 49.5 12t19.5 28q3 39 -16.5 60t-61.5 21q-45 0 -72.5 -12t-59.5 -42l-66 53q37 40 85 59t127 19
q84 0 129 -35.5t45 -99.5q0 -17 -3 -35zM296 96.5q37 28.5 45 73.5l10 54q-22 -8 -69 -13l-46 -5q-48 -5 -76 -26t-28 -61q0 -51 67 -51q60 0 97 28.5zM235.5 608.5q43.5 43.5 73.5 86.5h90q16 -44 44.5 -88.5t51.5 -67.5h-97q-32 33 -57 82q-32 -42 -85 -82h-98
q34 26 77.5 69.5z" />
    <glyph glyph-name="uni1EA5" unicode="&#x1ea5;" horiz-adv-x="530" 
d="M442 125q-2 -14 -2 -19q0 -16 7 -27.5t24 -26.5l-73 -64q-56 32 -66 76q-28 -34 -69.5 -55t-95.5 -21q-66 0 -103.5 31t-37.5 87q0 84 56.5 122.5t157.5 49.5l59 6q35 4 49.5 12t19.5 28q3 39 -16.5 60t-61.5 21q-45 0 -72.5 -12t-59.5 -42l-66 53q37 40 85 59t127 19
q84 0 129 -35.5t45 -99.5q0 -17 -3 -35zM296 96.5q37 28.5 45 73.5l10 54q-22 -8 -69 -13l-46 -5q-48 -5 -76 -26t-28 -61q0 -51 67 -51q60 0 97 28.5zM540 759h107l-109 -121h-82zM233.5 607q44.5 45 75.5 88h89q15 -44 44 -88.5t53 -67.5h-94q-18 17 -34 39.5t-23 42.5
q-29 -40 -85 -82h-101q31 23 75.5 68z" />
    <glyph glyph-name="uni1EAD" unicode="&#x1ead;" horiz-adv-x="530" 
d="M442 125q-2 -14 -2 -19q0 -16 7 -27.5t24 -26.5l-73 -64q-56 32 -66 76q-28 -34 -69.5 -55t-95.5 -21q-66 0 -103.5 31t-37.5 87q0 84 56.5 122.5t157.5 49.5l59 6q35 4 49.5 12t19.5 28q3 39 -16.5 60t-61.5 21q-45 0 -72.5 -12t-59.5 -42l-66 53q37 40 85 59t127 19
q84 0 129 -35.5t45 -99.5q0 -17 -3 -35zM296 96.5q37 28.5 45 73.5l10 54q-22 -8 -69 -13l-46 -5q-48 -5 -76 -26t-28 -61q0 -51 67 -51q60 0 97 28.5zM162 -168q-15 15 -15 37q0 29 23.5 52t52.5 23q23 0 38 -15.5t15 -37.5q0 -29 -23 -51.5t-53 -22.5q-23 0 -38 15z
M235.5 608.5q43.5 43.5 73.5 86.5h90q16 -44 44.5 -88.5t51.5 -67.5h-97q-32 33 -57 82q-32 -42 -85 -82h-98q34 26 77.5 69.5z" />
    <glyph glyph-name="uni1EA7" unicode="&#x1ea7;" horiz-adv-x="530" 
d="M442 125q-2 -14 -2 -19q0 -16 7 -27.5t24 -26.5l-73 -64q-56 32 -66 76q-28 -34 -69.5 -55t-95.5 -21q-66 0 -103.5 31t-37.5 87q0 84 56.5 122.5t157.5 49.5l59 6q35 4 49.5 12t19.5 28q3 39 -16.5 60t-61.5 21q-45 0 -72.5 -12t-59.5 -42l-66 53q37 40 85 59t127 19
q84 0 129 -35.5t45 -99.5q0 -17 -3 -35zM296 96.5q37 28.5 45 73.5l10 54q-22 -8 -69 -13l-46 -5q-48 -5 -76 -26t-28 -61q0 -51 67 -51q60 0 97 28.5zM435 759h107l42 -121h-82zM233.5 607q44.5 45 75.5 88h89q15 -44 44 -88.5t53 -67.5h-94q-18 17 -34 39.5t-23 42.5
q-29 -40 -85 -82h-101q31 23 75.5 68z" />
    <glyph glyph-name="uni1EA9" unicode="&#x1ea9;" horiz-adv-x="530" 
d="M442 125q-2 -14 -2 -19q0 -16 7 -27.5t24 -26.5l-73 -64q-56 32 -66 76q-28 -34 -69.5 -55t-95.5 -21q-66 0 -103.5 31t-37.5 87q0 84 56.5 122.5t157.5 49.5l59 6q35 4 49.5 12t19.5 28q3 39 -16.5 60t-61.5 21q-45 0 -72.5 -12t-59.5 -42l-66 53q37 40 85 59t127 19
q84 0 129 -35.5t45 -99.5q0 -17 -3 -35zM296 96.5q37 28.5 45 73.5l10 54q-22 -8 -69 -13l-46 -5q-48 -5 -76 -26t-28 -61q0 -51 67 -51q60 0 97 28.5zM545 665l-5 -32h-67l11 64q44 4 61.5 14t17.5 28q0 12 -9 16.5t-28 4.5q-17 0 -51 -10l-7 50q33 15 79 15q40 0 62 -14.5
t22 -44.5q0 -71 -86 -91zM442 606.5q29 -44.5 53 -67.5h-94q-18 17 -34 39.5t-23 42.5q-29 -40 -85 -82h-101q31 23 75.5 68t75.5 88h89q15 -44 44 -88.5z" />
    <glyph glyph-name="uni1EAB" unicode="&#x1eab;" horiz-adv-x="530" 
d="M442 125q-2 -14 -2 -19q0 -16 7 -27.5t24 -26.5l-73 -64q-56 32 -66 76q-28 -34 -69.5 -55t-95.5 -21q-66 0 -103.5 31t-37.5 87q0 84 56.5 122.5t157.5 49.5l59 6q35 4 49.5 12t19.5 28q3 39 -16.5 60t-61.5 21q-45 0 -72.5 -12t-59.5 -42l-66 53q37 40 85 59t127 19
q84 0 129 -35.5t45 -99.5q0 -17 -3 -35zM296 96.5q37 28.5 45 73.5l10 54q-22 -8 -69 -13l-46 -5q-48 -5 -76 -26t-28 -61q0 -51 67 -51q60 0 97 28.5zM241.5 806q32.5 32 79.5 32q18 0 32 -5t34 -15q26 -15 41 -15q26 0 39 42h65q-13 -46 -44.5 -79t-71.5 -33
q-19 0 -32.5 5.5t-32.5 15.5q-26 15 -42 15q-29 0 -46 -43h-64q10 48 42.5 80zM233.5 607q44.5 45 75.5 88h89q15 -44 44 -88.5t53 -67.5h-94q-18 17 -34 39.5t-23 42.5q-29 -40 -85 -82h-101q31 23 75.5 68z" />
    <glyph glyph-name="adieresis" unicode="&#xe4;" horiz-adv-x="530" 
d="M442 125q-2 -14 -2 -19q0 -16 7 -27.5t24 -26.5l-73 -64q-56 32 -66 76q-28 -34 -69.5 -55t-95.5 -21q-66 0 -103.5 31t-37.5 87q0 84 56.5 122.5t157.5 49.5l59 6q35 4 49.5 12t19.5 28q3 39 -16.5 60t-61.5 21q-45 0 -72.5 -12t-59.5 -42l-66 53q37 40 85 59t127 19
q84 0 129 -35.5t45 -99.5q0 -17 -3 -35zM296 96.5q37 28.5 45 73.5l10 54q-22 -8 -69 -13l-46 -5q-48 -5 -76 -26t-28 -61q0 -51 67 -51q60 0 97 28.5zM206.5 547.5q-13.5 13.5 -13.5 33.5q0 25 20.5 45t46.5 20q20 0 33.5 -13.5t13.5 -33.5q0 -25 -20.5 -45t-45.5 -20
q-21 0 -34.5 13.5zM380 547q-13 13 -13 33q0 26 20.5 46t46.5 20q20 0 34 -13.5t14 -33.5q0 -25 -21 -45t-47 -20q-21 0 -34 13z" />
    <glyph glyph-name="uni1EA1" unicode="&#x1ea1;" horiz-adv-x="530" 
d="M442 125q-2 -14 -2 -19q0 -16 7 -27.5t24 -26.5l-73 -64q-56 32 -66 76q-28 -34 -69.5 -55t-95.5 -21q-66 0 -103.5 31t-37.5 87q0 84 56.5 122.5t157.5 49.5l59 6q35 4 49.5 12t19.5 28q3 39 -16.5 60t-61.5 21q-45 0 -72.5 -12t-59.5 -42l-66 53q37 40 85 59t127 19
q84 0 129 -35.5t45 -99.5q0 -17 -3 -35zM296 96.5q37 28.5 45 73.5l10 54q-22 -8 -69 -13l-46 -5q-48 -5 -76 -26t-28 -61q0 -51 67 -51q60 0 97 28.5zM162 -168q-15 15 -15 37q0 29 23.5 52t52.5 23q23 0 38 -15.5t15 -37.5q0 -29 -23 -51.5t-53 -22.5q-23 0 -38 15z" />
    <glyph glyph-name="agrave" unicode="&#xe0;" horiz-adv-x="530" 
d="M442 125q-2 -14 -2 -19q0 -16 7 -27.5t24 -26.5l-73 -64q-56 32 -66 76q-28 -34 -69.5 -55t-95.5 -21q-66 0 -103.5 31t-37.5 87q0 84 56.5 122.5t157.5 49.5l59 6q35 4 49.5 12t19.5 28q3 39 -16.5 60t-61.5 21q-45 0 -72.5 -12t-59.5 -42l-66 53q37 40 85 59t127 19
q84 0 129 -35.5t45 -99.5q0 -17 -3 -35zM296 96.5q37 28.5 45 73.5l10 54q-22 -8 -69 -13l-46 -5q-48 -5 -76 -26t-28 -61q0 -51 67 -51q60 0 97 28.5zM205 692h115l53 -153h-89z" />
    <glyph glyph-name="uni1EA3" unicode="&#x1ea3;" horiz-adv-x="530" 
d="M442 125q-2 -14 -2 -19q0 -16 7 -27.5t24 -26.5l-73 -64q-56 32 -66 76q-28 -34 -69.5 -55t-95.5 -21q-66 0 -103.5 31t-37.5 87q0 84 56.5 122.5t157.5 49.5l59 6q35 4 49.5 12t19.5 28q3 39 -16.5 60t-61.5 21q-45 0 -72.5 -12t-59.5 -42l-66 53q37 40 85 59t127 19
q84 0 129 -35.5t45 -99.5q0 -17 -3 -35zM296 96.5q37 28.5 45 73.5l10 54q-22 -8 -69 -13l-46 -5q-48 -5 -76 -26t-28 -61q0 -51 67 -51q60 0 97 28.5zM369 577l-7 -38h-80l14 76q49 5 71 16.5t22 34.5q0 26 -42 26q-29 0 -60 -13l-8 60q43 18 92 18q50 0 77.5 -18t27.5 -55
q0 -83 -107 -107z" />
    <glyph glyph-name="uni0251" unicode="&#x251;" horiz-adv-x="586" 
d="M488 106q0 -16 7 -27.5t24 -26.5l-73 -64q-53 31 -65 75q-64 -75 -165 -75q-82 0 -129.5 49t-47.5 133q0 26 4 49l5 32q16 102 81 166.5t161 64.5q102 0 141 -73l10 61h109l-60 -345q-2 -14 -2 -19zM387 162l26 146q-6 46 -33 67.5t-71 21.5q-59 0 -100.5 -42t-51.5 -104
l-5 -32q-3 -18 -3 -34q0 -51 26 -81.5t77 -30.5q92 0 135 89z" />
    <glyph glyph-name="amacron" unicode="&#x101;" horiz-adv-x="530" 
d="M442 125q-2 -14 -2 -19q0 -16 7 -27.5t24 -26.5l-73 -64q-56 32 -66 76q-28 -34 -69.5 -55t-95.5 -21q-66 0 -103.5 31t-37.5 87q0 84 56.5 122.5t157.5 49.5l59 6q35 4 49.5 12t19.5 28q3 39 -16.5 60t-61.5 21q-45 0 -72.5 -12t-59.5 -42l-66 53q37 40 85 59t127 19
q84 0 129 -35.5t45 -99.5q0 -17 -3 -35zM296 96.5q37 28.5 45 73.5l10 54q-22 -8 -69 -13l-46 -5q-48 -5 -76 -26t-28 -61q0 -51 67 -51q60 0 97 28.5zM188 632h314l-14 -78h-314z" />
    <glyph glyph-name="aogonek" unicode="&#x105;" horiz-adv-x="530" 
d="M442 125q-2 -14 -2 -19q0 -16 7 -27.5t24 -26.5l-67 -59q-21 -25 -34 -51t-13 -47q0 -18 12.5 -27t32.5 -9q23 0 55 13l8 -61q-45 -24 -87 -24q-63 0 -90 25t-27 61q0 77 95 148q-18 18 -24 43q-28 -34 -69.5 -55t-95.5 -21q-66 0 -103.5 31t-37.5 87q0 84 56.5 122.5
t157.5 49.5l59 6q35 4 49.5 12t19.5 28q3 39 -16.5 60t-61.5 21q-45 0 -72.5 -12t-59.5 -42l-66 53q37 40 85 59t127 19q84 0 129 -35.5t45 -99.5q0 -17 -3 -35zM296 96.5q37 28.5 45 73.5l10 54q-22 -8 -69 -13l-46 -5q-48 -5 -76 -26t-28 -61q0 -51 67 -51q60 0 97 28.5z
" />
    <glyph glyph-name="aring" unicode="&#xe5;" horiz-adv-x="530" 
d="M442 125q-2 -14 -2 -19q0 -16 7 -27.5t24 -26.5l-73 -64q-56 32 -66 76q-28 -34 -69.5 -55t-95.5 -21q-66 0 -103.5 31t-37.5 87q0 84 56.5 122.5t157.5 49.5l59 6q35 4 49.5 12t19.5 28q3 39 -16.5 60t-61.5 21q-45 0 -72.5 -12t-59.5 -42l-66 53q37 40 85 59t127 19
q84 0 129 -35.5t45 -99.5q0 -17 -3 -35zM296 96.5q37 28.5 45 73.5l10 54q-22 -8 -69 -13l-46 -5q-48 -5 -76 -26t-28 -61q0 -51 67 -51q60 0 97 28.5zM259 549.5q-24 22.5 -24 61.5q0 50 36 82.5t90 32.5q44 0 68 -23t24 -61q0 -50 -36 -82.5t-90 -32.5q-44 0 -68 22.5z
M375 597.5q15 16.5 15 39.5q0 17 -10 26t-28 9q-23 0 -38.5 -16.5t-15.5 -39.5q0 -17 10.5 -26t27.5 -9q24 0 39 16.5z" />
    <glyph glyph-name="aringacute" unicode="&#x1fb;" horiz-adv-x="530" 
d="M397 765h-88l107 123h116zM259 549.5q-24 22.5 -24 61.5q0 50 36 82.5t90 32.5q44 0 68 -23t24 -61q0 -50 -36 -82.5t-90 -32.5q-44 0 -68 22.5zM313.5 655.5q-15.5 -16.5 -15.5 -39.5q0 -17 10.5 -26t27.5 -9q24 0 39 16.5t15 39.5q0 17 -10 26t-28 9q-23 0 -38.5 -16.5
zM433 446.5q45 -35.5 45 -99.5q0 -17 -3 -35l-33 -187q-2 -14 -2 -19q0 -16 7 -27.5t24 -26.5l-73 -64q-56 32 -66 76q-28 -34 -69.5 -55t-95.5 -21q-66 0 -103.5 31t-37.5 87q0 84 56.5 122.5t157.5 49.5l59 6q35 4 49.5 12t19.5 28q3 39 -16.5 60t-61.5 21
q-45 0 -72.5 -12t-59.5 -42l-66 53q37 40 85 59t127 19q84 0 129 -35.5zM296 96.5q37 28.5 45 73.5l10 54q-22 -8 -69 -13l-46 -5q-48 -5 -76 -26t-28 -61q0 -51 67 -51q60 0 97 28.5z" />
    <glyph glyph-name="atilde" unicode="&#xe3;" horiz-adv-x="530" 
d="M442 125q-2 -14 -2 -19q0 -16 7 -27.5t24 -26.5l-73 -64q-56 32 -66 76q-28 -34 -69.5 -55t-95.5 -21q-66 0 -103.5 31t-37.5 87q0 84 56.5 122.5t157.5 49.5l59 6q35 4 49.5 12t19.5 28q3 39 -16.5 60t-61.5 21q-45 0 -72.5 -12t-59.5 -42l-66 53q37 40 85 59t127 19
q84 0 129 -35.5t45 -99.5q0 -17 -3 -35zM296 96.5q37 28.5 45 73.5l10 54q-22 -8 -69 -13l-46 -5q-48 -5 -76 -26t-28 -61q0 -51 67 -51q60 0 97 28.5zM206 635q33 37 83 37q20 0 35.5 -6t35.5 -18q16 -9 25.5 -13t20.5 -4q15 0 24.5 11.5t17.5 37.5h71q-14 -54 -47 -92
t-76 -38q-20 0 -35.5 6t-35.5 18q-16 9 -25.5 13t-20.5 4q-15 0 -26 -11.5t-20 -37.5h-72q12 56 45 93z" />
    <glyph glyph-name="ae" unicode="&#xe6;" horiz-adv-x="799" 
d="M449 169q-3 -13 -3 -26q0 -70 91 -70q39 0 67.5 11t59.5 36l56 -61q-73 -71 -189 -71q-124 0 -164 75q-38 -36 -85 -55.5t-113 -19.5q-68 0 -105.5 31t-37.5 87q0 84 56.5 122.5t157.5 49.5l60 6q34 3 48.5 11.5t18.5 26.5q1 5 1 14q0 33 -19.5 51t-57.5 18
q-46 0 -73 -12t-60 -42l-65 53q37 40 83.5 59t128.5 19q50 0 87.5 -14t56.5 -39q56 51 142 51q85 0 135.5 -37.5t50.5 -108.5q0 -74 -31.5 -106t-94.5 -32h-196zM467 264h141q32 0 46 13t14 50q0 34 -22.5 51.5t-62.5 17.5q-43 0 -72 -25t-37 -65zM296 96.5q37 28.5 45 73.5
l10 54q-22 -8 -69 -13l-46 -5q-48 -5 -76 -26t-28 -61q0 -51 67 -51q60 0 97 28.5z" />
    <glyph glyph-name="aeacute" unicode="&#x1fd;" horiz-adv-x="799" 
d="M449 169q-3 -13 -3 -26q0 -70 91 -70q39 0 67.5 11t59.5 36l56 -61q-73 -71 -189 -71q-124 0 -164 75q-38 -36 -85 -55.5t-113 -19.5q-68 0 -105.5 31t-37.5 87q0 84 56.5 122.5t157.5 49.5l60 6q34 3 48.5 11.5t18.5 26.5q1 5 1 14q0 33 -19.5 51t-57.5 18
q-46 0 -73 -12t-60 -42l-65 53q37 40 83.5 59t128.5 19q50 0 87.5 -14t56.5 -39q56 51 142 51q85 0 135.5 -37.5t50.5 -108.5q0 -74 -31.5 -106t-94.5 -32h-196zM467 264h141q32 0 46 13t14 50q0 34 -22.5 51.5t-62.5 17.5q-43 0 -72 -25t-37 -65zM296 96.5q37 28.5 45 73.5
l10 54q-22 -8 -69 -13l-46 -5q-48 -5 -76 -26t-28 -61q0 -51 67 -51q60 0 97 28.5zM519 692h115l-134 -153h-88z" />
    <glyph glyph-name="b" unicode="b" horiz-adv-x="586" 
d="M211.5 7q-38.5 19 -56.5 49l-10 -56h-109l107 605q1 6 1 17q0 17 -7 30t-24 27l73 62q37 -20 53 -42.5t16 -55.5q0 -10 -4 -36l-33 -192q28 31 68 49t82 18q85 0 132 -51.5t47 -133.5q0 -14 -4 -46l-5 -32q-16 -100 -79 -165.5t-158 -65.5q-51 0 -89.5 19zM381 114
q37 41 47 105l5 32q3 18 3 34q0 50 -25.5 81t-76.5 31q-93 0 -136 -91l-25 -142q6 -46 36.5 -68.5t75.5 -22.5q59 0 96 41z" />
    <glyph glyph-name="c" unicode="c" horiz-adv-x="471" 
d="M85.5 25.5q-50.5 37.5 -50.5 106.5q0 12 4 38l23 130q15 88 74 135t157 47q67 0 113.5 -20.5t68.5 -58.5l-86 -61q-21 30 -42.5 42.5t-57.5 12.5q-49 0 -79.5 -25.5t-38.5 -71.5l-23 -130q-3 -13 -3 -26q0 -35 22.5 -53t65.5 -18q36 0 63.5 13t55.5 41l64 -61
q-36 -40 -82 -59t-106 -19q-92 0 -142.5 37.5z" />
    <glyph glyph-name="cacute" unicode="&#x107;" horiz-adv-x="471" 
d="M85.5 25.5q-50.5 37.5 -50.5 106.5q0 12 4 38l23 130q15 88 74 135t157 47q67 0 113.5 -20.5t68.5 -58.5l-86 -61q-21 30 -42.5 42.5t-57.5 12.5q-49 0 -79.5 -25.5t-38.5 -71.5l-23 -130q-3 -13 -3 -26q0 -35 22.5 -53t65.5 -18q36 0 63.5 13t55.5 41l64 -61
q-36 -40 -82 -59t-106 -19q-92 0 -142.5 37.5zM367 692h115l-134 -153h-88z" />
    <glyph glyph-name="ccaron" unicode="&#x10d;" horiz-adv-x="471" 
d="M85.5 25.5q-50.5 37.5 -50.5 106.5q0 12 4 38l23 130q15 88 74 135t157 47q67 0 113.5 -20.5t68.5 -58.5l-86 -61q-21 30 -42.5 42.5t-57.5 12.5q-49 0 -79.5 -25.5t-38.5 -71.5l-23 -130q-3 -13 -3 -26q0 -35 22.5 -53t65.5 -18q36 0 63.5 13t55.5 41l64 -61
q-36 -40 -82 -59t-106 -19q-92 0 -142.5 37.5zM219.5 628.5q-28.5 44.5 -51.5 66.5h98q29 -29 56 -81q16 21 39.5 43t45.5 38h98q-33 -24 -77 -68t-74 -88h-90q-16 45 -44.5 89.5z" />
    <glyph glyph-name="ccedilla" unicode="&#xe7;" horiz-adv-x="471" 
d="M296.5 86q27.5 13 55.5 41l64 -61q-64 -70 -163 -77l-14 -29q72 -8 72 -71q0 -53 -38 -82t-108 -29q-59 0 -100 23l29 61q14 -8 32.5 -13t34.5 -5q33 0 48.5 8.5t15.5 27.5q0 27 -54 27q-8 0 -32 -2l37 87q-68 10 -104.5 46t-36.5 94q0 12 4 38l23 130q15 88 74 135
t157 47q67 0 113.5 -20.5t68.5 -58.5l-86 -61q-21 30 -42.5 42.5t-57.5 12.5q-49 0 -79.5 -25.5t-38.5 -71.5l-23 -130q-3 -13 -3 -26q0 -35 22.5 -53t65.5 -18q36 0 63.5 13z" />
    <glyph glyph-name="ccircumflex" unicode="&#x109;" horiz-adv-x="471" 
d="M85.5 25.5q-50.5 37.5 -50.5 106.5q0 12 4 38l23 130q15 88 74 135t157 47q67 0 113.5 -20.5t68.5 -58.5l-86 -61q-21 30 -42.5 42.5t-57.5 12.5q-49 0 -79.5 -25.5t-38.5 -71.5l-23 -130q-3 -13 -3 -26q0 -35 22.5 -53t65.5 -18q36 0 63.5 13t55.5 41l64 -61
q-36 -40 -82 -59t-106 -19q-92 0 -142.5 37.5zM217.5 608.5q43.5 43.5 73.5 86.5h90q16 -44 44.5 -88.5t51.5 -67.5h-97q-32 33 -57 82q-32 -42 -85 -82h-98q34 26 77.5 69.5z" />
    <glyph glyph-name="cdotaccent" unicode="&#x10b;" horiz-adv-x="471" 
d="M85.5 25.5q-50.5 37.5 -50.5 106.5q0 12 4 38l23 130q15 88 74 135t157 47q67 0 113.5 -20.5t68.5 -58.5l-86 -61q-21 30 -42.5 42.5t-57.5 12.5q-49 0 -79.5 -25.5t-38.5 -71.5l-23 -130q-3 -13 -3 -26q0 -35 22.5 -53t65.5 -18q36 0 63.5 13t55.5 41l64 -61
q-36 -40 -82 -59t-106 -19q-92 0 -142.5 37.5zM271.5 549q-15.5 15 -15.5 37q0 29 23.5 52t52.5 23q23 0 38.5 -15.5t15.5 -37.5q0 -28 -23.5 -51t-52.5 -23q-23 0 -38.5 15z" />
    <glyph glyph-name="d" unicode="d" horiz-adv-x="585" 
d="M489 125q-2 -14 -2 -18q0 -16 7 -28t24 -27l-73 -64q-53 32 -63 75q-65 -75 -166 -75q-82 0 -129.5 49t-47.5 133q0 26 4 49l5 32q10 67 42.5 119.5t84 82t115.5 29.5q50 0 86 -18t56 -47l33 188q1 5 1 15q0 16 -7 29.5t-24 28.5l74 63q36 -20 52.5 -44t16.5 -58
q0 -14 -3 -32zM413 308q-6 46 -34 67.5t-70 21.5q-59 0 -100.5 -42t-51.5 -104l-5 -32q-3 -18 -3 -34q0 -51 26 -81.5t77 -30.5q92 0 135 89z" />
    <glyph glyph-name="eth" unicode="&#xf0;" horiz-adv-x="521" 
d="M496 545h-91l62 -129q18 -40 18 -82q0 -18 -3 -36l-23 -126q-15 -88 -72 -136t-158 -48q-92 0 -142.5 39t-50.5 109q0 17 3 36l22 126q15 87 76 135.5t162 48.5q18 0 33 -3l-32 66h-139l10 58h102l-46 97h104l46 -97h129zM375 321q0 36 -21.5 56t-64.5 20
q-50 0 -80.5 -26.5t-38.5 -72.5l-22 -126q-2 -8 -2 -24q0 -35 21.5 -55t64.5 -20q50 0 80 26.5t38 72.5l23 126q2 16 2 23z" />
    <glyph glyph-name="dcaron" unicode="&#x10f;" horiz-adv-x="687" 
d="M489 125q-2 -14 -2 -18q0 -16 7 -28t24 -27l-73 -64q-53 32 -63 75q-65 -75 -166 -75q-82 0 -129.5 49t-47.5 133q0 26 4 49l5 32q10 67 42.5 119.5t84 82t115.5 29.5q50 0 86 -18t56 -47l33 188q1 5 1 15q0 16 -7 29.5t-24 28.5l74 63q36 -20 52.5 -44t16.5 -58
q0 -14 -3 -32zM413 308q-6 46 -34 67.5t-70 21.5q-59 0 -100.5 -42t-51.5 -104l-5 -32q-3 -18 -3 -34q0 -51 26 -81.5t77 -30.5q92 0 135 89zM740.5 715.5q14.5 -15.5 14.5 -44.5q0 -56 -36 -105.5t-89 -86.5l-28 32q64 42 79 89q-11 -5 -29 -5q-19 0 -30 11.5t-11 31.5
q0 35 27.5 64t60.5 29q27 0 41.5 -15.5z" />
    <glyph glyph-name="dcroat" unicode="&#x111;" horiz-adv-x="585" 
d="M489 125q-2 -14 -2 -18q0 -16 7 -28t24 -27l-73 -64q-53 32 -63 75q-65 -75 -166 -75q-82 0 -129.5 49t-47.5 133q0 26 4 49l5 32q10 67 42.5 119.5t84 82t115.5 29.5q50 0 86 -18t56 -47l22 125h-174l10 57h174l1 6q1 5 1 15q0 16 -7 29.5t-24 28.5l74 63
q36 -20 52.5 -44t16.5 -58q0 -14 -3 -32l-1 -8h66l-10 -57h-67zM413 308q-6 46 -34 67.5t-70 21.5q-59 0 -100.5 -42t-51.5 -104l-5 -32q-3 -18 -3 -34q0 -51 26 -81.5t77 -30.5q92 0 135 89z" />
    <glyph glyph-name="uni1E0D" unicode="&#x1e0d;" horiz-adv-x="585" 
d="M489 125q-2 -14 -2 -18q0 -16 7 -28t24 -27l-73 -64q-53 32 -63 75q-65 -75 -166 -75q-82 0 -129.5 49t-47.5 133q0 26 4 49l5 32q10 67 42.5 119.5t84 82t115.5 29.5q50 0 86 -18t56 -47l33 188q1 5 1 15q0 16 -7 29.5t-24 28.5l74 63q36 -20 52.5 -44t16.5 -58
q0 -14 -3 -32zM413 308q-6 46 -34 67.5t-70 21.5q-59 0 -100.5 -42t-51.5 -104l-5 -32q-3 -18 -3 -34q0 -51 26 -81.5t77 -30.5q92 0 135 89zM179 -168q-15 15 -15 37q0 29 23.5 52t52.5 23q23 0 38 -15.5t15 -37.5q0 -29 -23 -51.5t-53 -22.5q-23 0 -38 15z" />
    <glyph glyph-name="uni1E0F" unicode="&#x1e0f;" horiz-adv-x="585" 
d="M489 125q-2 -14 -2 -18q0 -16 7 -28t24 -27l-73 -64q-53 32 -63 75q-65 -75 -166 -75q-82 0 -129.5 49t-47.5 133q0 26 4 49l5 32q10 67 42.5 119.5t84 82t115.5 29.5q50 0 86 -18t56 -47l33 188q1 5 1 15q0 16 -7 29.5t-24 28.5l74 63q36 -20 52.5 -44t16.5 -58
q0 -14 -3 -32zM413 308q-6 46 -34 67.5t-70 21.5q-59 0 -100.5 -42t-51.5 -104l-5 -32q-3 -18 -3 -34q0 -51 26 -81.5t77 -30.5q92 0 135 89zM79 -75h314l-13 -78h-315z" />
    <glyph glyph-name="e" unicode="e" horiz-adv-x="494" 
d="M147 169q-3 -13 -3 -26q0 -71 89 -71q39 0 68 10.5t61 36.5l55 -60q-38 -37 -83 -54t-106 -17q-194 0 -194 141q0 12 4 40l26 146q14 78 71.5 122t148.5 44q86 0 136.5 -40t50.5 -111q0 -75 -29.5 -108t-94.5 -33h-197zM206.5 373.5q-28.5 -24.5 -35.5 -66.5l-7 -43h139
q31 0 45.5 13.5t14.5 50.5q0 34 -21.5 52t-62.5 18q-44 0 -72.5 -24.5z" />
    <glyph glyph-name="eacute" unicode="&#xe9;" horiz-adv-x="494" 
d="M147 169q-3 -13 -3 -26q0 -71 89 -71q39 0 68 10.5t61 36.5l55 -60q-38 -37 -83 -54t-106 -17q-194 0 -194 141q0 12 4 40l26 146q14 78 71.5 122t148.5 44q86 0 136.5 -40t50.5 -111q0 -75 -29.5 -108t-94.5 -33h-197zM206.5 373.5q-28.5 -24.5 -35.5 -66.5l-7 -43h139
q31 0 45.5 13.5t14.5 50.5q0 34 -21.5 52t-62.5 18q-44 0 -72.5 -24.5zM357 692h115l-134 -153h-88z" />
    <glyph glyph-name="ebreve" unicode="&#x115;" horiz-adv-x="494" 
d="M147 169q-3 -13 -3 -26q0 -71 89 -71q39 0 68 10.5t61 36.5l55 -60q-38 -37 -83 -54t-106 -17q-194 0 -194 141q0 12 4 40l26 146q14 78 71.5 122t148.5 44q86 0 136.5 -40t50.5 -111q0 -75 -29.5 -108t-94.5 -33h-197zM206.5 373.5q-28.5 -24.5 -35.5 -66.5l-7 -43h139
q31 0 45.5 13.5t14.5 50.5q0 34 -21.5 52t-62.5 18q-44 0 -72.5 -24.5zM202 565.5q-39 34.5 -39 92.5q0 16 3 32h79l-1 -13q0 -32 17.5 -50.5t50.5 -18.5q37 0 62 22t34 60h78q-13 -74 -60 -116.5t-120 -42.5q-65 0 -104 34.5z" />
    <glyph glyph-name="ecaron" unicode="&#x11b;" horiz-adv-x="494" 
d="M147 169q-3 -13 -3 -26q0 -71 89 -71q39 0 68 10.5t61 36.5l55 -60q-38 -37 -83 -54t-106 -17q-194 0 -194 141q0 12 4 40l26 146q14 78 71.5 122t148.5 44q86 0 136.5 -40t50.5 -111q0 -75 -29.5 -108t-94.5 -33h-197zM206.5 373.5q-28.5 -24.5 -35.5 -66.5l-7 -43h139
q31 0 45.5 13.5t14.5 50.5q0 34 -21.5 52t-62.5 18q-44 0 -72.5 -24.5zM209.5 628.5q-28.5 44.5 -51.5 66.5h98q29 -29 56 -81q16 21 39.5 43t45.5 38h98q-33 -24 -77 -68t-74 -88h-90q-16 45 -44.5 89.5z" />
    <glyph glyph-name="ecircumflex" unicode="&#xea;" horiz-adv-x="494" 
d="M147 169q-3 -13 -3 -26q0 -71 89 -71q39 0 68 10.5t61 36.5l55 -60q-38 -37 -83 -54t-106 -17q-194 0 -194 141q0 12 4 40l26 146q14 78 71.5 122t148.5 44q86 0 136.5 -40t50.5 -111q0 -75 -29.5 -108t-94.5 -33h-197zM206.5 373.5q-28.5 -24.5 -35.5 -66.5l-7 -43h139
q31 0 45.5 13.5t14.5 50.5q0 34 -21.5 52t-62.5 18q-44 0 -72.5 -24.5zM207.5 608.5q43.5 43.5 73.5 86.5h90q16 -44 44.5 -88.5t51.5 -67.5h-97q-32 33 -57 82q-32 -42 -85 -82h-98q34 26 77.5 69.5z" />
    <glyph glyph-name="uni1EBF" unicode="&#x1ebf;" horiz-adv-x="494" 
d="M147 169q-3 -13 -3 -26q0 -71 89 -71q39 0 68 10.5t61 36.5l55 -60q-38 -37 -83 -54t-106 -17q-194 0 -194 141q0 12 4 40l26 146q14 78 71.5 122t148.5 44q86 0 136.5 -40t50.5 -111q0 -75 -29.5 -108t-94.5 -33h-197zM206.5 373.5q-28.5 -24.5 -35.5 -66.5l-7 -43h139
q31 0 45.5 13.5t14.5 50.5q0 34 -21.5 52t-62.5 18q-44 0 -72.5 -24.5zM512 759h107l-109 -121h-82zM205.5 607q44.5 45 75.5 88h89q15 -44 44 -88.5t53 -67.5h-94q-18 17 -34 39.5t-23 42.5q-29 -40 -85 -82h-101q31 23 75.5 68z" />
    <glyph glyph-name="uni1EC7" unicode="&#x1ec7;" horiz-adv-x="494" 
d="M147 169q-3 -13 -3 -26q0 -71 89 -71q39 0 68 10.5t61 36.5l55 -60q-38 -37 -83 -54t-106 -17q-194 0 -194 141q0 12 4 40l26 146q14 78 71.5 122t148.5 44q86 0 136.5 -40t50.5 -111q0 -75 -29.5 -108t-94.5 -33h-197zM206.5 373.5q-28.5 -24.5 -35.5 -66.5l-7 -43h139
q31 0 45.5 13.5t14.5 50.5q0 34 -21.5 52t-62.5 18q-44 0 -72.5 -24.5zM140 -168q-15 15 -15 37q0 29 23.5 52t52.5 23q23 0 38 -15.5t15 -37.5q0 -29 -23 -51.5t-53 -22.5q-23 0 -38 15zM207.5 608.5q43.5 43.5 73.5 86.5h90q16 -44 44.5 -88.5t51.5 -67.5h-97
q-32 33 -57 82q-32 -42 -85 -82h-98q34 26 77.5 69.5z" />
    <glyph glyph-name="uni1EC1" unicode="&#x1ec1;" horiz-adv-x="494" 
d="M147 169q-3 -13 -3 -26q0 -71 89 -71q39 0 68 10.5t61 36.5l55 -60q-38 -37 -83 -54t-106 -17q-194 0 -194 141q0 12 4 40l26 146q14 78 71.5 122t148.5 44q86 0 136.5 -40t50.5 -111q0 -75 -29.5 -108t-94.5 -33h-197zM206.5 373.5q-28.5 -24.5 -35.5 -66.5l-7 -43h139
q31 0 45.5 13.5t14.5 50.5q0 34 -21.5 52t-62.5 18q-44 0 -72.5 -24.5zM407 759h107l42 -121h-82zM205.5 607q44.5 45 75.5 88h89q15 -44 44 -88.5t53 -67.5h-94q-18 17 -34 39.5t-23 42.5q-29 -40 -85 -82h-101q31 23 75.5 68z" />
    <glyph glyph-name="uni1EC3" unicode="&#x1ec3;" horiz-adv-x="494" 
d="M147 169q-3 -13 -3 -26q0 -71 89 -71q39 0 68 10.5t61 36.5l55 -60q-38 -37 -83 -54t-106 -17q-194 0 -194 141q0 12 4 40l26 146q14 78 71.5 122t148.5 44q86 0 136.5 -40t50.5 -111q0 -75 -29.5 -108t-94.5 -33h-197zM206.5 373.5q-28.5 -24.5 -35.5 -66.5l-7 -43h139
q31 0 45.5 13.5t14.5 50.5q0 34 -21.5 52t-62.5 18q-44 0 -72.5 -24.5zM517 665l-5 -32h-67l11 64q44 4 61.5 14t17.5 28q0 12 -9 16.5t-28 4.5q-17 0 -51 -10l-7 50q33 15 79 15q40 0 62 -14.5t22 -44.5q0 -71 -86 -91zM414 606.5q29 -44.5 53 -67.5h-94q-18 17 -34 39.5
t-23 42.5q-29 -40 -85 -82h-101q31 23 75.5 68t75.5 88h89q15 -44 44 -88.5z" />
    <glyph glyph-name="uni1EC5" unicode="&#x1ec5;" horiz-adv-x="494" 
d="M147 169q-3 -13 -3 -26q0 -71 89 -71q39 0 68 10.5t61 36.5l55 -60q-38 -37 -83 -54t-106 -17q-194 0 -194 141q0 12 4 40l26 146q14 78 71.5 122t148.5 44q86 0 136.5 -40t50.5 -111q0 -75 -29.5 -108t-94.5 -33h-197zM206.5 373.5q-28.5 -24.5 -35.5 -66.5l-7 -43h139
q31 0 45.5 13.5t14.5 50.5q0 34 -21.5 52t-62.5 18q-44 0 -72.5 -24.5zM213.5 806q32.5 32 79.5 32q18 0 32 -5t34 -15q26 -15 41 -15q26 0 39 42h65q-13 -46 -44.5 -79t-71.5 -33q-19 0 -32.5 5.5t-32.5 15.5q-26 15 -42 15q-29 0 -46 -43h-64q10 48 42.5 80zM205.5 607
q44.5 45 75.5 88h89q15 -44 44 -88.5t53 -67.5h-94q-18 17 -34 39.5t-23 42.5q-29 -40 -85 -82h-101q31 23 75.5 68z" />
    <glyph glyph-name="edieresis" unicode="&#xeb;" horiz-adv-x="494" 
d="M147 169q-3 -13 -3 -26q0 -71 89 -71q39 0 68 10.5t61 36.5l55 -60q-38 -37 -83 -54t-106 -17q-194 0 -194 141q0 12 4 40l26 146q14 78 71.5 122t148.5 44q86 0 136.5 -40t50.5 -111q0 -75 -29.5 -108t-94.5 -33h-197zM206.5 373.5q-28.5 -24.5 -35.5 -66.5l-7 -43h139
q31 0 45.5 13.5t14.5 50.5q0 34 -21.5 52t-62.5 18q-44 0 -72.5 -24.5zM178.5 547.5q-13.5 13.5 -13.5 33.5q0 25 20.5 45t46.5 20q20 0 33.5 -13.5t13.5 -33.5q0 -25 -20.5 -45t-45.5 -20q-21 0 -34.5 13.5zM352 547q-13 13 -13 33q0 26 20.5 46t46.5 20q20 0 34 -13.5
t14 -33.5q0 -25 -21 -45t-47 -20q-21 0 -34 13z" />
    <glyph glyph-name="edotaccent" unicode="&#x117;" horiz-adv-x="494" 
d="M147 169q-3 -13 -3 -26q0 -71 89 -71q39 0 68 10.5t61 36.5l55 -60q-38 -37 -83 -54t-106 -17q-194 0 -194 141q0 12 4 40l26 146q14 78 71.5 122t148.5 44q86 0 136.5 -40t50.5 -111q0 -75 -29.5 -108t-94.5 -33h-197zM206.5 373.5q-28.5 -24.5 -35.5 -66.5l-7 -43h139
q31 0 45.5 13.5t14.5 50.5q0 34 -21.5 52t-62.5 18q-44 0 -72.5 -24.5zM261.5 549q-15.5 15 -15.5 37q0 29 23.5 52t52.5 23q23 0 38.5 -15.5t15.5 -37.5q0 -28 -23.5 -51t-52.5 -23q-23 0 -38.5 15z" />
    <glyph glyph-name="uni1EB9" unicode="&#x1eb9;" horiz-adv-x="494" 
d="M147 169q-3 -13 -3 -26q0 -71 89 -71q39 0 68 10.5t61 36.5l55 -60q-38 -37 -83 -54t-106 -17q-194 0 -194 141q0 12 4 40l26 146q14 78 71.5 122t148.5 44q86 0 136.5 -40t50.5 -111q0 -75 -29.5 -108t-94.5 -33h-197zM206.5 373.5q-28.5 -24.5 -35.5 -66.5l-7 -43h139
q31 0 45.5 13.5t14.5 50.5q0 34 -21.5 52t-62.5 18q-44 0 -72.5 -24.5zM140 -168q-15 15 -15 37q0 29 23.5 52t52.5 23q23 0 38 -15.5t15 -37.5q0 -29 -23 -51.5t-53 -22.5q-23 0 -38 15z" />
    <glyph glyph-name="egrave" unicode="&#xe8;" horiz-adv-x="494" 
d="M147 169q-3 -13 -3 -26q0 -71 89 -71q39 0 68 10.5t61 36.5l55 -60q-38 -37 -83 -54t-106 -17q-194 0 -194 141q0 12 4 40l26 146q14 78 71.5 122t148.5 44q86 0 136.5 -40t50.5 -111q0 -75 -29.5 -108t-94.5 -33h-197zM206.5 373.5q-28.5 -24.5 -35.5 -66.5l-7 -43h139
q31 0 45.5 13.5t14.5 50.5q0 34 -21.5 52t-62.5 18q-44 0 -72.5 -24.5zM177 692h115l53 -153h-89z" />
    <glyph glyph-name="uni1EBB" unicode="&#x1ebb;" horiz-adv-x="494" 
d="M147 169q-3 -13 -3 -26q0 -71 89 -71q39 0 68 10.5t61 36.5l55 -60q-38 -37 -83 -54t-106 -17q-194 0 -194 141q0 12 4 40l26 146q14 78 71.5 122t148.5 44q86 0 136.5 -40t50.5 -111q0 -75 -29.5 -108t-94.5 -33h-197zM206.5 373.5q-28.5 -24.5 -35.5 -66.5l-7 -43h139
q31 0 45.5 13.5t14.5 50.5q0 34 -21.5 52t-62.5 18q-44 0 -72.5 -24.5zM341 577l-7 -38h-80l14 76q49 5 71 16.5t22 34.5q0 26 -42 26q-29 0 -60 -13l-8 60q43 18 92 18q50 0 77.5 -18t27.5 -55q0 -83 -107 -107z" />
    <glyph glyph-name="emacron" unicode="&#x113;" horiz-adv-x="494" 
d="M147 169q-3 -13 -3 -26q0 -71 89 -71q39 0 68 10.5t61 36.5l55 -60q-38 -37 -83 -54t-106 -17q-194 0 -194 141q0 12 4 40l26 146q14 78 71.5 122t148.5 44q86 0 136.5 -40t50.5 -111q0 -75 -29.5 -108t-94.5 -33h-197zM206.5 373.5q-28.5 -24.5 -35.5 -66.5l-7 -43h139
q31 0 45.5 13.5t14.5 50.5q0 34 -21.5 52t-62.5 18q-44 0 -72.5 -24.5zM159 632h314l-14 -78h-314z" />
    <glyph glyph-name="eogonek" unicode="&#x119;" horiz-adv-x="494" 
d="M147 169q-3 -13 -3 -26q0 -71 89 -71q39 0 68 10.5t61 36.5l55 -60q-37 -36 -81 -53t-102 -18q-22 -26 -37 -54t-15 -49q0 -18 12.5 -27t32.5 -9q23 0 55 13l9 -61q-45 -24 -88 -24q-63 0 -89.5 25t-26.5 61q0 67 73 131q-126 23 -126 135q0 12 4 40l26 146
q14 78 71.5 122t148.5 44q86 0 136.5 -40t50.5 -111q0 -75 -29.5 -108t-94.5 -33h-197zM206.5 373.5q-28.5 -24.5 -35.5 -66.5l-7 -43h139q31 0 45.5 13.5t14.5 50.5q0 34 -21.5 52t-62.5 18q-44 0 -72.5 -24.5z" />
    <glyph glyph-name="uni1EBD" unicode="&#x1ebd;" horiz-adv-x="494" 
d="M147 169q-3 -13 -3 -26q0 -71 89 -71q39 0 68 10.5t61 36.5l55 -60q-38 -37 -83 -54t-106 -17q-194 0 -194 141q0 12 4 40l26 146q14 78 71.5 122t148.5 44q86 0 136.5 -40t50.5 -111q0 -75 -29.5 -108t-94.5 -33h-197zM206.5 373.5q-28.5 -24.5 -35.5 -66.5l-7 -43h139
q31 0 45.5 13.5t14.5 50.5q0 34 -21.5 52t-62.5 18q-44 0 -72.5 -24.5zM178 635q33 37 83 37q20 0 35.5 -6t35.5 -18q16 -9 25.5 -13t20.5 -4q15 0 24.5 11.5t17.5 37.5h71q-14 -54 -47 -92t-76 -38q-20 0 -35.5 6t-35.5 18q-16 9 -25.5 13t-20.5 4q-15 0 -26 -11.5
t-20 -37.5h-72q12 56 45 93z" />
    <glyph glyph-name="uni0259" unicode="&#x259;" horiz-adv-x="494" 
d="M460 341q0 -13 -4 -41l-26 -146q-14 -78 -71 -122t-149 -44q-85 0 -136 40.5t-51 111.5q0 75 29.5 108t95.5 33h197l3 20q2 9 2 25q0 72 -89 72q-39 0 -68 -10.5t-61 -36.5l-55 60q37 37 82.5 53.5t106.5 16.5q194 0 194 -140zM288 95.5q28 24.5 36 66.5l7 43h-140
q-31 0 -45 -13.5t-14 -49.5q0 -34 21.5 -52.5t61.5 -18.5q45 0 73 24.5z" />
    <glyph glyph-name="f" unicode="f" horiz-adv-x="332" 
d="M278 618.5q-29 -28.5 -38 -81.5l-12 -67h135l-16 -85h-134l-68 -385h-109l95 537q16 94 77.5 144.5t159.5 50.5h40l-14 -85h-41q-46 0 -75 -28.5z" />
    <glyph glyph-name="g" unicode="g" horiz-adv-x="585" 
d="M582 418q-27 -19 -38.5 -33.5t-15.5 -39.5l-70 -398q-16 -90 -72.5 -134.5t-169.5 -44.5h-128l14 85h128q49 0 79.5 21.5t39.5 72.5l20 115q-59 -62 -155 -62q-82 0 -127.5 48.5t-45.5 131.5q0 27 4 51l3 20q10 62 42.5 115t84.5 84.5t118 31.5q102 0 142 -79
q11 26 31 45t52 34zM388 173l24 135q-6 46 -33 67.5t-70 21.5q-59 0 -100.5 -42t-51.5 -104l-3 -20q-3 -19 -3 -36q0 -50 26 -80t76 -30q92 0 135 88z" />
    <glyph glyph-name="gbreve" unicode="&#x11f;" horiz-adv-x="585" 
d="M582 418q-27 -19 -38.5 -33.5t-15.5 -39.5l-70 -398q-16 -90 -72.5 -134.5t-169.5 -44.5h-128l14 85h128q49 0 79.5 21.5t39.5 72.5l20 115q-59 -62 -155 -62q-82 0 -127.5 48.5t-45.5 131.5q0 27 4 51l3 20q10 62 42.5 115t84.5 84.5t118 31.5q102 0 142 -79
q11 26 31 45t52 34zM388 173l24 135q-6 46 -33 67.5t-70 21.5q-59 0 -100.5 -42t-51.5 -104l-3 -20q-3 -19 -3 -36q0 -50 26 -80t76 -30q92 0 135 88zM246 565.5q-39 34.5 -39 92.5q0 16 3 32h79l-1 -13q0 -32 17.5 -50.5t50.5 -18.5q37 0 62 22t34 60h78
q-13 -74 -60 -116.5t-120 -42.5q-65 0 -104 34.5z" />
    <glyph glyph-name="gcaron" unicode="&#x1e7;" horiz-adv-x="585" 
d="M582 418q-27 -19 -38.5 -33.5t-15.5 -39.5l-70 -398q-16 -90 -72.5 -134.5t-169.5 -44.5h-128l14 85h128q49 0 79.5 21.5t39.5 72.5l20 115q-59 -62 -155 -62q-82 0 -127.5 48.5t-45.5 131.5q0 27 4 51l3 20q10 62 42.5 115t84.5 84.5t118 31.5q102 0 142 -79
q11 26 31 45t52 34zM388 173l24 135q-6 46 -33 67.5t-70 21.5q-59 0 -100.5 -42t-51.5 -104l-3 -20q-3 -19 -3 -36q0 -50 26 -80t76 -30q92 0 135 88zM253.5 628.5q-28.5 44.5 -51.5 66.5h98q29 -29 56 -81q16 21 39.5 43t45.5 38h98q-33 -24 -77 -68t-74 -88h-90
q-16 45 -44.5 89.5z" />
    <glyph glyph-name="gcircumflex" unicode="&#x11d;" horiz-adv-x="585" 
d="M582 418q-27 -19 -38.5 -33.5t-15.5 -39.5l-70 -398q-16 -90 -72.5 -134.5t-169.5 -44.5h-128l14 85h128q49 0 79.5 21.5t39.5 72.5l20 115q-59 -62 -155 -62q-82 0 -127.5 48.5t-45.5 131.5q0 27 4 51l3 20q10 62 42.5 115t84.5 84.5t118 31.5q102 0 142 -79
q11 26 31 45t52 34zM388 173l24 135q-6 46 -33 67.5t-70 21.5q-59 0 -100.5 -42t-51.5 -104l-3 -20q-3 -19 -3 -36q0 -50 26 -80t76 -30q92 0 135 88zM251.5 608.5q43.5 43.5 73.5 86.5h90q16 -44 44.5 -88.5t51.5 -67.5h-97q-32 33 -57 82q-32 -42 -85 -82h-98
q34 26 77.5 69.5z" />
    <glyph glyph-name="uni0123" unicode="&#x123;" horiz-adv-x="585" 
d="M300.5 543.5q-14.5 15.5 -14.5 43.5q0 56 36 105t89 85l28 -32q-62 -41 -79 -87q13 6 29 6q19 0 30 -11.5t11 -31.5q0 -35 -27.5 -64t-60.5 -29q-27 0 -41.5 15.5zM582 418q-27 -19 -38.5 -33.5t-15.5 -39.5l-70 -398q-16 -90 -72.5 -134.5t-169.5 -44.5h-128l14 85h128
q49 0 79.5 21.5t39.5 72.5l20 115q-59 -62 -155 -62q-82 0 -127.5 48.5t-45.5 131.5q0 27 4 51l3 20q10 62 42.5 115t84.5 84.5t118 31.5q102 0 142 -79q11 26 31 45t52 34zM388 173l24 135q-6 46 -33 67.5t-70 21.5q-59 0 -100.5 -42t-51.5 -104l-3 -20q-3 -19 -3 -36
q0 -50 26 -80t76 -30q92 0 135 88z" />
    <glyph glyph-name="gdotaccent" unicode="&#x121;" horiz-adv-x="585" 
d="M582 418q-27 -19 -38.5 -33.5t-15.5 -39.5l-70 -398q-16 -90 -72.5 -134.5t-169.5 -44.5h-128l14 85h128q49 0 79.5 21.5t39.5 72.5l20 115q-59 -62 -155 -62q-82 0 -127.5 48.5t-45.5 131.5q0 27 4 51l3 20q10 62 42.5 115t84.5 84.5t118 31.5q102 0 142 -79
q11 26 31 45t52 34zM388 173l24 135q-6 46 -33 67.5t-70 21.5q-59 0 -100.5 -42t-51.5 -104l-3 -20q-3 -19 -3 -36q0 -50 26 -80t76 -30q92 0 135 88zM305.5 549q-15.5 15 -15.5 37q0 29 23.5 52t52.5 23q23 0 38.5 -15.5t15.5 -37.5q0 -28 -23.5 -51t-52.5 -23
q-23 0 -38.5 15z" />
    <glyph glyph-name="uni1E21" unicode="&#x1e21;" horiz-adv-x="585" 
d="M582 418q-27 -19 -38.5 -33.5t-15.5 -39.5l-70 -398q-16 -90 -72.5 -134.5t-169.5 -44.5h-128l14 85h128q49 0 79.5 21.5t39.5 72.5l20 115q-59 -62 -155 -62q-82 0 -127.5 48.5t-45.5 131.5q0 27 4 51l3 20q10 62 42.5 115t84.5 84.5t118 31.5q102 0 142 -79
q11 26 31 45t52 34zM388 173l24 135q-6 46 -33 67.5t-70 21.5q-59 0 -100.5 -42t-51.5 -104l-3 -20q-3 -19 -3 -36q0 -50 26 -80t76 -30q92 0 135 88zM203 632h314l-14 -78h-314z" />
    <glyph glyph-name="h" unicode="h" horiz-adv-x="552" 
d="M469 449.5q36 -32.5 36 -91.5q0 -18 -3 -38l-56 -320h-109l54 309q2 9 2 24q0 31 -16.5 47.5t-48.5 16.5q-44 0 -76.5 -29t-54.5 -73l-52 -295h-109l107 605q1 6 1 16q0 16 -7 29t-24 28l73 63q37 -21 53 -45t16 -57q0 -14 -3 -32l-35 -198q61 73 153 73q63 0 99 -32.5z
" />
    <glyph glyph-name="hbar" unicode="&#x127;" horiz-adv-x="552" 
d="M469 449.5q36 -32.5 36 -91.5q0 -18 -3 -38l-56 -320h-109l54 309q2 9 2 24q0 31 -16.5 47.5t-48.5 16.5q-44 0 -76.5 -29t-54.5 -73l-52 -295h-109l96 541h-76l11 58h75l1 6q1 6 1 16q0 16 -7 29t-24 28l73 63q37 -21 53 -45t16 -57q0 -14 -3 -32l-1 -8h161l-10 -58
h-162l-23 -132q61 73 153 73q63 0 99 -32.5z" />
    <glyph glyph-name="uni1E2B" unicode="&#x1e2b;" horiz-adv-x="552" 
d="M469 449.5q36 -32.5 36 -91.5q0 -18 -3 -38l-56 -320h-109l54 309q2 9 2 24q0 31 -16.5 47.5t-48.5 16.5q-44 0 -76.5 -29t-54.5 -73l-52 -295h-109l107 605q1 6 1 16q0 16 -7 29t-24 28l73 63q37 -21 53 -45t16 -57q0 -14 -3 -32l-35 -198q61 73 153 73q63 0 99 -32.5z
M108 -189.5q-39 34.5 -39 92.5q0 14 3 31h79l-1 -13q0 -31 17.5 -49.5t50.5 -18.5q37 0 62 21.5t34 59.5h78q-13 -74 -60 -116t-120 -42q-65 0 -104 34.5z" />
    <glyph glyph-name="hcircumflex" unicode="&#x125;" horiz-adv-x="552" 
d="M469 449.5q36 -32.5 36 -91.5q0 -18 -3 -38l-56 -320h-109l54 309q2 9 2 24q0 31 -16.5 47.5t-48.5 16.5q-44 0 -76.5 -29t-54.5 -73l-52 -295h-109l107 605q1 6 1 16q0 16 -7 29t-24 28l73 63q37 -21 53 -45t16 -57q0 -14 -3 -32l-35 -198q61 73 153 73q63 0 99 -32.5z
M297.5 852.5q43.5 43.5 73.5 86.5h90q16 -44 44.5 -88.5t51.5 -67.5h-97q-32 33 -57 82q-32 -42 -85 -82h-98q34 26 77.5 69.5z" />
    <glyph glyph-name="uni1E25" unicode="&#x1e25;" horiz-adv-x="552" 
d="M469 449.5q36 -32.5 36 -91.5q0 -18 -3 -38l-56 -320h-109l54 309q2 9 2 24q0 31 -16.5 47.5t-48.5 16.5q-44 0 -76.5 -29t-54.5 -73l-52 -295h-109l107 605q1 6 1 16q0 16 -7 29t-24 28l73 63q37 -21 53 -45t16 -57q0 -14 -3 -32l-35 -198q61 73 153 73q63 0 99 -32.5z
M173 -168q-15 15 -15 37q0 29 23.5 52t52.5 23q23 0 38 -15.5t15 -37.5q0 -29 -23 -51.5t-53 -22.5q-23 0 -38 15z" />
    <glyph glyph-name="i" unicode="i" horiz-adv-x="269" 
d="M148.5 563q-15.5 16 -15.5 39q0 29 24 52.5t55 23.5q23 0 38.5 -15.5t15.5 -38.5q0 -29 -24.5 -53t-53.5 -24q-24 0 -39.5 16zM71.5 34.5q-16.5 24.5 -16.5 57.5q0 15 3 31l61 347h109l-60 -345q-2 -12 -2 -17q0 -15 7.5 -28t23.5 -28l-73 -64q-36 22 -52.5 46.5z" />
    <glyph glyph-name="dotlessi" unicode="&#x131;" horiz-adv-x="258" 
d="M60.5 34.5q-16.5 24.5 -16.5 57.5q0 15 3 31l61 347h109l-60 -345q-2 -12 -2 -17q0 -15 7.5 -28t23.5 -28l-73 -64q-36 22 -52.5 46.5z" />
    <glyph glyph-name="iacute" unicode="&#xed;" horiz-adv-x="258" 
d="M60.5 34.5q-16.5 24.5 -16.5 57.5q0 15 3 31l61 347h109l-60 -345q-2 -12 -2 -17q0 -15 7.5 -28t23.5 -28l-73 -64q-36 22 -52.5 46.5zM235 692h115l-134 -153h-88z" />
    <glyph glyph-name="ibreve" unicode="&#x12d;" horiz-adv-x="258" 
d="M60.5 34.5q-16.5 24.5 -16.5 57.5q0 15 3 31l61 347h109l-60 -345q-2 -12 -2 -17q0 -15 7.5 -28t23.5 -28l-73 -64q-36 22 -52.5 46.5zM80 565.5q-39 34.5 -39 92.5q0 16 3 32h79l-1 -13q0 -32 17.5 -50.5t50.5 -18.5q37 0 62 22t34 60h78q-13 -74 -60 -116.5t-120 -42.5
q-65 0 -104 34.5z" />
    <glyph glyph-name="uni01D0" unicode="&#x1d0;" horiz-adv-x="258" 
d="M60.5 34.5q-16.5 24.5 -16.5 57.5q0 15 3 31l61 347h109l-60 -345q-2 -12 -2 -17q0 -15 7.5 -28t23.5 -28l-73 -64q-36 22 -52.5 46.5zM87.5 628.5q-28.5 44.5 -51.5 66.5h98q29 -29 56 -81q16 21 39.5 43t45.5 38h98q-33 -24 -77 -68t-74 -88h-90q-16 45 -44.5 89.5z
" />
    <glyph glyph-name="icircumflex" unicode="&#xee;" horiz-adv-x="258" 
d="M60.5 34.5q-16.5 24.5 -16.5 57.5q0 15 3 31l61 347h109l-60 -345q-2 -12 -2 -17q0 -15 7.5 -28t23.5 -28l-73 -64q-36 22 -52.5 46.5zM85.5 608.5q43.5 43.5 73.5 86.5h90q16 -44 44.5 -88.5t51.5 -67.5h-97q-32 33 -57 82q-32 -42 -85 -82h-98q34 26 77.5 69.5z" />
    <glyph glyph-name="idieresis" unicode="&#xef;" horiz-adv-x="258" 
d="M60.5 34.5q-16.5 24.5 -16.5 57.5q0 15 3 31l61 347h109l-60 -345q-2 -12 -2 -17q0 -15 7.5 -28t23.5 -28l-73 -64q-36 22 -52.5 46.5zM56.5 547.5q-13.5 13.5 -13.5 33.5q0 25 20.5 45t46.5 20q20 0 33.5 -13.5t13.5 -33.5q0 -25 -20.5 -45t-45.5 -20q-21 0 -34.5 13.5z
M230 547q-13 13 -13 33q0 26 20.5 46t46.5 20q20 0 34 -13.5t14 -33.5q0 -25 -21 -45t-47 -20q-21 0 -34 13z" />
    <glyph glyph-name="uni1ECB" unicode="&#x1ecb;" horiz-adv-x="269" 
d="M148.5 563q-15.5 16 -15.5 39q0 29 24 52.5t55 23.5q23 0 38.5 -15.5t15.5 -38.5q0 -29 -24.5 -53t-53.5 -24q-24 0 -39.5 16zM71.5 34.5q-16.5 24.5 -16.5 57.5q0 15 3 31l61 347h109l-60 -345q-2 -12 -2 -17q0 -15 7.5 -28t23.5 -28l-73 -64q-36 22 -52.5 46.5z
M25 -168q-15 15 -15 37q0 29 23.5 52t52.5 23q23 0 38 -15.5t15 -37.5q0 -29 -23 -51.5t-53 -22.5q-23 0 -38 15z" />
    <glyph glyph-name="igrave" unicode="&#xec;" horiz-adv-x="258" 
d="M60.5 34.5q-16.5 24.5 -16.5 57.5q0 15 3 31l61 347h109l-60 -345q-2 -12 -2 -17q0 -15 7.5 -28t23.5 -28l-73 -64q-36 22 -52.5 46.5zM55 692h115l53 -153h-89z" />
    <glyph glyph-name="uni1EC9" unicode="&#x1ec9;" horiz-adv-x="258" 
d="M60.5 34.5q-16.5 24.5 -16.5 57.5q0 15 3 31l61 347h109l-60 -345q-2 -12 -2 -17q0 -15 7.5 -28t23.5 -28l-73 -64q-36 22 -52.5 46.5zM219 577l-7 -38h-80l14 76q49 5 71 16.5t22 34.5q0 26 -42 26q-29 0 -60 -13l-8 60q43 18 92 18q50 0 77.5 -18t27.5 -55
q0 -83 -107 -107z" />
    <glyph glyph-name="ij" unicode="&#x133;" horiz-adv-x="504" 
d="M148.5 563q-15.5 16 -15.5 39q0 29 24 52.5t55 23.5q23 0 38.5 -15.5t15.5 -38.5q0 -29 -24.5 -53t-53.5 -24q-24 0 -39.5 16zM71.5 34.5q-16.5 24.5 -16.5 57.5q0 15 3 31l61 347h109l-60 -345q-2 -12 -2 -17q0 -15 7.5 -28t23.5 -28l-73 -64q-36 22 -52.5 46.5z
M397.5 563q-15.5 16 -15.5 39q0 29 24 52.5t54 23.5q24 0 39.5 -15.5t15.5 -38.5q0 -29 -24 -53t-55 -24q-23 0 -38.5 16zM108 -147h48q56 0 84 25t38 85l90 507h109l-90 -507q-12 -68 -38 -110t-75.5 -63.5t-130.5 -21.5h-50z" />
    <glyph glyph-name="imacron" unicode="&#x12b;" horiz-adv-x="258" 
d="M60.5 34.5q-16.5 24.5 -16.5 57.5q0 15 3 31l61 347h109l-60 -345q-2 -12 -2 -17q0 -15 7.5 -28t23.5 -28l-73 -64q-36 22 -52.5 46.5zM37 632h314l-14 -78h-314z" />
    <glyph glyph-name="iogonek" unicode="&#x12f;" horiz-adv-x="258" 
d="M238 645.5q15 -15.5 15 -37.5q0 -29 -23 -51.5t-53 -22.5q-23 0 -38 15t-15 37q0 29 23.5 52t52.5 23q23 0 38 -15.5zM157 125q-2 -12 -2 -17q0 -15 7.5 -28t23.5 -28l-63 -55q-24 -27 -40 -56.5t-16 -52.5q0 -18 12 -27t32 -9q21 0 56 14l8 -61q-42 -24 -87 -24
q-63 0 -90 25t-27 60q0 79 101 154q-28 29 -28 72q0 15 3 31l61 347h109z" />
    <glyph glyph-name="itilde" unicode="&#x129;" horiz-adv-x="258" 
d="M60.5 34.5q-16.5 24.5 -16.5 57.5q0 15 3 31l61 347h109l-60 -345q-2 -12 -2 -17q0 -15 7.5 -28t23.5 -28l-73 -64q-36 22 -52.5 46.5zM56 635q33 37 83 37q20 0 35.5 -6t35.5 -18q16 -9 25.5 -13t20.5 -4q15 0 24.5 11.5t17.5 37.5h71q-14 -54 -47 -92t-76 -38
q-20 0 -35.5 6t-35.5 18q-16 9 -25.5 13t-20.5 4q-15 0 -26 -11.5t-20 -37.5h-72q12 56 45 93z" />
    <glyph glyph-name="j" unicode="j" horiz-adv-x="264" 
d="M157.5 563q-15.5 16 -15.5 39q0 29 24 52.5t54 23.5q24 0 39.5 -15.5t15.5 -38.5q0 -29 -24 -53t-55 -24q-23 0 -38.5 16zM-132 -147h48q56 0 84 25t38 85l90 507h109l-90 -507q-12 -68 -38 -110t-75.5 -63.5t-130.5 -21.5h-50z" />
    <glyph glyph-name="uni0237" unicode="&#x237;" horiz-adv-x="255" 
d="M-132 -147h48q56 0 84 25t38 85l90 507h109l-90 -507q-12 -68 -38 -110t-75.5 -63.5t-130.5 -21.5h-50z" />
    <glyph glyph-name="jcircumflex" unicode="&#x135;" horiz-adv-x="255" 
d="M-132 -147h48q56 0 84 25t38 85l90 507h109l-90 -507q-12 -68 -38 -110t-75.5 -63.5t-130.5 -21.5h-50zM101.5 608.5q43.5 43.5 73.5 86.5h90q16 -44 44.5 -88.5t51.5 -67.5h-97q-32 33 -57 82q-32 -42 -85 -82h-98q34 26 77.5 69.5z" />
    <glyph glyph-name="k" unicode="k" horiz-adv-x="534" 
d="M423 260q20 -35 26 -99l15 -161h-111l-16 161q-3 32 -17 48t-56 21l-92 -79l-27 -151h-109l107 605q1 6 1 16q0 16 -7 29t-24 28l73 63q37 -21 53 -45t16 -57q0 -14 -3 -32l-57 -323l215 186h134l-191 -163q50 -12 70 -47z" />
    <glyph glyph-name="uni0137" unicode="&#x137;" horiz-adv-x="534" 
d="M423 260q20 -35 26 -99l15 -161h-111l-16 161q-3 32 -17 48t-56 21l-92 -79l-27 -151h-109l107 605q1 6 1 16q0 16 -7 29t-24 28l73 63q37 -21 53 -45t16 -57q0 -14 -3 -32l-57 -323l215 186h134l-191 -163q50 -12 70 -47zM272.5 -73.5q14.5 -15.5 14.5 -43.5
q0 -56 -36 -104.5t-89 -85.5l-28 32q61 41 79 87q-13 -6 -30 -6q-19 0 -29.5 11.5t-10.5 31.5q0 35 27.5 64t59.5 29q28 0 42.5 -15.5z" />
    <glyph glyph-name="kgreenlandic" unicode="&#x138;" horiz-adv-x="498" 
d="M378.5 259q21.5 -33 28.5 -98l22 -161h-112l-22 161q-3 30 -18 45.5t-58 20.5l-89 -76l-27 -151h-109l83 470h109l-33 -186l217 186h134l-197 -168q50 -10 71.5 -43z" />
    <glyph glyph-name="l" unicode="l" horiz-adv-x="263" 
d="M70.5 34.5q-16.5 24.5 -16.5 57.5q0 15 3 31l86 482q1 5 1 15q0 16 -7.5 29t-23.5 29l73 64q35 -21 51.5 -45.5t16.5 -56.5q0 -15 -3 -33l-84 -482q-1 -6 -1 -16q0 -16 7 -29t23 -28l-73 -64q-36 22 -52.5 46.5z" />
    <glyph glyph-name="lacute" unicode="&#x13a;" horiz-adv-x="263" 
d="M70.5 34.5q-16.5 24.5 -16.5 57.5q0 15 3 31l86 482q1 5 1 15q0 16 -7.5 29t-23.5 29l73 64q35 -21 51.5 -45.5t16.5 -56.5q0 -15 -3 -33l-84 -482q-1 -6 -1 -16q0 -16 7 -29t23 -28l-73 -64q-36 22 -52.5 46.5zM270 954h115l-134 -153h-88z" />
    <glyph glyph-name="lcaron" unicode="&#x13e;" horiz-adv-x="360" 
d="M70.5 34.5q-16.5 24.5 -16.5 57.5q0 15 3 31l86 482q1 5 1 15q0 16 -7.5 29t-23.5 29l73 64q35 -21 51.5 -45.5t16.5 -56.5q0 -15 -3 -33l-84 -482q-1 -6 -1 -16q0 -16 7 -29t23 -28l-73 -64q-36 22 -52.5 46.5zM424.5 715.5q14.5 -15.5 14.5 -44.5q0 -56 -36 -105.5
t-89 -86.5l-28 32q64 42 79 89q-11 -5 -29 -5q-19 0 -30 11.5t-11 31.5q0 35 27.5 64t60.5 29q27 0 41.5 -15.5z" />
    <glyph glyph-name="uni013C" unicode="&#x13c;" horiz-adv-x="263" 
d="M70.5 34.5q-16.5 24.5 -16.5 57.5q0 15 3 31l86 482q1 5 1 15q0 16 -7.5 29t-23.5 29l73 64q35 -21 51.5 -45.5t16.5 -56.5q0 -15 -3 -33l-84 -482q-1 -6 -1 -16q0 -16 7 -29t23 -28l-73 -64q-36 22 -52.5 46.5zM143.5 -73.5q14.5 -15.5 14.5 -43.5q0 -56 -36 -104.5
t-89 -85.5l-28 32q61 41 79 87q-13 -6 -30 -6q-19 0 -29.5 11.5t-10.5 31.5q0 35 27.5 64t59.5 29q28 0 42.5 -15.5z" />
    <glyph glyph-name="ldot" unicode="&#x140;" horiz-adv-x="402" 
d="M70.5 34.5q-16.5 24.5 -16.5 57.5q0 15 3 31l86 482q1 5 1 15q0 16 -7.5 29t-23.5 29l73 64q35 -21 51.5 -45.5t16.5 -56.5q0 -15 -3 -33l-84 -482q-1 -6 -1 -16q0 -16 7 -29t23 -28l-73 -64q-36 22 -52.5 46.5zM270.5 240q-18.5 18 -18.5 45q0 37 28.5 65t65.5 28
q28 0 46 -18.5t18 -46.5q0 -35 -27.5 -63t-63.5 -28q-30 0 -48.5 18z" />
    <glyph glyph-name="uni1E37" unicode="&#x1e37;" horiz-adv-x="263" 
d="M70.5 34.5q-16.5 24.5 -16.5 57.5q0 15 3 31l86 482q1 5 1 15q0 16 -7.5 29t-23.5 29l73 64q35 -21 51.5 -45.5t16.5 -56.5q0 -15 -3 -33l-84 -482q-1 -6 -1 -16q0 -16 7 -29t23 -28l-73 -64q-36 22 -52.5 46.5zM41 -168q-15 15 -15 37q0 29 23.5 52t52.5 23
q23 0 38 -15.5t15 -37.5q0 -29 -23 -51.5t-53 -22.5q-23 0 -38 15z" />
    <glyph glyph-name="uni1E39" unicode="&#x1e39;" horiz-adv-x="263" 
d="M70.5 34.5q-16.5 24.5 -16.5 57.5q0 15 3 31l86 482q1 5 1 15q0 16 -7.5 29t-23.5 29l73 64q35 -21 51.5 -45.5t16.5 -56.5q0 -15 -3 -33l-84 -482q-1 -6 -1 -16q0 -16 7 -29t23 -28l-73 -64q-36 22 -52.5 46.5zM41 -168q-15 15 -15 37q0 29 23.5 52t52.5 23
q23 0 38 -15.5t15 -37.5q0 -29 -23 -51.5t-53 -22.5q-23 0 -38 15zM72 894h314l-14 -78h-314z" />
    <glyph glyph-name="uni1E3B" unicode="&#x1e3b;" horiz-adv-x="263" 
d="M70.5 34.5q-16.5 24.5 -16.5 57.5q0 15 3 31l86 482q1 5 1 15q0 16 -7.5 29t-23.5 29l73 64q35 -21 51.5 -45.5t16.5 -56.5q0 -15 -3 -33l-84 -482q-1 -6 -1 -16q0 -16 7 -29t23 -28l-73 -64q-36 22 -52.5 46.5zM-59 -75h314l-13 -78h-315z" />
    <glyph glyph-name="lslash" unicode="&#x142;" horiz-adv-x="276" 
d="M175 125q-1 -6 -1 -16q0 -16 7 -29t23 -28l-73 -64q-36 22 -52.5 46.5t-16.5 57.5q0 15 3 31l33 184l-94 -58l17 93l93 58l37 205q1 5 1 15q0 16 -7.5 29t-23.5 29l73 64q35 -21 51.5 -45.5t16.5 -56.5q0 -15 -3 -33l-23 -132l90 56l-16 -94l-90 -55z" />
    <glyph glyph-name="m" unicode="m" horiz-adv-x="818" 
d="M738.5 450.5q33.5 -31.5 33.5 -89.5q0 -22 -4 -41l-57 -320h-109l55 309q2 18 2 24q0 31 -14.5 47.5t-40.5 16.5q-42 0 -73 -29t-51 -72l-52 -296h-109l54 309q3 14 3 26q0 29 -14.5 45.5t-41.5 16.5q-41 0 -72 -29t-51 -72l-52 -296h-109l61 345q1 6 1 16q0 16 -7 29
t-24 28l73 64q60 -34 68 -85q65 85 158 85q100 0 117 -94q61 94 163 94q59 0 92.5 -31.5z" />
    <glyph glyph-name="uni1E43" unicode="&#x1e43;" horiz-adv-x="818" 
d="M738.5 450.5q33.5 -31.5 33.5 -89.5q0 -22 -4 -41l-57 -320h-109l55 309q2 18 2 24q0 31 -14.5 47.5t-40.5 16.5q-42 0 -73 -29t-51 -72l-52 -296h-109l54 309q3 14 3 26q0 29 -14.5 45.5t-41.5 16.5q-41 0 -72 -29t-51 -72l-52 -296h-109l61 345q1 6 1 16q0 16 -7 29
t-24 28l73 64q60 -34 68 -85q65 85 158 85q100 0 117 -94q61 94 163 94q59 0 92.5 -31.5zM302 -168q-15 15 -15 37q0 29 23.5 52t52.5 23q23 0 38 -15.5t15 -37.5q0 -29 -23 -51.5t-53 -22.5q-23 0 -38 15z" />
    <glyph glyph-name="n" unicode="n" horiz-adv-x="552" 
d="M469 449.5q36 -32.5 36 -91.5q0 -18 -3 -38l-56 -320h-108l53 309q2 9 2 24q0 31 -16.5 47.5t-48.5 16.5q-81 0 -131 -102l-52 -295h-109l61 345q1 6 1 16q0 16 -7 29t-24 28l73 64q32 -18 48 -38.5t20 -46.5q61 85 162 85q63 0 99 -32.5z" />
    <glyph glyph-name="nacute" unicode="&#x144;" horiz-adv-x="552" 
d="M469 449.5q36 -32.5 36 -91.5q0 -18 -3 -38l-56 -320h-108l53 309q2 9 2 24q0 31 -16.5 47.5t-48.5 16.5q-81 0 -131 -102l-52 -295h-109l61 345q1 6 1 16q0 16 -7 29t-24 28l73 64q32 -18 48 -38.5t20 -46.5q61 85 162 85q63 0 99 -32.5zM389 692h115l-134 -153h-88z
" />
    <glyph glyph-name="napostrophe" unicode="&#x149;" horiz-adv-x="633" 
d="M225.5 698.5q14.5 -15.5 14.5 -44.5q0 -56 -36 -105.5t-89 -86.5l-28 32q64 42 79 89q-11 -5 -29 -5q-19 0 -30 11.5t-11 31.5q0 35 27.5 64t60.5 29q27 0 41.5 -15.5zM550 449.5q36 -32.5 36 -91.5q0 -18 -3 -38l-56 -320h-108l53 309q2 9 2 24q0 31 -16.5 47.5
t-48.5 16.5q-81 0 -131 -102l-52 -295h-109l61 345q1 6 1 16q0 16 -7 29t-24 28l73 64q32 -18 48 -38.5t20 -46.5q61 85 162 85q63 0 99 -32.5z" />
    <glyph glyph-name="ncaron" unicode="&#x148;" horiz-adv-x="552" 
d="M469 449.5q36 -32.5 36 -91.5q0 -18 -3 -38l-56 -320h-108l53 309q2 9 2 24q0 31 -16.5 47.5t-48.5 16.5q-81 0 -131 -102l-52 -295h-109l61 345q1 6 1 16q0 16 -7 29t-24 28l73 64q32 -18 48 -38.5t20 -46.5q61 85 162 85q63 0 99 -32.5zM241.5 628.5
q-28.5 44.5 -51.5 66.5h98q29 -29 56 -81q16 21 39.5 43t45.5 38h98q-33 -24 -77 -68t-74 -88h-90q-16 45 -44.5 89.5z" />
    <glyph glyph-name="uni0146" unicode="&#x146;" horiz-adv-x="552" 
d="M469 449.5q36 -32.5 36 -91.5q0 -18 -3 -38l-56 -320h-108l53 309q2 9 2 24q0 31 -16.5 47.5t-48.5 16.5q-81 0 -131 -102l-52 -295h-109l61 345q1 6 1 16q0 16 -7 29t-24 28l73 64q32 -18 48 -38.5t20 -46.5q61 85 162 85q63 0 99 -32.5zM273.5 -73.5
q14.5 -15.5 14.5 -43.5q0 -56 -36 -104.5t-89 -85.5l-28 32q61 41 79 87q-13 -6 -30 -6q-19 0 -29.5 11.5t-10.5 31.5q0 35 27.5 64t59.5 29q28 0 42.5 -15.5z" />
    <glyph glyph-name="uni1E45" unicode="&#x1e45;" horiz-adv-x="552" 
d="M469 449.5q36 -32.5 36 -91.5q0 -18 -3 -38l-56 -320h-108l53 309q2 9 2 24q0 31 -16.5 47.5t-48.5 16.5q-81 0 -131 -102l-52 -295h-109l61 345q1 6 1 16q0 16 -7 29t-24 28l73 64q32 -18 48 -38.5t20 -46.5q61 85 162 85q63 0 99 -32.5zM293.5 549q-15.5 15 -15.5 37
q0 29 23.5 52t52.5 23q23 0 38.5 -15.5t15.5 -37.5q0 -28 -23.5 -51t-52.5 -23q-23 0 -38.5 15z" />
    <glyph glyph-name="uni1E47" unicode="&#x1e47;" horiz-adv-x="552" 
d="M469 449.5q36 -32.5 36 -91.5q0 -18 -3 -38l-56 -320h-108l53 309q2 9 2 24q0 31 -16.5 47.5t-48.5 16.5q-81 0 -131 -102l-52 -295h-109l61 345q1 6 1 16q0 16 -7 29t-24 28l73 64q32 -18 48 -38.5t20 -46.5q61 85 162 85q63 0 99 -32.5zM171 -168q-15 15 -15 37
q0 29 23.5 52t52.5 23q23 0 38 -15.5t15 -37.5q0 -29 -23 -51.5t-53 -22.5q-23 0 -38 15z" />
    <glyph glyph-name="eng" unicode="&#x14b;" horiz-adv-x="553" 
d="M469 449.5q36 -32.5 36 -91.5q0 -18 -3 -38l-62 -357q-12 -66 -38 -108.5t-76 -64.5t-131 -22h-44l15 85h44q54 0 82.5 25.5t38.5 84.5l60 346q2 9 2 24q0 31 -16.5 47.5t-48.5 16.5q-44 0 -76.5 -29t-54.5 -73l-52 -295h-109l61 345q1 6 1 16q0 16 -7 29t-24 28l73 64
q32 -18 48 -38.5t19 -47.5q62 86 163 86q63 0 99 -32.5z" />
    <glyph glyph-name="uni1E49" unicode="&#x1e49;" horiz-adv-x="552" 
d="M469 449.5q36 -32.5 36 -91.5q0 -18 -3 -38l-56 -320h-108l53 309q2 9 2 24q0 31 -16.5 47.5t-48.5 16.5q-81 0 -131 -102l-52 -295h-109l61 345q1 6 1 16q0 16 -7 29t-24 28l73 64q32 -18 48 -38.5t20 -46.5q61 85 162 85q63 0 99 -32.5zM71 -75h314l-13 -78h-315z" />
    <glyph glyph-name="ntilde" unicode="&#xf1;" horiz-adv-x="552" 
d="M469 449.5q36 -32.5 36 -91.5q0 -18 -3 -38l-56 -320h-108l53 309q2 9 2 24q0 31 -16.5 47.5t-48.5 16.5q-81 0 -131 -102l-52 -295h-109l61 345q1 6 1 16q0 16 -7 29t-24 28l73 64q32 -18 48 -38.5t20 -46.5q61 85 162 85q63 0 99 -32.5zM210 635q33 37 83 37
q20 0 35.5 -6t35.5 -18q16 -9 25.5 -13t20.5 -4q15 0 24.5 11.5t17.5 37.5h71q-14 -54 -47 -92t-76 -38q-20 0 -35.5 6t-35.5 18q-16 9 -25.5 13t-20.5 4q-15 0 -26 -11.5t-20 -37.5h-72q12 56 45 93z" />
    <glyph glyph-name="o" unicode="o" horiz-adv-x="521" 
d="M86.5 27.5q-50.5 39.5 -50.5 109.5q0 17 3 35l22 126q16 89 75 136.5t159 47.5q92 0 141 -39t49 -108q0 -17 -3 -37l-23 -126q-15 -89 -72 -136.5t-157 -47.5q-93 0 -143.5 39.5zM312 99.5q30 26.5 38 72.5l23 126q2 16 2 23q0 36 -21.5 56t-64.5 20q-50 0 -80.5 -26.5
t-38.5 -72.5l-22 -126q-2 -9 -2 -25q0 -35 21.5 -54.5t64.5 -19.5q50 0 80 26.5z" />
    <glyph glyph-name="oacute" unicode="&#xf3;" horiz-adv-x="521" 
d="M86.5 27.5q-50.5 39.5 -50.5 109.5q0 17 3 35l22 126q16 89 75 136.5t159 47.5q92 0 141 -39t49 -108q0 -17 -3 -37l-23 -126q-15 -89 -72 -136.5t-157 -47.5q-93 0 -143.5 39.5zM312 99.5q30 26.5 38 72.5l23 126q2 16 2 23q0 36 -21.5 56t-64.5 20q-50 0 -80.5 -26.5
t-38.5 -72.5l-22 -126q-2 -9 -2 -25q0 -35 21.5 -54.5t64.5 -19.5q50 0 80 26.5zM369 692h115l-134 -153h-88z" />
    <glyph glyph-name="obreve" unicode="&#x14f;" horiz-adv-x="521" 
d="M86.5 27.5q-50.5 39.5 -50.5 109.5q0 17 3 35l22 126q16 89 75 136.5t159 47.5q92 0 141 -39t49 -108q0 -17 -3 -37l-23 -126q-15 -89 -72 -136.5t-157 -47.5q-93 0 -143.5 39.5zM312 99.5q30 26.5 38 72.5l23 126q2 16 2 23q0 36 -21.5 56t-64.5 20q-50 0 -80.5 -26.5
t-38.5 -72.5l-22 -126q-2 -9 -2 -25q0 -35 21.5 -54.5t64.5 -19.5q50 0 80 26.5zM214 565.5q-39 34.5 -39 92.5q0 16 3 32h79l-1 -13q0 -32 17.5 -50.5t50.5 -18.5q37 0 62 22t34 60h78q-13 -74 -60 -116.5t-120 -42.5q-65 0 -104 34.5z" />
    <glyph glyph-name="uni01D2" unicode="&#x1d2;" horiz-adv-x="521" 
d="M86.5 27.5q-50.5 39.5 -50.5 109.5q0 17 3 35l22 126q16 89 75 136.5t159 47.5q92 0 141 -39t49 -108q0 -17 -3 -37l-23 -126q-15 -89 -72 -136.5t-157 -47.5q-93 0 -143.5 39.5zM312 99.5q30 26.5 38 72.5l23 126q2 16 2 23q0 36 -21.5 56t-64.5 20q-50 0 -80.5 -26.5
t-38.5 -72.5l-22 -126q-2 -9 -2 -25q0 -35 21.5 -54.5t64.5 -19.5q50 0 80 26.5zM221.5 628.5q-28.5 44.5 -51.5 66.5h98q29 -29 56 -81q16 21 39.5 43t45.5 38h98q-33 -24 -77 -68t-74 -88h-90q-16 45 -44.5 89.5z" />
    <glyph glyph-name="ocircumflex" unicode="&#xf4;" horiz-adv-x="521" 
d="M86.5 27.5q-50.5 39.5 -50.5 109.5q0 17 3 35l22 126q16 89 75 136.5t159 47.5q92 0 141 -39t49 -108q0 -17 -3 -37l-23 -126q-15 -89 -72 -136.5t-157 -47.5q-93 0 -143.5 39.5zM312 99.5q30 26.5 38 72.5l23 126q2 16 2 23q0 36 -21.5 56t-64.5 20q-50 0 -80.5 -26.5
t-38.5 -72.5l-22 -126q-2 -9 -2 -25q0 -35 21.5 -54.5t64.5 -19.5q50 0 80 26.5zM219.5 608.5q43.5 43.5 73.5 86.5h90q16 -44 44.5 -88.5t51.5 -67.5h-97q-32 33 -57 82q-32 -42 -85 -82h-98q34 26 77.5 69.5z" />
    <glyph glyph-name="uni1ED1" unicode="&#x1ed1;" horiz-adv-x="521" 
d="M86.5 27.5q-50.5 39.5 -50.5 109.5q0 17 3 35l22 126q16 89 75 136.5t159 47.5q92 0 141 -39t49 -108q0 -17 -3 -37l-23 -126q-15 -89 -72 -136.5t-157 -47.5q-93 0 -143.5 39.5zM312 99.5q30 26.5 38 72.5l23 126q2 16 2 23q0 36 -21.5 56t-64.5 20q-50 0 -80.5 -26.5
t-38.5 -72.5l-22 -126q-2 -9 -2 -25q0 -35 21.5 -54.5t64.5 -19.5q50 0 80 26.5zM524 759h107l-109 -121h-82zM217.5 607q44.5 45 75.5 88h89q15 -44 44 -88.5t53 -67.5h-94q-18 17 -34 39.5t-23 42.5q-29 -40 -85 -82h-101q31 23 75.5 68z" />
    <glyph glyph-name="uni1ED9" unicode="&#x1ed9;" horiz-adv-x="521" 
d="M86.5 27.5q-50.5 39.5 -50.5 109.5q0 17 3 35l22 126q16 89 75 136.5t159 47.5q92 0 141 -39t49 -108q0 -17 -3 -37l-23 -126q-15 -89 -72 -136.5t-157 -47.5q-93 0 -143.5 39.5zM312 99.5q30 26.5 38 72.5l23 126q2 16 2 23q0 36 -21.5 56t-64.5 20q-50 0 -80.5 -26.5
t-38.5 -72.5l-22 -126q-2 -9 -2 -25q0 -35 21.5 -54.5t64.5 -19.5q50 0 80 26.5zM148 -168q-15 15 -15 37q0 29 23.5 52t52.5 23q23 0 38 -15.5t15 -37.5q0 -29 -23 -51.5t-53 -22.5q-23 0 -38 15zM219.5 608.5q43.5 43.5 73.5 86.5h90q16 -44 44.5 -88.5t51.5 -67.5h-97
q-32 33 -57 82q-32 -42 -85 -82h-98q34 26 77.5 69.5z" />
    <glyph glyph-name="uni1ED3" unicode="&#x1ed3;" horiz-adv-x="521" 
d="M86.5 27.5q-50.5 39.5 -50.5 109.5q0 17 3 35l22 126q16 89 75 136.5t159 47.5q92 0 141 -39t49 -108q0 -17 -3 -37l-23 -126q-15 -89 -72 -136.5t-157 -47.5q-93 0 -143.5 39.5zM312 99.5q30 26.5 38 72.5l23 126q2 16 2 23q0 36 -21.5 56t-64.5 20q-50 0 -80.5 -26.5
t-38.5 -72.5l-22 -126q-2 -9 -2 -25q0 -35 21.5 -54.5t64.5 -19.5q50 0 80 26.5zM419 759h107l42 -121h-82zM217.5 607q44.5 45 75.5 88h89q15 -44 44 -88.5t53 -67.5h-94q-18 17 -34 39.5t-23 42.5q-29 -40 -85 -82h-101q31 23 75.5 68z" />
    <glyph glyph-name="uni1ED5" unicode="&#x1ed5;" horiz-adv-x="521" 
d="M86.5 27.5q-50.5 39.5 -50.5 109.5q0 17 3 35l22 126q16 89 75 136.5t159 47.5q92 0 141 -39t49 -108q0 -17 -3 -37l-23 -126q-15 -89 -72 -136.5t-157 -47.5q-93 0 -143.5 39.5zM312 99.5q30 26.5 38 72.5l23 126q2 16 2 23q0 36 -21.5 56t-64.5 20q-50 0 -80.5 -26.5
t-38.5 -72.5l-22 -126q-2 -9 -2 -25q0 -35 21.5 -54.5t64.5 -19.5q50 0 80 26.5zM529 665l-5 -32h-67l11 64q44 4 61.5 14t17.5 28q0 12 -9 16.5t-28 4.5q-17 0 -51 -10l-7 50q33 15 79 15q40 0 62 -14.5t22 -44.5q0 -71 -86 -91zM426 606.5q29 -44.5 53 -67.5h-94
q-18 17 -34 39.5t-23 42.5q-29 -40 -85 -82h-101q31 23 75.5 68t75.5 88h89q15 -44 44 -88.5z" />
    <glyph glyph-name="uni1ED7" unicode="&#x1ed7;" horiz-adv-x="521" 
d="M86.5 27.5q-50.5 39.5 -50.5 109.5q0 17 3 35l22 126q16 89 75 136.5t159 47.5q92 0 141 -39t49 -108q0 -17 -3 -37l-23 -126q-15 -89 -72 -136.5t-157 -47.5q-93 0 -143.5 39.5zM312 99.5q30 26.5 38 72.5l23 126q2 16 2 23q0 36 -21.5 56t-64.5 20q-50 0 -80.5 -26.5
t-38.5 -72.5l-22 -126q-2 -9 -2 -25q0 -35 21.5 -54.5t64.5 -19.5q50 0 80 26.5zM225.5 806q32.5 32 79.5 32q18 0 32 -5t34 -15q26 -15 41 -15q26 0 39 42h65q-13 -46 -44.5 -79t-71.5 -33q-19 0 -32.5 5.5t-32.5 15.5q-26 15 -42 15q-29 0 -46 -43h-64q10 48 42.5 80z
M217.5 607q44.5 45 75.5 88h89q15 -44 44 -88.5t53 -67.5h-94q-18 17 -34 39.5t-23 42.5q-29 -40 -85 -82h-101q31 23 75.5 68z" />
    <glyph glyph-name="odieresis" unicode="&#xf6;" horiz-adv-x="521" 
d="M86.5 27.5q-50.5 39.5 -50.5 109.5q0 17 3 35l22 126q16 89 75 136.5t159 47.5q92 0 141 -39t49 -108q0 -17 -3 -37l-23 -126q-15 -89 -72 -136.5t-157 -47.5q-93 0 -143.5 39.5zM312 99.5q30 26.5 38 72.5l23 126q2 16 2 23q0 36 -21.5 56t-64.5 20q-50 0 -80.5 -26.5
t-38.5 -72.5l-22 -126q-2 -9 -2 -25q0 -35 21.5 -54.5t64.5 -19.5q50 0 80 26.5zM190.5 547.5q-13.5 13.5 -13.5 33.5q0 25 20.5 45t46.5 20q20 0 33.5 -13.5t13.5 -33.5q0 -25 -20.5 -45t-45.5 -20q-21 0 -34.5 13.5zM364 547q-13 13 -13 33q0 26 20.5 46t46.5 20
q20 0 34 -13.5t14 -33.5q0 -25 -21 -45t-47 -20q-21 0 -34 13z" />
    <glyph glyph-name="uni1ECD" unicode="&#x1ecd;" horiz-adv-x="521" 
d="M86.5 27.5q-50.5 39.5 -50.5 109.5q0 17 3 35l22 126q16 89 75 136.5t159 47.5q92 0 141 -39t49 -108q0 -17 -3 -37l-23 -126q-15 -89 -72 -136.5t-157 -47.5q-93 0 -143.5 39.5zM312 99.5q30 26.5 38 72.5l23 126q2 16 2 23q0 36 -21.5 56t-64.5 20q-50 0 -80.5 -26.5
t-38.5 -72.5l-22 -126q-2 -9 -2 -25q0 -35 21.5 -54.5t64.5 -19.5q50 0 80 26.5zM148 -168q-15 15 -15 37q0 29 23.5 52t52.5 23q23 0 38 -15.5t15 -37.5q0 -29 -23 -51.5t-53 -22.5q-23 0 -38 15z" />
    <glyph glyph-name="ograve" unicode="&#xf2;" horiz-adv-x="521" 
d="M86.5 27.5q-50.5 39.5 -50.5 109.5q0 17 3 35l22 126q16 89 75 136.5t159 47.5q92 0 141 -39t49 -108q0 -17 -3 -37l-23 -126q-15 -89 -72 -136.5t-157 -47.5q-93 0 -143.5 39.5zM312 99.5q30 26.5 38 72.5l23 126q2 16 2 23q0 36 -21.5 56t-64.5 20q-50 0 -80.5 -26.5
t-38.5 -72.5l-22 -126q-2 -9 -2 -25q0 -35 21.5 -54.5t64.5 -19.5q50 0 80 26.5zM189 692h115l53 -153h-89z" />
    <glyph glyph-name="uni1ECF" unicode="&#x1ecf;" horiz-adv-x="521" 
d="M86.5 27.5q-50.5 39.5 -50.5 109.5q0 17 3 35l22 126q16 89 75 136.5t159 47.5q92 0 141 -39t49 -108q0 -17 -3 -37l-23 -126q-15 -89 -72 -136.5t-157 -47.5q-93 0 -143.5 39.5zM312 99.5q30 26.5 38 72.5l23 126q2 16 2 23q0 36 -21.5 56t-64.5 20q-50 0 -80.5 -26.5
t-38.5 -72.5l-22 -126q-2 -9 -2 -25q0 -35 21.5 -54.5t64.5 -19.5q50 0 80 26.5zM353 577l-7 -38h-80l14 76q49 5 71 16.5t22 34.5q0 26 -42 26q-29 0 -60 -13l-8 60q43 18 92 18q50 0 77.5 -18t27.5 -55q0 -83 -107 -107z" />
    <glyph glyph-name="ohorn" unicode="&#x1a1;" horiz-adv-x="555" 
d="M598.5 389q-40.5 -47 -113.5 -57q0 -16 -3 -34l-23 -126q-15 -89 -72 -136.5t-157 -47.5q-93 0 -143.5 39.5t-50.5 109.5q0 17 3 35l22 126q16 89 75 136.5t159 47.5q73 0 119 -24.5t63 -70.5q36 11 54.5 44.5t29.5 96.5h98q-20 -92 -60.5 -139zM375 321q0 36 -21.5 56
t-64.5 20q-50 0 -80.5 -26.5t-38.5 -72.5l-22 -126q-2 -9 -2 -25q0 -35 21.5 -54.5t64.5 -19.5q50 0 80 26.5t38 72.5l23 126q2 16 2 23z" />
    <glyph glyph-name="uni1EDB" unicode="&#x1edb;" horiz-adv-x="555" 
d="M598.5 389q-40.5 -47 -113.5 -57q0 -16 -3 -34l-23 -126q-15 -89 -72 -136.5t-157 -47.5q-93 0 -143.5 39.5t-50.5 109.5q0 17 3 35l22 126q16 89 75 136.5t159 47.5q73 0 119 -24.5t63 -70.5q36 11 54.5 44.5t29.5 96.5h98q-20 -92 -60.5 -139zM375 321q0 36 -21.5 56
t-64.5 20q-50 0 -80.5 -26.5t-38.5 -72.5l-22 -126q-2 -9 -2 -25q0 -35 21.5 -54.5t64.5 -19.5q50 0 80 26.5t38 72.5l23 126q2 16 2 23zM369 692h115l-134 -153h-88z" />
    <glyph glyph-name="uni1EE3" unicode="&#x1ee3;" horiz-adv-x="555" 
d="M598.5 389q-40.5 -47 -113.5 -57q0 -16 -3 -34l-23 -126q-15 -89 -72 -136.5t-157 -47.5q-93 0 -143.5 39.5t-50.5 109.5q0 17 3 35l22 126q16 89 75 136.5t159 47.5q73 0 119 -24.5t63 -70.5q36 11 54.5 44.5t29.5 96.5h98q-20 -92 -60.5 -139zM375 321q0 36 -21.5 56
t-64.5 20q-50 0 -80.5 -26.5t-38.5 -72.5l-22 -126q-2 -9 -2 -25q0 -35 21.5 -54.5t64.5 -19.5q50 0 80 26.5t38 72.5l23 126q2 16 2 23zM148 -168q-15 15 -15 37q0 29 23.5 52t52.5 23q23 0 38 -15.5t15 -37.5q0 -29 -23 -51.5t-53 -22.5q-23 0 -38 15z" />
    <glyph glyph-name="uni1EDD" unicode="&#x1edd;" horiz-adv-x="555" 
d="M598.5 389q-40.5 -47 -113.5 -57q0 -16 -3 -34l-23 -126q-15 -89 -72 -136.5t-157 -47.5q-93 0 -143.5 39.5t-50.5 109.5q0 17 3 35l22 126q16 89 75 136.5t159 47.5q73 0 119 -24.5t63 -70.5q36 11 54.5 44.5t29.5 96.5h98q-20 -92 -60.5 -139zM375 321q0 36 -21.5 56
t-64.5 20q-50 0 -80.5 -26.5t-38.5 -72.5l-22 -126q-2 -9 -2 -25q0 -35 21.5 -54.5t64.5 -19.5q50 0 80 26.5t38 72.5l23 126q2 16 2 23zM189 692h115l53 -153h-89z" />
    <glyph glyph-name="uni1EDF" unicode="&#x1edf;" horiz-adv-x="555" 
d="M598.5 389q-40.5 -47 -113.5 -57q0 -16 -3 -34l-23 -126q-15 -89 -72 -136.5t-157 -47.5q-93 0 -143.5 39.5t-50.5 109.5q0 17 3 35l22 126q16 89 75 136.5t159 47.5q73 0 119 -24.5t63 -70.5q36 11 54.5 44.5t29.5 96.5h98q-20 -92 -60.5 -139zM375 321q0 36 -21.5 56
t-64.5 20q-50 0 -80.5 -26.5t-38.5 -72.5l-22 -126q-2 -9 -2 -25q0 -35 21.5 -54.5t64.5 -19.5q50 0 80 26.5t38 72.5l23 126q2 16 2 23zM353 577l-7 -38h-80l14 76q49 5 71 16.5t22 34.5q0 26 -42 26q-29 0 -60 -13l-8 60q43 18 92 18q50 0 77.5 -18t27.5 -55
q0 -83 -107 -107z" />
    <glyph glyph-name="uni1EE1" unicode="&#x1ee1;" horiz-adv-x="555" 
d="M598.5 389q-40.5 -47 -113.5 -57q0 -16 -3 -34l-23 -126q-15 -89 -72 -136.5t-157 -47.5q-93 0 -143.5 39.5t-50.5 109.5q0 17 3 35l22 126q16 89 75 136.5t159 47.5q73 0 119 -24.5t63 -70.5q36 11 54.5 44.5t29.5 96.5h98q-20 -92 -60.5 -139zM375 321q0 36 -21.5 56
t-64.5 20q-50 0 -80.5 -26.5t-38.5 -72.5l-22 -126q-2 -9 -2 -25q0 -35 21.5 -54.5t64.5 -19.5q50 0 80 26.5t38 72.5l23 126q2 16 2 23zM190 635q33 37 83 37q20 0 35.5 -6t35.5 -18q16 -9 25.5 -13t20.5 -4q15 0 24.5 11.5t17.5 37.5h71q-14 -54 -47 -92t-76 -38
q-20 0 -35.5 6t-35.5 18q-16 9 -25.5 13t-20.5 4q-15 0 -26 -11.5t-20 -37.5h-72q12 56 45 93z" />
    <glyph glyph-name="ohungarumlaut" unicode="&#x151;" horiz-adv-x="521" 
d="M86.5 27.5q-50.5 39.5 -50.5 109.5q0 17 3 35l22 126q16 89 75 136.5t159 47.5q92 0 141 -39t49 -108q0 -17 -3 -37l-23 -126q-15 -89 -72 -136.5t-157 -47.5q-93 0 -143.5 39.5zM312 99.5q30 26.5 38 72.5l23 126q2 16 2 23q0 36 -21.5 56t-64.5 20q-50 0 -80.5 -26.5
t-38.5 -72.5l-22 -126q-2 -9 -2 -25q0 -35 21.5 -54.5t64.5 -19.5q50 0 80 26.5zM275 692h100l-108 -153h-81zM443 692h100l-109 -153h-81z" />
    <glyph glyph-name="omacron" unicode="&#x14d;" horiz-adv-x="521" 
d="M86.5 27.5q-50.5 39.5 -50.5 109.5q0 17 3 35l22 126q16 89 75 136.5t159 47.5q92 0 141 -39t49 -108q0 -17 -3 -37l-23 -126q-15 -89 -72 -136.5t-157 -47.5q-93 0 -143.5 39.5zM312 99.5q30 26.5 38 72.5l23 126q2 16 2 23q0 36 -21.5 56t-64.5 20q-50 0 -80.5 -26.5
t-38.5 -72.5l-22 -126q-2 -9 -2 -25q0 -35 21.5 -54.5t64.5 -19.5q50 0 80 26.5zM171 632h314l-14 -78h-314z" />
    <glyph glyph-name="oslash" unicode="&#xf8;" horiz-adv-x="521" 
d="M486 335q0 -11 -4 -37l-23 -126q-15 -89 -72 -136.5t-157 -47.5q-61 0 -104 17l-45 -65h-57l61 89q-49 40 -49 108q0 17 3 35l22 126q16 89 75 136.5t159 47.5q53 0 93 -14l42 62h57l-57 -83q56 -40 56 -112zM145 148q0 -10 4 -26l184 267q-19 8 -44 8q-50 0 -80.5 -26.5
t-38.5 -72.5l-22 -126q-3 -12 -3 -24zM375 321q0 21 -7 36l-188 -273q20 -11 52 -11q50 0 80 26.5t38 72.5l23 126q2 16 2 23z" />
    <glyph glyph-name="oslashacute" unicode="&#x1ff;" horiz-adv-x="521" 
d="M486 335q0 -11 -4 -37l-23 -126q-15 -89 -72 -136.5t-157 -47.5q-61 0 -104 17l-45 -65h-57l61 89q-49 40 -49 108q0 17 3 35l22 126q16 89 75 136.5t159 47.5q53 0 93 -14l42 62h57l-57 -83q56 -40 56 -112zM145 148q0 -10 4 -26l184 267q-19 8 -44 8q-50 0 -80.5 -26.5
t-38.5 -72.5l-22 -126q-3 -12 -3 -24zM375 321q0 21 -7 36l-188 -273q20 -11 52 -11q50 0 80 26.5t38 72.5l23 126q2 16 2 23zM369 692h115l-134 -153h-88z" />
    <glyph glyph-name="otilde" unicode="&#xf5;" horiz-adv-x="521" 
d="M86.5 27.5q-50.5 39.5 -50.5 109.5q0 17 3 35l22 126q16 89 75 136.5t159 47.5q92 0 141 -39t49 -108q0 -17 -3 -37l-23 -126q-15 -89 -72 -136.5t-157 -47.5q-93 0 -143.5 39.5zM312 99.5q30 26.5 38 72.5l23 126q2 16 2 23q0 36 -21.5 56t-64.5 20q-50 0 -80.5 -26.5
t-38.5 -72.5l-22 -126q-2 -9 -2 -25q0 -35 21.5 -54.5t64.5 -19.5q50 0 80 26.5zM190 635q33 37 83 37q20 0 35.5 -6t35.5 -18q16 -9 25.5 -13t20.5 -4q15 0 24.5 11.5t17.5 37.5h71q-14 -54 -47 -92t-76 -38q-20 0 -35.5 6t-35.5 18q-16 9 -25.5 13t-20.5 4
q-15 0 -26 -11.5t-20 -37.5h-72q12 56 45 93z" />
    <glyph glyph-name="oe" unicode="&#x153;" horiz-adv-x="806" 
d="M82.5 26q-47.5 38 -47.5 107q0 11 4 39l22 126q15 87 77 135.5t164 48.5q52 0 89 -16.5t58 -46.5q25 29 63.5 45.5t84.5 16.5q86 0 136 -40t50 -111q0 -75 -29.5 -108t-95.5 -33h-196l-3 -20q-2 -16 -2 -24q0 -36 20.5 -54t67.5 -18q40 0 68 10.5t60 36.5l56 -61
q-73 -71 -196 -71q-115 0 -153 60q-30 -28 -71 -44t-89 -16q-90 0 -137.5 38zM615 264q31 0 45 13.5t14 50.5q0 34 -21.5 52t-61.5 18q-43 0 -72 -25.5t-36 -66.5l-7 -42h139zM312 99.5q30 26.5 38 72.5l23 126q2 16 2 23q0 36 -21.5 56t-64.5 20q-50 0 -80.5 -26.5
t-38.5 -72.5l-22 -126q-2 -9 -2 -25q0 -35 22 -54.5t64 -19.5q50 0 80 26.5z" />
    <glyph glyph-name="p" unicode="p" horiz-adv-x="585" 
d="M501.5 431.5q44.5 -50.5 44.5 -131.5q0 -26 -4 -49l-5 -32q-15 -99 -76 -165t-159 -66q-52 0 -90 18t-58 49l-48 -274h-109l100 564q1 6 1 16q0 17 -7 29t-24 28l73 64q29 -17 46 -36.5t22 -44.5q65 81 166 81q83 0 127.5 -50.5zM436 285q0 50 -25.5 81t-76.5 31
q-93 0 -136 -91l-25 -142q6 -46 36.5 -68.5t75.5 -22.5q59 0 96 41t47 105l5 32q3 18 3 34z" />
    <glyph glyph-name="thorn" unicode="&#xfe;" horiz-adv-x="585" 
d="M142 605q2 12 2 18q0 15 -7 27.5t-24 27.5l73 64q36 -22 52 -46.5t16 -56.5q0 -15 -3 -32l-35 -196q27 33 67.5 52t89.5 19q83 0 128 -50.5t45 -131.5q0 -26 -4 -49l-5 -32q-15 -99 -76 -165t-160 -66q-51 0 -89 18t-59 49l-48 -274h-109zM381 114q37 41 47 105l5 32
q3 18 3 34q0 50 -25.5 81t-76.5 31q-93 0 -136 -91l-25 -142q6 -46 36.5 -68.5t75.5 -22.5q59 0 96 41z" />
    <glyph glyph-name="q" unicode="q" horiz-adv-x="565" 
d="M367 55q-27 -31 -66 -49t-87 -18q-81 0 -128 49.5t-47 132.5q0 26 4 49l5 32q10 65 43 117.5t85.5 83t119.5 30.5q95 0 135 -64l10 53h109l-122 -690h-109zM387 162l26 146q-6 46 -34 67.5t-70 21.5q-59 0 -100.5 -42t-51.5 -104l-5 -32q-3 -18 -3 -34q0 -51 26 -81.5
t77 -30.5q92 0 135 89z" />
    <glyph glyph-name="r" unicode="r" horiz-adv-x="408" 
d="M405.5 475.5q22.5 -6.5 36.5 -18.5l-44 -92q-16 11 -33.5 17t-41.5 6q-42 0 -74.5 -32.5t-55.5 -81.5l-49 -274h-109l61 345q2 12 2 17q0 16 -7 28.5t-24 27.5l73 64q34 -20 50 -42.5t18 -51.5q59 94 151 94q24 0 46.5 -6.5z" />
    <glyph glyph-name="racute" unicode="&#x155;" horiz-adv-x="408" 
d="M405.5 475.5q22.5 -6.5 36.5 -18.5l-44 -92q-16 11 -33.5 17t-41.5 6q-42 0 -74.5 -32.5t-55.5 -81.5l-49 -274h-109l61 345q2 12 2 17q0 16 -7 28.5t-24 27.5l73 64q34 -20 50 -42.5t18 -51.5q59 94 151 94q24 0 46.5 -6.5zM315 692h115l-134 -153h-88z" />
    <glyph glyph-name="rcaron" unicode="&#x159;" horiz-adv-x="408" 
d="M405.5 475.5q22.5 -6.5 36.5 -18.5l-44 -92q-16 11 -33.5 17t-41.5 6q-42 0 -74.5 -32.5t-55.5 -81.5l-49 -274h-109l61 345q2 12 2 17q0 16 -7 28.5t-24 27.5l73 64q34 -20 50 -42.5t18 -51.5q59 94 151 94q24 0 46.5 -6.5zM167.5 628.5q-28.5 44.5 -51.5 66.5h98
q29 -29 56 -81q16 21 39.5 43t45.5 38h98q-33 -24 -77 -68t-74 -88h-90q-16 45 -44.5 89.5z" />
    <glyph glyph-name="uni0157" unicode="&#x157;" horiz-adv-x="408" 
d="M405.5 475.5q22.5 -6.5 36.5 -18.5l-44 -92q-16 11 -33.5 17t-41.5 6q-42 0 -74.5 -32.5t-55.5 -81.5l-49 -274h-109l61 345q2 12 2 17q0 16 -7 28.5t-24 27.5l73 64q34 -20 50 -42.5t18 -51.5q59 94 151 94q24 0 46.5 -6.5zM121.5 -73.5q14.5 -15.5 14.5 -43.5
q0 -56 -36 -104.5t-89 -85.5l-28 32q61 41 79 87q-13 -6 -30 -6q-19 0 -29.5 11.5t-10.5 31.5q0 35 27.5 64t59.5 29q28 0 42.5 -15.5z" />
    <glyph glyph-name="uni1E5B" unicode="&#x1e5b;" horiz-adv-x="408" 
d="M405.5 475.5q22.5 -6.5 36.5 -18.5l-44 -92q-16 11 -33.5 17t-41.5 6q-42 0 -74.5 -32.5t-55.5 -81.5l-49 -274h-109l61 345q2 12 2 17q0 16 -7 28.5t-24 27.5l73 64q34 -20 50 -42.5t18 -51.5q59 94 151 94q24 0 46.5 -6.5zM19 -168q-15 15 -15 37q0 29 23.5 52t52.5 23
q23 0 38 -15.5t15 -37.5q0 -29 -23 -51.5t-53 -22.5q-23 0 -38 15z" />
    <glyph glyph-name="uni1E5D" unicode="&#x1e5d;" horiz-adv-x="408" 
d="M405.5 475.5q22.5 -6.5 36.5 -18.5l-44 -92q-16 11 -33.5 17t-41.5 6q-42 0 -74.5 -32.5t-55.5 -81.5l-49 -274h-109l61 345q2 12 2 17q0 16 -7 28.5t-24 27.5l73 64q34 -20 50 -42.5t18 -51.5q59 94 151 94q24 0 46.5 -6.5zM19 -168q-15 15 -15 37q0 29 23.5 52t52.5 23
q23 0 38 -15.5t15 -37.5q0 -29 -23 -51.5t-53 -22.5q-23 0 -38 15zM117 632h314l-14 -78h-314z" />
    <glyph glyph-name="uni1E5F" unicode="&#x1e5f;" horiz-adv-x="408" 
d="M405.5 475.5q22.5 -6.5 36.5 -18.5l-44 -92q-16 11 -33.5 17t-41.5 6q-42 0 -74.5 -32.5t-55.5 -81.5l-49 -274h-109l61 345q2 12 2 17q0 16 -7 28.5t-24 27.5l73 64q34 -20 50 -42.5t18 -51.5q59 94 151 94q24 0 46.5 -6.5zM-81 -75h314l-13 -78h-315z" />
    <glyph glyph-name="s" unicode="s" horiz-adv-x="455" 
d="M70.5 9.5q-41.5 21.5 -65.5 64.5l78 58q21 -33 44.5 -46t62.5 -13q52 0 79 18t27 48q0 24 -25.5 35t-89.5 24t-91 42.5t-27 76.5q0 73 53.5 119t146.5 46q66 0 108.5 -21t60.5 -58l-78 -57q-19 26 -43 38.5t-56 12.5q-40 0 -63.5 -18.5t-23.5 -46.5q0 -23 21 -34t54 -17
q57 -12 89.5 -25.5t50 -37.5t17.5 -65q0 -78 -53.5 -121.5t-161.5 -43.5q-73 0 -114.5 21.5z" />
    <glyph glyph-name="sacute" unicode="&#x15b;" horiz-adv-x="455" 
d="M70.5 9.5q-41.5 21.5 -65.5 64.5l78 58q21 -33 44.5 -46t62.5 -13q52 0 79 18t27 48q0 24 -25.5 35t-89.5 24t-91 42.5t-27 76.5q0 73 53.5 119t146.5 46q66 0 108.5 -21t60.5 -58l-78 -57q-19 26 -43 38.5t-56 12.5q-40 0 -63.5 -18.5t-23.5 -46.5q0 -23 21 -34t54 -17
q57 -12 89.5 -25.5t50 -37.5t17.5 -65q0 -78 -53.5 -121.5t-161.5 -43.5q-73 0 -114.5 21.5zM336 692h115l-134 -153h-88z" />
    <glyph glyph-name="scaron" unicode="&#x161;" horiz-adv-x="455" 
d="M70.5 9.5q-41.5 21.5 -65.5 64.5l78 58q21 -33 44.5 -46t62.5 -13q52 0 79 18t27 48q0 24 -25.5 35t-89.5 24t-91 42.5t-27 76.5q0 73 53.5 119t146.5 46q66 0 108.5 -21t60.5 -58l-78 -57q-19 26 -43 38.5t-56 12.5q-40 0 -63.5 -18.5t-23.5 -46.5q0 -23 21 -34t54 -17
q57 -12 89.5 -25.5t50 -37.5t17.5 -65q0 -78 -53.5 -121.5t-161.5 -43.5q-73 0 -114.5 21.5zM188.5 628.5q-28.5 44.5 -51.5 66.5h98q29 -29 56 -81q16 21 39.5 43t45.5 38h98q-33 -24 -77 -68t-74 -88h-90q-16 45 -44.5 89.5z" />
    <glyph glyph-name="scedilla" unicode="&#x15f;" horiz-adv-x="455" 
d="M332.5 255.5q32.5 -13.5 50 -37.5t17.5 -65q0 -70 -43.5 -112.5t-131.5 -50.5l-14 -30q72 -8 72 -71q0 -53 -38 -82t-108 -29q-59 0 -100 23l29 61q14 -8 32.5 -13t34.5 -5q33 0 48.5 8.5t15.5 27.5q0 27 -54 27q-8 0 -32 -2l36 85q-55 5 -88.5 25.5t-53.5 58.5l78 58
q21 -33 44.5 -46t62.5 -13q52 0 79 18t27 48q0 24 -25.5 35t-89.5 24t-91 42.5t-27 76.5q0 73 53.5 119t146.5 46q66 0 108.5 -21t60.5 -58l-78 -57q-19 26 -43 38.5t-56 12.5q-40 0 -63.5 -18.5t-23.5 -46.5q0 -23 21 -34t54 -17q57 -12 89.5 -25.5z" />
    <glyph glyph-name="scircumflex" unicode="&#x15d;" horiz-adv-x="455" 
d="M70.5 9.5q-41.5 21.5 -65.5 64.5l78 58q21 -33 44.5 -46t62.5 -13q52 0 79 18t27 48q0 24 -25.5 35t-89.5 24t-91 42.5t-27 76.5q0 73 53.5 119t146.5 46q66 0 108.5 -21t60.5 -58l-78 -57q-19 26 -43 38.5t-56 12.5q-40 0 -63.5 -18.5t-23.5 -46.5q0 -23 21 -34t54 -17
q57 -12 89.5 -25.5t50 -37.5t17.5 -65q0 -78 -53.5 -121.5t-161.5 -43.5q-73 0 -114.5 21.5zM186.5 608.5q43.5 43.5 73.5 86.5h90q16 -44 44.5 -88.5t51.5 -67.5h-97q-32 33 -57 82q-32 -42 -85 -82h-98q34 26 77.5 69.5z" />
    <glyph glyph-name="uni0219" unicode="&#x219;" horiz-adv-x="455" 
d="M70.5 9.5q-41.5 21.5 -65.5 64.5l78 58q21 -33 44.5 -46t62.5 -13q52 0 79 18t27 48q0 24 -25.5 35t-89.5 24t-91 42.5t-27 76.5q0 73 53.5 119t146.5 46q66 0 108.5 -21t60.5 -58l-78 -57q-19 26 -43 38.5t-56 12.5q-40 0 -63.5 -18.5t-23.5 -46.5q0 -23 21 -34t54 -17
q57 -12 89.5 -25.5t50 -37.5t17.5 -65q0 -78 -53.5 -121.5t-161.5 -43.5q-73 0 -114.5 21.5zM219.5 -73.5q14.5 -15.5 14.5 -43.5q0 -56 -36 -104.5t-89 -85.5l-28 32q61 41 79 87q-13 -6 -30 -6q-19 0 -29.5 11.5t-10.5 31.5q0 35 27.5 64t59.5 29q28 0 42.5 -15.5z" />
    <glyph glyph-name="uni1E61" unicode="&#x1e61;" horiz-adv-x="455" 
d="M70.5 9.5q-41.5 21.5 -65.5 64.5l78 58q21 -33 44.5 -46t62.5 -13q52 0 79 18t27 48q0 24 -25.5 35t-89.5 24t-91 42.5t-27 76.5q0 73 53.5 119t146.5 46q66 0 108.5 -21t60.5 -58l-78 -57q-19 26 -43 38.5t-56 12.5q-40 0 -63.5 -18.5t-23.5 -46.5q0 -23 21 -34t54 -17
q57 -12 89.5 -25.5t50 -37.5t17.5 -65q0 -78 -53.5 -121.5t-161.5 -43.5q-73 0 -114.5 21.5zM240.5 549q-15.5 15 -15.5 37q0 29 23.5 52t52.5 23q23 0 38.5 -15.5t15.5 -37.5q0 -28 -23.5 -51t-52.5 -23q-23 0 -38.5 15z" />
    <glyph glyph-name="uni1E63" unicode="&#x1e63;" horiz-adv-x="455" 
d="M70.5 9.5q-41.5 21.5 -65.5 64.5l78 58q21 -33 44.5 -46t62.5 -13q52 0 79 18t27 48q0 24 -25.5 35t-89.5 24t-91 42.5t-27 76.5q0 73 53.5 119t146.5 46q66 0 108.5 -21t60.5 -58l-78 -57q-19 26 -43 38.5t-56 12.5q-40 0 -63.5 -18.5t-23.5 -46.5q0 -23 21 -34t54 -17
q57 -12 89.5 -25.5t50 -37.5t17.5 -65q0 -78 -53.5 -121.5t-161.5 -43.5q-73 0 -114.5 21.5zM117 -168q-15 15 -15 37q0 29 23.5 52t52.5 23q23 0 38 -15.5t15 -37.5q0 -29 -23 -51.5t-53 -22.5q-23 0 -38 15z" />
    <glyph glyph-name="germandbls" unicode="&#xdf;" horiz-adv-x="634" 
d="M590 276q0 -17 -2 -26l-16 -94q-15 -85 -72 -126.5t-158 -41.5q-63 0 -110 21l16 91q40 -22 94 -22q53 0 83.5 22t38.5 64l15 86q2 12 2 17q0 35 -26.5 53t-75.5 18h-68l15 85h66q57 0 92.5 31.5t35.5 83.5q0 42 -30.5 64.5t-85.5 22.5q-70 0 -111 -39.5t-55 -121.5
l-82 -464h-109l82 464q21 125 89 185t193 60q103 0 161 -41.5t58 -115.5q0 -61 -31 -104t-88 -65q79 -31 79 -107z" />
    <glyph glyph-name="t" unicode="t" horiz-adv-x="350" 
d="M169 163q-3 -16 -3 -30q0 -27 13 -39t40 -12h71l-15 -84h-71q-75 0 -112 25.5t-37 88.5q0 19 5 51l69 392q1 6 1 16q0 16 -7 29.5t-23 27.5l74 64q36 -20 52 -44t16 -57q0 -10 -4 -34l-15 -87h135l-15 -85h-135z" />
    <glyph glyph-name="tbar" unicode="&#x167;" horiz-adv-x="372" 
d="M229 385l-15 -89h95l-11 -58h-95l-13 -75q-3 -16 -3 -30q0 -27 13 -39t40 -12h71l-15 -84h-71q-75 0 -112 26t-37 89q0 18 5 50l13 75h-71l10 58h72l46 259q1 5 1 14q0 17 -7 31t-24 28l74 64q36 -21 52 -44.5t16 -57.5q0 -15 -3 -33l-15 -87h134l-15 -85h-135z" />
    <glyph glyph-name="tcaron" unicode="&#x165;" horiz-adv-x="388" 
d="M169 163q-3 -16 -3 -30q0 -27 13 -39t40 -12h71l-15 -84h-71q-75 0 -112 25.5t-37 88.5q0 19 5 51l69 392q1 6 1 16q0 16 -7 29.5t-23 27.5l74 64q36 -20 52 -44t16 -57q0 -10 -4 -34l-15 -87h135l-15 -85h-135zM431.5 770.5q14.5 -15.5 14.5 -44.5q0 -56 -36 -105.5
t-89 -86.5l-28 32q64 42 79 89q-11 -5 -29 -5q-19 0 -30 11.5t-11 31.5q0 35 27.5 64t60.5 29q27 0 41.5 -15.5z" />
    <glyph glyph-name="uni0163" unicode="&#x163;" horiz-adv-x="350" 
d="M169 163q-3 -16 -3 -30q0 -27 13 -39t40 -12h71l-15 -84h-61l-18 -38q72 -8 72 -71q0 -53 -38 -82t-108 -29q-59 0 -100 23l29 61q14 -8 32.5 -13t34.5 -5q33 0 48.5 8.5t15.5 27.5q0 27 -54 27q-8 0 -32 -2l42 99q-41 9 -62 35t-21 72q0 28 5 52l69 392q1 6 1 16
q0 16 -7 29.5t-23 27.5l74 64q36 -20 52 -44t16 -57q0 -10 -4 -34l-15 -87h135l-15 -85h-135z" />
    <glyph glyph-name="uni021B" unicode="&#x21b;" horiz-adv-x="350" 
d="M169 163q-3 -16 -3 -30q0 -27 13 -39t40 -12h71l-15 -84h-71q-75 0 -112 25.5t-37 88.5q0 19 5 51l69 392q1 6 1 16q0 16 -7 29.5t-23 27.5l74 64q36 -20 52 -44t16 -57q0 -10 -4 -34l-15 -87h135l-15 -85h-135zM204.5 -73.5q14.5 -15.5 14.5 -43.5q0 -56 -36 -104.5
t-89 -85.5l-28 32q61 41 79 87q-13 -6 -30 -6q-19 0 -29.5 11.5t-10.5 31.5q0 35 27.5 64t59.5 29q28 0 42.5 -15.5z" />
    <glyph glyph-name="uni1E97" unicode="&#x1e97;" horiz-adv-x="350" 
d="M169 163q-3 -16 -3 -30q0 -27 13 -39t40 -12h71l-15 -84h-71q-75 0 -112 25.5t-37 88.5q0 19 5 51l69 392q1 6 1 16q0 16 -7 29.5t-23 27.5l74 64q36 -20 52 -44t16 -57q0 -10 -4 -34l-15 -87h135l-15 -85h-135zM88.5 760.5q-13.5 13.5 -13.5 33.5q0 25 20.5 45t46.5 20
q20 0 33.5 -13.5t13.5 -33.5q0 -25 -20.5 -45t-45.5 -20q-21 0 -34.5 13.5zM262 760q-13 13 -13 33q0 26 20.5 46t46.5 20q20 0 34 -13.5t14 -33.5q0 -25 -21 -45t-47 -20q-21 0 -34 13z" />
    <glyph glyph-name="uni1E6D" unicode="&#x1e6d;" horiz-adv-x="350" 
d="M169 163q-3 -16 -3 -30q0 -27 13 -39t40 -12h71l-15 -84h-71q-75 0 -112 25.5t-37 88.5q0 19 5 51l69 392q1 6 1 16q0 16 -7 29.5t-23 27.5l74 64q36 -20 52 -44t16 -57q0 -10 -4 -34l-15 -87h135l-15 -85h-135zM102 -168q-15 15 -15 37q0 29 23.5 52t52.5 23
q23 0 38 -15.5t15 -37.5q0 -29 -23 -51.5t-53 -22.5q-23 0 -38 15z" />
    <glyph glyph-name="uni1E6F" unicode="&#x1e6f;" horiz-adv-x="350" 
d="M169 163q-3 -16 -3 -30q0 -27 13 -39t40 -12h71l-15 -84h-71q-75 0 -112 25.5t-37 88.5q0 19 5 51l69 392q1 6 1 16q0 16 -7 29.5t-23 27.5l74 64q36 -20 52 -44t16 -57q0 -10 -4 -34l-15 -87h135l-15 -85h-135zM2 -75h314l-13 -78h-315z" />
    <glyph glyph-name="u" unicode="u" horiz-adv-x="558" 
d="M459 108q0 -15 7 -27t25 -27l-82 -64q-30 18 -44 38.5t-16 46.5q-28 -39 -68.5 -63t-91.5 -24q-64 0 -103 34t-39 96q0 16 3 34l56 318h109l-54 -309q-2 -16 -2 -22q0 -31 18.5 -48.5t51.5 -17.5q45 0 78 31t55 79l50 287h109l-60 -344q-2 -14 -2 -18z" />
    <glyph glyph-name="uacute" unicode="&#xfa;" horiz-adv-x="558" 
d="M459 108q0 -15 7 -27t25 -27l-82 -64q-30 18 -44 38.5t-16 46.5q-28 -39 -68.5 -63t-91.5 -24q-64 0 -103 34t-39 96q0 16 3 34l56 318h109l-54 -309q-2 -16 -2 -22q0 -31 18.5 -48.5t51.5 -17.5q45 0 78 31t55 79l50 287h109l-60 -344q-2 -14 -2 -18zM383 692h115
l-134 -153h-88z" />
    <glyph glyph-name="ubreve" unicode="&#x16d;" horiz-adv-x="558" 
d="M459 108q0 -15 7 -27t25 -27l-82 -64q-30 18 -44 38.5t-16 46.5q-28 -39 -68.5 -63t-91.5 -24q-64 0 -103 34t-39 96q0 16 3 34l56 318h109l-54 -309q-2 -16 -2 -22q0 -31 18.5 -48.5t51.5 -17.5q45 0 78 31t55 79l50 287h109l-60 -344q-2 -14 -2 -18zM228 565.5
q-39 34.5 -39 92.5q0 16 3 32h79l-1 -13q0 -32 17.5 -50.5t50.5 -18.5q37 0 62 22t34 60h78q-13 -74 -60 -116.5t-120 -42.5q-65 0 -104 34.5z" />
    <glyph glyph-name="uni01D4" unicode="&#x1d4;" horiz-adv-x="558" 
d="M459 108q0 -15 7 -27t25 -27l-82 -64q-30 18 -44 38.5t-16 46.5q-28 -39 -68.5 -63t-91.5 -24q-64 0 -103 34t-39 96q0 16 3 34l56 318h109l-54 -309q-2 -16 -2 -22q0 -31 18.5 -48.5t51.5 -17.5q45 0 78 31t55 79l50 287h109l-60 -344q-2 -14 -2 -18zM235.5 628.5
q-28.5 44.5 -51.5 66.5h98q29 -29 56 -81q16 21 39.5 43t45.5 38h98q-33 -24 -77 -68t-74 -88h-90q-16 45 -44.5 89.5z" />
    <glyph glyph-name="ucircumflex" unicode="&#xfb;" horiz-adv-x="558" 
d="M459 108q0 -15 7 -27t25 -27l-82 -64q-30 18 -44 38.5t-16 46.5q-28 -39 -68.5 -63t-91.5 -24q-64 0 -103 34t-39 96q0 16 3 34l56 318h109l-54 -309q-2 -16 -2 -22q0 -31 18.5 -48.5t51.5 -17.5q45 0 78 31t55 79l50 287h109l-60 -344q-2 -14 -2 -18zM233.5 608.5
q43.5 43.5 73.5 86.5h90q16 -44 44.5 -88.5t51.5 -67.5h-97q-32 33 -57 82q-32 -42 -85 -82h-98q34 26 77.5 69.5z" />
    <glyph glyph-name="udieresis" unicode="&#xfc;" horiz-adv-x="558" 
d="M459 108q0 -15 7 -27t25 -27l-82 -64q-30 18 -44 38.5t-16 46.5q-28 -39 -68.5 -63t-91.5 -24q-64 0 -103 34t-39 96q0 16 3 34l56 318h109l-54 -309q-2 -16 -2 -22q0 -31 18.5 -48.5t51.5 -17.5q45 0 78 31t55 79l50 287h109l-60 -344q-2 -14 -2 -18zM204.5 547.5
q-13.5 13.5 -13.5 33.5q0 25 20.5 45t46.5 20q20 0 33.5 -13.5t13.5 -33.5q0 -25 -20.5 -45t-45.5 -20q-21 0 -34.5 13.5zM378 547q-13 13 -13 33q0 26 20.5 46t46.5 20q20 0 34 -13.5t14 -33.5q0 -25 -21 -45t-47 -20q-21 0 -34 13z" />
    <glyph glyph-name="uni01D8" unicode="&#x1d8;" horiz-adv-x="558" 
d="M459 108q0 -15 7 -27t25 -27l-82 -64q-30 18 -44 38.5t-16 46.5q-28 -39 -68.5 -63t-91.5 -24q-64 0 -103 34t-39 96q0 16 3 34l56 318h109l-54 -309q-2 -16 -2 -22q0 -31 18.5 -48.5t51.5 -17.5q45 0 78 31t55 79l50 287h109l-60 -344q-2 -14 -2 -18zM391 816h108
l-111 -121h-81zM204 543.5q-14 13.5 -14 33.5q0 25 21 45.5t47 20.5q20 0 33 -13.5t13 -33.5q0 -25 -20.5 -45.5t-45.5 -20.5q-20 0 -34 13.5zM377.5 543.5q-13.5 13.5 -13.5 33.5q0 26 20.5 46t46.5 20q21 0 34.5 -13.5t13.5 -33.5q0 -25 -21 -45.5t-46 -20.5
q-21 0 -34.5 13.5z" />
    <glyph glyph-name="uni01DA" unicode="&#x1da;" horiz-adv-x="558" 
d="M459 108q0 -15 7 -27t25 -27l-82 -64q-30 18 -44 38.5t-16 46.5q-28 -39 -68.5 -63t-91.5 -24q-64 0 -103 34t-39 96q0 16 3 34l56 318h109l-54 -309q-2 -16 -2 -22q0 -31 18.5 -48.5t51.5 -17.5q45 0 78 31t55 79l50 287h109l-60 -344q-2 -14 -2 -18zM264 760.5
q-28 36.5 -51 55.5h90q15 -13 30.5 -31.5t23.5 -34.5q14 17 36 35.5t42 30.5h95q-29 -18 -70 -55t-69 -73h-84q-15 36 -43 72.5zM204 543.5q-14 13.5 -14 33.5q0 25 21 45.5t47 20.5q20 0 33 -13.5t13 -33.5q0 -25 -20.5 -45.5t-45.5 -20.5q-20 0 -34 13.5zM377.5 543.5
q-13.5 13.5 -13.5 33.5q0 26 20.5 46t46.5 20q21 0 34.5 -13.5t13.5 -33.5q0 -25 -21 -45.5t-46 -20.5q-21 0 -34.5 13.5z" />
    <glyph glyph-name="uni01DC" unicode="&#x1dc;" horiz-adv-x="558" 
d="M459 108q0 -15 7 -27t25 -27l-82 -64q-30 18 -44 38.5t-16 46.5q-28 -39 -68.5 -63t-91.5 -24q-64 0 -103 34t-39 96q0 16 3 34l56 318h109l-54 -309q-2 -16 -2 -22q0 -31 18.5 -48.5t51.5 -17.5q45 0 78 31t55 79l50 287h109l-60 -344q-2 -14 -2 -18zM233 812h109
l42 -121h-82zM204 543.5q-14 13.5 -14 33.5q0 25 21 45.5t47 20.5q20 0 33 -13.5t13 -33.5q0 -25 -20.5 -45.5t-45.5 -20.5q-20 0 -34 13.5zM377.5 543.5q-13.5 13.5 -13.5 33.5q0 26 20.5 46t46.5 20q21 0 34.5 -13.5t13.5 -33.5q0 -25 -21 -45.5t-46 -20.5
q-21 0 -34.5 13.5z" />
    <glyph glyph-name="uni01D6" unicode="&#x1d6;" horiz-adv-x="558" 
d="M459 108q0 -15 7 -27t25 -27l-82 -64q-30 18 -44 38.5t-16 46.5q-28 -39 -68.5 -63t-91.5 -24q-64 0 -103 34t-39 96q0 16 3 34l56 318h109l-54 -309q-2 -16 -2 -22q0 -31 18.5 -48.5t51.5 -17.5q45 0 78 31t55 79l50 287h109l-60 -344q-2 -14 -2 -18zM210 773h314
l-14 -77h-314zM204.5 543.5q-13.5 13.5 -13.5 33.5q0 25 20.5 45.5t46.5 20.5q20 0 33.5 -13.5t13.5 -33.5q0 -25 -20.5 -45.5t-45.5 -20.5q-21 0 -34.5 13.5zM378 543.5q-13 13.5 -13 33.5q0 26 20.5 46t46.5 20q20 0 34 -13.5t14 -33.5q0 -25 -21 -45.5t-47 -20.5
q-21 0 -34 13.5z" />
    <glyph glyph-name="uni1EE5" unicode="&#x1ee5;" horiz-adv-x="558" 
d="M459 108q0 -15 7 -27t25 -27l-82 -64q-30 18 -44 38.5t-16 46.5q-28 -39 -68.5 -63t-91.5 -24q-64 0 -103 34t-39 96q0 16 3 34l56 318h109l-54 -309q-2 -16 -2 -22q0 -31 18.5 -48.5t51.5 -17.5q45 0 78 31t55 79l50 287h109l-60 -344q-2 -14 -2 -18zM147 -168
q-15 15 -15 37q0 29 23.5 52t52.5 23q23 0 38 -15.5t15 -37.5q0 -29 -23 -51.5t-53 -22.5q-23 0 -38 15z" />
    <glyph glyph-name="ugrave" unicode="&#xf9;" horiz-adv-x="558" 
d="M459 108q0 -15 7 -27t25 -27l-82 -64q-30 18 -44 38.5t-16 46.5q-28 -39 -68.5 -63t-91.5 -24q-64 0 -103 34t-39 96q0 16 3 34l56 318h109l-54 -309q-2 -16 -2 -22q0 -31 18.5 -48.5t51.5 -17.5q45 0 78 31t55 79l50 287h109l-60 -344q-2 -14 -2 -18zM203 692h115
l53 -153h-89z" />
    <glyph glyph-name="uni1EE7" unicode="&#x1ee7;" horiz-adv-x="558" 
d="M459 108q0 -15 7 -27t25 -27l-82 -64q-30 18 -44 38.5t-16 46.5q-28 -39 -68.5 -63t-91.5 -24q-64 0 -103 34t-39 96q0 16 3 34l56 318h109l-54 -309q-2 -16 -2 -22q0 -31 18.5 -48.5t51.5 -17.5q45 0 78 31t55 79l50 287h109l-60 -344q-2 -14 -2 -18zM367 577l-7 -38
h-80l14 76q49 5 71 16.5t22 34.5q0 26 -42 26q-29 0 -60 -13l-8 60q43 18 92 18q50 0 77.5 -18t27.5 -55q0 -83 -107 -107z" />
    <glyph glyph-name="uhorn" unicode="&#x1b0;" horiz-adv-x="606" 
d="M461 126q-2 -14 -2 -18q0 -15 7 -27t25 -27l-82 -64q-30 18 -44 38.5t-16 46.5q-28 -39 -68.5 -63t-91.5 -24q-64 0 -103 34t-39 96q0 16 3 34l56 318h109l-54 -309q-2 -16 -2 -22q0 -31 18.5 -48.5t51.5 -17.5q45 0 78 31t55 79l50 287h109l-15 -85q41 8 61.5 42
t32.5 101h99q-21 -101 -68 -147.5t-135 -51.5z" />
    <glyph glyph-name="uni1EE9" unicode="&#x1ee9;" horiz-adv-x="606" 
d="M461 126q-2 -14 -2 -18q0 -15 7 -27t25 -27l-82 -64q-30 18 -44 38.5t-16 46.5q-28 -39 -68.5 -63t-91.5 -24q-64 0 -103 34t-39 96q0 16 3 34l56 318h109l-54 -309q-2 -16 -2 -22q0 -31 18.5 -48.5t51.5 -17.5q45 0 78 31t55 79l50 287h109l-15 -85q41 8 61.5 42
t32.5 101h99q-21 -101 -68 -147.5t-135 -51.5zM383 692h115l-134 -153h-88z" />
    <glyph glyph-name="uni1EF1" unicode="&#x1ef1;" horiz-adv-x="606" 
d="M461 126q-2 -14 -2 -18q0 -15 7 -27t25 -27l-82 -64q-30 18 -44 38.5t-16 46.5q-28 -39 -68.5 -63t-91.5 -24q-64 0 -103 34t-39 96q0 16 3 34l56 318h109l-54 -309q-2 -16 -2 -22q0 -31 18.5 -48.5t51.5 -17.5q45 0 78 31t55 79l50 287h109l-15 -85q41 8 61.5 42
t32.5 101h99q-21 -101 -68 -147.5t-135 -51.5zM147 -168q-15 15 -15 37q0 29 23.5 52t52.5 23q23 0 38 -15.5t15 -37.5q0 -29 -23 -51.5t-53 -22.5q-23 0 -38 15z" />
    <glyph glyph-name="uni1EEB" unicode="&#x1eeb;" horiz-adv-x="606" 
d="M461 126q-2 -14 -2 -18q0 -15 7 -27t25 -27l-82 -64q-30 18 -44 38.5t-16 46.5q-28 -39 -68.5 -63t-91.5 -24q-64 0 -103 34t-39 96q0 16 3 34l56 318h109l-54 -309q-2 -16 -2 -22q0 -31 18.5 -48.5t51.5 -17.5q45 0 78 31t55 79l50 287h109l-15 -85q41 8 61.5 42
t32.5 101h99q-21 -101 -68 -147.5t-135 -51.5zM203 692h115l53 -153h-89z" />
    <glyph glyph-name="uni1EED" unicode="&#x1eed;" horiz-adv-x="606" 
d="M461 126q-2 -14 -2 -18q0 -15 7 -27t25 -27l-82 -64q-30 18 -44 38.5t-16 46.5q-28 -39 -68.5 -63t-91.5 -24q-64 0 -103 34t-39 96q0 16 3 34l56 318h109l-54 -309q-2 -16 -2 -22q0 -31 18.5 -48.5t51.5 -17.5q45 0 78 31t55 79l50 287h109l-15 -85q41 8 61.5 42
t32.5 101h99q-21 -101 -68 -147.5t-135 -51.5zM367 577l-7 -38h-80l14 76q49 5 71 16.5t22 34.5q0 26 -42 26q-29 0 -60 -13l-8 60q43 18 92 18q50 0 77.5 -18t27.5 -55q0 -83 -107 -107z" />
    <glyph glyph-name="uni1EEF" unicode="&#x1eef;" horiz-adv-x="606" 
d="M461 126q-2 -14 -2 -18q0 -15 7 -27t25 -27l-82 -64q-30 18 -44 38.5t-16 46.5q-28 -39 -68.5 -63t-91.5 -24q-64 0 -103 34t-39 96q0 16 3 34l56 318h109l-54 -309q-2 -16 -2 -22q0 -31 18.5 -48.5t51.5 -17.5q45 0 78 31t55 79l50 287h109l-15 -85q41 8 61.5 42
t32.5 101h99q-21 -101 -68 -147.5t-135 -51.5zM204 635q33 37 83 37q20 0 35.5 -6t35.5 -18q16 -9 25.5 -13t20.5 -4q15 0 24.5 11.5t17.5 37.5h71q-14 -54 -47 -92t-76 -38q-20 0 -35.5 6t-35.5 18q-16 9 -25.5 13t-20.5 4q-15 0 -26 -11.5t-20 -37.5h-72q12 56 45 93z" />
    <glyph glyph-name="uhungarumlaut" unicode="&#x171;" horiz-adv-x="558" 
d="M459 108q0 -15 7 -27t25 -27l-82 -64q-30 18 -44 38.5t-16 46.5q-28 -39 -68.5 -63t-91.5 -24q-64 0 -103 34t-39 96q0 16 3 34l56 318h109l-54 -309q-2 -16 -2 -22q0 -31 18.5 -48.5t51.5 -17.5q45 0 78 31t55 79l50 287h109l-60 -344q-2 -14 -2 -18zM289 692h100
l-108 -153h-81zM457 692h100l-109 -153h-81z" />
    <glyph glyph-name="umacron" unicode="&#x16b;" horiz-adv-x="558" 
d="M459 108q0 -15 7 -27t25 -27l-82 -64q-30 18 -44 38.5t-16 46.5q-28 -39 -68.5 -63t-91.5 -24q-64 0 -103 34t-39 96q0 16 3 34l56 318h109l-54 -309q-2 -16 -2 -22q0 -31 18.5 -48.5t51.5 -17.5q45 0 78 31t55 79l50 287h109l-60 -344q-2 -14 -2 -18zM185 632h314
l-14 -78h-314z" />
    <glyph glyph-name="uogonek" unicode="&#x173;" horiz-adv-x="558" 
d="M382.5 -54q-21.5 -35 -21.5 -61q0 -18 12.5 -27t32.5 -9q22 0 55 13l9 -61q-45 -24 -88 -24q-63 0 -89.5 25t-26.5 61q0 81 106 157q-21 23 -23 55q-28 -39 -68.5 -63t-91.5 -24q-64 0 -103 34t-39 96q0 16 3 34l56 318h109l-54 -309q-2 -16 -2 -22q0 -31 18.5 -48.5
t51.5 -17.5q45 0 78 31t55 79l50 287h109l-60 -344q-2 -14 -2 -18q0 -15 7 -27t25 -27l-59 -46q-28 -27 -49.5 -62z" />
    <glyph glyph-name="uring" unicode="&#x16f;" horiz-adv-x="558" 
d="M459 108q0 -15 7 -27t25 -27l-82 -64q-30 18 -44 38.5t-16 46.5q-28 -39 -68.5 -63t-91.5 -24q-64 0 -103 34t-39 96q0 16 3 34l56 318h109l-54 -309q-2 -16 -2 -22q0 -31 18.5 -48.5t51.5 -17.5q45 0 78 31t55 79l50 287h109l-60 -344q-2 -14 -2 -18zM256 549.5
q-24 22.5 -24 61.5q0 50 36 82.5t90 32.5q44 0 68 -23t24 -61q0 -50 -36 -82.5t-90 -32.5q-44 0 -68 22.5zM372 597.5q15 16.5 15 39.5q0 17 -10 26t-28 9q-23 0 -38.5 -16.5t-15.5 -39.5q0 -17 10.5 -26t27.5 -9q24 0 39 16.5z" />
    <glyph glyph-name="utilde" unicode="&#x169;" horiz-adv-x="558" 
d="M459 108q0 -15 7 -27t25 -27l-82 -64q-30 18 -44 38.5t-16 46.5q-28 -39 -68.5 -63t-91.5 -24q-64 0 -103 34t-39 96q0 16 3 34l56 318h109l-54 -309q-2 -16 -2 -22q0 -31 18.5 -48.5t51.5 -17.5q45 0 78 31t55 79l50 287h109l-60 -344q-2 -14 -2 -18zM204 635
q33 37 83 37q20 0 35.5 -6t35.5 -18q16 -9 25.5 -13t20.5 -4q15 0 24.5 11.5t17.5 37.5h71q-14 -54 -47 -92t-76 -38q-20 0 -35.5 6t-35.5 18q-16 9 -25.5 13t-20.5 4q-15 0 -26 -11.5t-20 -37.5h-72q12 56 45 93z" />
    <glyph glyph-name="v" unicode="v" horiz-adv-x="492" 
d="M134 13q-25 25 -33 81l-50 376h106l46 -366q2 -17 5 -24t11 -7q7 0 12 7t13 24l174 366h105l-181 -376q-29 -60 -58.5 -83t-75.5 -23q-49 0 -74 25z" />
    <glyph glyph-name="w" unicode="w" horiz-adv-x="659" 
d="M59 470h99l15 -373q9 4 15.5 11.5t15.5 23.5l161 303l55 -303q4 -27 17 -34l146 372h99l-190 -470h-43q-49 0 -71 20.5t-30 72.5l-20 134l-67 -134q-29 -56 -57 -74.5t-77 -18.5h-43z" />
    <glyph glyph-name="wacute" unicode="&#x1e83;" horiz-adv-x="659" 
d="M59 470h99l15 -373q9 4 15.5 11.5t15.5 23.5l161 303l55 -303q4 -27 17 -34l146 372h99l-190 -470h-43q-49 0 -71 20.5t-30 72.5l-20 134l-67 -134q-29 -56 -57 -74.5t-77 -18.5h-43zM440 692h115l-134 -153h-88z" />
    <glyph glyph-name="wcircumflex" unicode="&#x175;" horiz-adv-x="659" 
d="M59 470h99l15 -373q9 4 15.5 11.5t15.5 23.5l161 303l55 -303q4 -27 17 -34l146 372h99l-190 -470h-43q-49 0 -71 20.5t-30 72.5l-20 134l-67 -134q-29 -56 -57 -74.5t-77 -18.5h-43zM290.5 608.5q43.5 43.5 73.5 86.5h90q16 -44 44.5 -88.5t51.5 -67.5h-97
q-32 33 -57 82q-32 -42 -85 -82h-98q34 26 77.5 69.5z" />
    <glyph glyph-name="wdieresis" unicode="&#x1e85;" horiz-adv-x="659" 
d="M59 470h99l15 -373q9 4 15.5 11.5t15.5 23.5l161 303l55 -303q4 -27 17 -34l146 372h99l-190 -470h-43q-49 0 -71 20.5t-30 72.5l-20 134l-67 -134q-29 -56 -57 -74.5t-77 -18.5h-43zM261.5 547.5q-13.5 13.5 -13.5 33.5q0 25 20.5 45t46.5 20q20 0 33.5 -13.5
t13.5 -33.5q0 -25 -20.5 -45t-45.5 -20q-21 0 -34.5 13.5zM435 547q-13 13 -13 33q0 26 20.5 46t46.5 20q20 0 34 -13.5t14 -33.5q0 -25 -21 -45t-47 -20q-21 0 -34 13z" />
    <glyph glyph-name="wgrave" unicode="&#x1e81;" horiz-adv-x="659" 
d="M59 470h99l15 -373q9 4 15.5 11.5t15.5 23.5l161 303l55 -303q4 -27 17 -34l146 372h99l-190 -470h-43q-49 0 -71 20.5t-30 72.5l-20 134l-67 -134q-29 -56 -57 -74.5t-77 -18.5h-43zM260 692h115l53 -153h-89z" />
    <glyph glyph-name="x" unicode="x" horiz-adv-x="452" 
d="M287 231l114 -231h-110l-80 162l-131 -162h-111l200 246l-110 224h110l76 -154l126 154h110z" />
    <glyph glyph-name="y" unicode="y" horiz-adv-x="551" 
d="M535 470l-92 -520q-16 -91 -73 -135t-169 -44h-128l15 85h128q52 0 80.5 22.5t37.5 71.5l21 119q-29 -38 -69.5 -58.5t-89.5 -20.5q-68 0 -105 32.5t-37 92.5q0 19 3 38l34 192q2 12 2 18q0 15 -7 27.5t-24 27.5l73 64q36 -21 52 -45.5t16 -56.5q0 -15 -3 -33l-32 -184
q-2 -16 -2 -23q0 -31 17.5 -48.5t50.5 -17.5q50 0 85.5 32t57.5 86l49 278h109z" />
    <glyph glyph-name="yacute" unicode="&#xfd;" horiz-adv-x="551" 
d="M535 470l-92 -520q-16 -91 -73 -135t-169 -44h-128l15 85h128q52 0 80.5 22.5t37.5 71.5l21 119q-29 -38 -69.5 -58.5t-89.5 -20.5q-68 0 -105 32.5t-37 92.5q0 19 3 38l34 192q2 12 2 18q0 15 -7 27.5t-24 27.5l73 64q36 -21 52 -45.5t16 -56.5q0 -15 -3 -33l-32 -184
q-2 -16 -2 -23q0 -31 17.5 -48.5t50.5 -17.5q50 0 85.5 32t57.5 86l49 278h109zM381 692h115l-134 -153h-88z" />
    <glyph glyph-name="ycircumflex" unicode="&#x177;" horiz-adv-x="551" 
d="M535 470l-92 -520q-16 -91 -73 -135t-169 -44h-128l15 85h128q52 0 80.5 22.5t37.5 71.5l21 119q-29 -38 -69.5 -58.5t-89.5 -20.5q-68 0 -105 32.5t-37 92.5q0 19 3 38l34 192q2 12 2 18q0 15 -7 27.5t-24 27.5l73 64q36 -21 52 -45.5t16 -56.5q0 -15 -3 -33l-32 -184
q-2 -16 -2 -23q0 -31 17.5 -48.5t50.5 -17.5q50 0 85.5 32t57.5 86l49 278h109zM231.5 608.5q43.5 43.5 73.5 86.5h90q16 -44 44.5 -88.5t51.5 -67.5h-97q-32 33 -57 82q-32 -42 -85 -82h-98q34 26 77.5 69.5z" />
    <glyph glyph-name="ydieresis" unicode="&#xff;" horiz-adv-x="551" 
d="M535 470l-92 -520q-16 -91 -73 -135t-169 -44h-128l15 85h128q52 0 80.5 22.5t37.5 71.5l21 119q-29 -38 -69.5 -58.5t-89.5 -20.5q-68 0 -105 32.5t-37 92.5q0 19 3 38l34 192q2 12 2 18q0 15 -7 27.5t-24 27.5l73 64q36 -21 52 -45.5t16 -56.5q0 -15 -3 -33l-32 -184
q-2 -16 -2 -23q0 -31 17.5 -48.5t50.5 -17.5q50 0 85.5 32t57.5 86l49 278h109zM202.5 547.5q-13.5 13.5 -13.5 33.5q0 25 20.5 45t46.5 20q20 0 33.5 -13.5t13.5 -33.5q0 -25 -20.5 -45t-45.5 -20q-21 0 -34.5 13.5zM376 547q-13 13 -13 33q0 26 20.5 46t46.5 20
q20 0 34 -13.5t14 -33.5q0 -25 -21 -45t-47 -20q-21 0 -34 13z" />
    <glyph glyph-name="uni1E8F" unicode="&#x1e8f;" horiz-adv-x="551" 
d="M535 470l-92 -520q-16 -91 -73 -135t-169 -44h-128l15 85h128q52 0 80.5 22.5t37.5 71.5l21 119q-29 -38 -69.5 -58.5t-89.5 -20.5q-68 0 -105 32.5t-37 92.5q0 19 3 38l34 192q2 12 2 18q0 15 -7 27.5t-24 27.5l73 64q36 -21 52 -45.5t16 -56.5q0 -15 -3 -33l-32 -184
q-2 -16 -2 -23q0 -31 17.5 -48.5t50.5 -17.5q50 0 85.5 32t57.5 86l49 278h109zM285.5 549q-15.5 15 -15.5 37q0 29 23.5 52t52.5 23q23 0 38.5 -15.5t15.5 -37.5q0 -28 -23.5 -51t-52.5 -23q-23 0 -38.5 15z" />
    <glyph glyph-name="uni1EF5" unicode="&#x1ef5;" horiz-adv-x="551" 
d="M535 470l-92 -520q-16 -91 -73 -135t-169 -44h-128l15 85h128q52 0 80.5 22.5t37.5 71.5l21 119q-29 -38 -69.5 -58.5t-89.5 -20.5q-68 0 -105 32.5t-37 92.5q0 19 3 38l34 192q2 12 2 18q0 15 -7 27.5t-24 27.5l73 64q36 -21 52 -45.5t16 -56.5q0 -15 -3 -33l-32 -184
q-2 -16 -2 -23q0 -31 17.5 -48.5t50.5 -17.5q50 0 85.5 32t57.5 86l49 278h109zM128 -400q-15 15 -15 37q0 29 23.5 52t52.5 23q23 0 38 -15.5t15 -37.5q0 -29 -23 -51.5t-53 -22.5q-23 0 -38 15z" />
    <glyph glyph-name="ygrave" unicode="&#x1ef3;" horiz-adv-x="551" 
d="M535 470l-92 -520q-16 -91 -73 -135t-169 -44h-128l15 85h128q52 0 80.5 22.5t37.5 71.5l21 119q-29 -38 -69.5 -58.5t-89.5 -20.5q-68 0 -105 32.5t-37 92.5q0 19 3 38l34 192q2 12 2 18q0 15 -7 27.5t-24 27.5l73 64q36 -21 52 -45.5t16 -56.5q0 -15 -3 -33l-32 -184
q-2 -16 -2 -23q0 -31 17.5 -48.5t50.5 -17.5q50 0 85.5 32t57.5 86l49 278h109zM201 692h115l53 -153h-89z" />
    <glyph glyph-name="uni1EF7" unicode="&#x1ef7;" horiz-adv-x="551" 
d="M535 470l-92 -520q-16 -91 -73 -135t-169 -44h-128l15 85h128q52 0 80.5 22.5t37.5 71.5l21 119q-29 -38 -69.5 -58.5t-89.5 -20.5q-68 0 -105 32.5t-37 92.5q0 19 3 38l34 192q2 12 2 18q0 15 -7 27.5t-24 27.5l73 64q36 -21 52 -45.5t16 -56.5q0 -15 -3 -33l-32 -184
q-2 -16 -2 -23q0 -31 17.5 -48.5t50.5 -17.5q50 0 85.5 32t57.5 86l49 278h109zM365 577l-7 -38h-80l14 76q49 5 71 16.5t22 34.5q0 26 -42 26q-29 0 -60 -13l-8 60q43 18 92 18q50 0 77.5 -18t27.5 -55q0 -83 -107 -107z" />
    <glyph glyph-name="uni1EF9" unicode="&#x1ef9;" horiz-adv-x="551" 
d="M535 470l-92 -520q-16 -91 -73 -135t-169 -44h-128l15 85h128q52 0 80.5 22.5t37.5 71.5l21 119q-29 -38 -69.5 -58.5t-89.5 -20.5q-68 0 -105 32.5t-37 92.5q0 19 3 38l34 192q2 12 2 18q0 15 -7 27.5t-24 27.5l73 64q36 -21 52 -45.5t16 -56.5q0 -15 -3 -33l-32 -184
q-2 -16 -2 -23q0 -31 17.5 -48.5t50.5 -17.5q50 0 85.5 32t57.5 86l49 278h109zM202 635q33 37 83 37q20 0 35.5 -6t35.5 -18q16 -9 25.5 -13t20.5 -4q15 0 24.5 11.5t17.5 37.5h71q-14 -54 -47 -92t-76 -38q-20 0 -35.5 6t-35.5 18q-16 9 -25.5 13t-20.5 4q-15 0 -26 -11.5
t-20 -37.5h-72q12 56 45 93z" />
    <glyph glyph-name="z" unicode="z" horiz-adv-x="458" 
d="M448 388l-343 -289q4 -15 26 -15h275l-15 -84h-298q-92 0 -92 60q0 6 2 18l7 45l312 263h-255l15 84h381z" />
    <glyph glyph-name="zacute" unicode="&#x17a;" horiz-adv-x="458" 
d="M448 388l-343 -289q4 -15 26 -15h275l-15 -84h-298q-92 0 -92 60q0 6 2 18l7 45l312 263h-255l15 84h381zM341 692h115l-134 -153h-88z" />
    <glyph glyph-name="zcaron" unicode="&#x17e;" horiz-adv-x="458" 
d="M448 388l-343 -289q4 -15 26 -15h275l-15 -84h-298q-92 0 -92 60q0 6 2 18l7 45l312 263h-255l15 84h381zM193.5 628.5q-28.5 44.5 -51.5 66.5h98q29 -29 56 -81q16 21 39.5 43t45.5 38h98q-33 -24 -77 -68t-74 -88h-90q-16 45 -44.5 89.5z" />
    <glyph glyph-name="zdotaccent" unicode="&#x17c;" horiz-adv-x="458" 
d="M448 388l-343 -289q4 -15 26 -15h275l-15 -84h-298q-92 0 -92 60q0 6 2 18l7 45l312 263h-255l15 84h381zM245.5 549q-15.5 15 -15.5 37q0 29 23.5 52t52.5 23q23 0 38.5 -15.5t15.5 -37.5q0 -28 -23.5 -51t-52.5 -23q-23 0 -38.5 15z" />
    <glyph glyph-name="uni1E93" unicode="&#x1e93;" horiz-adv-x="458" 
d="M448 388l-343 -289q4 -15 26 -15h275l-15 -84h-298q-92 0 -92 60q0 6 2 18l7 45l312 263h-255l15 84h381zM127 -168q-15 15 -15 37q0 29 23.5 52t52.5 23q23 0 38 -15.5t15 -37.5q0 -29 -23 -51.5t-53 -22.5q-23 0 -38 15z" />
    <glyph glyph-name="ordfeminine" unicode="&#xaa;" horiz-adv-x="425" 
d="M399 430q-1 -5 -1 -13q0 -12 5.5 -21t18.5 -22l-56 -49q-43 23 -52 57q-50 -57 -129 -57q-48 0 -77 22.5t-29 63.5q0 68 44 98.5t122 38.5l45 5q24 2 35.5 7.5t15.5 16.5q1 5 1 14q0 25 -15 39t-44 14q-35 0 -55.5 -9t-45.5 -32l-52 41q29 31 64.5 45.5t97.5 14.5
q65 0 100 -27t35 -77q0 -17 -2 -26zM287 409.5q28 22.5 34 55.5l7 40q-15 -7 -52 -10l-36 -3q-78 -7 -78 -64q0 -41 51 -41q46 0 74 22.5z" />
    <glyph glyph-name="ordmasculine" unicode="&#xba;" horiz-adv-x="422" 
d="M126 354.5q-38 29.5 -38 82.5q0 14 3 29l17 97q12 68 58 104.5t124 36.5q69 0 106 -29t37 -81q0 -14 -3 -31l-17 -97q-12 -68 -55.5 -104.5t-122.5 -36.5q-71 0 -109 29.5zM299.5 410.5q22.5 20.5 28.5 55.5l18 97q2 14 2 19q0 26 -16 41t-49 15q-38 0 -61 -19.5
t-29 -55.5l-18 -97q-2 -12 -2 -18q0 -27 17 -42.5t49 -15.5q38 0 60.5 20.5z" />
    <glyph glyph-name="uni207F" unicode="&#x207f;" horiz-adv-x="494" 
d="M459 677.5q31 -28.5 31 -78.5q0 -16 -3 -34l-49 -281h-94l48 271q2 14 2 19q0 27 -15 42t-42 15q-69 0 -114 -85l-47 -262h-95l53 300q1 6 1 15q0 15 -6.5 26t-20.5 23l64 58q27 -17 41 -34t18 -41q26 33 61.5 54t79.5 21q56 0 87 -28.5z" />
    <glyph glyph-name="uni0394" unicode="&#x394;" horiz-adv-x="677" 
d="M616 0h-637l384 700h115zM144 94h339l-85 476z" />
    <glyph glyph-name="uni0394" unicode="&#x3b4;" horiz-adv-x="677" 
d="M616 0h-637l384 700h115zM144 94h339l-85 476z" />
    <glyph glyph-name="uni03A9" unicode="&#x3a9;" horiz-adv-x="717" 
d="M631 657.5q69 -54.5 69 -157.5q0 -29 -6 -62l-26 -143q-26 -141 -134 -202h111l-16 -93h-262l16 93h1l2 9q60 11 103.5 50.5t54.5 103.5l34 195q4 28 4 38q0 62 -40.5 96t-115.5 34q-86 0 -141.5 -44.5t-69.5 -123.5l-34 -195q-3 -16 -3 -31q0 -51 29 -82.5t78 -40.5
l-9 -53h-1l-8 -49h-261l16 93h111q-69 48 -69 145q0 24 5 57l26 143q24 137 107 205.5t229 68.5q131 0 200 -54.5z" />
    <glyph glyph-name="uni03A9" unicode="&#x3c9;" horiz-adv-x="717" 
d="M631 657.5q69 -54.5 69 -157.5q0 -29 -6 -62l-26 -143q-26 -141 -134 -202h111l-16 -93h-262l16 93h1l2 9q60 11 103.5 50.5t54.5 103.5l34 195q4 28 4 38q0 62 -40.5 96t-115.5 34q-86 0 -141.5 -44.5t-69.5 -123.5l-34 -195q-3 -16 -3 -31q0 -51 29 -82.5t78 -40.5
l-9 -53h-1l-8 -49h-261l16 93h111q-69 48 -69 145q0 24 5 57l26 143q24 137 107 205.5t229 68.5q131 0 200 -54.5z" />
    <glyph glyph-name="uni03BC" unicode="&#x3bc;" horiz-adv-x="570" 
d="M471 108q0 -15 7 -27t25 -27l-82 -64q-29 17 -43.5 37t-17.5 45q-25 -39 -61 -61.5t-80 -22.5t-71 29l-44 -249h-109l67 381v2l56 319h109l-55 -315q-1 -5 -1 -13q0 -32 18.5 -50t51.5 -18q81 0 133 107l50 289h109l-60 -344q-2 -14 -2 -18z" />
    <glyph glyph-name="pi" unicode="&#x3c0;" horiz-adv-x="661" 
d="M487 142q-3 -15 -3 -25q0 -24 15.5 -32.5t54.5 -8.5l-39 -88q-78 0 -111 21.5t-33 75.5q0 24 6 55l43 241h-169l-67 -381h-109l67 381h-98l16 89h597l-16 -89h-112z" />
    <glyph glyph-name="uni0E01" unicode="&#xe01;" horiz-adv-x="620" 
d="M63 216q21 116 126 158v4l-96 104l14 86h242q108 0 163.5 -47t55.5 -138q0 -25 -7 -67l-55 -316h-107l56 316q5 32 5 53q0 114 -115 114q-50 0 -163 -2l89 -91l-9 -51q-39 -17 -61.5 -46t-30.5 -77l-38 -216h-107z" />
    <glyph glyph-name="uni0E02" unicode="&#xe02;" horiz-adv-x="512" 
d="M494 560l-72 -409q-14 -81 -62.5 -121t-137.5 -40q-78 0 -122.5 36t-44.5 101q0 41 13.5 76t28.5 57t44 59q7 10 8 11q-4 -1 -13 -1q-34 0 -54 22.5t-20 57.5q0 41 20 78t52.5 59t69.5 22q41 0 63 -21t22 -60q0 -46 -20 -93.5t-46 -86.5q-28 -43 -44.5 -87.5t-16.5 -80.5
q0 -28 17.5 -44t48.5 -16q37 0 59.5 18.5t28.5 53.5l72 409h106zM128.5 393q6.5 -9 17.5 -9q16 0 31.5 14.5t25.5 37t10 44.5q0 15 -6 23.5t-17 8.5q-25 0 -46.5 -30t-21.5 -65q0 -15 6.5 -24z" />
    <glyph glyph-name="uni0E03" unicode="&#xe03;" horiz-adv-x="561" 
d="M543 560l-74 -415q-13 -74 -65 -114.5t-136 -40.5q-80 0 -124.5 34.5t-44.5 101.5q0 54 27.5 98t73.5 92q33 34 50.5 58.5t20.5 43.5l3 15q1 3 1 10q0 27 -23 50v-5q0 -37 -18 -71t-47.5 -55t-61.5 -21q-35 0 -55.5 20.5t-20.5 54.5q0 40 19.5 75t52.5 56t71 21
q69 0 106 -64l10 56h36q4 -44 4 -65q0 -76 -21.5 -123.5t-53.5 -86.5q-28 -35 -47.5 -76t-19.5 -77q0 -27 17 -42t51 -15q35 0 59 18.5t30 51.5l73 415h107zM175 421q21 29 21 63q0 14 -6 23t-16 9q-25 0 -46.5 -28.5t-21.5 -62.5q0 -15 6.5 -24t17.5 -9q24 0 45 29z" />
    <glyph glyph-name="uni0E04" unicode="&#xe04;" horiz-adv-x="657" 
d="M547.5 525.5q62.5 -42.5 62.5 -115.5q0 -15 -3 -32l-67 -378h-104l67 378q2 12 2 18q0 41 -34 64t-98 23q-71 0 -115 -28t-53 -77l-19 -107q37 32 80.5 51t87.5 19q41 0 65 -17t24 -46q0 -42 -41 -70t-101 -28q-34 0 -58 13t-28 37q-25 -21 -37.5 -49.5t-20.5 -74.5
l-19 -106h-104l67 378q16 89 89 139.5t188 50.5q107 0 169.5 -42.5zM287 283.5q-27 -15.5 -27 -34.5q0 -12 13 -19.5t35 -7.5q35 0 61.5 15t26.5 35q0 12 -13 19.5t-36 7.5q-33 0 -60 -15.5z" />
    <glyph glyph-name="uni0E05" unicode="&#xe05;" horiz-adv-x="663" 
d="M578.5 520.5q41.5 -36.5 41.5 -88.5q0 -7 -2 -23l-72 -409h-104l69 394q2 8 2 24q0 29 -12.5 49.5t-34.5 30.5l-103 -81l-71 82q-34 -12 -55.5 -39t-28.5 -66l-22 -123q38 32 81 51t87 19q41 0 65 -16.5t24 -45.5q0 -42 -41 -70.5t-101 -28.5q-34 0 -58 13t-28 37
q-25 -21 -37.5 -49.5t-20.5 -74.5l-19 -106h-104l73 409q11 61 67 104t143 55l59 -76l88 76q73 -11 114.5 -47.5zM287 283.5q-27 -15.5 -27 -34.5q0 -12 13 -19.5t35 -7.5q36 0 62 15t26 35q0 12 -13 19.5t-36 7.5q-33 0 -60 -15.5z" />
    <glyph glyph-name="uni0E06" unicode="&#xe06;" horiz-adv-x="658" 
d="M640 560l-71 -402q-30 -168 -188 -168q-49 0 -90 22.5t-66 60.5q-10 -39 -36 -61t-65 -22q-45 0 -71.5 35.5t-26.5 83.5q0 62 29.5 101.5t79.5 39.5q15 0 27 -4q8 23 25 43.5t48 47.5q51 43 61 88l2 8q1 4 1 12q0 24 -19 46v-2q0 -37 -18.5 -71.5t-48 -55.5t-62.5 -21
t-52.5 20.5t-19.5 54.5q0 40 19.5 75t52.5 56t71 21q69 0 106 -63l10 55h36q6 -44 6 -66q0 -63 -20.5 -105.5t-51.5 -77.5q-25 -30 -33 -48t-14 -49l-3 -18q-1 -3 -1 -9q0 -22 13.5 -48.5t40 -45t61.5 -18.5q37 0 60.5 21.5t30.5 61.5l71 402h106zM205.5 421
q21.5 29 21.5 63q0 14 -6.5 23t-17.5 9q-24 0 -45 -28.5t-21 -62.5q0 -14 6 -23.5t16 -9.5q25 0 46.5 29zM161 66q12 21 12 58q0 30 -11 50t-31 20q-19 0 -31.5 -22t-12.5 -56q0 -29 11 -50t30 -21q21 0 33 21z" />
    <glyph glyph-name="uni0E07" unicode="&#xe07;" horiz-adv-x="508" 
d="M452.5 546.5q23.5 -21.5 23.5 -59.5q0 -6 -2 -22l-57 -321q-13 -73 -55.5 -108.5t-118.5 -35.5h-106q-14 118 -34 209t-56 167l91 47q35 -67 55 -149t35 -197h11q63 0 75 67l32 183q-11 -4 -25 -4q-35 0 -55.5 22.5t-20.5 58.5q0 43 19.5 80.5t52.5 60.5t71 23
q41 0 64.5 -21.5zM362 393.5q16 15.5 26.5 39.5t10.5 47q0 14 -6 23t-17 9q-16 0 -32 -15t-26 -39t-10 -47q0 -14 6 -23.5t16 -9.5q16 0 32 15.5z" />
    <glyph glyph-name="uni0E08" unicode="&#xe08;" horiz-adv-x="558" 
d="M464 529.5q59 -38.5 59 -108.5q0 -14 -3 -29l-44 -250q-13 -72 -56 -107t-119 -35h-117q15 98 19 144q-10 -3 -22 -3q-40 0 -64.5 30.5t-24.5 75.5q0 56 28.5 89.5t75.5 33.5t74.5 -35t29.5 -94q2 -53 -11 -164h9q63 0 75 65l44 250q1 5 1 13q0 37 -33 57.5t-94 20.5
q-62 0 -108 -14t-86 -48l-44 65q47 42 107.5 62t140.5 20q104 0 163 -38.5zM160.5 209q10.5 -17 28.5 -17q17 0 28.5 20t11.5 50q0 25 -10.5 41t-28.5 16q-17 0 -28.5 -19t-11.5 -48q0 -26 10.5 -43z" />
    <glyph glyph-name="uni0E09" unicode="&#xe09;" horiz-adv-x="651" 
d="M590 215.5q16 -27.5 16 -65.5q0 -43 -16.5 -80t-44.5 -58.5t-61 -21.5q-34 0 -57 22.5t-26 60.5q-76 -83 -153 -83q-64 0 -97 27.5t-33 80.5q0 15 3 33q-13 -5 -24 -5q-34 0 -53.5 22t-19.5 59q0 43 19 80.5t52 60t71 22.5q39 0 62 -21t23 -58q0 -16 -2 -24l-20 -115
q-2 -8 -2 -23q0 -54 56 -54q43 0 80.5 32.5t58.5 69.5q7 14 9 26l34 189q1 5 1 14q0 36 -34 56.5t-94 20.5q-62 0 -107.5 -14t-85.5 -48l-44 65q47 42 107 62t140 20q104 0 164 -38.5t60 -107.5q0 -15 -3 -30l-25 -142q30 -7 46 -34.5zM140.5 197q15.5 15 25.5 38.5t10 46.5
q0 14 -6 23t-17 9q-16 0 -32 -14.5t-26 -38t-10 -46.5q0 -15 6.5 -24t17.5 -9q16 0 31.5 15zM528 76.5q17 31.5 17 71.5q0 22 -7.5 35.5t-21.5 13.5q-21 0 -38.5 -32t-17.5 -72q0 -22 8 -35t21 -13q22 0 39 31.5z" />
    <glyph glyph-name="uni0E0A" unicode="&#xe0a;" horiz-adv-x="528" 
d="M498.5 506q-22.5 -29 -75.5 -58l23 -24q14 -16 21 -32.5t7 -41.5q0 -20 -4 -40l-28 -159q-14 -80 -65 -120.5t-141 -40.5q-81 0 -127 38t-46 100q0 38 11.5 69t27 53.5t51.5 68.5l8 11q-4 -1 -13 -1q-34 0 -54 22.5t-20 57.5q0 41 20 77.5t53 59t70 22.5q41 0 62.5 -21
t21.5 -60q0 -75 -65 -180q-26 -38 -46 -82.5t-20 -84.5q0 -29 19 -45t53 -16q40 0 64 18.5t30 53.5l26 146q6 38 6 54q0 14 -3.5 23.5t-12.5 19.5l-16 21l9 50q30 19 44.5 34.5t21 34.5t13.5 56h106q-9 -55 -31.5 -84zM140.5 393q6.5 -9 17.5 -9q16 0 31.5 14.5t25.5 37
t10 44.5q0 14 -6 23t-17 9q-25 0 -46.5 -30t-21.5 -65q0 -15 6.5 -24z" />
    <glyph glyph-name="uni0E0B" unicode="&#xe0b;" horiz-adv-x="563" 
d="M534 505.5q-22 -29.5 -75 -57.5l23 -24q14 -15 21 -31.5t7 -40.5q0 -15 -5 -42l-29 -165q-13 -74 -66.5 -114.5t-138.5 -40.5q-80 0 -125.5 36t-45.5 101q0 41 17 77.5t35.5 58.5t48.5 53q33 34 50 58.5t21 43.5l2 15q1 3 1 10q0 28 -23 49v-3q0 -37 -18 -71t-48 -55.5
t-62 -21.5q-34 0 -54.5 20.5t-20.5 54.5q0 40 19.5 75t52.5 56t71 21q69 0 107 -63l10 55h36q4 -44 4 -65q0 -75 -21 -122.5t-54 -87.5q-27 -34 -47.5 -76.5t-20.5 -75.5q0 -29 18.5 -43.5t52.5 -14.5q37 0 62 18.5t31 51.5l27 152q6 38 6 54q0 14 -3.5 23t-11.5 20l-16 21
l8 50q31 20 45.5 35t21 34t13.5 56h106q-10 -55 -32 -84.5zM175 421q21 29 21 63q0 14 -6 23t-16 9q-25 0 -46.5 -28.5t-21.5 -62.5q0 -15 6.5 -24t17.5 -9q24 0 45 29z" />
    <glyph glyph-name="uni0E0C" unicode="&#xe0c;" horiz-adv-x="913" 
d="M894 560l-70 -404q-30 -166 -183 -166q-43 0 -76.5 18t-52.5 48q-29 -66 -98 -66q-43 0 -69.5 32t-26.5 78q0 60 30 98t79 38q11 0 16 -1l15 81q5 32 5 53q0 114 -118 114q-50 0 -164 -2l87 -91l-9 -51q-37 -15 -58.5 -41t-32.5 -67q18 4 26 4q34 0 54 -21t20 -57
q0 -43 -19.5 -81.5t-52 -62t-70.5 -23.5q-40 0 -64 21t-24 59q0 15 2 23l22 123q21 117 125 158l1 4l-96 104l15 86h241q111 0 166.5 -47t55.5 -139q0 -30 -6 -66l-22 -122q-1 -3 -1 -11q0 -21 11 -46.5t32 -43.5t48 -18q71 0 85 81l71 404h106zM199.5 170.5
q-6.5 9.5 -16.5 9.5q-16 0 -32 -15.5t-26.5 -39.5t-10.5 -47q0 -14 6.5 -23t16.5 -9q16 0 32 15t26.5 39t10.5 47q0 14 -6.5 23.5zM452.5 65q12.5 20 12.5 52q0 27 -11.5 45t-31.5 18q-18 0 -30.5 -21.5t-12.5 -52.5q0 -26 11 -43.5t31 -17.5q19 0 31.5 20z" />
    <glyph glyph-name="uni0E0D" unicode="&#xe0d;" horiz-adv-x="904" 
d="M888 561l-57 -321q-20 -116 -89 -178t-198 -62h-142l56 316q5 32 5 53q0 114 -118 114q-50 0 -164 -2l87 -91l-9 -51q-37 -15 -58.5 -41t-32.5 -67q18 4 26 4q34 0 54 -21t20 -57q0 -43 -19.5 -81.5t-52.5 -62t-71 -23.5q-40 0 -63.5 21t-23.5 58q0 16 2 24l22 123
q21 117 125 158l1 4l-96 104l15 86h241q111 0 166.5 -47t55.5 -139q0 -30 -6 -66l-42 -231h35q72 0 112.5 36t55.5 119l56 321h107zM199.5 170.5q-6.5 9.5 -16.5 9.5q-16 0 -32 -15.5t-26.5 -39.5t-10.5 -47q0 -14 6.5 -23t16.5 -9q16 0 32 15t26.5 39t10.5 47
q0 14 -6.5 23.5zM648.5 -118.5q23.5 31.5 35.5 75.5h93q-50 -179 -275 -179q-55 0 -90 22t-35 58q0 38 37.5 62t90.5 24q44 0 72 -19t28 -49q0 -20 -12 -38q32 12 55.5 43.5zM531 -156q20 11 20 25q0 12 -15.5 20.5t-38.5 8.5q-25 0 -45 -11t-20 -24q0 -12 15.5 -21t37.5 -9
q26 0 46 11z" />
    <glyph glyph-name="yoYingthai.less" horiz-adv-x="904" 
d="M888 561l-57 -321q-20 -116 -89 -178t-198 -62h-142l56 316q5 32 5 53q0 114 -118 114q-50 0 -164 -2l87 -91l-9 -51q-37 -15 -58.5 -41t-32.5 -67q18 4 26 4q34 0 54 -21t20 -57q0 -43 -19.5 -81.5t-52.5 -62t-71 -23.5q-40 0 -63.5 21t-23.5 58q0 16 2 24l22 123
q21 117 125 158l1 4l-96 104l15 86h241q111 0 166.5 -47t55.5 -139q0 -30 -6 -66l-42 -231h35q72 0 112.5 36t55.5 119l56 321h107zM199.5 170.5q-6.5 9.5 -16.5 9.5q-16 0 -32 -15.5t-26.5 -39.5t-10.5 -47q0 -14 6.5 -23t16.5 -9q16 0 32 15t26.5 39t10.5 47
q0 14 -6.5 23.5z" />
    <glyph glyph-name="uni0E0E" unicode="&#xe0e;" horiz-adv-x="655" 
d="M545.5 525q59.5 -43 59.5 -133q0 -28 -6 -60l-106 -598h-105q-45 54 -95 88q-32 -34 -71.5 -53t-83.5 -19q-49 0 -77.5 19.5t-28.5 53.5q0 40 38 64.5t97 24.5t111 -22q14 25 21 54h60q-11 -44 -33 -78q36 -22 74 -58l92 524q4 21 4 44q0 55 -33 81t-101 26l-177 -2
l94 -96l-52 -292q-8 -48 -39.5 -75.5t-77.5 -27.5q-45 0 -71.5 29.5t-26.5 79.5q0 59 31 97.5t79 38.5q13 0 26 -5l28 162l-81 90l15 86h255q121 0 180.5 -43zM141.5 67q11.5 21 11.5 52q0 27 -10 44t-28 17q-17 0 -29 -21.5t-12 -52.5q0 -27 10.5 -43.5t28.5 -16.5
q17 0 28.5 21zM201.5 -191q26.5 14 47.5 38q-47 20 -90 20q-31 0 -49.5 -12t-18.5 -32q0 -13 14 -20.5t41 -7.5q29 0 55.5 14z" />
    <glyph glyph-name="doChadathai.short" horiz-adv-x="655" 
d="M545.5 525q59.5 -43 59.5 -133q0 -28 -6 -60l-94 -532h-106q-46 48 -94 79q-31 -35 -72 -55t-85 -20q-47 0 -76.5 16.5t-29.5 49.5q0 43 37.5 69.5t96.5 26.5q58 0 113 -21q14 29 19 53h59q-10 -40 -30 -75q40 -24 74 -53l81 462q4 21 4 43q0 55 -33 81.5t-101 26.5
l-177 -2l94 -96l-50 -282q-8 -48 -39.5 -75.5t-78.5 -27.5q-44 0 -70 30t-26 79q0 60 30.5 98.5t78.5 38.5q13 0 26 -5l26 151l-81 90l15 86h255q121 0 180.5 -43zM143.5 76.5q11.5 20.5 11.5 52.5q0 28 -10.5 44.5t-28.5 16.5q-17 0 -29 -21.5t-12 -52.5q0 -27 10.5 -43.5
t28.5 -16.5t29.5 20.5zM260 -98q-46 19 -92 19q-31 0 -49 -12t-18 -32q0 -13 13.5 -20.5t41.5 -7.5q58 0 104 53z" />
    <glyph glyph-name="uni0E0F" unicode="&#xe0f;" horiz-adv-x="655" 
d="M545.5 525q59.5 -43 59.5 -133q0 -28 -6 -60l-106 -598h-109l-56 95l-89 -95q-22 37 -49 67q-58 -51 -122 -51q-42 0 -67.5 19.5t-25.5 51.5q0 42 32 66.5t85 24.5q29 0 52.5 -9t45.5 -27q23 36 30 73h59q-16 -63 -53 -107q4 -5 10.5 -13t14.5 -21l91 100l58 -101l92 525
q4 21 4 44q0 55 -33 81t-101 26l-177 -2l94 -96l-51 -291q-9 -48 -40 -75t-78 -27q-45 0 -71 29.5t-26 78.5q0 60 30.5 98.5t78.5 38.5q12 0 27 -5l27 160l-81 90l15 86h255q121 0 180.5 -43zM141.5 68q11.5 21 11.5 52q0 28 -10 45t-28 17q-17 0 -29 -21.5t-12 -52.5
q0 -27 10.5 -44t28.5 -17q17 0 28.5 21zM155 -166q-16 16 -32.5 24.5t-37.5 8.5q-26 0 -41 -11t-15 -30q0 -13 11 -20.5t33 -7.5q46 0 82 36z" />
    <glyph glyph-name="toPatakthai.short" horiz-adv-x="655" 
d="M545.5 525q59.5 -43 59.5 -133q0 -28 -6 -60l-96 -542h-109l-54 88l-83 -89q-25 41 -50 67q-57 -50 -122 -50q-41 0 -66 19.5t-25 53.5q0 40 31.5 64.5t82.5 24.5q57 0 99 -36q16 22 24 50h58q-17 -49 -45 -84l9 -12t15 -23l85 93l57 -95l82 471q4 21 4 44q0 55 -33 81
t-101 26l-177 -2l94 -96l-50 -282q-8 -48 -40 -75.5t-78 -27.5q-44 0 -70 30t-26 79q0 60 30.5 98.5t78.5 38.5q12 0 27 -5l26 150l-82 91l15 86h255q121 0 180.5 -43zM143.5 77q11.5 21 11.5 52q0 27 -10.5 44t-28.5 17q-17 0 -29 -21.5t-12 -52.5q0 -27 11 -43.5t28 -16.5
q18 0 29.5 21zM173 -110q-16 16 -32 24t-37 8q-26 0 -41 -10.5t-15 -29.5q0 -13 11.5 -20.5t32.5 -7.5q43 0 81 36z" />
    <glyph glyph-name="uni0E10" unicode="&#xe10;" horiz-adv-x="558" 
d="M200 479.5q-34 -11.5 -34 -27.5q0 -11 28 -20t59.5 -16l40.5 -9q110 -23 150.5 -54t40.5 -72q0 -14 -3 -29l-19 -110q-12 -72 -55 -107t-119 -35h-117q7 58 10 91q-12 -3 -25 -3q-40 0 -62.5 26.5t-22.5 70.5q0 53 29 87.5t78 34.5q45 0 70.5 -31.5t27.5 -88.5
q2 -45 -3 -110h11q65 0 75 65l18 100q1 4 1 12q0 24 -28 41t-107 38l-33 9q-79 21 -115.5 39.5t-36.5 53.5q0 34 29.5 64.5t86 49.5t134.5 19q140 0 254 -55l-38 -81q-38 24 -101 41.5t-133 17.5q-57 0 -91 -11.5zM140 154q10 -15 28 -15q17 0 28.5 19t11.5 45
q0 23 -10.5 37.5t-27.5 14.5q-18 0 -29 -18t-11 -44q0 -24 10 -39zM406.5 -44.5q24.5 -16.5 24.5 -43.5q0 -7 -1 -10l-30 -166h-77l-70 45l-68 -46l-17 15q-22 20 -34 30q-52 -44 -108 -44q-35 0 -54.5 16.5t-19.5 44.5q0 34 26.5 54.5t70.5 20.5t84 -27q12 21 18 56h52
q-12 -49 -35 -81q9 -9 16.5 -15.5t14.5 -12.5l59 42l86 -51l13 67q-20 -5 -39 -5q-39 0 -61.5 14.5t-22.5 40.5q0 31 30 51.5t76 20.5q42 0 66.5 -16.5zM292 -109.5q12 -5.5 32 -5.5q21 0 37 7.5t16 17.5t-13 16.5t-30 6.5q-22 0 -38 -8t-16 -19q0 -10 12 -15.5zM103 -194
q-29 27 -59 27q-21 0 -33.5 -9.5t-12.5 -24.5q0 -11 9.5 -17.5t26.5 -6.5q34 0 69 31z" />
    <glyph glyph-name="thoThanthai.less" horiz-adv-x="558" 
d="M200.5 479q-34.5 -12 -34.5 -29q0 -10 33.5 -20t94.5 -23q102 -22 146.5 -49.5t44.5 -78.5q0 -12 -3 -27l-19 -110q-14 -72 -56.5 -107t-117.5 -35h-117q6 44 10 91q-12 -3 -24 -3q-40 0 -63.5 29t-23.5 72q0 54 28.5 86t75.5 32q46 0 73 -32t29 -88q2 -54 -3 -110h11
q65 0 75 65l18 100q1 3 1 9q0 30 -31.5 47t-103.5 35q-101 25 -144 46t-43 59q0 37 31 66.5t86.5 46.5t125.5 17q76 0 143 -15t118 -40l-35 -81q-34 21 -99.5 40t-130.5 19q-61 0 -95.5 -12zM140 154q10 -15 28 -15q16 0 28 19t12 45q0 23 -10.5 37.5t-27.5 14.5
q-18 0 -29 -17.5t-11 -44.5q0 -24 10 -39z" />
    <glyph glyph-name="uni0E11" unicode="&#xe11;" horiz-adv-x="692" 
d="M617.5 537.5q31.5 -30.5 31.5 -91.5q0 -20 -5 -52l-69 -394h-107l70 394q4 28 4 37q0 27 -12 39.5t-38 12.5q-93 0 -214 -187q-16 -26 -24 -49.5t-14 -57.5l-34 -189h-106l34 189q7 39 26 71t52 75q22 28 33.5 46t14.5 35l2 17l1 9q0 21 -17 43q0 -36 -19 -69.5
t-48.5 -54t-61.5 -20.5t-52.5 21t-20.5 55q0 39 19.5 74t51.5 56t67 21q37 0 64 -17t46 -53l11 62h36q5 -45 5 -69q0 -18 -1 -26q36 49 83.5 76t98.5 27q61 0 92.5 -30.5zM170 421q21 29 21 63q0 14 -6 23t-16 9q-25 0 -46.5 -28.5t-21.5 -62.5q0 -15 6.5 -24t17.5 -9
q24 0 45 29z" />
    <glyph glyph-name="uni0E12" unicode="&#xe12;" horiz-adv-x="944" 
d="M925 560l-71 -404q-29 -166 -181 -166q-39 0 -70 14.5t-52 40.5q-15 -26 -38 -40.5t-51 -14.5q-45 0 -71.5 31t-26.5 78q0 58 31 96t80 39l28 160q2 16 2 24q0 28 -11.5 49t-32.5 31l-103 -81l-71 81q-31 -13 -51.5 -40t-27.5 -64l-56 -319q42 13 78.5 41t57.5 63h-6
q-29 0 -45 17t-16 46q0 34 16.5 66t43.5 52t55 20q32 0 47.5 -18t15.5 -47q0 -64 -39 -131.5t-104 -117.5t-138 -66h-84l73 409q11 61 66.5 104t140.5 55l57 -76l87 76q72 -12 112.5 -48.5t40.5 -87.5q0 -7 -2 -23l-37 -215q-1 -4 -1 -13q0 -23 11.5 -48t32.5 -41.5
t48 -16.5q70 0 85 81l71 404h106zM273.5 228q5.5 -8 14.5 -8q23 0 43 28.5t20 61.5q0 13 -5.5 21t-15.5 8q-22 0 -42 -29t-20 -61q0 -13 5.5 -21zM499 65q12 20 12 51q0 27 -10.5 45t-30.5 18q-19 0 -32 -22t-13 -52q0 -26 11.5 -43t31.5 -17q19 0 31 20z" />
    <glyph glyph-name="uni0E13" unicode="&#xe13;" horiz-adv-x="931" 
d="M871 215.5q16 -27.5 16 -65.5q0 -43 -16 -80t-44 -58.5t-62 -21.5q-35 0 -58 22t-27 59q-73 -81 -147 -81q-61 0 -92.5 29t-31.5 85q0 20 5 48l29 164q6 35 6 61q0 54 -25 80t-79 26q-50 0 -164 -2l87 -91l-9 -51q-37 -15 -58.5 -41t-32.5 -67q18 4 26 4q34 0 54 -21
t20 -57q0 -43 -19.5 -81.5t-52.5 -62t-71 -23.5q-40 0 -63.5 21t-23.5 58q0 16 2 24l22 123q21 117 125 158l1 4l-96 104l15 86h241q106 0 157 -43.5t51 -132.5q0 -37 -7 -76l-30 -164q-3 -16 -3 -29q0 -48 49 -48q33 0 65.5 23.5t55 54.5t25.5 50l63 357h106l-54 -310
q29 -7 45 -34.5zM808 76.5q17 31.5 17 71.5q0 22 -7.5 35.5t-21.5 13.5q-21 0 -38 -32t-17 -72q0 -22 7.5 -35t20.5 -13q22 0 39 31.5zM199.5 170.5q-6.5 9.5 -16.5 9.5q-16 0 -32 -15.5t-26.5 -39.5t-10.5 -47q0 -14 6.5 -23t16.5 -9q16 0 32 15t26.5 39t10.5 47
q0 14 -6.5 23.5z" />
    <glyph glyph-name="uni0E14" unicode="&#xe14;" horiz-adv-x="648" 
d="M541 525.5q61 -42.5 61 -116.5q0 -14 -3 -31l-67 -378h-105l67 378q2 12 2 19q0 40 -33 63t-95 23q-68 0 -111 -28.5t-51 -76.5l-54 -301q34 7 69 28t56 46q-27 3 -39.5 21.5t-12.5 45.5q0 38 19 74.5t48.5 60t59.5 23.5q34 0 51.5 -19.5t17.5 -51.5q0 -59 -42 -127.5
t-106 -114.5q-33 -23 -79 -42t-75 -21h-85l67 378q16 89 88 139.5t186 50.5q105 0 166 -42.5zM313.5 314q-15.5 -15 -26 -38t-10.5 -46q0 -14 6.5 -23.5t16.5 -9.5q16 0 32 15t26.5 38.5t10.5 46.5q0 14 -6.5 23t-17.5 9q-16 0 -31.5 -15z" />
    <glyph glyph-name="uni0E15" unicode="&#xe15;" horiz-adv-x="654" 
d="M571 519.5q41 -36.5 41 -87.5q0 -7 -2 -23l-72 -409h-105l70 394q2 9 2 25q0 28 -11.5 48.5t-32.5 30.5l-103 -81l-71 81q-31 -13 -51.5 -40t-27.5 -64l-55 -316q35 8 67.5 27.5t56.5 45.5q-27 3 -39.5 21.5t-12.5 45.5q0 38 19 74.5t48.5 60t59.5 23.5q34 0 51.5 -19.5
t17.5 -51.5q0 -66 -41.5 -131t-111.5 -112t-149 -62h-85l73 409q11 60 66.5 103.5t140.5 55.5l57 -76l87 76q72 -12 113 -48.5zM313.5 314q-15.5 -15 -26 -38t-10.5 -46q0 -14 6.5 -23.5t16.5 -9.5q16 0 32 15t26.5 38.5t10.5 46.5q0 14 -6.5 23t-17.5 9q-16 0 -31.5 -15z
" />
    <glyph glyph-name="uni0E16" unicode="&#xe16;" horiz-adv-x="628" 
d="M517.5 520.5q57.5 -47.5 57.5 -139.5q0 -30 -6 -65l-55 -316h-107l56 316q5 30 5 49q0 58 -31 88t-92 30q-50 0 -164 -2l87 -91l-9 -51q-37 -15 -58.5 -41t-32.5 -67q18 4 26 4q34 0 54 -21t20 -57q0 -43 -19.5 -81.5t-52.5 -62t-71 -23.5q-40 0 -63.5 21t-23.5 58
q0 16 2 24l22 123q21 117 125 158l1 4l-96 104l15 86h241q112 0 169.5 -47.5zM199.5 170.5q-6.5 9.5 -16.5 9.5q-16 0 -32 -15.5t-26.5 -39.5t-10.5 -47q0 -14 6.5 -23t16.5 -9q16 0 32 15t26.5 39t10.5 47q0 14 -6.5 23.5z" />
    <glyph glyph-name="uni0E17" unicode="&#xe17;" horiz-adv-x="681" 
d="M605.5 537.5q32.5 -30.5 32.5 -90.5q0 -21 -5 -51l-70 -396h-106l70 396q4 28 4 36q0 51 -49 51q-47 0 -102 -60.5t-120 -175.5q-16 -29 -25 -53t-14 -53l-25 -141h-106l57 327q-9 -4 -22 -4q-35 0 -54.5 22t-19.5 59q0 43 19.5 80.5t52.5 60.5t70 23q41 0 64 -21.5
t23 -58.5q0 -7 -2 -23l-21 -114q62 111 124.5 164t129.5 53q62 0 94.5 -30.5zM166.5 393.5q15.5 15.5 26 39.5t10.5 47q0 15 -6 23.5t-16 8.5q-16 0 -32 -15t-26.5 -38.5t-10.5 -46.5q0 -15 6.5 -24.5t16.5 -9.5q16 0 31.5 15.5z" />
    </font>
</defs>
</svg>
