<?xml version="1.0" standalone="no"?>
<!DOCTYPE svg PUBLIC "-//W3C//DTD SVG 1.1//EN" "http://www.w3.org/Graphics/SVG/1.1/DTD/svg11.dtd" >
<svg xmlns="http://www.w3.org/2000/svg" xmlns:xlink="http://www.w3.org/1999/xlink" version="1.1">
<metadata>
Created by FontForge 20190801 at Fri Sep  7 15:55:45 2018
 By Jimmy Wärting
Copyright 2018 The KoHo Project Authors (https://github.com/cadsondemak/Koho)
</metadata>
<defs>
<font id="KoHo-LightItalic" horiz-adv-x="0" >
  <font-face 
    font-family="KoHo Light"
    font-weight="300"
    font-style="italic"
    font-stretch="normal"
    units-per-em="1000"
    panose-1="0 0 4 0 0 0 0 0 0 0"
    ascent="800"
    descent="-200"
    x-height="470"
    cap-height="700"
    bbox="-510 -456 1228 1119"
    underline-thickness="50"
    underline-position="-100"
    slope="-10"
    unicode-range="U+000D-FB02"
  />
<missing-glyph horiz-adv-x="719" 
d="M226 999h536l-176 -999h-536zM546 50l158 899h-439l-158 -899h439z" />
    <glyph glyph-name="fi" unicode="fi" horiz-adv-x="487" 
d="M322.5 18q-8.5 15 -8.5 34q0 6 2 20l64 359h-207l-76 -431h-48l96 546q14 80 63 121t128 41h21l-7 -40h-21q-56 0 -90 -31t-45 -91l-14 -76h255l-71 -402q-1 -4 -1 -12q0 -11 4 -19t15 -18l-33 -30q-18 14 -26.5 29zM409 598q-9 9 -9 22q0 18 14 31.5t32 13.5q14 0 23 -9
t9 -22q0 -17 -14 -31t-32 -14q-14 0 -23 9z" />
    <glyph glyph-name="fl" unicode="fl" horiz-adv-x="491" 
d="M180 470h135l-8 -40h-134l-76 -430h-48l96 546q14 80 63 121t128 41h20l-6 -40h-21q-56 0 -90 -31t-45 -91zM373 68q-1 -5 -1 -14q0 -18 18 -35l-33 -30q-18 14 -26 28.5t-8 33.5q0 5 2 21l98 558q1 5 1 13q0 18 -18 36l33 29q34 -24 34 -61q0 -5 -2 -21z" />
    <glyph glyph-name="uni0E240E45" unicode="&#xe24;&#xe45;" horiz-adv-x="918" 
d="M824 530.5q41 -36.5 41 -100.5q0 -18 -3 -38l-113 -642h-49l113 642q3 17 3 31q0 48 -28.5 75.5t-79.5 27.5q-53 0 -93.5 -17t-87.5 -59q6 -25 6 -57q0 -29 -6 -64l-102 -579h-49l102 579q6 33 6 60q0 137 -153 137l-174 -3l79 -99l-6 -34q-48 -19 -71.5 -51t-32.5 -87
l-10 -56q28 23 55 23q25 0 39.5 -18t14.5 -47q0 -40 -17 -78t-45.5 -62t-59.5 -24q-26 0 -41.5 18t-15.5 49q0 16 2 24l30 171q21 119 115 158l1 4l-85 110l7 43h215q135 0 180 -78q46 40 92.5 59t107.5 19q72 0 113 -36.5zM128 169.5q-19 -19.5 -31.5 -50t-12.5 -59.5
q0 -17 6.5 -27.5t18.5 -10.5q19 0 38 19t31 49t12 59q0 18 -6.5 29t-17.5 11q-19 0 -38 -19.5z" />
    <glyph glyph-name="uni0E260E45" unicode="&#xe26;&#xe45;" horiz-adv-x="948" 
d="M855 530.5q41 -36.5 41 -100.5q0 -12 -4 -38l-113 -642h-49l113 642q3 17 3 32q0 48 -29 75t-79 27q-53 0 -93 -17.5t-88 -59.5q5 -25 5 -51q0 -30 -6 -66l-102 -582h-49l102 582q6 33 6 61q0 68 -37.5 100.5t-114.5 32.5l-136 -2l-60 -1l74 -96l-61 -349q-7 -40 -30 -64
t-55 -24q-35 0 -55 28t-20 74q0 55 24 91t61 36q14 0 26.5 -6.5t21.5 -17.5l40 227l-77 102l8 43h239q138 0 181 -78q47 40 92.5 59t107.5 19q72 0 113 -36.5zM129.5 49q13.5 27 13.5 66q0 33 -11.5 53.5t-32.5 20.5q-19 0 -33 -28t-14 -66q0 -33 11.5 -53t32.5 -20
q20 0 33.5 27z" />
    <glyph glyph-name=".notdef" horiz-adv-x="719" 
d="M226 999h536l-176 -999h-536zM546 50l158 899h-439l-158 -899h439z" />
    <glyph glyph-name="NULL" 
 />
    <glyph glyph-name="NULL" 
 />
    <glyph glyph-name="nonmarkingreturn" unicode="&#xd;" horiz-adv-x="236" 
 />
    <glyph glyph-name="space" unicode=" " horiz-adv-x="236" 
 />
    <glyph glyph-name="A" unicode="A" horiz-adv-x="650" 
d="M490 243h-327l-119 -243h-53l289 593q30 62 57.5 90t70.5 28q41 0 61 -27t28 -91l79 -593h-53zM485 285l-42 308q-5 38 -14 53.5t-28 15.5t-33.5 -15t-33.5 -54l-151 -308h302z" />
    <glyph glyph-name="Aacute" unicode="&#xc1;" horiz-adv-x="650" 
d="M490 243h-327l-119 -243h-53l289 593q30 62 57.5 90t70.5 28q41 0 61 -27t28 -91l79 -593h-53zM485 285l-42 308q-5 38 -14 53.5t-28 15.5t-33.5 -15t-33.5 -54l-151 -308h302zM506 923h56l-120 -141h-41z" />
    <glyph glyph-name="Abreve" unicode="&#x102;" horiz-adv-x="650" 
d="M490 243h-327l-119 -243h-53l289 593q30 62 57.5 90t70.5 28q41 0 61 -27t28 -91l79 -593h-53zM485 285l-42 308q-5 38 -14 53.5t-28 15.5t-33.5 -15t-33.5 -54l-151 -308h302zM333 806q-33 29 -33 78q0 13 3 28h36l-1 -14q0 -39 23 -60.5t65 -21.5q45 0 77 25.5t43 70.5
h37q-11 -62 -54 -98.5t-107 -36.5q-56 0 -89 29z" />
    <glyph glyph-name="uni1EAE" unicode="&#x1eae;" horiz-adv-x="650" 
d="M490 243h-327l-119 -243h-53l289 593q30 62 57.5 90t70.5 28q41 0 61 -27t28 -91l79 -593h-53zM485 285l-42 308q-5 38 -14 53.5t-28 15.5t-33.5 -15t-33.5 -54l-151 -308h302zM508 1062h56l-91 -104h-41zM331.5 805.5q-31.5 28.5 -31.5 78.5q0 13 3 28h36l-1 -14
q0 -39 23 -60.5t65 -21.5q46 0 77.5 25.5t42.5 70.5h37q-11 -62 -55.5 -98.5t-108.5 -36.5q-56 0 -87.5 28.5z" />
    <glyph glyph-name="uni1EB6" unicode="&#x1eb6;" horiz-adv-x="650" 
d="M490 243h-327l-119 -243h-53l289 593q30 62 57.5 90t70.5 28q41 0 61 -27t28 -91l79 -593h-53zM485 285l-42 308q-5 38 -14 53.5t-28 15.5t-33.5 -15t-33.5 -54l-151 -308h302zM232.5 -143.5q-9.5 9.5 -9.5 23.5q0 18 15 32.5t33 14.5q15 0 24.5 -9.5t9.5 -23.5
q0 -18 -14.5 -32.5t-33.5 -14.5q-15 0 -24.5 9.5zM333 806q-33 29 -33 78q0 13 3 28h36l-1 -14q0 -39 23 -60.5t65 -21.5q45 0 77 25.5t43 70.5h37q-11 -62 -54 -98.5t-107 -36.5q-56 0 -89 29z" />
    <glyph glyph-name="uni1EB0" unicode="&#x1eb0;" horiz-adv-x="650" 
d="M490 243h-327l-119 -243h-53l289 593q30 62 57.5 90t70.5 28q41 0 61 -27t28 -91l79 -593h-53zM485 285l-42 308q-5 38 -14 53.5t-28 15.5t-33.5 -15t-33.5 -54l-151 -308h302zM374 1062h56l40 -104h-41zM331.5 805.5q-31.5 28.5 -31.5 78.5q0 13 3 28h36l-1 -14
q0 -39 23 -60.5t65 -21.5q46 0 77.5 25.5t42.5 70.5h37q-11 -62 -55.5 -98.5t-108.5 -36.5q-56 0 -87.5 28.5z" />
    <glyph glyph-name="uni1EB2" unicode="&#x1eb2;" horiz-adv-x="650" 
d="M490 243h-327l-119 -243h-53l289 593q30 62 57.5 90t70.5 28q41 0 61 -27t28 -91l79 -593h-53zM485 285l-42 308q-5 38 -14 53.5t-28 15.5t-33.5 -15t-33.5 -54l-151 -308h302zM420 1053l-3 31q30 11 59 11q33 0 51.5 -12.5t18.5 -37.5q0 -9 -1 -14q-5 -29 -24.5 -43.5
t-53.5 -21.5l-6 -36h-39l10 59q43 5 59 14.5t16 32.5q0 14 -10 19.5t-30 5.5t-47 -8zM583 912q-11 -63 -55 -99t-109 -36q-57 0 -88 27.5t-31 76.5q0 15 3 31h36l-1 -13q0 -39 23.5 -61t64.5 -22q45 0 77 26t43 70h37z" />
    <glyph glyph-name="uni1EB4" unicode="&#x1eb4;" horiz-adv-x="650" 
d="M490 243h-327l-119 -243h-53l289 593q30 62 57.5 90t70.5 28q41 0 61 -27t28 -91l79 -593h-53zM485 285l-42 308q-5 38 -14 53.5t-28 15.5t-33.5 -15t-33.5 -54l-151 -308h302zM345 1017.5q24 24.5 61 24.5q19 0 34 -6.5t33 -18.5q28 -19 47 -19q21 0 32 11t20 35h33
q-9 -35 -33 -59t-59 -24q-20 0 -35 6.5t-33 18.5q-17 10 -25.5 14t-19.5 4q-21 0 -33 -11t-22 -37h-33q9 37 33 61.5zM331.5 805q-31.5 28 -31.5 78q0 14 3 29h37q-1 -5 -1 -15q0 -38 23 -59.5t65 -21.5q45 0 77 26t43 70h36q-10 -63 -54 -99t-109 -36q-57 0 -88.5 28z" />
    <glyph glyph-name="uni01CD" unicode="&#x1cd;" horiz-adv-x="650" 
d="M490 243h-327l-119 -243h-53l289 593q30 62 57.5 90t70.5 28q41 0 61 -27t28 -91l79 -593h-53zM485 285l-42 308q-5 38 -14 53.5t-28 15.5t-33.5 -15t-33.5 -54l-151 -308h302zM362 865q-29 43 -56 64h50q21 -19 42.5 -50.5t29.5 -52.5q14 20 47.5 51.5t62.5 51.5h50
q-35 -23 -79.5 -65.5t-71.5 -81.5h-32q-14 40 -43 83z" />
    <glyph glyph-name="Acircumflex" unicode="&#xc2;" horiz-adv-x="650" 
d="M490 243h-327l-119 -243h-53l289 593q30 62 57.5 90t70.5 28q41 0 61 -27t28 -91l79 -593h-53zM485 285l-42 308q-5 38 -14 53.5t-28 15.5t-33.5 -15t-33.5 -54l-151 -308h302zM358.5 847.5q44.5 42.5 71.5 81.5h31q14 -40 43.5 -82.5t56.5 -64.5h-51q-21 19 -42.5 50.5
t-29.5 52.5q-12 -19 -46 -51t-63 -52h-51q36 23 80.5 65.5z" />
    <glyph glyph-name="uni1EA4" unicode="&#x1ea4;" horiz-adv-x="650" 
d="M490 243h-327l-119 -243h-53l289 593q30 62 57.5 90t70.5 28q41 0 61 -27t28 -91l79 -593h-53zM485 285l-42 308q-5 38 -14 53.5t-28 15.5t-33.5 -15t-33.5 -54l-151 -308h302zM611 969h53l-89 -104h-41zM358.5 847q44.5 43 71.5 82h32q13 -39 42.5 -82t56.5 -65h-48
q-22 20 -45.5 52.5t-27.5 50.5q-11 -19 -45 -51t-63 -52h-53q35 22 79.5 65z" />
    <glyph glyph-name="uni1EAC" unicode="&#x1eac;" horiz-adv-x="650" 
d="M490 243h-327l-119 -243h-53l289 593q30 62 57.5 90t70.5 28q41 0 61 -27t28 -91l79 -593h-53zM485 285l-42 308q-5 38 -14 53.5t-28 15.5t-33.5 -15t-33.5 -54l-151 -308h302zM232.5 -143.5q-9.5 9.5 -9.5 23.5q0 18 15 32.5t33 14.5q15 0 24.5 -9.5t9.5 -23.5
q0 -18 -14.5 -32.5t-33.5 -14.5q-15 0 -24.5 9.5zM358.5 847.5q44.5 42.5 71.5 81.5h31q14 -40 43.5 -82.5t56.5 -64.5h-51q-21 19 -42.5 50.5t-29.5 52.5q-12 -19 -46 -51t-63 -52h-51q36 23 80.5 65.5z" />
    <glyph glyph-name="uni1EA6" unicode="&#x1ea6;" horiz-adv-x="650" 
d="M490 243h-327l-119 -243h-53l289 593q30 62 57.5 90t70.5 28q41 0 61 -27t28 -91l79 -593h-53zM485 285l-42 308q-5 38 -14 53.5t-28 15.5t-33.5 -15t-33.5 -54l-151 -308h302zM536 969h53l41 -104h-41zM358.5 847q44.5 43 71.5 82h32q13 -39 42.5 -82t56.5 -65h-48
q-22 20 -45.5 52.5t-27.5 50.5q-11 -19 -45 -51t-63 -52h-53q35 22 79.5 65z" />
    <glyph glyph-name="uni1EA8" unicode="&#x1ea8;" horiz-adv-x="650" 
d="M490 243h-327l-119 -243h-53l289 593q30 62 57.5 90t70.5 28q41 0 61 -27t28 -91l79 -593h-53zM485 285l-42 308q-5 38 -14 53.5t-28 15.5t-33.5 -15t-33.5 -54l-151 -308h302zM639 927q-20 -18 -59 -25l-6 -36h-39l10 58q41 6 58 15.5t17 32.5q0 14 -10 19.5t-30 5.5
t-47 -8l-3 31q26 10 59 10t51.5 -12.5t18.5 -37.5q0 -35 -20 -53zM504.5 847q29.5 -43 56.5 -65h-48q-22 20 -45.5 52.5t-27.5 50.5q-11 -19 -45 -51t-63 -52h-53q35 22 79.5 65t71.5 82h32q13 -39 42.5 -82z" />
    <glyph glyph-name="uni1EAA" unicode="&#x1eaa;" horiz-adv-x="650" 
d="M490 243h-327l-119 -243h-53l289 593q30 62 57.5 90t70.5 28q41 0 61 -27t28 -91l79 -593h-53zM485 285l-42 308q-5 38 -14 53.5t-28 15.5t-33.5 -15t-33.5 -54l-151 -308h302zM345 1017.5q24 24.5 61 24.5q19 0 34 -6.5t33 -18.5q28 -19 47 -19q21 0 32 11t20 35h33
q-9 -35 -33 -59t-59 -24q-20 0 -35 6.5t-33 18.5q-17 10 -25.5 14t-19.5 4q-21 0 -33 -11t-22 -37h-33q9 37 33 61.5zM358.5 847q44.5 43 71.5 82h32q13 -39 42.5 -82t56.5 -65h-48q-22 20 -45.5 52.5t-27.5 50.5q-11 -19 -45 -51t-63 -52h-53q35 22 79.5 65z" />
    <glyph glyph-name="Adieresis" unicode="&#xc4;" horiz-adv-x="650" 
d="M490 243h-327l-119 -243h-53l289 593q30 62 57.5 90t70.5 28q41 0 61 -27t28 -91l79 -593h-53zM485 285l-42 308q-5 38 -14 53.5t-28 15.5t-33.5 -15t-33.5 -54l-151 -308h302zM320 793.5q-8 8.5 -8 20.5q0 17 12.5 29.5t29.5 12.5q13 0 21 -8.5t8 -21.5q0 -16 -13 -28.5
t-29 -12.5q-13 0 -21 8.5zM478.5 793.5q-8.5 8.5 -8.5 20.5q0 16 13 29t30 13q12 0 20.5 -9t8.5 -21q0 -16 -13 -28.5t-29 -12.5q-13 0 -21.5 8.5z" />
    <glyph glyph-name="uni1EA0" unicode="&#x1ea0;" horiz-adv-x="650" 
d="M490 243h-327l-119 -243h-53l289 593q30 62 57.5 90t70.5 28q41 0 61 -27t28 -91l79 -593h-53zM485 285l-42 308q-5 38 -14 53.5t-28 15.5t-33.5 -15t-33.5 -54l-151 -308h302zM232.5 -143.5q-9.5 9.5 -9.5 23.5q0 18 15 32.5t33 14.5q15 0 24.5 -9.5t9.5 -23.5
q0 -18 -14.5 -32.5t-33.5 -14.5q-15 0 -24.5 9.5z" />
    <glyph glyph-name="Agrave" unicode="&#xc0;" horiz-adv-x="650" 
d="M490 243h-327l-119 -243h-53l289 593q30 62 57.5 90t70.5 28q41 0 61 -27t28 -91l79 -593h-53zM485 285l-42 308q-5 38 -14 53.5t-28 15.5t-33.5 -15t-33.5 -54l-151 -308h302zM324 923h56l56 -141h-42z" />
    <glyph glyph-name="uni1EA2" unicode="&#x1ea2;" horiz-adv-x="650" 
d="M490 243h-327l-119 -243h-53l289 593q30 62 57.5 90t70.5 28q41 0 61 -27t28 -91l79 -593h-53zM485 285l-42 308q-5 38 -14 53.5t-28 15.5t-33.5 -15t-33.5 -54l-151 -308h302zM444 820l-6 -38h-41l11 61q41 6 60 18t19 38q0 31 -40 31q-25 0 -49 -8l-3 32q30 11 61 11
q33 0 54 -14.5t21 -43.5q0 -70 -87 -87z" />
    <glyph glyph-name="Amacron" unicode="&#x100;" horiz-adv-x="650" 
d="M490 243h-327l-119 -243h-53l289 593q30 62 57.5 90t70.5 28q41 0 61 -27t28 -91l79 -593h-53zM485 285l-42 308q-5 38 -14 53.5t-28 15.5t-33.5 -15t-33.5 -54l-151 -308h302zM283 836h293l-7 -40h-293z" />
    <glyph glyph-name="Aogonek" unicode="&#x104;" horiz-adv-x="650" 
d="M607 -172q-33 -18 -71 -18q-42 0 -60.5 18.5t-18.5 44.5q0 31 20 64t51 63h-5l-33 243h-327l-119 -243h-53l289 593q30 62 57.5 90t70.5 28q41 0 61 -27t28 -91l79 -593h-9q-28 -34 -46 -62.5t-18 -55.5q0 -18 12 -27t31 -9q22 0 57 14zM485 285l-42 308q-5 38 -14 53.5
t-28 15.5t-33.5 -15t-33.5 -54l-151 -308h302z" />
    <glyph glyph-name="Aring" unicode="&#xc5;" horiz-adv-x="650" 
d="M490 243h-327l-119 -243h-53l289 593q30 62 57.5 90t70.5 28q41 0 61 -27t28 -91l79 -593h-53zM485 285l-42 308q-5 38 -14 53.5t-28 15.5t-33.5 -15t-33.5 -54l-151 -308h302zM361.5 789.5q-20.5 19.5 -20.5 51.5q0 45 30.5 74.5t76.5 29.5q36 0 56.5 -19.5t20.5 -51.5
q0 -45 -30 -74.5t-77 -29.5q-36 0 -56.5 19.5zM471 820q19 20 19 51q0 20 -12.5 32t-34.5 12q-29 0 -48 -20t-19 -51q0 -21 12.5 -32.5t34.5 -11.5q29 0 48 20z" />
    <glyph glyph-name="Aringacute" unicode="&#x1fa;" horiz-adv-x="650" 
d="M492 997h-37l94 113h51zM361.5 789.5q-20.5 19.5 -20.5 51.5q0 45 30.5 74.5t76.5 29.5q36 0 56.5 -19.5t20.5 -51.5q0 -45 -30 -74.5t-77 -29.5q-36 0 -56.5 19.5zM395 895q-19 -20 -19 -51q0 -21 12.5 -32.5t34.5 -11.5q29 0 48 20t19 51q0 20 -12.5 32t-34.5 12
q-29 0 -48 -20zM469 684q20 -27 28 -91l79 -593h-53l-33 243h-327l-119 -243h-53l289 593q30 62 57.5 90t70.5 28q41 0 61 -27zM485 285l-42 308q-5 38 -14 53.5t-28 15.5t-33.5 -15t-33.5 -54l-151 -308h302z" />
    <glyph glyph-name="Atilde" unicode="&#xc3;" horiz-adv-x="650" 
d="M490 243h-327l-119 -243h-53l289 593q30 62 57.5 90t70.5 28q41 0 61 -27t28 -91l79 -593h-53zM485 285l-42 308q-5 38 -14 53.5t-28 15.5t-33.5 -15t-33.5 -54l-151 -308h302zM307.5 851.5q25.5 26.5 65.5 26.5q20 0 35 -6.5t35 -19.5q17 -11 27.5 -16t22.5 -5
q22 0 34.5 11.5t22.5 37.5h35q-9 -38 -34.5 -64t-63.5 -26q-20 0 -35 6.5t-35 19.5q-17 11 -27.5 16t-22.5 5q-23 0 -36 -12.5t-24 -39.5h-35q10 40 35.5 66.5z" />
    <glyph glyph-name="AE" unicode="&#xc6;" horiz-adv-x="1046" 
d="M606 402l-5 -30h362l-7 -43h-363l-21 -122q-5 -28 -5 -48q0 -59 36 -87.5t111 -28.5h251l-7 -43h-251q-99 0 -146 37.5t-47 112.5q0 27 6 57l6 36h-303l-175 -243h-57l419 583q33 46 53.5 68.5t45 35.5t59.5 13q27 0 46 -15.5t25 -47.5q65 63 188 63h246l-8 -43h-243
q-165 0 -198 -151zM534 285l36 209l3 16l13 73q3 15 3 26q0 43 -33 43q-25 0 -41.5 -14.5t-45.5 -54.5l-215 -298h280z" />
    <glyph glyph-name="AEacute" unicode="&#x1fc;" horiz-adv-x="1046" 
d="M606 402l-5 -30h362l-7 -43h-363l-21 -122q-5 -28 -5 -48q0 -59 36 -87.5t111 -28.5h251l-7 -43h-251q-99 0 -146 37.5t-47 112.5q0 27 6 57l6 36h-303l-175 -243h-57l419 583q33 46 53.5 68.5t45 35.5t59.5 13q27 0 46 -15.5t25 -47.5q65 63 188 63h246l-8 -43h-243
q-165 0 -198 -151zM534 285l36 209l3 16l13 73q3 15 3 26q0 43 -33 43q-25 0 -41.5 -14.5t-45.5 -54.5l-215 -298h280zM703 923h56l-120 -141h-41z" />
    <glyph glyph-name="B" unicode="B" horiz-adv-x="662" 
d="M180 700h292q77 0 121 -37t44 -103q0 -65 -41.5 -118.5t-105.5 -70.5q49 -14 79 -49.5t30 -91.5q0 -67 -32 -119.5t-89.5 -81.5t-132.5 -29h-288zM420 391q45 0 83 22t60 59.5t22 80.5q0 49 -31 76.5t-87 27.5h-243l-46 -266h242zM342 43q94 0 149.5 50.5t55.5 135.5
q0 59 -40.5 89t-110.5 30h-226l-54 -305h226z" />
    <glyph glyph-name="C" unicode="C" horiz-adv-x="630" 
d="M127.5 40q-62.5 51 -62.5 146q0 33 5 58l38 213q22 124 100.5 189t206.5 65q173 0 236 -108l-42 -28q-27 47 -75 70t-120 23q-105 0 -170.5 -54t-83.5 -157l-38 -213q-5 -32 -5 -52q0 -77 49 -118t142 -41q75 0 131 23.5t100 71.5l31 -30q-54 -57 -116.5 -83t-146.5 -26
q-117 0 -179.5 51z" />
    <glyph glyph-name="Cacute" unicode="&#x106;" horiz-adv-x="630" 
d="M127.5 40q-62.5 51 -62.5 146q0 33 5 58l38 213q22 124 100.5 189t206.5 65q173 0 236 -108l-42 -28q-27 47 -75 70t-120 23q-105 0 -170.5 -54t-83.5 -157l-38 -213q-5 -32 -5 -52q0 -77 49 -118t142 -41q75 0 131 23.5t100 71.5l31 -30q-54 -57 -116.5 -83t-146.5 -26
q-117 0 -179.5 51zM525 923h56l-120 -141h-41z" />
    <glyph glyph-name="Ccaron" unicode="&#x10c;" horiz-adv-x="630" 
d="M127.5 40q-62.5 51 -62.5 146q0 33 5 58l38 213q22 124 100.5 189t206.5 65q173 0 236 -108l-42 -28q-27 47 -75 70t-120 23q-105 0 -170.5 -54t-83.5 -157l-38 -213q-5 -32 -5 -52q0 -77 49 -118t142 -41q75 0 131 23.5t100 71.5l31 -30q-54 -57 -116.5 -83t-146.5 -26
q-117 0 -179.5 51zM380 865q-29 43 -56 64h50q21 -19 42.5 -50.5t29.5 -52.5q14 20 47.5 51.5t62.5 51.5h50q-35 -23 -79.5 -65.5t-71.5 -81.5h-32q-14 40 -43 83z" />
    <glyph glyph-name="Ccedilla" unicode="&#xc7;" horiz-adv-x="630" 
d="M651 603l-42 -28q-27 47 -75 70t-120 23q-105 0 -170.5 -54t-83.5 -157l-38 -213q-5 -32 -5 -52q0 -77 49 -118t142 -41q75 0 131 23.5t100 71.5l31 -30q-52 -55 -111 -81t-138 -28l-19 -40q34 -1 52 -15.5t18 -41.5q0 -39 -29 -59t-83 -20q-46 0 -79 18l14 32
q30 -15 67 -15q34 0 50 10t16 32q0 27 -50 27q-7 0 -29 -2l31 75q-104 6 -159.5 56.5t-55.5 140.5q0 32 5 57l38 213q22 124 100.5 189t206.5 65q173 0 236 -108z" />
    <glyph glyph-name="Ccircumflex" unicode="&#x108;" horiz-adv-x="630" 
d="M127.5 40q-62.5 51 -62.5 146q0 33 5 58l38 213q22 124 100.5 189t206.5 65q173 0 236 -108l-42 -28q-27 47 -75 70t-120 23q-105 0 -170.5 -54t-83.5 -157l-38 -213q-5 -32 -5 -52q0 -77 49 -118t142 -41q75 0 131 23.5t100 71.5l31 -30q-54 -57 -116.5 -83t-146.5 -26
q-117 0 -179.5 51zM377.5 847.5q44.5 42.5 71.5 81.5h31q14 -40 43.5 -82.5t56.5 -64.5h-51q-21 19 -42.5 50.5t-29.5 52.5q-12 -19 -46 -51t-63 -52h-51q36 23 80.5 65.5z" />
    <glyph glyph-name="Cdotaccent" unicode="&#x10a;" horiz-adv-x="630" 
d="M127.5 40q-62.5 51 -62.5 146q0 33 5 58l38 213q22 124 100.5 189t206.5 65q173 0 236 -108l-42 -28q-27 47 -75 70t-120 23q-105 0 -170.5 -54t-83.5 -157l-38 -213q-5 -32 -5 -52q0 -77 49 -118t142 -41q75 0 131 23.5t100 71.5l31 -30q-54 -57 -116.5 -83t-146.5 -26
q-117 0 -179.5 51zM415.5 793.5q-9.5 9.5 -9.5 23.5q0 18 14.5 32.5t32.5 14.5q15 0 24.5 -9.5t9.5 -23.5q0 -18 -14.5 -32.5t-32.5 -14.5q-15 0 -24.5 9.5z" />
    <glyph glyph-name="D" unicode="D" horiz-adv-x="697" 
d="M180 700h240q130 0 190 -55.5t60 -174.5q0 -147 -43 -252.5t-124.5 -161.5t-195.5 -56h-250zM307 43q98 0 167.5 50.5t106.5 146.5t37 230q0 98 -47.5 142.5t-152.5 44.5h-194l-108 -614h191z" />
    <glyph glyph-name="Eth" unicode="&#xd0;" horiz-adv-x="697" 
d="M610 644.5q60 -55.5 60 -174.5q0 -147 -43 -252.5t-124.5 -161.5t-195.5 -56h-250l58 331h-81l7 39h81l58 330h240q130 0 190 -55.5zM474.5 93.5q69.5 50.5 106.5 146.5t37 230q0 98 -47.5 142.5t-152.5 44.5h-194l-50 -287h209l-7 -39h-209l-51 -288h191
q98 0 167.5 50.5z" />
    <glyph glyph-name="Dcaron" unicode="&#x10e;" horiz-adv-x="697" 
d="M180 700h240q130 0 190 -55.5t60 -174.5q0 -147 -43 -252.5t-124.5 -161.5t-195.5 -56h-250zM307 43q98 0 167.5 50.5t106.5 146.5t37 230q0 98 -47.5 142.5t-152.5 44.5h-194l-108 -614h191zM389 865q-29 43 -56 64h50q21 -19 42.5 -50.5t29.5 -52.5q14 20 47.5 51.5
t62.5 51.5h50q-35 -23 -79.5 -65.5t-71.5 -81.5h-32q-14 40 -43 83z" />
    <glyph glyph-name="Dcroat" unicode="&#x110;" horiz-adv-x="697" 
d="M610 644.5q60 -55.5 60 -174.5q0 -147 -43 -252.5t-124.5 -161.5t-195.5 -56h-250l58 331h-81l7 39h81l58 330h240q130 0 190 -55.5zM474.5 93.5q69.5 50.5 106.5 146.5t37 230q0 98 -47.5 142.5t-152.5 44.5h-194l-50 -287h209l-7 -39h-209l-51 -288h191
q98 0 167.5 50.5z" />
    <glyph glyph-name="uni1E0C" unicode="&#x1e0c;" horiz-adv-x="697" 
d="M180 700h240q130 0 190 -55.5t60 -174.5q0 -147 -43 -252.5t-124.5 -161.5t-195.5 -56h-250zM307 43q98 0 167.5 50.5t106.5 146.5t37 230q0 98 -47.5 142.5t-152.5 44.5h-194l-108 -614h191zM259.5 -143.5q-9.5 9.5 -9.5 23.5q0 18 15 32.5t33 14.5q15 0 24.5 -9.5
t9.5 -23.5q0 -18 -14.5 -32.5t-33.5 -14.5q-15 0 -24.5 9.5z" />
    <glyph glyph-name="uni1E0E" unicode="&#x1e0e;" horiz-adv-x="697" 
d="M180 700h240q130 0 190 -55.5t60 -174.5q0 -147 -43 -252.5t-124.5 -161.5t-195.5 -56h-250zM307 43q98 0 167.5 50.5t106.5 146.5t37 230q0 98 -47.5 142.5t-152.5 44.5h-194l-108 -614h191zM149 -85h293l-7 -41h-293z" />
    <glyph glyph-name="E" unicode="E" horiz-adv-x="588" 
d="M103.5 37.5q-47.5 37.5 -47.5 113.5q0 31 5 56l50 287q19 106 79.5 156t170.5 50h254l-8 -43h-243q-84 0 -134.5 -38t-66.5 -125l-21 -122h363l-8 -43h-363l-21 -122q-5 -28 -5 -48q0 -59 36 -87.5t112 -28.5h251l-8 -43h-248q-100 0 -147.5 37.5z" />
    <glyph glyph-name="Eacute" unicode="&#xc9;" horiz-adv-x="588" 
d="M103.5 37.5q-47.5 37.5 -47.5 113.5q0 31 5 56l50 287q19 106 79.5 156t170.5 50h254l-8 -43h-243q-84 0 -134.5 -38t-66.5 -125l-21 -122h363l-8 -43h-363l-21 -122q-5 -28 -5 -48q0 -59 36 -87.5t112 -28.5h251l-8 -43h-248q-100 0 -147.5 37.5zM517 923h56l-120 -141
h-41z" />
    <glyph glyph-name="Ebreve" unicode="&#x114;" horiz-adv-x="588" 
d="M103.5 37.5q-47.5 37.5 -47.5 113.5q0 31 5 56l50 287q19 106 79.5 156t170.5 50h254l-8 -43h-243q-84 0 -134.5 -38t-66.5 -125l-21 -122h363l-8 -43h-363l-21 -122q-5 -28 -5 -48q0 -59 36 -87.5t112 -28.5h251l-8 -43h-248q-100 0 -147.5 37.5zM344 806q-33 29 -33 78
q0 13 3 28h36l-1 -14q0 -39 23 -60.5t65 -21.5q45 0 77 25.5t43 70.5h37q-11 -62 -54 -98.5t-107 -36.5q-56 0 -89 29z" />
    <glyph glyph-name="Ecaron" unicode="&#x11a;" horiz-adv-x="588" 
d="M103.5 37.5q-47.5 37.5 -47.5 113.5q0 31 5 56l50 287q19 106 79.5 156t170.5 50h254l-8 -43h-243q-84 0 -134.5 -38t-66.5 -125l-21 -122h363l-8 -43h-363l-21 -122q-5 -28 -5 -48q0 -59 36 -87.5t112 -28.5h251l-8 -43h-248q-100 0 -147.5 37.5zM373 865q-29 43 -56 64
h50q21 -19 42.5 -50.5t29.5 -52.5q14 20 47.5 51.5t62.5 51.5h50q-35 -23 -79.5 -65.5t-71.5 -81.5h-32q-14 40 -43 83z" />
    <glyph glyph-name="Ecircumflex" unicode="&#xca;" horiz-adv-x="588" 
d="M103.5 37.5q-47.5 37.5 -47.5 113.5q0 31 5 56l50 287q19 106 79.5 156t170.5 50h254l-8 -43h-243q-84 0 -134.5 -38t-66.5 -125l-21 -122h363l-8 -43h-363l-21 -122q-5 -28 -5 -48q0 -59 36 -87.5t112 -28.5h251l-8 -43h-248q-100 0 -147.5 37.5zM369.5 847.5
q44.5 42.5 71.5 81.5h31q14 -40 43.5 -82.5t56.5 -64.5h-51q-21 19 -42.5 50.5t-29.5 52.5q-12 -19 -46 -51t-63 -52h-51q36 23 80.5 65.5z" />
    <glyph glyph-name="uni1EBE" unicode="&#x1ebe;" horiz-adv-x="588" 
d="M103.5 37.5q-47.5 37.5 -47.5 113.5q0 31 5 56l50 287q19 106 79.5 156t170.5 50h254l-8 -43h-243q-84 0 -134.5 -38t-66.5 -125l-21 -122h363l-8 -43h-363l-21 -122q-5 -28 -5 -48q0 -59 36 -87.5t112 -28.5h251l-8 -43h-248q-100 0 -147.5 37.5zM622 969h53l-89 -104
h-41zM369.5 847q44.5 43 71.5 82h32q13 -39 42.5 -82t56.5 -65h-48q-22 20 -45.5 52.5t-27.5 50.5q-11 -19 -45 -51t-63 -52h-53q35 22 79.5 65z" />
    <glyph glyph-name="uni1EC6" unicode="&#x1ec6;" horiz-adv-x="588" 
d="M103.5 37.5q-47.5 37.5 -47.5 113.5q0 31 5 56l50 287q19 106 79.5 156t170.5 50h254l-8 -43h-243q-84 0 -134.5 -38t-66.5 -125l-21 -122h363l-8 -43h-363l-21 -122q-5 -28 -5 -48q0 -59 36 -87.5t112 -28.5h251l-8 -43h-248q-100 0 -147.5 37.5zM257.5 -143.5
q-9.5 9.5 -9.5 23.5q0 18 15 32.5t33 14.5q15 0 24.5 -9.5t9.5 -23.5q0 -18 -14.5 -32.5t-33.5 -14.5q-15 0 -24.5 9.5zM369.5 847.5q44.5 42.5 71.5 81.5h31q14 -40 43.5 -82.5t56.5 -64.5h-51q-21 19 -42.5 50.5t-29.5 52.5q-12 -19 -46 -51t-63 -52h-51q36 23 80.5 65.5z
" />
    <glyph glyph-name="uni1EC0" unicode="&#x1ec0;" horiz-adv-x="588" 
d="M103.5 37.5q-47.5 37.5 -47.5 113.5q0 31 5 56l50 287q19 106 79.5 156t170.5 50h254l-8 -43h-243q-84 0 -134.5 -38t-66.5 -125l-21 -122h363l-8 -43h-363l-21 -122q-5 -28 -5 -48q0 -59 36 -87.5t112 -28.5h251l-8 -43h-248q-100 0 -147.5 37.5zM547 969h53l41 -104
h-41zM369.5 847q44.5 43 71.5 82h32q13 -39 42.5 -82t56.5 -65h-48q-22 20 -45.5 52.5t-27.5 50.5q-11 -19 -45 -51t-63 -52h-53q35 22 79.5 65z" />
    <glyph glyph-name="uni1EC2" unicode="&#x1ec2;" horiz-adv-x="588" 
d="M103.5 37.5q-47.5 37.5 -47.5 113.5q0 31 5 56l50 287q19 106 79.5 156t170.5 50h254l-8 -43h-243q-84 0 -134.5 -38t-66.5 -125l-21 -122h363l-8 -43h-363l-21 -122q-5 -28 -5 -48q0 -59 36 -87.5t112 -28.5h251l-8 -43h-248q-100 0 -147.5 37.5zM650 927
q-20 -18 -59 -25l-6 -36h-39l10 58q41 6 58 15.5t17 32.5q0 14 -10 19.5t-30 5.5t-47 -8l-3 31q26 10 59 10t51.5 -12.5t18.5 -37.5q0 -35 -20 -53zM515.5 847q29.5 -43 56.5 -65h-48q-22 20 -45.5 52.5t-27.5 50.5q-11 -19 -45 -51t-63 -52h-53q35 22 79.5 65t71.5 82h32
q13 -39 42.5 -82z" />
    <glyph glyph-name="uni1EC4" unicode="&#x1ec4;" horiz-adv-x="588" 
d="M103.5 37.5q-47.5 37.5 -47.5 113.5q0 31 5 56l50 287q19 106 79.5 156t170.5 50h254l-8 -43h-243q-84 0 -134.5 -38t-66.5 -125l-21 -122h363l-8 -43h-363l-21 -122q-5 -28 -5 -48q0 -59 36 -87.5t112 -28.5h251l-8 -43h-248q-100 0 -147.5 37.5zM356 1017.5
q24 24.5 61 24.5q19 0 34 -6.5t33 -18.5q28 -19 47 -19q21 0 32 11t20 35h33q-9 -35 -33 -59t-59 -24q-20 0 -35 6.5t-33 18.5q-17 10 -25.5 14t-19.5 4q-21 0 -33 -11t-22 -37h-33q9 37 33 61.5zM369.5 847q44.5 43 71.5 82h32q13 -39 42.5 -82t56.5 -65h-48
q-22 20 -45.5 52.5t-27.5 50.5q-11 -19 -45 -51t-63 -52h-53q35 22 79.5 65z" />
    <glyph glyph-name="Edieresis" unicode="&#xcb;" horiz-adv-x="588" 
d="M103.5 37.5q-47.5 37.5 -47.5 113.5q0 31 5 56l50 287q19 106 79.5 156t170.5 50h254l-8 -43h-243q-84 0 -134.5 -38t-66.5 -125l-21 -122h363l-8 -43h-363l-21 -122q-5 -28 -5 -48q0 -59 36 -87.5t112 -28.5h251l-8 -43h-248q-100 0 -147.5 37.5zM331 793.5
q-8 8.5 -8 20.5q0 17 12.5 29.5t29.5 12.5q13 0 21 -8.5t8 -21.5q0 -16 -13 -28.5t-29 -12.5q-13 0 -21 8.5zM489.5 793.5q-8.5 8.5 -8.5 20.5q0 16 13 29t30 13q12 0 20.5 -9t8.5 -21q0 -16 -13 -28.5t-29 -12.5q-13 0 -21.5 8.5z" />
    <glyph glyph-name="Edotaccent" unicode="&#x116;" horiz-adv-x="588" 
d="M103.5 37.5q-47.5 37.5 -47.5 113.5q0 31 5 56l50 287q19 106 79.5 156t170.5 50h254l-8 -43h-243q-84 0 -134.5 -38t-66.5 -125l-21 -122h363l-8 -43h-363l-21 -122q-5 -28 -5 -48q0 -59 36 -87.5t112 -28.5h251l-8 -43h-248q-100 0 -147.5 37.5zM407.5 793.5
q-9.5 9.5 -9.5 23.5q0 18 14.5 32.5t32.5 14.5q15 0 24.5 -9.5t9.5 -23.5q0 -18 -14.5 -32.5t-32.5 -14.5q-15 0 -24.5 9.5z" />
    <glyph glyph-name="uni1EB8" unicode="&#x1eb8;" horiz-adv-x="588" 
d="M103.5 37.5q-47.5 37.5 -47.5 113.5q0 31 5 56l50 287q19 106 79.5 156t170.5 50h254l-8 -43h-243q-84 0 -134.5 -38t-66.5 -125l-21 -122h363l-8 -43h-363l-21 -122q-5 -28 -5 -48q0 -59 36 -87.5t112 -28.5h251l-8 -43h-248q-100 0 -147.5 37.5zM257.5 -143.5
q-9.5 9.5 -9.5 23.5q0 18 15 32.5t33 14.5q15 0 24.5 -9.5t9.5 -23.5q0 -18 -14.5 -32.5t-33.5 -14.5q-15 0 -24.5 9.5z" />
    <glyph glyph-name="Egrave" unicode="&#xc8;" horiz-adv-x="588" 
d="M103.5 37.5q-47.5 37.5 -47.5 113.5q0 31 5 56l50 287q19 106 79.5 156t170.5 50h254l-8 -43h-243q-84 0 -134.5 -38t-66.5 -125l-21 -122h363l-8 -43h-363l-21 -122q-5 -28 -5 -48q0 -59 36 -87.5t112 -28.5h251l-8 -43h-248q-100 0 -147.5 37.5zM335 923h56l56 -141
h-42z" />
    <glyph glyph-name="uni1EBA" unicode="&#x1eba;" horiz-adv-x="588" 
d="M103.5 37.5q-47.5 37.5 -47.5 113.5q0 31 5 56l50 287q19 106 79.5 156t170.5 50h254l-8 -43h-243q-84 0 -134.5 -38t-66.5 -125l-21 -122h363l-8 -43h-363l-21 -122q-5 -28 -5 -48q0 -59 36 -87.5t112 -28.5h251l-8 -43h-248q-100 0 -147.5 37.5zM455 820l-6 -38h-41
l11 61q41 6 60 18t19 38q0 31 -40 31q-25 0 -49 -8l-3 32q30 11 61 11q33 0 54 -14.5t21 -43.5q0 -70 -87 -87z" />
    <glyph glyph-name="Emacron" unicode="&#x112;" horiz-adv-x="588" 
d="M103.5 37.5q-47.5 37.5 -47.5 113.5q0 31 5 56l50 287q19 106 79.5 156t170.5 50h254l-8 -43h-243q-84 0 -134.5 -38t-66.5 -125l-21 -122h363l-8 -43h-363l-21 -122q-5 -28 -5 -48q0 -59 36 -87.5t112 -28.5h251l-8 -43h-248q-100 0 -147.5 37.5zM294 836h293l-7 -40
h-293z" />
    <glyph glyph-name="Eogonek" unicode="&#x118;" horiz-adv-x="588" 
d="M229.5 619q-50.5 -38 -66.5 -125l-21 -122h363l-8 -43h-363l-21 -122q-5 -28 -5 -48q0 -59 36 -87.5t112 -28.5h251l-8 -43h-43q-27 -32 -45.5 -61.5t-18.5 -56.5q0 -18 12 -27t31 -9q20 0 57 14l3 -32q-33 -18 -71 -18q-42 0 -60 18.5t-18 44.5q0 31 20 64t51 63h-166
q-100 0 -147.5 37.5t-47.5 113.5q0 31 5 56l50 287q19 106 79.5 156t170.5 50h254l-8 -43h-243q-84 0 -134.5 -38z" />
    <glyph glyph-name="uni1EBC" unicode="&#x1ebc;" horiz-adv-x="588" 
d="M103.5 37.5q-47.5 37.5 -47.5 113.5q0 31 5 56l50 287q19 106 79.5 156t170.5 50h254l-8 -43h-243q-84 0 -134.5 -38t-66.5 -125l-21 -122h363l-8 -43h-363l-21 -122q-5 -28 -5 -48q0 -59 36 -87.5t112 -28.5h251l-8 -43h-248q-100 0 -147.5 37.5zM318.5 851.5
q25.5 26.5 65.5 26.5q20 0 35 -6.5t35 -19.5q17 -11 27.5 -16t22.5 -5q22 0 34.5 11.5t22.5 37.5h35q-9 -38 -34.5 -64t-63.5 -26q-20 0 -35 6.5t-35 19.5q-17 11 -27.5 16t-22.5 5q-23 0 -36 -12.5t-24 -39.5h-35q10 40 35.5 66.5z" />
    <glyph glyph-name="F" unicode="F" horiz-adv-x="587" 
d="M119 494q19 106 79.5 156t170.5 50h253l-8 -43h-243q-84 0 -134.5 -38t-65.5 -125l-26 -143h363l-8 -43h-362l-54 -308h-52z" />
    <glyph glyph-name="G" unicode="G" horiz-adv-x="662" 
d="M125.5 39.5q-61.5 50.5 -61.5 144.5q0 29 6 60l38 213q22 124 101 189t207 65q88 0 146 -21.5t96 -68.5l-42 -32q-58 79 -202 79q-105 0 -170.5 -54t-83.5 -157l-38 -213q-5 -24 -5 -54q0 -77 47.5 -117t139.5 -40q99 0 164.5 37.5t76.5 101.5l12 74q2 9 2 26
q0 39 -23 57t-63 18h-121l7 42h128q124 0 124 -103q0 -17 -3 -37l-13 -79q-14 -83 -93 -132t-199 -49q-116 0 -177.5 50.5z" />
    <glyph glyph-name="Gbreve" unicode="&#x11e;" horiz-adv-x="662" 
d="M125.5 39.5q-61.5 50.5 -61.5 144.5q0 29 6 60l38 213q22 124 101 189t207 65q88 0 146 -21.5t96 -68.5l-42 -32q-58 79 -202 79q-105 0 -170.5 -54t-83.5 -157l-38 -213q-5 -24 -5 -54q0 -77 47.5 -117t139.5 -40q99 0 164.5 37.5t76.5 101.5l12 74q2 9 2 26
q0 39 -23 57t-63 18h-121l7 42h128q124 0 124 -103q0 -17 -3 -37l-13 -79q-14 -83 -93 -132t-199 -49q-116 0 -177.5 50.5zM344 806q-33 29 -33 78q0 13 3 28h36l-1 -14q0 -39 23 -60.5t65 -21.5q45 0 77 25.5t43 70.5h37q-11 -62 -54 -98.5t-107 -36.5q-56 0 -89 29z" />
    <glyph glyph-name="Gcaron" unicode="&#x1e6;" horiz-adv-x="662" 
d="M125.5 39.5q-61.5 50.5 -61.5 144.5q0 29 6 60l38 213q22 124 101 189t207 65q88 0 146 -21.5t96 -68.5l-42 -32q-58 79 -202 79q-105 0 -170.5 -54t-83.5 -157l-38 -213q-5 -24 -5 -54q0 -77 47.5 -117t139.5 -40q99 0 164.5 37.5t76.5 101.5l12 74q2 9 2 26
q0 39 -23 57t-63 18h-121l7 42h128q124 0 124 -103q0 -17 -3 -37l-13 -79q-14 -83 -93 -132t-199 -49q-116 0 -177.5 50.5zM372 865q-29 43 -56 64h50q21 -19 42.5 -50.5t29.5 -52.5q14 20 47.5 51.5t62.5 51.5h50q-35 -23 -79.5 -65.5t-71.5 -81.5h-32q-14 40 -43 83z" />
    <glyph glyph-name="Gcircumflex" unicode="&#x11c;" horiz-adv-x="662" 
d="M125.5 39.5q-61.5 50.5 -61.5 144.5q0 29 6 60l38 213q22 124 101 189t207 65q88 0 146 -21.5t96 -68.5l-42 -32q-58 79 -202 79q-105 0 -170.5 -54t-83.5 -157l-38 -213q-5 -24 -5 -54q0 -77 47.5 -117t139.5 -40q99 0 164.5 37.5t76.5 101.5l12 74q2 9 2 26
q0 39 -23 57t-63 18h-121l7 42h128q124 0 124 -103q0 -17 -3 -37l-13 -79q-14 -83 -93 -132t-199 -49q-116 0 -177.5 50.5zM369.5 847.5q44.5 42.5 71.5 81.5h31q14 -40 43.5 -82.5t56.5 -64.5h-51q-21 19 -42.5 50.5t-29.5 52.5q-12 -19 -46 -51t-63 -52h-51
q36 23 80.5 65.5z" />
    <glyph glyph-name="uni0122" unicode="&#x122;" horiz-adv-x="662" 
d="M125.5 39.5q-61.5 50.5 -61.5 144.5q0 29 6 60l38 213q22 124 101 189t207 65q88 0 146 -21.5t96 -68.5l-42 -32q-58 79 -202 79q-105 0 -170.5 -54t-83.5 -157l-38 -213q-5 -24 -5 -54q0 -77 47.5 -117t139.5 -40q99 0 164.5 37.5t76.5 101.5l12 74q2 9 2 26
q0 39 -23 57t-63 18h-121l7 42h128q124 0 124 -103q0 -17 -3 -37l-13 -79q-14 -83 -93 -132t-199 -49q-116 0 -177.5 50.5zM307 -84.5q9 -10.5 9 -27.5q0 -34 -24.5 -71.5t-62.5 -61.5l-15 18q49 33 60 74q-8 -5 -22 -5q-11 0 -18 7t-7 19q0 22 17 40t37 18q17 0 26 -10.5z
" />
    <glyph glyph-name="Gdotaccent" unicode="&#x120;" horiz-adv-x="662" 
d="M125.5 39.5q-61.5 50.5 -61.5 144.5q0 29 6 60l38 213q22 124 101 189t207 65q88 0 146 -21.5t96 -68.5l-42 -32q-58 79 -202 79q-105 0 -170.5 -54t-83.5 -157l-38 -213q-5 -24 -5 -54q0 -77 47.5 -117t139.5 -40q99 0 164.5 37.5t76.5 101.5l12 74q2 9 2 26
q0 39 -23 57t-63 18h-121l7 42h128q124 0 124 -103q0 -17 -3 -37l-13 -79q-14 -83 -93 -132t-199 -49q-116 0 -177.5 50.5zM407.5 793.5q-9.5 9.5 -9.5 23.5q0 18 14.5 32.5t32.5 14.5q15 0 24.5 -9.5t9.5 -23.5q0 -18 -14.5 -32.5t-32.5 -14.5q-15 0 -24.5 9.5z" />
    <glyph glyph-name="uni1E20" unicode="&#x1e20;" horiz-adv-x="662" 
d="M125.5 39.5q-61.5 50.5 -61.5 144.5q0 29 6 60l38 213q22 124 101 189t207 65q88 0 146 -21.5t96 -68.5l-42 -32q-58 79 -202 79q-105 0 -170.5 -54t-83.5 -157l-38 -213q-5 -24 -5 -54q0 -77 47.5 -117t139.5 -40q99 0 164.5 37.5t76.5 101.5l12 74q2 9 2 26
q0 39 -23 57t-63 18h-121l7 42h128q124 0 124 -103q0 -17 -3 -37l-13 -79q-14 -83 -93 -132t-199 -49q-116 0 -177.5 50.5zM294 836h293l-7 -40h-293z" />
    <glyph glyph-name="H" unicode="H" horiz-adv-x="718" 
d="M180 700h52l-58 -327h419l58 327h52l-123 -700h-52l58 330h-419l-58 -330h-52z" />
    <glyph glyph-name="Hbar" unicode="&#x126;" horiz-adv-x="717" 
d="M752 530h-80l-93 -530h-52l58 330h-419l-58 -330h-52l93 530h-80l7 39h80l23 131h52l-23 -131h419l23 131h52l-23 -131h80zM620 530h-419l-27 -157h419z" />
    <glyph glyph-name="uni1E2A" unicode="&#x1e2a;" horiz-adv-x="718" 
d="M180 700h52l-58 -327h419l58 327h52l-123 -700h-52l58 330h-419l-58 -330h-52zM195 -182q-33 29 -33 78q0 13 3 28h36l-1 -14q0 -39 23 -60.5t65 -21.5q45 0 77 25.5t43 70.5h37q-11 -62 -54 -98.5t-107 -36.5q-56 0 -89 29z" />
    <glyph glyph-name="Hcircumflex" unicode="&#x124;" horiz-adv-x="718" 
d="M180 700h52l-58 -327h419l58 327h52l-123 -700h-52l58 330h-419l-58 -330h-52zM393.5 847.5q44.5 42.5 71.5 81.5h31q14 -40 43.5 -82.5t56.5 -64.5h-51q-21 19 -42.5 50.5t-29.5 52.5q-12 -19 -46 -51t-63 -52h-51q36 23 80.5 65.5z" />
    <glyph glyph-name="uni1E24" unicode="&#x1e24;" horiz-adv-x="718" 
d="M180 700h52l-58 -327h419l58 327h52l-123 -700h-52l58 330h-419l-58 -330h-52zM266.5 -143.5q-9.5 9.5 -9.5 23.5q0 18 15 32.5t33 14.5q15 0 24.5 -9.5t9.5 -23.5q0 -18 -14.5 -32.5t-33.5 -14.5q-15 0 -24.5 9.5z" />
    <glyph glyph-name="I" unicode="I" horiz-adv-x="247" 
d="M180 700h52l-123 -700h-52z" />
    <glyph glyph-name="IJ" unicode="&#x132;" horiz-adv-x="728" 
d="M180 700h52l-123 -700h-52zM298.5 10q-46.5 21 -75.5 61l37 34q46 -72 147 -72q77 0 126 40t62 114l91 513h52l-91 -515q-17 -94 -79.5 -145t-161.5 -51q-61 0 -107.5 21z" />
    <glyph glyph-name="Iacute" unicode="&#xcd;" horiz-adv-x="247" 
d="M180 700h52l-123 -700h-52zM306 923h56l-120 -141h-41z" />
    <glyph glyph-name="Ibreve" unicode="&#x12c;" horiz-adv-x="247" 
d="M180 700h52l-123 -700h-52zM133 806q-33 29 -33 78q0 13 3 28h36l-1 -14q0 -39 23 -60.5t65 -21.5q45 0 77 25.5t43 70.5h37q-11 -62 -54 -98.5t-107 -36.5q-56 0 -89 29z" />
    <glyph glyph-name="uni01CF" unicode="&#x1cf;" horiz-adv-x="247" 
d="M180 700h52l-123 -700h-52zM161 865q-29 43 -56 64h50q21 -19 42.5 -50.5t29.5 -52.5q14 20 47.5 51.5t62.5 51.5h50q-35 -23 -79.5 -65.5t-71.5 -81.5h-32q-14 40 -43 83z" />
    <glyph glyph-name="Icircumflex" unicode="&#xce;" horiz-adv-x="247" 
d="M180 700h52l-123 -700h-52zM158.5 847.5q44.5 42.5 71.5 81.5h31q14 -40 43.5 -82.5t56.5 -64.5h-51q-21 19 -42.5 50.5t-29.5 52.5q-12 -19 -46 -51t-63 -52h-51q36 23 80.5 65.5z" />
    <glyph glyph-name="Idieresis" unicode="&#xcf;" horiz-adv-x="247" 
d="M180 700h52l-123 -700h-52zM120 793.5q-8 8.5 -8 20.5q0 17 12.5 29.5t29.5 12.5q13 0 21 -8.5t8 -21.5q0 -16 -13 -28.5t-29 -12.5q-13 0 -21 8.5zM278.5 793.5q-8.5 8.5 -8.5 20.5q0 16 13 29t30 13q12 0 20.5 -9t8.5 -21q0 -16 -13 -28.5t-29 -12.5q-13 0 -21.5 8.5z
" />
    <glyph glyph-name="Idotaccent" unicode="&#x130;" horiz-adv-x="247" 
d="M180 700h52l-123 -700h-52zM196.5 793.5q-9.5 9.5 -9.5 23.5q0 18 14.5 32.5t32.5 14.5q15 0 24.5 -9.5t9.5 -23.5q0 -18 -14.5 -32.5t-32.5 -14.5q-15 0 -24.5 9.5z" />
    <glyph glyph-name="uni1ECA" unicode="&#x1eca;" horiz-adv-x="247" 
d="M180 700h52l-123 -700h-52zM31.5 -143.5q-9.5 9.5 -9.5 23.5q0 18 15 32.5t33 14.5q15 0 24.5 -9.5t9.5 -23.5q0 -18 -14.5 -32.5t-33.5 -14.5q-15 0 -24.5 9.5z" />
    <glyph glyph-name="Igrave" unicode="&#xcc;" horiz-adv-x="247" 
d="M180 700h52l-123 -700h-52zM124 923h56l56 -141h-42z" />
    <glyph glyph-name="uni1EC8" unicode="&#x1ec8;" horiz-adv-x="247" 
d="M180 700h52l-123 -700h-52zM244 820l-6 -38h-41l11 61q41 6 60 18t19 38q0 31 -40 31q-25 0 -49 -8l-3 32q30 11 61 11q33 0 54 -14.5t21 -43.5q0 -70 -87 -87z" />
    <glyph glyph-name="Imacron" unicode="&#x12a;" horiz-adv-x="247" 
d="M180 700h52l-123 -700h-52zM83 836h293l-7 -40h-293z" />
    <glyph glyph-name="Iogonek" unicode="&#x12e;" horiz-adv-x="247" 
d="M141 -140l4 -32q-33 -18 -71 -18q-42 0 -60.5 18.5t-18.5 44.5q0 31 20 64t51 63h-9l123 700h52l-123 -700h-4q-28 -34 -46 -62.5t-18 -55.5q0 -18 12 -27t31 -9q22 0 57 14z" />
    <glyph glyph-name="Itilde" unicode="&#x128;" horiz-adv-x="247" 
d="M180 700h52l-123 -700h-52zM107.5 851.5q25.5 26.5 65.5 26.5q20 0 35 -6.5t35 -19.5q17 -11 27.5 -16t22.5 -5q22 0 34.5 11.5t22.5 37.5h35q-9 -38 -34.5 -64t-63.5 -26q-20 0 -35 6.5t-35 19.5q-17 11 -27.5 16t-22.5 5q-23 0 -36 -12.5t-24 -39.5h-35
q10 40 35.5 66.5z" />
    <glyph glyph-name="J" unicode="J" horiz-adv-x="509" 
d="M79.5 10q-46.5 21 -75.5 61l37 34q46 -72 147 -72q77 0 126 40t62 114l91 513h52l-91 -515q-17 -94 -79.5 -145t-161.5 -51q-61 0 -107.5 21z" />
    <glyph glyph-name="Jcircumflex" unicode="&#x134;" horiz-adv-x="509" 
d="M79.5 10q-46.5 21 -75.5 61l37 34q46 -72 147 -72q77 0 126 40t62 114l91 513h52l-91 -515q-17 -94 -79.5 -145t-161.5 -51q-61 0 -107.5 21zM445.5 847.5q44.5 42.5 71.5 81.5h31q14 -40 43.5 -82.5t56.5 -64.5h-51q-21 19 -42.5 50.5t-29.5 52.5q-12 -19 -46 -51
t-63 -52h-51q36 23 80.5 65.5z" />
    <glyph glyph-name="K" unicode="K" horiz-adv-x="655" 
d="M482 405q33 -22 46.5 -57t18.5 -92l23 -256h-52l-22 253q-5 48 -16 75.5t-42.5 44.5t-94.5 20l-194 -165l-40 -228h-52l123 700h52l-72 -410l475 410h66l-312 -267q60 -6 93 -28z" />
    <glyph glyph-name="uni0136" unicode="&#x136;" horiz-adv-x="655" 
d="M482 405q33 -22 46.5 -57t18.5 -92l23 -256h-52l-22 253q-5 48 -16 75.5t-42.5 44.5t-94.5 20l-194 -165l-40 -228h-52l123 700h52l-72 -410l475 410h66l-312 -267q60 -6 93 -28zM321 -84.5q9 -10.5 9 -27.5q0 -34 -24.5 -71.5t-62.5 -61.5l-15 18q49 33 60 74
q-8 -5 -22 -5q-11 0 -18 7t-7 19q0 22 17 40t37 18q17 0 26 -10.5z" />
    <glyph glyph-name="L" unicode="L" horiz-adv-x="557" 
d="M111 38q-48 38 -48 115q0 21 5 54l87 493h52l-87 -493q-5 -28 -5 -47q0 -60 36 -88.5t110 -28.5h225l-7 -43h-222q-98 0 -146 38z" />
    <glyph glyph-name="Lacute" unicode="&#x139;" horiz-adv-x="557" 
d="M111 38q-48 38 -48 115q0 21 5 54l87 493h52l-87 -493q-5 -28 -5 -47q0 -60 36 -88.5t110 -28.5h225l-7 -43h-222q-98 0 -146 38zM281 923h56l-120 -141h-41z" />
    <glyph glyph-name="Lcaron" unicode="&#x13d;" horiz-adv-x="560" 
d="M111 38q-48 38 -48 115q0 21 5 54l87 493h52l-87 -493q-5 -28 -5 -47q0 -60 36 -88.5t110 -28.5h225l-7 -43h-222q-98 0 -146 38zM533.5 704.5q8.5 -10.5 8.5 -27.5q0 -35 -24.5 -74.5t-64.5 -66.5l-14 18q50 38 61 82q-8 -5 -21 -5q-12 0 -18.5 7t-6.5 20q0 22 17 39.5
t37 17.5q17 0 25.5 -10.5z" />
    <glyph glyph-name="uni013B" unicode="&#x13b;" horiz-adv-x="557" 
d="M111 38q-48 38 -48 115q0 21 5 54l87 493h52l-87 -493q-5 -28 -5 -47q0 -60 36 -88.5t110 -28.5h225l-7 -43h-222q-98 0 -146 38zM282 -84.5q9 -10.5 9 -27.5q0 -34 -24.5 -71.5t-62.5 -61.5l-15 18q49 33 60 74q-8 -5 -22 -5q-11 0 -18 7t-7 19q0 22 17 40t37 18
q17 0 26 -10.5z" />
    <glyph glyph-name="Ldot" unicode="&#x13f;" horiz-adv-x="557" 
d="M111 38q-48 38 -48 115q0 21 5 54l87 493h52l-87 -493q-5 -28 -5 -47q0 -60 36 -88.5t110 -28.5h225l-7 -43h-222q-98 0 -146 38zM338.5 279q-12.5 12 -12.5 30q0 24 19 42.5t43 18.5q18 0 30 -12t12 -30q0 -24 -18.5 -42.5t-41.5 -18.5q-19 0 -31.5 12z" />
    <glyph glyph-name="uni1E36" unicode="&#x1e36;" horiz-adv-x="557" 
d="M111 38q-48 38 -48 115q0 21 5 54l87 493h52l-87 -493q-5 -28 -5 -47q0 -60 36 -88.5t110 -28.5h225l-7 -43h-222q-98 0 -146 38zM217.5 -143.5q-9.5 9.5 -9.5 23.5q0 18 15 32.5t33 14.5q15 0 24.5 -9.5t9.5 -23.5q0 -18 -14.5 -32.5t-33.5 -14.5q-15 0 -24.5 9.5z" />
    <glyph glyph-name="uni1E38" unicode="&#x1e38;" horiz-adv-x="557" 
d="M111 38q-48 38 -48 115q0 21 5 54l87 493h52l-87 -493q-5 -28 -5 -47q0 -60 36 -88.5t110 -28.5h225l-7 -43h-222q-98 0 -146 38zM217.5 -143.5q-9.5 9.5 -9.5 23.5q0 18 15 32.5t33 14.5q15 0 24.5 -9.5t9.5 -23.5q0 -18 -14.5 -32.5t-33.5 -14.5q-15 0 -24.5 9.5z
M58 836h293l-7 -40h-293z" />
    <glyph glyph-name="uni1E3A" unicode="&#x1e3a;" horiz-adv-x="557" 
d="M111 38q-48 38 -48 115q0 21 5 54l87 493h52l-87 -493q-5 -28 -5 -47q0 -60 36 -88.5t110 -28.5h225l-7 -43h-222q-98 0 -146 38zM107 -85h293l-7 -41h-293z" />
    <glyph glyph-name="Lslash" unicode="&#x141;" horiz-adv-x="564" 
d="M493 43l-7 -43h-222q-98 0 -146 38t-48 115q0 21 5 54l13 76l-85 -36l7 45l86 36l66 372h52l-62 -349l257 107l-8 -45l-257 -107l-17 -99q-5 -28 -5 -47q0 -60 36 -88.5t110 -28.5h225z" />
    <glyph glyph-name="M" unicode="M" horiz-adv-x="817" 
d="M180 700h34q35 0 56 -14.5t35 -53.5l116 -332l232 332q25 36 52 52t63 16h34l-123 -700h-50l114 650q-17 -1 -29 -9.5t-25 -27.5l-284 -404l-143 404q-7 19 -16 28t-25 9l-114 -650h-50z" />
    <glyph glyph-name="uni1E42" unicode="&#x1e42;" horiz-adv-x="817" 
d="M180 700h34q35 0 56 -14.5t35 -53.5l116 -332l232 332q25 36 52 52t63 16h34l-123 -700h-50l114 650q-17 -1 -29 -9.5t-25 -27.5l-284 -404l-143 404q-7 19 -16 28t-25 9l-114 -650h-50zM316.5 -143.5q-9.5 9.5 -9.5 23.5q0 18 15 32.5t33 14.5q15 0 24.5 -9.5t9.5 -23.5
q0 -18 -14.5 -32.5t-33.5 -14.5q-15 0 -24.5 9.5z" />
    <glyph glyph-name="N" unicode="N" horiz-adv-x="711" 
d="M707 700l-108 -613q-7 -46 -29 -66.5t-61 -20.5h-37l-255 627l-110 -627h-50l123 700h64l263 -653h8q15 0 23 9.5t12 34.5l107 609h50z" />
    <glyph glyph-name="Nacute" unicode="&#x143;" horiz-adv-x="711" 
d="M707 700l-108 -613q-7 -46 -29 -66.5t-61 -20.5h-37l-255 627l-110 -627h-50l123 700h64l263 -653h8q15 0 23 9.5t12 34.5l107 609h50zM543 923h56l-120 -141h-41z" />
    <glyph glyph-name="Ncaron" unicode="&#x147;" horiz-adv-x="711" 
d="M707 700l-108 -613q-7 -46 -29 -66.5t-61 -20.5h-37l-255 627l-110 -627h-50l123 700h64l263 -653h8q15 0 23 9.5t12 34.5l107 609h50zM398 865q-29 43 -56 64h50q21 -19 42.5 -50.5t29.5 -52.5q14 20 47.5 51.5t62.5 51.5h50q-35 -23 -79.5 -65.5t-71.5 -81.5h-32
q-14 40 -43 83z" />
    <glyph glyph-name="uni0145" unicode="&#x145;" horiz-adv-x="711" 
d="M707 700l-108 -613q-7 -46 -29 -66.5t-61 -20.5h-37l-255 627l-110 -627h-50l123 700h64l263 -653h8q15 0 23 9.5t12 34.5l107 609h50zM326 -84.5q9 -10.5 9 -27.5q0 -34 -24.5 -71.5t-62.5 -61.5l-15 18q49 33 60 74q-8 -5 -22 -5q-11 0 -18 7t-7 19q0 22 17 40t37 18
q17 0 26 -10.5z" />
    <glyph glyph-name="uni1E44" unicode="&#x1e44;" horiz-adv-x="711" 
d="M707 700l-108 -613q-7 -46 -29 -66.5t-61 -20.5h-37l-255 627l-110 -627h-50l123 700h64l263 -653h8q15 0 23 9.5t12 34.5l107 609h50zM433.5 793.5q-9.5 9.5 -9.5 23.5q0 18 14.5 32.5t32.5 14.5q15 0 24.5 -9.5t9.5 -23.5q0 -18 -14.5 -32.5t-32.5 -14.5
q-15 0 -24.5 9.5z" />
    <glyph glyph-name="uni1E46" unicode="&#x1e46;" horiz-adv-x="711" 
d="M707 700l-108 -613q-7 -46 -29 -66.5t-61 -20.5h-37l-255 627l-110 -627h-50l123 700h64l263 -653h8q15 0 23 9.5t12 34.5l107 609h50zM261.5 -143.5q-9.5 9.5 -9.5 23.5q0 18 15 32.5t33 14.5q15 0 24.5 -9.5t9.5 -23.5q0 -18 -14.5 -32.5t-33.5 -14.5q-15 0 -24.5 9.5z
" />
    <glyph glyph-name="Eng" unicode="&#x14a;" horiz-adv-x="711" 
d="M367 -179h45q89 0 109 111l13 71q-12 -3 -25 -3h-37l-255 627l-110 -627h-50l123 700h64l264 -653h7q14 0 21.5 7.5t11.5 25.5l109 620h50l-135 -768q-27 -154 -167 -154h-46z" />
    <glyph glyph-name="uni1E48" unicode="&#x1e48;" horiz-adv-x="711" 
d="M707 700l-108 -613q-7 -46 -29 -66.5t-61 -20.5h-37l-255 627l-110 -627h-50l123 700h64l263 -653h8q15 0 23 9.5t12 34.5l107 609h50zM151 -85h293l-7 -41h-293z" />
    <glyph glyph-name="Ntilde" unicode="&#xd1;" horiz-adv-x="711" 
d="M707 700l-108 -613q-7 -46 -29 -66.5t-61 -20.5h-37l-255 627l-110 -627h-50l123 700h64l263 -653h8q15 0 23 9.5t12 34.5l107 609h50zM344.5 851.5q25.5 26.5 65.5 26.5q20 0 35 -6.5t35 -19.5q17 -11 27.5 -16t22.5 -5q22 0 34.5 11.5t22.5 37.5h35q-9 -38 -34.5 -64
t-63.5 -26q-20 0 -35 6.5t-35 19.5q-17 11 -27.5 16t-22.5 5q-23 0 -36 -12.5t-24 -39.5h-35q10 40 35.5 66.5z" />
    <glyph glyph-name="O" unicode="O" horiz-adv-x="678" 
d="M127 40.5q-62 51.5 -62 146.5q0 24 5 57l37 212q22 124 102 189.5t209 65.5q115 0 176 -51.5t61 -145.5q0 -33 -5 -58l-37 -212q-22 -125 -101 -190t-209 -65q-114 0 -176 51.5zM476 87.5q67 54.5 85 156.5l37 212q5 30 5 51q0 78 -48 119.5t-139 41.5q-106 0 -173 -55
t-84 -157l-37 -212q-5 -32 -5 -52q0 -77 48 -118t139 -41q105 0 172 54.5z" />
    <glyph glyph-name="Oacute" unicode="&#xd3;" horiz-adv-x="678" 
d="M127 40.5q-62 51.5 -62 146.5q0 24 5 57l37 212q22 124 102 189.5t209 65.5q115 0 176 -51.5t61 -145.5q0 -33 -5 -58l-37 -212q-22 -125 -101 -190t-209 -65q-114 0 -176 51.5zM476 87.5q67 54.5 85 156.5l37 212q5 30 5 51q0 78 -48 119.5t-139 41.5q-106 0 -173 -55
t-84 -157l-37 -212q-5 -32 -5 -52q0 -77 48 -118t139 -41q105 0 172 54.5zM516 923h56l-120 -141h-41z" />
    <glyph glyph-name="Obreve" unicode="&#x14e;" horiz-adv-x="678" 
d="M127 40.5q-62 51.5 -62 146.5q0 24 5 57l37 212q22 124 102 189.5t209 65.5q115 0 176 -51.5t61 -145.5q0 -33 -5 -58l-37 -212q-22 -125 -101 -190t-209 -65q-114 0 -176 51.5zM476 87.5q67 54.5 85 156.5l37 212q5 30 5 51q0 78 -48 119.5t-139 41.5q-106 0 -173 -55
t-84 -157l-37 -212q-5 -32 -5 -52q0 -77 48 -118t139 -41q105 0 172 54.5zM343 806q-33 29 -33 78q0 13 3 28h36l-1 -14q0 -39 23 -60.5t65 -21.5q45 0 77 25.5t43 70.5h37q-11 -62 -54 -98.5t-107 -36.5q-56 0 -89 29z" />
    <glyph glyph-name="uni01D1" unicode="&#x1d1;" horiz-adv-x="678" 
d="M127 40.5q-62 51.5 -62 146.5q0 24 5 57l37 212q22 124 102 189.5t209 65.5q115 0 176 -51.5t61 -145.5q0 -33 -5 -58l-37 -212q-22 -125 -101 -190t-209 -65q-114 0 -176 51.5zM476 87.5q67 54.5 85 156.5l37 212q5 30 5 51q0 78 -48 119.5t-139 41.5q-106 0 -173 -55
t-84 -157l-37 -212q-5 -32 -5 -52q0 -77 48 -118t139 -41q105 0 172 54.5zM371 865q-29 43 -56 64h50q21 -19 42.5 -50.5t29.5 -52.5q14 20 47.5 51.5t62.5 51.5h50q-35 -23 -79.5 -65.5t-71.5 -81.5h-32q-14 40 -43 83z" />
    <glyph glyph-name="Ocircumflex" unicode="&#xd4;" horiz-adv-x="678" 
d="M127 40.5q-62 51.5 -62 146.5q0 24 5 57l37 212q22 124 102 189.5t209 65.5q115 0 176 -51.5t61 -145.5q0 -33 -5 -58l-37 -212q-22 -125 -101 -190t-209 -65q-114 0 -176 51.5zM476 87.5q67 54.5 85 156.5l37 212q5 30 5 51q0 78 -48 119.5t-139 41.5q-106 0 -173 -55
t-84 -157l-37 -212q-5 -32 -5 -52q0 -77 48 -118t139 -41q105 0 172 54.5zM368.5 847.5q44.5 42.5 71.5 81.5h31q14 -40 43.5 -82.5t56.5 -64.5h-51q-21 19 -42.5 50.5t-29.5 52.5q-12 -19 -46 -51t-63 -52h-51q36 23 80.5 65.5z" />
    <glyph glyph-name="uni1ED0" unicode="&#x1ed0;" horiz-adv-x="678" 
d="M127 40.5q-62 51.5 -62 146.5q0 24 5 57l37 212q22 124 102 189.5t209 65.5q115 0 176 -51.5t61 -145.5q0 -33 -5 -58l-37 -212q-22 -125 -101 -190t-209 -65q-114 0 -176 51.5zM476 87.5q67 54.5 85 156.5l37 212q5 30 5 51q0 78 -48 119.5t-139 41.5q-106 0 -173 -55
t-84 -157l-37 -212q-5 -32 -5 -52q0 -77 48 -118t139 -41q105 0 172 54.5zM621 969h53l-89 -104h-41zM368.5 847q44.5 43 71.5 82h32q13 -39 42.5 -82t56.5 -65h-48q-22 20 -45.5 52.5t-27.5 50.5q-11 -19 -45 -51t-63 -52h-53q35 22 79.5 65z" />
    <glyph glyph-name="uni1ED8" unicode="&#x1ed8;" horiz-adv-x="678" 
d="M127 40.5q-62 51.5 -62 146.5q0 24 5 57l37 212q22 124 102 189.5t209 65.5q115 0 176 -51.5t61 -145.5q0 -33 -5 -58l-37 -212q-22 -125 -101 -190t-209 -65q-114 0 -176 51.5zM476 87.5q67 54.5 85 156.5l37 212q5 30 5 51q0 78 -48 119.5t-139 41.5q-106 0 -173 -55
t-84 -157l-37 -212q-5 -32 -5 -52q0 -77 48 -118t139 -41q105 0 172 54.5zM242.5 -143.5q-9.5 9.5 -9.5 23.5q0 18 15 32.5t33 14.5q15 0 24.5 -9.5t9.5 -23.5q0 -18 -14.5 -32.5t-33.5 -14.5q-15 0 -24.5 9.5zM368.5 847.5q44.5 42.5 71.5 81.5h31q14 -40 43.5 -82.5
t56.5 -64.5h-51q-21 19 -42.5 50.5t-29.5 52.5q-12 -19 -46 -51t-63 -52h-51q36 23 80.5 65.5z" />
    <glyph glyph-name="uni1ED2" unicode="&#x1ed2;" horiz-adv-x="678" 
d="M127 40.5q-62 51.5 -62 146.5q0 24 5 57l37 212q22 124 102 189.5t209 65.5q115 0 176 -51.5t61 -145.5q0 -33 -5 -58l-37 -212q-22 -125 -101 -190t-209 -65q-114 0 -176 51.5zM476 87.5q67 54.5 85 156.5l37 212q5 30 5 51q0 78 -48 119.5t-139 41.5q-106 0 -173 -55
t-84 -157l-37 -212q-5 -32 -5 -52q0 -77 48 -118t139 -41q105 0 172 54.5zM546 969h53l41 -104h-41zM368.5 847q44.5 43 71.5 82h32q13 -39 42.5 -82t56.5 -65h-48q-22 20 -45.5 52.5t-27.5 50.5q-11 -19 -45 -51t-63 -52h-53q35 22 79.5 65z" />
    <glyph glyph-name="uni1ED4" unicode="&#x1ed4;" horiz-adv-x="678" 
d="M127 40.5q-62 51.5 -62 146.5q0 24 5 57l37 212q22 124 102 189.5t209 65.5q115 0 176 -51.5t61 -145.5q0 -33 -5 -58l-37 -212q-22 -125 -101 -190t-209 -65q-114 0 -176 51.5zM476 87.5q67 54.5 85 156.5l37 212q5 30 5 51q0 78 -48 119.5t-139 41.5q-106 0 -173 -55
t-84 -157l-37 -212q-5 -32 -5 -52q0 -77 48 -118t139 -41q105 0 172 54.5zM649 927q-20 -18 -59 -25l-6 -36h-39l10 58q41 6 58 15.5t17 32.5q0 14 -10 19.5t-30 5.5t-47 -8l-3 31q26 10 59 10t51.5 -12.5t18.5 -37.5q0 -35 -20 -53zM514.5 847q29.5 -43 56.5 -65h-48
q-22 20 -45.5 52.5t-27.5 50.5q-11 -19 -45 -51t-63 -52h-53q35 22 79.5 65t71.5 82h32q13 -39 42.5 -82z" />
    <glyph glyph-name="uni1ED6" unicode="&#x1ed6;" horiz-adv-x="678" 
d="M127 40.5q-62 51.5 -62 146.5q0 24 5 57l37 212q22 124 102 189.5t209 65.5q115 0 176 -51.5t61 -145.5q0 -33 -5 -58l-37 -212q-22 -125 -101 -190t-209 -65q-114 0 -176 51.5zM476 87.5q67 54.5 85 156.5l37 212q5 30 5 51q0 78 -48 119.5t-139 41.5q-106 0 -173 -55
t-84 -157l-37 -212q-5 -32 -5 -52q0 -77 48 -118t139 -41q105 0 172 54.5zM355 1017.5q24 24.5 61 24.5q19 0 34 -6.5t33 -18.5q28 -19 47 -19q21 0 32 11t20 35h33q-9 -35 -33 -59t-59 -24q-20 0 -35 6.5t-33 18.5q-17 10 -25.5 14t-19.5 4q-21 0 -33 -11t-22 -37h-33
q9 37 33 61.5zM368.5 847q44.5 43 71.5 82h32q13 -39 42.5 -82t56.5 -65h-48q-22 20 -45.5 52.5t-27.5 50.5q-11 -19 -45 -51t-63 -52h-53q35 22 79.5 65z" />
    <glyph glyph-name="Odieresis" unicode="&#xd6;" horiz-adv-x="678" 
d="M127 40.5q-62 51.5 -62 146.5q0 24 5 57l37 212q22 124 102 189.5t209 65.5q115 0 176 -51.5t61 -145.5q0 -33 -5 -58l-37 -212q-22 -125 -101 -190t-209 -65q-114 0 -176 51.5zM476 87.5q67 54.5 85 156.5l37 212q5 30 5 51q0 78 -48 119.5t-139 41.5q-106 0 -173 -55
t-84 -157l-37 -212q-5 -32 -5 -52q0 -77 48 -118t139 -41q105 0 172 54.5zM330 793.5q-8 8.5 -8 20.5q0 17 12.5 29.5t29.5 12.5q13 0 21 -8.5t8 -21.5q0 -16 -13 -28.5t-29 -12.5q-13 0 -21 8.5zM488.5 793.5q-8.5 8.5 -8.5 20.5q0 16 13 29t30 13q12 0 20.5 -9t8.5 -21
q0 -16 -13 -28.5t-29 -12.5q-13 0 -21.5 8.5z" />
    <glyph glyph-name="uni1ECC" unicode="&#x1ecc;" horiz-adv-x="678" 
d="M127 40.5q-62 51.5 -62 146.5q0 24 5 57l37 212q22 124 102 189.5t209 65.5q115 0 176 -51.5t61 -145.5q0 -33 -5 -58l-37 -212q-22 -125 -101 -190t-209 -65q-114 0 -176 51.5zM476 87.5q67 54.5 85 156.5l37 212q5 30 5 51q0 78 -48 119.5t-139 41.5q-106 0 -173 -55
t-84 -157l-37 -212q-5 -32 -5 -52q0 -77 48 -118t139 -41q105 0 172 54.5zM242.5 -143.5q-9.5 9.5 -9.5 23.5q0 18 15 32.5t33 14.5q15 0 24.5 -9.5t9.5 -23.5q0 -18 -14.5 -32.5t-33.5 -14.5q-15 0 -24.5 9.5z" />
    <glyph glyph-name="Ograve" unicode="&#xd2;" horiz-adv-x="678" 
d="M127 40.5q-62 51.5 -62 146.5q0 24 5 57l37 212q22 124 102 189.5t209 65.5q115 0 176 -51.5t61 -145.5q0 -33 -5 -58l-37 -212q-22 -125 -101 -190t-209 -65q-114 0 -176 51.5zM476 87.5q67 54.5 85 156.5l37 212q5 30 5 51q0 78 -48 119.5t-139 41.5q-106 0 -173 -55
t-84 -157l-37 -212q-5 -32 -5 -52q0 -77 48 -118t139 -41q105 0 172 54.5zM334 923h56l56 -141h-42z" />
    <glyph glyph-name="uni1ECE" unicode="&#x1ece;" horiz-adv-x="678" 
d="M127 40.5q-62 51.5 -62 146.5q0 24 5 57l37 212q22 124 102 189.5t209 65.5q115 0 176 -51.5t61 -145.5q0 -33 -5 -58l-37 -212q-22 -125 -101 -190t-209 -65q-114 0 -176 51.5zM476 87.5q67 54.5 85 156.5l37 212q5 30 5 51q0 78 -48 119.5t-139 41.5q-106 0 -173 -55
t-84 -157l-37 -212q-5 -32 -5 -52q0 -77 48 -118t139 -41q105 0 172 54.5zM454 820l-6 -38h-41l11 61q41 6 60 18t19 38q0 31 -40 31q-25 0 -49 -8l-3 32q30 11 61 11q33 0 54 -14.5t21 -43.5q0 -70 -87 -87z" />
    <glyph glyph-name="Ohorn" unicode="&#x1a0;" horiz-adv-x="683" 
d="M740 609q-33 -38 -90 -46q5 -20 5 -50q0 -32 -5 -57l-37 -212q-22 -125 -101 -190t-209 -65q-114 0 -176 51.5t-62 146.5q0 24 5 57l37 212q22 124 102 189.5t209 65.5q87 0 144 -30.5t79 -87.5q41 5 64.5 36t34.5 96h48q-15 -78 -48 -116zM603 507q0 78 -48 119.5
t-139 41.5q-106 0 -173 -55t-84 -157l-37 -212q-5 -32 -5 -52q0 -77 48 -118t139 -41q105 0 172 54.5t85 156.5l37 212q5 30 5 51z" />
    <glyph glyph-name="uni1EDA" unicode="&#x1eda;" horiz-adv-x="683" 
d="M740 609q-33 -38 -90 -46q5 -20 5 -50q0 -32 -5 -57l-37 -212q-22 -125 -101 -190t-209 -65q-114 0 -176 51.5t-62 146.5q0 24 5 57l37 212q22 124 102 189.5t209 65.5q87 0 144 -30.5t79 -87.5q41 5 64.5 36t34.5 96h48q-15 -78 -48 -116zM603 507q0 78 -48 119.5
t-139 41.5q-106 0 -173 -55t-84 -157l-37 -212q-5 -32 -5 -52q0 -77 48 -118t139 -41q105 0 172 54.5t85 156.5l37 212q5 30 5 51zM516 923h56l-120 -141h-41z" />
    <glyph glyph-name="uni1EE2" unicode="&#x1ee2;" horiz-adv-x="683" 
d="M740 609q-33 -38 -90 -46q5 -20 5 -50q0 -32 -5 -57l-37 -212q-22 -125 -101 -190t-209 -65q-114 0 -176 51.5t-62 146.5q0 24 5 57l37 212q22 124 102 189.5t209 65.5q87 0 144 -30.5t79 -87.5q41 5 64.5 36t34.5 96h48q-15 -78 -48 -116zM603 507q0 78 -48 119.5
t-139 41.5q-106 0 -173 -55t-84 -157l-37 -212q-5 -32 -5 -52q0 -77 48 -118t139 -41q105 0 172 54.5t85 156.5l37 212q5 30 5 51zM242.5 -143.5q-9.5 9.5 -9.5 23.5q0 18 15 32.5t33 14.5q15 0 24.5 -9.5t9.5 -23.5q0 -18 -14.5 -32.5t-33.5 -14.5q-15 0 -24.5 9.5z" />
    <glyph glyph-name="uni1EDC" unicode="&#x1edc;" horiz-adv-x="683" 
d="M740 609q-33 -38 -90 -46q5 -20 5 -50q0 -32 -5 -57l-37 -212q-22 -125 -101 -190t-209 -65q-114 0 -176 51.5t-62 146.5q0 24 5 57l37 212q22 124 102 189.5t209 65.5q87 0 144 -30.5t79 -87.5q41 5 64.5 36t34.5 96h48q-15 -78 -48 -116zM603 507q0 78 -48 119.5
t-139 41.5q-106 0 -173 -55t-84 -157l-37 -212q-5 -32 -5 -52q0 -77 48 -118t139 -41q105 0 172 54.5t85 156.5l37 212q5 30 5 51zM334 923h56l56 -141h-42z" />
    <glyph glyph-name="uni1EDE" unicode="&#x1ede;" horiz-adv-x="683" 
d="M740 609q-33 -38 -90 -46q5 -20 5 -50q0 -32 -5 -57l-37 -212q-22 -125 -101 -190t-209 -65q-114 0 -176 51.5t-62 146.5q0 24 5 57l37 212q22 124 102 189.5t209 65.5q87 0 144 -30.5t79 -87.5q41 5 64.5 36t34.5 96h48q-15 -78 -48 -116zM603 507q0 78 -48 119.5
t-139 41.5q-106 0 -173 -55t-84 -157l-37 -212q-5 -32 -5 -52q0 -77 48 -118t139 -41q105 0 172 54.5t85 156.5l37 212q5 30 5 51zM454 820l-6 -38h-41l11 61q41 6 60 18t19 38q0 31 -40 31q-25 0 -49 -8l-3 32q30 11 61 11q33 0 54 -14.5t21 -43.5q0 -70 -87 -87z" />
    <glyph glyph-name="uni1EE0" unicode="&#x1ee0;" horiz-adv-x="683" 
d="M740 609q-33 -38 -90 -46q5 -20 5 -50q0 -32 -5 -57l-37 -212q-22 -125 -101 -190t-209 -65q-114 0 -176 51.5t-62 146.5q0 24 5 57l37 212q22 124 102 189.5t209 65.5q87 0 144 -30.5t79 -87.5q41 5 64.5 36t34.5 96h48q-15 -78 -48 -116zM603 507q0 78 -48 119.5
t-139 41.5q-106 0 -173 -55t-84 -157l-37 -212q-5 -32 -5 -52q0 -77 48 -118t139 -41q105 0 172 54.5t85 156.5l37 212q5 30 5 51zM317.5 851.5q25.5 26.5 65.5 26.5q20 0 35 -6.5t35 -19.5q17 -11 27.5 -16t22.5 -5q22 0 34.5 11.5t22.5 37.5h35q-9 -38 -34.5 -64
t-63.5 -26q-20 0 -35 6.5t-35 19.5q-17 11 -27.5 16t-22.5 5q-23 0 -36 -12.5t-24 -39.5h-35q10 40 35.5 66.5z" />
    <glyph glyph-name="Ohungarumlaut" unicode="&#x150;" horiz-adv-x="678" 
d="M127 40.5q-62 51.5 -62 146.5q0 24 5 57l37 212q22 124 102 189.5t209 65.5q115 0 176 -51.5t61 -145.5q0 -33 -5 -58l-37 -212q-22 -125 -101 -190t-209 -65q-114 0 -176 51.5zM476 87.5q67 54.5 85 156.5l37 212q5 30 5 51q0 78 -48 119.5t-139 41.5q-106 0 -173 -55
t-84 -157l-37 -212q-5 -32 -5 -52q0 -77 48 -118t139 -41q105 0 172 54.5zM430 923h53l-107 -141h-40zM572 923h52l-107 -141h-40z" />
    <glyph glyph-name="Omacron" unicode="&#x14c;" horiz-adv-x="678" 
d="M127 40.5q-62 51.5 -62 146.5q0 24 5 57l37 212q22 124 102 189.5t209 65.5q115 0 176 -51.5t61 -145.5q0 -33 -5 -58l-37 -212q-22 -125 -101 -190t-209 -65q-114 0 -176 51.5zM476 87.5q67 54.5 85 156.5l37 212q5 30 5 51q0 78 -48 119.5t-139 41.5q-106 0 -173 -55
t-84 -157l-37 -212q-5 -32 -5 -52q0 -77 48 -118t139 -41q105 0 172 54.5zM293 836h293l-7 -40h-293z" />
    <glyph glyph-name="Oslash" unicode="&#xd8;" horiz-adv-x="678" 
d="M655 513q0 -24 -5 -57l-37 -212q-22 -125 -101 -190t-209 -65q-88 0 -144 30l-62 -89h-46l76 110q-62 51 -62 147q0 32 5 57l37 212q22 124 102 189.5t209 65.5q90 0 148 -32l63 91h46l-78 -113q58 -51 58 -144zM117 191q0 -69 39 -109l383 557q-47 29 -123 29
q-106 0 -173 -55t-84 -157l-37 -212q-5 -32 -5 -53zM603 507q0 68 -36 107l-381 -555q46 -26 118 -26q105 0 172 54.5t85 156.5l37 212q5 30 5 51z" />
    <glyph glyph-name="Oslashacute" unicode="&#x1fe;" horiz-adv-x="678" 
d="M655 513q0 -24 -5 -57l-37 -212q-22 -125 -101 -190t-209 -65q-88 0 -144 30l-62 -89h-46l76 110q-62 51 -62 147q0 32 5 57l37 212q22 124 102 189.5t209 65.5q90 0 148 -32l63 91h46l-78 -113q58 -51 58 -144zM117 191q0 -69 39 -109l383 557q-47 29 -123 29
q-106 0 -173 -55t-84 -157l-37 -212q-5 -32 -5 -53zM603 507q0 68 -36 107l-381 -555q46 -26 118 -26q105 0 172 54.5t85 156.5l37 212q5 30 5 51zM516 923h56l-120 -141h-41z" />
    <glyph glyph-name="Otilde" unicode="&#xd5;" horiz-adv-x="678" 
d="M127 40.5q-62 51.5 -62 146.5q0 24 5 57l37 212q22 124 102 189.5t209 65.5q115 0 176 -51.5t61 -145.5q0 -33 -5 -58l-37 -212q-22 -125 -101 -190t-209 -65q-114 0 -176 51.5zM476 87.5q67 54.5 85 156.5l37 212q5 30 5 51q0 78 -48 119.5t-139 41.5q-106 0 -173 -55
t-84 -157l-37 -212q-5 -32 -5 -52q0 -77 48 -118t139 -41q105 0 172 54.5zM317.5 851.5q25.5 26.5 65.5 26.5q20 0 35 -6.5t35 -19.5q17 -11 27.5 -16t22.5 -5q22 0 34.5 11.5t22.5 37.5h35q-9 -38 -34.5 -64t-63.5 -26q-20 0 -35 6.5t-35 19.5q-17 11 -27.5 16t-22.5 5
q-23 0 -36 -12.5t-24 -39.5h-35q10 40 35.5 66.5z" />
    <glyph glyph-name="OE" unicode="&#x152;" horiz-adv-x="1080" 
d="M646 431l-11 -59h362l-7 -43h-362l-5 -28l-10 -57q-2 -14 -4 -19l-3 -18q-5 -28 -5 -47q0 -59 35.5 -88t112.5 -29h250l-7 -43h-251q-159 0 -187 101q-41 -55 -107 -83.5t-151 -28.5q-113 0 -172.5 50t-59.5 144q0 28 6 61l37 212q22 124 104 189.5t212 65.5
q86 0 141 -29t77 -84q63 102 223 102h243l-7 -43h-243q-87 0 -136 -39t-64 -124zM476 87.5q67 54.5 84 156.5l37 212q5 32 5 52q0 77 -47.5 118.5t-138.5 41.5q-105 0 -172 -55t-85 -157l-37 -212q-5 -30 -5 -51q0 -78 48 -119t139 -41q105 0 172 54.5z" />
    <glyph glyph-name="P" unicode="P" horiz-adv-x="623" 
d="M180 700h288q82 0 128 -42.5t46 -117.5q0 -70 -29.5 -123t-83.5 -82.5t-124 -29.5h-242l-54 -305h-52zM410 348q81 0 130.5 53t49.5 139q0 55 -33.5 86t-92.5 31h-240l-54 -309h240z" />
    <glyph glyph-name="Thorn" unicode="&#xde;" horiz-adv-x="622" 
d="M180 700h52l-26 -146h236q82 0 128 -42.5t46 -117.5q0 -70 -29.5 -123t-83.5 -82.5t-124 -29.5h-242l-28 -159h-52zM384 202q81 0 130.5 53t49.5 139q0 55 -33.5 86t-92.5 31h-240l-54 -309h240z" />
    <glyph glyph-name="Q" unicode="Q" horiz-adv-x="678" 
d="M594 659.5q61 -51.5 61 -145.5q0 -33 -5 -58l-37 -212q-20 -115 -89 -179.5t-182 -73.5q37 -60 155 -65l-8 -46q-82 3 -131 30t-68 79q-108 3 -166.5 54.5t-58.5 143.5q0 24 5 57l37 212q22 124 102 189.5t209 65.5q115 0 176 -51.5zM603 507q0 78 -48 119.5t-139 41.5
q-106 0 -173 -55t-84 -157l-37 -212q-5 -32 -5 -52q0 -77 48 -118t139 -41q105 0 172 54.5t85 156.5l37 212q5 30 5 51z" />
    <glyph glyph-name="R" unicode="R" horiz-adv-x="657" 
d="M597 412q-46 -55 -125 -71q43 -17 59.5 -53t22.5 -100l16 -188h-55l-17 188q-4 52 -17 81.5t-43.5 43.5t-89.5 14h-182l-57 -327h-52l123 700h294q78 0 123.5 -41t45.5 -111q0 -81 -46 -136zM542 419.5q49 49.5 49 128.5q0 52 -33 80.5t-93 28.5h-241l-50 -287h241
q78 0 127 49.5z" />
    <glyph glyph-name="Racute" unicode="&#x154;" horiz-adv-x="657" 
d="M597 412q-46 -55 -125 -71q43 -17 59.5 -53t22.5 -100l16 -188h-55l-17 188q-4 52 -17 81.5t-43.5 43.5t-89.5 14h-182l-57 -327h-52l123 700h294q78 0 123.5 -41t45.5 -111q0 -81 -46 -136zM542 419.5q49 49.5 49 128.5q0 52 -33 80.5t-93 28.5h-241l-50 -287h241
q78 0 127 49.5zM510 923h56l-120 -141h-41z" />
    <glyph glyph-name="Rcaron" unicode="&#x158;" horiz-adv-x="657" 
d="M597 412q-46 -55 -125 -71q43 -17 59.5 -53t22.5 -100l16 -188h-55l-17 188q-4 52 -17 81.5t-43.5 43.5t-89.5 14h-182l-57 -327h-52l123 700h294q78 0 123.5 -41t45.5 -111q0 -81 -46 -136zM542 419.5q49 49.5 49 128.5q0 52 -33 80.5t-93 28.5h-241l-50 -287h241
q78 0 127 49.5zM365 865q-29 43 -56 64h50q21 -19 42.5 -50.5t29.5 -52.5q14 20 47.5 51.5t62.5 51.5h50q-35 -23 -79.5 -65.5t-71.5 -81.5h-32q-14 40 -43 83z" />
    <glyph glyph-name="uni0156" unicode="&#x156;" horiz-adv-x="657" 
d="M597 412q-46 -55 -125 -71q43 -17 59.5 -53t22.5 -100l16 -188h-55l-17 188q-4 52 -17 81.5t-43.5 43.5t-89.5 14h-182l-57 -327h-52l123 700h294q78 0 123.5 -41t45.5 -111q0 -81 -46 -136zM542 419.5q49 49.5 49 128.5q0 52 -33 80.5t-93 28.5h-241l-50 -287h241
q78 0 127 49.5zM302 -84.5q9 -10.5 9 -27.5q0 -34 -24.5 -71.5t-62.5 -61.5l-15 18q49 33 60 74q-8 -5 -22 -5q-11 0 -18 7t-7 19q0 22 17 40t37 18q17 0 26 -10.5z" />
    <glyph glyph-name="uni1E5A" unicode="&#x1e5a;" horiz-adv-x="657" 
d="M597 412q-46 -55 -125 -71q43 -17 59.5 -53t22.5 -100l16 -188h-55l-17 188q-4 52 -17 81.5t-43.5 43.5t-89.5 14h-182l-57 -327h-52l123 700h294q78 0 123.5 -41t45.5 -111q0 -81 -46 -136zM542 419.5q49 49.5 49 128.5q0 52 -33 80.5t-93 28.5h-241l-50 -287h241
q78 0 127 49.5zM237.5 -143.5q-9.5 9.5 -9.5 23.5q0 18 15 32.5t33 14.5q15 0 24.5 -9.5t9.5 -23.5q0 -18 -14.5 -32.5t-33.5 -14.5q-15 0 -24.5 9.5z" />
    <glyph glyph-name="uni1E5C" unicode="&#x1e5c;" horiz-adv-x="657" 
d="M597 412q-46 -55 -125 -71q43 -17 59.5 -53t22.5 -100l16 -188h-55l-17 188q-4 52 -17 81.5t-43.5 43.5t-89.5 14h-182l-57 -327h-52l123 700h294q78 0 123.5 -41t45.5 -111q0 -81 -46 -136zM542 419.5q49 49.5 49 128.5q0 52 -33 80.5t-93 28.5h-241l-50 -287h241
q78 0 127 49.5zM237.5 -143.5q-9.5 9.5 -9.5 23.5q0 18 15 32.5t33 14.5q15 0 24.5 -9.5t9.5 -23.5q0 -18 -14.5 -32.5t-33.5 -14.5q-15 0 -24.5 9.5zM287 836h293l-7 -40h-293z" />
    <glyph glyph-name="uni1E5E" unicode="&#x1e5e;" horiz-adv-x="657" 
d="M597 412q-46 -55 -125 -71q43 -17 59.5 -53t22.5 -100l16 -188h-55l-17 188q-4 52 -17 81.5t-43.5 43.5t-89.5 14h-182l-57 -327h-52l123 700h294q78 0 123.5 -41t45.5 -111q0 -81 -46 -136zM542 419.5q49 49.5 49 128.5q0 52 -33 80.5t-93 28.5h-241l-50 -287h241
q78 0 127 49.5zM127 -85h293l-7 -41h-293z" />
    <glyph glyph-name="S" unicode="S" horiz-adv-x="613" 
d="M120 18q-58 29 -95 89l40 32q32 -55 81 -80.5t120 -25.5t125.5 22t84.5 62.5t30 92.5q0 41 -27.5 64t-66.5 34.5t-117 26.5q-91 19 -134.5 56t-43.5 105q0 64 34 112.5t95 75.5t138 27q172 0 222 -111l-40 -29q-24 50 -72 73.5t-114 23.5q-60 0 -108 -21t-75 -59.5
t-27 -88.5q0 -52 40.5 -79t125.5 -43q77 -14 124 -32.5t72.5 -50t25.5 -83.5q0 -66 -37 -116.5t-104 -78t-155 -27.5q-84 0 -142 29z" />
    <glyph glyph-name="Sacute" unicode="&#x15a;" horiz-adv-x="613" 
d="M120 18q-58 29 -95 89l40 32q32 -55 81 -80.5t120 -25.5t125.5 22t84.5 62.5t30 92.5q0 41 -27.5 64t-66.5 34.5t-117 26.5q-91 19 -134.5 56t-43.5 105q0 64 34 112.5t95 75.5t138 27q172 0 222 -111l-40 -29q-24 50 -72 73.5t-114 23.5q-60 0 -108 -21t-75 -59.5
t-27 -88.5q0 -52 40.5 -79t125.5 -43q77 -14 124 -32.5t72.5 -50t25.5 -83.5q0 -66 -37 -116.5t-104 -78t-155 -27.5q-84 0 -142 29zM495 923h56l-120 -141h-41z" />
    <glyph glyph-name="Scaron" unicode="&#x160;" horiz-adv-x="613" 
d="M120 18q-58 29 -95 89l40 32q32 -55 81 -80.5t120 -25.5t125.5 22t84.5 62.5t30 92.5q0 41 -27.5 64t-66.5 34.5t-117 26.5q-91 19 -134.5 56t-43.5 105q0 64 34 112.5t95 75.5t138 27q172 0 222 -111l-40 -29q-24 50 -72 73.5t-114 23.5q-60 0 -108 -21t-75 -59.5
t-27 -88.5q0 -52 40.5 -79t125.5 -43q77 -14 124 -32.5t72.5 -50t25.5 -83.5q0 -66 -37 -116.5t-104 -78t-155 -27.5q-84 0 -142 29zM350 865q-29 43 -56 64h50q21 -19 42.5 -50.5t29.5 -52.5q14 20 47.5 51.5t62.5 51.5h50q-35 -23 -79.5 -65.5t-71.5 -81.5h-32
q-14 40 -43 83z" />
    <glyph glyph-name="Scedilla" unicode="&#x15e;" horiz-adv-x="613" 
d="M272 647q-48 -21 -75 -59.5t-27 -88.5q0 -52 40.5 -79t125.5 -43q77 -14 124 -32.5t72.5 -50t25.5 -83.5q0 -62 -33 -110.5t-93.5 -77.5t-140.5 -33l-18 -41q33 -1 51 -15.5t18 -41.5q0 -39 -29 -59t-82 -20q-47 0 -80 18l15 32q29 -15 66 -15q34 0 50.5 10t16.5 32
q0 27 -51 27q-7 0 -29 -2l31 74q-79 2 -134.5 31t-90.5 87l40 32q32 -55 81 -80.5t120 -25.5t125.5 22t84.5 62.5t30 92.5q0 41 -27.5 64t-66.5 34.5t-117 26.5q-91 19 -134.5 56t-43.5 105q0 64 34 112.5t95 75.5t138 27q172 0 222 -111l-40 -29q-24 50 -72 73.5t-114 23.5
q-60 0 -108 -21z" />
    <glyph glyph-name="Scircumflex" unicode="&#x15c;" horiz-adv-x="613" 
d="M120 18q-58 29 -95 89l40 32q32 -55 81 -80.5t120 -25.5t125.5 22t84.5 62.5t30 92.5q0 41 -27.5 64t-66.5 34.5t-117 26.5q-91 19 -134.5 56t-43.5 105q0 64 34 112.5t95 75.5t138 27q172 0 222 -111l-40 -29q-24 50 -72 73.5t-114 23.5q-60 0 -108 -21t-75 -59.5
t-27 -88.5q0 -52 40.5 -79t125.5 -43q77 -14 124 -32.5t72.5 -50t25.5 -83.5q0 -66 -37 -116.5t-104 -78t-155 -27.5q-84 0 -142 29zM347.5 847.5q44.5 42.5 71.5 81.5h31q14 -40 43.5 -82.5t56.5 -64.5h-51q-21 19 -42.5 50.5t-29.5 52.5q-12 -19 -46 -51t-63 -52h-51
q36 23 80.5 65.5z" />
    <glyph glyph-name="uni0218" unicode="&#x218;" horiz-adv-x="613" 
d="M120 18q-58 29 -95 89l40 32q32 -55 81 -80.5t120 -25.5t125.5 22t84.5 62.5t30 92.5q0 41 -27.5 64t-66.5 34.5t-117 26.5q-91 19 -134.5 56t-43.5 105q0 64 34 112.5t95 75.5t138 27q172 0 222 -111l-40 -29q-24 50 -72 73.5t-114 23.5q-60 0 -108 -21t-75 -59.5
t-27 -88.5q0 -52 40.5 -79t125.5 -43q77 -14 124 -32.5t72.5 -50t25.5 -83.5q0 -66 -37 -116.5t-104 -78t-155 -27.5q-84 0 -142 29zM285 -84.5q9 -10.5 9 -27.5q0 -34 -24.5 -71.5t-62.5 -61.5l-15 18q49 33 60 74q-8 -5 -22 -5q-11 0 -18 7t-7 19q0 22 17 40t37 18
q17 0 26 -10.5z" />
    <glyph glyph-name="uni1E60" unicode="&#x1e60;" horiz-adv-x="613" 
d="M120 18q-58 29 -95 89l40 32q32 -55 81 -80.5t120 -25.5t125.5 22t84.5 62.5t30 92.5q0 41 -27.5 64t-66.5 34.5t-117 26.5q-91 19 -134.5 56t-43.5 105q0 64 34 112.5t95 75.5t138 27q172 0 222 -111l-40 -29q-24 50 -72 73.5t-114 23.5q-60 0 -108 -21t-75 -59.5
t-27 -88.5q0 -52 40.5 -79t125.5 -43q77 -14 124 -32.5t72.5 -50t25.5 -83.5q0 -66 -37 -116.5t-104 -78t-155 -27.5q-84 0 -142 29zM385.5 793.5q-9.5 9.5 -9.5 23.5q0 18 14.5 32.5t32.5 14.5q15 0 24.5 -9.5t9.5 -23.5q0 -18 -14.5 -32.5t-32.5 -14.5q-15 0 -24.5 9.5z
" />
    <glyph glyph-name="uni1E62" unicode="&#x1e62;" horiz-adv-x="613" 
d="M120 18q-58 29 -95 89l40 32q32 -55 81 -80.5t120 -25.5t125.5 22t84.5 62.5t30 92.5q0 41 -27.5 64t-66.5 34.5t-117 26.5q-91 19 -134.5 56t-43.5 105q0 64 34 112.5t95 75.5t138 27q172 0 222 -111l-40 -29q-24 50 -72 73.5t-114 23.5q-60 0 -108 -21t-75 -59.5
t-27 -88.5q0 -52 40.5 -79t125.5 -43q77 -14 124 -32.5t72.5 -50t25.5 -83.5q0 -66 -37 -116.5t-104 -78t-155 -27.5q-84 0 -142 29zM220.5 -143.5q-9.5 9.5 -9.5 23.5q0 18 15 32.5t33 14.5q15 0 24.5 -9.5t9.5 -23.5q0 -18 -14.5 -32.5t-33.5 -14.5q-15 0 -24.5 9.5z" />
    <glyph glyph-name="uni1E9E" unicode="&#x1e9e;" horiz-adv-x="631" 
d="M206 9l7 44q41 -20 101 -20q84 0 133 28.5t58 82.5l20 115q2 14 2 20q0 91 -173 91h-26l8 45l227 193q-92 60 -195 60q-75 0 -116 -45t-57 -134l-86 -489h-52l86 489q18 105 72.5 163.5t160.5 58.5q121 0 240 -78l-7 -38l-217 -184q94 -4 141 -35t47 -88q0 -14 -3 -29
l-20 -117q-13 -72 -76.5 -112.5t-165.5 -40.5q-62 0 -109 20z" />
    <glyph glyph-name="uni018F" unicode="&#x18f;" horiz-adv-x="681" 
d="M598.5 664.5q61.5 -46.5 61.5 -139.5q0 -27 -6 -60l-40 -229q-20 -115 -101.5 -181t-207.5 -66q-114 0 -176.5 53t-62.5 151q0 102 41.5 143.5t130.5 41.5h349l15 87q5 32 5 53q0 76 -46.5 113t-142.5 37q-146 0 -242 -90l-28 30q53 52 119 77.5t151 25.5
q119 0 180.5 -46.5zM478 88.5q68 55.5 84 147.5l17 99h-343q-62 0 -90 -30.5t-28 -110.5q0 -79 49 -120t142 -41q101 0 169 55.5z" />
    <glyph glyph-name="T" unicode="T" horiz-adv-x="580" 
d="M339 657h-232l8 43h515l-8 -43h-231l-116 -657h-52z" />
    <glyph glyph-name="Tbar" unicode="&#x166;" horiz-adv-x="580" 
d="M391 657l-51 -287h147l-7 -39h-147l-58 -331h-52l58 331h-146l7 39h146l51 287h-232l8 43h515l-8 -43h-231z" />
    <glyph glyph-name="Tcaron" unicode="&#x164;" horiz-adv-x="580" 
d="M339 657h-232l8 43h515l-8 -43h-231l-116 -657h-52zM321 865q-29 43 -56 64h50q21 -19 42.5 -50.5t29.5 -52.5q14 20 47.5 51.5t62.5 51.5h50q-35 -23 -79.5 -65.5t-71.5 -81.5h-32q-14 40 -43 83z" />
    <glyph glyph-name="uni0162" unicode="&#x162;" horiz-adv-x="580" 
d="M630 700l-8 -43h-231l-116 -657h-5l-23 -51q33 -1 51 -15.5t18 -41.5q0 -39 -29 -59t-82 -20q-47 0 -80 18l15 32q29 -15 66 -15q34 0 50.5 10t16.5 32q0 27 -51 27q-7 0 -29 -2l36 85h-6l116 657h-232l8 43h515z" />
    <glyph glyph-name="uni021A" unicode="&#x21a;" horiz-adv-x="580" 
d="M339 657h-232l8 43h515l-8 -43h-231l-116 -657h-52zM262 -84.5q9 -10.5 9 -27.5q0 -34 -24.5 -71.5t-62.5 -61.5l-15 18q49 33 60 74q-8 -5 -22 -5q-11 0 -18 7t-7 19q0 22 17 40t37 18q17 0 26 -10.5z" />
    <glyph glyph-name="uni1E6C" unicode="&#x1e6c;" horiz-adv-x="580" 
d="M339 657h-232l8 43h515l-8 -43h-231l-116 -657h-52zM197.5 -143.5q-9.5 9.5 -9.5 23.5q0 18 15 32.5t33 14.5q15 0 24.5 -9.5t9.5 -23.5q0 -18 -14.5 -32.5t-33.5 -14.5q-15 0 -24.5 9.5z" />
    <glyph glyph-name="uni1E6E" unicode="&#x1e6e;" horiz-adv-x="580" 
d="M339 657h-232l8 43h515l-8 -43h-231l-116 -657h-52zM87 -85h293l-7 -41h-293z" />
    <glyph glyph-name="U" unicode="U" horiz-adv-x="668" 
d="M125 33.5q-64 44.5 -64 119.5q0 16 3 32l91 515h52l-91 -515q-2 -9 -2 -26q0 -59 49 -92.5t136 -33.5q96 0 159.5 41t76.5 111l91 515h52l-91 -515q-17 -91 -93.5 -143.5t-193.5 -52.5q-111 0 -175 44.5z" />
    <glyph glyph-name="Uacute" unicode="&#xda;" horiz-adv-x="668" 
d="M125 33.5q-64 44.5 -64 119.5q0 16 3 32l91 515h52l-91 -515q-2 -9 -2 -26q0 -59 49 -92.5t136 -33.5q96 0 159.5 41t76.5 111l91 515h52l-91 -515q-17 -91 -93.5 -143.5t-193.5 -52.5q-111 0 -175 44.5zM516 923h56l-120 -141h-41z" />
    <glyph glyph-name="Ubreve" unicode="&#x16c;" horiz-adv-x="668" 
d="M125 33.5q-64 44.5 -64 119.5q0 16 3 32l91 515h52l-91 -515q-2 -9 -2 -26q0 -59 49 -92.5t136 -33.5q96 0 159.5 41t76.5 111l91 515h52l-91 -515q-17 -91 -93.5 -143.5t-193.5 -52.5q-111 0 -175 44.5zM343 806q-33 29 -33 78q0 13 3 28h36l-1 -14q0 -39 23 -60.5
t65 -21.5q45 0 77 25.5t43 70.5h37q-11 -62 -54 -98.5t-107 -36.5q-56 0 -89 29z" />
    <glyph glyph-name="uni01D3" unicode="&#x1d3;" horiz-adv-x="668" 
d="M125 33.5q-64 44.5 -64 119.5q0 16 3 32l91 515h52l-91 -515q-2 -9 -2 -26q0 -59 49 -92.5t136 -33.5q96 0 159.5 41t76.5 111l91 515h52l-91 -515q-17 -91 -93.5 -143.5t-193.5 -52.5q-111 0 -175 44.5zM372 865q-29 43 -56 64h50q21 -19 42.5 -50.5t29.5 -52.5
q14 20 47.5 51.5t62.5 51.5h50q-35 -23 -79.5 -65.5t-71.5 -81.5h-32q-14 40 -43 83z" />
    <glyph glyph-name="Ucircumflex" unicode="&#xdb;" horiz-adv-x="668" 
d="M125 33.5q-64 44.5 -64 119.5q0 16 3 32l91 515h52l-91 -515q-2 -9 -2 -26q0 -59 49 -92.5t136 -33.5q96 0 159.5 41t76.5 111l91 515h52l-91 -515q-17 -91 -93.5 -143.5t-193.5 -52.5q-111 0 -175 44.5zM368.5 847.5q44.5 42.5 71.5 81.5h31q14 -40 43.5 -82.5
t56.5 -64.5h-51q-21 19 -42.5 50.5t-29.5 52.5q-12 -19 -46 -51t-63 -52h-51q36 23 80.5 65.5z" />
    <glyph glyph-name="Udieresis" unicode="&#xdc;" horiz-adv-x="668" 
d="M125 33.5q-64 44.5 -64 119.5q0 16 3 32l91 515h52l-91 -515q-2 -9 -2 -26q0 -59 49 -92.5t136 -33.5q96 0 159.5 41t76.5 111l91 515h52l-91 -515q-17 -91 -93.5 -143.5t-193.5 -52.5q-111 0 -175 44.5zM330 793.5q-8 8.5 -8 20.5q0 17 12.5 29.5t29.5 12.5
q13 0 21 -8.5t8 -21.5q0 -16 -13 -28.5t-29 -12.5q-13 0 -21 8.5zM488.5 793.5q-8.5 8.5 -8.5 20.5q0 16 13 29t30 13q12 0 20.5 -9t8.5 -21q0 -16 -13 -28.5t-29 -12.5q-13 0 -21.5 8.5z" />
    <glyph glyph-name="uni01D7" unicode="&#x1d7;" horiz-adv-x="668" 
d="M125 33.5q-64 44.5 -64 119.5q0 16 3 32l91 515h52l-91 -515q-2 -9 -2 -26q0 -59 49 -92.5t136 -33.5q96 0 159.5 41t76.5 111l91 515h52l-91 -515q-17 -91 -93.5 -143.5t-193.5 -52.5q-111 0 -175 44.5zM510 1021h56l-91 -104h-41zM330 793.5q-8 8.5 -8 20.5
q0 17 13 29.5t29 12.5q13 0 21 -8.5t8 -21.5q0 -16 -13 -28.5t-29 -12.5q-13 0 -21 8.5zM488.5 793.5q-8.5 8.5 -8.5 20.5q0 16 13 29t30 13q12 0 20.5 -9t8.5 -21q0 -16 -13 -28.5t-29 -12.5q-13 0 -21.5 8.5z" />
    <glyph glyph-name="uni01D9" unicode="&#x1d9;" horiz-adv-x="668" 
d="M125 33.5q-64 44.5 -64 119.5q0 16 3 32l91 515h52l-91 -515q-2 -9 -2 -26q0 -59 49 -92.5t136 -33.5q96 0 159.5 41t76.5 111l91 515h52l-91 -515q-17 -91 -93.5 -143.5t-193.5 -52.5q-111 0 -175 44.5zM394.5 975q-28.5 35 -54.5 53h46q21 -16 43 -43t27 -41
q9 14 41 41t58 43h49q-33 -18 -73.5 -53t-64.5 -67h-30q-13 32 -41.5 67zM330 793.5q-8 8.5 -8 20.5q0 17 13 29.5t29 12.5q13 0 21 -8.5t8 -21.5q0 -16 -13 -28.5t-29 -12.5q-13 0 -21 8.5zM488.5 793.5q-8.5 8.5 -8.5 20.5q0 16 13 29t30 13q12 0 20.5 -9t8.5 -21
q0 -16 -13 -28.5t-29 -12.5q-13 0 -21.5 8.5z" />
    <glyph glyph-name="uni01DB" unicode="&#x1db;" horiz-adv-x="668" 
d="M125 33.5q-64 44.5 -64 119.5q0 16 3 32l91 515h52l-91 -515q-2 -9 -2 -26q0 -59 49 -92.5t136 -33.5q96 0 159.5 41t76.5 111l91 515h52l-91 -515q-17 -91 -93.5 -143.5t-193.5 -52.5q-111 0 -175 44.5zM372 1020h56l40 -104h-41zM330 793.5q-8 8.5 -8 20.5
q0 17 13 29.5t29 12.5q13 0 21 -8.5t8 -21.5q0 -16 -13 -28.5t-29 -12.5q-13 0 -21 8.5zM488.5 793.5q-8.5 8.5 -8.5 20.5q0 16 13 29t30 13q12 0 20.5 -9t8.5 -21q0 -16 -13 -28.5t-29 -12.5q-13 0 -21.5 8.5z" />
    <glyph glyph-name="uni01D5" unicode="&#x1d5;" horiz-adv-x="668" 
d="M125 33.5q-64 44.5 -64 119.5q0 16 3 32l91 515h52l-91 -515q-2 -9 -2 -26q0 -59 49 -92.5t136 -33.5q96 0 159.5 41t76.5 111l91 515h52l-91 -515q-17 -91 -93.5 -143.5t-193.5 -52.5q-111 0 -175 44.5zM317 966h293l-7 -40h-293zM331 793.5q-8 8.5 -8 20.5
q0 17 13 29.5t29 12.5q13 0 21 -8.5t8 -21.5q0 -16 -13 -28.5t-29 -12.5q-13 0 -21 8.5zM489.5 793.5q-8.5 8.5 -8.5 20.5q0 16 13 29t30 13q12 0 20.5 -9t8.5 -21q0 -16 -13 -28.5t-29 -12.5q-13 0 -21.5 8.5z" />
    <glyph glyph-name="uni1EE4" unicode="&#x1ee4;" horiz-adv-x="668" 
d="M125 33.5q-64 44.5 -64 119.5q0 16 3 32l91 515h52l-91 -515q-2 -9 -2 -26q0 -59 49 -92.5t136 -33.5q96 0 159.5 41t76.5 111l91 515h52l-91 -515q-17 -91 -93.5 -143.5t-193.5 -52.5q-111 0 -175 44.5zM242.5 -143.5q-9.5 9.5 -9.5 23.5q0 18 15 32.5t33 14.5
q15 0 24.5 -9.5t9.5 -23.5q0 -18 -14.5 -32.5t-33.5 -14.5q-15 0 -24.5 9.5z" />
    <glyph glyph-name="Ugrave" unicode="&#xd9;" horiz-adv-x="668" 
d="M125 33.5q-64 44.5 -64 119.5q0 16 3 32l91 515h52l-91 -515q-2 -9 -2 -26q0 -59 49 -92.5t136 -33.5q96 0 159.5 41t76.5 111l91 515h52l-91 -515q-17 -91 -93.5 -143.5t-193.5 -52.5q-111 0 -175 44.5zM334 923h56l56 -141h-42z" />
    <glyph glyph-name="uni1EE6" unicode="&#x1ee6;" horiz-adv-x="668" 
d="M125 33.5q-64 44.5 -64 119.5q0 16 3 32l91 515h52l-91 -515q-2 -9 -2 -26q0 -59 49 -92.5t136 -33.5q96 0 159.5 41t76.5 111l91 515h52l-91 -515q-17 -91 -93.5 -143.5t-193.5 -52.5q-111 0 -175 44.5zM454 820l-6 -38h-41l11 61q41 6 60 18t19 38q0 31 -40 31
q-25 0 -49 -8l-3 32q30 11 61 11q33 0 54 -14.5t21 -43.5q0 -70 -87 -87z" />
    <glyph glyph-name="Uhorn" unicode="&#x1af;" horiz-adv-x="696" 
d="M750.5 605.5q-35.5 -38.5 -96.5 -43.5l-67 -377q-17 -91 -93.5 -143.5t-193.5 -52.5q-111 0 -175 44.5t-64 119.5q0 16 3 32l91 515h52l-91 -515q-2 -9 -2 -26q0 -59 49 -92.5t136 -33.5q96 0 159.5 41t76.5 111l91 515h52l-19 -106q39 6 61.5 37t33.5 94h47
q-15 -81 -50.5 -119.5z" />
    <glyph glyph-name="uni1EE8" unicode="&#x1ee8;" horiz-adv-x="696" 
d="M750.5 605.5q-35.5 -38.5 -96.5 -43.5l-67 -377q-17 -91 -93.5 -143.5t-193.5 -52.5q-111 0 -175 44.5t-64 119.5q0 16 3 32l91 515h52l-91 -515q-2 -9 -2 -26q0 -59 49 -92.5t136 -33.5q96 0 159.5 41t76.5 111l91 515h52l-19 -106q39 6 61.5 37t33.5 94h47
q-15 -81 -50.5 -119.5zM516 923h56l-120 -141h-41z" />
    <glyph glyph-name="uni1EF0" unicode="&#x1ef0;" horiz-adv-x="696" 
d="M750.5 605.5q-35.5 -38.5 -96.5 -43.5l-67 -377q-17 -91 -93.5 -143.5t-193.5 -52.5q-111 0 -175 44.5t-64 119.5q0 16 3 32l91 515h52l-91 -515q-2 -9 -2 -26q0 -59 49 -92.5t136 -33.5q96 0 159.5 41t76.5 111l91 515h52l-19 -106q39 6 61.5 37t33.5 94h47
q-15 -81 -50.5 -119.5zM242.5 -143.5q-9.5 9.5 -9.5 23.5q0 18 15 32.5t33 14.5q15 0 24.5 -9.5t9.5 -23.5q0 -18 -14.5 -32.5t-33.5 -14.5q-15 0 -24.5 9.5z" />
    <glyph glyph-name="uni1EEA" unicode="&#x1eea;" horiz-adv-x="696" 
d="M750.5 605.5q-35.5 -38.5 -96.5 -43.5l-67 -377q-17 -91 -93.5 -143.5t-193.5 -52.5q-111 0 -175 44.5t-64 119.5q0 16 3 32l91 515h52l-91 -515q-2 -9 -2 -26q0 -59 49 -92.5t136 -33.5q96 0 159.5 41t76.5 111l91 515h52l-19 -106q39 6 61.5 37t33.5 94h47
q-15 -81 -50.5 -119.5zM334 923h56l56 -141h-42z" />
    <glyph glyph-name="uni1EEC" unicode="&#x1eec;" horiz-adv-x="696" 
d="M750.5 605.5q-35.5 -38.5 -96.5 -43.5l-67 -377q-17 -91 -93.5 -143.5t-193.5 -52.5q-111 0 -175 44.5t-64 119.5q0 16 3 32l91 515h52l-91 -515q-2 -9 -2 -26q0 -59 49 -92.5t136 -33.5q96 0 159.5 41t76.5 111l91 515h52l-19 -106q39 6 61.5 37t33.5 94h47
q-15 -81 -50.5 -119.5zM454 820l-6 -38h-41l11 61q41 6 60 18t19 38q0 31 -40 31q-25 0 -49 -8l-3 32q30 11 61 11q33 0 54 -14.5t21 -43.5q0 -70 -87 -87z" />
    <glyph glyph-name="uni1EEE" unicode="&#x1eee;" horiz-adv-x="696" 
d="M750.5 605.5q-35.5 -38.5 -96.5 -43.5l-67 -377q-17 -91 -93.5 -143.5t-193.5 -52.5q-111 0 -175 44.5t-64 119.5q0 16 3 32l91 515h52l-91 -515q-2 -9 -2 -26q0 -59 49 -92.5t136 -33.5q96 0 159.5 41t76.5 111l91 515h52l-19 -106q39 6 61.5 37t33.5 94h47
q-15 -81 -50.5 -119.5zM317.5 851.5q25.5 26.5 65.5 26.5q20 0 35 -6.5t35 -19.5q17 -11 27.5 -16t22.5 -5q22 0 34.5 11.5t22.5 37.5h35q-9 -38 -34.5 -64t-63.5 -26q-20 0 -35 6.5t-35 19.5q-17 11 -27.5 16t-22.5 5q-23 0 -36 -12.5t-24 -39.5h-35q10 40 35.5 66.5z" />
    <glyph glyph-name="Uhungarumlaut" unicode="&#x170;" horiz-adv-x="668" 
d="M125 33.5q-64 44.5 -64 119.5q0 16 3 32l91 515h52l-91 -515q-2 -9 -2 -26q0 -59 49 -92.5t136 -33.5q96 0 159.5 41t76.5 111l91 515h52l-91 -515q-17 -91 -93.5 -143.5t-193.5 -52.5q-111 0 -175 44.5zM430 923h53l-107 -141h-40zM572 923h52l-107 -141h-40z" />
    <glyph glyph-name="Umacron" unicode="&#x16a;" horiz-adv-x="668" 
d="M125 33.5q-64 44.5 -64 119.5q0 16 3 32l91 515h52l-91 -515q-2 -9 -2 -26q0 -59 49 -92.5t136 -33.5q96 0 159.5 41t76.5 111l91 515h52l-91 -515q-17 -91 -93.5 -143.5t-193.5 -52.5q-111 0 -175 44.5zM293 836h293l-7 -40h-293z" />
    <glyph glyph-name="Uogonek" unicode="&#x172;" horiz-adv-x="668" 
d="M678 700l-91 -515q-17 -89 -90.5 -141.5t-186.5 -54.5q-25 -31 -40 -57t-15 -50q0 -18 12 -27t31 -9q22 0 57 14l4 -32q-33 -18 -71 -18q-42 0 -60.5 18.5t-18.5 44.5q0 28 17 59t44 58q-97 6 -153 49.5t-56 113.5q0 16 3 32l91 515h52l-91 -515q-2 -9 -2 -26
q0 -59 49 -92.5t136 -33.5q96 0 159.5 41t76.5 111l91 515h52z" />
    <glyph glyph-name="Uring" unicode="&#x16e;" horiz-adv-x="668" 
d="M125 33.5q-64 44.5 -64 119.5q0 16 3 32l91 515h52l-91 -515q-2 -9 -2 -26q0 -59 49 -92.5t136 -33.5q96 0 159.5 41t76.5 111l91 515h52l-91 -515q-17 -91 -93.5 -143.5t-193.5 -52.5q-111 0 -175 44.5zM371.5 789.5q-20.5 19.5 -20.5 51.5q0 45 30.5 74.5t76.5 29.5
q36 0 56.5 -19.5t20.5 -51.5q0 -45 -30 -74.5t-77 -29.5q-36 0 -56.5 19.5zM481 820q19 20 19 51q0 20 -12.5 32t-34.5 12q-29 0 -48 -20t-19 -51q0 -21 12.5 -32.5t34.5 -11.5q29 0 48 20z" />
    <glyph glyph-name="Utilde" unicode="&#x168;" horiz-adv-x="668" 
d="M125 33.5q-64 44.5 -64 119.5q0 16 3 32l91 515h52l-91 -515q-2 -9 -2 -26q0 -59 49 -92.5t136 -33.5q96 0 159.5 41t76.5 111l91 515h52l-91 -515q-17 -91 -93.5 -143.5t-193.5 -52.5q-111 0 -175 44.5zM317.5 851.5q25.5 26.5 65.5 26.5q20 0 35 -6.5t35 -19.5
q17 -11 27.5 -16t22.5 -5q22 0 34.5 11.5t22.5 37.5h35q-9 -38 -34.5 -64t-63.5 -26q-20 0 -35 6.5t-35 19.5q-17 11 -27.5 16t-22.5 5q-23 0 -36 -12.5t-24 -39.5h-35q10 40 35.5 66.5z" />
    <glyph glyph-name="V" unicode="V" horiz-adv-x="630" 
d="M215.5 16.5q-19.5 27.5 -27.5 90.5l-73 593h52l74 -592q5 -40 13.5 -55t25.5 -15q18 0 31.5 15t32.5 55l283 592h53l-282 -593q-31 -64 -56.5 -91t-65.5 -27q-41 0 -60.5 27.5z" />
    <glyph glyph-name="W" unicode="W" horiz-adv-x="885" 
d="M932 700l-283 -700h-23q-41 0 -62 17.5t-26 54.5l-55 388l-194 -391q-19 -38 -46 -53.5t-66 -15.5h-22l-37 700h51l33 -653q16 1 27 10t22 29l255 509l76 -509q7 -35 35 -38l263 652h52z" />
    <glyph glyph-name="Wacute" unicode="&#x1e82;" horiz-adv-x="885" 
d="M932 700l-283 -700h-23q-41 0 -62 17.5t-26 54.5l-55 388l-194 -391q-19 -38 -46 -53.5t-66 -15.5h-22l-37 700h51l33 -653q16 1 27 10t22 29l255 509l76 -509q7 -35 35 -38l263 652h52zM625 923h56l-120 -141h-41z" />
    <glyph glyph-name="Wcircumflex" unicode="&#x174;" horiz-adv-x="885" 
d="M932 700l-283 -700h-23q-41 0 -62 17.5t-26 54.5l-55 388l-194 -391q-19 -38 -46 -53.5t-66 -15.5h-22l-37 700h51l33 -653q16 1 27 10t22 29l255 509l76 -509q7 -35 35 -38l263 652h52zM477.5 847.5q44.5 42.5 71.5 81.5h31q14 -40 43.5 -82.5t56.5 -64.5h-51
q-21 19 -42.5 50.5t-29.5 52.5q-12 -19 -46 -51t-63 -52h-51q36 23 80.5 65.5z" />
    <glyph glyph-name="Wdieresis" unicode="&#x1e84;" horiz-adv-x="885" 
d="M932 700l-283 -700h-23q-41 0 -62 17.5t-26 54.5l-55 388l-194 -391q-19 -38 -46 -53.5t-66 -15.5h-22l-37 700h51l33 -653q16 1 27 10t22 29l255 509l76 -509q7 -35 35 -38l263 652h52zM439 793.5q-8 8.5 -8 20.5q0 17 12.5 29.5t29.5 12.5q13 0 21 -8.5t8 -21.5
q0 -16 -13 -28.5t-29 -12.5q-13 0 -21 8.5zM597.5 793.5q-8.5 8.5 -8.5 20.5q0 16 13 29t30 13q12 0 20.5 -9t8.5 -21q0 -16 -13 -28.5t-29 -12.5q-13 0 -21.5 8.5z" />
    <glyph glyph-name="Wgrave" unicode="&#x1e80;" horiz-adv-x="885" 
d="M932 700l-283 -700h-23q-41 0 -62 17.5t-26 54.5l-55 388l-194 -391q-19 -38 -46 -53.5t-66 -15.5h-22l-37 700h51l33 -653q16 1 27 10t22 29l255 509l76 -509q7 -35 35 -38l263 652h52zM443 923h56l56 -141h-42z" />
    <glyph glyph-name="X" unicode="X" horiz-adv-x="567" 
d="M338 350l180 -350h-61l-160 312l-270 -312h-61l308 356l-176 344h60l157 -306l265 306h59z" />
    <glyph glyph-name="Y" unicode="Y" horiz-adv-x="562" 
d="M266 291l-171 409h57l149 -359l273 359h58l-314 -409l-51 -291h-52z" />
    <glyph glyph-name="Yacute" unicode="&#xdd;" horiz-adv-x="562" 
d="M266 291l-171 409h57l149 -359l273 359h58l-314 -409l-51 -291h-52zM464 923h56l-120 -141h-41z" />
    <glyph glyph-name="Ycircumflex" unicode="&#x176;" horiz-adv-x="562" 
d="M266 291l-171 409h57l149 -359l273 359h58l-314 -409l-51 -291h-52zM316.5 847.5q44.5 42.5 71.5 81.5h31q14 -40 43.5 -82.5t56.5 -64.5h-51q-21 19 -42.5 50.5t-29.5 52.5q-12 -19 -46 -51t-63 -52h-51q36 23 80.5 65.5z" />
    <glyph glyph-name="Ydieresis" unicode="&#x178;" horiz-adv-x="562" 
d="M266 291l-171 409h57l149 -359l273 359h58l-314 -409l-51 -291h-52zM278 793.5q-8 8.5 -8 20.5q0 17 12.5 29.5t29.5 12.5q13 0 21 -8.5t8 -21.5q0 -16 -13 -28.5t-29 -12.5q-13 0 -21 8.5zM436.5 793.5q-8.5 8.5 -8.5 20.5q0 16 13 29t30 13q12 0 20.5 -9t8.5 -21
q0 -16 -13 -28.5t-29 -12.5q-13 0 -21.5 8.5z" />
    <glyph glyph-name="uni1E8E" unicode="&#x1e8e;" horiz-adv-x="562" 
d="M266 291l-171 409h57l149 -359l273 359h58l-314 -409l-51 -291h-52zM354.5 793.5q-9.5 9.5 -9.5 23.5q0 18 14.5 32.5t32.5 14.5q15 0 24.5 -9.5t9.5 -23.5q0 -18 -14.5 -32.5t-32.5 -14.5q-15 0 -24.5 9.5z" />
    <glyph glyph-name="uni1EF4" unicode="&#x1ef4;" horiz-adv-x="562" 
d="M266 291l-171 409h57l149 -359l273 359h58l-314 -409l-51 -291h-52zM189.5 -143.5q-9.5 9.5 -9.5 23.5q0 18 15 32.5t33 14.5q15 0 24.5 -9.5t9.5 -23.5q0 -18 -14.5 -32.5t-33.5 -14.5q-15 0 -24.5 9.5z" />
    <glyph glyph-name="Ygrave" unicode="&#x1ef2;" horiz-adv-x="562" 
d="M266 291l-171 409h57l149 -359l273 359h58l-314 -409l-51 -291h-52zM282 923h56l56 -141h-42z" />
    <glyph glyph-name="uni1EF6" unicode="&#x1ef6;" horiz-adv-x="562" 
d="M266 291l-171 409h57l149 -359l273 359h58l-314 -409l-51 -291h-52zM402 820l-6 -38h-41l11 61q41 6 60 18t19 38q0 31 -40 31q-25 0 -49 -8l-3 32q30 11 61 11q33 0 54 -14.5t21 -43.5q0 -70 -87 -87z" />
    <glyph glyph-name="uni1EF8" unicode="&#x1ef8;" horiz-adv-x="562" 
d="M266 291l-171 409h57l149 -359l273 359h58l-314 -409l-51 -291h-52zM265.5 851.5q25.5 26.5 65.5 26.5q20 0 35 -6.5t35 -19.5q17 -11 27.5 -16t22.5 -5q22 0 34.5 11.5t22.5 37.5h35q-9 -38 -34.5 -64t-63.5 -26q-20 0 -35 6.5t-35 19.5q-17 11 -27.5 16t-22.5 5
q-23 0 -36 -12.5t-24 -39.5h-35q10 40 35.5 66.5z" />
    <glyph glyph-name="Z" unicode="Z" horiz-adv-x="588" 
d="M57 73q-1 -3 -1 -8q0 -22 36 -22h427l-7 -43h-432q-73 0 -73 54q0 6 2 18l4 22l538 563h-424l8 43h482l-8 -44l-551 -578z" />
    <glyph glyph-name="Zacute" unicode="&#x179;" horiz-adv-x="588" 
d="M57 73q-1 -3 -1 -8q0 -22 36 -22h427l-7 -43h-432q-73 0 -73 54q0 6 2 18l4 22l538 563h-424l8 43h482l-8 -44l-551 -578zM474 923h56l-120 -141h-41z" />
    <glyph glyph-name="Zcaron" unicode="&#x17d;" horiz-adv-x="588" 
d="M57 73q-1 -3 -1 -8q0 -22 36 -22h427l-7 -43h-432q-73 0 -73 54q0 6 2 18l4 22l538 563h-424l8 43h482l-8 -44l-551 -578zM329 865q-29 43 -56 64h50q21 -19 42.5 -50.5t29.5 -52.5q14 20 47.5 51.5t62.5 51.5h50q-35 -23 -79.5 -65.5t-71.5 -81.5h-32q-14 40 -43 83z
" />
    <glyph glyph-name="Zdotaccent" unicode="&#x17b;" horiz-adv-x="588" 
d="M57 73q-1 -3 -1 -8q0 -22 36 -22h427l-7 -43h-432q-73 0 -73 54q0 6 2 18l4 22l538 563h-424l8 43h482l-8 -44l-551 -578zM364.5 793.5q-9.5 9.5 -9.5 23.5q0 18 14.5 32.5t32.5 14.5q15 0 24.5 -9.5t9.5 -23.5q0 -18 -14.5 -32.5t-32.5 -14.5q-15 0 -24.5 9.5z" />
    <glyph glyph-name="uni1E92" unicode="&#x1e92;" horiz-adv-x="588" 
d="M57 73q-1 -3 -1 -8q0 -22 36 -22h427l-7 -43h-432q-73 0 -73 54q0 6 2 18l4 22l538 563h-424l8 43h482l-8 -44l-551 -578zM220.5 -143.5q-9.5 9.5 -9.5 23.5q0 18 15 32.5t33 14.5q15 0 24.5 -9.5t9.5 -23.5q0 -18 -14.5 -32.5t-33.5 -14.5q-15 0 -24.5 9.5z" />
    <glyph glyph-name="a" unicode="a" horiz-adv-x="524" 
d="M414 68q-1 -5 -1 -13q0 -18 19 -36l-33 -30q-34 26 -34 62q0 14 2 22v1q-32 -41 -81 -63t-111 -22q-63 0 -100 31.5t-37 84.5q0 76 51 114t144 47l86 8q47 4 67 15.5t26 38.5q2 16 2 23q0 44 -30.5 68t-83.5 24q-63 0 -98 -15t-64 -48l-30 26q29 37 75.5 56t118.5 19
q74 0 117.5 -33.5t43.5 -91.5q0 -14 -3 -29zM400 261q-27 -18 -93 -24l-75 -6q-71 -6 -109 -37.5t-38 -85.5q0 -38 25.5 -58t73.5 -20q79 0 134 39t67 104z" />
    <glyph glyph-name="aacute" unicode="&#xe1;" horiz-adv-x="524" 
d="M414 68q-1 -5 -1 -13q0 -18 19 -36l-33 -30q-34 26 -34 62q0 14 2 22v1q-32 -41 -81 -63t-111 -22q-63 0 -100 31.5t-37 84.5q0 76 51 114t144 47l86 8q47 4 67 15.5t26 38.5q2 16 2 23q0 44 -30.5 68t-83.5 24q-63 0 -98 -15t-64 -48l-30 26q29 37 75.5 56t118.5 19
q74 0 117.5 -33.5t43.5 -91.5q0 -14 -3 -29zM400 261q-27 -18 -93 -24l-75 -6q-71 -6 -109 -37.5t-38 -85.5q0 -38 25.5 -58t73.5 -20q79 0 134 39t67 104zM409 693h56l-120 -141h-41z" />
    <glyph glyph-name="abreve" unicode="&#x103;" horiz-adv-x="524" 
d="M414 68q-1 -5 -1 -13q0 -18 19 -36l-33 -30q-34 26 -34 62q0 14 2 22v1q-32 -41 -81 -63t-111 -22q-63 0 -100 31.5t-37 84.5q0 76 51 114t144 47l86 8q47 4 67 15.5t26 38.5q2 16 2 23q0 44 -30.5 68t-83.5 24q-63 0 -98 -15t-64 -48l-30 26q29 37 75.5 56t118.5 19
q74 0 117.5 -33.5t43.5 -91.5q0 -14 -3 -29zM400 261q-27 -18 -93 -24l-75 -6q-71 -6 -109 -37.5t-38 -85.5q0 -38 25.5 -58t73.5 -20q79 0 134 39t67 104zM236 576q-33 29 -33 78q0 13 3 28h36l-1 -14q0 -39 23 -60.5t65 -21.5q45 0 77 25.5t43 70.5h37q-11 -62 -54 -98.5
t-107 -36.5q-56 0 -89 29z" />
    <glyph glyph-name="uni1EAF" unicode="&#x1eaf;" horiz-adv-x="524" 
d="M414 68q-1 -5 -1 -13q0 -18 19 -36l-33 -30q-34 26 -34 62q0 14 2 22v1q-32 -41 -81 -63t-111 -22q-63 0 -100 31.5t-37 84.5q0 76 51 114t144 47l86 8q47 4 67 15.5t26 38.5q2 16 2 23q0 44 -30.5 68t-83.5 24q-63 0 -98 -15t-64 -48l-30 26q29 37 75.5 56t118.5 19
q74 0 117.5 -33.5t43.5 -91.5q0 -14 -3 -29zM400 261q-27 -18 -93 -24l-75 -6q-71 -6 -109 -37.5t-38 -85.5q0 -38 25.5 -58t73.5 -20q79 0 134 39t67 104zM411 832h56l-91 -104h-41zM234.5 575.5q-31.5 28.5 -31.5 78.5q0 13 3 28h36l-1 -14q0 -39 23 -60.5t65 -21.5
q46 0 77.5 25.5t42.5 70.5h37q-11 -62 -55.5 -98.5t-108.5 -36.5q-56 0 -87.5 28.5z" />
    <glyph glyph-name="uni1EB7" unicode="&#x1eb7;" horiz-adv-x="524" 
d="M414 68q-1 -5 -1 -13q0 -18 19 -36l-33 -30q-34 26 -34 62q0 14 2 22v1q-32 -41 -81 -63t-111 -22q-63 0 -100 31.5t-37 84.5q0 76 51 114t144 47l86 8q47 4 67 15.5t26 38.5q2 16 2 23q0 44 -30.5 68t-83.5 24q-63 0 -98 -15t-64 -48l-30 26q29 37 75.5 56t118.5 19
q74 0 117.5 -33.5t43.5 -91.5q0 -14 -3 -29zM400 261q-27 -18 -93 -24l-75 -6q-71 -6 -109 -37.5t-38 -85.5q0 -38 25.5 -58t73.5 -20q79 0 134 39t67 104zM174.5 -143.5q-9.5 9.5 -9.5 23.5q0 18 15 32.5t33 14.5q15 0 24.5 -9.5t9.5 -23.5q0 -18 -14.5 -32.5t-33.5 -14.5
q-15 0 -24.5 9.5zM236 576q-33 29 -33 78q0 13 3 28h36l-1 -14q0 -39 23 -60.5t65 -21.5q45 0 77 25.5t43 70.5h37q-11 -62 -54 -98.5t-107 -36.5q-56 0 -89 29z" />
    <glyph glyph-name="uni1EB1" unicode="&#x1eb1;" horiz-adv-x="524" 
d="M414 68q-1 -5 -1 -13q0 -18 19 -36l-33 -30q-34 26 -34 62q0 14 2 22v1q-32 -41 -81 -63t-111 -22q-63 0 -100 31.5t-37 84.5q0 76 51 114t144 47l86 8q47 4 67 15.5t26 38.5q2 16 2 23q0 44 -30.5 68t-83.5 24q-63 0 -98 -15t-64 -48l-30 26q29 37 75.5 56t118.5 19
q74 0 117.5 -33.5t43.5 -91.5q0 -14 -3 -29zM400 261q-27 -18 -93 -24l-75 -6q-71 -6 -109 -37.5t-38 -85.5q0 -38 25.5 -58t73.5 -20q79 0 134 39t67 104zM277 832h56l40 -104h-41zM234.5 575.5q-31.5 28.5 -31.5 78.5q0 13 3 28h36l-1 -14q0 -39 23 -60.5t65 -21.5
q46 0 77.5 25.5t42.5 70.5h37q-11 -62 -55.5 -98.5t-108.5 -36.5q-56 0 -87.5 28.5z" />
    <glyph glyph-name="uni1EB3" unicode="&#x1eb3;" horiz-adv-x="524" 
d="M414 68q-1 -5 -1 -13q0 -18 19 -36l-33 -30q-34 26 -34 62q0 14 2 22v1q-32 -41 -81 -63t-111 -22q-63 0 -100 31.5t-37 84.5q0 76 51 114t144 47l86 8q47 4 67 15.5t26 38.5q2 16 2 23q0 44 -30.5 68t-83.5 24q-63 0 -98 -15t-64 -48l-30 26q29 37 75.5 56t118.5 19
q74 0 117.5 -33.5t43.5 -91.5q0 -14 -3 -29zM400 261q-27 -18 -93 -24l-75 -6q-71 -6 -109 -37.5t-38 -85.5q0 -38 25.5 -58t73.5 -20q79 0 134 39t67 104zM323 823l-3 31q30 11 59 11q33 0 51.5 -12.5t18.5 -37.5q0 -9 -1 -14q-5 -29 -24.5 -43.5t-53.5 -21.5l-6 -36h-39
l10 59q43 5 59 14.5t16 32.5q0 14 -10 19.5t-30 5.5t-47 -8zM486 682q-11 -63 -55 -99t-109 -36q-57 0 -88 27.5t-31 76.5q0 15 3 31h36l-1 -13q0 -39 23.5 -61t64.5 -22q45 0 77 26t43 70h37z" />
    <glyph glyph-name="uni1EB5" unicode="&#x1eb5;" horiz-adv-x="524" 
d="M414 68q-1 -5 -1 -13q0 -18 19 -36l-33 -30q-34 26 -34 62q0 14 2 22v1q-32 -41 -81 -63t-111 -22q-63 0 -100 31.5t-37 84.5q0 76 51 114t144 47l86 8q47 4 67 15.5t26 38.5q2 16 2 23q0 44 -30.5 68t-83.5 24q-63 0 -98 -15t-64 -48l-30 26q29 37 75.5 56t118.5 19
q74 0 117.5 -33.5t43.5 -91.5q0 -14 -3 -29zM400 261q-27 -18 -93 -24l-75 -6q-71 -6 -109 -37.5t-38 -85.5q0 -38 25.5 -58t73.5 -20q79 0 134 39t67 104zM248 787.5q24 24.5 61 24.5q19 0 34 -6.5t33 -18.5q28 -19 47 -19q21 0 32 11t20 35h33q-9 -35 -33 -59t-59 -24
q-20 0 -35 6.5t-33 18.5q-17 10 -25.5 14t-19.5 4q-21 0 -33 -11t-22 -37h-33q9 37 33 61.5zM234.5 575q-31.5 28 -31.5 78q0 14 3 29h37q-1 -5 -1 -15q0 -38 23 -59.5t65 -21.5q45 0 77 26t43 70h36q-10 -63 -54 -99t-109 -36q-57 0 -88.5 28z" />
    <glyph glyph-name="uni01CE" unicode="&#x1ce;" horiz-adv-x="524" 
d="M414 68q-1 -5 -1 -13q0 -18 19 -36l-33 -30q-34 26 -34 62q0 14 2 22v1q-32 -41 -81 -63t-111 -22q-63 0 -100 31.5t-37 84.5q0 76 51 114t144 47l86 8q47 4 67 15.5t26 38.5q2 16 2 23q0 44 -30.5 68t-83.5 24q-63 0 -98 -15t-64 -48l-30 26q29 37 75.5 56t118.5 19
q74 0 117.5 -33.5t43.5 -91.5q0 -14 -3 -29zM400 261q-27 -18 -93 -24l-75 -6q-71 -6 -109 -37.5t-38 -85.5q0 -38 25.5 -58t73.5 -20q79 0 134 39t67 104zM265 635q-29 43 -56 64h50q21 -19 42.5 -50.5t29.5 -52.5q14 20 47.5 51.5t62.5 51.5h50q-35 -23 -79.5 -65.5
t-71.5 -81.5h-32q-14 40 -43 83z" />
    <glyph glyph-name="acircumflex" unicode="&#xe2;" horiz-adv-x="524" 
d="M414 68q-1 -5 -1 -13q0 -18 19 -36l-33 -30q-34 26 -34 62q0 14 2 22v1q-32 -41 -81 -63t-111 -22q-63 0 -100 31.5t-37 84.5q0 76 51 114t144 47l86 8q47 4 67 15.5t26 38.5q2 16 2 23q0 44 -30.5 68t-83.5 24q-63 0 -98 -15t-64 -48l-30 26q29 37 75.5 56t118.5 19
q74 0 117.5 -33.5t43.5 -91.5q0 -14 -3 -29zM400 261q-27 -18 -93 -24l-75 -6q-71 -6 -109 -37.5t-38 -85.5q0 -38 25.5 -58t73.5 -20q79 0 134 39t67 104zM261.5 617.5q44.5 42.5 71.5 81.5h31q14 -40 43.5 -82.5t56.5 -64.5h-51q-21 19 -42.5 50.5t-29.5 52.5
q-12 -19 -46 -51t-63 -52h-51q36 23 80.5 65.5z" />
    <glyph glyph-name="uni1EA5" unicode="&#x1ea5;" horiz-adv-x="524" 
d="M414 68q-1 -5 -1 -13q0 -18 19 -36l-33 -30q-34 26 -34 62q0 14 2 22v1q-32 -41 -81 -63t-111 -22q-63 0 -100 31.5t-37 84.5q0 76 51 114t144 47l86 8q47 4 67 15.5t26 38.5q2 16 2 23q0 44 -30.5 68t-83.5 24q-63 0 -98 -15t-64 -48l-30 26q29 37 75.5 56t118.5 19
q74 0 117.5 -33.5t43.5 -91.5q0 -14 -3 -29zM400 261q-27 -18 -93 -24l-75 -6q-71 -6 -109 -37.5t-38 -85.5q0 -38 25.5 -58t73.5 -20q79 0 134 39t67 104zM514 739h53l-89 -104h-41zM261.5 617q44.5 43 71.5 82h32q13 -39 42.5 -82t56.5 -65h-48q-22 20 -45.5 52.5
t-27.5 50.5q-11 -19 -45 -51t-63 -52h-53q35 22 79.5 65z" />
    <glyph glyph-name="uni1EAD" unicode="&#x1ead;" horiz-adv-x="524" 
d="M414 68q-1 -5 -1 -13q0 -18 19 -36l-33 -30q-34 26 -34 62q0 14 2 22v1q-32 -41 -81 -63t-111 -22q-63 0 -100 31.5t-37 84.5q0 76 51 114t144 47l86 8q47 4 67 15.5t26 38.5q2 16 2 23q0 44 -30.5 68t-83.5 24q-63 0 -98 -15t-64 -48l-30 26q29 37 75.5 56t118.5 19
q74 0 117.5 -33.5t43.5 -91.5q0 -14 -3 -29zM400 261q-27 -18 -93 -24l-75 -6q-71 -6 -109 -37.5t-38 -85.5q0 -38 25.5 -58t73.5 -20q79 0 134 39t67 104zM174.5 -143.5q-9.5 9.5 -9.5 23.5q0 18 15 32.5t33 14.5q15 0 24.5 -9.5t9.5 -23.5q0 -18 -14.5 -32.5t-33.5 -14.5
q-15 0 -24.5 9.5zM261.5 617.5q44.5 42.5 71.5 81.5h31q14 -40 43.5 -82.5t56.5 -64.5h-51q-21 19 -42.5 50.5t-29.5 52.5q-12 -19 -46 -51t-63 -52h-51q36 23 80.5 65.5z" />
    <glyph glyph-name="uni1EA7" unicode="&#x1ea7;" horiz-adv-x="524" 
d="M414 68q-1 -5 -1 -13q0 -18 19 -36l-33 -30q-34 26 -34 62q0 14 2 22v1q-32 -41 -81 -63t-111 -22q-63 0 -100 31.5t-37 84.5q0 76 51 114t144 47l86 8q47 4 67 15.5t26 38.5q2 16 2 23q0 44 -30.5 68t-83.5 24q-63 0 -98 -15t-64 -48l-30 26q29 37 75.5 56t118.5 19
q74 0 117.5 -33.5t43.5 -91.5q0 -14 -3 -29zM400 261q-27 -18 -93 -24l-75 -6q-71 -6 -109 -37.5t-38 -85.5q0 -38 25.5 -58t73.5 -20q79 0 134 39t67 104zM439 739h53l41 -104h-41zM261.5 617q44.5 43 71.5 82h32q13 -39 42.5 -82t56.5 -65h-48q-22 20 -45.5 52.5
t-27.5 50.5q-11 -19 -45 -51t-63 -52h-53q35 22 79.5 65z" />
    <glyph glyph-name="uni1EA9" unicode="&#x1ea9;" horiz-adv-x="524" 
d="M414 68q-1 -5 -1 -13q0 -18 19 -36l-33 -30q-34 26 -34 62q0 14 2 22v1q-32 -41 -81 -63t-111 -22q-63 0 -100 31.5t-37 84.5q0 76 51 114t144 47l86 8q47 4 67 15.5t26 38.5q2 16 2 23q0 44 -30.5 68t-83.5 24q-63 0 -98 -15t-64 -48l-30 26q29 37 75.5 56t118.5 19
q74 0 117.5 -33.5t43.5 -91.5q0 -14 -3 -29zM400 261q-27 -18 -93 -24l-75 -6q-71 -6 -109 -37.5t-38 -85.5q0 -38 25.5 -58t73.5 -20q79 0 134 39t67 104zM542 697q-20 -18 -59 -25l-6 -36h-39l10 58q41 6 58 15.5t17 32.5q0 14 -10 19.5t-30 5.5t-47 -8l-3 31q26 10 59 10
t51.5 -12.5t18.5 -37.5q0 -35 -20 -53zM407.5 617q29.5 -43 56.5 -65h-48q-22 20 -45.5 52.5t-27.5 50.5q-11 -19 -45 -51t-63 -52h-53q35 22 79.5 65t71.5 82h32q13 -39 42.5 -82z" />
    <glyph glyph-name="uni1EAB" unicode="&#x1eab;" horiz-adv-x="524" 
d="M414 68q-1 -5 -1 -13q0 -18 19 -36l-33 -30q-34 26 -34 62q0 14 2 22v1q-32 -41 -81 -63t-111 -22q-63 0 -100 31.5t-37 84.5q0 76 51 114t144 47l86 8q47 4 67 15.5t26 38.5q2 16 2 23q0 44 -30.5 68t-83.5 24q-63 0 -98 -15t-64 -48l-30 26q29 37 75.5 56t118.5 19
q74 0 117.5 -33.5t43.5 -91.5q0 -14 -3 -29zM400 261q-27 -18 -93 -24l-75 -6q-71 -6 -109 -37.5t-38 -85.5q0 -38 25.5 -58t73.5 -20q79 0 134 39t67 104zM248 787.5q24 24.5 61 24.5q19 0 34 -6.5t33 -18.5q28 -19 47 -19q21 0 32 11t20 35h33q-9 -35 -33 -59t-59 -24
q-20 0 -35 6.5t-33 18.5q-17 10 -25.5 14t-19.5 4q-21 0 -33 -11t-22 -37h-33q9 37 33 61.5zM261.5 617q44.5 43 71.5 82h32q13 -39 42.5 -82t56.5 -65h-48q-22 20 -45.5 52.5t-27.5 50.5q-11 -19 -45 -51t-63 -52h-53q35 22 79.5 65z" />
    <glyph glyph-name="adieresis" unicode="&#xe4;" horiz-adv-x="524" 
d="M414 68q-1 -5 -1 -13q0 -18 19 -36l-33 -30q-34 26 -34 62q0 14 2 22v1q-32 -41 -81 -63t-111 -22q-63 0 -100 31.5t-37 84.5q0 76 51 114t144 47l86 8q47 4 67 15.5t26 38.5q2 16 2 23q0 44 -30.5 68t-83.5 24q-63 0 -98 -15t-64 -48l-30 26q29 37 75.5 56t118.5 19
q74 0 117.5 -33.5t43.5 -91.5q0 -14 -3 -29zM400 261q-27 -18 -93 -24l-75 -6q-71 -6 -109 -37.5t-38 -85.5q0 -38 25.5 -58t73.5 -20q79 0 134 39t67 104zM223 563.5q-8 8.5 -8 20.5q0 17 12.5 29.5t29.5 12.5q13 0 21 -8.5t8 -21.5q0 -16 -13 -28.5t-29 -12.5
q-13 0 -21 8.5zM381.5 563.5q-8.5 8.5 -8.5 20.5q0 16 13 29t30 13q12 0 20.5 -9t8.5 -21q0 -16 -13 -28.5t-29 -12.5q-13 0 -21.5 8.5z" />
    <glyph glyph-name="uni1EA1" unicode="&#x1ea1;" horiz-adv-x="524" 
d="M414 68q-1 -5 -1 -13q0 -18 19 -36l-33 -30q-34 26 -34 62q0 14 2 22v1q-32 -41 -81 -63t-111 -22q-63 0 -100 31.5t-37 84.5q0 76 51 114t144 47l86 8q47 4 67 15.5t26 38.5q2 16 2 23q0 44 -30.5 68t-83.5 24q-63 0 -98 -15t-64 -48l-30 26q29 37 75.5 56t118.5 19
q74 0 117.5 -33.5t43.5 -91.5q0 -14 -3 -29zM400 261q-27 -18 -93 -24l-75 -6q-71 -6 -109 -37.5t-38 -85.5q0 -38 25.5 -58t73.5 -20q79 0 134 39t67 104zM174.5 -143.5q-9.5 9.5 -9.5 23.5q0 18 15 32.5t33 14.5q15 0 24.5 -9.5t9.5 -23.5q0 -18 -14.5 -32.5t-33.5 -14.5
q-15 0 -24.5 9.5z" />
    <glyph glyph-name="agrave" unicode="&#xe0;" horiz-adv-x="524" 
d="M414 68q-1 -5 -1 -13q0 -18 19 -36l-33 -30q-34 26 -34 62q0 14 2 22v1q-32 -41 -81 -63t-111 -22q-63 0 -100 31.5t-37 84.5q0 76 51 114t144 47l86 8q47 4 67 15.5t26 38.5q2 16 2 23q0 44 -30.5 68t-83.5 24q-63 0 -98 -15t-64 -48l-30 26q29 37 75.5 56t118.5 19
q74 0 117.5 -33.5t43.5 -91.5q0 -14 -3 -29zM400 261q-27 -18 -93 -24l-75 -6q-71 -6 -109 -37.5t-38 -85.5q0 -38 25.5 -58t73.5 -20q79 0 134 39t67 104zM227 693h56l56 -141h-42z" />
    <glyph glyph-name="uni1EA3" unicode="&#x1ea3;" horiz-adv-x="524" 
d="M414 68q-1 -5 -1 -13q0 -18 19 -36l-33 -30q-34 26 -34 62q0 14 2 22v1q-32 -41 -81 -63t-111 -22q-63 0 -100 31.5t-37 84.5q0 76 51 114t144 47l86 8q47 4 67 15.5t26 38.5q2 16 2 23q0 44 -30.5 68t-83.5 24q-63 0 -98 -15t-64 -48l-30 26q29 37 75.5 56t118.5 19
q74 0 117.5 -33.5t43.5 -91.5q0 -14 -3 -29zM400 261q-27 -18 -93 -24l-75 -6q-71 -6 -109 -37.5t-38 -85.5q0 -38 25.5 -58t73.5 -20q79 0 134 39t67 104zM347 590l-6 -38h-41l11 61q41 6 60 18t19 38q0 31 -40 31q-25 0 -49 -8l-3 32q30 11 61 11q33 0 54 -14.5t21 -43.5
q0 -70 -87 -87z" />
    <glyph glyph-name="uni0251" unicode="&#x251;" horiz-adv-x="561" 
d="M442 56q0 -11 4 -19t15 -18l-33 -30q-34 27 -34 62q0 10 1 15q-66 -77 -171 -77q-82 0 -127 48.5t-45 130.5q0 27 4 51l5 32q10 65 42 117.5t83.5 82.5t116.5 30q62 0 98 -24t52 -61l13 74h48l-71 -402q-1 -4 -1 -12zM409 142l33 188q-9 54 -42 82.5t-96 28.5
q-75 0 -128.5 -52t-66.5 -138l-5 -32q-4 -21 -4 -46q0 -68 34 -105.5t98 -37.5q116 0 177 112z" />
    <glyph glyph-name="amacron" unicode="&#x101;" horiz-adv-x="524" 
d="M414 68q-1 -5 -1 -13q0 -18 19 -36l-33 -30q-34 26 -34 62q0 14 2 22v1q-32 -41 -81 -63t-111 -22q-63 0 -100 31.5t-37 84.5q0 76 51 114t144 47l86 8q47 4 67 15.5t26 38.5q2 16 2 23q0 44 -30.5 68t-83.5 24q-63 0 -98 -15t-64 -48l-30 26q29 37 75.5 56t118.5 19
q74 0 117.5 -33.5t43.5 -91.5q0 -14 -3 -29zM400 261q-27 -18 -93 -24l-75 -6q-71 -6 -109 -37.5t-38 -85.5q0 -38 25.5 -58t73.5 -20q79 0 134 39t67 104zM186 606h293l-7 -40h-293z" />
    <glyph glyph-name="aogonek" unicode="&#x105;" horiz-adv-x="524" 
d="M414 68q-1 -5 -1 -13q0 -18 19 -36l-33 -30q-47 -60 -47 -97q0 -18 12 -27t31 -9q22 0 57 14l4 -32q-33 -18 -71 -18q-42 0 -60.5 18.5t-18.5 44.5q0 31 20 64t51 63q-12 18 -12 41q0 14 2 22v1q-32 -41 -81 -63t-111 -22q-63 0 -100 31.5t-37 84.5q0 76 51 114t144 47
l86 8q47 4 67 15.5t26 38.5q2 16 2 23q0 44 -30.5 68t-83.5 24q-63 0 -98 -15t-64 -48l-30 26q29 37 75.5 56t118.5 19q74 0 117.5 -33.5t43.5 -91.5q0 -14 -3 -29zM318 69q55 39 67 104l15 88q-27 -18 -93 -24l-75 -6q-71 -6 -109 -37.5t-38 -85.5q0 -38 25.5 -58t73.5 -20
q79 0 134 39z" />
    <glyph glyph-name="aring" unicode="&#xe5;" horiz-adv-x="524" 
d="M414 68q-1 -5 -1 -13q0 -18 19 -36l-33 -30q-34 26 -34 62q0 14 2 22v1q-32 -41 -81 -63t-111 -22q-63 0 -100 31.5t-37 84.5q0 76 51 114t144 47l86 8q47 4 67 15.5t26 38.5q2 16 2 23q0 44 -30.5 68t-83.5 24q-63 0 -98 -15t-64 -48l-30 26q29 37 75.5 56t118.5 19
q74 0 117.5 -33.5t43.5 -91.5q0 -14 -3 -29zM400 261q-27 -18 -93 -24l-75 -6q-71 -6 -109 -37.5t-38 -85.5q0 -38 25.5 -58t73.5 -20q79 0 134 39t67 104zM264.5 559.5q-20.5 19.5 -20.5 51.5q0 45 30.5 74.5t76.5 29.5q36 0 56.5 -19.5t20.5 -51.5q0 -45 -30 -74.5
t-77 -29.5q-36 0 -56.5 19.5zM374 590q19 20 19 51q0 20 -12.5 32t-34.5 12q-29 0 -48 -20t-19 -51q0 -21 12.5 -32.5t34.5 -11.5q29 0 48 20z" />
    <glyph glyph-name="aringacute" unicode="&#x1fb;" horiz-adv-x="524" 
d="M373 768h-41l105 113h56zM264.5 559.5q-20.5 19.5 -20.5 51.5q0 45 30.5 74.5t76.5 29.5q36 0 56.5 -19.5t20.5 -51.5q0 -45 -30 -74.5t-77 -29.5q-36 0 -56.5 19.5zM298 665q-19 -20 -19 -51q0 -21 12.5 -32.5t34.5 -11.5q29 0 48 20t19 51q0 20 -12.5 32t-34.5 12
q-29 0 -48 -20zM419.5 447.5q43.5 -33.5 43.5 -91.5q0 -14 -3 -29l-46 -259q-1 -5 -1 -13q0 -18 19 -36l-33 -30q-34 26 -34 62q0 14 2 22v1q-32 -41 -81 -63t-111 -22q-63 0 -100 31.5t-37 84.5q0 76 51 114t144 47l86 8q47 4 67 15.5t26 38.5q2 16 2 23q0 44 -30.5 68
t-83.5 24q-63 0 -98 -15t-64 -48l-30 26q29 37 75.5 56t118.5 19q74 0 117.5 -33.5zM400 261q-27 -18 -93 -24l-75 -6q-71 -6 -109 -37.5t-38 -85.5q0 -38 25.5 -58t73.5 -20q79 0 134 39t67 104z" />
    <glyph glyph-name="atilde" unicode="&#xe3;" horiz-adv-x="524" 
d="M414 68q-1 -5 -1 -13q0 -18 19 -36l-33 -30q-34 26 -34 62q0 14 2 22v1q-32 -41 -81 -63t-111 -22q-63 0 -100 31.5t-37 84.5q0 76 51 114t144 47l86 8q47 4 67 15.5t26 38.5q2 16 2 23q0 44 -30.5 68t-83.5 24q-63 0 -98 -15t-64 -48l-30 26q29 37 75.5 56t118.5 19
q74 0 117.5 -33.5t43.5 -91.5q0 -14 -3 -29zM400 261q-27 -18 -93 -24l-75 -6q-71 -6 -109 -37.5t-38 -85.5q0 -38 25.5 -58t73.5 -20q79 0 134 39t67 104zM210.5 621.5q25.5 26.5 65.5 26.5q20 0 35 -6.5t35 -19.5q17 -11 27.5 -16t22.5 -5q22 0 34.5 11.5t22.5 37.5h35
q-9 -38 -34.5 -64t-63.5 -26q-20 0 -35 6.5t-35 19.5q-17 11 -27.5 16t-22.5 5q-23 0 -36 -12.5t-24 -39.5h-35q10 40 35.5 66.5z" />
    <glyph glyph-name="ae" unicode="&#xe6;" horiz-adv-x="827" 
d="M430 159q-3 -18 -3 -33q0 -49 32.5 -72.5t100.5 -23.5q99 0 158 59l28 -30q-71 -70 -186 -70q-75 0 -119 26t-53 75q-31 -46 -83.5 -73.5t-127.5 -27.5q-65 0 -102 31t-37 85q0 142 194 161l87 8q52 4 71.5 19t23.5 50q3 48 -28 74t-86 26q-62 0 -97.5 -15t-65.5 -48
l-29 26q29 36 74 55.5t125 19.5q56 0 94 -21t52 -58q58 78 168 78q81 0 127.5 -35t46.5 -101q0 -65 -29.5 -92.5t-92.5 -27.5h-232zM448 260h224q40 0 57 18.5t17 65.5q0 48 -32.5 72.5t-92.5 24.5q-66 0 -109.5 -35.5t-54.5 -93.5zM400 261q-27 -18 -94 -24l-75 -6
q-70 -6 -108 -37.5t-38 -85.5q0 -38 25.5 -58t73.5 -20q80 0 134.5 39t65.5 104z" />
    <glyph glyph-name="aeacute" unicode="&#x1fd;" horiz-adv-x="827" 
d="M430 159q-3 -18 -3 -33q0 -49 32.5 -72.5t100.5 -23.5q99 0 158 59l28 -30q-71 -70 -186 -70q-75 0 -119 26t-53 75q-31 -46 -83.5 -73.5t-127.5 -27.5q-65 0 -102 31t-37 85q0 142 194 161l87 8q52 4 71.5 19t23.5 50q3 48 -28 74t-86 26q-62 0 -97.5 -15t-65.5 -48
l-29 26q29 36 74 55.5t125 19.5q56 0 94 -21t52 -58q58 78 168 78q81 0 127.5 -35t46.5 -101q0 -65 -29.5 -92.5t-92.5 -27.5h-232zM448 260h224q40 0 57 18.5t17 65.5q0 48 -32.5 72.5t-92.5 24.5q-66 0 -109.5 -35.5t-54.5 -93.5zM400 261q-27 -18 -94 -24l-75 -6
q-70 -6 -108 -37.5t-38 -85.5q0 -38 25.5 -58t73.5 -20q80 0 134.5 39t65.5 104zM557 693h56l-120 -141h-41z" />
    <glyph glyph-name="b" unicode="b" horiz-adv-x="561" 
d="M167.5 11.5q-40.5 22.5 -58.5 61.5l-13 -73h-49l113 639q1 4 1 12q0 22 -18 40l31 26q35 -20 35 -60q0 -6 -2 -22l-41 -237q30 40 74.5 61.5t95.5 21.5q84 0 129 -50t45 -132q0 -25 -4 -48l-5 -32q-17 -106 -82 -168t-157 -62q-54 0 -94.5 22.5zM386 81q52 51 66 138
l5 32q4 30 4 44q0 67 -34.5 106.5t-97.5 39.5t-105 -29.5t-72 -85.5l-32 -183q9 -55 42 -84t96 -29q76 0 128 51z" />
    <glyph glyph-name="c" unicode="c" horiz-adv-x="479" 
d="M93 24q-46 35 -46 101q0 18 3 37l26 147q14 79 72 125.5t145 46.5q64 0 106.5 -19t67.5 -58l-37 -29q-25 35 -55 50.5t-82 15.5q-66 0 -111.5 -36t-56.5 -96l-26 -147q-3 -16 -3 -32q0 -49 33.5 -74.5t97.5 -25.5q95 0 154 64l30 -29q-72 -76 -184 -76q-88 0 -134 35z
" />
    <glyph glyph-name="cacute" unicode="&#x107;" horiz-adv-x="479" 
d="M93 24q-46 35 -46 101q0 18 3 37l26 147q14 79 72 125.5t145 46.5q64 0 106.5 -19t67.5 -58l-37 -29q-25 35 -55 50.5t-82 15.5q-66 0 -111.5 -36t-56.5 -96l-26 -147q-3 -16 -3 -32q0 -49 33.5 -74.5t97.5 -25.5q95 0 154 64l30 -29q-72 -76 -184 -76q-88 0 -134 35z
M399 693h56l-120 -141h-41z" />
    <glyph glyph-name="ccaron" unicode="&#x10d;" horiz-adv-x="479" 
d="M93 24q-46 35 -46 101q0 18 3 37l26 147q14 79 72 125.5t145 46.5q64 0 106.5 -19t67.5 -58l-37 -29q-25 35 -55 50.5t-82 15.5q-66 0 -111.5 -36t-56.5 -96l-26 -147q-3 -16 -3 -32q0 -49 33.5 -74.5t97.5 -25.5q95 0 154 64l30 -29q-72 -76 -184 -76q-88 0 -134 35z
M254 635q-29 43 -56 64h50q21 -19 42.5 -50.5t29.5 -52.5q14 20 47.5 51.5t62.5 51.5h50q-35 -23 -79.5 -65.5t-71.5 -81.5h-32q-14 40 -43 83z" />
    <glyph glyph-name="ccedilla" unicode="&#xe7;" horiz-adv-x="479" 
d="M99 162q-3 -16 -3 -32q0 -49 33.5 -74.5t97.5 -25.5q95 0 154 64l30 -29q-67 -72 -170 -76l-19 -40q34 -1 52 -15.5t18 -41.5q0 -39 -29 -59t-83 -20q-46 0 -79 18l14 32q30 -15 67 -15q34 0 50 10t16 32q0 27 -50 27q-7 0 -29 -2l31 75q-75 5 -114 39.5t-39 95.5
q0 18 3 37l26 147q14 79 72 125.5t145 46.5q64 0 106.5 -19t67.5 -58l-37 -29q-25 35 -55 50.5t-82 15.5q-66 0 -111.5 -36t-56.5 -96z" />
    <glyph glyph-name="ccircumflex" unicode="&#x109;" horiz-adv-x="479" 
d="M93 24q-46 35 -46 101q0 18 3 37l26 147q14 79 72 125.5t145 46.5q64 0 106.5 -19t67.5 -58l-37 -29q-25 35 -55 50.5t-82 15.5q-66 0 -111.5 -36t-56.5 -96l-26 -147q-3 -16 -3 -32q0 -49 33.5 -74.5t97.5 -25.5q95 0 154 64l30 -29q-72 -76 -184 -76q-88 0 -134 35z
M251.5 617.5q44.5 42.5 71.5 81.5h31q14 -40 43.5 -82.5t56.5 -64.5h-51q-21 19 -42.5 50.5t-29.5 52.5q-12 -19 -46 -51t-63 -52h-51q36 23 80.5 65.5z" />
    <glyph glyph-name="cdotaccent" unicode="&#x10b;" horiz-adv-x="479" 
d="M93 24q-46 35 -46 101q0 18 3 37l26 147q14 79 72 125.5t145 46.5q64 0 106.5 -19t67.5 -58l-37 -29q-25 35 -55 50.5t-82 15.5q-66 0 -111.5 -36t-56.5 -96l-26 -147q-3 -16 -3 -32q0 -49 33.5 -74.5t97.5 -25.5q95 0 154 64l30 -29q-72 -76 -184 -76q-88 0 -134 35z
M289.5 563.5q-9.5 9.5 -9.5 23.5q0 18 14.5 32.5t32.5 14.5q15 0 24.5 -9.5t9.5 -23.5q0 -18 -14.5 -32.5t-32.5 -14.5q-15 0 -24.5 9.5z" />
    <glyph glyph-name="d" unicode="d" horiz-adv-x="561" 
d="M443 68q-1 -5 -1 -14q0 -18 18 -35l-33 -30q-17 14 -25.5 29t-8.5 35q0 8 1 13q-64 -77 -170 -77q-82 0 -127 48t-45 130q0 28 4 52l5 32q10 65 42 117.5t83.5 82.5t116.5 30q58 0 96 -23.5t54 -60.5l42 242q1 5 1 13q0 19 -18 36l34 29q17 -11 25 -25t8 -33
q0 -15 -2 -24zM441 329q-21 112 -137 112q-75 0 -128.5 -52t-66.5 -138l-5 -32q-4 -21 -4 -46q0 -68 34 -105.5t98 -37.5q118 0 176 112z" />
    <glyph glyph-name="eth" unicode="&#xf0;" horiz-adv-x="513" 
d="M474 558h-91l60 -130q23 -50 23 -87q0 -21 -4 -40l-23 -131q-15 -81 -68.5 -131t-150.5 -50q-85 0 -128.5 39.5t-43.5 103.5q0 12 4 38l23 131q14 80 69 130t152 50q45 0 79 -16l-43 93h-139l6 33h118l-50 109h50l50 -109h113zM416 334q0 49 -29.5 78t-93.5 29
q-74 0 -116.5 -39.5t-53.5 -100.5l-23 -131q-3 -16 -3 -32q0 -49 30 -78.5t94 -29.5q75 0 116.5 39t52.5 101l23 131q3 17 3 33z" />
    <glyph glyph-name="dcaron" unicode="&#x10f;" horiz-adv-x="603" 
d="M443 68q-1 -5 -1 -14q0 -18 18 -35l-33 -30q-17 14 -25.5 29t-8.5 35q0 8 1 13q-64 -77 -170 -77q-82 0 -127 48t-45 130q0 28 4 52l5 32q10 65 42 117.5t83.5 82.5t116.5 30q58 0 96 -23.5t54 -60.5l42 242q1 5 1 13q0 19 -18 36l34 29q17 -11 25 -25t8 -33
q0 -15 -2 -24zM441 329q-21 112 -137 112q-75 0 -128.5 -52t-66.5 -138l-5 -32q-4 -21 -4 -46q0 -68 34 -105.5t98 -37.5q118 0 176 112zM668.5 704.5q8.5 -10.5 8.5 -27.5q0 -35 -24.5 -74.5t-64.5 -66.5l-14 18q50 38 61 82q-8 -5 -21 -5q-12 0 -18.5 7t-6.5 20
q0 22 17 39.5t37 17.5q17 0 25.5 -10.5z" />
    <glyph glyph-name="dcroat" unicode="&#x111;" horiz-adv-x="561" 
d="M443 68q-1 -5 -1 -14q0 -18 18 -35l-33 -30q-17 14 -25.5 29t-8.5 35q0 8 1 13q-64 -77 -170 -77q-82 0 -127 48t-45 130q0 28 4 52l5 32q10 65 42 117.5t83.5 82.5t116.5 30q58 0 96 -23.5t54 -60.5l30 175h-167l6 33h167l6 34q1 5 1 13q0 19 -18 36l34 29
q17 -11 25 -25t8 -33q0 -15 -2 -24l-5 -30h78l-6 -33h-78zM441 329q-21 112 -137 112q-75 0 -128.5 -52t-66.5 -138l-5 -32q-4 -21 -4 -46q0 -68 34 -105.5t98 -37.5q118 0 176 112z" />
    <glyph glyph-name="uni1E0D" unicode="&#x1e0d;" horiz-adv-x="561" 
d="M443 68q-1 -5 -1 -14q0 -18 18 -35l-33 -30q-17 14 -25.5 29t-8.5 35q0 8 1 13q-64 -77 -170 -77q-82 0 -127 48t-45 130q0 28 4 52l5 32q10 65 42 117.5t83.5 82.5t116.5 30q58 0 96 -23.5t54 -60.5l42 242q1 5 1 13q0 19 -18 36l34 29q17 -11 25 -25t8 -33
q0 -15 -2 -24zM441 329q-21 112 -137 112q-75 0 -128.5 -52t-66.5 -138l-5 -32q-4 -21 -4 -46q0 -68 34 -105.5t98 -37.5q118 0 176 112zM187.5 -143.5q-9.5 9.5 -9.5 23.5q0 18 15 32.5t33 14.5q15 0 24.5 -9.5t9.5 -23.5q0 -18 -14.5 -32.5t-33.5 -14.5q-15 0 -24.5 9.5z
" />
    <glyph glyph-name="uni1E0F" unicode="&#x1e0f;" horiz-adv-x="561" 
d="M443 68q-1 -5 -1 -14q0 -18 18 -35l-33 -30q-17 14 -25.5 29t-8.5 35q0 8 1 13q-64 -77 -170 -77q-82 0 -127 48t-45 130q0 28 4 52l5 32q10 65 42 117.5t83.5 82.5t116.5 30q58 0 96 -23.5t54 -60.5l42 242q1 5 1 13q0 19 -18 36l34 29q17 -11 25 -25t8 -33
q0 -15 -2 -24zM441 329q-21 112 -137 112q-75 0 -128.5 -52t-66.5 -138l-5 -32q-4 -21 -4 -46q0 -68 34 -105.5t98 -37.5q118 0 176 112zM77 -85h293l-7 -41h-293z" />
    <glyph glyph-name="e" unicode="e" horiz-adv-x="494" 
d="M98 159q-3 -16 -3 -32q0 -97 131 -97q47 0 88 14.5t70 44.5l28 -30q-35 -35 -82.5 -52.5t-103.5 -17.5q-88 0 -134.5 33.5t-46.5 98.5q0 12 4 38l28 155q14 78 69 122t141 44q82 0 127.5 -37.5t45.5 -105.5q0 -67 -27.5 -96.5t-89.5 -29.5h-236zM178 407q-42 -34 -53 -95
l-11 -64h223q40 0 57.5 21t17.5 68q0 49 -33 76.5t-92 27.5q-67 0 -109 -34z" />
    <glyph glyph-name="eacute" unicode="&#xe9;" horiz-adv-x="494" 
d="M98 159q-3 -16 -3 -32q0 -97 131 -97q47 0 88 14.5t70 44.5l28 -30q-35 -35 -82.5 -52.5t-103.5 -17.5q-88 0 -134.5 33.5t-46.5 98.5q0 12 4 38l28 155q14 78 69 122t141 44q82 0 127.5 -37.5t45.5 -105.5q0 -67 -27.5 -96.5t-89.5 -29.5h-236zM178 407q-42 -34 -53 -95
l-11 -64h223q40 0 57.5 21t17.5 68q0 49 -33 76.5t-92 27.5q-67 0 -109 -34zM389 693h56l-120 -141h-41z" />
    <glyph glyph-name="ebreve" unicode="&#x115;" horiz-adv-x="494" 
d="M98 159q-3 -16 -3 -32q0 -97 131 -97q47 0 88 14.5t70 44.5l28 -30q-35 -35 -82.5 -52.5t-103.5 -17.5q-88 0 -134.5 33.5t-46.5 98.5q0 12 4 38l28 155q14 78 69 122t141 44q82 0 127.5 -37.5t45.5 -105.5q0 -67 -27.5 -96.5t-89.5 -29.5h-236zM178 407q-42 -34 -53 -95
l-11 -64h223q40 0 57.5 21t17.5 68q0 49 -33 76.5t-92 27.5q-67 0 -109 -34zM216 576q-33 29 -33 78q0 13 3 28h36l-1 -14q0 -39 23 -60.5t65 -21.5q45 0 77 25.5t43 70.5h37q-11 -62 -54 -98.5t-107 -36.5q-56 0 -89 29z" />
    <glyph glyph-name="ecaron" unicode="&#x11b;" horiz-adv-x="494" 
d="M98 159q-3 -16 -3 -32q0 -97 131 -97q47 0 88 14.5t70 44.5l28 -30q-35 -35 -82.5 -52.5t-103.5 -17.5q-88 0 -134.5 33.5t-46.5 98.5q0 12 4 38l28 155q14 78 69 122t141 44q82 0 127.5 -37.5t45.5 -105.5q0 -67 -27.5 -96.5t-89.5 -29.5h-236zM178 407q-42 -34 -53 -95
l-11 -64h223q40 0 57.5 21t17.5 68q0 49 -33 76.5t-92 27.5q-67 0 -109 -34zM244 635q-29 43 -56 64h50q21 -19 42.5 -50.5t29.5 -52.5q14 20 47.5 51.5t62.5 51.5h50q-35 -23 -79.5 -65.5t-71.5 -81.5h-32q-14 40 -43 83z" />
    <glyph glyph-name="ecircumflex" unicode="&#xea;" horiz-adv-x="494" 
d="M98 159q-3 -16 -3 -32q0 -97 131 -97q47 0 88 14.5t70 44.5l28 -30q-35 -35 -82.5 -52.5t-103.5 -17.5q-88 0 -134.5 33.5t-46.5 98.5q0 12 4 38l28 155q14 78 69 122t141 44q82 0 127.5 -37.5t45.5 -105.5q0 -67 -27.5 -96.5t-89.5 -29.5h-236zM178 407q-42 -34 -53 -95
l-11 -64h223q40 0 57.5 21t17.5 68q0 49 -33 76.5t-92 27.5q-67 0 -109 -34zM241.5 617.5q44.5 42.5 71.5 81.5h31q14 -40 43.5 -82.5t56.5 -64.5h-51q-21 19 -42.5 50.5t-29.5 52.5q-12 -19 -46 -51t-63 -52h-51q36 23 80.5 65.5z" />
    <glyph glyph-name="uni1EBF" unicode="&#x1ebf;" horiz-adv-x="494" 
d="M98 159q-3 -16 -3 -32q0 -97 131 -97q47 0 88 14.5t70 44.5l28 -30q-35 -35 -82.5 -52.5t-103.5 -17.5q-88 0 -134.5 33.5t-46.5 98.5q0 12 4 38l28 155q14 78 69 122t141 44q82 0 127.5 -37.5t45.5 -105.5q0 -67 -27.5 -96.5t-89.5 -29.5h-236zM178 407q-42 -34 -53 -95
l-11 -64h223q40 0 57.5 21t17.5 68q0 49 -33 76.5t-92 27.5q-67 0 -109 -34zM493 739h53l-89 -104h-41zM240.5 617q44.5 43 71.5 82h32q13 -39 42.5 -82t56.5 -65h-48q-22 20 -45.5 52.5t-27.5 50.5q-11 -19 -45 -51t-63 -52h-53q35 22 79.5 65z" />
    <glyph glyph-name="uni1EC7" unicode="&#x1ec7;" horiz-adv-x="494" 
d="M98 159q-3 -16 -3 -32q0 -97 131 -97q47 0 88 14.5t70 44.5l28 -30q-35 -35 -82.5 -52.5t-103.5 -17.5q-88 0 -134.5 33.5t-46.5 98.5q0 12 4 38l28 155q14 78 69 122t141 44q82 0 127.5 -37.5t45.5 -105.5q0 -67 -27.5 -96.5t-89.5 -29.5h-236zM178 407q-42 -34 -53 -95
l-11 -64h223q40 0 57.5 21t17.5 68q0 49 -33 76.5t-92 27.5q-67 0 -109 -34zM159.5 -143.5q-9.5 9.5 -9.5 23.5q0 18 15 32.5t33 14.5q15 0 24.5 -9.5t9.5 -23.5q0 -18 -14.5 -32.5t-33.5 -14.5q-15 0 -24.5 9.5zM241.5 617.5q44.5 42.5 71.5 81.5h31q14 -40 43.5 -82.5
t56.5 -64.5h-51q-21 19 -42.5 50.5t-29.5 52.5q-12 -19 -46 -51t-63 -52h-51q36 23 80.5 65.5z" />
    <glyph glyph-name="uni1EC1" unicode="&#x1ec1;" horiz-adv-x="494" 
d="M98 159q-3 -16 -3 -32q0 -97 131 -97q47 0 88 14.5t70 44.5l28 -30q-35 -35 -82.5 -52.5t-103.5 -17.5q-88 0 -134.5 33.5t-46.5 98.5q0 12 4 38l28 155q14 78 69 122t141 44q82 0 127.5 -37.5t45.5 -105.5q0 -67 -27.5 -96.5t-89.5 -29.5h-236zM178 407q-42 -34 -53 -95
l-11 -64h223q40 0 57.5 21t17.5 68q0 49 -33 76.5t-92 27.5q-67 0 -109 -34zM418 739h53l41 -104h-41zM240.5 617q44.5 43 71.5 82h32q13 -39 42.5 -82t56.5 -65h-48q-22 20 -45.5 52.5t-27.5 50.5q-11 -19 -45 -51t-63 -52h-53q35 22 79.5 65z" />
    <glyph glyph-name="uni1EC3" unicode="&#x1ec3;" horiz-adv-x="494" 
d="M98 159q-3 -16 -3 -32q0 -97 131 -97q47 0 88 14.5t70 44.5l28 -30q-35 -35 -82.5 -52.5t-103.5 -17.5q-88 0 -134.5 33.5t-46.5 98.5q0 12 4 38l28 155q14 78 69 122t141 44q82 0 127.5 -37.5t45.5 -105.5q0 -67 -27.5 -96.5t-89.5 -29.5h-236zM178 407q-42 -34 -53 -95
l-11 -64h223q40 0 57.5 21t17.5 68q0 49 -33 76.5t-92 27.5q-67 0 -109 -34zM521 697q-20 -18 -59 -25l-6 -36h-39l10 58q41 6 58 15.5t17 32.5q0 14 -10 19.5t-30 5.5t-47 -8l-3 31q26 10 59 10t51.5 -12.5t18.5 -37.5q0 -35 -20 -53zM386.5 617q29.5 -43 56.5 -65h-48
q-22 20 -45.5 52.5t-27.5 50.5q-11 -19 -45 -51t-63 -52h-53q35 22 79.5 65t71.5 82h32q13 -39 42.5 -82z" />
    <glyph glyph-name="uni1EC5" unicode="&#x1ec5;" horiz-adv-x="494" 
d="M98 159q-3 -16 -3 -32q0 -97 131 -97q47 0 88 14.5t70 44.5l28 -30q-35 -35 -82.5 -52.5t-103.5 -17.5q-88 0 -134.5 33.5t-46.5 98.5q0 12 4 38l28 155q14 78 69 122t141 44q82 0 127.5 -37.5t45.5 -105.5q0 -67 -27.5 -96.5t-89.5 -29.5h-236zM178 407q-42 -34 -53 -95
l-11 -64h223q40 0 57.5 21t17.5 68q0 49 -33 76.5t-92 27.5q-67 0 -109 -34zM227 787.5q24 24.5 61 24.5q19 0 34 -6.5t33 -18.5q28 -19 47 -19q21 0 32 11t20 35h33q-9 -35 -33 -59t-59 -24q-20 0 -35 6.5t-33 18.5q-17 10 -25.5 14t-19.5 4q-21 0 -33 -11t-22 -37h-33
q9 37 33 61.5zM240.5 617q44.5 43 71.5 82h32q13 -39 42.5 -82t56.5 -65h-48q-22 20 -45.5 52.5t-27.5 50.5q-11 -19 -45 -51t-63 -52h-53q35 22 79.5 65z" />
    <glyph glyph-name="edieresis" unicode="&#xeb;" horiz-adv-x="494" 
d="M98 159q-3 -16 -3 -32q0 -97 131 -97q47 0 88 14.5t70 44.5l28 -30q-35 -35 -82.5 -52.5t-103.5 -17.5q-88 0 -134.5 33.5t-46.5 98.5q0 12 4 38l28 155q14 78 69 122t141 44q82 0 127.5 -37.5t45.5 -105.5q0 -67 -27.5 -96.5t-89.5 -29.5h-236zM178 407q-42 -34 -53 -95
l-11 -64h223q40 0 57.5 21t17.5 68q0 49 -33 76.5t-92 27.5q-67 0 -109 -34zM203 563.5q-8 8.5 -8 20.5q0 17 12.5 29.5t29.5 12.5q13 0 21 -8.5t8 -21.5q0 -16 -13 -28.5t-29 -12.5q-13 0 -21 8.5zM361.5 563.5q-8.5 8.5 -8.5 20.5q0 16 13 29t30 13q12 0 20.5 -9t8.5 -21
q0 -16 -13 -28.5t-29 -12.5q-13 0 -21.5 8.5z" />
    <glyph glyph-name="edotaccent" unicode="&#x117;" horiz-adv-x="494" 
d="M98 159q-3 -16 -3 -32q0 -97 131 -97q47 0 88 14.5t70 44.5l28 -30q-35 -35 -82.5 -52.5t-103.5 -17.5q-88 0 -134.5 33.5t-46.5 98.5q0 12 4 38l28 155q14 78 69 122t141 44q82 0 127.5 -37.5t45.5 -105.5q0 -67 -27.5 -96.5t-89.5 -29.5h-236zM178 407q-42 -34 -53 -95
l-11 -64h223q40 0 57.5 21t17.5 68q0 49 -33 76.5t-92 27.5q-67 0 -109 -34zM279.5 563.5q-9.5 9.5 -9.5 23.5q0 18 14.5 32.5t32.5 14.5q15 0 24.5 -9.5t9.5 -23.5q0 -18 -14.5 -32.5t-32.5 -14.5q-15 0 -24.5 9.5z" />
    <glyph glyph-name="uni1EB9" unicode="&#x1eb9;" horiz-adv-x="494" 
d="M98 159q-3 -16 -3 -32q0 -97 131 -97q47 0 88 14.5t70 44.5l28 -30q-35 -35 -82.5 -52.5t-103.5 -17.5q-88 0 -134.5 33.5t-46.5 98.5q0 12 4 38l28 155q14 78 69 122t141 44q82 0 127.5 -37.5t45.5 -105.5q0 -67 -27.5 -96.5t-89.5 -29.5h-236zM178 407q-42 -34 -53 -95
l-11 -64h223q40 0 57.5 21t17.5 68q0 49 -33 76.5t-92 27.5q-67 0 -109 -34zM159.5 -143.5q-9.5 9.5 -9.5 23.5q0 18 15 32.5t33 14.5q15 0 24.5 -9.5t9.5 -23.5q0 -18 -14.5 -32.5t-33.5 -14.5q-15 0 -24.5 9.5z" />
    <glyph glyph-name="egrave" unicode="&#xe8;" horiz-adv-x="494" 
d="M98 159q-3 -16 -3 -32q0 -97 131 -97q47 0 88 14.5t70 44.5l28 -30q-35 -35 -82.5 -52.5t-103.5 -17.5q-88 0 -134.5 33.5t-46.5 98.5q0 12 4 38l28 155q14 78 69 122t141 44q82 0 127.5 -37.5t45.5 -105.5q0 -67 -27.5 -96.5t-89.5 -29.5h-236zM178 407q-42 -34 -53 -95
l-11 -64h223q40 0 57.5 21t17.5 68q0 49 -33 76.5t-92 27.5q-67 0 -109 -34zM207 693h56l56 -141h-42z" />
    <glyph glyph-name="uni1EBB" unicode="&#x1ebb;" horiz-adv-x="494" 
d="M98 159q-3 -16 -3 -32q0 -97 131 -97q47 0 88 14.5t70 44.5l28 -30q-35 -35 -82.5 -52.5t-103.5 -17.5q-88 0 -134.5 33.5t-46.5 98.5q0 12 4 38l28 155q14 78 69 122t141 44q82 0 127.5 -37.5t45.5 -105.5q0 -67 -27.5 -96.5t-89.5 -29.5h-236zM178 407q-42 -34 -53 -95
l-11 -64h223q40 0 57.5 21t17.5 68q0 49 -33 76.5t-92 27.5q-67 0 -109 -34zM327 590l-6 -38h-41l11 61q41 6 60 18t19 38q0 31 -40 31q-25 0 -49 -8l-3 32q30 11 61 11q33 0 54 -14.5t21 -43.5q0 -70 -87 -87z" />
    <glyph glyph-name="emacron" unicode="&#x113;" horiz-adv-x="494" 
d="M98 159q-3 -16 -3 -32q0 -97 131 -97q47 0 88 14.5t70 44.5l28 -30q-35 -35 -82.5 -52.5t-103.5 -17.5q-88 0 -134.5 33.5t-46.5 98.5q0 12 4 38l28 155q14 78 69 122t141 44q82 0 127.5 -37.5t45.5 -105.5q0 -67 -27.5 -96.5t-89.5 -29.5h-236zM178 407q-42 -34 -53 -95
l-11 -64h223q40 0 57.5 21t17.5 68q0 49 -33 76.5t-92 27.5q-67 0 -109 -34zM166 606h293l-7 -40h-293z" />
    <glyph glyph-name="eogonek" unicode="&#x119;" horiz-adv-x="494" 
d="M98 159q-3 -16 -3 -32q0 -97 131 -97q47 0 88 14.5t70 44.5l28 -30q-35 -35 -82.5 -52.5t-103.5 -17.5h-4q-25 -31 -40 -57t-15 -50q0 -18 12 -27t31 -9q22 0 57 14l4 -32q-33 -18 -71 -18q-42 0 -60.5 18.5t-18.5 44.5q0 28 17.5 59.5t44.5 58.5q-68 8 -103 41t-35 89
q0 10 4 38l28 155q14 78 69 122t141 44q82 0 127.5 -37.5t45.5 -105.5q0 -67 -27.5 -96.5t-89.5 -29.5h-236zM178 407q-42 -34 -53 -95l-11 -64h223q40 0 57.5 21t17.5 68q0 49 -33 76.5t-92 27.5q-67 0 -109 -34z" />
    <glyph glyph-name="uni1EBD" unicode="&#x1ebd;" horiz-adv-x="494" 
d="M98 159q-3 -16 -3 -32q0 -97 131 -97q47 0 88 14.5t70 44.5l28 -30q-35 -35 -82.5 -52.5t-103.5 -17.5q-88 0 -134.5 33.5t-46.5 98.5q0 12 4 38l28 155q14 78 69 122t141 44q82 0 127.5 -37.5t45.5 -105.5q0 -67 -27.5 -96.5t-89.5 -29.5h-236zM178 407q-42 -34 -53 -95
l-11 -64h223q40 0 57.5 21t17.5 68q0 49 -33 76.5t-92 27.5q-67 0 -109 -34zM190.5 621.5q25.5 26.5 65.5 26.5q20 0 35 -6.5t35 -19.5q17 -11 27.5 -16t22.5 -5q22 0 34.5 11.5t22.5 37.5h35q-9 -38 -34.5 -64t-63.5 -26q-20 0 -35 6.5t-35 19.5q-17 11 -27.5 16t-22.5 5
q-23 0 -36 -12.5t-24 -39.5h-35q10 40 35.5 66.5z" />
    <glyph glyph-name="uni0259" unicode="&#x259;" horiz-adv-x="494" 
d="M403 447q46 -33 46 -97q0 -11 -4 -39l-27 -155q-14 -78 -69.5 -122.5t-141.5 -44.5q-82 0 -127.5 38t-45.5 106q0 67 27.5 96.5t90.5 29.5h236l9 52q3 17 3 31q0 98 -131 98q-100 0 -159 -59l-28 30q70 69 187 69q88 0 134 -33zM316 63q43 34 54 95l11 64h-223
q-40 0 -57.5 -21t-17.5 -68q0 -49 33 -76.5t91 -27.5q66 0 109 34z" />
    <glyph glyph-name="f" unicode="f" horiz-adv-x="296" 
d="M356 708l-7 -40h-20q-56 0 -90 -31t-45 -91l-14 -76h134l-7 -40h-134l-76 -430h-48l96 546q14 80 63 121t128 41h20z" />
    <glyph glyph-name="g" unicode="g" horiz-adv-x="561" 
d="M536 452q-16 -11 -23.5 -22t-10.5 -27l-82 -467q-14 -78 -62.5 -118t-129.5 -40h-117l7 39h117q56 0 91 31t45 89l24 140q-28 -35 -71.5 -56t-99.5 -21q-81 0 -126.5 46.5t-45.5 126.5q0 32 5 57l4 21q19 102 82 166t159 64q59 0 97.5 -24.5t55.5 -64.5l-2 9
q5 32 17.5 50t34.5 30zM337.5 68.5q43.5 28.5 71.5 82.5l32 179q-21 111 -137 111q-75 0 -126.5 -51t-68.5 -139l-4 -21q-5 -30 -5 -50q0 -66 34.5 -103t96.5 -37q63 0 106.5 28.5z" />
    <glyph glyph-name="gbreve" unicode="&#x11f;" horiz-adv-x="561" 
d="M536 452q-16 -11 -23.5 -22t-10.5 -27l-82 -467q-14 -78 -62.5 -118t-129.5 -40h-117l7 39h117q56 0 91 31t45 89l24 140q-28 -35 -71.5 -56t-99.5 -21q-81 0 -126.5 46.5t-45.5 126.5q0 32 5 57l4 21q19 102 82 166t159 64q59 0 97.5 -24.5t55.5 -64.5l-2 9
q5 32 17.5 50t34.5 30zM337.5 68.5q43.5 28.5 71.5 82.5l32 179q-21 111 -137 111q-75 0 -126.5 -51t-68.5 -139l-4 -21q-5 -30 -5 -50q0 -66 34.5 -103t96.5 -37q63 0 106.5 28.5zM248 576q-33 29 -33 78q0 13 3 28h36l-1 -14q0 -39 23 -60.5t65 -21.5q45 0 77 25.5
t43 70.5h37q-11 -62 -54 -98.5t-107 -36.5q-56 0 -89 29z" />
    <glyph glyph-name="gcaron" unicode="&#x1e7;" horiz-adv-x="561" 
d="M536 452q-16 -11 -23.5 -22t-10.5 -27l-82 -467q-14 -78 -62.5 -118t-129.5 -40h-117l7 39h117q56 0 91 31t45 89l24 140q-28 -35 -71.5 -56t-99.5 -21q-81 0 -126.5 46.5t-45.5 126.5q0 32 5 57l4 21q19 102 82 166t159 64q59 0 97.5 -24.5t55.5 -64.5l-2 9
q5 32 17.5 50t34.5 30zM337.5 68.5q43.5 28.5 71.5 82.5l32 179q-21 111 -137 111q-75 0 -126.5 -51t-68.5 -139l-4 -21q-5 -30 -5 -50q0 -66 34.5 -103t96.5 -37q63 0 106.5 28.5zM276 635q-29 43 -56 64h50q21 -19 42.5 -50.5t29.5 -52.5q14 20 47.5 51.5t62.5 51.5h50
q-35 -23 -79.5 -65.5t-71.5 -81.5h-32q-14 40 -43 83z" />
    <glyph glyph-name="gcircumflex" unicode="&#x11d;" horiz-adv-x="561" 
d="M536 452q-16 -11 -23.5 -22t-10.5 -27l-82 -467q-14 -78 -62.5 -118t-129.5 -40h-117l7 39h117q56 0 91 31t45 89l24 140q-28 -35 -71.5 -56t-99.5 -21q-81 0 -126.5 46.5t-45.5 126.5q0 32 5 57l4 21q19 102 82 166t159 64q59 0 97.5 -24.5t55.5 -64.5l-2 9
q5 32 17.5 50t34.5 30zM337.5 68.5q43.5 28.5 71.5 82.5l32 179q-21 111 -137 111q-75 0 -126.5 -51t-68.5 -139l-4 -21q-5 -30 -5 -50q0 -66 34.5 -103t96.5 -37q63 0 106.5 28.5zM273.5 617.5q44.5 42.5 71.5 81.5h31q14 -40 43.5 -82.5t56.5 -64.5h-51q-21 19 -42.5 50.5
t-29.5 52.5q-12 -19 -46 -51t-63 -52h-51q36 23 80.5 65.5z" />
    <glyph glyph-name="uni0123" unicode="&#x123;" horiz-adv-x="561" 
d="M308 554.5q-9 10.5 -9 27.5q0 34 24.5 71.5t62.5 61.5l15 -18q-49 -33 -60 -74q8 5 22 5q11 0 18 -7t7 -19q0 -22 -17 -40t-37 -18q-17 0 -26 10.5zM536 452q-16 -11 -23.5 -22t-10.5 -27l-82 -467q-14 -78 -62.5 -118t-129.5 -40h-117l7 39h117q56 0 91 31t45 89l24 140
q-28 -35 -71.5 -56t-99.5 -21q-81 0 -126.5 46.5t-45.5 126.5q0 32 5 57l4 21q19 102 82 166t159 64q59 0 97.5 -24.5t55.5 -64.5l-2 9q5 32 17.5 50t34.5 30zM337.5 68.5q43.5 28.5 71.5 82.5l32 179q-21 111 -137 111q-75 0 -126.5 -51t-68.5 -139l-4 -21q-5 -30 -5 -50
q0 -66 34.5 -103t96.5 -37q63 0 106.5 28.5z" />
    <glyph glyph-name="gdotaccent" unicode="&#x121;" horiz-adv-x="561" 
d="M536 452q-16 -11 -23.5 -22t-10.5 -27l-82 -467q-14 -78 -62.5 -118t-129.5 -40h-117l7 39h117q56 0 91 31t45 89l24 140q-28 -35 -71.5 -56t-99.5 -21q-81 0 -126.5 46.5t-45.5 126.5q0 32 5 57l4 21q19 102 82 166t159 64q59 0 97.5 -24.5t55.5 -64.5l-2 9
q5 32 17.5 50t34.5 30zM337.5 68.5q43.5 28.5 71.5 82.5l32 179q-21 111 -137 111q-75 0 -126.5 -51t-68.5 -139l-4 -21q-5 -30 -5 -50q0 -66 34.5 -103t96.5 -37q63 0 106.5 28.5zM311.5 563.5q-9.5 9.5 -9.5 23.5q0 18 14.5 32.5t32.5 14.5q15 0 24.5 -9.5t9.5 -23.5
q0 -18 -14.5 -32.5t-32.5 -14.5q-15 0 -24.5 9.5z" />
    <glyph glyph-name="uni1E21" unicode="&#x1e21;" horiz-adv-x="561" 
d="M536 452q-16 -11 -23.5 -22t-10.5 -27l-82 -467q-14 -78 -62.5 -118t-129.5 -40h-117l7 39h117q56 0 91 31t45 89l24 140q-28 -35 -71.5 -56t-99.5 -21q-81 0 -126.5 46.5t-45.5 126.5q0 32 5 57l4 21q19 102 82 166t159 64q59 0 97.5 -24.5t55.5 -64.5l-2 9
q5 32 17.5 50t34.5 30zM337.5 68.5q43.5 28.5 71.5 82.5l32 179q-21 111 -137 111q-75 0 -126.5 -51t-68.5 -139l-4 -21q-5 -30 -5 -50q0 -66 34.5 -103t96.5 -37q63 0 106.5 28.5zM198 606h293l-7 -40h-293z" />
    <glyph glyph-name="h" unicode="h" horiz-adv-x="540" 
d="M447 449q33 -32 33 -90q0 -21 -4 -40l-57 -319h-48l55 312q4 28 4 38q0 44 -23.5 67.5t-67.5 23.5q-69 0 -119 -50t-77 -121l-48 -270h-48l113 639q1 5 1 13q0 19 -18 37l33 28q18 -11 26 -24.5t8 -33.5q0 -6 -2 -24l-49 -276q33 56 83.5 89t113.5 33q58 0 91 -32z" />
    <glyph glyph-name="hbar" unicode="&#x127;" horiz-adv-x="540" 
d="M447 449q33 -32 33 -90q0 -21 -4 -40l-57 -319h-48l55 312q4 28 4 38q0 44 -23.5 67.5t-67.5 23.5q-69 0 -119 -50t-77 -121l-48 -270h-48l101 571h-81l6 34h81l6 34q1 5 1 13q0 19 -18 37l33 28q18 -11 26 -24.5t8 -33.5q0 -6 -2 -24l-5 -30h166l-6 -34h-166l-38 -212
q33 56 83.5 89t113.5 33q58 0 91 -32z" />
    <glyph glyph-name="uni1E2B" unicode="&#x1e2b;" horiz-adv-x="540" 
d="M447 449q33 -32 33 -90q0 -21 -4 -40l-57 -319h-48l55 312q4 28 4 38q0 44 -23.5 67.5t-67.5 23.5q-69 0 -119 -50t-77 -121l-48 -270h-48l113 639q1 5 1 13q0 19 -18 37l33 28q18 -11 26 -24.5t8 -33.5q0 -6 -2 -24l-49 -276q33 56 83.5 89t113.5 33q58 0 91 -32z
M113 -182q-33 29 -33 78q0 13 3 28h36l-1 -14q0 -39 23 -60.5t65 -21.5q45 0 77 25.5t43 70.5h37q-11 -62 -54 -98.5t-107 -36.5q-56 0 -89 29z" />
    <glyph glyph-name="hcircumflex" unicode="&#x125;" horiz-adv-x="540" 
d="M447 449q33 -32 33 -90q0 -21 -4 -40l-57 -319h-48l55 312q4 28 4 38q0 44 -23.5 67.5t-67.5 23.5q-69 0 -119 -50t-77 -121l-48 -270h-48l113 639q1 5 1 13q0 19 -18 37l33 28q18 -11 26 -24.5t8 -33.5q0 -6 -2 -24l-49 -276q33 56 83.5 89t113.5 33q58 0 91 -32z
M318.5 798.5q44.5 42.5 71.5 81.5h31q14 -40 43.5 -82.5t56.5 -64.5h-51q-21 19 -42.5 50.5t-29.5 52.5q-12 -19 -46 -51t-63 -52h-51q36 23 80.5 65.5z" />
    <glyph glyph-name="uni1E25" unicode="&#x1e25;" horiz-adv-x="540" 
d="M447 449q33 -32 33 -90q0 -21 -4 -40l-57 -319h-48l55 312q4 28 4 38q0 44 -23.5 67.5t-67.5 23.5q-69 0 -119 -50t-77 -121l-48 -270h-48l113 639q1 5 1 13q0 19 -18 37l33 28q18 -11 26 -24.5t8 -33.5q0 -6 -2 -24l-49 -276q33 56 83.5 89t113.5 33q58 0 91 -32z
M184.5 -143.5q-9.5 9.5 -9.5 23.5q0 18 15 32.5t33 14.5q15 0 24.5 -9.5t9.5 -23.5q0 -18 -14.5 -32.5t-33.5 -14.5q-15 0 -24.5 9.5z" />
    <glyph glyph-name="i" unicode="i" horiz-adv-x="236" 
d="M157 598q-9 9 -9 22q0 18 14 31.5t32 13.5q14 0 23 -9t9 -22q0 -17 -14 -31t-32 -14q-14 0 -23 9zM71 18q-8 15 -8 34q0 6 2 20l70 398h49l-71 -402q-1 -5 -1 -14q0 -18 18 -35l-33 -30q-18 14 -26 29z" />
    <glyph glyph-name="dotlessi" unicode="&#x131;" horiz-adv-x="222" 
d="M57 17.5q-8 14.5 -8 33.5q0 5 2 21l70 398h49l-71 -402q-1 -5 -1 -14q0 -18 18 -35l-33 -30q-18 14 -26 28.5z" />
    <glyph glyph-name="iacute" unicode="&#xed;" horiz-adv-x="222" 
d="M57 17.5q-8 14.5 -8 33.5q0 5 2 21l70 398h49l-71 -402q-1 -5 -1 -14q0 -18 18 -35l-33 -30q-18 14 -26 28.5zM247 693h56l-120 -141h-41z" />
    <glyph glyph-name="ibreve" unicode="&#x12d;" horiz-adv-x="222" 
d="M57 17.5q-8 14.5 -8 33.5q0 5 2 21l70 398h49l-71 -402q-1 -5 -1 -14q0 -18 18 -35l-33 -30q-18 14 -26 28.5zM74 576q-33 29 -33 78q0 13 3 28h36l-1 -14q0 -39 23 -60.5t65 -21.5q45 0 77 25.5t43 70.5h37q-11 -62 -54 -98.5t-107 -36.5q-56 0 -89 29z" />
    <glyph glyph-name="uni01D0" unicode="&#x1d0;" horiz-adv-x="222" 
d="M57 17.5q-8 14.5 -8 33.5q0 5 2 21l70 398h49l-71 -402q-1 -5 -1 -14q0 -18 18 -35l-33 -30q-18 14 -26 28.5zM102 635q-29 43 -56 64h50q21 -19 42.5 -50.5t29.5 -52.5q14 20 47.5 51.5t62.5 51.5h50q-35 -23 -79.5 -65.5t-71.5 -81.5h-32q-14 40 -43 83z" />
    <glyph glyph-name="icircumflex" unicode="&#xee;" horiz-adv-x="222" 
d="M57 17.5q-8 14.5 -8 33.5q0 5 2 21l70 398h49l-71 -402q-1 -5 -1 -14q0 -18 18 -35l-33 -30q-18 14 -26 28.5zM99.5 617.5q44.5 42.5 71.5 81.5h31q14 -40 43.5 -82.5t56.5 -64.5h-51q-21 19 -42.5 50.5t-29.5 52.5q-12 -19 -46 -51t-63 -52h-51q36 23 80.5 65.5z" />
    <glyph glyph-name="idieresis" unicode="&#xef;" horiz-adv-x="222" 
d="M57 17.5q-8 14.5 -8 33.5q0 5 2 21l70 398h49l-71 -402q-1 -5 -1 -14q0 -18 18 -35l-33 -30q-18 14 -26 28.5zM61 563.5q-8 8.5 -8 20.5q0 17 12.5 29.5t29.5 12.5q13 0 21 -8.5t8 -21.5q0 -16 -13 -28.5t-29 -12.5q-13 0 -21 8.5zM219.5 563.5q-8.5 8.5 -8.5 20.5
q0 16 13 29t30 13q12 0 20.5 -9t8.5 -21q0 -16 -13 -28.5t-29 -12.5q-13 0 -21.5 8.5z" />
    <glyph glyph-name="uni1ECB" unicode="&#x1ecb;" horiz-adv-x="236" 
d="M157 598q-9 9 -9 22q0 18 14 31.5t32 13.5q14 0 23 -9t9 -22q0 -17 -14 -31t-32 -14q-14 0 -23 9zM71 18q-8 15 -8 34q0 6 2 20l70 398h49l-71 -402q-1 -5 -1 -14q0 -18 18 -35l-33 -30q-18 14 -26 29zM32.5 -143.5q-9.5 9.5 -9.5 23.5q0 18 15 32.5t33 14.5
q15 0 24.5 -9.5t9.5 -23.5q0 -18 -14.5 -32.5t-33.5 -14.5q-15 0 -24.5 9.5z" />
    <glyph glyph-name="igrave" unicode="&#xec;" horiz-adv-x="222" 
d="M57 17.5q-8 14.5 -8 33.5q0 5 2 21l70 398h49l-71 -402q-1 -5 -1 -14q0 -18 18 -35l-33 -30q-18 14 -26 28.5zM65 693h56l56 -141h-42z" />
    <glyph glyph-name="uni1EC9" unicode="&#x1ec9;" horiz-adv-x="222" 
d="M57 17.5q-8 14.5 -8 33.5q0 5 2 21l70 398h49l-71 -402q-1 -5 -1 -14q0 -18 18 -35l-33 -30q-18 14 -26 28.5zM185 590l-6 -38h-41l11 61q41 6 60 18t19 38q0 31 -40 31q-25 0 -49 -8l-3 32q30 11 61 11q33 0 54 -14.5t21 -43.5q0 -70 -87 -87z" />
    <glyph glyph-name="ij" unicode="&#x133;" horiz-adv-x="447" 
d="M157 598q-9 9 -9 22q0 18 14 31.5t32 13.5q14 0 23 -9t9 -22q0 -17 -14 -31t-32 -14q-14 0 -23 9zM71 18q-8 15 -8 34q0 6 2 20l70 398h49l-71 -402q-1 -5 -1 -14q0 -18 18 -35l-33 -30q-18 14 -26 29zM379.5 598q-9.5 9 -9.5 22q0 18 14 31.5t32 13.5q14 0 23 -8.5
t9 -22.5q0 -17 -13.5 -31t-31.5 -14q-14 0 -23.5 9zM81 -182h43q58 0 93 31t46 91l94 530h48l-93 -530q-14 -80 -63 -121t-130 -41h-45z" />
    <glyph glyph-name="imacron" unicode="&#x12b;" horiz-adv-x="222" 
d="M57 17.5q-8 14.5 -8 33.5q0 5 2 21l70 398h49l-71 -402q-1 -5 -1 -14q0 -18 18 -35l-33 -30q-18 14 -26 28.5zM24 606h293l-7 -40h-293z" />
    <glyph glyph-name="iogonek" unicode="&#x12f;" horiz-adv-x="222" 
d="M199 624.5q10 -9.5 10 -23.5q0 -18 -14.5 -32.5t-33.5 -14.5q-14 0 -24 9.5t-10 23.5q0 18 15 32.5t33 14.5q14 0 24 -9.5zM99 68q-1 -5 -1 -14q0 -18 18 -35l-33 -30q-23 -29 -37 -54t-14 -48q0 -18 12 -27t31 -9q22 0 57 14l4 -32q-33 -18 -71 -18q-42 0 -60.5 18.5
t-18.5 44.5q0 32 21 67t55 65q-13 17 -13 42q0 6 2 20l70 398h49z" />
    <glyph glyph-name="itilde" unicode="&#x129;" horiz-adv-x="222" 
d="M57 17.5q-8 14.5 -8 33.5q0 5 2 21l70 398h49l-71 -402q-1 -5 -1 -14q0 -18 18 -35l-33 -30q-18 14 -26 28.5zM48.5 621.5q25.5 26.5 65.5 26.5q20 0 35 -6.5t35 -19.5q17 -11 27.5 -16t22.5 -5q22 0 34.5 11.5t22.5 37.5h35q-9 -38 -34.5 -64t-63.5 -26q-20 0 -35 6.5
t-35 19.5q-17 11 -27.5 16t-22.5 5q-23 0 -36 -12.5t-24 -39.5h-35q10 40 35.5 66.5z" />
    <glyph glyph-name="j" unicode="j" horiz-adv-x="241" 
d="M172.5 598q-9.5 9 -9.5 22q0 18 14 31.5t32 13.5q14 0 23 -8.5t9 -22.5q0 -17 -13.5 -31t-31.5 -14q-14 0 -23.5 9zM-126 -182h43q58 0 93 31t46 91l94 530h48l-93 -530q-14 -80 -63 -121t-130 -41h-45z" />
    <glyph glyph-name="uni0237" unicode="&#x237;" horiz-adv-x="246" 
d="M-126 -182h40q59 0 95.5 31t46.5 91l94 530h48l-93 -530q-14 -80 -63 -121t-130 -41h-45z" />
    <glyph glyph-name="jcircumflex" unicode="&#x135;" horiz-adv-x="246" 
d="M-126 -182h40q59 0 95.5 31t46.5 91l94 530h48l-93 -530q-14 -80 -63 -121t-130 -41h-45zM126.5 617.5q44.5 42.5 71.5 81.5h31q14 -40 43.5 -82.5t56.5 -64.5h-51q-21 19 -42.5 50.5t-29.5 52.5q-12 -19 -46 -51t-63 -52h-51q36 23 80.5 65.5z" />
    <glyph glyph-name="k" unicode="k" horiz-adv-x="495" 
d="M374.5 258q21.5 -33 24.5 -90l13 -168h-49l-13 168q-3 30 -10.5 48.5t-27.5 31t-58 15.5l-132 -112l-27 -151h-48l112 639q1 5 1 13q0 19 -18 36l33 29q18 -11 26 -25t8 -33q0 -15 -2 -24l-75 -423l304 258h63l-202 -171q56 -8 77.5 -41z" />
    <glyph glyph-name="uni0137" unicode="&#x137;" horiz-adv-x="495" 
d="M374.5 258q21.5 -33 24.5 -90l13 -168h-49l-13 168q-3 30 -10.5 48.5t-27.5 31t-58 15.5l-132 -112l-27 -151h-48l112 639q1 5 1 13q0 19 -18 36l33 29q18 -11 26 -25t8 -33q0 -15 -2 -24l-75 -423l304 258h63l-202 -171q56 -8 77.5 -41zM228 -84.5q9 -10.5 9 -27.5
q0 -34 -24.5 -71.5t-62.5 -61.5l-15 18q49 33 60 74q-8 -5 -22 -5q-11 0 -18 7t-7 19q0 22 17 40t37 18q17 0 26 -10.5z" />
    <glyph glyph-name="kgreenlandic" unicode="&#x138;" horiz-adv-x="490" 
d="M324.5 264q23.5 -17 33 -39t17.5 -57l37 -168h-50l-38 168q-5 27 -14 43t-31.5 26t-64.5 12l-117 -98l-27 -151h-48l83 470h48l-46 -259l312 259h63l-224 -185q43 -4 66.5 -21z" />
    <glyph glyph-name="l" unicode="l" horiz-adv-x="225" 
d="M65 17.5q-8 14.5 -8 33.5q0 5 2 21l100 568q2 10 2 14q0 10 -4 17.5t-14 17.5l33 29q33 -23 33 -60q0 -6 -2 -22l-100 -568q-1 -5 -1 -14q0 -18 18 -35l-33 -30q-18 14 -26 28.5z" />
    <glyph glyph-name="lacute" unicode="&#x13a;" horiz-adv-x="225" 
d="M65 17.5q-8 14.5 -8 33.5q0 5 2 21l100 568q2 10 2 14q0 10 -4 17.5t-14 17.5l33 29q33 -23 33 -60q0 -6 -2 -22l-100 -568q-1 -5 -1 -14q0 -18 18 -35l-33 -30q-18 14 -26 28.5zM281 931h56l-120 -141h-41z" />
    <glyph glyph-name="lcaron" unicode="&#x13e;" horiz-adv-x="261" 
d="M65 17.5q-8 14.5 -8 33.5q0 5 2 21l100 568q2 10 2 14q0 10 -4 17.5t-14 17.5l33 29q33 -23 33 -60q0 -6 -2 -22l-100 -568q-1 -5 -1 -14q0 -18 18 -35l-33 -30q-18 14 -26 28.5zM334.5 704.5q8.5 -10.5 8.5 -27.5q0 -35 -24.5 -74.5t-64.5 -66.5l-14 18q50 38 61 82
q-8 -5 -21 -5q-12 0 -18.5 7t-6.5 20q0 22 17 39.5t37 17.5q17 0 25.5 -10.5z" />
    <glyph glyph-name="uni013C" unicode="&#x13c;" horiz-adv-x="225" 
d="M65 17.5q-8 14.5 -8 33.5q0 5 2 21l100 568q2 10 2 14q0 10 -4 17.5t-14 17.5l33 29q33 -23 33 -60q0 -6 -2 -22l-100 -568q-1 -5 -1 -14q0 -18 18 -35l-33 -30q-18 14 -26 28.5zM96 -84.5q9 -10.5 9 -27.5q0 -34 -24.5 -71.5t-62.5 -61.5l-15 18q49 33 60 74
q-8 -5 -22 -5q-11 0 -18 7t-7 19q0 22 17 40t37 18q17 0 26 -10.5z" />
    <glyph glyph-name="ldot" unicode="&#x140;" horiz-adv-x="300" 
d="M65 17.5q-8 14.5 -8 33.5q0 5 2 21l100 568q2 10 2 14q0 10 -4 17.5t-14 17.5l33 29q33 -23 33 -60q0 -6 -2 -22l-100 -568q-1 -5 -1 -14q0 -18 18 -35l-33 -30q-18 14 -26 28.5zM202.5 266q-12.5 12 -12.5 30q0 24 19 42.5t43 18.5q18 0 30 -12t12 -30
q0 -24 -18.5 -42.5t-41.5 -18.5q-19 0 -31.5 12z" />
    <glyph glyph-name="uni1E37" unicode="&#x1e37;" horiz-adv-x="225" 
d="M65 17.5q-8 14.5 -8 33.5q0 5 2 21l100 568q2 10 2 14q0 10 -4 17.5t-14 17.5l33 29q33 -23 33 -60q0 -6 -2 -22l-100 -568q-1 -5 -1 -14q0 -18 18 -35l-33 -30q-18 14 -26 28.5zM31.5 -143.5q-9.5 9.5 -9.5 23.5q0 18 15 32.5t33 14.5q15 0 24.5 -9.5t9.5 -23.5
q0 -18 -14.5 -32.5t-33.5 -14.5q-15 0 -24.5 9.5z" />
    <glyph glyph-name="uni1E39" unicode="&#x1e39;" horiz-adv-x="225" 
d="M65 17.5q-8 14.5 -8 33.5q0 5 2 21l100 568q2 10 2 14q0 10 -4 17.5t-14 17.5l33 29q33 -23 33 -60q0 -6 -2 -22l-100 -568q-1 -5 -1 -14q0 -18 18 -35l-33 -30q-18 14 -26 28.5zM30.5 -143.5q-9.5 9.5 -9.5 23.5q0 18 15 32.5t33 14.5q15 0 24.5 -9.5t9.5 -23.5
q0 -18 -14.5 -32.5t-33.5 -14.5q-15 0 -24.5 9.5zM58 844h293l-7 -40h-293z" />
    <glyph glyph-name="uni1E3B" unicode="&#x1e3b;" horiz-adv-x="225" 
d="M65 17.5q-8 14.5 -8 33.5q0 5 2 21l100 568q2 10 2 14q0 10 -4 17.5t-14 17.5l33 29q33 -23 33 -60q0 -6 -2 -22l-100 -568q-1 -5 -1 -14q0 -18 18 -35l-33 -30q-18 14 -26 28.5zM-80 -85h293l-7 -41h-293z" />
    <glyph glyph-name="lslash" unicode="&#x142;" horiz-adv-x="225" 
d="M109 68q-1 -5 -1 -14q0 -18 18 -35l-33 -30q-18 14 -26 28.5t-8 33.5q0 5 2 21l48 270l-92 -56l8 45l92 56l44 253q2 10 2 14q0 10 -4 17.5t-14 17.5l33 29q33 -23 33 -60q0 -6 -2 -22l-38 -215l88 54l-7 -45l-89 -54z" />
    <glyph glyph-name="m" unicode="m" horiz-adv-x="830" 
d="M739.5 448.5q30.5 -32.5 30.5 -88.5q0 -10 -4 -38l-57 -322h-49l55 312q4 20 4 40q0 43 -20.5 66t-58.5 23q-70 0 -118 -52.5t-74 -123.5l-46 -265h-49l55 312q4 19 4 40q0 43 -20 66t-57 23q-70 0 -119 -53t-74 -123l-47 -265h-48l71 403q1 4 1 12q0 10 -4 18.5
t-14 18.5l33 29q18 -11 26 -25t8 -32q0 -11 -3 -25l-8 -42q34 58 82.5 91t111.5 33q54 0 83 -35.5t25 -97.5q31 61 81.5 97t115.5 36q53 0 83.5 -32.5z" />
    <glyph glyph-name="uni1E43" unicode="&#x1e43;" horiz-adv-x="830" 
d="M739.5 448.5q30.5 -32.5 30.5 -88.5q0 -10 -4 -38l-57 -322h-49l55 312q4 20 4 40q0 43 -20.5 66t-58.5 23q-70 0 -118 -52.5t-74 -123.5l-46 -265h-49l55 312q4 19 4 40q0 43 -20 66t-57 23q-70 0 -119 -53t-74 -123l-47 -265h-48l71 403q1 4 1 12q0 10 -4 18.5
t-14 18.5l33 29q18 -11 26 -25t8 -32q0 -11 -3 -25l-8 -42q34 58 82.5 91t111.5 33q54 0 83 -35.5t25 -97.5q31 61 81.5 97t115.5 36q53 0 83.5 -32.5zM325.5 -143.5q-9.5 9.5 -9.5 23.5q0 18 15 32.5t33 14.5q15 0 24.5 -9.5t9.5 -23.5q0 -18 -14.5 -32.5t-33.5 -14.5
q-15 0 -24.5 9.5z" />
    <glyph glyph-name="n" unicode="n" horiz-adv-x="540" 
d="M447 449q33 -32 33 -90q0 -21 -4 -40l-57 -319h-47l54 312q3 20 3 37q0 92 -90 92q-69 0 -119 -50t-77 -121l-48 -270h-48l71 403q1 4 1 12q0 10 -4 18.5t-14 18.5l33 29q18 -11 26 -25t8 -34q0 -7 -2 -23l-7 -40q33 56 83.5 89t113.5 33q58 0 91 -32z" />
    <glyph glyph-name="nacute" unicode="&#x144;" horiz-adv-x="540" 
d="M447 449q33 -32 33 -90q0 -21 -4 -40l-57 -319h-47l54 312q3 20 3 37q0 92 -90 92q-69 0 -119 -50t-77 -121l-48 -270h-48l71 403q1 4 1 12q0 10 -4 18.5t-14 18.5l33 29q18 -11 26 -25t8 -34q0 -7 -2 -23l-7 -40q33 56 83.5 89t113.5 33q58 0 91 -32zM419 693h56
l-120 -141h-41z" />
    <glyph glyph-name="napostrophe" unicode="&#x149;" horiz-adv-x="562" 
d="M149.5 636.5q8.5 -10.5 8.5 -27.5q0 -35 -24.5 -74.5t-64.5 -66.5l-14 18q50 38 61 82q-8 -5 -21 -5q-12 0 -18.5 7t-6.5 20q0 22 17 39.5t37 17.5q17 0 25.5 -10.5zM469 449q33 -32 33 -90q0 -21 -4 -40l-57 -319h-47l54 312q3 20 3 37q0 92 -90 92q-69 0 -119 -50
t-77 -121l-48 -270h-48l71 403q1 4 1 12q0 10 -4 18.5t-14 18.5l33 29q18 -11 26 -25t8 -34q0 -7 -2 -23l-7 -40q33 56 83.5 89t113.5 33q58 0 91 -32z" />
    <glyph glyph-name="ncaron" unicode="&#x148;" horiz-adv-x="540" 
d="M447 449q33 -32 33 -90q0 -21 -4 -40l-57 -319h-47l54 312q3 20 3 37q0 92 -90 92q-69 0 -119 -50t-77 -121l-48 -270h-48l71 403q1 4 1 12q0 10 -4 18.5t-14 18.5l33 29q18 -11 26 -25t8 -34q0 -7 -2 -23l-7 -40q33 56 83.5 89t113.5 33q58 0 91 -32zM274 635
q-29 43 -56 64h50q21 -19 42.5 -50.5t29.5 -52.5q14 20 47.5 51.5t62.5 51.5h50q-35 -23 -79.5 -65.5t-71.5 -81.5h-32q-14 40 -43 83z" />
    <glyph glyph-name="uni0146" unicode="&#x146;" horiz-adv-x="540" 
d="M447 449q33 -32 33 -90q0 -21 -4 -40l-57 -319h-47l54 312q3 20 3 37q0 92 -90 92q-69 0 -119 -50t-77 -121l-48 -270h-48l71 403q1 4 1 12q0 10 -4 18.5t-14 18.5l33 29q18 -11 26 -25t8 -34q0 -7 -2 -23l-7 -40q33 56 83.5 89t113.5 33q58 0 91 -32zM247 -84.5
q9 -10.5 9 -27.5q0 -34 -24.5 -71.5t-62.5 -61.5l-15 18q49 33 60 74q-8 -5 -22 -5q-11 0 -18 7t-7 19q0 22 17 40t37 18q17 0 26 -10.5z" />
    <glyph glyph-name="uni1E45" unicode="&#x1e45;" horiz-adv-x="540" 
d="M447 449q33 -32 33 -90q0 -21 -4 -40l-57 -319h-47l54 312q3 20 3 37q0 92 -90 92q-69 0 -119 -50t-77 -121l-48 -270h-48l71 403q1 4 1 12q0 10 -4 18.5t-14 18.5l33 29q18 -11 26 -25t8 -34q0 -7 -2 -23l-7 -40q33 56 83.5 89t113.5 33q58 0 91 -32zM309.5 563.5
q-9.5 9.5 -9.5 23.5q0 18 14.5 32.5t32.5 14.5q15 0 24.5 -9.5t9.5 -23.5q0 -18 -14.5 -32.5t-32.5 -14.5q-15 0 -24.5 9.5z" />
    <glyph glyph-name="uni1E47" unicode="&#x1e47;" horiz-adv-x="540" 
d="M447 449q33 -32 33 -90q0 -21 -4 -40l-57 -319h-47l54 312q3 20 3 37q0 92 -90 92q-69 0 -119 -50t-77 -121l-48 -270h-48l71 403q1 4 1 12q0 10 -4 18.5t-14 18.5l33 29q18 -11 26 -25t8 -34q0 -7 -2 -23l-7 -40q33 56 83.5 89t113.5 33q58 0 91 -32zM182.5 -143.5
q-9.5 9.5 -9.5 23.5q0 18 15 32.5t33 14.5q15 0 24.5 -9.5t9.5 -23.5q0 -18 -14.5 -32.5t-33.5 -14.5q-15 0 -24.5 9.5z" />
    <glyph glyph-name="eng" unicode="&#x14b;" horiz-adv-x="540" 
d="M202 -183h21q56 0 91.5 31t45.5 92l66 372q3 20 3 37q0 92 -90 92q-69 0 -119 -51t-78 -122l-47 -268h-48l71 403q1 4 1 12q0 10 -4 18.5t-14 18.5l33 29q18 -11 26 -25t8 -34q0 -7 -2 -23l-7 -42q33 58 83 91t114 33q58 0 91 -32t33 -90q0 -21 -4 -40l-67 -379
q-29 -162 -193 -162h-21z" />
    <glyph glyph-name="uni1E49" unicode="&#x1e49;" horiz-adv-x="540" 
d="M447 449q33 -32 33 -90q0 -21 -4 -40l-57 -319h-47l54 312q3 20 3 37q0 92 -90 92q-69 0 -119 -50t-77 -121l-48 -270h-48l71 403q1 4 1 12q0 10 -4 18.5t-14 18.5l33 29q18 -11 26 -25t8 -34q0 -7 -2 -23l-7 -40q33 56 83.5 89t113.5 33q58 0 91 -32zM72 -85h293l-7 -41
h-293z" />
    <glyph glyph-name="ntilde" unicode="&#xf1;" horiz-adv-x="540" 
d="M447 449q33 -32 33 -90q0 -21 -4 -40l-57 -319h-47l54 312q3 20 3 37q0 92 -90 92q-69 0 -119 -50t-77 -121l-48 -270h-48l71 403q1 4 1 12q0 10 -4 18.5t-14 18.5l33 29q18 -11 26 -25t8 -34q0 -7 -2 -23l-7 -40q33 56 83.5 89t113.5 33q58 0 91 -32zM220.5 621.5
q25.5 26.5 65.5 26.5q20 0 35 -6.5t35 -19.5q17 -11 27.5 -16t22.5 -5q22 0 34.5 11.5t22.5 37.5h35q-9 -38 -34.5 -64t-63.5 -26q-20 0 -35 6.5t-35 19.5q-17 11 -27.5 16t-22.5 5q-23 0 -36 -12.5t-24 -39.5h-35q10 40 35.5 66.5z" />
    <glyph glyph-name="o" unicode="o" horiz-adv-x="513" 
d="M91.5 28.5q-43.5 39.5 -43.5 103.5q0 12 4 38l23 131q15 85 71.5 132.5t148.5 47.5q81 0 125.5 -39t44.5 -104q0 -17 -3 -37l-23 -131q-15 -81 -68.5 -131t-150.5 -50q-85 0 -128.5 39.5zM337 69.5q42 39.5 53 100.5l23 131q3 18 3 33q0 50 -31.5 78.5t-92.5 28.5
q-71 0 -114 -38t-55 -102l-23 -131q-3 -16 -3 -33q0 -49 29.5 -78t94.5 -29q74 0 116 39.5z" />
    <glyph glyph-name="oacute" unicode="&#xf3;" horiz-adv-x="513" 
d="M91.5 28.5q-43.5 39.5 -43.5 103.5q0 12 4 38l23 131q15 85 71.5 132.5t148.5 47.5q81 0 125.5 -39t44.5 -104q0 -17 -3 -37l-23 -131q-15 -81 -68.5 -131t-150.5 -50q-85 0 -128.5 39.5zM337 69.5q42 39.5 53 100.5l23 131q3 18 3 33q0 50 -31.5 78.5t-92.5 28.5
q-71 0 -114 -38t-55 -102l-23 -131q-3 -16 -3 -33q0 -49 29.5 -78t94.5 -29q74 0 116 39.5zM396 693h56l-120 -141h-41z" />
    <glyph glyph-name="obreve" unicode="&#x14f;" horiz-adv-x="513" 
d="M91.5 28.5q-43.5 39.5 -43.5 103.5q0 12 4 38l23 131q15 85 71.5 132.5t148.5 47.5q81 0 125.5 -39t44.5 -104q0 -17 -3 -37l-23 -131q-15 -81 -68.5 -131t-150.5 -50q-85 0 -128.5 39.5zM337 69.5q42 39.5 53 100.5l23 131q3 18 3 33q0 50 -31.5 78.5t-92.5 28.5
q-71 0 -114 -38t-55 -102l-23 -131q-3 -16 -3 -33q0 -49 29.5 -78t94.5 -29q74 0 116 39.5zM223 576q-33 29 -33 78q0 13 3 28h36l-1 -14q0 -39 23 -60.5t65 -21.5q45 0 77 25.5t43 70.5h37q-11 -62 -54 -98.5t-107 -36.5q-56 0 -89 29z" />
    <glyph glyph-name="uni01D2" unicode="&#x1d2;" horiz-adv-x="513" 
d="M91.5 28.5q-43.5 39.5 -43.5 103.5q0 12 4 38l23 131q15 85 71.5 132.5t148.5 47.5q81 0 125.5 -39t44.5 -104q0 -17 -3 -37l-23 -131q-15 -81 -68.5 -131t-150.5 -50q-85 0 -128.5 39.5zM337 69.5q42 39.5 53 100.5l23 131q3 18 3 33q0 50 -31.5 78.5t-92.5 28.5
q-71 0 -114 -38t-55 -102l-23 -131q-3 -16 -3 -33q0 -49 29.5 -78t94.5 -29q74 0 116 39.5zM251 635q-29 43 -56 64h50q21 -19 42.5 -50.5t29.5 -52.5q14 20 47.5 51.5t62.5 51.5h50q-35 -23 -79.5 -65.5t-71.5 -81.5h-32q-14 40 -43 83z" />
    <glyph glyph-name="ocircumflex" unicode="&#xf4;" horiz-adv-x="513" 
d="M91.5 28.5q-43.5 39.5 -43.5 103.5q0 12 4 38l23 131q15 85 71.5 132.5t148.5 47.5q81 0 125.5 -39t44.5 -104q0 -17 -3 -37l-23 -131q-15 -81 -68.5 -131t-150.5 -50q-85 0 -128.5 39.5zM337 69.5q42 39.5 53 100.5l23 131q3 18 3 33q0 50 -31.5 78.5t-92.5 28.5
q-71 0 -114 -38t-55 -102l-23 -131q-3 -16 -3 -33q0 -49 29.5 -78t94.5 -29q74 0 116 39.5zM248.5 617.5q44.5 42.5 71.5 81.5h31q14 -40 43.5 -82.5t56.5 -64.5h-51q-21 19 -42.5 50.5t-29.5 52.5q-12 -19 -46 -51t-63 -52h-51q36 23 80.5 65.5z" />
    <glyph glyph-name="uni1ED1" unicode="&#x1ed1;" horiz-adv-x="513" 
d="M91.5 28.5q-43.5 39.5 -43.5 103.5q0 12 4 38l23 131q15 85 71.5 132.5t148.5 47.5q81 0 125.5 -39t44.5 -104q0 -17 -3 -37l-23 -131q-15 -81 -68.5 -131t-150.5 -50q-85 0 -128.5 39.5zM337 69.5q42 39.5 53 100.5l23 131q3 18 3 33q0 50 -31.5 78.5t-92.5 28.5
q-71 0 -114 -38t-55 -102l-23 -131q-3 -16 -3 -33q0 -49 29.5 -78t94.5 -29q74 0 116 39.5zM500 739h53l-89 -104h-41zM247.5 617q44.5 43 71.5 82h32q13 -39 42.5 -82t56.5 -65h-48q-22 20 -45.5 52.5t-27.5 50.5q-11 -19 -45 -51t-63 -52h-53q35 22 79.5 65z" />
    <glyph glyph-name="uni1ED9" unicode="&#x1ed9;" horiz-adv-x="513" 
d="M91.5 28.5q-43.5 39.5 -43.5 103.5q0 12 4 38l23 131q15 85 71.5 132.5t148.5 47.5q81 0 125.5 -39t44.5 -104q0 -17 -3 -37l-23 -131q-15 -81 -68.5 -131t-150.5 -50q-85 0 -128.5 39.5zM337 69.5q42 39.5 53 100.5l23 131q3 18 3 33q0 50 -31.5 78.5t-92.5 28.5
q-71 0 -114 -38t-55 -102l-23 -131q-3 -16 -3 -33q0 -49 29.5 -78t94.5 -29q74 0 116 39.5zM165.5 -143.5q-9.5 9.5 -9.5 23.5q0 18 15 32.5t33 14.5q15 0 24.5 -9.5t9.5 -23.5q0 -18 -14.5 -32.5t-33.5 -14.5q-15 0 -24.5 9.5zM248.5 617.5q44.5 42.5 71.5 81.5h31
q14 -40 43.5 -82.5t56.5 -64.5h-51q-21 19 -42.5 50.5t-29.5 52.5q-12 -19 -46 -51t-63 -52h-51q36 23 80.5 65.5z" />
    <glyph glyph-name="uni1ED3" unicode="&#x1ed3;" horiz-adv-x="513" 
d="M91.5 28.5q-43.5 39.5 -43.5 103.5q0 12 4 38l23 131q15 85 71.5 132.5t148.5 47.5q81 0 125.5 -39t44.5 -104q0 -17 -3 -37l-23 -131q-15 -81 -68.5 -131t-150.5 -50q-85 0 -128.5 39.5zM337 69.5q42 39.5 53 100.5l23 131q3 18 3 33q0 50 -31.5 78.5t-92.5 28.5
q-71 0 -114 -38t-55 -102l-23 -131q-3 -16 -3 -33q0 -49 29.5 -78t94.5 -29q74 0 116 39.5zM425 739h53l41 -104h-41zM247.5 617q44.5 43 71.5 82h32q13 -39 42.5 -82t56.5 -65h-48q-22 20 -45.5 52.5t-27.5 50.5q-11 -19 -45 -51t-63 -52h-53q35 22 79.5 65z" />
    <glyph glyph-name="uni1ED5" unicode="&#x1ed5;" horiz-adv-x="513" 
d="M91.5 28.5q-43.5 39.5 -43.5 103.5q0 12 4 38l23 131q15 85 71.5 132.5t148.5 47.5q81 0 125.5 -39t44.5 -104q0 -17 -3 -37l-23 -131q-15 -81 -68.5 -131t-150.5 -50q-85 0 -128.5 39.5zM337 69.5q42 39.5 53 100.5l23 131q3 18 3 33q0 50 -31.5 78.5t-92.5 28.5
q-71 0 -114 -38t-55 -102l-23 -131q-3 -16 -3 -33q0 -49 29.5 -78t94.5 -29q74 0 116 39.5zM528 697q-20 -18 -59 -25l-6 -36h-39l10 58q41 6 58 15.5t17 32.5q0 14 -10 19.5t-30 5.5t-47 -8l-3 31q26 10 59 10t51.5 -12.5t18.5 -37.5q0 -35 -20 -53zM393.5 617
q29.5 -43 56.5 -65h-48q-22 20 -45.5 52.5t-27.5 50.5q-11 -19 -45 -51t-63 -52h-53q35 22 79.5 65t71.5 82h32q13 -39 42.5 -82z" />
    <glyph glyph-name="uni1ED7" unicode="&#x1ed7;" horiz-adv-x="513" 
d="M91.5 28.5q-43.5 39.5 -43.5 103.5q0 12 4 38l23 131q15 85 71.5 132.5t148.5 47.5q81 0 125.5 -39t44.5 -104q0 -17 -3 -37l-23 -131q-15 -81 -68.5 -131t-150.5 -50q-85 0 -128.5 39.5zM337 69.5q42 39.5 53 100.5l23 131q3 18 3 33q0 50 -31.5 78.5t-92.5 28.5
q-71 0 -114 -38t-55 -102l-23 -131q-3 -16 -3 -33q0 -49 29.5 -78t94.5 -29q74 0 116 39.5zM234 787.5q24 24.5 61 24.5q19 0 34 -6.5t33 -18.5q28 -19 47 -19q21 0 32 11t20 35h33q-9 -35 -33 -59t-59 -24q-20 0 -35 6.5t-33 18.5q-17 10 -25.5 14t-19.5 4q-21 0 -33 -11
t-22 -37h-33q9 37 33 61.5zM247.5 617q44.5 43 71.5 82h32q13 -39 42.5 -82t56.5 -65h-48q-22 20 -45.5 52.5t-27.5 50.5q-11 -19 -45 -51t-63 -52h-53q35 22 79.5 65z" />
    <glyph glyph-name="odieresis" unicode="&#xf6;" horiz-adv-x="513" 
d="M91.5 28.5q-43.5 39.5 -43.5 103.5q0 12 4 38l23 131q15 85 71.5 132.5t148.5 47.5q81 0 125.5 -39t44.5 -104q0 -17 -3 -37l-23 -131q-15 -81 -68.5 -131t-150.5 -50q-85 0 -128.5 39.5zM337 69.5q42 39.5 53 100.5l23 131q3 18 3 33q0 50 -31.5 78.5t-92.5 28.5
q-71 0 -114 -38t-55 -102l-23 -131q-3 -16 -3 -33q0 -49 29.5 -78t94.5 -29q74 0 116 39.5zM210 563.5q-8 8.5 -8 20.5q0 17 12.5 29.5t29.5 12.5q13 0 21 -8.5t8 -21.5q0 -16 -13 -28.5t-29 -12.5q-13 0 -21 8.5zM368.5 563.5q-8.5 8.5 -8.5 20.5q0 16 13 29t30 13
q12 0 20.5 -9t8.5 -21q0 -16 -13 -28.5t-29 -12.5q-13 0 -21.5 8.5z" />
    <glyph glyph-name="uni1ECD" unicode="&#x1ecd;" horiz-adv-x="513" 
d="M91.5 28.5q-43.5 39.5 -43.5 103.5q0 12 4 38l23 131q15 85 71.5 132.5t148.5 47.5q81 0 125.5 -39t44.5 -104q0 -17 -3 -37l-23 -131q-15 -81 -68.5 -131t-150.5 -50q-85 0 -128.5 39.5zM337 69.5q42 39.5 53 100.5l23 131q3 18 3 33q0 50 -31.5 78.5t-92.5 28.5
q-71 0 -114 -38t-55 -102l-23 -131q-3 -16 -3 -33q0 -49 29.5 -78t94.5 -29q74 0 116 39.5zM165.5 -143.5q-9.5 9.5 -9.5 23.5q0 18 15 32.5t33 14.5q15 0 24.5 -9.5t9.5 -23.5q0 -18 -14.5 -32.5t-33.5 -14.5q-15 0 -24.5 9.5z" />
    <glyph glyph-name="ograve" unicode="&#xf2;" horiz-adv-x="513" 
d="M91.5 28.5q-43.5 39.5 -43.5 103.5q0 12 4 38l23 131q15 85 71.5 132.5t148.5 47.5q81 0 125.5 -39t44.5 -104q0 -17 -3 -37l-23 -131q-15 -81 -68.5 -131t-150.5 -50q-85 0 -128.5 39.5zM337 69.5q42 39.5 53 100.5l23 131q3 18 3 33q0 50 -31.5 78.5t-92.5 28.5
q-71 0 -114 -38t-55 -102l-23 -131q-3 -16 -3 -33q0 -49 29.5 -78t94.5 -29q74 0 116 39.5zM214 693h56l56 -141h-42z" />
    <glyph glyph-name="uni1ECF" unicode="&#x1ecf;" horiz-adv-x="513" 
d="M91.5 28.5q-43.5 39.5 -43.5 103.5q0 12 4 38l23 131q15 85 71.5 132.5t148.5 47.5q81 0 125.5 -39t44.5 -104q0 -17 -3 -37l-23 -131q-15 -81 -68.5 -131t-150.5 -50q-85 0 -128.5 39.5zM337 69.5q42 39.5 53 100.5l23 131q3 18 3 33q0 50 -31.5 78.5t-92.5 28.5
q-71 0 -114 -38t-55 -102l-23 -131q-3 -16 -3 -33q0 -49 29.5 -78t94.5 -29q74 0 116 39.5zM334 590l-6 -38h-41l11 61q41 6 60 18t19 38q0 31 -40 31q-25 0 -49 -8l-3 32q30 11 61 11q33 0 54 -14.5t21 -43.5q0 -70 -87 -87z" />
    <glyph glyph-name="ohorn" unicode="&#x1a1;" horiz-adv-x="524" 
d="M549.5 401q-31.5 -39 -84.5 -47q2 -24 -3 -53l-23 -131q-15 -81 -68.5 -131t-150.5 -50q-85 0 -128.5 39.5t-43.5 103.5q0 12 4 38l23 131q15 85 71.5 132.5t148.5 47.5q65 0 107 -25.5t57 -70.5q36 8 57.5 39t31.5 92h48q-15 -76 -46.5 -115zM416 334q0 50 -31.5 78.5
t-92.5 28.5q-71 0 -114 -38t-55 -102l-23 -131q-3 -16 -3 -33q0 -49 29.5 -78t94.5 -29q74 0 116 39.5t53 100.5l23 131q3 18 3 33z" />
    <glyph glyph-name="uni1EDB" unicode="&#x1edb;" horiz-adv-x="524" 
d="M549.5 401q-31.5 -39 -84.5 -47q2 -24 -3 -53l-23 -131q-15 -81 -68.5 -131t-150.5 -50q-85 0 -128.5 39.5t-43.5 103.5q0 12 4 38l23 131q15 85 71.5 132.5t148.5 47.5q65 0 107 -25.5t57 -70.5q36 8 57.5 39t31.5 92h48q-15 -76 -46.5 -115zM416 334q0 50 -31.5 78.5
t-92.5 28.5q-71 0 -114 -38t-55 -102l-23 -131q-3 -16 -3 -33q0 -49 29.5 -78t94.5 -29q74 0 116 39.5t53 100.5l23 131q3 18 3 33zM396 693h56l-120 -141h-41z" />
    <glyph glyph-name="uni1EE3" unicode="&#x1ee3;" horiz-adv-x="524" 
d="M549.5 401q-31.5 -39 -84.5 -47q2 -24 -3 -53l-23 -131q-15 -81 -68.5 -131t-150.5 -50q-85 0 -128.5 39.5t-43.5 103.5q0 12 4 38l23 131q15 85 71.5 132.5t148.5 47.5q65 0 107 -25.5t57 -70.5q36 8 57.5 39t31.5 92h48q-15 -76 -46.5 -115zM416 334q0 50 -31.5 78.5
t-92.5 28.5q-71 0 -114 -38t-55 -102l-23 -131q-3 -16 -3 -33q0 -49 29.5 -78t94.5 -29q74 0 116 39.5t53 100.5l23 131q3 18 3 33zM165.5 -143.5q-9.5 9.5 -9.5 23.5q0 18 15 32.5t33 14.5q15 0 24.5 -9.5t9.5 -23.5q0 -18 -14.5 -32.5t-33.5 -14.5q-15 0 -24.5 9.5z" />
    <glyph glyph-name="uni1EDD" unicode="&#x1edd;" horiz-adv-x="524" 
d="M549.5 401q-31.5 -39 -84.5 -47q2 -24 -3 -53l-23 -131q-15 -81 -68.5 -131t-150.5 -50q-85 0 -128.5 39.5t-43.5 103.5q0 12 4 38l23 131q15 85 71.5 132.5t148.5 47.5q65 0 107 -25.5t57 -70.5q36 8 57.5 39t31.5 92h48q-15 -76 -46.5 -115zM416 334q0 50 -31.5 78.5
t-92.5 28.5q-71 0 -114 -38t-55 -102l-23 -131q-3 -16 -3 -33q0 -49 29.5 -78t94.5 -29q74 0 116 39.5t53 100.5l23 131q3 18 3 33zM214 693h56l56 -141h-42z" />
    <glyph glyph-name="uni1EDF" unicode="&#x1edf;" horiz-adv-x="524" 
d="M549.5 401q-31.5 -39 -84.5 -47q2 -24 -3 -53l-23 -131q-15 -81 -68.5 -131t-150.5 -50q-85 0 -128.5 39.5t-43.5 103.5q0 12 4 38l23 131q15 85 71.5 132.5t148.5 47.5q65 0 107 -25.5t57 -70.5q36 8 57.5 39t31.5 92h48q-15 -76 -46.5 -115zM416 334q0 50 -31.5 78.5
t-92.5 28.5q-71 0 -114 -38t-55 -102l-23 -131q-3 -16 -3 -33q0 -49 29.5 -78t94.5 -29q74 0 116 39.5t53 100.5l23 131q3 18 3 33zM334 590l-6 -38h-41l11 61q41 6 60 18t19 38q0 31 -40 31q-25 0 -49 -8l-3 32q30 11 61 11q33 0 54 -14.5t21 -43.5q0 -70 -87 -87z" />
    <glyph glyph-name="uni1EE1" unicode="&#x1ee1;" horiz-adv-x="524" 
d="M549.5 401q-31.5 -39 -84.5 -47q2 -24 -3 -53l-23 -131q-15 -81 -68.5 -131t-150.5 -50q-85 0 -128.5 39.5t-43.5 103.5q0 12 4 38l23 131q15 85 71.5 132.5t148.5 47.5q65 0 107 -25.5t57 -70.5q36 8 57.5 39t31.5 92h48q-15 -76 -46.5 -115zM416 334q0 50 -31.5 78.5
t-92.5 28.5q-71 0 -114 -38t-55 -102l-23 -131q-3 -16 -3 -33q0 -49 29.5 -78t94.5 -29q74 0 116 39.5t53 100.5l23 131q3 18 3 33zM197.5 621.5q25.5 26.5 65.5 26.5q20 0 35 -6.5t35 -19.5q17 -11 27.5 -16t22.5 -5q22 0 34.5 11.5t22.5 37.5h35q-9 -38 -34.5 -64
t-63.5 -26q-20 0 -35 6.5t-35 19.5q-17 11 -27.5 16t-22.5 5q-23 0 -36 -12.5t-24 -39.5h-35q10 40 35.5 66.5z" />
    <glyph glyph-name="ohungarumlaut" unicode="&#x151;" horiz-adv-x="513" 
d="M91.5 28.5q-43.5 39.5 -43.5 103.5q0 12 4 38l23 131q15 85 71.5 132.5t148.5 47.5q81 0 125.5 -39t44.5 -104q0 -17 -3 -37l-23 -131q-15 -81 -68.5 -131t-150.5 -50q-85 0 -128.5 39.5zM337 69.5q42 39.5 53 100.5l23 131q3 18 3 33q0 50 -31.5 78.5t-92.5 28.5
q-71 0 -114 -38t-55 -102l-23 -131q-3 -16 -3 -33q0 -49 29.5 -78t94.5 -29q74 0 116 39.5zM310 693h53l-107 -141h-40zM452 693h52l-107 -141h-40z" />
    <glyph glyph-name="omacron" unicode="&#x14d;" horiz-adv-x="513" 
d="M91.5 28.5q-43.5 39.5 -43.5 103.5q0 12 4 38l23 131q15 85 71.5 132.5t148.5 47.5q81 0 125.5 -39t44.5 -104q0 -17 -3 -37l-23 -131q-15 -81 -68.5 -131t-150.5 -50q-85 0 -128.5 39.5zM337 69.5q42 39.5 53 100.5l23 131q3 18 3 33q0 50 -31.5 78.5t-92.5 28.5
q-71 0 -114 -38t-55 -102l-23 -131q-3 -16 -3 -33q0 -49 29.5 -78t94.5 -29q74 0 116 39.5zM173 606h293l-7 -40h-293z" />
    <glyph glyph-name="oslash" unicode="&#xf8;" horiz-adv-x="513" 
d="M465 338q0 -17 -3 -37l-23 -131q-15 -81 -68.5 -131t-150.5 -50q-59 0 -101 21l-48 -70h-39l60 88q-43 37 -43 105q0 18 3 37l23 131q15 85 71.5 132.5t148.5 47.5q55 0 96 -19l47 68h39l-59 -85q47 -37 47 -107zM97 137q0 -42 22 -70l247 358q-28 16 -74 16
q-71 0 -114 -38t-55 -102l-23 -131q-3 -16 -3 -33zM416 334q0 45 -24 72l-248 -359q29 -17 77 -17q74 0 116 39.5t53 100.5l23 131q3 18 3 33z" />
    <glyph glyph-name="oslashacute" unicode="&#x1ff;" horiz-adv-x="513" 
d="M465 338q0 -17 -3 -37l-23 -131q-15 -81 -68.5 -131t-150.5 -50q-59 0 -101 21l-48 -70h-39l60 88q-43 37 -43 105q0 18 3 37l23 131q15 85 71.5 132.5t148.5 47.5q55 0 96 -19l47 68h39l-59 -85q47 -37 47 -107zM97 137q0 -42 22 -70l247 358q-28 16 -74 16
q-71 0 -114 -38t-55 -102l-23 -131q-3 -16 -3 -33zM416 334q0 45 -24 72l-248 -359q29 -17 77 -17q74 0 116 39.5t53 100.5l23 131q3 18 3 33zM396 693h56l-120 -141h-41z" />
    <glyph glyph-name="otilde" unicode="&#xf5;" horiz-adv-x="513" 
d="M91.5 28.5q-43.5 39.5 -43.5 103.5q0 12 4 38l23 131q15 85 71.5 132.5t148.5 47.5q81 0 125.5 -39t44.5 -104q0 -17 -3 -37l-23 -131q-15 -81 -68.5 -131t-150.5 -50q-85 0 -128.5 39.5zM337 69.5q42 39.5 53 100.5l23 131q3 18 3 33q0 50 -31.5 78.5t-92.5 28.5
q-71 0 -114 -38t-55 -102l-23 -131q-3 -16 -3 -33q0 -49 29.5 -78t94.5 -29q74 0 116 39.5zM197.5 621.5q25.5 26.5 65.5 26.5q20 0 35 -6.5t35 -19.5q17 -11 27.5 -16t22.5 -5q22 0 34.5 11.5t22.5 37.5h35q-9 -38 -34.5 -64t-63.5 -26q-20 0 -35 6.5t-35 19.5
q-17 11 -27.5 16t-22.5 5q-23 0 -36 -12.5t-24 -39.5h-35q10 40 35.5 66.5z" />
    <glyph glyph-name="oe" unicode="&#x153;" horiz-adv-x="834" 
d="M90.5 28q-42.5 39 -42.5 103q0 13 4 39l23 131q14 80 69 130t152 50q64 0 103 -24t54 -65q28 42 72.5 65t102.5 23q82 0 127 -37.5t45 -105.5q0 -67 -27.5 -96.5t-90.5 -29.5h-236l-9 -52q-3 -18 -3 -33q0 -47 31 -71.5t100 -24.5q100 0 159 59l28 -30q-71 -70 -187 -70
q-141 0 -169 85q-28 -40 -73 -62.5t-105 -22.5q-85 0 -127.5 39zM337.5 69q41.5 39 52.5 101l23 131q3 17 3 33q0 48 -29.5 77.5t-93.5 29.5q-74 0 -116.5 -39.5t-53.5 -100.5l-23 -131q-3 -16 -3 -33q0 -48 30 -77.5t94 -29.5q75 0 116.5 39zM676 248q40 0 57.5 21t17.5 68
q0 49 -33 76.5t-91 27.5q-65 0 -108.5 -35.5t-54.5 -93.5l-11 -64h223z" />
    <glyph glyph-name="p" unicode="p" horiz-adv-x="561" 
d="M464.5 431q44.5 -50 44.5 -131q0 -26 -4 -49l-5 -32q-16 -102 -79 -166t-158 -64q-59 0 -97.5 23t-57.5 61l-51 -292h-49l110 622q1 5 1 13q0 18 -18 36l32 29q18 -13 26 -27t8 -33q0 -6 -2 -22q30 39 74 60.5t98 21.5q83 0 127.5 -50zM461 295q0 67 -34.5 106.5
t-97.5 39.5t-105 -29.5t-72 -85.5l-32 -183q9 -55 42 -84t96 -29q76 0 128 51t66 138l5 32q4 30 4 44z" />
    <glyph glyph-name="thorn" unicode="&#xfe;" horiz-adv-x="561" 
d="M160 640q1 5 1 12q0 10 -4 18.5t-14 18.5l33 29q33 -23 33 -60q0 -6 -2 -22l-42 -238q29 39 73 61t99 22q83 0 127.5 -50t44.5 -131q0 -26 -4 -49l-5 -32q-16 -102 -79 -166t-158 -64q-59 0 -97.5 23t-57.5 61l-51 -292h-49zM386 81q52 51 66 138l5 32q4 30 4 44
q0 67 -34.5 106.5t-97.5 39.5t-105 -29.5t-72 -85.5l-32 -183q9 -55 42 -84t96 -29q76 0 128 51z" />
    <glyph glyph-name="q" unicode="q" horiz-adv-x="542" 
d="M395 73q-28 -37 -73 -60.5t-100 -23.5q-81 0 -125.5 47t-44.5 131q0 28 4 52l5 32q16 105 80.5 167.5t160.5 62.5q58 0 96.5 -22.5t54.5 -58.5l12 70h48l-121 -689h-48zM408 142l33 187q-21 112 -137 112q-75 0 -128.5 -52t-66.5 -138l-5 -32q-4 -21 -4 -46
q0 -68 34 -105.5t98 -37.5q118 0 176 112z" />
    <glyph glyph-name="r" unicode="r" horiz-adv-x="378" 
d="M373.5 477q17.5 -4 27.5 -11l-22 -46q-23 14 -55 14q-64 0 -111.5 -60t-75.5 -142l-41 -232h-49l71 403q1 5 1 13q0 19 -18 36l33 29q18 -12 26 -25.5t8 -32.5q0 -15 -2 -24l-11 -62q33 67 79 105.5t104 38.5q18 0 35.5 -4z" />
    <glyph glyph-name="racute" unicode="&#x155;" horiz-adv-x="378" 
d="M373.5 477q17.5 -4 27.5 -11l-22 -46q-23 14 -55 14q-64 0 -111.5 -60t-75.5 -142l-41 -232h-49l71 403q1 5 1 13q0 19 -18 36l33 29q18 -12 26 -25.5t8 -32.5q0 -15 -2 -24l-11 -62q33 67 79 105.5t104 38.5q18 0 35.5 -4zM330 693h56l-120 -141h-41z" />
    <glyph glyph-name="rcaron" unicode="&#x159;" horiz-adv-x="378" 
d="M373.5 477q17.5 -4 27.5 -11l-22 -46q-23 14 -55 14q-64 0 -111.5 -60t-75.5 -142l-41 -232h-49l71 403q1 5 1 13q0 19 -18 36l33 29q18 -12 26 -25.5t8 -32.5q0 -15 -2 -24l-11 -62q33 67 79 105.5t104 38.5q18 0 35.5 -4zM186 635q-29 43 -56 64h50q21 -19 42.5 -50.5
t29.5 -52.5q14 20 47.5 51.5t62.5 51.5h50q-35 -23 -79.5 -65.5t-71.5 -81.5h-32q-14 40 -43 83z" />
    <glyph glyph-name="uni0157" unicode="&#x157;" horiz-adv-x="378" 
d="M373.5 477q17.5 -4 27.5 -11l-22 -46q-23 14 -55 14q-64 0 -111.5 -60t-75.5 -142l-41 -232h-49l71 403q1 5 1 13q0 19 -18 36l33 29q18 -12 26 -25.5t8 -32.5q0 -15 -2 -24l-11 -62q33 67 79 105.5t104 38.5q18 0 35.5 -4zM85 -84.5q9 -10.5 9 -27.5q0 -34 -24.5 -71.5
t-62.5 -61.5l-15 18q49 33 60 74q-8 -5 -22 -5q-11 0 -18 7t-7 19q0 22 17 40t37 18q17 0 26 -10.5z" />
    <glyph glyph-name="uni1E5B" unicode="&#x1e5b;" horiz-adv-x="378" 
d="M373.5 477q17.5 -4 27.5 -11l-22 -46q-23 14 -55 14q-64 0 -111.5 -60t-75.5 -142l-41 -232h-49l71 403q1 5 1 13q0 19 -18 36l33 29q18 -12 26 -25.5t8 -32.5q0 -15 -2 -24l-11 -62q33 67 79 105.5t104 38.5q18 0 35.5 -4zM20.5 -143.5q-9.5 9.5 -9.5 23.5q0 18 15 32.5
t33 14.5q15 0 24.5 -9.5t9.5 -23.5q0 -18 -14.5 -32.5t-33.5 -14.5q-15 0 -24.5 9.5z" />
    <glyph glyph-name="uni1E5D" unicode="&#x1e5d;" horiz-adv-x="378" 
d="M373.5 477q17.5 -4 27.5 -11l-22 -46q-23 14 -55 14q-64 0 -111.5 -60t-75.5 -142l-41 -232h-49l71 403q1 5 1 13q0 19 -18 36l33 29q18 -12 26 -25.5t8 -32.5q0 -15 -2 -24l-11 -62q33 67 79 105.5t104 38.5q18 0 35.5 -4zM20.5 -143.5q-9.5 9.5 -9.5 23.5q0 18 15 32.5
t33 14.5q15 0 24.5 -9.5t9.5 -23.5q0 -18 -14.5 -32.5t-33.5 -14.5q-15 0 -24.5 9.5zM107 606h293l-7 -40h-293z" />
    <glyph glyph-name="uni1E5F" unicode="&#x1e5f;" horiz-adv-x="378" 
d="M373.5 477q17.5 -4 27.5 -11l-22 -46q-23 14 -55 14q-64 0 -111.5 -60t-75.5 -142l-41 -232h-49l71 403q1 5 1 13q0 19 -18 36l33 29q18 -12 26 -25.5t8 -32.5q0 -15 -2 -24l-11 -62q33 67 79 105.5t104 38.5q18 0 35.5 -4zM-90 -85h293l-7 -41h-293z" />
    <glyph glyph-name="s" unicode="s" horiz-adv-x="447" 
d="M79.5 8.5q-40.5 19.5 -63.5 59.5l36 28q21 -35 51.5 -50.5t77.5 -15.5q70 0 110 29t40 79q0 37 -32 53t-104 29q-56 10 -87 36t-31 72q0 68 50.5 110.5t132.5 42.5q123 0 154 -75l-35 -27q-34 62 -124 62q-58 0 -94.5 -29.5t-36.5 -76.5q0 -32 25 -48t76 -26
q78 -14 116 -39t38 -78q0 -74 -52 -114.5t-146 -40.5q-61 0 -101.5 19.5z" />
    <glyph glyph-name="sacute" unicode="&#x15b;" horiz-adv-x="447" 
d="M79.5 8.5q-40.5 19.5 -63.5 59.5l36 28q21 -35 51.5 -50.5t77.5 -15.5q70 0 110 29t40 79q0 37 -32 53t-104 29q-56 10 -87 36t-31 72q0 68 50.5 110.5t132.5 42.5q123 0 154 -75l-35 -27q-34 62 -124 62q-58 0 -94.5 -29.5t-36.5 -76.5q0 -32 25 -48t76 -26
q78 -14 116 -39t38 -78q0 -74 -52 -114.5t-146 -40.5q-61 0 -101.5 19.5zM366 693h56l-120 -141h-41z" />
    <glyph glyph-name="scaron" unicode="&#x161;" horiz-adv-x="447" 
d="M79.5 8.5q-40.5 19.5 -63.5 59.5l36 28q21 -35 51.5 -50.5t77.5 -15.5q70 0 110 29t40 79q0 37 -32 53t-104 29q-56 10 -87 36t-31 72q0 68 50.5 110.5t132.5 42.5q123 0 154 -75l-35 -27q-34 62 -124 62q-58 0 -94.5 -29.5t-36.5 -76.5q0 -32 25 -48t76 -26
q78 -14 116 -39t38 -78q0 -74 -52 -114.5t-146 -40.5q-61 0 -101.5 19.5zM221 635q-29 43 -56 64h50q21 -19 42.5 -50.5t29.5 -52.5q14 20 47.5 51.5t62.5 51.5h50q-35 -23 -79.5 -65.5t-71.5 -81.5h-32q-14 40 -43 83z" />
    <glyph glyph-name="scedilla" unicode="&#x15f;" horiz-adv-x="447" 
d="M160.5 411.5q-36.5 -29.5 -36.5 -76.5q0 -32 25 -48t76 -26q78 -14 116 -39t38 -78q0 -68 -44.5 -108t-126.5 -46l-19 -41q34 -1 52 -15.5t18 -41.5q0 -39 -29 -59t-83 -20q-46 0 -79 18l14 32q30 -15 67 -15q34 0 50 10t16 32q0 27 -50 27q-7 0 -29 -2l31 74
q-109 4 -151 79l36 28q21 -35 51.5 -50.5t77.5 -15.5q70 0 110 29t40 79q0 37 -32 53t-104 29q-56 10 -87 36t-31 72q0 68 50.5 110.5t132.5 42.5q123 0 154 -75l-35 -27q-34 62 -124 62q-58 0 -94.5 -29.5z" />
    <glyph glyph-name="scircumflex" unicode="&#x15d;" horiz-adv-x="447" 
d="M79.5 8.5q-40.5 19.5 -63.5 59.5l36 28q21 -35 51.5 -50.5t77.5 -15.5q70 0 110 29t40 79q0 37 -32 53t-104 29q-56 10 -87 36t-31 72q0 68 50.5 110.5t132.5 42.5q123 0 154 -75l-35 -27q-34 62 -124 62q-58 0 -94.5 -29.5t-36.5 -76.5q0 -32 25 -48t76 -26
q78 -14 116 -39t38 -78q0 -74 -52 -114.5t-146 -40.5q-61 0 -101.5 19.5zM218.5 617.5q44.5 42.5 71.5 81.5h31q14 -40 43.5 -82.5t56.5 -64.5h-51q-21 19 -42.5 50.5t-29.5 52.5q-12 -19 -46 -51t-63 -52h-51q36 23 80.5 65.5z" />
    <glyph glyph-name="uni0219" unicode="&#x219;" horiz-adv-x="447" 
d="M79.5 8.5q-40.5 19.5 -63.5 59.5l36 28q21 -35 51.5 -50.5t77.5 -15.5q70 0 110 29t40 79q0 37 -32 53t-104 29q-56 10 -87 36t-31 72q0 68 50.5 110.5t132.5 42.5q123 0 154 -75l-35 -27q-34 62 -124 62q-58 0 -94.5 -29.5t-36.5 -76.5q0 -32 25 -48t76 -26
q78 -14 116 -39t38 -78q0 -74 -52 -114.5t-146 -40.5q-61 0 -101.5 19.5zM202 -84.5q9 -10.5 9 -27.5q0 -34 -24.5 -71.5t-62.5 -61.5l-15 18q49 33 60 74q-8 -5 -22 -5q-11 0 -18 7t-7 19q0 22 17 40t37 18q17 0 26 -10.5z" />
    <glyph glyph-name="uni1E61" unicode="&#x1e61;" horiz-adv-x="447" 
d="M79.5 8.5q-40.5 19.5 -63.5 59.5l36 28q21 -35 51.5 -50.5t77.5 -15.5q70 0 110 29t40 79q0 37 -32 53t-104 29q-56 10 -87 36t-31 72q0 68 50.5 110.5t132.5 42.5q123 0 154 -75l-35 -27q-34 62 -124 62q-58 0 -94.5 -29.5t-36.5 -76.5q0 -32 25 -48t76 -26
q78 -14 116 -39t38 -78q0 -74 -52 -114.5t-146 -40.5q-61 0 -101.5 19.5zM256.5 563.5q-9.5 9.5 -9.5 23.5q0 18 14.5 32.5t32.5 14.5q15 0 24.5 -9.5t9.5 -23.5q0 -18 -14.5 -32.5t-32.5 -14.5q-15 0 -24.5 9.5z" />
    <glyph glyph-name="uni1E63" unicode="&#x1e63;" horiz-adv-x="447" 
d="M79.5 8.5q-40.5 19.5 -63.5 59.5l36 28q21 -35 51.5 -50.5t77.5 -15.5q70 0 110 29t40 79q0 37 -32 53t-104 29q-56 10 -87 36t-31 72q0 68 50.5 110.5t132.5 42.5q123 0 154 -75l-35 -27q-34 62 -124 62q-58 0 -94.5 -29.5t-36.5 -76.5q0 -32 25 -48t76 -26
q78 -14 116 -39t38 -78q0 -74 -52 -114.5t-146 -40.5q-61 0 -101.5 19.5zM137.5 -143.5q-9.5 9.5 -9.5 23.5q0 18 15 32.5t33 14.5q15 0 24.5 -9.5t9.5 -23.5q0 -18 -14.5 -32.5t-33.5 -14.5q-15 0 -24.5 9.5z" />
    <glyph glyph-name="germandbls" unicode="&#xdf;" horiz-adv-x="562" 
d="M490 360.5q22 -27.5 22 -66.5q0 -7 -2 -25l-20 -119q-14 -75 -66 -118t-133 -43q-61 0 -110 20l7 42q41 -20 100 -20q64 0 103 31t49 90l21 117q2 12 2 18q0 42 -31.5 66t-84.5 24h-51l7 41h49q64 0 106.5 42t42.5 105q0 47 -33 71.5t-96 24.5q-76 0 -120 -42.5
t-60 -129.5l-86 -489h-49l86 489q18 107 76 160t157 53q83 0 129 -35.5t46 -97.5q0 -60 -33.5 -105t-88.5 -64q39 -12 61 -39.5z" />
    <glyph glyph-name="t" unicode="t" horiz-adv-x="310" 
d="M113 124q-3 -15 -3 -27q0 -32 17.5 -48.5t50.5 -16.5h53l-7 -40h-51q-55 0 -83.5 25.5t-28.5 72.5q0 16 3 34l82 466q1 5 1 13q0 19 -18 36l33 29q18 -11 26 -25t8 -33q0 -15 -2 -24l-20 -116h134l-7 -40h-134z" />
    <glyph glyph-name="tbar" unicode="&#x167;" horiz-adv-x="370" 
d="M224 430l-26 -144h130l-6 -33h-129l-23 -129q-3 -15 -3 -27q0 -32 17.5 -48.5t50.5 -16.5h53l-7 -40h-51q-55 0 -83.5 25.5t-28.5 72.5q0 16 3 34l23 129h-85l6 33h85l53 304q1 5 1 13q0 19 -18 36l33 29q18 -11 26 -25t8 -33q0 -15 -2 -24l-20 -116h134l-7 -40h-134z
" />
    <glyph glyph-name="tcaron" unicode="&#x165;" horiz-adv-x="315" 
d="M113 124q-3 -15 -3 -27q0 -32 17.5 -48.5t50.5 -16.5h53l-7 -40h-51q-55 0 -83.5 25.5t-28.5 72.5q0 16 3 34l82 466q1 5 1 13q0 19 -18 36l33 29q18 -11 26 -25t8 -33q0 -15 -2 -24l-20 -116h134l-7 -40h-134zM362.5 717.5q8.5 -10.5 8.5 -27.5q0 -35 -24.5 -74.5
t-64.5 -66.5l-14 18q50 38 61 82q-8 -5 -21 -5q-12 0 -18.5 7t-6.5 20q0 22 17 39.5t37 17.5q17 0 25.5 -10.5z" />
    <glyph glyph-name="uni0163" unicode="&#x163;" horiz-adv-x="310" 
d="M113 124q-3 -15 -3 -27q0 -32 17.5 -48.5t50.5 -16.5h53l-7 -40h-51h-11l-20 -43q34 -1 52 -15.5t18 -41.5q0 -39 -29 -59t-83 -20q-46 0 -79 18l14 32q30 -15 67 -15q34 0 50 10t16 32q0 27 -50 27q-7 0 -29 -2l35 84q-63 19 -63 91q0 16 3 34l82 466q1 5 1 13
q0 19 -18 36l33 29q18 -11 26 -25t8 -33q0 -15 -2 -24l-20 -116h134l-7 -40h-134z" />
    <glyph glyph-name="uni021B" unicode="&#x21b;" horiz-adv-x="310" 
d="M113 124q-3 -15 -3 -27q0 -32 17.5 -48.5t50.5 -16.5h53l-7 -40h-51q-55 0 -83.5 25.5t-28.5 72.5q0 16 3 34l82 466q1 5 1 13q0 19 -18 36l33 29q18 -11 26 -25t8 -33q0 -15 -2 -24l-20 -116h134l-7 -40h-134zM155 -84.5q9 -10.5 9 -27.5q0 -34 -24.5 -71.5t-62.5 -61.5
l-15 18q49 33 60 74q-8 -5 -22 -5q-11 0 -18 7t-7 19q0 22 17 40t37 18q17 0 26 -10.5z" />
    <glyph glyph-name="uni1E97" unicode="&#x1e97;" horiz-adv-x="310" 
d="M113 124q-3 -15 -3 -27q0 -32 17.5 -48.5t50.5 -16.5h53l-7 -40h-51q-55 0 -83.5 25.5t-28.5 72.5q0 16 3 34l82 466q1 5 1 13q0 19 -18 36l33 29q18 -11 26 -25t8 -33q0 -15 -2 -24l-20 -116h134l-7 -40h-134zM96 726.5q-8 8.5 -8 20.5q0 17 12.5 29.5t29.5 12.5
q13 0 21 -8.5t8 -21.5q0 -16 -13 -28.5t-29 -12.5q-13 0 -21 8.5zM254.5 726.5q-8.5 8.5 -8.5 20.5q0 16 13 29t30 13q12 0 20.5 -9t8.5 -21q0 -16 -13 -28.5t-29 -12.5q-13 0 -21.5 8.5z" />
    <glyph glyph-name="uni1E6D" unicode="&#x1e6d;" horiz-adv-x="310" 
d="M113 124q-3 -15 -3 -27q0 -32 17.5 -48.5t50.5 -16.5h53l-7 -40h-51q-55 0 -83.5 25.5t-28.5 72.5q0 16 3 34l82 466q1 5 1 13q0 19 -18 36l33 29q18 -11 26 -25t8 -33q0 -15 -2 -24l-20 -116h134l-7 -40h-134zM90.5 -143.5q-9.5 9.5 -9.5 23.5q0 18 15 32.5t33 14.5
q15 0 24.5 -9.5t9.5 -23.5q0 -18 -14.5 -32.5t-33.5 -14.5q-15 0 -24.5 9.5z" />
    <glyph glyph-name="uni1E6F" unicode="&#x1e6f;" horiz-adv-x="310" 
d="M113 124q-3 -15 -3 -27q0 -32 17.5 -48.5t50.5 -16.5h53l-7 -40h-51q-55 0 -83.5 25.5t-28.5 72.5q0 16 3 34l82 466q1 5 1 13q0 19 -18 36l33 29q18 -11 26 -25t8 -33q0 -15 -2 -24l-20 -116h134l-7 -40h-134zM-20 -85h293l-7 -41h-293z" />
    <glyph glyph-name="u" unicode="u" horiz-adv-x="547" 
d="M426 57q0 -11 4.5 -19.5t15.5 -18.5l-33 -30q-36 27 -36 65q0 6 2 18l6 36q-32 -53 -80 -86t-112 -33q-62 0 -97 33t-35 94q0 21 4 41l56 313h48l-55 -311q-3 -19 -3 -35q0 -46 24 -70t70 -24q72 0 122.5 52t75.5 123l47 265h48l-71 -402q-1 -4 -1 -11z" />
    <glyph glyph-name="uacute" unicode="&#xfa;" horiz-adv-x="547" 
d="M426 57q0 -11 4.5 -19.5t15.5 -18.5l-33 -30q-36 27 -36 65q0 6 2 18l6 36q-32 -53 -80 -86t-112 -33q-62 0 -97 33t-35 94q0 21 4 41l56 313h48l-55 -311q-3 -19 -3 -35q0 -46 24 -70t70 -24q72 0 122.5 52t75.5 123l47 265h48l-71 -402q-1 -4 -1 -11zM409 693h56
l-120 -141h-41z" />
    <glyph glyph-name="ubreve" unicode="&#x16d;" horiz-adv-x="547" 
d="M426 57q0 -11 4.5 -19.5t15.5 -18.5l-33 -30q-36 27 -36 65q0 6 2 18l6 36q-32 -53 -80 -86t-112 -33q-62 0 -97 33t-35 94q0 21 4 41l56 313h48l-55 -311q-3 -19 -3 -35q0 -46 24 -70t70 -24q72 0 122.5 52t75.5 123l47 265h48l-71 -402q-1 -4 -1 -11zM236 576
q-33 29 -33 78q0 13 3 28h36l-1 -14q0 -39 23 -60.5t65 -21.5q45 0 77 25.5t43 70.5h37q-11 -62 -54 -98.5t-107 -36.5q-56 0 -89 29z" />
    <glyph glyph-name="uni01D4" unicode="&#x1d4;" horiz-adv-x="547" 
d="M426 57q0 -11 4.5 -19.5t15.5 -18.5l-33 -30q-36 27 -36 65q0 6 2 18l6 36q-32 -53 -80 -86t-112 -33q-62 0 -97 33t-35 94q0 21 4 41l56 313h48l-55 -311q-3 -19 -3 -35q0 -46 24 -70t70 -24q72 0 122.5 52t75.5 123l47 265h48l-71 -402q-1 -4 -1 -11zM265 635
q-29 43 -56 64h50q21 -19 42.5 -50.5t29.5 -52.5q14 20 47.5 51.5t62.5 51.5h50q-35 -23 -79.5 -65.5t-71.5 -81.5h-32q-14 40 -43 83z" />
    <glyph glyph-name="ucircumflex" unicode="&#xfb;" horiz-adv-x="547" 
d="M426 57q0 -11 4.5 -19.5t15.5 -18.5l-33 -30q-36 27 -36 65q0 6 2 18l6 36q-32 -53 -80 -86t-112 -33q-62 0 -97 33t-35 94q0 21 4 41l56 313h48l-55 -311q-3 -19 -3 -35q0 -46 24 -70t70 -24q72 0 122.5 52t75.5 123l47 265h48l-71 -402q-1 -4 -1 -11zM261.5 617.5
q44.5 42.5 71.5 81.5h31q14 -40 43.5 -82.5t56.5 -64.5h-51q-21 19 -42.5 50.5t-29.5 52.5q-12 -19 -46 -51t-63 -52h-51q36 23 80.5 65.5z" />
    <glyph glyph-name="udieresis" unicode="&#xfc;" horiz-adv-x="547" 
d="M426 57q0 -11 4.5 -19.5t15.5 -18.5l-33 -30q-36 27 -36 65q0 6 2 18l6 36q-32 -53 -80 -86t-112 -33q-62 0 -97 33t-35 94q0 21 4 41l56 313h48l-55 -311q-3 -19 -3 -35q0 -46 24 -70t70 -24q72 0 122.5 52t75.5 123l47 265h48l-71 -402q-1 -4 -1 -11zM223 563.5
q-8 8.5 -8 20.5q0 17 12.5 29.5t29.5 12.5q13 0 21 -8.5t8 -21.5q0 -16 -13 -28.5t-29 -12.5q-13 0 -21 8.5zM381.5 563.5q-8.5 8.5 -8.5 20.5q0 16 13 29t30 13q12 0 20.5 -9t8.5 -21q0 -16 -13 -28.5t-29 -12.5q-13 0 -21.5 8.5z" />
    <glyph glyph-name="uni01D8" unicode="&#x1d8;" horiz-adv-x="547" 
d="M426 57q0 -11 4.5 -19.5t15.5 -18.5l-33 -30q-36 27 -36 65q0 6 2 18l6 36q-32 -53 -80 -86t-112 -33q-62 0 -97 33t-35 94q0 21 4 41l56 313h48l-55 -311q-3 -19 -3 -35q0 -46 24 -70t70 -24q72 0 122.5 52t75.5 123l47 265h48l-71 -402q-1 -4 -1 -11zM403 791h56
l-91 -104h-41zM223 563.5q-8 8.5 -8 20.5q0 17 13 29.5t29 12.5q13 0 21 -8.5t8 -21.5q0 -16 -13 -28.5t-29 -12.5q-13 0 -21 8.5zM381.5 563.5q-8.5 8.5 -8.5 20.5q0 16 13 29t30 13q12 0 20.5 -9t8.5 -21q0 -16 -13 -28.5t-29 -12.5q-13 0 -21.5 8.5z" />
    <glyph glyph-name="uni01DA" unicode="&#x1da;" horiz-adv-x="547" 
d="M426 57q0 -11 4.5 -19.5t15.5 -18.5l-33 -30q-36 27 -36 65q0 6 2 18l6 36q-32 -53 -80 -86t-112 -33q-62 0 -97 33t-35 94q0 21 4 41l56 313h48l-55 -311q-3 -19 -3 -35q0 -46 24 -70t70 -24q72 0 122.5 52t75.5 123l47 265h48l-71 -402q-1 -4 -1 -11zM287.5 745
q-28.5 35 -54.5 53h46q21 -16 43 -43t27 -41q9 14 41 41t58 43h49q-33 -18 -73.5 -53t-64.5 -67h-30q-13 32 -41.5 67zM223 563.5q-8 8.5 -8 20.5q0 17 13 29.5t29 12.5q13 0 21 -8.5t8 -21.5q0 -16 -13 -28.5t-29 -12.5q-13 0 -21 8.5zM381.5 563.5q-8.5 8.5 -8.5 20.5
q0 16 13 29t30 13q12 0 20.5 -9t8.5 -21q0 -16 -13 -28.5t-29 -12.5q-13 0 -21.5 8.5z" />
    <glyph glyph-name="uni01DC" unicode="&#x1dc;" horiz-adv-x="547" 
d="M426 57q0 -11 4.5 -19.5t15.5 -18.5l-33 -30q-36 27 -36 65q0 6 2 18l6 36q-32 -53 -80 -86t-112 -33q-62 0 -97 33t-35 94q0 21 4 41l56 313h48l-55 -311q-3 -19 -3 -35q0 -46 24 -70t70 -24q72 0 122.5 52t75.5 123l47 265h48l-71 -402q-1 -4 -1 -11zM265 790h56
l40 -104h-41zM223 563.5q-8 8.5 -8 20.5q0 17 13 29.5t29 12.5q13 0 21 -8.5t8 -21.5q0 -16 -13 -28.5t-29 -12.5q-13 0 -21 8.5zM381.5 563.5q-8.5 8.5 -8.5 20.5q0 16 13 29t30 13q12 0 20.5 -9t8.5 -21q0 -16 -13 -28.5t-29 -12.5q-13 0 -21.5 8.5z" />
    <glyph glyph-name="uni01D6" unicode="&#x1d6;" horiz-adv-x="547" 
d="M426 57q0 -11 4.5 -19.5t15.5 -18.5l-33 -30q-36 27 -36 65q0 6 2 18l6 36q-32 -53 -80 -86t-112 -33q-62 0 -97 33t-35 94q0 21 4 41l56 313h48l-55 -311q-3 -19 -3 -35q0 -46 24 -70t70 -24q72 0 122.5 52t75.5 123l47 265h48l-71 -402q-1 -4 -1 -11zM209 736h293
l-7 -40h-293zM223 563.5q-8 8.5 -8 20.5q0 17 13 29.5t29 12.5q13 0 21 -8.5t8 -21.5q0 -16 -13 -28.5t-29 -12.5q-13 0 -21 8.5zM381.5 563.5q-8.5 8.5 -8.5 20.5q0 16 13 29t30 13q12 0 20.5 -9t8.5 -21q0 -16 -13 -28.5t-29 -12.5q-13 0 -21.5 8.5z" />
    <glyph glyph-name="uni1EE5" unicode="&#x1ee5;" horiz-adv-x="547" 
d="M426 57q0 -11 4.5 -19.5t15.5 -18.5l-33 -30q-36 27 -36 65q0 6 2 18l6 36q-32 -53 -80 -86t-112 -33q-62 0 -97 33t-35 94q0 21 4 41l56 313h48l-55 -311q-3 -19 -3 -35q0 -46 24 -70t70 -24q72 0 122.5 52t75.5 123l47 265h48l-71 -402q-1 -4 -1 -11zM176.5 -143.5
q-9.5 9.5 -9.5 23.5q0 18 15 32.5t33 14.5q15 0 24.5 -9.5t9.5 -23.5q0 -18 -14.5 -32.5t-33.5 -14.5q-15 0 -24.5 9.5z" />
    <glyph glyph-name="ugrave" unicode="&#xf9;" horiz-adv-x="547" 
d="M426 57q0 -11 4.5 -19.5t15.5 -18.5l-33 -30q-36 27 -36 65q0 6 2 18l6 36q-32 -53 -80 -86t-112 -33q-62 0 -97 33t-35 94q0 21 4 41l56 313h48l-55 -311q-3 -19 -3 -35q0 -46 24 -70t70 -24q72 0 122.5 52t75.5 123l47 265h48l-71 -402q-1 -4 -1 -11zM227 693h56
l56 -141h-42z" />
    <glyph glyph-name="uni1EE7" unicode="&#x1ee7;" horiz-adv-x="547" 
d="M426 57q0 -11 4.5 -19.5t15.5 -18.5l-33 -30q-36 27 -36 65q0 6 2 18l6 36q-32 -53 -80 -86t-112 -33q-62 0 -97 33t-35 94q0 21 4 41l56 313h48l-55 -311q-3 -19 -3 -35q0 -46 24 -70t70 -24q72 0 122.5 52t75.5 123l47 265h48l-71 -402q-1 -4 -1 -11zM347 590l-6 -38
h-41l11 61q41 6 60 18t19 38q0 31 -40 31q-25 0 -49 -8l-3 32q30 11 61 11q33 0 54 -14.5t21 -43.5q0 -70 -87 -87z" />
    <glyph glyph-name="uhorn" unicode="&#x1b0;" horiz-adv-x="553" 
d="M427 68q-1 -4 -1 -11q0 -11 4.5 -19.5t15.5 -18.5l-33 -30q-36 27 -36 65q0 6 2 18l6 36q-32 -53 -80 -86t-112 -33q-62 0 -97 33t-35 94q0 21 4 41l56 313h48l-55 -311q-3 -19 -3 -35q0 -46 24 -70t70 -24q72 0 122.5 52t75.5 123l47 265h48l-15 -86q39 7 62 38t33 94
h48q-16 -82 -51.5 -120.5t-97.5 -43.5z" />
    <glyph glyph-name="uni1EE9" unicode="&#x1ee9;" horiz-adv-x="553" 
d="M427 68q-1 -4 -1 -11q0 -11 4.5 -19.5t15.5 -18.5l-33 -30q-36 27 -36 65q0 6 2 18l6 36q-32 -53 -80 -86t-112 -33q-62 0 -97 33t-35 94q0 21 4 41l56 313h48l-55 -311q-3 -19 -3 -35q0 -46 24 -70t70 -24q72 0 122.5 52t75.5 123l47 265h48l-15 -86q39 7 62 38t33 94
h48q-16 -82 -51.5 -120.5t-97.5 -43.5zM409 693h56l-120 -141h-41z" />
    <glyph glyph-name="uni1EF1" unicode="&#x1ef1;" horiz-adv-x="553" 
d="M427 68q-1 -4 -1 -11q0 -11 4.5 -19.5t15.5 -18.5l-33 -30q-36 27 -36 65q0 6 2 18l6 36q-32 -53 -80 -86t-112 -33q-62 0 -97 33t-35 94q0 21 4 41l56 313h48l-55 -311q-3 -19 -3 -35q0 -46 24 -70t70 -24q72 0 122.5 52t75.5 123l47 265h48l-15 -86q39 7 62 38t33 94
h48q-16 -82 -51.5 -120.5t-97.5 -43.5zM176.5 -143.5q-9.5 9.5 -9.5 23.5q0 18 15 32.5t33 14.5q15 0 24.5 -9.5t9.5 -23.5q0 -18 -14.5 -32.5t-33.5 -14.5q-15 0 -24.5 9.5z" />
    <glyph glyph-name="uni1EEB" unicode="&#x1eeb;" horiz-adv-x="553" 
d="M427 68q-1 -4 -1 -11q0 -11 4.5 -19.5t15.5 -18.5l-33 -30q-36 27 -36 65q0 6 2 18l6 36q-32 -53 -80 -86t-112 -33q-62 0 -97 33t-35 94q0 21 4 41l56 313h48l-55 -311q-3 -19 -3 -35q0 -46 24 -70t70 -24q72 0 122.5 52t75.5 123l47 265h48l-15 -86q39 7 62 38t33 94
h48q-16 -82 -51.5 -120.5t-97.5 -43.5zM227 693h56l56 -141h-42z" />
    <glyph glyph-name="uni1EED" unicode="&#x1eed;" horiz-adv-x="553" 
d="M427 68q-1 -4 -1 -11q0 -11 4.5 -19.5t15.5 -18.5l-33 -30q-36 27 -36 65q0 6 2 18l6 36q-32 -53 -80 -86t-112 -33q-62 0 -97 33t-35 94q0 21 4 41l56 313h48l-55 -311q-3 -19 -3 -35q0 -46 24 -70t70 -24q72 0 122.5 52t75.5 123l47 265h48l-15 -86q39 7 62 38t33 94
h48q-16 -82 -51.5 -120.5t-97.5 -43.5zM347 590l-6 -38h-41l11 61q41 6 60 18t19 38q0 31 -40 31q-25 0 -49 -8l-3 32q30 11 61 11q33 0 54 -14.5t21 -43.5q0 -70 -87 -87z" />
    <glyph glyph-name="uni1EEF" unicode="&#x1eef;" horiz-adv-x="553" 
d="M427 68q-1 -4 -1 -11q0 -11 4.5 -19.5t15.5 -18.5l-33 -30q-36 27 -36 65q0 6 2 18l6 36q-32 -53 -80 -86t-112 -33q-62 0 -97 33t-35 94q0 21 4 41l56 313h48l-55 -311q-3 -19 -3 -35q0 -46 24 -70t70 -24q72 0 122.5 52t75.5 123l47 265h48l-15 -86q39 7 62 38t33 94
h48q-16 -82 -51.5 -120.5t-97.5 -43.5zM210.5 621.5q25.5 26.5 65.5 26.5q20 0 35 -6.5t35 -19.5q17 -11 27.5 -16t22.5 -5q22 0 34.5 11.5t22.5 37.5h35q-9 -38 -34.5 -64t-63.5 -26q-20 0 -35 6.5t-35 19.5q-17 11 -27.5 16t-22.5 5q-23 0 -36 -12.5t-24 -39.5h-35
q10 40 35.5 66.5z" />
    <glyph glyph-name="uhungarumlaut" unicode="&#x171;" horiz-adv-x="547" 
d="M426 57q0 -11 4.5 -19.5t15.5 -18.5l-33 -30q-36 27 -36 65q0 6 2 18l6 36q-32 -53 -80 -86t-112 -33q-62 0 -97 33t-35 94q0 21 4 41l56 313h48l-55 -311q-3 -19 -3 -35q0 -46 24 -70t70 -24q72 0 122.5 52t75.5 123l47 265h48l-71 -402q-1 -4 -1 -11zM323 693h53
l-107 -141h-40zM465 693h52l-107 -141h-40z" />
    <glyph glyph-name="umacron" unicode="&#x16b;" horiz-adv-x="547" 
d="M426 57q0 -11 4.5 -19.5t15.5 -18.5l-33 -30q-36 27 -36 65q0 6 2 18l6 36q-32 -53 -80 -86t-112 -33q-62 0 -97 33t-35 94q0 21 4 41l56 313h48l-55 -311q-3 -19 -3 -35q0 -46 24 -70t70 -24q72 0 122.5 52t75.5 123l47 265h48l-71 -402q-1 -4 -1 -11zM186 606h293
l-7 -40h-293z" />
    <glyph glyph-name="uogonek" unicode="&#x173;" horiz-adv-x="547" 
d="M460 -140l4 -32q-33 -18 -71 -18q-42 0 -60.5 18.5t-18.5 44.5q0 33 22.5 69t56.5 66q-15 18 -15 46q0 11 1 18l6 36q-32 -53 -80 -86t-112 -33q-62 0 -97 33t-35 94q0 21 4 41l56 313h48l-55 -311q-3 -19 -3 -35q0 -46 24 -70t70 -24q72 0 122.5 52t75.5 123l47 265h48
l-71 -402q-1 -4 -1 -11q0 -11 4.5 -19.5t15.5 -18.5l-24 -22q-28 -33 -45 -61t-17 -54q0 -18 12 -27t31 -9q22 0 57 14z" />
    <glyph glyph-name="uring" unicode="&#x16f;" horiz-adv-x="547" 
d="M426 57q0 -11 4.5 -19.5t15.5 -18.5l-33 -30q-36 27 -36 65q0 6 2 18l6 36q-32 -53 -80 -86t-112 -33q-62 0 -97 33t-35 94q0 21 4 41l56 313h48l-55 -311q-3 -19 -3 -35q0 -46 24 -70t70 -24q72 0 122.5 52t75.5 123l47 265h48l-71 -402q-1 -4 -1 -11zM264.5 559.5
q-20.5 19.5 -20.5 51.5q0 45 30.5 74.5t76.5 29.5q36 0 56.5 -19.5t20.5 -51.5q0 -45 -30 -74.5t-77 -29.5q-36 0 -56.5 19.5zM374 590q19 20 19 51q0 20 -12.5 32t-34.5 12q-29 0 -48 -20t-19 -51q0 -21 12.5 -32.5t34.5 -11.5q29 0 48 20z" />
    <glyph glyph-name="utilde" unicode="&#x169;" horiz-adv-x="547" 
d="M426 57q0 -11 4.5 -19.5t15.5 -18.5l-33 -30q-36 27 -36 65q0 6 2 18l6 36q-32 -53 -80 -86t-112 -33q-62 0 -97 33t-35 94q0 21 4 41l56 313h48l-55 -311q-3 -19 -3 -35q0 -46 24 -70t70 -24q72 0 122.5 52t75.5 123l47 265h48l-71 -402q-1 -4 -1 -11zM210.5 621.5
q25.5 26.5 65.5 26.5q20 0 35 -6.5t35 -19.5q17 -11 27.5 -16t22.5 -5q22 0 34.5 11.5t22.5 37.5h35q-9 -38 -34.5 -64t-63.5 -26q-20 0 -35 6.5t-35 19.5q-17 11 -27.5 16t-22.5 5q-23 0 -36 -12.5t-24 -39.5h-35q10 40 35.5 66.5z" />
    <glyph glyph-name="v" unicode="v" horiz-adv-x="453" 
d="M147.5 -1q-14.5 10 -22.5 33t-14 66l-47 372h47l47 -370q5 -42 10.5 -56t21.5 -14t26 14t31 56l177 370h47l-178 -372q-30 -62 -51.5 -85.5t-54.5 -23.5q-25 0 -39.5 10z" />
    <glyph glyph-name="w" unicode="w" horiz-adv-x="638" 
d="M69 470h45l22 -428q26 4 42 34l174 348l52 -348q3 -17 10 -24.5t21 -8.5l172 427h45l-191 -470h-22q-31 0 -49.5 15.5t-22.5 44.5l-35 249l-124 -252q-16 -32 -38 -44.5t-54 -12.5h-22z" />
    <glyph glyph-name="wacute" unicode="&#x1e83;" horiz-adv-x="638" 
d="M69 470h45l22 -428q26 4 42 34l174 348l52 -348q3 -17 10 -24.5t21 -8.5l172 427h45l-191 -470h-22q-31 0 -49.5 15.5t-22.5 44.5l-35 249l-124 -252q-16 -32 -38 -44.5t-54 -12.5h-22zM460 693h56l-120 -141h-41z" />
    <glyph glyph-name="wcircumflex" unicode="&#x175;" horiz-adv-x="638" 
d="M69 470h45l22 -428q26 4 42 34l174 348l52 -348q3 -17 10 -24.5t21 -8.5l172 427h45l-191 -470h-22q-31 0 -49.5 15.5t-22.5 44.5l-35 249l-124 -252q-16 -32 -38 -44.5t-54 -12.5h-22zM312.5 617.5q44.5 42.5 71.5 81.5h31q14 -40 43.5 -82.5t56.5 -64.5h-51
q-21 19 -42.5 50.5t-29.5 52.5q-12 -19 -46 -51t-63 -52h-51q36 23 80.5 65.5z" />
    <glyph glyph-name="wdieresis" unicode="&#x1e85;" horiz-adv-x="638" 
d="M69 470h45l22 -428q26 4 42 34l174 348l52 -348q3 -17 10 -24.5t21 -8.5l172 427h45l-191 -470h-22q-31 0 -49.5 15.5t-22.5 44.5l-35 249l-124 -252q-16 -32 -38 -44.5t-54 -12.5h-22zM274 563.5q-8 8.5 -8 20.5q0 17 12.5 29.5t29.5 12.5q13 0 21 -8.5t8 -21.5
q0 -16 -13 -28.5t-29 -12.5q-13 0 -21 8.5zM432.5 563.5q-8.5 8.5 -8.5 20.5q0 16 13 29t30 13q12 0 20.5 -9t8.5 -21q0 -16 -13 -28.5t-29 -12.5q-13 0 -21.5 8.5z" />
    <glyph glyph-name="wgrave" unicode="&#x1e81;" horiz-adv-x="638" 
d="M69 470h45l22 -428q26 4 42 34l174 348l52 -348q3 -17 10 -24.5t21 -8.5l172 427h45l-191 -470h-22q-31 0 -49.5 15.5t-22.5 44.5l-35 249l-124 -252q-16 -32 -38 -44.5t-54 -12.5h-22zM278 693h56l56 -141h-42z" />
    <glyph glyph-name="x" unicode="x" horiz-adv-x="431" 
d="M245 236l123 -236h-52l-106 205l-176 -205h-53l210 242l-118 228h51l102 -196l169 196h52z" />
    <glyph glyph-name="y" unicode="y" horiz-adv-x="528" 
d="M500 471l-94 -536q-13 -78 -62 -118t-129 -40h-118l7 40h118q56 0 90.5 30.5t44.5 88.5l27 152q-32 -45 -77.5 -72t-104.5 -27q-66 0 -101 33t-35 93q0 22 4 42l43 246q1 4 1 12q0 10 -4 18.5t-14 18.5l33 29q18 -11 26 -25t8 -33q0 -15 -2 -24l-42 -239q-4 -28 -4 -38
q0 -45 24.5 -68.5t72.5 -23.5q64 0 114 40.5t73 102.5l53 298h48z" />
    <glyph glyph-name="yacute" unicode="&#xfd;" horiz-adv-x="528" 
d="M500 471l-94 -536q-13 -78 -62 -118t-129 -40h-118l7 40h118q56 0 90.5 30.5t44.5 88.5l27 152q-32 -45 -77.5 -72t-104.5 -27q-66 0 -101 33t-35 93q0 22 4 42l43 246q1 4 1 12q0 10 -4 18.5t-14 18.5l33 29q18 -11 26 -25t8 -33q0 -15 -2 -24l-42 -239q-4 -28 -4 -38
q0 -45 24.5 -68.5t72.5 -23.5q64 0 114 40.5t73 102.5l53 298h48zM404 693h56l-120 -141h-41z" />
    <glyph glyph-name="ycircumflex" unicode="&#x177;" horiz-adv-x="528" 
d="M500 471l-94 -536q-13 -78 -62 -118t-129 -40h-118l7 40h118q56 0 90.5 30.5t44.5 88.5l27 152q-32 -45 -77.5 -72t-104.5 -27q-66 0 -101 33t-35 93q0 22 4 42l43 246q1 4 1 12q0 10 -4 18.5t-14 18.5l33 29q18 -11 26 -25t8 -33q0 -15 -2 -24l-42 -239q-4 -28 -4 -38
q0 -45 24.5 -68.5t72.5 -23.5q64 0 114 40.5t73 102.5l53 298h48zM256.5 617.5q44.5 42.5 71.5 81.5h31q14 -40 43.5 -82.5t56.5 -64.5h-51q-21 19 -42.5 50.5t-29.5 52.5q-12 -19 -46 -51t-63 -52h-51q36 23 80.5 65.5z" />
    <glyph glyph-name="ydieresis" unicode="&#xff;" horiz-adv-x="528" 
d="M500 471l-94 -536q-13 -78 -62 -118t-129 -40h-118l7 40h118q56 0 90.5 30.5t44.5 88.5l27 152q-32 -45 -77.5 -72t-104.5 -27q-66 0 -101 33t-35 93q0 22 4 42l43 246q1 4 1 12q0 10 -4 18.5t-14 18.5l33 29q18 -11 26 -25t8 -33q0 -15 -2 -24l-42 -239q-4 -28 -4 -38
q0 -45 24.5 -68.5t72.5 -23.5q64 0 114 40.5t73 102.5l53 298h48zM218 563.5q-8 8.5 -8 20.5q0 17 12.5 29.5t29.5 12.5q13 0 21 -8.5t8 -21.5q0 -16 -13 -28.5t-29 -12.5q-13 0 -21 8.5zM376.5 563.5q-8.5 8.5 -8.5 20.5q0 16 13 29t30 13q12 0 20.5 -9t8.5 -21
q0 -16 -13 -28.5t-29 -12.5q-13 0 -21.5 8.5z" />
    <glyph glyph-name="uni1E8F" unicode="&#x1e8f;" horiz-adv-x="528" 
d="M500 471l-94 -536q-13 -78 -62 -118t-129 -40h-118l7 40h118q56 0 90.5 30.5t44.5 88.5l27 152q-32 -45 -77.5 -72t-104.5 -27q-66 0 -101 33t-35 93q0 22 4 42l43 246q1 4 1 12q0 10 -4 18.5t-14 18.5l33 29q18 -11 26 -25t8 -33q0 -15 -2 -24l-42 -239q-4 -28 -4 -38
q0 -45 24.5 -68.5t72.5 -23.5q64 0 114 40.5t73 102.5l53 298h48zM294.5 563.5q-9.5 9.5 -9.5 23.5q0 18 14.5 32.5t32.5 14.5q15 0 24.5 -9.5t9.5 -23.5q0 -18 -14.5 -32.5t-32.5 -14.5q-15 0 -24.5 9.5z" />
    <glyph glyph-name="uni1EF5" unicode="&#x1ef5;" horiz-adv-x="528" 
d="M500 471l-94 -536q-13 -78 -62 -118t-129 -40h-118l7 40h118q56 0 90.5 30.5t44.5 88.5l27 152q-32 -45 -77.5 -72t-104.5 -27q-66 0 -101 33t-35 93q0 22 4 42l43 246q1 4 1 12q0 10 -4 18.5t-14 18.5l33 29q18 -11 26 -25t8 -33q0 -15 -2 -24l-42 -239q-4 -28 -4 -38
q0 -45 24.5 -68.5t72.5 -23.5q64 0 114 40.5t73 102.5l53 298h48zM149.5 -365.5q-9.5 9.5 -9.5 23.5q0 18 15 32.5t33 14.5q15 0 24.5 -9.5t9.5 -23.5q0 -18 -14.5 -32.5t-33.5 -14.5q-15 0 -24.5 9.5z" />
    <glyph glyph-name="ygrave" unicode="&#x1ef3;" horiz-adv-x="528" 
d="M500 471l-94 -536q-13 -78 -62 -118t-129 -40h-118l7 40h118q56 0 90.5 30.5t44.5 88.5l27 152q-32 -45 -77.5 -72t-104.5 -27q-66 0 -101 33t-35 93q0 22 4 42l43 246q1 4 1 12q0 10 -4 18.5t-14 18.5l33 29q18 -11 26 -25t8 -33q0 -15 -2 -24l-42 -239q-4 -28 -4 -38
q0 -45 24.5 -68.5t72.5 -23.5q64 0 114 40.5t73 102.5l53 298h48zM222 693h56l56 -141h-42z" />
    <glyph glyph-name="uni1EF7" unicode="&#x1ef7;" horiz-adv-x="528" 
d="M500 471l-94 -536q-13 -78 -62 -118t-129 -40h-118l7 40h118q56 0 90.5 30.5t44.5 88.5l27 152q-32 -45 -77.5 -72t-104.5 -27q-66 0 -101 33t-35 93q0 22 4 42l43 246q1 4 1 12q0 10 -4 18.5t-14 18.5l33 29q18 -11 26 -25t8 -33q0 -15 -2 -24l-42 -239q-4 -28 -4 -38
q0 -45 24.5 -68.5t72.5 -23.5q64 0 114 40.5t73 102.5l53 298h48zM342 590l-6 -38h-41l11 61q41 6 60 18t19 38q0 31 -40 31q-25 0 -49 -8l-3 32q30 11 61 11q33 0 54 -14.5t21 -43.5q0 -70 -87 -87z" />
    <glyph glyph-name="uni1EF9" unicode="&#x1ef9;" horiz-adv-x="528" 
d="M500 471l-94 -536q-13 -78 -62 -118t-129 -40h-118l7 40h118q56 0 90.5 30.5t44.5 88.5l27 152q-32 -45 -77.5 -72t-104.5 -27q-66 0 -101 33t-35 93q0 22 4 42l43 246q1 4 1 12q0 10 -4 18.5t-14 18.5l33 29q18 -11 26 -25t8 -33q0 -15 -2 -24l-42 -239q-4 -28 -4 -38
q0 -45 24.5 -68.5t72.5 -23.5q64 0 114 40.5t73 102.5l53 298h48zM205.5 621.5q25.5 26.5 65.5 26.5q20 0 35 -6.5t35 -19.5q17 -11 27.5 -16t22.5 -5q22 0 34.5 11.5t22.5 37.5h35q-9 -38 -34.5 -64t-63.5 -26q-20 0 -35 6.5t-35 19.5q-17 11 -27.5 16t-22.5 5
q-23 0 -36 -12.5t-24 -39.5h-35q10 40 35.5 66.5z" />
    <glyph glyph-name="z" unicode="z" horiz-adv-x="454" 
d="M59 64q-2 -11 5.5 -17.5t24.5 -6.5h293l-6 -40h-296q-69 0 -69 45q0 9 1 13l4 22l369 351h-298l8 39h356l-7 -37l-384 -364z" />
    <glyph glyph-name="zacute" unicode="&#x17a;" horiz-adv-x="454" 
d="M59 64q-2 -11 5.5 -17.5t24.5 -6.5h293l-6 -40h-296q-69 0 -69 45q0 9 1 13l4 22l369 351h-298l8 39h356l-7 -37l-384 -364zM373 693h56l-120 -141h-41z" />
    <glyph glyph-name="zcaron" unicode="&#x17e;" horiz-adv-x="454" 
d="M59 64q-2 -11 5.5 -17.5t24.5 -6.5h293l-6 -40h-296q-69 0 -69 45q0 9 1 13l4 22l369 351h-298l8 39h356l-7 -37l-384 -364zM228 635q-29 43 -56 64h50q21 -19 42.5 -50.5t29.5 -52.5q14 20 47.5 51.5t62.5 51.5h50q-35 -23 -79.5 -65.5t-71.5 -81.5h-32q-14 40 -43 83z
" />
    <glyph glyph-name="zdotaccent" unicode="&#x17c;" horiz-adv-x="454" 
d="M59 64q-2 -11 5.5 -17.5t24.5 -6.5h293l-6 -40h-296q-69 0 -69 45q0 9 1 13l4 22l369 351h-298l8 39h356l-7 -37l-384 -364zM263.5 563.5q-9.5 9.5 -9.5 23.5q0 18 14.5 32.5t32.5 14.5q15 0 24.5 -9.5t9.5 -23.5q0 -18 -14.5 -32.5t-32.5 -14.5q-15 0 -24.5 9.5z" />
    <glyph glyph-name="uni1E93" unicode="&#x1e93;" horiz-adv-x="454" 
d="M59 64q-2 -11 5.5 -17.5t24.5 -6.5h293l-6 -40h-296q-69 0 -69 45q0 9 1 13l4 22l369 351h-298l8 39h356l-7 -37l-384 -364zM146.5 -143.5q-9.5 9.5 -9.5 23.5q0 18 15 32.5t33 14.5q15 0 24.5 -9.5t9.5 -23.5q0 -18 -14.5 -32.5t-33.5 -14.5q-15 0 -24.5 9.5z" />
    <glyph glyph-name="ordfeminine" unicode="&#xaa;" horiz-adv-x="432" 
d="M383 389q-1 -13 2 -21t13 -19l-29 -24q-15 10 -22 22t-7 27l1 10q-51 -59 -141 -59q-53 0 -81 23t-28 65q0 57 39 89t112 37l67 5q30 2 45 9t21 22l2 10q2 14 2 19q0 33 -22 51t-62 18q-46 0 -73 -12t-50 -37l-26 23q24 27 58 42t95 15q57 0 89 -25t32 -70q0 -8 -2 -24z
M308.5 388q40.5 31 48.5 79l11 64q-22 -15 -69 -18l-59 -4q-53 -4 -81 -27t-28 -64q0 -30 19.5 -45.5t57.5 -15.5q60 0 100.5 31z" />
    <glyph glyph-name="ordmasculine" unicode="&#xba;" horiz-adv-x="423" 
d="M133 354.5q-33 29.5 -33 78.5q0 15 3 30l18 103q11 62 54 100t117 38q65 0 97.5 -30t32.5 -80q0 -13 -3 -28l-19 -103q-10 -61 -53 -99.5t-116 -38.5q-65 0 -98 29.5zM320 387q31 29 40 76l18 103q3 14 3 27q0 36 -22.5 57t-69.5 21q-57 0 -88 -28.5t-39 -76.5l-19 -103
q-2 -9 -2 -25q0 -36 22 -58t70 -22q56 0 87 29z" />
    <glyph glyph-name="uni207F" unicode="&#x207f;" horiz-adv-x="490" 
d="M443.5 676q28.5 -29 28.5 -78q0 -15 -3 -33l-49 -281h-43l48 273q3 18 3 33q0 39 -19.5 59.5t-57.5 20.5q-60 0 -102 -42t-67 -103l-43 -241h-43l62 348q1 4 1 12q0 11 -4 19t-14 16l31 26q16 -12 23 -24.5t7 -30.5q0 -6 -2 -22l-5 -26q64 103 168 103q52 0 80.5 -29z
" />
    <glyph glyph-name="uni0394" unicode="&#x394;" horiz-adv-x="647" 
d="M577 0h-589l393 700h49zM64 44h453l-123 589z" />
    <glyph glyph-name="uni0394" unicode="&#x3b4;" horiz-adv-x="647" 
d="M577 0h-589l393 700h49zM64 44h453l-123 589z" />
    <glyph glyph-name="uni03A9" unicode="&#x3a9;" horiz-adv-x="666" 
d="M590.5 658.5q61.5 -52.5 61.5 -148.5q0 -33 -5 -58l-35 -196q-28 -153 -146 -213h117l-7 -43h-208l2 12l6 33q73 18 121 70t62 132l36 205q5 30 5 51q0 79 -49.5 122t-140.5 43q-106 0 -175 -56.5t-87 -159.5l-36 -205q-4 -23 -4 -48q0 -61 30 -100t86 -54l-6 -33l-2 -12
h-207l7 43h117q-77 49 -77 153q0 29 6 60l34 196q22 126 103.5 192.5t212.5 66.5q117 0 178.5 -52.5z" />
    <glyph glyph-name="uni03A9" unicode="&#x3c9;" horiz-adv-x="666" 
d="M590.5 658.5q61.5 -52.5 61.5 -148.5q0 -33 -5 -58l-35 -196q-28 -153 -146 -213h117l-7 -43h-208l2 12l6 33q73 18 121 70t62 132l36 205q5 30 5 51q0 79 -49.5 122t-140.5 43q-106 0 -175 -56.5t-87 -159.5l-36 -205q-4 -23 -4 -48q0 -61 30 -100t86 -54l-6 -33l-2 -12
h-207l7 43h117q-77 49 -77 153q0 29 6 60l34 196q22 126 103.5 192.5t212.5 66.5q117 0 178.5 -52.5z" />
    <glyph glyph-name="uni03BC" unicode="&#x3bc;" horiz-adv-x="557" 
d="M437 56q0 -11 4.5 -19t15.5 -18l-33 -30q-18 14 -27 29t-9 34q0 6 2 20l6 37q-32 -56 -79.5 -88t-110.5 -32q-34 0 -60.5 15t-40.5 42l-47 -268h-49l122 692h49l-57 -321q-2 -18 -2 -24q0 -46 25 -70.5t70 -24.5q70 0 119.5 49.5t76.5 119.5l48 271h49l-71 -402
q-1 -4 -1 -12z" />
    <glyph glyph-name="pi" unicode="&#x3c0;" horiz-adv-x="659" 
d="M461 101q-3 -15 -3 -26q0 -25 16.5 -35t56.5 -10l-19 -41q-54 0 -78.5 18.5t-24.5 58.5q0 14 3 32l59 331h-248l-75 -429h-49l76 429h-123l8 41h597l-8 -41h-130z" />
    <glyph glyph-name="uni0E01" unicode="&#xe01;" horiz-adv-x="584" 
d="M78 252q22 120 116 158l1 4l-86 110l7 43h215q194 0 194 -169q0 -25 -7 -69l-58 -329h-49l58 329q7 42 7 65q0 67 -35.5 99.5t-109.5 32.5l-173 -3l79 -99l-6 -34q-47 -19 -70.5 -51t-33.5 -87l-44 -252h-49z" />
    <glyph glyph-name="uni0E02" unicode="&#xe02;" horiz-adv-x="483" 
d="M455 560l-73 -416q-13 -74 -59 -114t-120 -40q-65 0 -101.5 32t-36.5 91q0 43 13.5 82t28 63.5t38.5 60.5q20 31 31 50q-25 -21 -52 -21q-25 0 -39.5 18.5t-14.5 46.5q0 38 17.5 73.5t45 58t57.5 22.5q29 0 45 -18t16 -50q0 -46 -19.5 -96t-48.5 -96q-69 -107 -69 -192
q0 -40 24 -62t68 -22q52 0 85 29.5t42 83.5l73 416h49zM166.5 396.5q18.5 17.5 30.5 45t12 55.5q0 17 -6.5 27.5t-18.5 10.5q-19 0 -37.5 -18t-30.5 -45.5t-12 -55.5q0 -17 6.5 -27t18.5 -10q19 0 37.5 17.5z" />
    <glyph glyph-name="uni0E03" unicode="&#xe03;" horiz-adv-x="499" 
d="M472 560l-74 -415q-13 -73 -60.5 -114t-120.5 -41q-66 0 -103 32t-37 90q0 51 25.5 95t90.5 113q35 36 50 60t19 48l2 12q1 4 1 13q0 41 -41 68q3 -12 3 -22q0 -37 -16 -71t-42.5 -55.5t-54.5 -21.5q-26 0 -40.5 17.5t-14.5 47.5q0 38 17.5 73t46 56.5t59.5 21.5
q53 0 93 -60l10 53h24q1 -14 1 -40q0 -58 -12 -99t-28.5 -66t-42.5 -53q-52 -58 -76.5 -98t-24.5 -90q0 -40 24.5 -61.5t69.5 -21.5q52 0 86 30t43 84l74 415h49zM154.5 398.5q18.5 17.5 30 44.5t11.5 55q0 17 -6.5 27.5t-17.5 10.5q-19 0 -37.5 -17.5t-30.5 -45.5t-12 -55
q0 -17 6.5 -27t18.5 -10q19 0 37.5 17.5z" />
    <glyph glyph-name="uni0E04" unicode="&#xe04;" horiz-adv-x="636" 
d="M527.5 530.5q55.5 -36.5 55.5 -103.5q0 -15 -3 -30l-70 -397h-49l70 397q2 16 2 24q0 50 -41.5 77.5t-122.5 27.5q-88 0 -142 -33.5t-65 -95.5l-26 -146q41 46 96 74.5t109 28.5q42 0 67.5 -16t25.5 -44q0 -39 -39 -64.5t-97 -25.5q-39 0 -66 15t-27 42q0 4 2 14
q-43 -32 -63.5 -65.5t-27.5 -73.5l-24 -136h-48l70 397q14 80 80.5 125t177.5 45q100 0 155.5 -36.5zM266 308q-31 -18 -31 -41q0 -15 17.5 -25.5t46.5 -10.5q43 0 73.5 17.5t30.5 41.5q0 15 -18 25.5t-48 10.5q-40 0 -71 -18z" />
    <glyph glyph-name="uni0E05" unicode="&#xe05;" horiz-adv-x="641" 
d="M553 521q37 -35 37 -85q0 -6 -2 -22l-72 -414h-49l73 411q2 14 2 20q0 35 -21.5 60.5t-59.5 36.5l-106 -94l-66 94q-54 -13 -85 -42.5t-39 -74.5l-29 -161q42 46 96.5 75t109.5 29q42 0 67.5 -16t25.5 -45q0 -38 -39 -63.5t-97 -25.5q-40 0 -67 15t-27 42q0 4 2 14
q-43 -32 -63.5 -65.5t-27.5 -73.5l-24 -136h-48l73 414q11 60 61 100.5t130 52.5l55 -88l89 88q64 -11 101 -46zM266.5 308q-31.5 -18 -31.5 -41q0 -15 17.5 -25.5t47.5 -10.5q43 0 73.5 17.5t30.5 41.5q0 15 -18 25.5t-49 10.5q-39 0 -70.5 -18z" />
    <glyph glyph-name="uni0E06" unicode="&#xe06;" horiz-adv-x="628" 
d="M600 560l-71 -403q-14 -81 -59.5 -124t-118.5 -43q-50 0 -89.5 25t-61.5 68q-5 -42 -27.5 -67.5t-57.5 -25.5q-38 0 -59 34t-21 80q0 55 24 90.5t62 35.5q23 0 42 -14l2 9q5 27 16.5 48.5t41.5 50.5q33 33 47.5 57t19.5 49l2 10q1 5 1 13q0 40 -39 67q2 -14 2 -20
q0 -37 -16 -71.5t-42.5 -56t-54.5 -21.5q-25 0 -40 18t-15 47q0 38 18 73t47 56.5t60 21.5q52 0 92 -60l9 53h24q2 -34 2 -45q0 -77 -22 -121.5t-61 -85.5q-24 -26 -32 -44.5t-12 -43.5l-5 -25q-1 -3 -1 -11q0 -29 18 -65t50.5 -62t74.5 -26q52 0 86 32.5t44 93.5l71 403h49
zM183 398.5q18 17.5 30 44.5t12 55q0 17 -6.5 27.5t-17.5 10.5q-19 0 -37.5 -17.5t-30.5 -45.5t-12 -55q0 -17 6.5 -27t18.5 -10q19 0 37 17.5zM155.5 46q14.5 25 14.5 68q0 36 -13.5 60.5t-37.5 24.5q-22 0 -36 -27t-14 -66q0 -35 12.5 -60t34.5 -25q25 0 39.5 25z" />
    <glyph glyph-name="uni0E07" unicode="&#xe07;" horiz-adv-x="453" 
d="M397.5 550q15.5 -17 15.5 -47q0 -15 -2 -23l-61 -350q-12 -67 -49 -98.5t-105 -31.5h-50q-15 121 -35.5 212t-57.5 168l42 22q37 -68 57 -154.5t36 -208.5h14q43 0 67.5 22.5t32.5 68.5l41 234q-28 -25 -56 -25q-25 0 -39 19t-14 49q0 39 17.5 76.5t45.5 60.5t58 23
q27 0 42.5 -17zM331 389.5q19 19.5 31.5 49.5t12.5 59q0 17 -7 27.5t-18 10.5q-19 0 -38 -19t-31.5 -49t-12.5 -59q0 -17 7 -28t18 -11q19 0 38 19.5z" />
    <glyph glyph-name="uni0E08" unicode="&#xe08;" horiz-adv-x="526" 
d="M433.5 531.5q49.5 -35.5 49.5 -100.5q0 -15 -3 -33l-48 -276q-12 -63 -49 -92.5t-104 -29.5h-60l5 37q14 95 17 145q-20 -22 -50 -22q-33 0 -53 30.5t-20 71.5q0 48 22.5 78t59.5 30q40 0 63 -41.5t23 -108.5q0 -68 -17 -181h18q42 0 65.5 20t31.5 63l48 276q2 9 2 25
q0 49 -37.5 76t-106.5 27q-68 0 -115.5 -15.5t-91.5 -53.5l-24 31q45 40 101 59.5t133 19.5q91 0 140.5 -35.5zM228 212.5q13 22.5 13 56.5q0 30 -11.5 51t-32.5 21q-20 0 -33 -21.5t-13 -55.5q0 -30 12 -52t33 -22q19 0 32 22.5z" />
    <glyph glyph-name="uni0E09" unicode="&#xe09;" horiz-adv-x="628" 
d="M560 206.5q16 -24.5 16 -62.5q0 -41 -13.5 -76.5t-36.5 -56.5t-51 -21q-30 0 -48.5 24t-18.5 61q0 12 1 18q-40 -47 -82 -75t-92 -28q-52 0 -79.5 29t-27.5 83q0 20 5 50l5 28q-26 -26 -54 -26q-25 0 -39.5 18.5t-14.5 48.5q0 38 17 74t45 58t58 22q27 0 42 -17.5
t15 -47.5q0 -7 -2 -23l-24 -132q-5 -28 -5 -45q0 -38 17 -58.5t50 -20.5q63 0 117.5 53t83.5 107q6 13 8.5 24.5t3.5 13.5l30 169q2 16 2 24q0 49 -38 76.5t-107 27.5q-68 0 -115.5 -15.5t-91.5 -53.5l-24 31q46 40 101.5 59.5t132.5 19.5q90 0 140.5 -35.5t50.5 -101.5
q0 -15 -3 -32l-30 -168q4 1 10 1q30 0 46 -24.5zM125.5 203q18.5 18 30.5 46.5t12 55.5q0 17 -6.5 27.5t-17.5 10.5q-19 0 -37.5 -17.5t-30 -45.5t-11.5 -56q0 -18 6 -28.5t18 -10.5q18 0 36.5 18zM508 38.5q15 17.5 24.5 45.5t9.5 59q0 26 -9 41.5t-26 15.5
q-16 0 -31 -17.5t-24.5 -46t-9.5 -58.5q0 -27 9 -42t25 -15q17 0 32 17.5z" />
    <glyph glyph-name="uni0E0A" unicode="&#xe0a;" horiz-adv-x="486" 
d="M447 506.5q-22 -29.5 -74 -57.5l22 -26q14 -17 21.5 -33t7.5 -41q0 -13 -3 -30l-31 -173q-13 -74 -62 -115t-124 -41q-67 0 -104.5 32t-37.5 91q0 48 22 92t74 114q23 31 34 52q-26 -23 -55 -23q-24 0 -38.5 18t-14.5 47q0 37 17.5 73t45 58.5t57.5 22.5q28 0 44 -18
t16 -50q0 -50 -19.5 -100t-48.5 -91q-3 -4 -27.5 -38t-41 -76t-16.5 -79q0 -40 25 -62t71 -22q53 0 89 30.5t45 84.5l30 170q4 20 4 36q0 18 -5.5 30t-17.5 28l-25 31l3 15q37 22 55.5 38t28.5 37.5t17 58.5h48q-10 -54 -32 -83.5zM179.5 396.5q18.5 17.5 30.5 45t12 55.5
q0 17 -6.5 27.5t-18.5 10.5q-18 0 -36.5 -18t-30.5 -46t-12 -55q0 -17 6.5 -27t17.5 -10q19 0 37.5 17.5z" />
    <glyph glyph-name="uni0E0B" unicode="&#xe0b;" horiz-adv-x="497" 
d="M459 507q-22 -29 -74 -58l22 -26q14 -18 20.5 -32t6.5 -38q0 -14 -3 -34l-31 -174q-13 -74 -61 -114.5t-123 -40.5q-66 0 -102.5 32t-36.5 90q0 56 28 100.5t88 107.5q35 36 50 60t19 48l2 12q1 4 1 13q0 39 -40 68q2 -14 2 -21q0 -37 -16 -71.5t-42.5 -56t-54.5 -21.5
q-25 0 -40 18t-15 47q0 38 17.5 73t46 56.5t59.5 21.5q52 0 94 -60l9 53h24q1 -14 1 -40q0 -58 -12 -98.5t-29 -65.5t-43 -54q-50 -55 -75 -97t-25 -90q0 -41 24 -62.5t69 -21.5q53 0 88 30t44 84l31 171q4 20 4 37t-5 29.5t-17 27.5l-25 31l2 15q37 22 55.5 38.5t29 38
t16.5 57.5h49q-10 -54 -32 -83zM154 398.5q18 17.5 30 44.5t12 55q0 17 -6.5 27.5t-17.5 10.5q-19 0 -37.5 -17.5t-30.5 -45.5t-12 -55q0 -17 6.5 -27t18.5 -10q19 0 37 17.5z" />
    <glyph glyph-name="uni0E0C" unicode="&#xe0c;" horiz-adv-x="888" 
d="M860 560l-71 -406q-29 -164 -168 -164q-44 0 -78.5 22.5t-52.5 58.5q-9 -38 -29.5 -59.5t-52.5 -21.5q-36 0 -57 32.5t-21 76.5q0 53 24.5 87.5t62.5 34.5q20 0 36 -11l20 119q6 35 6 62q0 68 -36 101.5t-112 33.5l-174 -3l79 -99l-6 -34q-47 -19 -70.5 -51t-33.5 -87
l-10 -56q28 23 55 23q25 0 39.5 -18t14.5 -47q0 -40 -17 -78t-45.5 -62t-59.5 -24q-26 0 -41.5 18t-15.5 49q0 16 2 24l30 171q21 119 115 158l1 4l-85 110l7 43h215q197 0 197 -172q0 -30 -6 -66l-25 -139q-1 -4 -1 -14q0 -30 15 -64t43 -57.5t65 -23.5q50 0 80 31.5
t41 91.5l71 406h49zM447.5 45.5q14.5 24.5 14.5 64.5q0 34 -13 57t-36 23q-21 0 -35 -25.5t-14 -63.5q0 -33 12.5 -56.5t33.5 -23.5q23 0 37.5 24.5zM128 169.5q-19 -19.5 -31.5 -50t-12.5 -59.5q0 -17 6.5 -27.5t18.5 -10.5q19 0 38 19t31 49t12 59q0 18 -6.5 29t-17.5 11
q-19 0 -38 -19.5z" />
    <glyph glyph-name="uni0E0D" unicode="&#xe0d;" horiz-adv-x="869" 
d="M843 560l-55 -315q-21 -119 -92 -182t-206 -63h-75l58 329q6 35 6 62q0 68 -36 101.5t-112 33.5l-174 -3l79 -99l-6 -34q-47 -19 -70.5 -51t-33.5 -87l-10 -56q28 23 55 23q25 0 39.5 -18t14.5 -47q0 -40 -17 -78t-45.5 -62t-59.5 -24q-26 0 -41.5 18t-15.5 49q0 16 2 24
l30 171q21 119 115 158l1 4l-85 110l7 43h215q197 0 197 -172q0 -30 -6 -66l-51 -288h21q107 0 167.5 48t79.5 156l55 315h49zM128 169.5q-19 -19.5 -31.5 -50t-12.5 -59.5q0 -17 6.5 -27.5t18.5 -10.5q19 0 38 19t31 49t12 59q0 18 -6.5 29t-17.5 11q-19 0 -38 -19.5z
M641 -111q29 30 41 65h46q-29 -73 -93 -111t-148 -38q-41 0 -68 16.5t-27 42.5q0 30 33 48.5t75 18.5q39 0 64 -15t25 -39q0 -17 -15 -32q38 14 67 44zM534 -152.5q22 11.5 22 25.5q0 13 -17.5 22t-42.5 9q-29 0 -50 -11t-21 -26q0 -13 16.5 -22t41.5 -9q29 0 51 11.5z" />
    <glyph glyph-name="yoYingthai.less" horiz-adv-x="869" 
d="M843 560l-55 -315q-21 -119 -92 -182t-206 -63h-75l58 329q6 35 6 62q0 68 -36 101.5t-112 33.5l-174 -3l79 -99l-6 -34q-47 -19 -70.5 -51t-33.5 -87l-10 -56q28 23 55 23q25 0 39.5 -18t14.5 -47q0 -40 -17 -78t-45.5 -62t-59.5 -24q-26 0 -41.5 18t-15.5 49q0 16 2 24
l30 171q21 119 115 158l1 4l-85 110l7 43h215q197 0 197 -172q0 -30 -6 -66l-51 -288h21q107 0 167.5 48t79.5 156l55 315h49zM128 169.5q-19 -19.5 -31.5 -50t-12.5 -59.5q0 -17 6.5 -27.5t18.5 -10.5q19 0 38 19t31 49t12 59q0 18 -6.5 29t-17.5 11q-19 0 -38 -19.5z" />
    <glyph glyph-name="uni0E0E" unicode="&#xe0e;" horiz-adv-x="622" 
d="M511.5 525.5q50.5 -41.5 50.5 -127.5q0 -30 -6 -66l-103 -586h-48q-52 56 -110 88q-28 -33 -65.5 -51.5t-81.5 -18.5q-45 0 -71.5 16t-26.5 45q0 35 33 55t88 20q58 0 114 -24q17 30 26 65h37q-13 -46 -34 -80q52 -28 97 -73l96 544q6 33 6 61q0 68 -37.5 100.5
t-114.5 32.5l-136 -2l-60 -1l74 -96l-61 -349q-7 -40 -30 -64t-55 -24q-35 0 -55 28t-20 74q0 55 24 91t61 36q14 0 26.5 -6.5t21.5 -17.5l40 227l-77 102l8 43h239q100 0 150.5 -41.5zM129.5 49q13.5 27 13.5 66q0 33 -11.5 53.5t-32.5 20.5q-19 0 -33 -28t-14 -66
q0 -33 11.5 -53t32.5 -20q20 0 33.5 27zM266 -151q-50 22 -101 22q-36 0 -58 -12t-22 -32q0 -16 17 -25t50 -9q69 0 114 56z" />
    <glyph glyph-name="doChadathai.short" horiz-adv-x="622" 
d="M511.5 525.5q50.5 -41.5 50.5 -127.5q0 -30 -6 -66l-94 -532h-47q-64 57 -113 84q-28 -33 -65 -51t-81 -18q-45 0 -71.5 16t-26.5 45q0 35 33 55t88 20q56 0 113 -26q18 29 27 67h37q-12 -44 -35 -81q48 -27 99 -72l87 493q6 33 6 61q0 68 -37.5 100.5t-114.5 32.5
l-136 -2l-60 -1l74 -96l-60 -347q-8 -41 -30.5 -64.5t-54.5 -23.5q-35 0 -55.5 28t-20.5 74q0 55 24 91.5t61 36.5q14 0 26.5 -6.5t21.5 -17.5l40 224l-77 102l8 43h239q100 0 150.5 -41.5zM129.5 51q13.5 27 13.5 67q0 33 -11.5 53t-32.5 20q-19 0 -33 -27.5t-14 -66.5
q0 -33 12 -53t33 -20q19 0 32.5 27zM274 -101q-53 23 -100 23q-36 0 -58 -12t-22 -32q0 -16 16.5 -25t49.5 -9q67 0 114 55z" />
    <glyph glyph-name="uni0E0F" unicode="&#xe0f;" horiz-adv-x="622" 
d="M511.5 525.5q50.5 -41.5 50.5 -127.5q0 -30 -6 -66l-103 -586h-49l-60 107l-97 -107q-25 45 -51 71q-26 -25 -59 -39t-69 -14q-40 0 -65.5 16t-25.5 45q0 35 32 55t82 20q60 0 105 -36q25 34 34 78h37q-16 -59 -47 -99q23 -27 35 -48l98 109l60 -106l94 534q6 33 6 61
q0 68 -37.5 100.5t-114.5 32.5l-136 -2l-60 -1l74 -96l-60 -347q-8 -41 -30.5 -64.5t-54.5 -23.5q-35 0 -55.5 28t-20.5 74q0 55 24 91.5t61 36.5q14 0 26.5 -6.5t21.5 -17.5l40 224l-77 102l8 43h239q100 0 150.5 -41.5zM129.5 51q13.5 27 13.5 67q0 33 -11.5 53t-32.5 20
q-19 0 -33 -27.5t-14 -66.5q0 -33 12 -53t33 -20q19 0 32.5 27zM174 -162q-43 33 -88 33q-34 0 -54 -12t-20 -32q0 -15 15.5 -24t44.5 -9q60 0 102 44z" />
    <glyph glyph-name="toPatakthai.short" horiz-adv-x="622" 
d="M511.5 525.5q50.5 -41.5 50.5 -127.5q0 -30 -6 -66l-95 -542h-49l-54 79l-74 -79q-27 46 -52 70q-54 -52 -123 -52q-39 0 -63 16t-24 45q0 35 30 55t80 20q56 0 101 -37q24 35 33 73h35q-16 -56 -45 -92q21 -23 35 -49l73 78l56 -81l87 496q6 33 6 61q0 68 -37.5 100.5
t-114.5 32.5l-136 -2l-60 -1l74 -96l-60 -347q-8 -41 -30.5 -64.5t-54.5 -23.5q-35 0 -55.5 28t-20.5 74q0 55 24 91.5t61 36.5q14 0 26.5 -6.5t21.5 -17.5l40 224l-77 102l8 43h239q100 0 150.5 -41.5zM129.5 51q13.5 27 13.5 67q0 33 -11.5 53t-32.5 20q-19 0 -33 -27.5
t-14 -66.5q0 -33 12 -53t33 -20q19 0 32.5 27zM211 -119q-37 34 -84 34q-32 0 -51 -12t-19 -32q0 -15 14 -24t42 -9q57 0 98 43z" />
    <glyph glyph-name="uni0E10" unicode="&#xe10;" horiz-adv-x="511" 
d="M165.5 511q-45.5 -17 -45.5 -41q0 -9 24 -18.5t74 -24.5q36 -10 53 -16q84 -27 124.5 -53t40.5 -67q0 -9 -1 -14l-28 -155q-10 -59 -47 -90.5t-109 -31.5h-57l3 25q8 55 11 111q-20 -23 -52 -23q-34 0 -53.5 28.5t-19.5 65.5q0 47 22.5 76.5t59.5 29.5t60 -33.5t25 -85.5
q2 -32 2 -44q0 -39 -9 -111h19q42 0 66 20.5t31 62.5l27 153q5 31 -30 52t-107 45q-22 8 -50 16q-67 22 -97.5 37t-30.5 38q0 29 27 53t74.5 37.5t104.5 13.5q121 0 230 -39l-17 -40q-34 14 -95.5 27t-119.5 13q-64 0 -109.5 -17zM195 164q13 22 13 52q0 28 -12 47.5
t-33 19.5q-20 0 -33 -21t-13 -52q0 -28 12.5 -48t33.5 -20q19 0 32 22zM373 -57q20 -16 16 -40l-27 -151h-35l-77 51l-66 -51q-28 28 -51 46q-25 -23 -50 -34.5t-56 -11.5q-32 0 -50.5 13t-18.5 36q0 28 23.5 45t62.5 17q41 0 84 -29q19 29 27 63h30q-12 -46 -36 -77
q18 -14 41 -36l66 52l78 -54l16 89q-22 -11 -52 -11t-49.5 13t-19.5 32q0 23 24.5 38.5t60.5 15.5q39 0 59 -16zM269 -110.5q13 -6.5 33 -6.5q23 0 40 8.5t17 19.5t-14 18t-34 7q-22 0 -38.5 -8.5t-16.5 -21.5q0 -10 13 -16.5zM111 -187q-36 26 -71 26q-24 0 -39 -10
t-15 -26q0 -13 12 -20t32 -7q42 0 81 37z" />
    <glyph glyph-name="thoThanthai.less" horiz-adv-x="511" 
d="M165.5 511q-45.5 -17 -45.5 -41q0 -9 24 -18.5t74 -24.5q36 -10 53 -16q84 -27 124.5 -53t40.5 -67q0 -9 -1 -14l-28 -155q-10 -59 -47 -90.5t-109 -31.5h-57l3 25q8 55 11 111q-20 -23 -52 -23q-34 0 -53.5 28.5t-19.5 65.5q0 47 22.5 76.5t59.5 29.5t60 -33.5t25 -85.5
q2 -32 2 -44q0 -39 -9 -111h19q42 0 66 20.5t31 62.5l27 153q5 31 -30 52t-107 45q-22 8 -50 16q-67 22 -97.5 37t-30.5 38q0 29 27 53t74.5 37.5t104.5 13.5q121 0 230 -39l-17 -40q-34 14 -95.5 27t-119.5 13q-64 0 -109.5 -17zM195 164q13 22 13 52q0 28 -12 47.5
t-33 19.5q-20 0 -33 -21t-13 -52q0 -28 12.5 -48t33.5 -20q19 0 32 22z" />
    <glyph glyph-name="uni0E11" unicode="&#xe11;" horiz-adv-x="659" 
d="M584.5 541.5q27.5 -25.5 27.5 -76.5q0 -12 -4 -40l-75 -425h-49l75 425q4 26 4 35q0 33 -16.5 49.5t-51.5 16.5q-61 0 -125 -58t-126 -151q-20 -31 -29.5 -54.5t-13.5 -48.5l-38 -214h-49l38 214q5 32 19.5 58.5t38.5 62.5q22 33 32.5 52.5t13.5 40.5l2 12q1 4 1 12
q0 39 -38 66q2 -14 2 -19q0 -37 -16.5 -71t-43 -55.5t-54.5 -21.5q-25 0 -40 18.5t-15 46.5q0 37 17.5 72t46 57t58.5 22q54 0 94 -61l10 54h24q2 -20 2 -52t-6 -64l-1 -7q97 130 206 130q52 0 79.5 -25.5zM149.5 398.5q18.5 17.5 30.5 44.5t12 55q0 17 -7 27.5t-18 10.5
q-19 0 -37.5 -17.5t-30.5 -45.5t-12 -55q0 -17 6.5 -27t18.5 -10q19 0 37.5 17.5z" />
    <glyph glyph-name="uni0E12" unicode="&#xe12;" horiz-adv-x="934" 
d="M907 560l-72 -405q-29 -165 -168 -165q-43 0 -75.5 20.5t-52.5 56.5q-9 -35 -30 -56t-51 -21q-36 0 -57 32t-21 76q0 53 24.5 87.5t62.5 34.5q17 0 33 -8l35 199q2 14 2 21q0 35 -21 60t-59 36l-104 -94l-68 94q-51 -13 -81.5 -43.5t-38.5 -73.5l-67 -378q65 2 122 41.5
t85 94.5q-13 -9 -33 -9q-27 0 -39.5 16.5t-12.5 43.5q0 36 17 70.5t43.5 56t53.5 21.5q26 0 38 -17.5t12 -45.5q0 -72 -41 -143.5t-110 -117t-147 -45.5h-43l74 415q11 59 60.5 100t127.5 53l56 -88l88 88q64 -11 100.5 -45.5t36.5 -83.5q0 -8 -2 -24l-40 -224q-1 -5 -1 -16
q0 -30 15 -63.5t43 -56.5t64 -23q50 0 80 32t41 92l72 405h49zM257.5 196.5q6.5 -9.5 17.5 -9.5q19 0 37 17.5t30 44.5t12 54q0 17 -7 27.5t-18 10.5q-18 0 -36.5 -18t-30 -45.5t-11.5 -54.5q0 -17 6.5 -26.5zM498 45q14 24 14 64q0 35 -13 58t-36 23q-21 0 -35 -25.5
t-14 -63.5q0 -33 12.5 -56.5t34.5 -23.5q23 0 37 24z" />
    <glyph glyph-name="uni0E13" unicode="&#xe13;" horiz-adv-x="912" 
d="M844.5 206.5q15.5 -24.5 15.5 -63.5q0 -40 -14 -75.5t-37.5 -56.5t-50.5 -21q-30 0 -47.5 24t-17.5 61q0 10 1 15q-35 -44 -75.5 -72t-90.5 -28q-52 0 -78.5 29t-26.5 84q0 20 5 52l30 174q7 36 7 70q0 65 -32 96t-102 31l-174 -3l79 -99l-6 -34q-47 -19 -70.5 -51
t-33.5 -87l-10 -56q28 23 55 23q25 0 39.5 -18t14.5 -47q0 -40 -17 -78t-45.5 -62t-59.5 -24q-26 0 -41.5 18t-15.5 49q0 16 2 24l30 171q21 119 115 158l1 4l-85 110l7 43h215q93 0 138 -41t45 -124q0 -35 -7 -73l-30 -174q-5 -28 -5 -46q0 -38 16 -58t47 -20q46 0 91.5 36
t77 84t36.5 78l59 331h49l-58 -330q3 1 9 1q30 0 45.5 -24.5zM792 38.5q15 17.5 24.5 45.5t9.5 59q0 26 -8.5 41.5t-25.5 15.5q-16 0 -31 -17.5t-24.5 -46t-9.5 -58.5q0 -26 8.5 -41.5t24.5 -15.5q17 0 32 17.5zM128 169.5q-19 -19.5 -31.5 -50t-12.5 -59.5q0 -18 6.5 -28
t19.5 -10q19 0 37.5 19t31 49t12.5 59q0 18 -6.5 29t-18.5 11q-19 0 -38 -19.5z" />
    <glyph glyph-name="uni0E14" unicode="&#xe14;" horiz-adv-x="630" 
d="M524 530.5q54 -36.5 54 -102.5q0 -14 -3 -31l-70 -397h-48l70 397q2 16 2 24q0 50 -41 77.5t-121 27.5q-88 0 -141 -34t-64 -95l-64 -359q67 4 119 36q57 37 88 90q-16 -7 -30 -7q-27 0 -40 18t-13 45q0 36 17 71.5t43.5 58t54.5 22.5q26 0 40 -18t14 -46
q0 -64 -42.5 -138.5t-105.5 -116.5q-36 -24 -76.5 -38.5t-80.5 -14.5h-42l70 397q14 80 80.5 125t177.5 45q98 0 152 -36.5zM260.5 196q6.5 -10 18.5 -10q19 0 37.5 17.5t30.5 45.5t12 56q0 17 -6.5 27.5t-18.5 10.5q-19 0 -37.5 -18t-30.5 -46t-12 -56q0 -17 6.5 -27z" />
    </font>
</defs>
</svg>
