<?xml version="1.0" standalone="no"?>
<!DOCTYPE svg PUBLIC "-//W3C//DTD SVG 1.1//EN" "http://www.w3.org/Graphics/SVG/1.1/DTD/svg11.dtd" >
<svg xmlns="http://www.w3.org/2000/svg" xmlns:xlink="http://www.w3.org/1999/xlink" version="1.1">
<metadata>
Created by FontForge 20190801 at Fri Sep  7 15:55:45 2018
 By Jimmy Wärting
Copyright 2018 The KoHo Project Authors (https://github.com/cadsondemak/Koho)
</metadata>
<defs>
<font id="KoHo-MediumItalic" horiz-adv-x="0" >
  <font-face 
    font-family="KoHo Medium"
    font-weight="500"
    font-style="italic"
    font-stretch="normal"
    units-per-em="1000"
    panose-1="0 0 6 0 0 0 0 0 0 0"
    ascent="800"
    descent="-200"
    x-height="470"
    cap-height="700"
    bbox="-570 -467 1279 1152"
    underline-thickness="50"
    underline-position="-100"
    slope="-10"
    unicode-range="U+000D-FB02"
  />
<missing-glyph horiz-adv-x="719" 
d="M226 999h536l-176 -999h-536zM546 50l158 899h-439l-158 -899h439z" />
    <glyph glyph-name="fi" unicode="fi" horiz-adv-x="541" 
d="M355.5 29q-13.5 21 -13.5 49q0 18 2 27l53 296h-197l-71 -401h-88l95 540q16 89 73 136t148 47h35l-12 -69h-34q-50 0 -81 -29t-41 -85l-12 -70h285l-65 -365q-1 -5 -1 -15q0 -14 6 -25t20 -24l-59 -52q-29 19 -42.5 40zM435.5 575q-13.5 13 -13.5 33q0 26 20.5 46
t46.5 20q20 0 33.5 -13.5t13.5 -33.5q0 -25 -20.5 -45t-46.5 -20q-20 0 -33.5 13z" />
    <glyph glyph-name="fl" unicode="fl" horiz-adv-x="554" 
d="M212 470h135l-12 -69h-135l-71 -401h-88l95 540q16 89 73 136t148 47h35l-12 -69h-34q-50 0 -81 -29t-41 -85zM450 105q-1 -5 -1 -15q0 -14 6 -25t20 -24l-59 -52q-29 19 -43 40t-14 49q0 12 3 27l89 502q2 12 2 16q0 13 -6.5 24t-20.5 24l59 52q29 -19 43 -40t14 -49
q0 -12 -3 -27z" />
    <glyph glyph-name="uni0E240E45" unicode="&#xe24;&#xe45;" horiz-adv-x="944" 
d="M853 530.5q45 -36.5 45 -103.5q0 -11 -4 -39l-112 -638h-87l112 638q2 9 2 26q0 40 -23.5 62t-67.5 22q-46 0 -80.5 -15t-80.5 -56q4 -28 4 -45q0 -28 -6 -61l-101 -571h-87l101 571q5 32 5 53q0 124 -133 124l-167 -3l84 -94l-8 -45q-42 -17 -65 -47t-33 -80l-2 -8
q20 9 37 9q31 0 49 -20t18 -54q0 -42 -18.5 -80.5t-49.5 -62t-66 -23.5q-36 0 -57.5 20t-21.5 56q0 7 2 21l25 142q10 58 41 97.5t81 59.5l1 4l-92 107l13 70h231q135 0 187 -72q46 37 92 54.5t107 17.5q80 0 125 -36.5zM194 173q-6 10 -17 10q-17 0 -34 -17t-28.5 -43
t-11.5 -52q0 -15 6.5 -24.5t18.5 -9.5q17 0 34 16.5t27.5 42.5t10.5 51q0 16 -6 26z" />
    <glyph glyph-name="uni0E260E45" unicode="&#xe26;&#xe45;" horiz-adv-x="974" 
d="M883 530.5q44 -36.5 44 -104.5q0 -18 -3 -38l-113 -638h-87l113 638q2 9 2 26q0 40 -23.5 62t-67.5 22q-46 0 -81 -15t-80 -56q2 -11 2 -34q0 -29 -6 -62l-103 -580h-86l103 580q5 30 5 50q0 60 -34.5 88.5t-104.5 28.5q-93 0 -185 -3l86 -96l-54 -312q-8 -45 -36.5 -71
t-70.5 -26q-41 0 -65 29t-24 77q0 59 28 96.5t72 37.5q17 0 35 -10l32 183l-80 94l13 70h251q145 0 195 -71q46 37 91 54t106 17q82 0 126 -36.5zM137 60q12 23 12 57q0 30 -11 48t-30 18q-18 0 -30.5 -23.5t-12.5 -57.5q0 -29 11 -47t30 -18t31 23z" />
    <glyph glyph-name=".notdef" horiz-adv-x="719" 
d="M226 999h536l-176 -999h-536zM546 50l158 899h-439l-158 -899h439z" />
    <glyph glyph-name="NULL" 
 />
    <glyph glyph-name="NULL" 
 />
    <glyph glyph-name="nonmarkingreturn" unicode="&#xd;" horiz-adv-x="259" 
 />
    <glyph glyph-name="space" unicode=" " horiz-adv-x="259" 
 />
    <glyph glyph-name="A" unicode="A" horiz-adv-x="669" 
d="M480 204h-301l-98 -204h-95l279 576q35 74 68 104.5t85 30.5t75 -30t32 -105l77 -576h-96zM471 277l-37 298q-4 26 -10.5 37t-19.5 11q-15 0 -25 -11t-23 -37l-143 -298h258z" />
    <glyph glyph-name="Aacute" unicode="&#xc1;" horiz-adv-x="669" 
d="M480 204h-301l-98 -204h-95l279 576q35 74 68 104.5t85 30.5t75 -30t32 -105l77 -576h-96zM471 277l-37 298q-4 26 -10.5 37t-19.5 11q-15 0 -25 -11t-23 -37l-143 -298h258zM496 923h95l-130 -149h-72z" />
    <glyph glyph-name="Abreve" unicode="&#x102;" horiz-adv-x="669" 
d="M480 204h-301l-98 -204h-95l279 576q35 74 68 104.5t85 30.5t75 -30t32 -105l77 -576h-96zM471 277l-37 298q-4 26 -10.5 37t-19.5 11q-15 0 -25 -11t-23 -37l-143 -298h258zM334.5 799.5q-36.5 32.5 -36.5 87.5q0 15 3 30h63q-4 -40 15.5 -63t58.5 -23q40 0 67.5 23
t37.5 63h64q-12 -69 -58.5 -109.5t-115.5 -40.5q-62 0 -98.5 32.5z" />
    <glyph glyph-name="uni1EAE" unicode="&#x1eae;" horiz-adv-x="669" 
d="M480 204h-301l-98 -204h-95l279 576q35 74 68 104.5t85 30.5t75 -30t32 -105l77 -576h-96zM471 277l-37 298q-4 26 -10.5 37t-19.5 11q-15 0 -25 -11t-23 -37l-143 -298h258zM508 1078h91l-106 -116h-68zM334 799q-36 32 -36 87q0 15 3 31h63q-4 -40 15 -63t59 -23
q41 0 68 23t37 63h64q-12 -69 -59.5 -109.5t-116.5 -40.5q-61 0 -97 32z" />
    <glyph glyph-name="uni1EB6" unicode="&#x1eb6;" horiz-adv-x="669" 
d="M480 204h-301l-98 -204h-95l279 576q35 74 68 104.5t85 30.5t75 -30t32 -105l77 -576h-96zM471 277l-37 298q-4 26 -10.5 37t-19.5 11q-15 0 -25 -11t-23 -37l-143 -298h258zM229 -160q-13 13 -13 33q0 25 20.5 45t45.5 20q20 0 33 -13t13 -33q0 -25 -20 -45t-46 -20
q-20 0 -33 13zM334.5 799.5q-36.5 32.5 -36.5 87.5q0 15 3 30h63q-4 -40 15.5 -63t58.5 -23q40 0 67.5 23t37.5 63h64q-12 -69 -58.5 -109.5t-115.5 -40.5q-62 0 -98.5 32.5z" />
    <glyph glyph-name="uni1EB0" unicode="&#x1eb0;" horiz-adv-x="669" 
d="M480 204h-301l-98 -204h-95l279 576q35 74 68 104.5t85 30.5t75 -30t32 -105l77 -576h-96zM471 277l-37 298q-4 26 -10.5 37t-19.5 11q-15 0 -25 -11t-23 -37l-143 -298h258zM362 1078h92l43 -116h-69zM334 799q-36 32 -36 87q0 15 3 31h63q-4 -40 15 -63t59 -23
q41 0 68 23t37 63h64q-12 -69 -59.5 -109.5t-116.5 -40.5q-61 0 -97 32z" />
    <glyph glyph-name="uni1EB2" unicode="&#x1eb2;" horiz-adv-x="669" 
d="M480 204h-301l-98 -204h-95l279 576q35 74 68 104.5t85 30.5t75 -30t32 -105l77 -576h-96zM471 277l-37 298q-4 26 -10.5 37t-19.5 11q-15 0 -25 -11t-23 -37l-143 -298h258zM423 1056l-6 45q33 13 73 13q80 0 80 -56q0 -10 -1 -16q-6 -31 -26.5 -47t-55.5 -24l-6 -34
h-59l12 63q44 5 60.5 14.5t16.5 30.5q0 12 -9 16.5t-28 4.5t-51 -10zM607 917q-12 -69 -59 -109.5t-117 -40.5q-62 0 -97.5 31.5t-35.5 86.5q0 16 3 32h63q-4 -39 15.5 -62.5t58.5 -23.5q40 0 67.5 23t37.5 63h64z" />
    <glyph glyph-name="uni1EB4" unicode="&#x1eb4;" horiz-adv-x="669" 
d="M480 204h-301l-98 -204h-95l279 576q35 74 68 104.5t85 30.5t75 -30t32 -105l77 -576h-96zM471 277l-37 298q-4 26 -10.5 37t-19.5 11q-15 0 -25 -11t-23 -37l-143 -298h258zM351.5 1037q29.5 30 73.5 30q18 0 31.5 -5.5t33.5 -16.5q14 -8 24 -12.5t20 -4.5q15 0 25 10.5
t18 33.5h53q-11 -43 -40 -73t-67 -30q-18 0 -32.5 5.5t-32.5 16.5q-2 1 -11.5 6t-17 7.5t-14.5 2.5q-17 0 -28.5 -10.5t-20.5 -34.5h-53q9 45 38.5 75zM333.5 799q-35.5 32 -35.5 87q0 15 3 31h64q-4 -39 15.5 -62.5t58.5 -23.5q40 0 67.5 23t37.5 63h63q-12 -70 -58.5 -110
t-117.5 -40q-62 0 -97.5 32z" />
    <glyph glyph-name="uni01CD" unicode="&#x1cd;" horiz-adv-x="669" 
d="M480 204h-301l-98 -204h-95l279 576q35 74 68 104.5t85 30.5t75 -30t32 -105l77 -576h-96zM471 277l-37 298q-4 26 -10.5 37t-19.5 11q-15 0 -25 -11t-23 -37l-143 -298h258zM349 860q-29 44 -53 67h81q17 -17 34.5 -42t27.5 -47q15 20 42 45.5t52 43.5h81
q-34 -24 -77.5 -67.5t-73.5 -85.5h-69q-16 42 -45 86z" />
    <glyph glyph-name="Acircumflex" unicode="&#xc2;" horiz-adv-x="669" 
d="M480 204h-301l-98 -204h-95l279 576q35 74 68 104.5t85 30.5t75 -30t32 -105l77 -576h-96zM471 277l-37 298q-4 26 -10.5 37t-19.5 11q-15 0 -25 -11t-23 -37l-143 -298h258zM346 840q44 44 74 87h69q16 -43 45 -87t53 -66h-82q-17 16 -33.5 41t-27.5 47
q-15 -20 -42.5 -45.5t-51.5 -42.5h-81q33 22 77 66z" />
    <glyph glyph-name="uni1EA4" unicode="&#x1ea4;" horiz-adv-x="669" 
d="M480 204h-301l-98 -204h-95l279 576q35 74 68 104.5t85 30.5t75 -30t32 -105l77 -576h-96zM471 277l-37 298q-4 26 -10.5 37t-19.5 11q-15 0 -25 -11t-23 -37l-143 -298h258zM635 983h89l-104 -116h-68zM345.5 841q44.5 44 73.5 86h70q15 -43 43.5 -87.5t53.5 -65.5h-78
q-18 17 -36.5 43t-25.5 45q-14 -20 -41.5 -46t-51.5 -42h-85q33 23 77.5 67z" />
    <glyph glyph-name="uni1EAC" unicode="&#x1eac;" horiz-adv-x="669" 
d="M480 204h-301l-98 -204h-95l279 576q35 74 68 104.5t85 30.5t75 -30t32 -105l77 -576h-96zM471 277l-37 298q-4 26 -10.5 37t-19.5 11q-15 0 -25 -11t-23 -37l-143 -298h258zM229 -160q-13 13 -13 33q0 25 20.5 45t45.5 20q20 0 33 -13t13 -33q0 -25 -20 -45t-46 -20
q-20 0 -33 13zM346 840q44 44 74 87h69q16 -43 45 -87t53 -66h-82q-17 16 -33.5 41t-27.5 47q-15 -20 -42.5 -45.5t-51.5 -42.5h-81q33 22 77 66z" />
    <glyph glyph-name="uni1EA6" unicode="&#x1ea6;" horiz-adv-x="669" 
d="M480 204h-301l-98 -204h-95l279 576q35 74 68 104.5t85 30.5t75 -30t32 -105l77 -576h-96zM471 277l-37 298q-4 26 -10.5 37t-19.5 11q-15 0 -25 -11t-23 -37l-143 -298h258zM541 983h89l43 -116h-68zM345.5 841q44.5 44 73.5 86h70q15 -43 43.5 -87.5t53.5 -65.5h-78
q-18 17 -36.5 43t-25.5 45q-14 -20 -41.5 -46t-51.5 -42h-85q33 23 77.5 67z" />
    <glyph glyph-name="uni1EA8" unicode="&#x1ea8;" horiz-adv-x="669" 
d="M480 204h-301l-98 -204h-95l279 576q35 74 68 104.5t85 30.5t75 -30t32 -105l77 -576h-96zM471 277l-37 298q-4 26 -10.5 37t-19.5 11q-15 0 -25 -11t-23 -37l-143 -298h258zM686.5 927q-21.5 -20 -61.5 -29l-6 -34h-59l12 64q44 5 60.5 14t16.5 30q0 13 -9 17t-28 4
q-24 0 -51 -10l-6 45q36 14 73 14q80 0 80 -56q0 -39 -21.5 -59zM532.5 839.5q28.5 -44.5 53.5 -65.5h-78q-18 17 -36.5 43t-25.5 45q-14 -20 -41.5 -46t-51.5 -42h-85q33 23 77.5 67t73.5 86h70q15 -43 43.5 -87.5z" />
    <glyph glyph-name="uni1EAA" unicode="&#x1eaa;" horiz-adv-x="669" 
d="M480 204h-301l-98 -204h-95l279 576q35 74 68 104.5t85 30.5t75 -30t32 -105l77 -576h-96zM471 277l-37 298q-4 26 -10.5 37t-19.5 11q-15 0 -25 -11t-23 -37l-143 -298h258zM347 1031q29 30 74 30q18 0 31.5 -5.5t33.5 -16.5q26 -17 44 -17q15 0 25 10.5t18 33.5h53
q-11 -43 -40 -73t-67 -30q-19 0 -32 5.5t-34 16.5q-10 6 -21 11t-21 5q-17 0 -28.5 -10.5t-20.5 -34.5h-54q10 45 39 75zM345.5 841q44.5 44 73.5 86h70q15 -43 43.5 -87.5t53.5 -65.5h-78q-18 17 -36.5 43t-25.5 45q-14 -20 -41.5 -46t-51.5 -42h-85q33 23 77.5 67z" />
    <glyph glyph-name="Adieresis" unicode="&#xc4;" horiz-adv-x="669" 
d="M480 204h-301l-98 -204h-95l279 576q35 74 68 104.5t85 30.5t75 -30t32 -105l77 -576h-96zM471 277l-37 298q-4 26 -10.5 37t-19.5 11q-15 0 -25 -11t-23 -37l-143 -298h258zM315 782q-12 12 -12 29q0 23 18 40.5t41 17.5q17 0 28.5 -12t11.5 -29q0 -22 -18 -40t-40 -18
q-17 0 -29 12zM482.5 782q-11.5 12 -11.5 29q0 23 18 40.5t41 17.5q18 0 29.5 -12t11.5 -29q0 -22 -18 -40t-40 -18q-19 0 -30.5 12z" />
    <glyph glyph-name="uni1EA0" unicode="&#x1ea0;" horiz-adv-x="669" 
d="M480 204h-301l-98 -204h-95l279 576q35 74 68 104.5t85 30.5t75 -30t32 -105l77 -576h-96zM471 277l-37 298q-4 26 -10.5 37t-19.5 11q-15 0 -25 -11t-23 -37l-143 -298h258zM229 -160q-13 13 -13 33q0 25 20.5 45t45.5 20q20 0 33 -13t13 -33q0 -25 -20 -45t-46 -20
q-20 0 -33 13z" />
    <glyph glyph-name="Agrave" unicode="&#xc0;" horiz-adv-x="669" 
d="M480 204h-301l-98 -204h-95l279 576q35 74 68 104.5t85 30.5t75 -30t32 -105l77 -576h-96zM471 277l-37 298q-4 26 -10.5 37t-19.5 11q-15 0 -25 -11t-23 -37l-143 -298h258zM315 923h95l54 -149h-72z" />
    <glyph glyph-name="uni1EA2" unicode="&#x1ea2;" horiz-adv-x="669" 
d="M480 204h-301l-98 -204h-95l279 576q35 74 68 104.5t85 30.5t75 -30t32 -105l77 -576h-96zM471 277l-37 298q-4 26 -10.5 37t-19.5 11q-15 0 -25 -11t-23 -37l-143 -298h258zM537 846q-27 -25 -73 -35l-7 -37h-66l12 70q46 5 67.5 17t21.5 36q0 15 -10.5 21t-30.5 6
q-28 0 -56 -10l-7 49q39 17 81 17q44 0 69.5 -17t25.5 -51q0 -41 -27 -66z" />
    <glyph glyph-name="Amacron" unicode="&#x100;" horiz-adv-x="669" 
d="M480 204h-301l-98 -204h-95l279 576q35 74 68 104.5t85 30.5t75 -30t32 -105l77 -576h-96zM471 277l-37 298q-4 26 -10.5 37t-19.5 11q-15 0 -25 -11t-23 -37l-143 -298h258zM289 856h307l-11 -64h-307z" />
    <glyph glyph-name="Aogonek" unicode="&#x104;" horiz-adv-x="669" 
d="M633 -189q-38 -22 -82 -22q-55 0 -79 22.5t-24 54.5q0 34 20 68t58 66h-20l-26 204h-301l-98 -204h-95l279 576q35 74 68 104.5t85 30.5t75 -30t32 -105l77 -576h-13q-63 -70 -63 -116q0 -18 12.5 -27t32.5 -9t55 14zM471 277l-37 298q-4 26 -10.5 37t-19.5 11
q-15 0 -25 -11t-23 -37l-143 -298h258z" />
    <glyph glyph-name="Aring" unicode="&#xc5;" horiz-adv-x="669" 
d="M480 204h-301l-98 -204h-95l279 576q35 74 68 104.5t85 30.5t75 -30t32 -105l77 -576h-96zM471 277l-37 298q-4 26 -10.5 37t-19.5 11q-15 0 -25 -11t-23 -37l-143 -298h258zM363 782.5q-23 21.5 -23 57.5q0 49 34 80.5t86 31.5q40 0 63 -21.5t23 -57.5q0 -49 -34 -80.5
t-86 -31.5q-40 0 -63 21.5zM476 824.5q16 17.5 16 43.5q0 19 -10.5 28.5t-30.5 9.5q-25 0 -41 -17.5t-16 -43.5q0 -19 10.5 -28.5t29.5 -9.5q26 0 42 17.5z" />
    <glyph glyph-name="Aringacute" unicode="&#x1fa;" horiz-adv-x="669" 
d="M506 1000h-62l93 119h82zM363 782.5q-23 21.5 -23 57.5q0 49 34 80.5t86 31.5q40 0 63 -21.5t23 -57.5q0 -49 -34 -80.5t-86 -31.5q-40 0 -63 21.5zM410 888.5q-16 -17.5 -16 -43.5q0 -19 10.5 -28.5t29.5 -9.5q26 0 42 17.5t16 43.5q0 19 -10.5 28.5t-30.5 9.5
q-25 0 -41 -17.5zM493 681q23 -30 32 -105l77 -576h-96l-26 204h-301l-98 -204h-95l279 576q35 74 68 104.5t85 30.5t75 -30zM471 277l-37 298q-4 26 -10.5 37t-19.5 11q-15 0 -25 -11t-23 -37l-143 -298h258z" />
    <glyph glyph-name="Atilde" unicode="&#xc3;" horiz-adv-x="669" 
d="M480 204h-301l-98 -204h-95l279 576q35 74 68 104.5t85 30.5t75 -30t32 -105l77 -576h-96zM471 277l-37 298q-4 26 -10.5 37t-19.5 11q-15 0 -25 -11t-23 -37l-143 -298h258zM310.5 862.5q30.5 33.5 77.5 33.5q20 0 35.5 -6.5t34.5 -18.5q18 -10 27 -14t20 -4
q17 0 27.5 11.5t19.5 36.5h59q-12 -48 -43 -82t-72 -34q-21 0 -36.5 6.5t-34.5 18.5q-16 9 -25.5 13.5t-20.5 4.5q-18 0 -30 -12t-22 -38h-58q11 51 41.5 84.5z" />
    <glyph glyph-name="AE" unicode="&#xc6;" horiz-adv-x="1037" 
d="M656 488l-18 -100h331l-13 -76h-331l-18 -100q-4 -20 -4 -41q0 -48 29.5 -72t90.5 -24h244l-13 -75h-244q-106 0 -154.5 39t-48.5 115q0 26 4 50h-275l-145 -204h-105l400 565q37 52 62 79.5t55 41.5t72 14q60 0 84 -45q65 45 174 45h239l-13 -75h-239q-141 0 -164 -137z
M287 277h236l51 287l2 16q0 16 -6.5 24t-16.5 8q-18 0 -30 -10t-32 -38z" />
    <glyph glyph-name="AEacute" unicode="&#x1fc;" horiz-adv-x="1037" 
d="M656 488l-18 -100h331l-13 -76h-331l-18 -100q-4 -20 -4 -41q0 -48 29.5 -72t90.5 -24h244l-13 -75h-244q-106 0 -154.5 39t-48.5 115q0 26 4 50h-275l-145 -204h-105l400 565q37 52 62 79.5t55 41.5t72 14q60 0 84 -45q65 45 174 45h239l-13 -75h-239q-141 0 -164 -137z
M287 277h236l51 287l2 16q0 16 -6.5 24t-16.5 8q-18 0 -30 -10t-32 -38zM687 923h95l-130 -149h-72z" />
    <glyph glyph-name="B" unicode="B" horiz-adv-x="674" 
d="M174 700h297q86 0 135 -39t49 -107q0 -65 -40.5 -116t-107.5 -69q52 -13 81.5 -48t29.5 -90q0 -67 -33.5 -119.5t-92.5 -82t-135 -29.5h-306zM422 404q37 0 69 18t50.5 49t18.5 67q0 41 -26 64t-73 23h-205l-39 -221h205zM348 75q82 0 128.5 41.5t46.5 114.5
q0 49 -33.5 73.5t-96.5 24.5h-189l-45 -254h189z" />
    <glyph glyph-name="C" unicode="C" horiz-adv-x="634" 
d="M123.5 41q-65.5 52 -65.5 148q0 23 5 55l38 213q22 125 102 189.5t212 64.5q91 0 152.5 -30t90.5 -88l-76 -48q-25 47 -65 69t-105 22q-92 0 -146 -45.5t-70 -133.5l-38 -213q-4 -23 -4 -47q0 -65 40.5 -99t119.5 -34q69 0 118 22.5t92 72.5l58 -51q-56 -62 -119 -90.5
t-152 -28.5q-122 0 -187.5 52z" />
    <glyph glyph-name="Cacute" unicode="&#x106;" horiz-adv-x="634" 
d="M123.5 41q-65.5 52 -65.5 148q0 23 5 55l38 213q22 125 102 189.5t212 64.5q91 0 152.5 -30t90.5 -88l-76 -48q-25 47 -65 69t-105 22q-92 0 -146 -45.5t-70 -133.5l-38 -213q-4 -23 -4 -47q0 -65 40.5 -99t119.5 -34q69 0 118 22.5t92 72.5l58 -51q-56 -62 -119 -90.5
t-152 -28.5q-122 0 -187.5 52zM503 923h95l-130 -149h-72z" />
    <glyph glyph-name="Ccaron" unicode="&#x10c;" horiz-adv-x="634" 
d="M123.5 41q-65.5 52 -65.5 148q0 23 5 55l38 213q22 125 102 189.5t212 64.5q91 0 152.5 -30t90.5 -88l-76 -48q-25 47 -65 69t-105 22q-92 0 -146 -45.5t-70 -133.5l-38 -213q-4 -23 -4 -47q0 -65 40.5 -99t119.5 -34q69 0 118 22.5t92 72.5l58 -51q-56 -62 -119 -90.5
t-152 -28.5q-122 0 -187.5 52zM356 860q-29 44 -53 67h81q17 -17 34.5 -42t27.5 -47q15 20 42 45.5t52 43.5h81q-34 -24 -77.5 -67.5t-73.5 -85.5h-69q-16 42 -45 86z" />
    <glyph glyph-name="Ccedilla" unicode="&#xc7;" horiz-adv-x="634" 
d="M158 244q-4 -23 -4 -47q0 -65 40.5 -99t119.5 -34q69 0 118 22.5t92 72.5l58 -51q-53 -59 -112 -87.5t-139 -31.5l-16 -33q35 -2 53 -19t18 -46q0 -48 -34.5 -74t-100.5 -26q-56 0 -92 21l24 50q32 -17 67 -17q33 0 49 9t16 29q0 27 -53 27q-7 0 -31 -2l35 83
q-101 9 -154.5 60t-53.5 138q0 23 5 55l38 213q22 125 102 189.5t212 64.5q91 0 152.5 -30t90.5 -88l-76 -48q-25 47 -65 69t-105 22q-92 0 -146 -45.5t-70 -133.5z" />
    <glyph glyph-name="Ccircumflex" unicode="&#x108;" horiz-adv-x="634" 
d="M123.5 41q-65.5 52 -65.5 148q0 23 5 55l38 213q22 125 102 189.5t212 64.5q91 0 152.5 -30t90.5 -88l-76 -48q-25 47 -65 69t-105 22q-92 0 -146 -45.5t-70 -133.5l-38 -213q-4 -23 -4 -47q0 -65 40.5 -99t119.5 -34q69 0 118 22.5t92 72.5l58 -51q-56 -62 -119 -90.5
t-152 -28.5q-122 0 -187.5 52zM353 840q44 44 74 87h69q16 -43 45 -87t53 -66h-82q-17 16 -33.5 41t-27.5 47q-15 -20 -42.5 -45.5t-51.5 -42.5h-81q33 22 77 66z" />
    <glyph glyph-name="Cdotaccent" unicode="&#x10a;" horiz-adv-x="634" 
d="M123.5 41q-65.5 52 -65.5 148q0 23 5 55l38 213q22 125 102 189.5t212 64.5q91 0 152.5 -30t90.5 -88l-76 -48q-25 47 -65 69t-105 22q-92 0 -146 -45.5t-70 -133.5l-38 -213q-4 -23 -4 -47q0 -65 40.5 -99t119.5 -34q69 0 118 22.5t92 72.5l58 -51q-56 -62 -119 -90.5
t-152 -28.5q-122 0 -187.5 52zM402 783.5q-13 13.5 -13 33.5q0 25 20.5 45t45.5 20q20 0 33 -13.5t13 -32.5q0 -25 -20 -45.5t-46 -20.5q-20 0 -33 13.5z" />
    <glyph glyph-name="D" unicode="D" horiz-adv-x="704" 
d="M174 700h246q133 0 197.5 -58t64.5 -178q0 -146 -44 -250t-127.5 -159t-200.5 -55h-259zM313 75q86 0 148 45.5t94.5 132.5t32.5 209q0 84 -43 123.5t-132 39.5h-157l-97 -550h154z" />
    <glyph glyph-name="Eth" unicode="&#xd0;" horiz-adv-x="704" 
d="M617.5 642q64.5 -58 64.5 -178q0 -146 -44 -250t-127.5 -159t-200.5 -55h-259l56 318h-83l11 67h84l55 315h246q133 0 197.5 -58zM461 120.5q62 45.5 94.5 132.5t32.5 209q0 84 -43 123.5t-132 39.5h-157l-42 -240h191l-11 -67h-192l-43 -243h154q86 0 148 45.5z" />
    <glyph glyph-name="Dcaron" unicode="&#x10e;" horiz-adv-x="704" 
d="M174 700h246q133 0 197.5 -58t64.5 -178q0 -146 -44 -250t-127.5 -159t-200.5 -55h-259zM313 75q86 0 148 45.5t94.5 132.5t32.5 209q0 84 -43 123.5t-132 39.5h-157l-97 -550h154zM371 860q-29 44 -53 67h81q17 -17 34.5 -42t27.5 -47q15 20 42 45.5t52 43.5h81
q-34 -24 -77.5 -67.5t-73.5 -85.5h-69q-16 42 -45 86z" />
    <glyph glyph-name="Dcroat" unicode="&#x110;" horiz-adv-x="704" 
d="M617.5 642q64.5 -58 64.5 -178q0 -146 -44 -250t-127.5 -159t-200.5 -55h-259l56 318h-83l11 67h84l55 315h246q133 0 197.5 -58zM461 120.5q62 45.5 94.5 132.5t32.5 209q0 84 -43 123.5t-132 39.5h-157l-42 -240h191l-11 -67h-192l-43 -243h154q86 0 148 45.5z" />
    <glyph glyph-name="uni1E0C" unicode="&#x1e0c;" horiz-adv-x="704" 
d="M174 700h246q133 0 197.5 -58t64.5 -178q0 -146 -44 -250t-127.5 -159t-200.5 -55h-259zM313 75q86 0 148 45.5t94.5 132.5t32.5 209q0 84 -43 123.5t-132 39.5h-157l-97 -550h154zM251 -160q-13 13 -13 33q0 25 20.5 45t45.5 20q20 0 33 -13t13 -33q0 -25 -20 -45
t-46 -20q-20 0 -33 13z" />
    <glyph glyph-name="uni1E0E" unicode="&#x1e0e;" horiz-adv-x="704" 
d="M174 700h246q133 0 197.5 -58t64.5 -178q0 -146 -44 -250t-127.5 -159t-200.5 -55h-259zM313 75q86 0 148 45.5t94.5 132.5t32.5 209q0 84 -43 123.5t-132 39.5h-157l-97 -550h154zM147 -78h307l-12 -65h-306z" />
    <glyph glyph-name="E" unicode="E" horiz-adv-x="581" 
d="M101 38q-51 38 -51 118q0 31 5 56l49 276q19 107 82 159.5t181 52.5h250l-13 -75h-240q-71 0 -111.5 -32.5t-53.5 -104.5l-18 -100h332l-13 -76h-332l-18 -100q-4 -19 -4 -40q0 -49 30 -73t91 -24h244l-13 -75h-240q-106 0 -157 38z" />
    <glyph glyph-name="Eacute" unicode="&#xc9;" horiz-adv-x="581" 
d="M101 38q-51 38 -51 118q0 31 5 56l49 276q19 107 82 159.5t181 52.5h250l-13 -75h-240q-71 0 -111.5 -32.5t-53.5 -104.5l-18 -100h332l-13 -76h-332l-18 -100q-4 -19 -4 -40q0 -49 30 -73t91 -24h244l-13 -75h-240q-106 0 -157 38zM500 923h95l-130 -149h-72z" />
    <glyph glyph-name="Ebreve" unicode="&#x114;" horiz-adv-x="581" 
d="M101 38q-51 38 -51 118q0 31 5 56l49 276q19 107 82 159.5t181 52.5h250l-13 -75h-240q-71 0 -111.5 -32.5t-53.5 -104.5l-18 -100h332l-13 -76h-332l-18 -100q-4 -19 -4 -40q0 -49 30 -73t91 -24h244l-13 -75h-240q-106 0 -157 38zM338.5 799.5q-36.5 32.5 -36.5 87.5
q0 15 3 30h63q-4 -40 15.5 -63t58.5 -23q40 0 67.5 23t37.5 63h64q-12 -69 -58.5 -109.5t-115.5 -40.5q-62 0 -98.5 32.5z" />
    <glyph glyph-name="Ecaron" unicode="&#x11a;" horiz-adv-x="581" 
d="M101 38q-51 38 -51 118q0 31 5 56l49 276q19 107 82 159.5t181 52.5h250l-13 -75h-240q-71 0 -111.5 -32.5t-53.5 -104.5l-18 -100h332l-13 -76h-332l-18 -100q-4 -19 -4 -40q0 -49 30 -73t91 -24h244l-13 -75h-240q-106 0 -157 38zM353 860q-29 44 -53 67h81
q17 -17 34.5 -42t27.5 -47q15 20 42 45.5t52 43.5h81q-34 -24 -77.5 -67.5t-73.5 -85.5h-69q-16 42 -45 86z" />
    <glyph glyph-name="Ecircumflex" unicode="&#xca;" horiz-adv-x="581" 
d="M101 38q-51 38 -51 118q0 31 5 56l49 276q19 107 82 159.5t181 52.5h250l-13 -75h-240q-71 0 -111.5 -32.5t-53.5 -104.5l-18 -100h332l-13 -76h-332l-18 -100q-4 -19 -4 -40q0 -49 30 -73t91 -24h244l-13 -75h-240q-106 0 -157 38zM350 840q44 44 74 87h69
q16 -43 45 -87t53 -66h-82q-17 16 -33.5 41t-27.5 47q-15 -20 -42.5 -45.5t-51.5 -42.5h-81q33 22 77 66z" />
    <glyph glyph-name="uni1EBE" unicode="&#x1ebe;" horiz-adv-x="581" 
d="M101 38q-51 38 -51 118q0 31 5 56l49 276q19 107 82 159.5t181 52.5h250l-13 -75h-240q-71 0 -111.5 -32.5t-53.5 -104.5l-18 -100h332l-13 -76h-332l-18 -100q-4 -19 -4 -40q0 -49 30 -73t91 -24h244l-13 -75h-240q-106 0 -157 38zM639 983h89l-104 -116h-68zM349.5 841
q44.5 44 73.5 86h70q15 -43 43.5 -87.5t53.5 -65.5h-78q-18 17 -36.5 43t-25.5 45q-14 -20 -41.5 -46t-51.5 -42h-85q33 23 77.5 67z" />
    <glyph glyph-name="uni1EC6" unicode="&#x1ec6;" horiz-adv-x="581" 
d="M101 38q-51 38 -51 118q0 31 5 56l49 276q19 107 82 159.5t181 52.5h250l-13 -75h-240q-71 0 -111.5 -32.5t-53.5 -104.5l-18 -100h332l-13 -76h-332l-18 -100q-4 -19 -4 -40q0 -49 30 -73t91 -24h244l-13 -75h-240q-106 0 -157 38zM242 -160q-13 13 -13 33q0 25 20.5 45
t45.5 20q20 0 33 -13t13 -33q0 -25 -20 -45t-46 -20q-20 0 -33 13zM350 840q44 44 74 87h69q16 -43 45 -87t53 -66h-82q-17 16 -33.5 41t-27.5 47q-15 -20 -42.5 -45.5t-51.5 -42.5h-81q33 22 77 66z" />
    <glyph glyph-name="uni1EC0" unicode="&#x1ec0;" horiz-adv-x="581" 
d="M101 38q-51 38 -51 118q0 31 5 56l49 276q19 107 82 159.5t181 52.5h250l-13 -75h-240q-71 0 -111.5 -32.5t-53.5 -104.5l-18 -100h332l-13 -76h-332l-18 -100q-4 -19 -4 -40q0 -49 30 -73t91 -24h244l-13 -75h-240q-106 0 -157 38zM545 983h89l43 -116h-68zM349.5 841
q44.5 44 73.5 86h70q15 -43 43.5 -87.5t53.5 -65.5h-78q-18 17 -36.5 43t-25.5 45q-14 -20 -41.5 -46t-51.5 -42h-85q33 23 77.5 67z" />
    <glyph glyph-name="uni1EC2" unicode="&#x1ec2;" horiz-adv-x="581" 
d="M101 38q-51 38 -51 118q0 31 5 56l49 276q19 107 82 159.5t181 52.5h250l-13 -75h-240q-71 0 -111.5 -32.5t-53.5 -104.5l-18 -100h332l-13 -76h-332l-18 -100q-4 -19 -4 -40q0 -49 30 -73t91 -24h244l-13 -75h-240q-106 0 -157 38zM690.5 927q-21.5 -20 -61.5 -29
l-6 -34h-59l12 64q44 5 60.5 14t16.5 30q0 13 -9 17t-28 4q-24 0 -51 -10l-6 45q36 14 73 14q80 0 80 -56q0 -39 -21.5 -59zM536.5 839.5q28.5 -44.5 53.5 -65.5h-78q-18 17 -36.5 43t-25.5 45q-14 -20 -41.5 -46t-51.5 -42h-85q33 23 77.5 67t73.5 86h70q15 -43 43.5 -87.5
z" />
    <glyph glyph-name="uni1EC4" unicode="&#x1ec4;" horiz-adv-x="581" 
d="M101 38q-51 38 -51 118q0 31 5 56l49 276q19 107 82 159.5t181 52.5h250l-13 -75h-240q-71 0 -111.5 -32.5t-53.5 -104.5l-18 -100h332l-13 -76h-332l-18 -100q-4 -19 -4 -40q0 -49 30 -73t91 -24h244l-13 -75h-240q-106 0 -157 38zM351 1031q29 30 74 30q18 0 31.5 -5.5
t33.5 -16.5q26 -17 44 -17q15 0 25 10.5t18 33.5h53q-11 -43 -40 -73t-67 -30q-19 0 -32 5.5t-34 16.5q-10 6 -21 11t-21 5q-17 0 -28.5 -10.5t-20.5 -34.5h-54q10 45 39 75zM349.5 841q44.5 44 73.5 86h70q15 -43 43.5 -87.5t53.5 -65.5h-78q-18 17 -36.5 43t-25.5 45
q-14 -20 -41.5 -46t-51.5 -42h-85q33 23 77.5 67z" />
    <glyph glyph-name="Edieresis" unicode="&#xcb;" horiz-adv-x="581" 
d="M101 38q-51 38 -51 118q0 31 5 56l49 276q19 107 82 159.5t181 52.5h250l-13 -75h-240q-71 0 -111.5 -32.5t-53.5 -104.5l-18 -100h332l-13 -76h-332l-18 -100q-4 -19 -4 -40q0 -49 30 -73t91 -24h244l-13 -75h-240q-106 0 -157 38zM319 782q-12 12 -12 29q0 23 18 40.5
t41 17.5q17 0 28.5 -12t11.5 -29q0 -22 -18 -40t-40 -18q-17 0 -29 12zM486.5 782q-11.5 12 -11.5 29q0 23 18 40.5t41 17.5q18 0 29.5 -12t11.5 -29q0 -22 -18 -40t-40 -18q-19 0 -30.5 12z" />
    <glyph glyph-name="Edotaccent" unicode="&#x116;" horiz-adv-x="581" 
d="M101 38q-51 38 -51 118q0 31 5 56l49 276q19 107 82 159.5t181 52.5h250l-13 -75h-240q-71 0 -111.5 -32.5t-53.5 -104.5l-18 -100h332l-13 -76h-332l-18 -100q-4 -19 -4 -40q0 -49 30 -73t91 -24h244l-13 -75h-240q-106 0 -157 38zM399 783.5q-13 13.5 -13 33.5
q0 25 20.5 45t45.5 20q20 0 33 -13.5t13 -32.5q0 -25 -20 -45.5t-46 -20.5q-20 0 -33 13.5z" />
    <glyph glyph-name="uni1EB8" unicode="&#x1eb8;" horiz-adv-x="581" 
d="M101 38q-51 38 -51 118q0 31 5 56l49 276q19 107 82 159.5t181 52.5h250l-13 -75h-240q-71 0 -111.5 -32.5t-53.5 -104.5l-18 -100h332l-13 -76h-332l-18 -100q-4 -19 -4 -40q0 -49 30 -73t91 -24h244l-13 -75h-240q-106 0 -157 38zM242 -160q-13 13 -13 33q0 25 20.5 45
t45.5 20q20 0 33 -13t13 -33q0 -25 -20 -45t-46 -20q-20 0 -33 13z" />
    <glyph glyph-name="Egrave" unicode="&#xc8;" horiz-adv-x="581" 
d="M101 38q-51 38 -51 118q0 31 5 56l49 276q19 107 82 159.5t181 52.5h250l-13 -75h-240q-71 0 -111.5 -32.5t-53.5 -104.5l-18 -100h332l-13 -76h-332l-18 -100q-4 -19 -4 -40q0 -49 30 -73t91 -24h244l-13 -75h-240q-106 0 -157 38zM319 923h95l54 -149h-72z" />
    <glyph glyph-name="uni1EBA" unicode="&#x1eba;" horiz-adv-x="581" 
d="M101 38q-51 38 -51 118q0 31 5 56l49 276q19 107 82 159.5t181 52.5h250l-13 -75h-240q-71 0 -111.5 -32.5t-53.5 -104.5l-18 -100h332l-13 -76h-332l-18 -100q-4 -19 -4 -40q0 -49 30 -73t91 -24h244l-13 -75h-240q-106 0 -157 38zM541 846q-27 -25 -73 -35l-7 -37h-66
l12 70q46 5 67.5 17t21.5 36q0 15 -10.5 21t-30.5 6q-28 0 -56 -10l-7 49q39 17 81 17q44 0 69.5 -17t25.5 -51q0 -41 -27 -66z" />
    <glyph glyph-name="Emacron" unicode="&#x112;" horiz-adv-x="581" 
d="M101 38q-51 38 -51 118q0 31 5 56l49 276q19 107 82 159.5t181 52.5h250l-13 -75h-240q-71 0 -111.5 -32.5t-53.5 -104.5l-18 -100h332l-13 -76h-332l-18 -100q-4 -19 -4 -40q0 -49 30 -73t91 -24h244l-13 -75h-240q-106 0 -157 38zM293 856h307l-11 -64h-307z" />
    <glyph glyph-name="Eogonek" unicode="&#x118;" horiz-adv-x="581" 
d="M252.5 592.5q-40.5 -32.5 -53.5 -104.5l-18 -100h332l-13 -76h-332l-18 -100q-4 -19 -4 -40q0 -49 30 -73t91 -24h244l-13 -75h-49q-63 -70 -63 -116q0 -18 12.5 -27t32.5 -9t55 14l7 -51q-38 -22 -82 -22q-55 0 -79 22.5t-24 54.5q0 34 20 68t58 66h-128q-106 0 -157 38
t-51 118q0 31 5 56l49 276q19 107 82 159.5t181 52.5h250l-13 -75h-240q-71 0 -111.5 -32.5z" />
    <glyph glyph-name="uni1EBC" unicode="&#x1ebc;" horiz-adv-x="581" 
d="M101 38q-51 38 -51 118q0 31 5 56l49 276q19 107 82 159.5t181 52.5h250l-13 -75h-240q-71 0 -111.5 -32.5t-53.5 -104.5l-18 -100h332l-13 -76h-332l-18 -100q-4 -19 -4 -40q0 -49 30 -73t91 -24h244l-13 -75h-240q-106 0 -157 38zM314.5 862.5q30.5 33.5 77.5 33.5
q20 0 35.5 -6.5t34.5 -18.5q18 -10 27 -14t20 -4q17 0 27.5 11.5t19.5 36.5h59q-12 -48 -43 -82t-72 -34q-21 0 -36.5 6.5t-34.5 18.5q-16 9 -25.5 13.5t-20.5 4.5q-18 0 -30 -12t-22 -38h-58q11 51 41.5 84.5z" />
    <glyph glyph-name="F" unicode="F" horiz-adv-x="583" 
d="M112 488q18 106 81.5 159t181.5 53h249l-13 -75h-239q-70 0 -111 -32.5t-54 -104.5l-22 -120h332l-14 -76h-331l-51 -292h-95z" />
    <glyph glyph-name="G" unicode="G" horiz-adv-x="668" 
d="M123 41q-65 52 -65 148q0 23 5 55l38 213q22 126 102.5 190t214.5 64q96 0 158 -27t94 -82l-80 -53q-26 45 -67.5 66t-108.5 21q-186 0 -218 -179l-38 -213q-5 -28 -5 -48q0 -65 40 -98.5t120 -33.5q85 0 139 31t64 86l9 53q2 16 2 21q0 61 -68 61h-118l13 75h141
q129 0 129 -106q0 -20 -4 -40l-12 -70q-16 -88 -94.5 -137t-203.5 -49q-122 0 -187 52z" />
    <glyph glyph-name="Gbreve" unicode="&#x11e;" horiz-adv-x="668" 
d="M123 41q-65 52 -65 148q0 23 5 55l38 213q22 126 102.5 190t214.5 64q96 0 158 -27t94 -82l-80 -53q-26 45 -67.5 66t-108.5 21q-186 0 -218 -179l-38 -213q-5 -28 -5 -48q0 -65 40 -98.5t120 -33.5q85 0 139 31t64 86l9 53q2 16 2 21q0 61 -68 61h-118l13 75h141
q129 0 129 -106q0 -20 -4 -40l-12 -70q-16 -88 -94.5 -137t-203.5 -49q-122 0 -187 52zM336.5 799.5q-36.5 32.5 -36.5 87.5q0 15 3 30h63q-4 -40 15.5 -63t58.5 -23q40 0 67.5 23t37.5 63h64q-12 -69 -58.5 -109.5t-115.5 -40.5q-62 0 -98.5 32.5z" />
    <glyph glyph-name="Gcaron" unicode="&#x1e6;" horiz-adv-x="668" 
d="M123 41q-65 52 -65 148q0 23 5 55l38 213q22 126 102.5 190t214.5 64q96 0 158 -27t94 -82l-80 -53q-26 45 -67.5 66t-108.5 21q-186 0 -218 -179l-38 -213q-5 -28 -5 -48q0 -65 40 -98.5t120 -33.5q85 0 139 31t64 86l9 53q2 16 2 21q0 61 -68 61h-118l13 75h141
q129 0 129 -106q0 -20 -4 -40l-12 -70q-16 -88 -94.5 -137t-203.5 -49q-122 0 -187 52zM351 860q-29 44 -53 67h81q17 -17 34.5 -42t27.5 -47q15 20 42 45.5t52 43.5h81q-34 -24 -77.5 -67.5t-73.5 -85.5h-69q-16 42 -45 86z" />
    <glyph glyph-name="Gcircumflex" unicode="&#x11c;" horiz-adv-x="668" 
d="M123 41q-65 52 -65 148q0 23 5 55l38 213q22 126 102.5 190t214.5 64q96 0 158 -27t94 -82l-80 -53q-26 45 -67.5 66t-108.5 21q-186 0 -218 -179l-38 -213q-5 -28 -5 -48q0 -65 40 -98.5t120 -33.5q85 0 139 31t64 86l9 53q2 16 2 21q0 61 -68 61h-118l13 75h141
q129 0 129 -106q0 -20 -4 -40l-12 -70q-16 -88 -94.5 -137t-203.5 -49q-122 0 -187 52zM348 840q44 44 74 87h69q16 -43 45 -87t53 -66h-82q-17 16 -33.5 41t-27.5 47q-15 -20 -42.5 -45.5t-51.5 -42.5h-81q33 22 77 66z" />
    <glyph glyph-name="uni0122" unicode="&#x122;" horiz-adv-x="668" 
d="M123 41q-65 52 -65 148q0 23 5 55l38 213q22 126 102.5 190t214.5 64q96 0 158 -27t94 -82l-80 -53q-26 45 -67.5 66t-108.5 21q-186 0 -218 -179l-38 -213q-5 -28 -5 -48q0 -65 40 -98.5t120 -33.5q85 0 139 31t64 86l9 53q2 16 2 21q0 61 -68 61h-118l13 75h141
q129 0 129 -106q0 -20 -4 -40l-12 -70q-16 -88 -94.5 -137t-203.5 -49q-122 0 -187 52zM319.5 -77q12.5 -14 12.5 -39q0 -48 -31.5 -93t-80.5 -77l-23 27q57 39 73 84q-12 -6 -27 -6q-17 0 -26.5 10t-9.5 27q0 31 24 56t53 25q23 0 35.5 -14z" />
    <glyph glyph-name="Gdotaccent" unicode="&#x120;" horiz-adv-x="668" 
d="M123 41q-65 52 -65 148q0 23 5 55l38 213q22 126 102.5 190t214.5 64q96 0 158 -27t94 -82l-80 -53q-26 45 -67.5 66t-108.5 21q-186 0 -218 -179l-38 -213q-5 -28 -5 -48q0 -65 40 -98.5t120 -33.5q85 0 139 31t64 86l9 53q2 16 2 21q0 61 -68 61h-118l13 75h141
q129 0 129 -106q0 -20 -4 -40l-12 -70q-16 -88 -94.5 -137t-203.5 -49q-122 0 -187 52zM397 783.5q-13 13.5 -13 33.5q0 25 20.5 45t45.5 20q20 0 33 -13.5t13 -32.5q0 -25 -20 -45.5t-46 -20.5q-20 0 -33 13.5z" />
    <glyph glyph-name="uni1E20" unicode="&#x1e20;" horiz-adv-x="668" 
d="M123 41q-65 52 -65 148q0 23 5 55l38 213q22 126 102.5 190t214.5 64q96 0 158 -27t94 -82l-80 -53q-26 45 -67.5 66t-108.5 21q-186 0 -218 -179l-38 -213q-5 -28 -5 -48q0 -65 40 -98.5t120 -33.5q85 0 139 31t64 86l9 53q2 16 2 21q0 61 -68 61h-118l13 75h141
q129 0 129 -106q0 -20 -4 -40l-12 -70q-16 -88 -94.5 -137t-203.5 -49q-122 0 -187 52zM292 856h307l-11 -64h-307z" />
    <glyph glyph-name="H" unicode="H" horiz-adv-x="721" 
d="M174 700h95l-55 -311h348l55 311h95l-123 -700h-95l55 313h-348l-55 -313h-95z" />
    <glyph glyph-name="Hbar" unicode="&#x126;" horiz-adv-x="725" 
d="M764 514h-84l-90 -514h-95l56 313h-348l-56 -313h-95l90 515h-82l11 67h83l21 118h95l-21 -118l348 -1l21 119h95l-21 -119h84zM586 514l-348 1l-22 -126h348z" />
    <glyph glyph-name="uni1E2A" unicode="&#x1e2a;" horiz-adv-x="721" 
d="M174 700h95l-55 -311h348l55 311h95l-123 -700h-95l55 313h-348l-55 -313h-95zM189.5 -187q-36.5 33 -36.5 88q0 13 3 30h63q-4 -41 15.5 -64t58.5 -23q40 0 67.5 23t37.5 64h64q-12 -69 -58.5 -110t-115.5 -41q-62 0 -98.5 33z" />
    <glyph glyph-name="Hcircumflex" unicode="&#x124;" horiz-adv-x="721" 
d="M174 700h95l-55 -311h348l55 311h95l-123 -700h-95l55 313h-348l-55 -313h-95zM373 840q44 44 74 87h69q16 -43 45 -87t53 -66h-82q-17 16 -33.5 41t-27.5 47q-15 -20 -42.5 -45.5t-51.5 -42.5h-81q33 22 77 66z" />
    <glyph glyph-name="uni1E24" unicode="&#x1e24;" horiz-adv-x="721" 
d="M174 700h95l-55 -311h348l55 311h95l-123 -700h-95l55 313h-348l-55 -313h-95zM257 -160q-13 13 -13 33q0 25 20.5 45t45.5 20q20 0 33 -13t13 -33q0 -25 -20 -45t-46 -20q-20 0 -33 13z" />
    <glyph glyph-name="I" unicode="I" horiz-adv-x="278" 
d="M174 700h95l-123 -700h-95z" />
    <glyph glyph-name="IJ" unicode="&#x132;" horiz-adv-x="779" 
d="M174 700h95l-123 -700h-95zM325 10.5q-48 21.5 -81 67.5l67 58q23 -38 54 -55t77 -17q70 0 114 34.5t55 99.5l88 502h95l-88 -503q-18 -102 -85.5 -155t-180.5 -53q-67 0 -115 21.5z" />
    <glyph glyph-name="Iacute" unicode="&#xcd;" horiz-adv-x="278" 
d="M174 700h95l-123 -700h-95zM301 923h95l-130 -149h-72z" />
    <glyph glyph-name="Ibreve" unicode="&#x12c;" horiz-adv-x="278" 
d="M174 700h95l-123 -700h-95zM139.5 799.5q-36.5 32.5 -36.5 87.5q0 15 3 30h63q-4 -40 15.5 -63t58.5 -23q40 0 67.5 23t37.5 63h64q-12 -69 -58.5 -109.5t-115.5 -40.5q-62 0 -98.5 32.5z" />
    <glyph glyph-name="uni01CF" unicode="&#x1cf;" horiz-adv-x="278" 
d="M174 700h95l-123 -700h-95zM154 860q-29 44 -53 67h81q17 -17 34.5 -42t27.5 -47q15 20 42 45.5t52 43.5h81q-34 -24 -77.5 -67.5t-73.5 -85.5h-69q-16 42 -45 86z" />
    <glyph glyph-name="Icircumflex" unicode="&#xce;" horiz-adv-x="278" 
d="M174 700h95l-123 -700h-95zM151 840q44 44 74 87h69q16 -43 45 -87t53 -66h-82q-17 16 -33.5 41t-27.5 47q-15 -20 -42.5 -45.5t-51.5 -42.5h-81q33 22 77 66z" />
    <glyph glyph-name="Idieresis" unicode="&#xcf;" horiz-adv-x="278" 
d="M174 700h95l-123 -700h-95zM120 782q-12 12 -12 29q0 23 18 40.5t41 17.5q17 0 28.5 -12t11.5 -29q0 -22 -18 -40t-40 -18q-17 0 -29 12zM287.5 782q-11.5 12 -11.5 29q0 23 18 40.5t41 17.5q18 0 29.5 -12t11.5 -29q0 -22 -18 -40t-40 -18q-19 0 -30.5 12z" />
    <glyph glyph-name="Idotaccent" unicode="&#x130;" horiz-adv-x="278" 
d="M174 700h95l-123 -700h-95zM200 783.5q-13 13.5 -13 33.5q0 25 20.5 45t45.5 20q20 0 33 -13.5t13 -32.5q0 -25 -20 -45.5t-46 -20.5q-20 0 -33 13.5z" />
    <glyph glyph-name="uni1ECA" unicode="&#x1eca;" horiz-adv-x="278" 
d="M174 700h95l-123 -700h-95zM34 -160q-13 13 -13 33q0 25 20.5 45t45.5 20q20 0 33 -13t13 -33q0 -25 -20 -45t-46 -20q-20 0 -33 13z" />
    <glyph glyph-name="Igrave" unicode="&#xcc;" horiz-adv-x="278" 
d="M174 700h95l-123 -700h-95zM120 923h95l54 -149h-72z" />
    <glyph glyph-name="uni1EC8" unicode="&#x1ec8;" horiz-adv-x="278" 
d="M174 700h95l-123 -700h-95zM342 846q-27 -25 -73 -35l-7 -37h-66l12 70q46 5 67.5 17t21.5 36q0 15 -10.5 21t-30.5 6q-28 0 -56 -10l-7 49q39 17 81 17q44 0 69.5 -17t25.5 -51q0 -41 -27 -66z" />
    <glyph glyph-name="Imacron" unicode="&#x12a;" horiz-adv-x="278" 
d="M174 700h95l-123 -700h-95zM95 856h307l-11 -64h-307z" />
    <glyph glyph-name="Iogonek" unicode="&#x12e;" horiz-adv-x="278" 
d="M176 -138l6 -51q-38 -22 -81 -22q-56 0 -80 22.5t-24 54.5q0 33 20.5 67.5t57.5 66.5h-24l123 700h95l-123 -700h-8q-25 -28 -43.5 -59t-18.5 -57q0 -18 12 -27t32 -9q21 0 56 14z" />
    <glyph glyph-name="Itilde" unicode="&#x128;" horiz-adv-x="278" 
d="M174 700h95l-123 -700h-95zM115.5 862.5q30.5 33.5 77.5 33.5q20 0 35.5 -6.5t34.5 -18.5q18 -10 27 -14t20 -4q17 0 27.5 11.5t19.5 36.5h59q-12 -48 -43 -82t-72 -34q-21 0 -36.5 6.5t-34.5 18.5q-16 9 -25.5 13.5t-20.5 4.5q-18 0 -30 -12t-22 -38h-58
q11 51 41.5 84.5z" />
    <glyph glyph-name="J" unicode="J" horiz-adv-x="534" 
d="M80 10.5q-48 21.5 -81 67.5l67 58q23 -38 54 -55t77 -17q70 0 114 34.5t55 99.5l88 502h95l-88 -503q-18 -102 -85.5 -155t-180.5 -53q-67 0 -115 21.5z" />
    <glyph glyph-name="Jcircumflex" unicode="&#x134;" horiz-adv-x="534" 
d="M80 10.5q-48 21.5 -81 67.5l67 58q23 -38 54 -55t77 -17q70 0 114 34.5t55 99.5l88 502h95l-88 -503q-18 -102 -85.5 -155t-180.5 -53q-67 0 -115 21.5zM432 840q44 44 74 87h69q16 -43 45 -87t53 -66h-82q-17 16 -33.5 41t-27.5 47q-15 -20 -42.5 -45.5t-51.5 -42.5h-81
q33 22 77 66z" />
    <glyph glyph-name="K" unicode="K" horiz-adv-x="676" 
d="M504.5 396q28.5 -23 42 -59t21.5 -96l31 -241h-95l-30 232q-6 44 -14.5 67t-34 39.5t-78.5 21.5l-163 -146l-38 -214h-95l123 700h95l-65 -370l410 370h114l-304 -271q52 -10 80.5 -33z" />
    <glyph glyph-name="uni0136" unicode="&#x136;" horiz-adv-x="676" 
d="M504.5 396q28.5 -23 42 -59t21.5 -96l31 -241h-95l-30 232q-6 44 -14.5 67t-34 39.5t-78.5 21.5l-163 -146l-38 -214h-95l123 700h95l-65 -370l410 370h114l-304 -271q52 -10 80.5 -33zM351.5 -77q12.5 -14 12.5 -39q0 -48 -31.5 -93t-80.5 -77l-23 27q57 39 73 84
q-12 -6 -27 -6q-17 0 -26.5 10t-9.5 27q0 31 24 56t53 25q23 0 35.5 -14z" />
    <glyph glyph-name="L" unicode="L" horiz-adv-x="553" 
d="M106 38q-49 38 -49 116q0 32 5 58l87 488h95l-87 -488q-4 -30 -4 -40q0 -49 28 -73t87 -24h226l-13 -75h-222q-104 0 -153 38z" />
    <glyph glyph-name="Lacute" unicode="&#x139;" horiz-adv-x="553" 
d="M106 38q-49 38 -49 116q0 32 5 58l87 488h95l-87 -488q-4 -30 -4 -40q0 -49 28 -73t87 -24h226l-13 -75h-222q-104 0 -153 38zM276 923h95l-130 -149h-72z" />
    <glyph glyph-name="Lcaron" unicode="&#x13d;" horiz-adv-x="568" 
d="M106 38q-49 38 -49 116q0 32 5 58l87 488h95l-87 -488q-4 -30 -4 -40q0 -49 28 -73t87 -24h226l-13 -75h-222q-104 0 -153 38zM550 711.5q12 -13.5 12 -38.5q0 -48 -31.5 -94.5t-81.5 -80.5l-22 28q57 39 73 87q-12 -6 -27 -6q-16 0 -25.5 10t-9.5 27q0 31 23.5 56
t52.5 25q24 0 36 -13.5z" />
    <glyph glyph-name="uni013B" unicode="&#x13b;" horiz-adv-x="553" 
d="M106 38q-49 38 -49 116q0 32 5 58l87 488h95l-87 -488q-4 -30 -4 -40q0 -49 28 -73t87 -24h226l-13 -75h-222q-104 0 -153 38zM296.5 -77q12.5 -14 12.5 -39q0 -48 -31.5 -93t-80.5 -77l-23 27q57 39 73 84q-12 -6 -27 -6q-17 0 -26.5 10t-9.5 27q0 31 24 56t53 25
q23 0 35.5 -14z" />
    <glyph glyph-name="Ldot" unicode="&#x13f;" horiz-adv-x="553" 
d="M106 38q-49 38 -49 116q0 32 5 58l87 488h95l-87 -488q-4 -30 -4 -40q0 -49 28 -73t87 -24h226l-13 -75h-222q-104 0 -153 38zM350.5 288q-16.5 16 -16.5 40q0 32 25.5 57t57.5 25q25 0 41 -16.5t16 -40.5q0 -31 -24.5 -56t-56.5 -25q-26 0 -42.5 16z" />
    <glyph glyph-name="uni1E36" unicode="&#x1e36;" horiz-adv-x="553" 
d="M106 38q-49 38 -49 116q0 32 5 58l87 488h95l-87 -488q-4 -30 -4 -40q0 -49 28 -73t87 -24h226l-13 -75h-222q-104 0 -153 38zM208 -160q-13 13 -13 33q0 25 20.5 45t45.5 20q20 0 33 -13t13 -33q0 -25 -20 -45t-46 -20q-20 0 -33 13z" />
    <glyph glyph-name="uni1E38" unicode="&#x1e38;" horiz-adv-x="553" 
d="M106 38q-49 38 -49 116q0 32 5 58l87 488h95l-87 -488q-4 -30 -4 -40q0 -49 28 -73t87 -24h226l-13 -75h-222q-104 0 -153 38zM208 -160q-13 13 -13 33q0 25 20.5 45t45.5 20q20 0 33 -13t13 -33q0 -25 -20 -45t-46 -20q-20 0 -33 13zM69 856h307l-11 -64h-307z" />
    <glyph glyph-name="uni1E3A" unicode="&#x1e3a;" horiz-adv-x="553" 
d="M106 38q-49 38 -49 116q0 32 5 58l87 488h95l-87 -488q-4 -30 -4 -40q0 -49 28 -73t87 -24h226l-13 -75h-222q-104 0 -153 38zM104 -78h307l-12 -65h-306z" />
    <glyph glyph-name="Lslash" unicode="&#x141;" horiz-adv-x="564" 
d="M505 75l-13 -75h-222q-104 0 -153 38t-49 116q0 32 5 58l9 50l-83 -35l13 76l83 35l65 362h95l-57 -319l250 105l-13 -76l-250 -105l-17 -93q-4 -30 -4 -40q0 -49 28 -73t87 -24h226z" />
    <glyph glyph-name="M" unicode="M" horiz-adv-x="826" 
d="M174 700h53q36 0 58 -8.5t39.5 -32.5t33.5 -72l78 -228l156 228q42 62 79 87.5t92 25.5h53l-123 -700h-88l107 603q-13 -1 -26 -11t-28 -32l-249 -353l-126 353q-9 23 -16.5 32.5t-21.5 10.5l-106 -603h-88z" />
    <glyph glyph-name="uni1E42" unicode="&#x1e42;" horiz-adv-x="826" 
d="M174 700h53q36 0 58 -8.5t39.5 -32.5t33.5 -72l78 -228l156 228q42 62 79 87.5t92 25.5h53l-123 -700h-88l107 603q-13 -1 -26 -11t-28 -32l-249 -353l-126 353q-9 23 -16.5 32.5t-21.5 10.5l-106 -603h-88zM308 -160q-13 13 -13 33q0 25 20.5 45t45.5 20q20 0 33 -13
t13 -33q0 -25 -20 -45t-46 -20q-20 0 -33 13z" />
    <glyph glyph-name="N" unicode="N" horiz-adv-x="723" 
d="M725 700l-101 -576q-11 -63 -42.5 -93.5t-85.5 -30.5h-67l-191 554l-97 -554h-90l123 700h110l209 -618h6q15 0 23.5 12t13.5 44l99 562h90z" />
    <glyph glyph-name="Nacute" unicode="&#x143;" horiz-adv-x="723" 
d="M725 700l-101 -576q-11 -63 -42.5 -93.5t-85.5 -30.5h-67l-191 554l-97 -554h-90l123 700h110l209 -618h6q15 0 23.5 12t13.5 44l99 562h90zM527 923h95l-130 -149h-72z" />
    <glyph glyph-name="Ncaron" unicode="&#x147;" horiz-adv-x="723" 
d="M725 700l-101 -576q-11 -63 -42.5 -93.5t-85.5 -30.5h-67l-191 554l-97 -554h-90l123 700h110l209 -618h6q15 0 23.5 12t13.5 44l99 562h90zM380 860q-29 44 -53 67h81q17 -17 34.5 -42t27.5 -47q15 20 42 45.5t52 43.5h81q-34 -24 -77.5 -67.5t-73.5 -85.5h-69
q-16 42 -45 86z" />
    <glyph glyph-name="uni0145" unicode="&#x145;" horiz-adv-x="723" 
d="M725 700l-101 -576q-11 -63 -42.5 -93.5t-85.5 -30.5h-67l-191 554l-97 -554h-90l123 700h110l209 -618h6q15 0 23.5 12t13.5 44l99 562h90zM341.5 -77q12.5 -14 12.5 -39q0 -48 -31.5 -93t-80.5 -77l-23 27q57 39 73 84q-12 -6 -27 -6q-17 0 -26.5 10t-9.5 27
q0 31 24 56t53 25q23 0 35.5 -14z" />
    <glyph glyph-name="uni1E44" unicode="&#x1e44;" horiz-adv-x="723" 
d="M725 700l-101 -576q-11 -63 -42.5 -93.5t-85.5 -30.5h-67l-191 554l-97 -554h-90l123 700h110l209 -618h6q15 0 23.5 12t13.5 44l99 562h90zM426 783.5q-13 13.5 -13 33.5q0 25 20.5 45t45.5 20q20 0 33 -13.5t13 -32.5q0 -25 -20 -45.5t-46 -20.5q-20 0 -33 13.5z" />
    <glyph glyph-name="uni1E46" unicode="&#x1e46;" horiz-adv-x="723" 
d="M725 700l-101 -576q-11 -63 -42.5 -93.5t-85.5 -30.5h-67l-191 554l-97 -554h-90l123 700h110l209 -618h6q15 0 23.5 12t13.5 44l99 562h90zM253 -160q-13 13 -13 33q0 25 20.5 45t45.5 20q20 0 33 -13t13 -33q0 -25 -20 -45t-46 -20q-20 0 -33 13z" />
    <glyph glyph-name="Eng" unicode="&#x14a;" horiz-adv-x="723" 
d="M348 -153h48q45 0 71 24t36 80l9 50q-5 -1 -16 -1h-67l-191 554l-97 -554h-90l123 700h110l209 -618h6q14 0 22.5 10.5t12.5 35.5l101 572h90l-132 -749q-16 -93 -65 -136t-145 -43h-48z" />
    <glyph glyph-name="uni1E48" unicode="&#x1e48;" horiz-adv-x="723" 
d="M725 700l-101 -576q-11 -63 -42.5 -93.5t-85.5 -30.5h-67l-191 554l-97 -554h-90l123 700h110l209 -618h6q15 0 23.5 12t13.5 44l99 562h90zM149 -78h307l-12 -65h-306z" />
    <glyph glyph-name="Ntilde" unicode="&#xd1;" horiz-adv-x="723" 
d="M725 700l-101 -576q-11 -63 -42.5 -93.5t-85.5 -30.5h-67l-191 554l-97 -554h-90l123 700h110l209 -618h6q15 0 23.5 12t13.5 44l99 562h90zM341.5 862.5q30.5 33.5 77.5 33.5q20 0 35.5 -6.5t34.5 -18.5q18 -10 27 -14t20 -4q17 0 27.5 11.5t19.5 36.5h59
q-12 -48 -43 -82t-72 -34q-21 0 -36.5 6.5t-34.5 18.5q-16 9 -25.5 13.5t-20.5 4.5q-18 0 -30 -12t-22 -38h-58q11 51 41.5 84.5z" />
    <glyph glyph-name="O" unicode="O" horiz-adv-x="681" 
d="M122 40.5q-64 51.5 -64 147.5q0 23 5 56l38 212q22 126 102 190.5t213 64.5q119 0 183 -52t64 -147q0 -23 -5 -56l-37 -212q-23 -126 -102 -190.5t-212 -64.5q-121 0 -185 51.5zM454.5 110.5q55.5 46.5 71.5 133.5l37 212q4 21 4 45q0 65 -40 100t-116 35q-88 0 -144 -47
t-71 -133l-38 -212q-4 -21 -4 -45q0 -65 40 -100t116 -35q89 0 144.5 46.5z" />
    <glyph glyph-name="Oacute" unicode="&#xd3;" horiz-adv-x="681" 
d="M122 40.5q-64 51.5 -64 147.5q0 23 5 56l38 212q22 126 102 190.5t213 64.5q119 0 183 -52t64 -147q0 -23 -5 -56l-37 -212q-23 -126 -102 -190.5t-212 -64.5q-121 0 -185 51.5zM454.5 110.5q55.5 46.5 71.5 133.5l37 212q4 21 4 45q0 65 -40 100t-116 35q-88 0 -144 -47
t-71 -133l-38 -212q-4 -21 -4 -45q0 -65 40 -100t116 -35q89 0 144.5 46.5zM496 923h95l-130 -149h-72z" />
    <glyph glyph-name="Obreve" unicode="&#x14e;" horiz-adv-x="681" 
d="M122 40.5q-64 51.5 -64 147.5q0 23 5 56l38 212q22 126 102 190.5t213 64.5q119 0 183 -52t64 -147q0 -23 -5 -56l-37 -212q-23 -126 -102 -190.5t-212 -64.5q-121 0 -185 51.5zM454.5 110.5q55.5 46.5 71.5 133.5l37 212q4 21 4 45q0 65 -40 100t-116 35q-88 0 -144 -47
t-71 -133l-38 -212q-4 -21 -4 -45q0 -65 40 -100t116 -35q89 0 144.5 46.5zM334.5 799.5q-36.5 32.5 -36.5 87.5q0 15 3 30h63q-4 -40 15.5 -63t58.5 -23q40 0 67.5 23t37.5 63h64q-12 -69 -58.5 -109.5t-115.5 -40.5q-62 0 -98.5 32.5z" />
    <glyph glyph-name="uni01D1" unicode="&#x1d1;" horiz-adv-x="681" 
d="M122 40.5q-64 51.5 -64 147.5q0 23 5 56l38 212q22 126 102 190.5t213 64.5q119 0 183 -52t64 -147q0 -23 -5 -56l-37 -212q-23 -126 -102 -190.5t-212 -64.5q-121 0 -185 51.5zM454.5 110.5q55.5 46.5 71.5 133.5l37 212q4 21 4 45q0 65 -40 100t-116 35q-88 0 -144 -47
t-71 -133l-38 -212q-4 -21 -4 -45q0 -65 40 -100t116 -35q89 0 144.5 46.5zM349 860q-29 44 -53 67h81q17 -17 34.5 -42t27.5 -47q15 20 42 45.5t52 43.5h81q-34 -24 -77.5 -67.5t-73.5 -85.5h-69q-16 42 -45 86z" />
    <glyph glyph-name="Ocircumflex" unicode="&#xd4;" horiz-adv-x="681" 
d="M122 40.5q-64 51.5 -64 147.5q0 23 5 56l38 212q22 126 102 190.5t213 64.5q119 0 183 -52t64 -147q0 -23 -5 -56l-37 -212q-23 -126 -102 -190.5t-212 -64.5q-121 0 -185 51.5zM454.5 110.5q55.5 46.5 71.5 133.5l37 212q4 21 4 45q0 65 -40 100t-116 35q-88 0 -144 -47
t-71 -133l-38 -212q-4 -21 -4 -45q0 -65 40 -100t116 -35q89 0 144.5 46.5zM346 840q44 44 74 87h69q16 -43 45 -87t53 -66h-82q-17 16 -33.5 41t-27.5 47q-15 -20 -42.5 -45.5t-51.5 -42.5h-81q33 22 77 66z" />
    <glyph glyph-name="uni1ED0" unicode="&#x1ed0;" horiz-adv-x="681" 
d="M122 40.5q-64 51.5 -64 147.5q0 23 5 56l38 212q22 126 102 190.5t213 64.5q119 0 183 -52t64 -147q0 -23 -5 -56l-37 -212q-23 -126 -102 -190.5t-212 -64.5q-121 0 -185 51.5zM454.5 110.5q55.5 46.5 71.5 133.5l37 212q4 21 4 45q0 65 -40 100t-116 35q-88 0 -144 -47
t-71 -133l-38 -212q-4 -21 -4 -45q0 -65 40 -100t116 -35q89 0 144.5 46.5zM635 983h89l-104 -116h-68zM345.5 841q44.5 44 73.5 86h70q15 -43 43.5 -87.5t53.5 -65.5h-78q-18 17 -36.5 43t-25.5 45q-14 -20 -41.5 -46t-51.5 -42h-85q33 23 77.5 67z" />
    <glyph glyph-name="uni1ED8" unicode="&#x1ed8;" horiz-adv-x="681" 
d="M122 40.5q-64 51.5 -64 147.5q0 23 5 56l38 212q22 126 102 190.5t213 64.5q119 0 183 -52t64 -147q0 -23 -5 -56l-37 -212q-23 -126 -102 -190.5t-212 -64.5q-121 0 -185 51.5zM454.5 110.5q55.5 46.5 71.5 133.5l37 212q4 21 4 45q0 65 -40 100t-116 35q-88 0 -144 -47
t-71 -133l-38 -212q-4 -21 -4 -45q0 -65 40 -100t116 -35q89 0 144.5 46.5zM229 -160q-13 13 -13 33q0 25 20.5 45t45.5 20q20 0 33 -13t13 -33q0 -25 -20 -45t-46 -20q-20 0 -33 13zM346 840q44 44 74 87h69q16 -43 45 -87t53 -66h-82q-17 16 -33.5 41t-27.5 47
q-15 -20 -42.5 -45.5t-51.5 -42.5h-81q33 22 77 66z" />
    <glyph glyph-name="uni1ED2" unicode="&#x1ed2;" horiz-adv-x="681" 
d="M122 40.5q-64 51.5 -64 147.5q0 23 5 56l38 212q22 126 102 190.5t213 64.5q119 0 183 -52t64 -147q0 -23 -5 -56l-37 -212q-23 -126 -102 -190.5t-212 -64.5q-121 0 -185 51.5zM454.5 110.5q55.5 46.5 71.5 133.5l37 212q4 21 4 45q0 65 -40 100t-116 35q-88 0 -144 -47
t-71 -133l-38 -212q-4 -21 -4 -45q0 -65 40 -100t116 -35q89 0 144.5 46.5zM541 983h89l43 -116h-68zM345.5 841q44.5 44 73.5 86h70q15 -43 43.5 -87.5t53.5 -65.5h-78q-18 17 -36.5 43t-25.5 45q-14 -20 -41.5 -46t-51.5 -42h-85q33 23 77.5 67z" />
    <glyph glyph-name="uni1ED4" unicode="&#x1ed4;" horiz-adv-x="681" 
d="M122 40.5q-64 51.5 -64 147.5q0 23 5 56l38 212q22 126 102 190.5t213 64.5q119 0 183 -52t64 -147q0 -23 -5 -56l-37 -212q-23 -126 -102 -190.5t-212 -64.5q-121 0 -185 51.5zM454.5 110.5q55.5 46.5 71.5 133.5l37 212q4 21 4 45q0 65 -40 100t-116 35q-88 0 -144 -47
t-71 -133l-38 -212q-4 -21 -4 -45q0 -65 40 -100t116 -35q89 0 144.5 46.5zM686.5 927q-21.5 -20 -61.5 -29l-6 -34h-59l12 64q44 5 60.5 14t16.5 30q0 13 -9 17t-28 4q-24 0 -51 -10l-6 45q36 14 73 14q80 0 80 -56q0 -39 -21.5 -59zM532.5 839.5q28.5 -44.5 53.5 -65.5
h-78q-18 17 -36.5 43t-25.5 45q-14 -20 -41.5 -46t-51.5 -42h-85q33 23 77.5 67t73.5 86h70q15 -43 43.5 -87.5z" />
    <glyph glyph-name="uni1ED6" unicode="&#x1ed6;" horiz-adv-x="681" 
d="M122 40.5q-64 51.5 -64 147.5q0 23 5 56l38 212q22 126 102 190.5t213 64.5q119 0 183 -52t64 -147q0 -23 -5 -56l-37 -212q-23 -126 -102 -190.5t-212 -64.5q-121 0 -185 51.5zM454.5 110.5q55.5 46.5 71.5 133.5l37 212q4 21 4 45q0 65 -40 100t-116 35q-88 0 -144 -47
t-71 -133l-38 -212q-4 -21 -4 -45q0 -65 40 -100t116 -35q89 0 144.5 46.5zM347 1031q29 30 74 30q18 0 31.5 -5.5t33.5 -16.5q26 -17 44 -17q15 0 25 10.5t18 33.5h53q-11 -43 -40 -73t-67 -30q-19 0 -32 5.5t-34 16.5q-10 6 -21 11t-21 5q-17 0 -28.5 -10.5t-20.5 -34.5
h-54q10 45 39 75zM345.5 841q44.5 44 73.5 86h70q15 -43 43.5 -87.5t53.5 -65.5h-78q-18 17 -36.5 43t-25.5 45q-14 -20 -41.5 -46t-51.5 -42h-85q33 23 77.5 67z" />
    <glyph glyph-name="Odieresis" unicode="&#xd6;" horiz-adv-x="681" 
d="M122 40.5q-64 51.5 -64 147.5q0 23 5 56l38 212q22 126 102 190.5t213 64.5q119 0 183 -52t64 -147q0 -23 -5 -56l-37 -212q-23 -126 -102 -190.5t-212 -64.5q-121 0 -185 51.5zM454.5 110.5q55.5 46.5 71.5 133.5l37 212q4 21 4 45q0 65 -40 100t-116 35q-88 0 -144 -47
t-71 -133l-38 -212q-4 -21 -4 -45q0 -65 40 -100t116 -35q89 0 144.5 46.5zM315 782q-12 12 -12 29q0 23 18 40.5t41 17.5q17 0 28.5 -12t11.5 -29q0 -22 -18 -40t-40 -18q-17 0 -29 12zM482.5 782q-11.5 12 -11.5 29q0 23 18 40.5t41 17.5q18 0 29.5 -12t11.5 -29
q0 -22 -18 -40t-40 -18q-19 0 -30.5 12z" />
    <glyph glyph-name="uni1ECC" unicode="&#x1ecc;" horiz-adv-x="681" 
d="M122 40.5q-64 51.5 -64 147.5q0 23 5 56l38 212q22 126 102 190.5t213 64.5q119 0 183 -52t64 -147q0 -23 -5 -56l-37 -212q-23 -126 -102 -190.5t-212 -64.5q-121 0 -185 51.5zM454.5 110.5q55.5 46.5 71.5 133.5l37 212q4 21 4 45q0 65 -40 100t-116 35q-88 0 -144 -47
t-71 -133l-38 -212q-4 -21 -4 -45q0 -65 40 -100t116 -35q89 0 144.5 46.5zM229 -160q-13 13 -13 33q0 25 20.5 45t45.5 20q20 0 33 -13t13 -33q0 -25 -20 -45t-46 -20q-20 0 -33 13z" />
    <glyph glyph-name="Ograve" unicode="&#xd2;" horiz-adv-x="681" 
d="M122 40.5q-64 51.5 -64 147.5q0 23 5 56l38 212q22 126 102 190.5t213 64.5q119 0 183 -52t64 -147q0 -23 -5 -56l-37 -212q-23 -126 -102 -190.5t-212 -64.5q-121 0 -185 51.5zM454.5 110.5q55.5 46.5 71.5 133.5l37 212q4 21 4 45q0 65 -40 100t-116 35q-88 0 -144 -47
t-71 -133l-38 -212q-4 -21 -4 -45q0 -65 40 -100t116 -35q89 0 144.5 46.5zM315 923h95l54 -149h-72z" />
    <glyph glyph-name="uni1ECE" unicode="&#x1ece;" horiz-adv-x="681" 
d="M122 40.5q-64 51.5 -64 147.5q0 23 5 56l38 212q22 126 102 190.5t213 64.5q119 0 183 -52t64 -147q0 -23 -5 -56l-37 -212q-23 -126 -102 -190.5t-212 -64.5q-121 0 -185 51.5zM454.5 110.5q55.5 46.5 71.5 133.5l37 212q4 21 4 45q0 65 -40 100t-116 35q-88 0 -144 -47
t-71 -133l-38 -212q-4 -21 -4 -45q0 -65 40 -100t116 -35q89 0 144.5 46.5zM537 846q-27 -25 -73 -35l-7 -37h-66l12 70q46 5 67.5 17t21.5 36q0 15 -10.5 21t-30.5 6q-28 0 -56 -10l-7 49q39 17 81 17q44 0 69.5 -17t25.5 -51q0 -41 -27 -66z" />
    <glyph glyph-name="Ohorn" unicode="&#x1a0;" horiz-adv-x="693" 
d="M770.5 597q-39.5 -44 -109.5 -53q2 -10 2 -33q0 -31 -5 -55l-37 -212q-23 -126 -102 -190.5t-212 -64.5q-121 0 -185 51.5t-64 147.5q0 23 5 56l38 212q22 126 102 190.5t213 64.5q91 0 150.5 -31t82.5 -89q42 6 63.5 39t34.5 100h81q-18 -89 -57.5 -133zM567 501
q0 65 -40 100t-116 35q-88 0 -144 -47t-71 -133l-38 -212q-4 -21 -4 -45q0 -65 40 -100t116 -35q89 0 144.5 46.5t71.5 133.5l37 212q4 21 4 45z" />
    <glyph glyph-name="uni1EDA" unicode="&#x1eda;" horiz-adv-x="693" 
d="M770.5 597q-39.5 -44 -109.5 -53q2 -10 2 -33q0 -31 -5 -55l-37 -212q-23 -126 -102 -190.5t-212 -64.5q-121 0 -185 51.5t-64 147.5q0 23 5 56l38 212q22 126 102 190.5t213 64.5q91 0 150.5 -31t82.5 -89q42 6 63.5 39t34.5 100h81q-18 -89 -57.5 -133zM567 501
q0 65 -40 100t-116 35q-88 0 -144 -47t-71 -133l-38 -212q-4 -21 -4 -45q0 -65 40 -100t116 -35q89 0 144.5 46.5t71.5 133.5l37 212q4 21 4 45zM496 923h95l-130 -149h-72z" />
    <glyph glyph-name="uni1EE2" unicode="&#x1ee2;" horiz-adv-x="693" 
d="M770.5 597q-39.5 -44 -109.5 -53q2 -10 2 -33q0 -31 -5 -55l-37 -212q-23 -126 -102 -190.5t-212 -64.5q-121 0 -185 51.5t-64 147.5q0 23 5 56l38 212q22 126 102 190.5t213 64.5q91 0 150.5 -31t82.5 -89q42 6 63.5 39t34.5 100h81q-18 -89 -57.5 -133zM567 501
q0 65 -40 100t-116 35q-88 0 -144 -47t-71 -133l-38 -212q-4 -21 -4 -45q0 -65 40 -100t116 -35q89 0 144.5 46.5t71.5 133.5l37 212q4 21 4 45zM229 -160q-13 13 -13 33q0 25 20.5 45t45.5 20q20 0 33 -13t13 -33q0 -25 -20 -45t-46 -20q-20 0 -33 13z" />
    <glyph glyph-name="uni1EDC" unicode="&#x1edc;" horiz-adv-x="693" 
d="M770.5 597q-39.5 -44 -109.5 -53q2 -10 2 -33q0 -31 -5 -55l-37 -212q-23 -126 -102 -190.5t-212 -64.5q-121 0 -185 51.5t-64 147.5q0 23 5 56l38 212q22 126 102 190.5t213 64.5q91 0 150.5 -31t82.5 -89q42 6 63.5 39t34.5 100h81q-18 -89 -57.5 -133zM567 501
q0 65 -40 100t-116 35q-88 0 -144 -47t-71 -133l-38 -212q-4 -21 -4 -45q0 -65 40 -100t116 -35q89 0 144.5 46.5t71.5 133.5l37 212q4 21 4 45zM315 923h95l54 -149h-72z" />
    <glyph glyph-name="uni1EDE" unicode="&#x1ede;" horiz-adv-x="693" 
d="M770.5 597q-39.5 -44 -109.5 -53q2 -10 2 -33q0 -31 -5 -55l-37 -212q-23 -126 -102 -190.5t-212 -64.5q-121 0 -185 51.5t-64 147.5q0 23 5 56l38 212q22 126 102 190.5t213 64.5q91 0 150.5 -31t82.5 -89q42 6 63.5 39t34.5 100h81q-18 -89 -57.5 -133zM567 501
q0 65 -40 100t-116 35q-88 0 -144 -47t-71 -133l-38 -212q-4 -21 -4 -45q0 -65 40 -100t116 -35q89 0 144.5 46.5t71.5 133.5l37 212q4 21 4 45zM537 846q-27 -25 -73 -35l-7 -37h-66l12 70q46 5 67.5 17t21.5 36q0 15 -10.5 21t-30.5 6q-28 0 -56 -10l-7 49q39 17 81 17
q44 0 69.5 -17t25.5 -51q0 -41 -27 -66z" />
    <glyph glyph-name="uni1EE0" unicode="&#x1ee0;" horiz-adv-x="693" 
d="M770.5 597q-39.5 -44 -109.5 -53q2 -10 2 -33q0 -31 -5 -55l-37 -212q-23 -126 -102 -190.5t-212 -64.5q-121 0 -185 51.5t-64 147.5q0 23 5 56l38 212q22 126 102 190.5t213 64.5q91 0 150.5 -31t82.5 -89q42 6 63.5 39t34.5 100h81q-18 -89 -57.5 -133zM567 501
q0 65 -40 100t-116 35q-88 0 -144 -47t-71 -133l-38 -212q-4 -21 -4 -45q0 -65 40 -100t116 -35q89 0 144.5 46.5t71.5 133.5l37 212q4 21 4 45zM310.5 862.5q30.5 33.5 77.5 33.5q20 0 35.5 -6.5t34.5 -18.5q18 -10 27 -14t20 -4q17 0 27.5 11.5t19.5 36.5h59
q-12 -48 -43 -82t-72 -34q-21 0 -36.5 6.5t-34.5 18.5q-16 9 -25.5 13.5t-20.5 4.5q-18 0 -30 -12t-22 -38h-58q11 51 41.5 84.5z" />
    <glyph glyph-name="Ohungarumlaut" unicode="&#x150;" horiz-adv-x="681" 
d="M122 40.5q-64 51.5 -64 147.5q0 23 5 56l38 212q22 126 102 190.5t213 64.5q119 0 183 -52t64 -147q0 -23 -5 -56l-37 -212q-23 -126 -102 -190.5t-212 -64.5q-121 0 -185 51.5zM454.5 110.5q55.5 46.5 71.5 133.5l37 212q4 21 4 45q0 65 -40 100t-116 35q-88 0 -144 -47
t-71 -133l-38 -212q-4 -21 -4 -45q0 -65 40 -100t116 -35q89 0 144.5 46.5zM403 923h83l-108 -149h-67zM568 923h83l-108 -149h-66z" />
    <glyph glyph-name="Omacron" unicode="&#x14c;" horiz-adv-x="681" 
d="M122 40.5q-64 51.5 -64 147.5q0 23 5 56l38 212q22 126 102 190.5t213 64.5q119 0 183 -52t64 -147q0 -23 -5 -56l-37 -212q-23 -126 -102 -190.5t-212 -64.5q-121 0 -185 51.5zM454.5 110.5q55.5 46.5 71.5 133.5l37 212q4 21 4 45q0 65 -40 100t-116 35q-88 0 -144 -47
t-71 -133l-38 -212q-4 -21 -4 -45q0 -65 40 -100t116 -35q89 0 144.5 46.5zM289 856h307l-11 -64h-307z" />
    <glyph glyph-name="Oslash" unicode="&#xd8;" horiz-adv-x="681" 
d="M663 512q0 -23 -5 -56l-37 -212q-23 -126 -102 -190.5t-212 -64.5q-76 0 -133 22l-56 -81h-73l76 111q-63 52 -63 146q0 32 5 57l38 212q22 126 102 190.5t213 64.5q87 0 147 -29l60 88h73l-84 -122q51 -51 51 -136zM154 199q0 -47 21 -79l339 491q-38 25 -103 25
q-88 0 -144 -47t-71 -133l-38 -212q-4 -21 -4 -45zM567 502q0 35 -12 62l-333 -483q36 -17 88 -17q89 0 144.5 46.5t71.5 133.5l37 212q4 21 4 46z" />
    <glyph glyph-name="Oslashacute" unicode="&#x1fe;" horiz-adv-x="681" 
d="M663 512q0 -23 -5 -56l-37 -212q-23 -126 -102 -190.5t-212 -64.5q-76 0 -133 22l-56 -81h-73l76 111q-63 52 -63 146q0 32 5 57l38 212q22 126 102 190.5t213 64.5q87 0 147 -29l60 88h73l-84 -122q51 -51 51 -136zM154 199q0 -47 21 -79l339 491q-38 25 -103 25
q-88 0 -144 -47t-71 -133l-38 -212q-4 -21 -4 -45zM567 502q0 35 -12 62l-333 -483q36 -17 88 -17q89 0 144.5 46.5t71.5 133.5l37 212q4 21 4 46zM496 923h95l-130 -149h-72z" />
    <glyph glyph-name="Otilde" unicode="&#xd5;" horiz-adv-x="681" 
d="M122 40.5q-64 51.5 -64 147.5q0 23 5 56l38 212q22 126 102 190.5t213 64.5q119 0 183 -52t64 -147q0 -23 -5 -56l-37 -212q-23 -126 -102 -190.5t-212 -64.5q-121 0 -185 51.5zM454.5 110.5q55.5 46.5 71.5 133.5l37 212q4 21 4 45q0 65 -40 100t-116 35q-88 0 -144 -47
t-71 -133l-38 -212q-4 -21 -4 -45q0 -65 40 -100t116 -35q89 0 144.5 46.5zM310.5 862.5q30.5 33.5 77.5 33.5q20 0 35.5 -6.5t34.5 -18.5q18 -10 27 -14t20 -4q17 0 27.5 11.5t19.5 36.5h59q-12 -48 -43 -82t-72 -34q-21 0 -36.5 6.5t-34.5 18.5q-16 9 -25.5 13.5
t-20.5 4.5q-18 0 -30 -12t-22 -38h-58q11 51 41.5 84.5z" />
    <glyph glyph-name="OE" unicode="&#x152;" horiz-adv-x="1045" 
d="M650 412l-4 -24h331l-13 -76h-331l-4 -24l-8 -44l-3 -14l-3 -18q-4 -28 -4 -39q0 -49 29 -73.5t92 -24.5h243l-13 -75h-244q-139 0 -183 71q-87 -82 -238 -82q-117 0 -178.5 49.5t-61.5 144.5q0 30 6 61l38 212q22 124 105.5 189.5t217.5 65.5q153 0 209 -82
q69 71 209 71h238l-13 -75h-239q-72 0 -112 -33.5t-52 -103.5zM454.5 110.5q55.5 46.5 70.5 133.5l37 212q4 21 4 46q0 65 -39.5 99.5t-115.5 34.5q-88 0 -143.5 -46.5t-71.5 -133.5l-37 -212q-4 -21 -4 -45q0 -66 39.5 -100.5t115.5 -34.5q89 0 144.5 46.5z" />
    <glyph glyph-name="P" unicode="P" horiz-adv-x="631" 
d="M174 700h282q96 0 147 -44.5t51 -129.5q0 -74 -32.5 -129.5t-91 -86t-135.5 -30.5h-200l-49 -280h-95zM404 355q71 0 113 47t42 122q0 49 -28 75t-80 26h-195l-48 -270h196z" />
    <glyph glyph-name="Thorn" unicode="&#xde;" horiz-adv-x="630" 
d="M174 700h95l-24 -137h186q96 0 147 -44.5t51 -129.5q0 -74 -32.5 -129.5t-91 -86t-135.5 -30.5h-199l-25 -143h-95zM379 218q71 0 113 47t42 122q0 49 -28 74.5t-80 25.5h-195l-47 -269h195z" />
    <glyph glyph-name="Q" unicode="Q" horiz-adv-x="681" 
d="M599 659q64 -52 64 -147q0 -23 -5 -56l-37 -212q-20 -108 -81 -171t-162 -79q37 -49 150 -52l-15 -81q-99 2 -154.5 33.5t-75.5 95.5q-109 4 -167 55t-58 142q0 24 5 57l38 212q22 126 102 190.5t213 64.5q119 0 183 -52zM567 501q0 65 -40 100t-116 35q-88 0 -144 -47
t-71 -133l-38 -212q-4 -21 -4 -45q0 -65 40 -100t116 -35q89 0 144.5 46.5t71.5 133.5l37 212q4 21 4 45z" />
    <glyph glyph-name="R" unicode="R" horiz-adv-x="670" 
d="M609 404q-47 -55 -125 -70q46 -17 64 -56.5t25 -106.5l17 -171h-101l-17 172q-5 50 -16.5 78t-38 42t-76.5 14h-141l-54 -306h-95l123 700h293q86 0 137.5 -45t51.5 -120q0 -76 -47 -131zM518.5 423q42.5 42 42.5 108q0 45 -29.5 69.5t-79.5 24.5h-196l-43 -244h196
q67 0 109.5 42z" />
    <glyph glyph-name="Racute" unicode="&#x154;" horiz-adv-x="670" 
d="M609 404q-47 -55 -125 -70q46 -17 64 -56.5t25 -106.5l17 -171h-101l-17 172q-5 50 -16.5 78t-38 42t-76.5 14h-141l-54 -306h-95l123 700h293q86 0 137.5 -45t51.5 -120q0 -76 -47 -131zM518.5 423q42.5 42 42.5 108q0 45 -29.5 69.5t-79.5 24.5h-196l-43 -244h196
q67 0 109.5 42zM493 923h95l-130 -149h-72z" />
    <glyph glyph-name="Rcaron" unicode="&#x158;" horiz-adv-x="670" 
d="M609 404q-47 -55 -125 -70q46 -17 64 -56.5t25 -106.5l17 -171h-101l-17 172q-5 50 -16.5 78t-38 42t-76.5 14h-141l-54 -306h-95l123 700h293q86 0 137.5 -45t51.5 -120q0 -76 -47 -131zM518.5 423q42.5 42 42.5 108q0 45 -29.5 69.5t-79.5 24.5h-196l-43 -244h196
q67 0 109.5 42zM346 860q-29 44 -53 67h81q17 -17 34.5 -42t27.5 -47q15 20 42 45.5t52 43.5h81q-34 -24 -77.5 -67.5t-73.5 -85.5h-69q-16 42 -45 86z" />
    <glyph glyph-name="uni0156" unicode="&#x156;" horiz-adv-x="670" 
d="M609 404q-47 -55 -125 -70q46 -17 64 -56.5t25 -106.5l17 -171h-101l-17 172q-5 50 -16.5 78t-38 42t-76.5 14h-141l-54 -306h-95l123 700h293q86 0 137.5 -45t51.5 -120q0 -76 -47 -131zM518.5 423q42.5 42 42.5 108q0 45 -29.5 69.5t-79.5 24.5h-196l-43 -244h196
q67 0 109.5 42zM326.5 -77q12.5 -14 12.5 -39q0 -48 -31.5 -93t-80.5 -77l-23 27q57 39 73 84q-12 -6 -27 -6q-17 0 -26.5 10t-9.5 27q0 31 24 56t53 25q23 0 35.5 -14z" />
    <glyph glyph-name="uni1E5A" unicode="&#x1e5a;" horiz-adv-x="670" 
d="M609 404q-47 -55 -125 -70q46 -17 64 -56.5t25 -106.5l17 -171h-101l-17 172q-5 50 -16.5 78t-38 42t-76.5 14h-141l-54 -306h-95l123 700h293q86 0 137.5 -45t51.5 -120q0 -76 -47 -131zM518.5 423q42.5 42 42.5 108q0 45 -29.5 69.5t-79.5 24.5h-196l-43 -244h196
q67 0 109.5 42zM238 -160q-13 13 -13 33q0 25 20.5 45t45.5 20q20 0 33 -13t13 -33q0 -25 -20 -45t-46 -20q-20 0 -33 13z" />
    <glyph glyph-name="uni1E5C" unicode="&#x1e5c;" horiz-adv-x="670" 
d="M609 404q-47 -55 -125 -70q46 -17 64 -56.5t25 -106.5l17 -171h-101l-17 172q-5 50 -16.5 78t-38 42t-76.5 14h-141l-54 -306h-95l123 700h293q86 0 137.5 -45t51.5 -120q0 -76 -47 -131zM518.5 423q42.5 42 42.5 108q0 45 -29.5 69.5t-79.5 24.5h-196l-43 -244h196
q67 0 109.5 42zM238 -160q-13 13 -13 33q0 25 20.5 45t45.5 20q20 0 33 -13t13 -33q0 -25 -20 -45t-46 -20q-20 0 -33 13zM286 856h307l-11 -64h-307z" />
    <glyph glyph-name="uni1E5E" unicode="&#x1e5e;" horiz-adv-x="670" 
d="M609 404q-47 -55 -125 -70q46 -17 64 -56.5t25 -106.5l17 -171h-101l-17 172q-5 50 -16.5 78t-38 42t-76.5 14h-141l-54 -306h-95l123 700h293q86 0 137.5 -45t51.5 -120q0 -76 -47 -131zM518.5 423q42.5 42 42.5 108q0 45 -29.5 69.5t-79.5 24.5h-196l-43 -244h196
q67 0 109.5 42zM134 -78h307l-12 -65h-306z" />
    <glyph glyph-name="S" unicode="S" horiz-adv-x="623" 
d="M115.5 19.5q-57.5 30.5 -95.5 94.5l75 55q29 -55 72 -80t107 -25q94 0 149 39.5t55 105.5q0 32 -22.5 51t-56.5 29.5t-96 23.5l-23 5q-80 18 -123 57.5t-43 108.5q0 67 33.5 118.5t95.5 80t146 28.5q90 0 149 -29t85 -84l-73 -52q-53 90 -166 90q-80 0 -126.5 -38.5
t-46.5 -102.5q0 -47 37 -68.5t105 -34.5q71 -15 115.5 -30.5t75.5 -50t31 -93.5q0 -68 -37.5 -120t-107 -80.5t-163.5 -28.5t-151.5 30.5z" />
    <glyph glyph-name="Sacute" unicode="&#x15a;" horiz-adv-x="623" 
d="M115.5 19.5q-57.5 30.5 -95.5 94.5l75 55q29 -55 72 -80t107 -25q94 0 149 39.5t55 105.5q0 32 -22.5 51t-56.5 29.5t-96 23.5l-23 5q-80 18 -123 57.5t-43 108.5q0 67 33.5 118.5t95.5 80t146 28.5q90 0 149 -29t85 -84l-73 -52q-53 90 -166 90q-80 0 -126.5 -38.5
t-46.5 -102.5q0 -47 37 -68.5t105 -34.5q71 -15 115.5 -30.5t75.5 -50t31 -93.5q0 -68 -37.5 -120t-107 -80.5t-163.5 -28.5t-151.5 30.5zM481 923h95l-130 -149h-72z" />
    <glyph glyph-name="Scaron" unicode="&#x160;" horiz-adv-x="623" 
d="M115.5 19.5q-57.5 30.5 -95.5 94.5l75 55q29 -55 72 -80t107 -25q94 0 149 39.5t55 105.5q0 32 -22.5 51t-56.5 29.5t-96 23.5l-23 5q-80 18 -123 57.5t-43 108.5q0 67 33.5 118.5t95.5 80t146 28.5q90 0 149 -29t85 -84l-73 -52q-53 90 -166 90q-80 0 -126.5 -38.5
t-46.5 -102.5q0 -47 37 -68.5t105 -34.5q71 -15 115.5 -30.5t75.5 -50t31 -93.5q0 -68 -37.5 -120t-107 -80.5t-163.5 -28.5t-151.5 30.5zM334 860q-29 44 -53 67h81q17 -17 34.5 -42t27.5 -47q15 20 42 45.5t52 43.5h81q-34 -24 -77.5 -67.5t-73.5 -85.5h-69q-16 42 -45 86
z" />
    <glyph glyph-name="Scedilla" unicode="&#x15e;" horiz-adv-x="623" 
d="M468.5 361.5q44.5 -15.5 75.5 -50t31 -93.5q0 -95 -70.5 -156t-194.5 -71l-16 -35q36 -2 54 -19t18 -46q0 -48 -35 -74t-100 -26q-57 0 -92 21l24 50q14 -8 32 -12.5t34 -4.5q33 0 49 9t16 29q0 27 -52 27q-7 0 -31 -2l34 81q-84 4 -136.5 34.5t-88.5 90.5l75 55
q29 -55 72 -80t107 -25q94 0 149 39.5t55 105.5q0 32 -22.5 51t-56.5 29.5t-96 23.5l-23 5q-80 18 -123 57.5t-43 108.5q0 67 33.5 118.5t95.5 80t146 28.5q90 0 149 -29t85 -84l-73 -52q-53 90 -166 90q-80 0 -126.5 -38.5t-46.5 -102.5q0 -47 37 -68.5t105 -34.5
q71 -15 115.5 -30.5z" />
    <glyph glyph-name="Scircumflex" unicode="&#x15c;" horiz-adv-x="623" 
d="M115.5 19.5q-57.5 30.5 -95.5 94.5l75 55q29 -55 72 -80t107 -25q94 0 149 39.5t55 105.5q0 32 -22.5 51t-56.5 29.5t-96 23.5l-23 5q-80 18 -123 57.5t-43 108.5q0 67 33.5 118.5t95.5 80t146 28.5q90 0 149 -29t85 -84l-73 -52q-53 90 -166 90q-80 0 -126.5 -38.5
t-46.5 -102.5q0 -47 37 -68.5t105 -34.5q71 -15 115.5 -30.5t75.5 -50t31 -93.5q0 -68 -37.5 -120t-107 -80.5t-163.5 -28.5t-151.5 30.5zM331 840q44 44 74 87h69q16 -43 45 -87t53 -66h-82q-17 16 -33.5 41t-27.5 47q-15 -20 -42.5 -45.5t-51.5 -42.5h-81q33 22 77 66z
" />
    <glyph glyph-name="uni0218" unicode="&#x218;" horiz-adv-x="623" 
d="M115.5 19.5q-57.5 30.5 -95.5 94.5l75 55q29 -55 72 -80t107 -25q94 0 149 39.5t55 105.5q0 32 -22.5 51t-56.5 29.5t-96 23.5l-23 5q-80 18 -123 57.5t-43 108.5q0 67 33.5 118.5t95.5 80t146 28.5q90 0 149 -29t85 -84l-73 -52q-53 90 -166 90q-80 0 -126.5 -38.5
t-46.5 -102.5q0 -47 37 -68.5t105 -34.5q71 -15 115.5 -30.5t75.5 -50t31 -93.5q0 -68 -37.5 -120t-107 -80.5t-163.5 -28.5t-151.5 30.5zM303.5 -77q12.5 -14 12.5 -39q0 -48 -31.5 -93t-80.5 -77l-23 27q57 39 73 84q-12 -6 -27 -6q-17 0 -26.5 10t-9.5 27q0 31 24 56
t53 25q23 0 35.5 -14z" />
    <glyph glyph-name="uni1E60" unicode="&#x1e60;" horiz-adv-x="623" 
d="M115.5 19.5q-57.5 30.5 -95.5 94.5l75 55q29 -55 72 -80t107 -25q94 0 149 39.5t55 105.5q0 32 -22.5 51t-56.5 29.5t-96 23.5l-23 5q-80 18 -123 57.5t-43 108.5q0 67 33.5 118.5t95.5 80t146 28.5q90 0 149 -29t85 -84l-73 -52q-53 90 -166 90q-80 0 -126.5 -38.5
t-46.5 -102.5q0 -47 37 -68.5t105 -34.5q71 -15 115.5 -30.5t75.5 -50t31 -93.5q0 -68 -37.5 -120t-107 -80.5t-163.5 -28.5t-151.5 30.5zM380 783.5q-13 13.5 -13 33.5q0 25 20.5 45t45.5 20q20 0 33 -13.5t13 -32.5q0 -25 -20 -45.5t-46 -20.5q-20 0 -33 13.5z" />
    <glyph glyph-name="uni1E62" unicode="&#x1e62;" horiz-adv-x="623" 
d="M115.5 19.5q-57.5 30.5 -95.5 94.5l75 55q29 -55 72 -80t107 -25q94 0 149 39.5t55 105.5q0 32 -22.5 51t-56.5 29.5t-96 23.5l-23 5q-80 18 -123 57.5t-43 108.5q0 67 33.5 118.5t95.5 80t146 28.5q90 0 149 -29t85 -84l-73 -52q-53 90 -166 90q-80 0 -126.5 -38.5
t-46.5 -102.5q0 -47 37 -68.5t105 -34.5q71 -15 115.5 -30.5t75.5 -50t31 -93.5q0 -68 -37.5 -120t-107 -80.5t-163.5 -28.5t-151.5 30.5zM215 -160q-13 13 -13 33q0 25 20.5 45t45.5 20q20 0 33 -13t13 -33q0 -25 -20 -45t-46 -20q-20 0 -33 13z" />
    <glyph glyph-name="uni1E9E" unicode="&#x1e9e;" horiz-adv-x="654" 
d="M280.5 -6q-30.5 5 -53.5 15l13 76q39 -21 96 -21q71 0 110 23t47 70l16 90q1 5 1 14q0 37 -36.5 57t-103.5 20h-26l15 82l198 167q-37 22 -80.5 35.5t-89.5 13.5q-66 0 -104.5 -39.5t-53.5 -123.5l-83 -473h-95l83 473q19 111 79.5 174.5t184.5 63.5q68 0 133 -21.5
t121 -58.5l-12 -67l-188 -158q155 -17 155 -126q0 -15 -3 -33l-17 -98q-14 -79 -75.5 -119.5t-170.5 -40.5q-30 0 -60.5 5z" />
    <glyph glyph-name="uni018F" unicode="&#x18f;" horiz-adv-x="687" 
d="M607 663q64 -48 64 -143q0 -27 -6 -59l-39 -225q-21 -119 -101 -183t-210 -64q-119 0 -186.5 55t-67.5 155q0 101 45 147t148 46h304l12 69q5 30 5 49q0 63 -39 94.5t-120 31.5q-71 0 -122.5 -20.5t-97.5 -63.5l-50 54q51 54 117.5 79.5t157.5 25.5q122 0 186 -48z
M461 109.5q56 45.5 70 126.5l14 80h-278q-59 0 -84.5 -25.5t-25.5 -90.5q0 -67 42 -101.5t121 -34.5q85 0 141 45.5z" />
    <glyph glyph-name="T" unicode="T" horiz-adv-x="592" 
d="M317 625h-221l13 75h538l-13 -75h-222l-110 -625h-95z" />
    <glyph glyph-name="Tbar" unicode="&#x166;" horiz-adv-x="592" 
d="M412 625l-42 -240h145l-12 -68h-145l-56 -317h-95l56 317h-145l12 68h145l42 240h-221l13 75h538l-13 -75h-222z" />
    <glyph glyph-name="Tcaron" unicode="&#x164;" horiz-adv-x="592" 
d="M317 625h-221l13 75h538l-13 -75h-222l-110 -625h-95zM303 860q-29 44 -53 67h81q17 -17 34.5 -42t27.5 -47q15 20 42 45.5t52 43.5h81q-34 -24 -77.5 -67.5t-73.5 -85.5h-69q-16 42 -45 86z" />
    <glyph glyph-name="uni0162" unicode="&#x162;" horiz-adv-x="592" 
d="M647 700l-13 -75h-222l-110 -625h-11l-21 -44q35 -2 53 -19t18 -46q0 -48 -34.5 -74t-100.5 -26q-56 0 -92 21l24 50q32 -17 67 -17q33 0 49 9t16 29q0 27 -53 27q-7 0 -31 -2l39 92h-18l110 625h-221l13 75h538z" />
    <glyph glyph-name="uni021A" unicode="&#x21a;" horiz-adv-x="592" 
d="M317 625h-221l13 75h538l-13 -75h-222l-110 -625h-95zM279.5 -77q12.5 -14 12.5 -39q0 -48 -31.5 -93t-80.5 -77l-23 27q57 39 73 84q-12 -6 -27 -6q-17 0 -26.5 10t-9.5 27q0 31 24 56t53 25q23 0 35.5 -14z" />
    <glyph glyph-name="uni1E6C" unicode="&#x1e6c;" horiz-adv-x="592" 
d="M317 625h-221l13 75h538l-13 -75h-222l-110 -625h-95zM191 -160q-13 13 -13 33q0 25 20.5 45t45.5 20q20 0 33 -13t13 -33q0 -25 -20 -45t-46 -20q-20 0 -33 13z" />
    <glyph glyph-name="uni1E6E" unicode="&#x1e6e;" horiz-adv-x="592" 
d="M317 625h-221l13 75h538l-13 -75h-222l-110 -625h-95zM87 -78h307l-12 -65h-306z" />
    <glyph glyph-name="U" unicode="U" horiz-adv-x="671" 
d="M121 33.5q-65 45.5 -65 125.5q0 11 4 37l89 504h95l-89 -504q-2 -9 -2 -26q0 -51 39 -78.5t113 -27.5q84 0 135.5 34t62.5 98l89 504h95l-89 -504q-18 -99 -94 -153.5t-202 -54.5q-116 0 -181 45.5z" />
    <glyph glyph-name="Uacute" unicode="&#xda;" horiz-adv-x="671" 
d="M121 33.5q-65 45.5 -65 125.5q0 11 4 37l89 504h95l-89 -504q-2 -9 -2 -26q0 -51 39 -78.5t113 -27.5q84 0 135.5 34t62.5 98l89 504h95l-89 -504q-18 -99 -94 -153.5t-202 -54.5q-116 0 -181 45.5zM498 923h95l-130 -149h-72z" />
    <glyph glyph-name="Ubreve" unicode="&#x16c;" horiz-adv-x="671" 
d="M121 33.5q-65 45.5 -65 125.5q0 11 4 37l89 504h95l-89 -504q-2 -9 -2 -26q0 -51 39 -78.5t113 -27.5q84 0 135.5 34t62.5 98l89 504h95l-89 -504q-18 -99 -94 -153.5t-202 -54.5q-116 0 -181 45.5zM336.5 799.5q-36.5 32.5 -36.5 87.5q0 15 3 30h63q-4 -40 15.5 -63
t58.5 -23q40 0 67.5 23t37.5 63h64q-12 -69 -58.5 -109.5t-115.5 -40.5q-62 0 -98.5 32.5z" />
    <glyph glyph-name="uni01D3" unicode="&#x1d3;" horiz-adv-x="671" 
d="M121 33.5q-65 45.5 -65 125.5q0 11 4 37l89 504h95l-89 -504q-2 -9 -2 -26q0 -51 39 -78.5t113 -27.5q84 0 135.5 34t62.5 98l89 504h95l-89 -504q-18 -99 -94 -153.5t-202 -54.5q-116 0 -181 45.5zM351 860q-29 44 -53 67h81q17 -17 34.5 -42t27.5 -47q15 20 42 45.5
t52 43.5h81q-34 -24 -77.5 -67.5t-73.5 -85.5h-69q-16 42 -45 86z" />
    <glyph glyph-name="Ucircumflex" unicode="&#xdb;" horiz-adv-x="671" 
d="M121 33.5q-65 45.5 -65 125.5q0 11 4 37l89 504h95l-89 -504q-2 -9 -2 -26q0 -51 39 -78.5t113 -27.5q84 0 135.5 34t62.5 98l89 504h95l-89 -504q-18 -99 -94 -153.5t-202 -54.5q-116 0 -181 45.5zM348 840q44 44 74 87h69q16 -43 45 -87t53 -66h-82q-17 16 -33.5 41
t-27.5 47q-15 -20 -42.5 -45.5t-51.5 -42.5h-81q33 22 77 66z" />
    <glyph glyph-name="Udieresis" unicode="&#xdc;" horiz-adv-x="671" 
d="M121 33.5q-65 45.5 -65 125.5q0 11 4 37l89 504h95l-89 -504q-2 -9 -2 -26q0 -51 39 -78.5t113 -27.5q84 0 135.5 34t62.5 98l89 504h95l-89 -504q-18 -99 -94 -153.5t-202 -54.5q-116 0 -181 45.5zM317 782q-12 12 -12 29q0 23 18 40.5t41 17.5q17 0 28.5 -12t11.5 -29
q0 -22 -18 -40t-40 -18q-17 0 -29 12zM484.5 782q-11.5 12 -11.5 29q0 23 18 40.5t41 17.5q18 0 29.5 -12t11.5 -29q0 -22 -18 -40t-40 -18q-19 0 -30.5 12z" />
    <glyph glyph-name="uni01D7" unicode="&#x1d7;" horiz-adv-x="671" 
d="M121 33.5q-65 45.5 -65 125.5q0 11 4 37l89 504h95l-89 -504q-2 -9 -2 -26q0 -51 39 -78.5t113 -27.5q84 0 135.5 34t62.5 98l89 504h95l-89 -504q-18 -99 -94 -153.5t-202 -54.5q-116 0 -181 45.5zM498 1027h92l-106 -116h-69zM316.5 780.5q-11.5 11.5 -11.5 29.5
q0 22 18 39.5t40 17.5q17 0 29 -12t12 -29q0 -22 -18 -39.5t-40 -17.5q-18 0 -29.5 11.5zM484.5 780.5q-11.5 11.5 -11.5 28.5q0 23 18 40.5t41 17.5q17 0 29 -12t12 -29q0 -22 -18 -39.5t-41 -17.5q-18 0 -29.5 11.5z" />
    <glyph glyph-name="uni01D9" unicode="&#x1d9;" horiz-adv-x="671" 
d="M121 33.5q-65 45.5 -65 125.5q0 11 4 37l89 504h95l-89 -504q-2 -9 -2 -26q0 -51 39 -78.5t113 -27.5q84 0 135.5 34t62.5 98l89 504h95l-89 -504q-18 -99 -94 -153.5t-202 -54.5q-116 0 -181 45.5zM377 979.5q-28 35.5 -51 54.5h73q18 -13 35.5 -34.5t25.5 -37.5
q11 15 36 36.5t48 35.5h78q-30 -19 -70 -54.5t-67 -68.5h-65q-15 33 -43 68.5zM316.5 780.5q-11.5 11.5 -11.5 29.5q0 22 18 39.5t40 17.5q17 0 29 -12t12 -29q0 -22 -18 -39.5t-40 -17.5q-18 0 -29.5 11.5zM484.5 780.5q-11.5 11.5 -11.5 28.5q0 23 18 40.5t41 17.5
q17 0 29 -12t12 -29q0 -22 -18 -39.5t-41 -17.5q-18 0 -29.5 11.5z" />
    <glyph glyph-name="uni01DB" unicode="&#x1db;" horiz-adv-x="671" 
d="M121 33.5q-65 45.5 -65 125.5q0 11 4 37l89 504h95l-89 -504q-2 -9 -2 -26q0 -51 39 -78.5t113 -27.5q84 0 135.5 34t62.5 98l89 504h95l-89 -504q-18 -99 -94 -153.5t-202 -54.5q-116 0 -181 45.5zM347 1025h91l43 -116h-68zM316.5 780.5q-11.5 11.5 -11.5 29.5
q0 22 18 39.5t40 17.5q17 0 29 -12t12 -29q0 -22 -18 -39.5t-40 -17.5q-18 0 -29.5 11.5zM484.5 780.5q-11.5 11.5 -11.5 28.5q0 23 18 40.5t41 17.5q17 0 29 -12t12 -29q0 -22 -18 -39.5t-41 -17.5q-18 0 -29.5 11.5z" />
    <glyph glyph-name="uni01D5" unicode="&#x1d5;" horiz-adv-x="671" 
d="M121 33.5q-65 45.5 -65 125.5q0 11 4 37l89 504h95l-89 -504q-2 -9 -2 -26q0 -51 39 -78.5t113 -27.5q84 0 135.5 34t62.5 98l89 504h95l-89 -504q-18 -99 -94 -153.5t-202 -54.5q-116 0 -181 45.5zM314 987h307l-11 -65h-307zM317 780.5q-12 11.5 -12 29.5q0 22 18 39.5
t41 17.5q17 0 28.5 -12t11.5 -29q0 -22 -18 -39.5t-40 -17.5q-17 0 -29 11.5zM484.5 780.5q-11.5 11.5 -11.5 28.5q0 23 18 40.5t41 17.5q18 0 29.5 -12t11.5 -29q0 -22 -18 -39.5t-40 -17.5q-19 0 -30.5 11.5z" />
    <glyph glyph-name="uni1EE4" unicode="&#x1ee4;" horiz-adv-x="671" 
d="M121 33.5q-65 45.5 -65 125.5q0 11 4 37l89 504h95l-89 -504q-2 -9 -2 -26q0 -51 39 -78.5t113 -27.5q84 0 135.5 34t62.5 98l89 504h95l-89 -504q-18 -99 -94 -153.5t-202 -54.5q-116 0 -181 45.5zM230 -160q-13 13 -13 33q0 25 20.5 45t45.5 20q20 0 33 -13t13 -33
q0 -25 -20 -45t-46 -20q-20 0 -33 13z" />
    <glyph glyph-name="Ugrave" unicode="&#xd9;" horiz-adv-x="671" 
d="M121 33.5q-65 45.5 -65 125.5q0 11 4 37l89 504h95l-89 -504q-2 -9 -2 -26q0 -51 39 -78.5t113 -27.5q84 0 135.5 34t62.5 98l89 504h95l-89 -504q-18 -99 -94 -153.5t-202 -54.5q-116 0 -181 45.5zM317 923h95l54 -149h-72z" />
    <glyph glyph-name="uni1EE6" unicode="&#x1ee6;" horiz-adv-x="671" 
d="M121 33.5q-65 45.5 -65 125.5q0 11 4 37l89 504h95l-89 -504q-2 -9 -2 -26q0 -51 39 -78.5t113 -27.5q84 0 135.5 34t62.5 98l89 504h95l-89 -504q-18 -99 -94 -153.5t-202 -54.5q-116 0 -181 45.5zM539 846q-27 -25 -73 -35l-7 -37h-66l12 70q46 5 67.5 17t21.5 36
q0 15 -10.5 21t-30.5 6q-28 0 -56 -10l-7 49q39 17 81 17q44 0 69.5 -17t25.5 -51q0 -41 -27 -66z" />
    <glyph glyph-name="Uhorn" unicode="&#x1af;" horiz-adv-x="732" 
d="M782.5 590.5q-43.5 -44.5 -123.5 -48.5l-61 -346q-18 -99 -94 -153.5t-202 -54.5q-116 0 -181 45.5t-65 125.5q0 11 4 37l89 504h95l-89 -504q-2 -9 -2 -26q0 -51 39 -78.5t113 -27.5q84 0 135.5 34t62.5 98l89 504h95l-19 -109q42 6 63.5 39t33.5 100h81
q-20 -95 -63.5 -139.5z" />
    <glyph glyph-name="uni1EE8" unicode="&#x1ee8;" horiz-adv-x="732" 
d="M782.5 590.5q-43.5 -44.5 -123.5 -48.5l-61 -346q-18 -99 -94 -153.5t-202 -54.5q-116 0 -181 45.5t-65 125.5q0 11 4 37l89 504h95l-89 -504q-2 -9 -2 -26q0 -51 39 -78.5t113 -27.5q84 0 135.5 34t62.5 98l89 504h95l-19 -109q42 6 63.5 39t33.5 100h81
q-20 -95 -63.5 -139.5zM498 923h95l-130 -149h-72z" />
    <glyph glyph-name="uni1EF0" unicode="&#x1ef0;" horiz-adv-x="732" 
d="M782.5 590.5q-43.5 -44.5 -123.5 -48.5l-61 -346q-18 -99 -94 -153.5t-202 -54.5q-116 0 -181 45.5t-65 125.5q0 11 4 37l89 504h95l-89 -504q-2 -9 -2 -26q0 -51 39 -78.5t113 -27.5q84 0 135.5 34t62.5 98l89 504h95l-19 -109q42 6 63.5 39t33.5 100h81
q-20 -95 -63.5 -139.5zM230 -160q-13 13 -13 33q0 25 20.5 45t45.5 20q20 0 33 -13t13 -33q0 -25 -20 -45t-46 -20q-20 0 -33 13z" />
    <glyph glyph-name="uni1EEA" unicode="&#x1eea;" horiz-adv-x="732" 
d="M782.5 590.5q-43.5 -44.5 -123.5 -48.5l-61 -346q-18 -99 -94 -153.5t-202 -54.5q-116 0 -181 45.5t-65 125.5q0 11 4 37l89 504h95l-89 -504q-2 -9 -2 -26q0 -51 39 -78.5t113 -27.5q84 0 135.5 34t62.5 98l89 504h95l-19 -109q42 6 63.5 39t33.5 100h81
q-20 -95 -63.5 -139.5zM317 923h95l54 -149h-72z" />
    <glyph glyph-name="uni1EEC" unicode="&#x1eec;" horiz-adv-x="732" 
d="M782.5 590.5q-43.5 -44.5 -123.5 -48.5l-61 -346q-18 -99 -94 -153.5t-202 -54.5q-116 0 -181 45.5t-65 125.5q0 11 4 37l89 504h95l-89 -504q-2 -9 -2 -26q0 -51 39 -78.5t113 -27.5q84 0 135.5 34t62.5 98l89 504h95l-19 -109q42 6 63.5 39t33.5 100h81
q-20 -95 -63.5 -139.5zM539 846q-27 -25 -73 -35l-7 -37h-66l12 70q46 5 67.5 17t21.5 36q0 15 -10.5 21t-30.5 6q-28 0 -56 -10l-7 49q39 17 81 17q44 0 69.5 -17t25.5 -51q0 -41 -27 -66z" />
    <glyph glyph-name="uni1EEE" unicode="&#x1eee;" horiz-adv-x="732" 
d="M782.5 590.5q-43.5 -44.5 -123.5 -48.5l-61 -346q-18 -99 -94 -153.5t-202 -54.5q-116 0 -181 45.5t-65 125.5q0 11 4 37l89 504h95l-89 -504q-2 -9 -2 -26q0 -51 39 -78.5t113 -27.5q84 0 135.5 34t62.5 98l89 504h95l-19 -109q42 6 63.5 39t33.5 100h81
q-20 -95 -63.5 -139.5zM312.5 862.5q30.5 33.5 77.5 33.5q20 0 35.5 -6.5t34.5 -18.5q18 -10 27 -14t20 -4q17 0 27.5 11.5t19.5 36.5h59q-12 -48 -43 -82t-72 -34q-21 0 -36.5 6.5t-34.5 18.5q-16 9 -25.5 13.5t-20.5 4.5q-18 0 -30 -12t-22 -38h-58q11 51 41.5 84.5z" />
    <glyph glyph-name="Uhungarumlaut" unicode="&#x170;" horiz-adv-x="671" 
d="M121 33.5q-65 45.5 -65 125.5q0 11 4 37l89 504h95l-89 -504q-2 -9 -2 -26q0 -51 39 -78.5t113 -27.5q84 0 135.5 34t62.5 98l89 504h95l-89 -504q-18 -99 -94 -153.5t-202 -54.5q-116 0 -181 45.5zM405 923h83l-108 -149h-67zM570 923h83l-108 -149h-66z" />
    <glyph glyph-name="Umacron" unicode="&#x16a;" horiz-adv-x="671" 
d="M121 33.5q-65 45.5 -65 125.5q0 11 4 37l89 504h95l-89 -504q-2 -9 -2 -26q0 -51 39 -78.5t113 -27.5q84 0 135.5 34t62.5 98l89 504h95l-89 -504q-18 -99 -94 -153.5t-202 -54.5q-116 0 -181 45.5zM291 856h307l-11 -64h-307z" />
    <glyph glyph-name="Uogonek" unicode="&#x172;" horiz-adv-x="671" 
d="M687 700l-89 -504q-17 -95 -88 -149.5t-188 -58.5q-53 -61 -53 -104q0 -18 12 -27t32 -9q21 0 56 14l7 -51q-38 -22 -82 -22q-56 0 -79.5 22.5t-23.5 54.5q0 63 66 124q-97 9 -149 53t-52 115q0 12 4 38l89 504h95l-89 -504q-2 -9 -2 -26q0 -51 39 -78.5t113 -27.5
q84 0 135.5 34t62.5 98l89 504h95z" />
    <glyph glyph-name="Uring" unicode="&#x16e;" horiz-adv-x="671" 
d="M121 33.5q-65 45.5 -65 125.5q0 11 4 37l89 504h95l-89 -504q-2 -9 -2 -26q0 -51 39 -78.5t113 -27.5q84 0 135.5 34t62.5 98l89 504h95l-89 -504q-18 -99 -94 -153.5t-202 -54.5q-116 0 -181 45.5zM365 782.5q-23 21.5 -23 57.5q0 49 34 80.5t86 31.5q40 0 63 -21.5
t23 -57.5q0 -49 -34 -80.5t-86 -31.5q-40 0 -63 21.5zM478 824.5q16 17.5 16 43.5q0 19 -10.5 28.5t-30.5 9.5q-25 0 -41 -17.5t-16 -43.5q0 -19 10.5 -28.5t29.5 -9.5q26 0 42 17.5z" />
    <glyph glyph-name="Utilde" unicode="&#x168;" horiz-adv-x="671" 
d="M121 33.5q-65 45.5 -65 125.5q0 11 4 37l89 504h95l-89 -504q-2 -9 -2 -26q0 -51 39 -78.5t113 -27.5q84 0 135.5 34t62.5 98l89 504h95l-89 -504q-18 -99 -94 -153.5t-202 -54.5q-116 0 -181 45.5zM312.5 862.5q30.5 33.5 77.5 33.5q20 0 35.5 -6.5t34.5 -18.5
q18 -10 27 -14t20 -4q17 0 27.5 11.5t19.5 36.5h59q-12 -48 -43 -82t-72 -34q-21 0 -36.5 6.5t-34.5 18.5q-16 9 -25.5 13.5t-20.5 4.5q-18 0 -30 -12t-22 -38h-58q11 51 41.5 84.5z" />
    <glyph glyph-name="V" unicode="V" horiz-adv-x="651" 
d="M211 20q-25 31 -34 104l-68 576h95l65 -575q2 -26 8.5 -37t19.5 -11t23 10.5t23 37.5l267 575h96l-271 -576q-36 -74 -66.5 -104.5t-80.5 -30.5q-52 0 -77 31z" />
    <glyph glyph-name="W" unicode="W" horiz-adv-x="904" 
d="M956 700l-283 -700h-30q-59 0 -86.5 24.5t-36.5 88.5l-41 272l-136 -272q-32 -64 -68.5 -88.5t-95.5 -24.5h-30l-37 700h90l30 -615q19 10 39 46l247 479l78 -479q3 -18 8 -28.5t14 -15.5l247 613h91z" />
    <glyph glyph-name="Wacute" unicode="&#x1e82;" horiz-adv-x="904" 
d="M956 700l-283 -700h-30q-59 0 -86.5 24.5t-36.5 88.5l-41 272l-136 -272q-32 -64 -68.5 -88.5t-95.5 -24.5h-30l-37 700h90l30 -615q19 10 39 46l247 479l78 -479q3 -18 8 -28.5t14 -15.5l247 613h91zM614 923h95l-130 -149h-72z" />
    <glyph glyph-name="Wcircumflex" unicode="&#x174;" horiz-adv-x="904" 
d="M956 700l-283 -700h-30q-59 0 -86.5 24.5t-36.5 88.5l-41 272l-136 -272q-32 -64 -68.5 -88.5t-95.5 -24.5h-30l-37 700h90l30 -615q19 10 39 46l247 479l78 -479q3 -18 8 -28.5t14 -15.5l247 613h91zM464 840q44 44 74 87h69q16 -43 45 -87t53 -66h-82q-17 16 -33.5 41
t-27.5 47q-15 -20 -42.5 -45.5t-51.5 -42.5h-81q33 22 77 66z" />
    <glyph glyph-name="Wdieresis" unicode="&#x1e84;" horiz-adv-x="904" 
d="M956 700l-283 -700h-30q-59 0 -86.5 24.5t-36.5 88.5l-41 272l-136 -272q-32 -64 -68.5 -88.5t-95.5 -24.5h-30l-37 700h90l30 -615q19 10 39 46l247 479l78 -479q3 -18 8 -28.5t14 -15.5l247 613h91zM433 782q-12 12 -12 29q0 23 18 40.5t41 17.5q17 0 28.5 -12
t11.5 -29q0 -22 -18 -40t-40 -18q-17 0 -29 12zM600.5 782q-11.5 12 -11.5 29q0 23 18 40.5t41 17.5q18 0 29.5 -12t11.5 -29q0 -22 -18 -40t-40 -18q-19 0 -30.5 12z" />
    <glyph glyph-name="Wgrave" unicode="&#x1e80;" horiz-adv-x="904" 
d="M956 700l-283 -700h-30q-59 0 -86.5 24.5t-36.5 88.5l-41 272l-136 -272q-32 -64 -68.5 -88.5t-95.5 -24.5h-30l-37 700h90l30 -615q19 10 39 46l247 479l78 -479q3 -18 8 -28.5t14 -15.5l247 613h91zM433 923h95l54 -149h-72z" />
    <glyph glyph-name="X" unicode="X" horiz-adv-x="587" 
d="M372 346l167 -346h-109l-132 275l-229 -275h-107l297 357l-164 343h107l131 -273l227 273h106z" />
    <glyph glyph-name="Y" unicode="Y" horiz-adv-x="584" 
d="M254 295l-165 405h105l125 -316l234 316h106l-310 -405l-52 -295h-95z" />
    <glyph glyph-name="Yacute" unicode="&#xdd;" horiz-adv-x="584" 
d="M254 295l-165 405h105l125 -316l234 316h106l-310 -405l-52 -295h-95zM453 923h95l-130 -149h-72z" />
    <glyph glyph-name="Ycircumflex" unicode="&#x176;" horiz-adv-x="584" 
d="M254 295l-165 405h105l125 -316l234 316h106l-310 -405l-52 -295h-95zM303 840q44 44 74 87h69q16 -43 45 -87t53 -66h-82q-17 16 -33.5 41t-27.5 47q-15 -20 -42.5 -45.5t-51.5 -42.5h-81q33 22 77 66z" />
    <glyph glyph-name="Ydieresis" unicode="&#x178;" horiz-adv-x="584" 
d="M254 295l-165 405h105l125 -316l234 316h106l-310 -405l-52 -295h-95zM272 782q-12 12 -12 29q0 23 18 40.5t41 17.5q17 0 28.5 -12t11.5 -29q0 -22 -18 -40t-40 -18q-17 0 -29 12zM439.5 782q-11.5 12 -11.5 29q0 23 18 40.5t41 17.5q18 0 29.5 -12t11.5 -29
q0 -22 -18 -40t-40 -18q-19 0 -30.5 12z" />
    <glyph glyph-name="uni1E8E" unicode="&#x1e8e;" horiz-adv-x="584" 
d="M254 295l-165 405h105l125 -316l234 316h106l-310 -405l-52 -295h-95zM352 783.5q-13 13.5 -13 33.5q0 25 20.5 45t45.5 20q20 0 33 -13.5t13 -32.5q0 -25 -20 -45.5t-46 -20.5q-20 0 -33 13.5z" />
    <glyph glyph-name="uni1EF4" unicode="&#x1ef4;" horiz-adv-x="584" 
d="M254 295l-165 405h105l125 -316l234 316h106l-310 -405l-52 -295h-95zM187 -160q-13 13 -13 33q0 25 20.5 45t45.5 20q20 0 33 -13t13 -33q0 -25 -20 -45t-46 -20q-20 0 -33 13z" />
    <glyph glyph-name="Ygrave" unicode="&#x1ef2;" horiz-adv-x="584" 
d="M254 295l-165 405h105l125 -316l234 316h106l-310 -405l-52 -295h-95zM272 923h95l54 -149h-72z" />
    <glyph glyph-name="uni1EF6" unicode="&#x1ef6;" horiz-adv-x="584" 
d="M254 295l-165 405h105l125 -316l234 316h106l-310 -405l-52 -295h-95zM494 846q-27 -25 -73 -35l-7 -37h-66l12 70q46 5 67.5 17t21.5 36q0 15 -10.5 21t-30.5 6q-28 0 -56 -10l-7 49q39 17 81 17q44 0 69.5 -17t25.5 -51q0 -41 -27 -66z" />
    <glyph glyph-name="uni1EF8" unicode="&#x1ef8;" horiz-adv-x="584" 
d="M254 295l-165 405h105l125 -316l234 316h106l-310 -405l-52 -295h-95zM267.5 862.5q30.5 33.5 77.5 33.5q20 0 35.5 -6.5t34.5 -18.5q18 -10 27 -14t20 -4q17 0 27.5 11.5t19.5 36.5h59q-12 -48 -43 -82t-72 -34q-21 0 -36.5 6.5t-34.5 18.5q-16 9 -25.5 13.5t-20.5 4.5
q-18 0 -30 -12t-22 -38h-58q11 51 41.5 84.5z" />
    <glyph glyph-name="Z" unicode="Z" horiz-adv-x="587" 
d="M96 110q-1 -4 -1 -10q0 -14 10 -19.5t28 -5.5h396l-13 -75h-413q-48 0 -72.5 17.5t-24.5 56.5q0 16 2 25l8 47l492 479h-393l14 75h493l-15 -84l-510 -499z" />
    <glyph glyph-name="Zacute" unicode="&#x179;" horiz-adv-x="587" 
d="M96 110q-1 -4 -1 -10q0 -14 10 -19.5t28 -5.5h396l-13 -75h-413q-48 0 -72.5 17.5t-24.5 56.5q0 16 2 25l8 47l492 479h-393l14 75h493l-15 -84l-510 -499zM456 923h95l-130 -149h-72z" />
    <glyph glyph-name="Zcaron" unicode="&#x17d;" horiz-adv-x="587" 
d="M96 110q-1 -4 -1 -10q0 -14 10 -19.5t28 -5.5h396l-13 -75h-413q-48 0 -72.5 17.5t-24.5 56.5q0 16 2 25l8 47l492 479h-393l14 75h493l-15 -84l-510 -499zM309 860q-29 44 -53 67h81q17 -17 34.5 -42t27.5 -47q15 20 42 45.5t52 43.5h81q-34 -24 -77.5 -67.5
t-73.5 -85.5h-69q-16 42 -45 86z" />
    <glyph glyph-name="Zdotaccent" unicode="&#x17b;" horiz-adv-x="587" 
d="M96 110q-1 -4 -1 -10q0 -14 10 -19.5t28 -5.5h396l-13 -75h-413q-48 0 -72.5 17.5t-24.5 56.5q0 16 2 25l8 47l492 479h-393l14 75h493l-15 -84l-510 -499zM355 783.5q-13 13.5 -13 33.5q0 25 20.5 45t45.5 20q20 0 33 -13.5t13 -32.5q0 -25 -20 -45.5t-46 -20.5
q-20 0 -33 13.5z" />
    <glyph glyph-name="uni1E92" unicode="&#x1e92;" horiz-adv-x="587" 
d="M96 110q-1 -4 -1 -10q0 -14 10 -19.5t28 -5.5h396l-13 -75h-413q-48 0 -72.5 17.5t-24.5 56.5q0 16 2 25l8 47l492 479h-393l14 75h493l-15 -84l-510 -499zM205 -160q-13 13 -13 33q0 25 20.5 45t45.5 20q20 0 33 -13t13 -33q0 -25 -20 -45t-46 -20q-20 0 -33 13z" />
    <glyph glyph-name="a" unicode="a" horiz-adv-x="529" 
d="M433 105q-2 -12 -2 -17q0 -13 6.5 -23t20.5 -24l-59 -52q-26 17 -39.5 35t-16.5 41q-28 -35 -71 -55.5t-99 -20.5q-68 0 -105.5 31t-37.5 86q0 81 54.5 119t152.5 48l70 8q44 5 59.5 16t18.5 39v-2q2 40 -21.5 62t-68.5 22q-52 0 -82 -13t-62 -44l-52 43q35 40 82 58.5
t120 18.5q82 0 127 -35t45 -96q0 -16 -3 -33zM304.5 87q43.5 33 52.5 84l12 67q-22 -11 -75 -17l-60 -6q-56 -5 -87 -31.5t-31 -70.5q0 -29 20.5 -44t59.5 -15q65 0 108.5 33z" />
    <glyph glyph-name="aacute" unicode="&#xe1;" horiz-adv-x="529" 
d="M433 105q-2 -12 -2 -17q0 -13 6.5 -23t20.5 -24l-59 -52q-26 17 -39.5 35t-16.5 41q-28 -35 -71 -55.5t-99 -20.5q-68 0 -105.5 31t-37.5 86q0 81 54.5 119t152.5 48l70 8q44 5 59.5 16t18.5 39v-2q2 40 -21.5 62t-68.5 22q-52 0 -82 -13t-62 -44l-52 43q35 40 82 58.5
t120 18.5q82 0 127 -35t45 -96q0 -16 -3 -33zM304.5 87q43.5 33 52.5 84l12 67q-22 -11 -75 -17l-60 -6q-56 -5 -87 -31.5t-31 -70.5q0 -29 20.5 -44t59.5 -15q65 0 108.5 33zM395 693h95l-130 -149h-72z" />
    <glyph glyph-name="abreve" unicode="&#x103;" horiz-adv-x="529" 
d="M433 105q-2 -12 -2 -17q0 -13 6.5 -23t20.5 -24l-59 -52q-26 17 -39.5 35t-16.5 41q-28 -35 -71 -55.5t-99 -20.5q-68 0 -105.5 31t-37.5 86q0 81 54.5 119t152.5 48l70 8q44 5 59.5 16t18.5 39v-2q2 40 -21.5 62t-68.5 22q-52 0 -82 -13t-62 -44l-52 43q35 40 82 58.5
t120 18.5q82 0 127 -35t45 -96q0 -16 -3 -33zM304.5 87q43.5 33 52.5 84l12 67q-22 -11 -75 -17l-60 -6q-56 -5 -87 -31.5t-31 -70.5q0 -29 20.5 -44t59.5 -15q65 0 108.5 33zM233.5 569.5q-36.5 32.5 -36.5 87.5q0 15 3 30h63q-4 -40 15.5 -63t58.5 -23q40 0 67.5 23
t37.5 63h64q-12 -69 -58.5 -109.5t-115.5 -40.5q-62 0 -98.5 32.5z" />
    <glyph glyph-name="uni1EAF" unicode="&#x1eaf;" horiz-adv-x="529" 
d="M433 105q-2 -12 -2 -17q0 -13 6.5 -23t20.5 -24l-59 -52q-26 17 -39.5 35t-16.5 41q-28 -35 -71 -55.5t-99 -20.5q-68 0 -105.5 31t-37.5 86q0 81 54.5 119t152.5 48l70 8q44 5 59.5 16t18.5 39v-2q2 40 -21.5 62t-68.5 22q-52 0 -82 -13t-62 -44l-52 43q35 40 82 58.5
t120 18.5q82 0 127 -35t45 -96q0 -16 -3 -33zM304.5 87q43.5 33 52.5 84l12 67q-22 -11 -75 -17l-60 -6q-56 -5 -87 -31.5t-31 -70.5q0 -29 20.5 -44t59.5 -15q65 0 108.5 33zM407 848h91l-106 -116h-68zM233 569q-36 32 -36 87q0 15 3 31h63q-4 -40 15 -63t59 -23
q41 0 68 23t37 63h64q-12 -69 -59.5 -109.5t-116.5 -40.5q-61 0 -97 32z" />
    <glyph glyph-name="uni1EB7" unicode="&#x1eb7;" horiz-adv-x="529" 
d="M433 105q-2 -12 -2 -17q0 -13 6.5 -23t20.5 -24l-59 -52q-26 17 -39.5 35t-16.5 41q-28 -35 -71 -55.5t-99 -20.5q-68 0 -105.5 31t-37.5 86q0 81 54.5 119t152.5 48l70 8q44 5 59.5 16t18.5 39v-2q2 40 -21.5 62t-68.5 22q-52 0 -82 -13t-62 -44l-52 43q35 40 82 58.5
t120 18.5q82 0 127 -35t45 -96q0 -16 -3 -33zM304.5 87q43.5 33 52.5 84l12 67q-22 -11 -75 -17l-60 -6q-56 -5 -87 -31.5t-31 -70.5q0 -29 20.5 -44t59.5 -15q65 0 108.5 33zM168 -160q-13 13 -13 33q0 25 20.5 45t45.5 20q20 0 33 -13t13 -33q0 -25 -20 -45t-46 -20
q-20 0 -33 13zM233.5 569.5q-36.5 32.5 -36.5 87.5q0 15 3 30h63q-4 -40 15.5 -63t58.5 -23q40 0 67.5 23t37.5 63h64q-12 -69 -58.5 -109.5t-115.5 -40.5q-62 0 -98.5 32.5z" />
    <glyph glyph-name="uni1EB1" unicode="&#x1eb1;" horiz-adv-x="529" 
d="M433 105q-2 -12 -2 -17q0 -13 6.5 -23t20.5 -24l-59 -52q-26 17 -39.5 35t-16.5 41q-28 -35 -71 -55.5t-99 -20.5q-68 0 -105.5 31t-37.5 86q0 81 54.5 119t152.5 48l70 8q44 5 59.5 16t18.5 39v-2q2 40 -21.5 62t-68.5 22q-52 0 -82 -13t-62 -44l-52 43q35 40 82 58.5
t120 18.5q82 0 127 -35t45 -96q0 -16 -3 -33zM304.5 87q43.5 33 52.5 84l12 67q-22 -11 -75 -17l-60 -6q-56 -5 -87 -31.5t-31 -70.5q0 -29 20.5 -44t59.5 -15q65 0 108.5 33zM261 848h92l43 -116h-69zM233 569q-36 32 -36 87q0 15 3 31h63q-4 -40 15 -63t59 -23q41 0 68 23
t37 63h64q-12 -69 -59.5 -109.5t-116.5 -40.5q-61 0 -97 32z" />
    <glyph glyph-name="uni1EB3" unicode="&#x1eb3;" horiz-adv-x="529" 
d="M433 105q-2 -12 -2 -17q0 -13 6.5 -23t20.5 -24l-59 -52q-26 17 -39.5 35t-16.5 41q-28 -35 -71 -55.5t-99 -20.5q-68 0 -105.5 31t-37.5 86q0 81 54.5 119t152.5 48l70 8q44 5 59.5 16t18.5 39v-2q2 40 -21.5 62t-68.5 22q-52 0 -82 -13t-62 -44l-52 43q35 40 82 58.5
t120 18.5q82 0 127 -35t45 -96q0 -16 -3 -33zM304.5 87q43.5 33 52.5 84l12 67q-22 -11 -75 -17l-60 -6q-56 -5 -87 -31.5t-31 -70.5q0 -29 20.5 -44t59.5 -15q65 0 108.5 33zM322 826l-6 45q33 13 73 13q80 0 80 -56q0 -10 -1 -16q-6 -31 -26.5 -47t-55.5 -24l-6 -34h-59
l12 63q44 5 60.5 14.5t16.5 30.5q0 12 -9 16.5t-28 4.5t-51 -10zM506 687q-12 -69 -59 -109.5t-117 -40.5q-62 0 -97.5 31.5t-35.5 86.5q0 16 3 32h63q-4 -39 15.5 -62.5t58.5 -23.5q40 0 67.5 23t37.5 63h64z" />
    <glyph glyph-name="uni1EB5" unicode="&#x1eb5;" horiz-adv-x="529" 
d="M433 105q-2 -12 -2 -17q0 -13 6.5 -23t20.5 -24l-59 -52q-26 17 -39.5 35t-16.5 41q-28 -35 -71 -55.5t-99 -20.5q-68 0 -105.5 31t-37.5 86q0 81 54.5 119t152.5 48l70 8q44 5 59.5 16t18.5 39v-2q2 40 -21.5 62t-68.5 22q-52 0 -82 -13t-62 -44l-52 43q35 40 82 58.5
t120 18.5q82 0 127 -35t45 -96q0 -16 -3 -33zM304.5 87q43.5 33 52.5 84l12 67q-22 -11 -75 -17l-60 -6q-56 -5 -87 -31.5t-31 -70.5q0 -29 20.5 -44t59.5 -15q65 0 108.5 33zM250.5 807q29.5 30 73.5 30q18 0 31.5 -5.5t33.5 -16.5q14 -8 24 -12.5t20 -4.5q15 0 25 10.5
t18 33.5h53q-11 -43 -40 -73t-67 -30q-18 0 -32.5 5.5t-32.5 16.5q-2 1 -11.5 6t-17 7.5t-14.5 2.5q-17 0 -28.5 -10.5t-20.5 -34.5h-53q9 45 38.5 75zM232.5 569q-35.5 32 -35.5 87q0 15 3 31h64q-4 -39 15.5 -62.5t58.5 -23.5q40 0 67.5 23t37.5 63h63q-12 -70 -58.5 -110
t-117.5 -40q-62 0 -97.5 32z" />
    <glyph glyph-name="uni01CE" unicode="&#x1ce;" horiz-adv-x="529" 
d="M433 105q-2 -12 -2 -17q0 -13 6.5 -23t20.5 -24l-59 -52q-26 17 -39.5 35t-16.5 41q-28 -35 -71 -55.5t-99 -20.5q-68 0 -105.5 31t-37.5 86q0 81 54.5 119t152.5 48l70 8q44 5 59.5 16t18.5 39v-2q2 40 -21.5 62t-68.5 22q-52 0 -82 -13t-62 -44l-52 43q35 40 82 58.5
t120 18.5q82 0 127 -35t45 -96q0 -16 -3 -33zM304.5 87q43.5 33 52.5 84l12 67q-22 -11 -75 -17l-60 -6q-56 -5 -87 -31.5t-31 -70.5q0 -29 20.5 -44t59.5 -15q65 0 108.5 33zM248 630q-29 44 -53 67h81q17 -17 34.5 -42t27.5 -47q15 20 42 45.5t52 43.5h81
q-34 -24 -77.5 -67.5t-73.5 -85.5h-69q-16 42 -45 86z" />
    <glyph glyph-name="acircumflex" unicode="&#xe2;" horiz-adv-x="529" 
d="M433 105q-2 -12 -2 -17q0 -13 6.5 -23t20.5 -24l-59 -52q-26 17 -39.5 35t-16.5 41q-28 -35 -71 -55.5t-99 -20.5q-68 0 -105.5 31t-37.5 86q0 81 54.5 119t152.5 48l70 8q44 5 59.5 16t18.5 39v-2q2 40 -21.5 62t-68.5 22q-52 0 -82 -13t-62 -44l-52 43q35 40 82 58.5
t120 18.5q82 0 127 -35t45 -96q0 -16 -3 -33zM304.5 87q43.5 33 52.5 84l12 67q-22 -11 -75 -17l-60 -6q-56 -5 -87 -31.5t-31 -70.5q0 -29 20.5 -44t59.5 -15q65 0 108.5 33zM245 610q44 44 74 87h69q16 -43 45 -87t53 -66h-82q-17 16 -33.5 41t-27.5 47
q-15 -20 -42.5 -45.5t-51.5 -42.5h-81q33 22 77 66z" />
    <glyph glyph-name="uni1EA5" unicode="&#x1ea5;" horiz-adv-x="529" 
d="M433 105q-2 -12 -2 -17q0 -13 6.5 -23t20.5 -24l-59 -52q-26 17 -39.5 35t-16.5 41q-28 -35 -71 -55.5t-99 -20.5q-68 0 -105.5 31t-37.5 86q0 81 54.5 119t152.5 48l70 8q44 5 59.5 16t18.5 39v-2q2 40 -21.5 62t-68.5 22q-52 0 -82 -13t-62 -44l-52 43q35 40 82 58.5
t120 18.5q82 0 127 -35t45 -96q0 -16 -3 -33zM304.5 87q43.5 33 52.5 84l12 67q-22 -11 -75 -17l-60 -6q-56 -5 -87 -31.5t-31 -70.5q0 -29 20.5 -44t59.5 -15q65 0 108.5 33zM534 753h89l-104 -116h-68zM244.5 611q44.5 44 73.5 86h70q15 -43 43.5 -87.5t53.5 -65.5h-78
q-18 17 -36.5 43t-25.5 45q-14 -20 -41.5 -46t-51.5 -42h-85q33 23 77.5 67z" />
    <glyph glyph-name="uni1EAD" unicode="&#x1ead;" horiz-adv-x="529" 
d="M433 105q-2 -12 -2 -17q0 -13 6.5 -23t20.5 -24l-59 -52q-26 17 -39.5 35t-16.5 41q-28 -35 -71 -55.5t-99 -20.5q-68 0 -105.5 31t-37.5 86q0 81 54.5 119t152.5 48l70 8q44 5 59.5 16t18.5 39v-2q2 40 -21.5 62t-68.5 22q-52 0 -82 -13t-62 -44l-52 43q35 40 82 58.5
t120 18.5q82 0 127 -35t45 -96q0 -16 -3 -33zM304.5 87q43.5 33 52.5 84l12 67q-22 -11 -75 -17l-60 -6q-56 -5 -87 -31.5t-31 -70.5q0 -29 20.5 -44t59.5 -15q65 0 108.5 33zM168 -160q-13 13 -13 33q0 25 20.5 45t45.5 20q20 0 33 -13t13 -33q0 -25 -20 -45t-46 -20
q-20 0 -33 13zM245 610q44 44 74 87h69q16 -43 45 -87t53 -66h-82q-17 16 -33.5 41t-27.5 47q-15 -20 -42.5 -45.5t-51.5 -42.5h-81q33 22 77 66z" />
    <glyph glyph-name="uni1EA7" unicode="&#x1ea7;" horiz-adv-x="529" 
d="M433 105q-2 -12 -2 -17q0 -13 6.5 -23t20.5 -24l-59 -52q-26 17 -39.5 35t-16.5 41q-28 -35 -71 -55.5t-99 -20.5q-68 0 -105.5 31t-37.5 86q0 81 54.5 119t152.5 48l70 8q44 5 59.5 16t18.5 39v-2q2 40 -21.5 62t-68.5 22q-52 0 -82 -13t-62 -44l-52 43q35 40 82 58.5
t120 18.5q82 0 127 -35t45 -96q0 -16 -3 -33zM304.5 87q43.5 33 52.5 84l12 67q-22 -11 -75 -17l-60 -6q-56 -5 -87 -31.5t-31 -70.5q0 -29 20.5 -44t59.5 -15q65 0 108.5 33zM440 753h89l43 -116h-68zM244.5 611q44.5 44 73.5 86h70q15 -43 43.5 -87.5t53.5 -65.5h-78
q-18 17 -36.5 43t-25.5 45q-14 -20 -41.5 -46t-51.5 -42h-85q33 23 77.5 67z" />
    <glyph glyph-name="uni1EA9" unicode="&#x1ea9;" horiz-adv-x="529" 
d="M433 105q-2 -12 -2 -17q0 -13 6.5 -23t20.5 -24l-59 -52q-26 17 -39.5 35t-16.5 41q-28 -35 -71 -55.5t-99 -20.5q-68 0 -105.5 31t-37.5 86q0 81 54.5 119t152.5 48l70 8q44 5 59.5 16t18.5 39v-2q2 40 -21.5 62t-68.5 22q-52 0 -82 -13t-62 -44l-52 43q35 40 82 58.5
t120 18.5q82 0 127 -35t45 -96q0 -16 -3 -33zM304.5 87q43.5 33 52.5 84l12 67q-22 -11 -75 -17l-60 -6q-56 -5 -87 -31.5t-31 -70.5q0 -29 20.5 -44t59.5 -15q65 0 108.5 33zM585.5 697q-21.5 -20 -61.5 -29l-6 -34h-59l12 64q44 5 60.5 14t16.5 30q0 13 -9 17t-28 4
q-24 0 -51 -10l-6 45q36 14 73 14q80 0 80 -56q0 -39 -21.5 -59zM431.5 609.5q28.5 -44.5 53.5 -65.5h-78q-18 17 -36.5 43t-25.5 45q-14 -20 -41.5 -46t-51.5 -42h-85q33 23 77.5 67t73.5 86h70q15 -43 43.5 -87.5z" />
    <glyph glyph-name="uni1EAB" unicode="&#x1eab;" horiz-adv-x="529" 
d="M433 105q-2 -12 -2 -17q0 -13 6.5 -23t20.5 -24l-59 -52q-26 17 -39.5 35t-16.5 41q-28 -35 -71 -55.5t-99 -20.5q-68 0 -105.5 31t-37.5 86q0 81 54.5 119t152.5 48l70 8q44 5 59.5 16t18.5 39v-2q2 40 -21.5 62t-68.5 22q-52 0 -82 -13t-62 -44l-52 43q35 40 82 58.5
t120 18.5q82 0 127 -35t45 -96q0 -16 -3 -33zM304.5 87q43.5 33 52.5 84l12 67q-22 -11 -75 -17l-60 -6q-56 -5 -87 -31.5t-31 -70.5q0 -29 20.5 -44t59.5 -15q65 0 108.5 33zM246 801q29 30 74 30q18 0 31.5 -5.5t33.5 -16.5q26 -17 44 -17q15 0 25 10.5t18 33.5h53
q-11 -43 -40 -73t-67 -30q-19 0 -32 5.5t-34 16.5q-10 6 -21 11t-21 5q-17 0 -28.5 -10.5t-20.5 -34.5h-54q10 45 39 75zM244.5 611q44.5 44 73.5 86h70q15 -43 43.5 -87.5t53.5 -65.5h-78q-18 17 -36.5 43t-25.5 45q-14 -20 -41.5 -46t-51.5 -42h-85q33 23 77.5 67z" />
    <glyph glyph-name="adieresis" unicode="&#xe4;" horiz-adv-x="529" 
d="M433 105q-2 -12 -2 -17q0 -13 6.5 -23t20.5 -24l-59 -52q-26 17 -39.5 35t-16.5 41q-28 -35 -71 -55.5t-99 -20.5q-68 0 -105.5 31t-37.5 86q0 81 54.5 119t152.5 48l70 8q44 5 59.5 16t18.5 39v-2q2 40 -21.5 62t-68.5 22q-52 0 -82 -13t-62 -44l-52 43q35 40 82 58.5
t120 18.5q82 0 127 -35t45 -96q0 -16 -3 -33zM304.5 87q43.5 33 52.5 84l12 67q-22 -11 -75 -17l-60 -6q-56 -5 -87 -31.5t-31 -70.5q0 -29 20.5 -44t59.5 -15q65 0 108.5 33zM214 552q-12 12 -12 29q0 23 18 40.5t41 17.5q17 0 28.5 -12t11.5 -29q0 -22 -18 -40t-40 -18
q-17 0 -29 12zM381.5 552q-11.5 12 -11.5 29q0 23 18 40.5t41 17.5q18 0 29.5 -12t11.5 -29q0 -22 -18 -40t-40 -18q-19 0 -30.5 12z" />
    <glyph glyph-name="uni1EA1" unicode="&#x1ea1;" horiz-adv-x="529" 
d="M433 105q-2 -12 -2 -17q0 -13 6.5 -23t20.5 -24l-59 -52q-26 17 -39.5 35t-16.5 41q-28 -35 -71 -55.5t-99 -20.5q-68 0 -105.5 31t-37.5 86q0 81 54.5 119t152.5 48l70 8q44 5 59.5 16t18.5 39v-2q2 40 -21.5 62t-68.5 22q-52 0 -82 -13t-62 -44l-52 43q35 40 82 58.5
t120 18.5q82 0 127 -35t45 -96q0 -16 -3 -33zM304.5 87q43.5 33 52.5 84l12 67q-22 -11 -75 -17l-60 -6q-56 -5 -87 -31.5t-31 -70.5q0 -29 20.5 -44t59.5 -15q65 0 108.5 33zM168 -160q-13 13 -13 33q0 25 20.5 45t45.5 20q20 0 33 -13t13 -33q0 -25 -20 -45t-46 -20
q-20 0 -33 13z" />
    <glyph glyph-name="agrave" unicode="&#xe0;" horiz-adv-x="529" 
d="M433 105q-2 -12 -2 -17q0 -13 6.5 -23t20.5 -24l-59 -52q-26 17 -39.5 35t-16.5 41q-28 -35 -71 -55.5t-99 -20.5q-68 0 -105.5 31t-37.5 86q0 81 54.5 119t152.5 48l70 8q44 5 59.5 16t18.5 39v-2q2 40 -21.5 62t-68.5 22q-52 0 -82 -13t-62 -44l-52 43q35 40 82 58.5
t120 18.5q82 0 127 -35t45 -96q0 -16 -3 -33zM304.5 87q43.5 33 52.5 84l12 67q-22 -11 -75 -17l-60 -6q-56 -5 -87 -31.5t-31 -70.5q0 -29 20.5 -44t59.5 -15q65 0 108.5 33zM214 693h95l54 -149h-72z" />
    <glyph glyph-name="uni1EA3" unicode="&#x1ea3;" horiz-adv-x="529" 
d="M433 105q-2 -12 -2 -17q0 -13 6.5 -23t20.5 -24l-59 -52q-26 17 -39.5 35t-16.5 41q-28 -35 -71 -55.5t-99 -20.5q-68 0 -105.5 31t-37.5 86q0 81 54.5 119t152.5 48l70 8q44 5 59.5 16t18.5 39v-2q2 40 -21.5 62t-68.5 22q-52 0 -82 -13t-62 -44l-52 43q35 40 82 58.5
t120 18.5q82 0 127 -35t45 -96q0 -16 -3 -33zM304.5 87q43.5 33 52.5 84l12 67q-22 -11 -75 -17l-60 -6q-56 -5 -87 -31.5t-31 -70.5q0 -29 20.5 -44t59.5 -15q65 0 108.5 33zM436 616q-27 -25 -73 -35l-7 -37h-66l12 70q46 5 67.5 17t21.5 36q0 15 -10.5 21t-30.5 6
q-28 0 -56 -10l-7 49q39 17 81 17q44 0 69.5 -17t25.5 -51q0 -41 -27 -66z" />
    <glyph glyph-name="uni0251" unicode="&#x251;" horiz-adv-x="578" 
d="M472 89q0 -13 6 -23.5t21 -24.5l-59 -52q-46 30 -55 71q-64 -71 -164 -71q-83 0 -130 50t-47 132q0 27 4 48l5 32q10 64 42.5 116.5t84 83t116.5 30.5q107 0 143 -76l12 65h88l-65 -365q-2 -12 -2 -16zM396 157l28 159q-15 96 -116 96q-64 0 -110 -45t-57 -116l-5 -32
q-3 -19 -3 -38q0 -57 29 -90t83 -33q102 0 151 99z" />
    <glyph glyph-name="amacron" unicode="&#x101;" horiz-adv-x="529" 
d="M433 105q-2 -12 -2 -17q0 -13 6.5 -23t20.5 -24l-59 -52q-26 17 -39.5 35t-16.5 41q-28 -35 -71 -55.5t-99 -20.5q-68 0 -105.5 31t-37.5 86q0 81 54.5 119t152.5 48l70 8q44 5 59.5 16t18.5 39v-2q2 40 -21.5 62t-68.5 22q-52 0 -82 -13t-62 -44l-52 43q35 40 82 58.5
t120 18.5q82 0 127 -35t45 -96q0 -16 -3 -33zM304.5 87q43.5 33 52.5 84l12 67q-22 -11 -75 -17l-60 -6q-56 -5 -87 -31.5t-31 -70.5q0 -29 20.5 -44t59.5 -15q65 0 108.5 33zM188 626h307l-11 -64h-307z" />
    <glyph glyph-name="aogonek" unicode="&#x105;" horiz-adv-x="529" 
d="M433 105q-2 -12 -2 -17q0 -13 6.5 -23t20.5 -24l-51 -45q-51 -62 -51 -102q0 -18 12 -27t32 -9q21 0 56 14l7 -51q-38 -22 -82 -22q-56 0 -79.5 22.5t-23.5 54.5q0 36 22.5 72.5t64.5 69.5q-18 21 -22 47q-28 -35 -71 -55.5t-99 -20.5q-68 0 -105.5 31t-37.5 86
q0 81 54.5 119t152.5 48l70 8q44 5 59.5 16t18.5 39v-2q2 40 -21.5 62t-68.5 22q-52 0 -82 -13t-62 -44l-52 43q35 40 82 58.5t120 18.5q82 0 127 -35t45 -96q0 -16 -3 -33zM304.5 87q43.5 33 52.5 84l12 67q-22 -11 -75 -17l-60 -6q-56 -5 -87 -31.5t-31 -70.5
q0 -29 20.5 -44t59.5 -15q65 0 108.5 33z" />
    <glyph glyph-name="aring" unicode="&#xe5;" horiz-adv-x="529" 
d="M433 105q-2 -12 -2 -17q0 -13 6.5 -23t20.5 -24l-59 -52q-26 17 -39.5 35t-16.5 41q-28 -35 -71 -55.5t-99 -20.5q-68 0 -105.5 31t-37.5 86q0 81 54.5 119t152.5 48l70 8q44 5 59.5 16t18.5 39v-2q2 40 -21.5 62t-68.5 22q-52 0 -82 -13t-62 -44l-52 43q35 40 82 58.5
t120 18.5q82 0 127 -35t45 -96q0 -16 -3 -33zM304.5 87q43.5 33 52.5 84l12 67q-22 -11 -75 -17l-60 -6q-56 -5 -87 -31.5t-31 -70.5q0 -29 20.5 -44t59.5 -15q65 0 108.5 33zM262 552.5q-23 21.5 -23 57.5q0 49 34 80.5t86 31.5q40 0 63 -21.5t23 -57.5q0 -49 -34 -80.5
t-86 -31.5q-40 0 -63 21.5zM375 594.5q16 17.5 16 43.5q0 19 -10.5 28.5t-30.5 9.5q-25 0 -41 -17.5t-16 -43.5q0 -19 10.5 -28.5t29.5 -9.5q26 0 42 17.5z" />
    <glyph glyph-name="aringacute" unicode="&#x1fb;" horiz-adv-x="529" 
d="M392 770h-72l107 119h94zM262 552.5q-23 21.5 -23 57.5q0 49 34 80.5t86 31.5q40 0 63 -21.5t23 -57.5q0 -49 -34 -80.5t-86 -31.5q-40 0 -63 21.5zM309 658.5q-16 -17.5 -16 -43.5q0 -19 10.5 -28.5t29.5 -9.5q26 0 42 17.5t16 43.5q0 19 -10.5 28.5t-30.5 9.5
q-25 0 -41 -17.5zM428 446q45 -35 45 -96q0 -16 -3 -33l-37 -212q-2 -12 -2 -17q0 -13 6.5 -23t20.5 -24l-59 -52q-26 17 -39.5 35t-16.5 41q-28 -35 -71 -55.5t-99 -20.5q-68 0 -105.5 31t-37.5 86q0 81 54.5 119t152.5 48l70 8q44 5 59.5 16t18.5 39v-2q2 40 -21.5 62
t-68.5 22q-52 0 -82 -13t-62 -44l-52 43q35 40 82 58.5t120 18.5q82 0 127 -35zM304.5 87q43.5 33 52.5 84l12 67q-22 -11 -75 -17l-60 -6q-56 -5 -87 -31.5t-31 -70.5q0 -29 20.5 -44t59.5 -15q65 0 108.5 33z" />
    <glyph glyph-name="atilde" unicode="&#xe3;" horiz-adv-x="529" 
d="M433 105q-2 -12 -2 -17q0 -13 6.5 -23t20.5 -24l-59 -52q-26 17 -39.5 35t-16.5 41q-28 -35 -71 -55.5t-99 -20.5q-68 0 -105.5 31t-37.5 86q0 81 54.5 119t152.5 48l70 8q44 5 59.5 16t18.5 39v-2q2 40 -21.5 62t-68.5 22q-52 0 -82 -13t-62 -44l-52 43q35 40 82 58.5
t120 18.5q82 0 127 -35t45 -96q0 -16 -3 -33zM304.5 87q43.5 33 52.5 84l12 67q-22 -11 -75 -17l-60 -6q-56 -5 -87 -31.5t-31 -70.5q0 -29 20.5 -44t59.5 -15q65 0 108.5 33zM209.5 632.5q30.5 33.5 77.5 33.5q20 0 35.5 -6.5t34.5 -18.5q18 -10 27 -14t20 -4
q17 0 27.5 11.5t19.5 36.5h59q-12 -48 -43 -82t-72 -34q-21 0 -36.5 6.5t-34.5 18.5q-16 9 -25.5 13.5t-20.5 4.5q-18 0 -30 -12t-22 -38h-58q11 51 41.5 84.5z" />
    <glyph glyph-name="ae" unicode="&#xe6;" horiz-adv-x="810" 
d="M443 165q-3 -15 -3 -29q0 -78 104 -78q42 0 75 12.5t65 38.5l45 -50q-70 -70 -187 -70q-66 0 -108.5 21t-58.5 62q-73 -83 -201 -83q-68 0 -106 31t-38 86q0 81 54.5 119t152.5 48l69 8q44 4 59.5 15t19.5 40q1 39 -23 60.5t-68 21.5q-51 0 -81.5 -13t-61.5 -44l-53 43
q34 39 80 58t128 19q52 0 89.5 -16t54.5 -45q60 60 151 60q84 0 133.5 -37t49.5 -106q0 -70 -32.5 -100.5t-96.5 -30.5h-205zM460 263h171q35 0 50 15.5t15 54.5q0 38 -26 58t-73 20q-52 0 -86 -28t-42 -75zM369 238q-22 -11 -75 -17l-60 -6q-56 -5 -87 -31.5t-31 -70.5
q0 -29 20.5 -44t59.5 -15q65 0 108.5 33t52.5 84z" />
    <glyph glyph-name="aeacute" unicode="&#x1fd;" horiz-adv-x="810" 
d="M443 165q-3 -15 -3 -29q0 -78 104 -78q42 0 75 12.5t65 38.5l45 -50q-70 -70 -187 -70q-66 0 -108.5 21t-58.5 62q-73 -83 -201 -83q-68 0 -106 31t-38 86q0 81 54.5 119t152.5 48l69 8q44 4 59.5 15t19.5 40q1 39 -23 60.5t-68 21.5q-51 0 -81.5 -13t-61.5 -44l-53 43
q34 39 80 58t128 19q52 0 89.5 -16t54.5 -45q60 60 151 60q84 0 133.5 -37t49.5 -106q0 -70 -32.5 -100.5t-96.5 -30.5h-205zM460 263h171q35 0 50 15.5t15 54.5q0 38 -26 58t-73 20q-52 0 -86 -28t-42 -75zM369 238q-22 -11 -75 -17l-60 -6q-56 -5 -87 -31.5t-31 -70.5
q0 -29 20.5 -44t59.5 -15q65 0 108.5 33t52.5 84zM530 693h95l-130 -149h-72z" />
    <glyph glyph-name="b" unicode="b" horiz-adv-x="578" 
d="M198 8.5q-39 19.5 -59 52.5l-11 -61h-88l109 616q2 12 2 16q0 15 -6.5 27t-20.5 26l58 48q30 -18 43.5 -38.5t13.5 -50.5q0 -18 -2 -28l-37 -207q29 34 70.5 53t86.5 19q83 0 130 -49.5t47 -132.5q0 -25 -4 -48l-5 -32q-16 -102 -80 -166t-158 -64q-50 0 -89 19.5z
M382.5 102.5q42.5 44.5 54.5 116.5l5 32q3 20 3 37q0 55 -28.5 89.5t-83.5 34.5q-101 0 -150 -99l-27 -156q7 -49 38.5 -74t82.5 -25q63 0 105.5 44.5z" />
    <glyph glyph-name="c" unicode="c" horiz-adv-x="475" 
d="M89 26q-49 37 -49 105q0 18 3 36l24 136q16 85 74 131.5t152 46.5q65 0 111 -20t68 -57l-69 -50q-22 32 -47 45t-66 13q-54 0 -90 -29t-45 -80l-24 -136q-2 -9 -2 -25q0 -41 26 -62.5t77 -21.5q40 0 71 14t60 44l52 -50q-37 -40 -81.5 -58.5t-104.5 -18.5q-91 0 -140 37z
" />
    <glyph glyph-name="cacute" unicode="&#x107;" horiz-adv-x="475" 
d="M89 26q-49 37 -49 105q0 18 3 36l24 136q16 85 74 131.5t152 46.5q65 0 111 -20t68 -57l-69 -50q-22 32 -47 45t-66 13q-54 0 -90 -29t-45 -80l-24 -136q-2 -9 -2 -25q0 -41 26 -62.5t77 -21.5q40 0 71 14t60 44l52 -50q-37 -40 -81.5 -58.5t-104.5 -18.5q-91 0 -140 37z
M378 693h95l-130 -149h-72z" />
    <glyph glyph-name="ccaron" unicode="&#x10d;" horiz-adv-x="475" 
d="M89 26q-49 37 -49 105q0 18 3 36l24 136q16 85 74 131.5t152 46.5q65 0 111 -20t68 -57l-69 -50q-22 32 -47 45t-66 13q-54 0 -90 -29t-45 -80l-24 -136q-2 -9 -2 -25q0 -41 26 -62.5t77 -21.5q40 0 71 14t60 44l52 -50q-37 -40 -81.5 -58.5t-104.5 -18.5q-91 0 -140 37z
M231 630q-29 44 -53 67h81q17 -17 34.5 -42t27.5 -47q15 20 42 45.5t52 43.5h81q-34 -24 -77.5 -67.5t-73.5 -85.5h-69q-16 42 -45 86z" />
    <glyph glyph-name="ccedilla" unicode="&#xe7;" horiz-adv-x="475" 
d="M303 72q31 14 60 44l52 -50q-34 -37 -73.5 -55.5t-91.5 -20.5l-16 -34q36 -2 54 -19t18 -46q0 -48 -34.5 -74t-100.5 -26q-56 0 -92 21l24 50q32 -17 67 -17q33 0 48.5 9t15.5 29q0 27 -52 27q-7 0 -31 -2l35 83q-71 8 -108.5 44.5t-37.5 95.5q0 18 3 36l24 136
q16 85 74 131.5t152 46.5q65 0 111 -20t68 -57l-69 -50q-22 32 -47 45t-66 13q-54 0 -90 -29t-45 -80l-24 -136q-2 -9 -2 -25q0 -41 26 -62.5t77 -21.5q40 0 71 14z" />
    <glyph glyph-name="ccircumflex" unicode="&#x109;" horiz-adv-x="475" 
d="M89 26q-49 37 -49 105q0 18 3 36l24 136q16 85 74 131.5t152 46.5q65 0 111 -20t68 -57l-69 -50q-22 32 -47 45t-66 13q-54 0 -90 -29t-45 -80l-24 -136q-2 -9 -2 -25q0 -41 26 -62.5t77 -21.5q40 0 71 14t60 44l52 -50q-37 -40 -81.5 -58.5t-104.5 -18.5q-91 0 -140 37z
M228 610q44 44 74 87h69q16 -43 45 -87t53 -66h-82q-17 16 -33.5 41t-27.5 47q-15 -20 -42.5 -45.5t-51.5 -42.5h-81q33 22 77 66z" />
    <glyph glyph-name="cdotaccent" unicode="&#x10b;" horiz-adv-x="475" 
d="M89 26q-49 37 -49 105q0 18 3 36l24 136q16 85 74 131.5t152 46.5q65 0 111 -20t68 -57l-69 -50q-22 32 -47 45t-66 13q-54 0 -90 -29t-45 -80l-24 -136q-2 -9 -2 -25q0 -41 26 -62.5t77 -21.5q40 0 71 14t60 44l52 -50q-37 -40 -81.5 -58.5t-104.5 -18.5q-91 0 -140 37z
M277 553.5q-13 13.5 -13 33.5q0 25 20.5 45t45.5 20q20 0 33 -13.5t13 -32.5q0 -25 -20 -45.5t-46 -20.5q-20 0 -33 13.5z" />
    <glyph glyph-name="d" unicode="d" horiz-adv-x="578" 
d="M474 105q-2 -12 -2 -17q0 -13 6 -23.5t21 -23.5l-59 -52q-47 31 -53 74q-64 -74 -166 -74q-83 0 -130 50t-47 132q0 27 4 48l5 32q10 64 42.5 116.5t84 83t116.5 30.5q52 0 88.5 -19t55.5 -51l36 205q1 5 1 14q0 15 -6 26.5t-20 24.5l60 52q29 -17 42.5 -37.5t13.5 -48.5
q0 -14 -3 -31zM423 314q-7 49 -37 73.5t-78 24.5q-64 0 -110 -45t-57 -116l-5 -32q-3 -19 -3 -38q0 -57 29 -90t83 -33q101 0 151 99z" />
    <glyph glyph-name="eth" unicode="&#xf0;" horiz-adv-x="519" 
d="M489 550h-91l61 -130q20 -46 20 -84q0 -11 -4 -37l-22 -128q-15 -85 -71 -133.5t-156 -48.5q-89 0 -137 39.5t-48 106.5q0 18 3 36l23 128q15 84 74 133t158 49q26 0 47 -6l-34 75h-139l9 48h107l-47 102h85l48 -102h123zM390 327q0 39 -24.5 62t-74.5 23
q-58 0 -92.5 -31t-43.5 -82l-23 -128q-2 -9 -2 -26q0 -41 24 -64t75 -23q58 0 92 30.5t44 82.5l22 128q3 15 3 28z" />
    <glyph glyph-name="dcaron" unicode="&#x10f;" horiz-adv-x="658" 
d="M474 105q-2 -12 -2 -17q0 -13 6 -23.5t21 -23.5l-59 -52q-47 31 -53 74q-64 -74 -166 -74q-83 0 -130 50t-47 132q0 27 4 48l5 32q10 64 42.5 116.5t84 83t116.5 30.5q52 0 88.5 -19t55.5 -51l36 205q1 5 1 14q0 15 -6 26.5t-20 24.5l60 52q29 -17 42.5 -37.5t13.5 -48.5
q0 -14 -3 -31zM423 314q-7 49 -37 73.5t-78 24.5q-64 0 -110 -45t-57 -116l-5 -32q-3 -19 -3 -38q0 -57 29 -90t83 -33q101 0 151 99zM718 711.5q12 -13.5 12 -38.5q0 -48 -31.5 -94.5t-81.5 -80.5l-22 28q57 39 73 87q-12 -6 -27 -6q-16 0 -25.5 10t-9.5 27q0 31 23.5 56
t52.5 25q24 0 36 -13.5z" />
    <glyph glyph-name="dcroat" unicode="&#x111;" horiz-adv-x="578" 
d="M474 105q-2 -12 -2 -17q0 -13 6 -23.5t21 -23.5l-59 -52q-47 31 -53 74q-64 -74 -166 -74q-83 0 -130 50t-47 132q0 27 4 48l5 32q10 64 42.5 116.5t84 83t116.5 30.5q52 0 88.5 -19t55.5 -51l25 141h-173l9 49h172l3 15q1 5 1 14q0 15 -6 26.5t-20 24.5l60 52
q29 -17 42.5 -37.5t13.5 -48.5q0 -14 -3 -31l-3 -15h72l-9 -49h-71zM423 314q-7 49 -37 73.5t-78 24.5q-64 0 -110 -45t-57 -116l-5 -32q-3 -19 -3 -38q0 -57 29 -90t83 -33q101 0 151 99z" />
    <glyph glyph-name="uni1E0D" unicode="&#x1e0d;" horiz-adv-x="578" 
d="M474 105q-2 -12 -2 -17q0 -13 6 -23.5t21 -23.5l-59 -52q-47 31 -53 74q-64 -74 -166 -74q-83 0 -130 50t-47 132q0 27 4 48l5 32q10 64 42.5 116.5t84 83t116.5 30.5q52 0 88.5 -19t55.5 -51l36 205q1 5 1 14q0 15 -6 26.5t-20 24.5l60 52q29 -17 42.5 -37.5t13.5 -48.5
q0 -14 -3 -31zM423 314q-7 49 -37 73.5t-78 24.5q-64 0 -110 -45t-57 -116l-5 -32q-3 -19 -3 -38q0 -57 29 -90t83 -33q101 0 151 99zM183 -160q-13 13 -13 33q0 25 20.5 45t45.5 20q20 0 33 -13t13 -33q0 -25 -20 -45t-46 -20q-20 0 -33 13z" />
    <glyph glyph-name="uni1E0F" unicode="&#x1e0f;" horiz-adv-x="578" 
d="M474 105q-2 -12 -2 -17q0 -13 6 -23.5t21 -23.5l-59 -52q-47 31 -53 74q-64 -74 -166 -74q-83 0 -130 50t-47 132q0 27 4 48l5 32q10 64 42.5 116.5t84 83t116.5 30.5q52 0 88.5 -19t55.5 -51l36 205q1 5 1 14q0 15 -6 26.5t-20 24.5l60 52q29 -17 42.5 -37.5t13.5 -48.5
q0 -14 -3 -31zM423 314q-7 49 -37 73.5t-78 24.5q-64 0 -110 -45t-57 -116l-5 -32q-3 -19 -3 -38q0 -57 29 -90t83 -33q101 0 151 99zM79 -78h307l-12 -65h-306z" />
    <glyph glyph-name="e" unicode="e" horiz-adv-x="496" 
d="M130 165q-2 -9 -2 -26q0 -82 103 -82q41 0 74.5 12t65.5 39l45 -49q-37 -36 -83 -53t-105 -17q-93 0 -141 34t-48 102q0 22 4 41l26 149q14 78 70.5 122t145.5 44q85 0 134 -39.5t49 -109.5q0 -72 -29 -104t-94 -32h-210zM197.5 385.5q-33.5 -27.5 -42.5 -76.5l-9 -50
h170q34 0 49 16t15 56q0 39 -25.5 60.5t-71.5 21.5q-52 0 -85.5 -27.5z" />
    <glyph glyph-name="eacute" unicode="&#xe9;" horiz-adv-x="496" 
d="M130 165q-2 -9 -2 -26q0 -82 103 -82q41 0 74.5 12t65.5 39l45 -49q-37 -36 -83 -53t-105 -17q-93 0 -141 34t-48 102q0 22 4 41l26 149q14 78 70.5 122t145.5 44q85 0 134 -39.5t49 -109.5q0 -72 -29 -104t-94 -32h-210zM197.5 385.5q-33.5 -27.5 -42.5 -76.5l-9 -50
h170q34 0 49 16t15 56q0 39 -25.5 60.5t-71.5 21.5q-52 0 -85.5 -27.5zM366 693h95l-130 -149h-72z" />
    <glyph glyph-name="ebreve" unicode="&#x115;" horiz-adv-x="496" 
d="M130 165q-2 -9 -2 -26q0 -82 103 -82q41 0 74.5 12t65.5 39l45 -49q-37 -36 -83 -53t-105 -17q-93 0 -141 34t-48 102q0 22 4 41l26 149q14 78 70.5 122t145.5 44q85 0 134 -39.5t49 -109.5q0 -72 -29 -104t-94 -32h-210zM197.5 385.5q-33.5 -27.5 -42.5 -76.5l-9 -50
h170q34 0 49 16t15 56q0 39 -25.5 60.5t-71.5 21.5q-52 0 -85.5 -27.5zM204.5 569.5q-36.5 32.5 -36.5 87.5q0 15 3 30h63q-4 -40 15.5 -63t58.5 -23q40 0 67.5 23t37.5 63h64q-12 -69 -58.5 -109.5t-115.5 -40.5q-62 0 -98.5 32.5z" />
    <glyph glyph-name="ecaron" unicode="&#x11b;" horiz-adv-x="496" 
d="M130 165q-2 -9 -2 -26q0 -82 103 -82q41 0 74.5 12t65.5 39l45 -49q-37 -36 -83 -53t-105 -17q-93 0 -141 34t-48 102q0 22 4 41l26 149q14 78 70.5 122t145.5 44q85 0 134 -39.5t49 -109.5q0 -72 -29 -104t-94 -32h-210zM197.5 385.5q-33.5 -27.5 -42.5 -76.5l-9 -50
h170q34 0 49 16t15 56q0 39 -25.5 60.5t-71.5 21.5q-52 0 -85.5 -27.5zM219 630q-29 44 -53 67h81q17 -17 34.5 -42t27.5 -47q15 20 42 45.5t52 43.5h81q-34 -24 -77.5 -67.5t-73.5 -85.5h-69q-16 42 -45 86z" />
    <glyph glyph-name="ecircumflex" unicode="&#xea;" horiz-adv-x="496" 
d="M130 165q-2 -9 -2 -26q0 -82 103 -82q41 0 74.5 12t65.5 39l45 -49q-37 -36 -83 -53t-105 -17q-93 0 -141 34t-48 102q0 22 4 41l26 149q14 78 70.5 122t145.5 44q85 0 134 -39.5t49 -109.5q0 -72 -29 -104t-94 -32h-210zM197.5 385.5q-33.5 -27.5 -42.5 -76.5l-9 -50
h170q34 0 49 16t15 56q0 39 -25.5 60.5t-71.5 21.5q-52 0 -85.5 -27.5zM216 610q44 44 74 87h69q16 -43 45 -87t53 -66h-82q-17 16 -33.5 41t-27.5 47q-15 -20 -42.5 -45.5t-51.5 -42.5h-81q33 22 77 66z" />
    <glyph glyph-name="uni1EBF" unicode="&#x1ebf;" horiz-adv-x="496" 
d="M130 165q-2 -9 -2 -26q0 -82 103 -82q41 0 74.5 12t65.5 39l45 -49q-37 -36 -83 -53t-105 -17q-93 0 -141 34t-48 102q0 22 4 41l26 149q14 78 70.5 122t145.5 44q85 0 134 -39.5t49 -109.5q0 -72 -29 -104t-94 -32h-210zM197.5 385.5q-33.5 -27.5 -42.5 -76.5l-9 -50
h170q34 0 49 16t15 56q0 39 -25.5 60.5t-71.5 21.5q-52 0 -85.5 -27.5zM505 753h89l-104 -116h-68zM215.5 611q44.5 44 73.5 86h70q15 -43 43.5 -87.5t53.5 -65.5h-78q-18 17 -36.5 43t-25.5 45q-14 -20 -41.5 -46t-51.5 -42h-85q33 23 77.5 67z" />
    <glyph glyph-name="uni1EC7" unicode="&#x1ec7;" horiz-adv-x="496" 
d="M130 165q-2 -9 -2 -26q0 -82 103 -82q41 0 74.5 12t65.5 39l45 -49q-37 -36 -83 -53t-105 -17q-93 0 -141 34t-48 102q0 22 4 41l26 149q14 78 70.5 122t145.5 44q85 0 134 -39.5t49 -109.5q0 -72 -29 -104t-94 -32h-210zM197.5 385.5q-33.5 -27.5 -42.5 -76.5l-9 -50
h170q34 0 49 16t15 56q0 39 -25.5 60.5t-71.5 21.5q-52 0 -85.5 -27.5zM148 -160q-13 13 -13 33q0 25 20.5 45t45.5 20q20 0 33 -13t13 -33q0 -25 -20 -45t-46 -20q-20 0 -33 13zM216 610q44 44 74 87h69q16 -43 45 -87t53 -66h-82q-17 16 -33.5 41t-27.5 47
q-15 -20 -42.5 -45.5t-51.5 -42.5h-81q33 22 77 66z" />
    <glyph glyph-name="uni1EC1" unicode="&#x1ec1;" horiz-adv-x="496" 
d="M130 165q-2 -9 -2 -26q0 -82 103 -82q41 0 74.5 12t65.5 39l45 -49q-37 -36 -83 -53t-105 -17q-93 0 -141 34t-48 102q0 22 4 41l26 149q14 78 70.5 122t145.5 44q85 0 134 -39.5t49 -109.5q0 -72 -29 -104t-94 -32h-210zM197.5 385.5q-33.5 -27.5 -42.5 -76.5l-9 -50
h170q34 0 49 16t15 56q0 39 -25.5 60.5t-71.5 21.5q-52 0 -85.5 -27.5zM411 753h89l43 -116h-68zM215.5 611q44.5 44 73.5 86h70q15 -43 43.5 -87.5t53.5 -65.5h-78q-18 17 -36.5 43t-25.5 45q-14 -20 -41.5 -46t-51.5 -42h-85q33 23 77.5 67z" />
    <glyph glyph-name="uni1EC3" unicode="&#x1ec3;" horiz-adv-x="496" 
d="M130 165q-2 -9 -2 -26q0 -82 103 -82q41 0 74.5 12t65.5 39l45 -49q-37 -36 -83 -53t-105 -17q-93 0 -141 34t-48 102q0 22 4 41l26 149q14 78 70.5 122t145.5 44q85 0 134 -39.5t49 -109.5q0 -72 -29 -104t-94 -32h-210zM197.5 385.5q-33.5 -27.5 -42.5 -76.5l-9 -50
h170q34 0 49 16t15 56q0 39 -25.5 60.5t-71.5 21.5q-52 0 -85.5 -27.5zM556.5 697q-21.5 -20 -61.5 -29l-6 -34h-59l12 64q44 5 60.5 14t16.5 30q0 13 -9 17t-28 4q-24 0 -51 -10l-6 45q36 14 73 14q80 0 80 -56q0 -39 -21.5 -59zM402.5 609.5q28.5 -44.5 53.5 -65.5h-78
q-18 17 -36.5 43t-25.5 45q-14 -20 -41.5 -46t-51.5 -42h-85q33 23 77.5 67t73.5 86h70q15 -43 43.5 -87.5z" />
    <glyph glyph-name="uni1EC5" unicode="&#x1ec5;" horiz-adv-x="496" 
d="M130 165q-2 -9 -2 -26q0 -82 103 -82q41 0 74.5 12t65.5 39l45 -49q-37 -36 -83 -53t-105 -17q-93 0 -141 34t-48 102q0 22 4 41l26 149q14 78 70.5 122t145.5 44q85 0 134 -39.5t49 -109.5q0 -72 -29 -104t-94 -32h-210zM197.5 385.5q-33.5 -27.5 -42.5 -76.5l-9 -50
h170q34 0 49 16t15 56q0 39 -25.5 60.5t-71.5 21.5q-52 0 -85.5 -27.5zM217 801q29 30 74 30q18 0 31.5 -5.5t33.5 -16.5q26 -17 44 -17q15 0 25 10.5t18 33.5h53q-11 -43 -40 -73t-67 -30q-19 0 -32 5.5t-34 16.5q-10 6 -21 11t-21 5q-17 0 -28.5 -10.5t-20.5 -34.5h-54
q10 45 39 75zM215.5 611q44.5 44 73.5 86h70q15 -43 43.5 -87.5t53.5 -65.5h-78q-18 17 -36.5 43t-25.5 45q-14 -20 -41.5 -46t-51.5 -42h-85q33 23 77.5 67z" />
    <glyph glyph-name="edieresis" unicode="&#xeb;" horiz-adv-x="496" 
d="M130 165q-2 -9 -2 -26q0 -82 103 -82q41 0 74.5 12t65.5 39l45 -49q-37 -36 -83 -53t-105 -17q-93 0 -141 34t-48 102q0 22 4 41l26 149q14 78 70.5 122t145.5 44q85 0 134 -39.5t49 -109.5q0 -72 -29 -104t-94 -32h-210zM197.5 385.5q-33.5 -27.5 -42.5 -76.5l-9 -50
h170q34 0 49 16t15 56q0 39 -25.5 60.5t-71.5 21.5q-52 0 -85.5 -27.5zM185 552q-12 12 -12 29q0 23 18 40.5t41 17.5q17 0 28.5 -12t11.5 -29q0 -22 -18 -40t-40 -18q-17 0 -29 12zM352.5 552q-11.5 12 -11.5 29q0 23 18 40.5t41 17.5q18 0 29.5 -12t11.5 -29
q0 -22 -18 -40t-40 -18q-19 0 -30.5 12z" />
    <glyph glyph-name="edotaccent" unicode="&#x117;" horiz-adv-x="496" 
d="M130 165q-2 -9 -2 -26q0 -82 103 -82q41 0 74.5 12t65.5 39l45 -49q-37 -36 -83 -53t-105 -17q-93 0 -141 34t-48 102q0 22 4 41l26 149q14 78 70.5 122t145.5 44q85 0 134 -39.5t49 -109.5q0 -72 -29 -104t-94 -32h-210zM197.5 385.5q-33.5 -27.5 -42.5 -76.5l-9 -50
h170q34 0 49 16t15 56q0 39 -25.5 60.5t-71.5 21.5q-52 0 -85.5 -27.5zM265 553.5q-13 13.5 -13 33.5q0 25 20.5 45t45.5 20q20 0 33 -13.5t13 -32.5q0 -25 -20 -45.5t-46 -20.5q-20 0 -33 13.5z" />
    <glyph glyph-name="uni1EB9" unicode="&#x1eb9;" horiz-adv-x="496" 
d="M130 165q-2 -9 -2 -26q0 -82 103 -82q41 0 74.5 12t65.5 39l45 -49q-37 -36 -83 -53t-105 -17q-93 0 -141 34t-48 102q0 22 4 41l26 149q14 78 70.5 122t145.5 44q85 0 134 -39.5t49 -109.5q0 -72 -29 -104t-94 -32h-210zM197.5 385.5q-33.5 -27.5 -42.5 -76.5l-9 -50
h170q34 0 49 16t15 56q0 39 -25.5 60.5t-71.5 21.5q-52 0 -85.5 -27.5zM148 -160q-13 13 -13 33q0 25 20.5 45t45.5 20q20 0 33 -13t13 -33q0 -25 -20 -45t-46 -20q-20 0 -33 13z" />
    <glyph glyph-name="egrave" unicode="&#xe8;" horiz-adv-x="496" 
d="M130 165q-2 -9 -2 -26q0 -82 103 -82q41 0 74.5 12t65.5 39l45 -49q-37 -36 -83 -53t-105 -17q-93 0 -141 34t-48 102q0 22 4 41l26 149q14 78 70.5 122t145.5 44q85 0 134 -39.5t49 -109.5q0 -72 -29 -104t-94 -32h-210zM197.5 385.5q-33.5 -27.5 -42.5 -76.5l-9 -50
h170q34 0 49 16t15 56q0 39 -25.5 60.5t-71.5 21.5q-52 0 -85.5 -27.5zM185 693h95l54 -149h-72z" />
    <glyph glyph-name="uni1EBB" unicode="&#x1ebb;" horiz-adv-x="496" 
d="M130 165q-2 -9 -2 -26q0 -82 103 -82q41 0 74.5 12t65.5 39l45 -49q-37 -36 -83 -53t-105 -17q-93 0 -141 34t-48 102q0 22 4 41l26 149q14 78 70.5 122t145.5 44q85 0 134 -39.5t49 -109.5q0 -72 -29 -104t-94 -32h-210zM197.5 385.5q-33.5 -27.5 -42.5 -76.5l-9 -50
h170q34 0 49 16t15 56q0 39 -25.5 60.5t-71.5 21.5q-52 0 -85.5 -27.5zM407 616q-27 -25 -73 -35l-7 -37h-66l12 70q46 5 67.5 17t21.5 36q0 15 -10.5 21t-30.5 6q-28 0 -56 -10l-7 49q39 17 81 17q44 0 69.5 -17t25.5 -51q0 -41 -27 -66z" />
    <glyph glyph-name="emacron" unicode="&#x113;" horiz-adv-x="496" 
d="M130 165q-2 -9 -2 -26q0 -82 103 -82q41 0 74.5 12t65.5 39l45 -49q-37 -36 -83 -53t-105 -17q-93 0 -141 34t-48 102q0 22 4 41l26 149q14 78 70.5 122t145.5 44q85 0 134 -39.5t49 -109.5q0 -72 -29 -104t-94 -32h-210zM197.5 385.5q-33.5 -27.5 -42.5 -76.5l-9 -50
h170q34 0 49 16t15 56q0 39 -25.5 60.5t-71.5 21.5q-52 0 -85.5 -27.5zM160 626h307l-11 -64h-307z" />
    <glyph glyph-name="eogonek" unicode="&#x119;" horiz-adv-x="496" 
d="M130 165q-2 -9 -2 -26q0 -82 103 -82q41 0 74.5 12t65.5 39l45 -49q-36 -36 -81 -52.5t-103 -17.5q-53 -61 -53 -105q0 -18 12 -27t32 -9q21 0 56 14l6 -51q-38 -22 -81 -22q-56 0 -80 22.5t-24 54.5q0 63 70 127q-131 20 -131 132q0 21 4 41l26 149q14 78 70.5 122
t145.5 44q85 0 134 -39.5t49 -109.5q0 -72 -29 -104t-94 -32h-210zM197.5 385.5q-33.5 -27.5 -42.5 -76.5l-9 -50h170q34 0 49 16t15 56q0 39 -25.5 60.5t-71.5 21.5q-52 0 -85.5 -27.5z" />
    <glyph glyph-name="uni1EBD" unicode="&#x1ebd;" horiz-adv-x="496" 
d="M130 165q-2 -9 -2 -26q0 -82 103 -82q41 0 74.5 12t65.5 39l45 -49q-37 -36 -83 -53t-105 -17q-93 0 -141 34t-48 102q0 22 4 41l26 149q14 78 70.5 122t145.5 44q85 0 134 -39.5t49 -109.5q0 -72 -29 -104t-94 -32h-210zM197.5 385.5q-33.5 -27.5 -42.5 -76.5l-9 -50
h170q34 0 49 16t15 56q0 39 -25.5 60.5t-71.5 21.5q-52 0 -85.5 -27.5zM180.5 632.5q30.5 33.5 77.5 33.5q20 0 35.5 -6.5t34.5 -18.5q18 -10 27 -14t20 -4q17 0 27.5 11.5t19.5 36.5h59q-12 -48 -43 -82t-72 -34q-21 0 -36.5 6.5t-34.5 18.5q-16 9 -25.5 13.5t-20.5 4.5
q-18 0 -30 -12t-22 -38h-58q11 51 41.5 84.5z" />
    <glyph glyph-name="uni0259" unicode="&#x259;" horiz-adv-x="496" 
d="M409 446.5q48 -34.5 48 -102.5q0 -21 -4 -40l-26 -149q-14 -78 -70.5 -122t-145.5 -44q-85 0 -134 39.5t-49 108.5q0 72 29 104t93 32h210l5 31q3 15 3 28q0 80 -103 80q-41 0 -74.5 -12t-65.5 -39l-45 49q37 37 83 54t105 17q93 0 141 -34.5zM298.5 84.5
q33.5 27.5 41.5 76.5l9 50h-169q-34 0 -49.5 -16.5t-15.5 -56.5q0 -38 26 -59.5t72 -21.5q52 0 85.5 27.5z" />
    <glyph glyph-name="f" unicode="f" horiz-adv-x="320" 
d="M391 723l-12 -69h-33q-50 0 -81 -29t-41 -85l-12 -70h134l-12 -69h-134l-71 -401h-88l95 540q16 89 73 136t148 47h34z" />
    <glyph glyph-name="g" unicode="g" horiz-adv-x="578" 
d="M567 429q-24 -17 -34 -30t-14 -34l-74 -421q-15 -87 -68.5 -129.5t-156.5 -42.5h-124l12 68h124q108 0 125 104l20 120q-59 -64 -157 -64q-82 0 -129 49.5t-47 129.5q0 21 5 51l4 21q11 63 43 115t83.5 83.5t117.5 31.5q51 0 87.5 -20t56.5 -58q9 28 26 46.5t46 31.5z
M334.5 93.5q36.5 24.5 61.5 74.5l26 146q-15 98 -115 98q-63 0 -108 -45t-58 -116l-4 -21q-4 -28 -4 -40q0 -55 29.5 -88t84.5 -33q51 0 87.5 24.5z" />
    <glyph glyph-name="gbreve" unicode="&#x11f;" horiz-adv-x="578" 
d="M567 429q-24 -17 -34 -30t-14 -34l-74 -421q-15 -87 -68.5 -129.5t-156.5 -42.5h-124l12 68h124q108 0 125 104l20 120q-59 -64 -157 -64q-82 0 -129 49.5t-47 129.5q0 21 5 51l4 21q11 63 43 115t83.5 83.5t117.5 31.5q51 0 87.5 -20t56.5 -58q9 28 26 46.5t46 31.5z
M334.5 93.5q36.5 24.5 61.5 74.5l26 146q-15 98 -115 98q-63 0 -108 -45t-58 -116l-4 -21q-4 -28 -4 -40q0 -55 29.5 -88t84.5 -33q51 0 87.5 24.5zM246.5 569.5q-36.5 32.5 -36.5 87.5q0 15 3 30h63q-4 -40 15.5 -63t58.5 -23q40 0 67.5 23t37.5 63h64
q-12 -69 -58.5 -109.5t-115.5 -40.5q-62 0 -98.5 32.5z" />
    <glyph glyph-name="gcaron" unicode="&#x1e7;" horiz-adv-x="578" 
d="M567 429q-24 -17 -34 -30t-14 -34l-74 -421q-15 -87 -68.5 -129.5t-156.5 -42.5h-124l12 68h124q108 0 125 104l20 120q-59 -64 -157 -64q-82 0 -129 49.5t-47 129.5q0 21 5 51l4 21q11 63 43 115t83.5 83.5t117.5 31.5q51 0 87.5 -20t56.5 -58q9 28 26 46.5t46 31.5z
M334.5 93.5q36.5 24.5 61.5 74.5l26 146q-15 98 -115 98q-63 0 -108 -45t-58 -116l-4 -21q-4 -28 -4 -40q0 -55 29.5 -88t84.5 -33q51 0 87.5 24.5zM261 630q-29 44 -53 67h81q17 -17 34.5 -42t27.5 -47q15 20 42 45.5t52 43.5h81q-34 -24 -77.5 -67.5t-73.5 -85.5h-69
q-16 42 -45 86z" />
    <glyph glyph-name="gcircumflex" unicode="&#x11d;" horiz-adv-x="578" 
d="M567 429q-24 -17 -34 -30t-14 -34l-74 -421q-15 -87 -68.5 -129.5t-156.5 -42.5h-124l12 68h124q108 0 125 104l20 120q-59 -64 -157 -64q-82 0 -129 49.5t-47 129.5q0 21 5 51l4 21q11 63 43 115t83.5 83.5t117.5 31.5q51 0 87.5 -20t56.5 -58q9 28 26 46.5t46 31.5z
M334.5 93.5q36.5 24.5 61.5 74.5l26 146q-15 98 -115 98q-63 0 -108 -45t-58 -116l-4 -21q-4 -28 -4 -40q0 -55 29.5 -88t84.5 -33q51 0 87.5 24.5zM258 610q44 44 74 87h69q16 -43 45 -87t53 -66h-82q-17 16 -33.5 41t-27.5 47q-15 -20 -42.5 -45.5t-51.5 -42.5h-81
q33 22 77 66z" />
    <glyph glyph-name="uni0123" unicode="&#x123;" horiz-adv-x="578" 
d="M303.5 547q-12.5 14 -12.5 39q0 47 32 92t80 78l23 -27q-57 -39 -72 -84q12 6 27 6q16 0 25.5 -10t9.5 -27q0 -31 -23.5 -56t-52.5 -25q-24 0 -36.5 14zM567 429q-24 -17 -34 -30t-14 -34l-74 -421q-15 -87 -68.5 -129.5t-156.5 -42.5h-124l12 68h124q108 0 125 104
l20 120q-59 -64 -157 -64q-82 0 -129 49.5t-47 129.5q0 21 5 51l4 21q11 63 43 115t83.5 83.5t117.5 31.5q51 0 87.5 -20t56.5 -58q9 28 26 46.5t46 31.5zM334.5 93.5q36.5 24.5 61.5 74.5l26 146q-15 98 -115 98q-63 0 -108 -45t-58 -116l-4 -21q-4 -28 -4 -40
q0 -55 29.5 -88t84.5 -33q51 0 87.5 24.5z" />
    <glyph glyph-name="gdotaccent" unicode="&#x121;" horiz-adv-x="578" 
d="M567 429q-24 -17 -34 -30t-14 -34l-74 -421q-15 -87 -68.5 -129.5t-156.5 -42.5h-124l12 68h124q108 0 125 104l20 120q-59 -64 -157 -64q-82 0 -129 49.5t-47 129.5q0 21 5 51l4 21q11 63 43 115t83.5 83.5t117.5 31.5q51 0 87.5 -20t56.5 -58q9 28 26 46.5t46 31.5z
M334.5 93.5q36.5 24.5 61.5 74.5l26 146q-15 98 -115 98q-63 0 -108 -45t-58 -116l-4 -21q-4 -28 -4 -40q0 -55 29.5 -88t84.5 -33q51 0 87.5 24.5zM307 553.5q-13 13.5 -13 33.5q0 25 20.5 45t45.5 20q20 0 33 -13.5t13 -32.5q0 -25 -20 -45.5t-46 -20.5q-20 0 -33 13.5z
" />
    <glyph glyph-name="uni1E21" unicode="&#x1e21;" horiz-adv-x="578" 
d="M567 429q-24 -17 -34 -30t-14 -34l-74 -421q-15 -87 -68.5 -129.5t-156.5 -42.5h-124l12 68h124q108 0 125 104l20 120q-59 -64 -157 -64q-82 0 -129 49.5t-47 129.5q0 21 5 51l4 21q11 63 43 115t83.5 83.5t117.5 31.5q51 0 87.5 -20t56.5 -58q9 28 26 46.5t46 31.5z
M334.5 93.5q36.5 24.5 61.5 74.5l26 146q-15 98 -115 98q-63 0 -108 -45t-58 -116l-4 -21q-4 -28 -4 -40q0 -55 29.5 -88t84.5 -33q51 0 87.5 24.5zM202 626h307l-11 -64h-307z" />
    <glyph glyph-name="h" unicode="h" horiz-adv-x="549" 
d="M462 448.5q35 -32.5 35 -90.5q0 -17 -3 -37l-57 -321h-88l55 310q2 10 2 27q0 36 -19 55.5t-55 19.5q-51 0 -89.5 -35t-63.5 -87l-51 -290h-88l109 616q2 10 2 15q0 14 -6.5 25t-21.5 25l60 52q30 -18 43.5 -38t13.5 -48q0 -14 -3 -31l-40 -224q67 89 169 89
q61 0 96 -32.5z" />
    <glyph glyph-name="hbar" unicode="&#x127;" horiz-adv-x="549" 
d="M462 448.5q35 -32.5 35 -90.5q0 -17 -3 -37l-57 -321h-88l55 310q2 10 2 27q0 36 -19 55.5t-55 19.5q-51 0 -89.5 -35t-63.5 -87l-51 -290h-88l98 552h-78l8 49h78l3 15q2 10 2 15q0 14 -6.5 25t-21.5 25l60 52q30 -18 43.5 -38t13.5 -48q0 -14 -3 -31l-3 -15h163l-9 -49
h-162l-29 -160q67 89 169 89q61 0 96 -32.5z" />
    <glyph glyph-name="uni1E2B" unicode="&#x1e2b;" horiz-adv-x="549" 
d="M462 448.5q35 -32.5 35 -90.5q0 -17 -3 -37l-57 -321h-88l55 310q2 10 2 27q0 36 -19 55.5t-55 19.5q-51 0 -89.5 -35t-63.5 -87l-51 -290h-88l109 616q2 10 2 15q0 14 -6.5 25t-21.5 25l60 52q30 -18 43.5 -38t13.5 -48q0 -14 -3 -31l-40 -224q67 89 169 89
q61 0 96 -32.5zM111.5 -187q-36.5 33 -36.5 88q0 13 3 30h63q-4 -41 15.5 -64t58.5 -23q40 0 67.5 23t37.5 64h64q-12 -69 -58.5 -110t-115.5 -41q-62 0 -98.5 33z" />
    <glyph glyph-name="hcircumflex" unicode="&#x125;" horiz-adv-x="549" 
d="M462 448.5q35 -32.5 35 -90.5q0 -17 -3 -37l-57 -321h-88l55 310q2 10 2 27q0 36 -19 55.5t-55 19.5q-51 0 -89.5 -35t-63.5 -87l-51 -290h-88l109 616q2 10 2 15q0 14 -6.5 25t-21.5 25l60 52q30 -18 43.5 -38t13.5 -48q0 -14 -3 -31l-40 -224q67 89 169 89
q61 0 96 -32.5zM306 832q44 44 74 87h69q16 -43 45 -87t53 -66h-82q-17 16 -33.5 41t-27.5 47q-15 -20 -42.5 -45.5t-51.5 -42.5h-81q33 22 77 66z" />
    <glyph glyph-name="uni1E25" unicode="&#x1e25;" horiz-adv-x="549" 
d="M462 448.5q35 -32.5 35 -90.5q0 -17 -3 -37l-57 -321h-88l55 310q2 10 2 27q0 36 -19 55.5t-55 19.5q-51 0 -89.5 -35t-63.5 -87l-51 -290h-88l109 616q2 10 2 15q0 14 -6.5 25t-21.5 25l60 52q30 -18 43.5 -38t13.5 -48q0 -14 -3 -31l-40 -224q67 89 169 89
q61 0 96 -32.5zM179 -160q-13 13 -13 33q0 25 20.5 45t45.5 20q20 0 33 -13t13 -33q0 -25 -20 -45t-46 -20q-20 0 -33 13z" />
    <glyph glyph-name="i" unicode="i" horiz-adv-x="259" 
d="M152.5 575q-13.5 13 -13.5 33q0 25 20.5 45.5t46.5 20.5q20 0 33 -13.5t13 -33.5q0 -25 -20.5 -45t-45.5 -20q-20 0 -33.5 13zM72.5 30q-13.5 21 -13.5 49q0 17 2 26l65 365h88l-65 -365q-1 -5 -1 -14q0 -14 6.5 -25.5t20.5 -24.5l-59 -52q-30 20 -43.5 41z" />
    <glyph glyph-name="dotlessi" unicode="&#x131;" horiz-adv-x="247" 
d="M60 29.5q-14 21.5 -14 48.5q0 12 3 27l65 365h88l-65 -365q-1 -5 -1 -14q0 -14 6.5 -25.5t20.5 -24.5l-59 -52q-30 19 -44 40.5z" />
    <glyph glyph-name="iacute" unicode="&#xed;" horiz-adv-x="247" 
d="M60 29.5q-14 21.5 -14 48.5q0 12 3 27l65 365h88l-65 -365q-1 -5 -1 -14q0 -14 6.5 -25.5t20.5 -24.5l-59 -52q-30 19 -44 40.5zM239 693h95l-130 -149h-72z" />
    <glyph glyph-name="ibreve" unicode="&#x12d;" horiz-adv-x="247" 
d="M60 29.5q-14 21.5 -14 48.5q0 12 3 27l65 365h88l-65 -365q-1 -5 -1 -14q0 -14 6.5 -25.5t20.5 -24.5l-59 -52q-30 19 -44 40.5zM77.5 569.5q-36.5 32.5 -36.5 87.5q0 15 3 30h63q-4 -40 15.5 -63t58.5 -23q40 0 67.5 23t37.5 63h64q-12 -69 -58.5 -109.5t-115.5 -40.5
q-62 0 -98.5 32.5z" />
    <glyph glyph-name="uni01D0" unicode="&#x1d0;" horiz-adv-x="247" 
d="M60 29.5q-14 21.5 -14 48.5q0 12 3 27l65 365h88l-65 -365q-1 -5 -1 -14q0 -14 6.5 -25.5t20.5 -24.5l-59 -52q-30 19 -44 40.5zM92 630q-29 44 -53 67h81q17 -17 34.5 -42t27.5 -47q15 20 42 45.5t52 43.5h81q-34 -24 -77.5 -67.5t-73.5 -85.5h-69q-16 42 -45 86z" />
    <glyph glyph-name="icircumflex" unicode="&#xee;" horiz-adv-x="247" 
d="M60 29.5q-14 21.5 -14 48.5q0 12 3 27l65 365h88l-65 -365q-1 -5 -1 -14q0 -14 6.5 -25.5t20.5 -24.5l-59 -52q-30 19 -44 40.5zM89 610q44 44 74 87h69q16 -43 45 -87t53 -66h-82q-17 16 -33.5 41t-27.5 47q-15 -20 -42.5 -45.5t-51.5 -42.5h-81q33 22 77 66z" />
    <glyph glyph-name="idieresis" unicode="&#xef;" horiz-adv-x="247" 
d="M60 29.5q-14 21.5 -14 48.5q0 12 3 27l65 365h88l-65 -365q-1 -5 -1 -14q0 -14 6.5 -25.5t20.5 -24.5l-59 -52q-30 19 -44 40.5zM58 552q-12 12 -12 29q0 23 18 40.5t41 17.5q17 0 28.5 -12t11.5 -29q0 -22 -18 -40t-40 -18q-17 0 -29 12zM225.5 552q-11.5 12 -11.5 29
q0 23 18 40.5t41 17.5q18 0 29.5 -12t11.5 -29q0 -22 -18 -40t-40 -18q-19 0 -30.5 12z" />
    <glyph glyph-name="uni1ECB" unicode="&#x1ecb;" horiz-adv-x="259" 
d="M152.5 575q-13.5 13 -13.5 33q0 25 20.5 45.5t46.5 20.5q20 0 33 -13.5t13 -33.5q0 -25 -20.5 -45t-45.5 -20q-20 0 -33.5 13zM72.5 30q-13.5 21 -13.5 49q0 17 2 26l65 365h88l-65 -365q-1 -5 -1 -14q0 -14 6.5 -25.5t20.5 -24.5l-59 -52q-30 20 -43.5 41zM29 -160
q-13 13 -13 33q0 25 20.5 45t45.5 20q20 0 33 -13t13 -33q0 -25 -20 -45t-46 -20q-20 0 -33 13z" />
    <glyph glyph-name="igrave" unicode="&#xec;" horiz-adv-x="247" 
d="M60 29.5q-14 21.5 -14 48.5q0 12 3 27l65 365h88l-65 -365q-1 -5 -1 -14q0 -14 6.5 -25.5t20.5 -24.5l-59 -52q-30 19 -44 40.5zM58 693h95l54 -149h-72z" />
    <glyph glyph-name="uni1EC9" unicode="&#x1ec9;" horiz-adv-x="247" 
d="M60 29.5q-14 21.5 -14 48.5q0 12 3 27l65 365h88l-65 -365q-1 -5 -1 -14q0 -14 6.5 -25.5t20.5 -24.5l-59 -52q-30 19 -44 40.5zM280 616q-27 -25 -73 -35l-7 -37h-66l12 70q46 5 67.5 17t21.5 36q0 15 -10.5 21t-30.5 6q-28 0 -56 -10l-7 49q39 17 81 17q44 0 69.5 -17
t25.5 -51q0 -41 -27 -66z" />
    <glyph glyph-name="ij" unicode="&#x133;" horiz-adv-x="487" 
d="M152.5 575q-13.5 13 -13.5 33q0 25 20.5 45.5t46.5 20.5q20 0 33 -13.5t13 -33.5q0 -25 -20.5 -45t-45.5 -20q-20 0 -33.5 13zM72.5 30q-13.5 21 -13.5 49q0 17 2 26l65 365h88l-65 -365q-1 -5 -1 -14q0 -14 6.5 -25.5t20.5 -24.5l-59 -52q-30 20 -43.5 41zM393.5 575.5
q-13.5 13.5 -13.5 33.5q0 25 20.5 45t46.5 20q20 0 33 -13.5t13 -33.5q0 -25 -20.5 -45t-45.5 -20q-20 0 -33.5 13.5zM101 -159h45q57 0 88 27t41 87l91 515h88l-91 -515q-17 -95 -69.5 -139t-157.5 -44h-48z" />
    <glyph glyph-name="imacron" unicode="&#x12b;" horiz-adv-x="247" 
d="M60 29.5q-14 21.5 -14 48.5q0 12 3 27l65 365h88l-65 -365q-1 -5 -1 -14q0 -14 6.5 -25.5t20.5 -24.5l-59 -52q-30 19 -44 40.5zM33 626h307l-11 -64h-307z" />
    <glyph glyph-name="iogonek" unicode="&#x12f;" horiz-adv-x="247" 
d="M224.5 638.5q13.5 -13.5 13.5 -32.5q0 -25 -20.5 -45.5t-45.5 -20.5q-20 0 -33.5 13.5t-13.5 33.5q0 25 20.5 45t45.5 20q20 0 33.5 -13.5zM137 105q-1 -5 -1 -14q0 -14 6.5 -25.5t20.5 -24.5l-53 -46q-52 -65 -52 -104q0 -18 12.5 -27t32.5 -9q22 0 55 13l7 -51
q-41 -22 -82 -22q-55 0 -79 23t-24 55q0 36 23.5 73t66.5 71q-24 27 -24 61q0 12 3 27l65 365h88z" />
    <glyph glyph-name="itilde" unicode="&#x129;" horiz-adv-x="247" 
d="M60 29.5q-14 21.5 -14 48.5q0 12 3 27l65 365h88l-65 -365q-1 -5 -1 -14q0 -14 6.5 -25.5t20.5 -24.5l-59 -52q-30 19 -44 40.5zM53.5 632.5q30.5 33.5 77.5 33.5q20 0 35.5 -6.5t34.5 -18.5q18 -10 27 -14t20 -4q17 0 27.5 11.5t19.5 36.5h59q-12 -48 -43 -82t-72 -34
q-21 0 -36.5 6.5t-34.5 18.5q-16 9 -25.5 13.5t-20.5 4.5q-18 0 -30 -12t-22 -38h-58q11 51 41.5 84.5z" />
    <glyph glyph-name="j" unicode="j" horiz-adv-x="257" 
d="M163.5 575.5q-13.5 13.5 -13.5 33.5q0 25 20.5 45t46.5 20q20 0 33 -13.5t13 -33.5q0 -25 -20.5 -45t-45.5 -20q-20 0 -33.5 13.5zM-129 -159h45q57 0 88 27t41 87l91 515h88l-91 -515q-17 -95 -69.5 -139t-157.5 -44h-48z" />
    <glyph glyph-name="uni0237" unicode="&#x237;" horiz-adv-x="252" 
d="M-129 -159h45q57 0 88 27t41 87l91 515h88l-91 -515q-17 -95 -69.5 -139t-157.5 -44h-48z" />
    <glyph glyph-name="jcircumflex" unicode="&#x135;" horiz-adv-x="252" 
d="M-129 -159h45q57 0 88 27t41 87l91 515h88l-91 -515q-17 -95 -69.5 -139t-157.5 -44h-48zM110 610q44 44 74 87h69q16 -43 45 -87t53 -66h-82q-17 16 -33.5 41t-27.5 47q-15 -20 -42.5 -45.5t-51.5 -42.5h-81q33 22 77 66z" />
    <glyph glyph-name="k" unicode="k" horiz-adv-x="521" 
d="M405.5 259.5q20.5 -33.5 26.5 -96.5l15 -163h-91l-14 163q-3 37 -19 55t-63 22l-106 -90l-26 -150h-88l109 616q2 10 2 15q0 14 -6.5 25t-21.5 25l60 52q30 -18 43 -38t13 -48q0 -14 -3 -31l-63 -358l247 212h108l-194 -166q51 -11 71.5 -44.5z" />
    <glyph glyph-name="uni0137" unicode="&#x137;" horiz-adv-x="521" 
d="M405.5 259.5q20.5 -33.5 26.5 -96.5l15 -163h-91l-14 163q-3 37 -19 55t-63 22l-106 -90l-26 -150h-88l109 616q2 10 2 15q0 14 -6.5 25t-21.5 25l60 52q30 -18 43 -38t13 -48q0 -14 -3 -31l-63 -358l247 212h108l-194 -166q51 -11 71.5 -44.5zM256.5 -77
q12.5 -14 12.5 -39q0 -48 -31.5 -93t-80.5 -77l-23 27q57 39 73 84q-12 -6 -27 -6q-17 0 -26.5 10t-9.5 27q0 31 24 56t53 25q23 0 35.5 -14z" />
    <glyph glyph-name="kgreenlandic" unicode="&#x138;" horiz-adv-x="496" 
d="M366 255.5q21 -31.5 31 -92.5l26 -163h-90l-27 163q-6 34 -23 51t-65 21l-99 -84l-27 -151h-88l83 470h88l-38 -212l251 212h109l-206 -173q54 -10 75 -41.5z" />
    <glyph glyph-name="l" unicode="l" horiz-adv-x="250" 
d="M69 29q-14 21 -14 49q0 12 3 27l90 512q2 12 2 16q0 13 -6.5 24t-20.5 24l59 52q29 -19 42.5 -40t13.5 -49q0 -18 -2 -27l-90 -512q-2 -12 -2 -16q0 -13 6.5 -24t20.5 -24l-59 -52q-29 19 -43 40z" />
    <glyph glyph-name="lacute" unicode="&#x13a;" horiz-adv-x="250" 
d="M69 29q-14 21 -14 49q0 12 3 27l90 512q2 12 2 16q0 13 -6.5 24t-20.5 24l59 52q29 -19 42.5 -40t13.5 -49q0 -18 -2 -27l-90 -512q-2 -12 -2 -16q0 -13 6.5 -24t20.5 -24l-59 -52q-29 19 -43 40zM273 946h95l-130 -149h-72z" />
    <glyph glyph-name="lcaron" unicode="&#x13e;" horiz-adv-x="324" 
d="M69 29q-14 21 -14 49q0 12 3 27l90 512q2 12 2 16q0 13 -6.5 24t-20.5 24l59 52q29 -19 42.5 -40t13.5 -49q0 -18 -2 -27l-90 -512q-2 -12 -2 -16q0 -13 6.5 -24t20.5 -24l-59 -52q-29 19 -43 40zM395 711.5q12 -13.5 12 -38.5q0 -48 -31.5 -94.5t-81.5 -80.5l-22 28
q57 39 73 87q-12 -6 -27 -6q-16 0 -25.5 10t-9.5 27q0 31 23.5 56t52.5 25q24 0 36 -13.5z" />
    <glyph glyph-name="uni013C" unicode="&#x13c;" horiz-adv-x="250" 
d="M69 29q-14 21 -14 49q0 12 3 27l90 512q2 12 2 16q0 13 -6.5 24t-20.5 24l59 52q29 -19 42.5 -40t13.5 -49q0 -18 -2 -27l-90 -512q-2 -12 -2 -16q0 -13 6.5 -24t20.5 -24l-59 -52q-29 19 -43 40zM127.5 -77q12.5 -14 12.5 -39q0 -48 -31.5 -93t-80.5 -77l-23 27
q57 39 73 84q-12 -6 -27 -6q-17 0 -26.5 10t-9.5 27q0 31 24 56t53 25q23 0 35.5 -14z" />
    <glyph glyph-name="ldot" unicode="&#x140;" horiz-adv-x="367" 
d="M69 29q-14 21 -14 49q0 12 3 27l90 512q2 12 2 16q0 13 -6.5 24t-20.5 24l59 52q29 -19 42.5 -40t13.5 -49q0 -18 -2 -27l-90 -512q-2 -12 -2 -16q0 -13 6.5 -24t20.5 -24l-59 -52q-29 19 -43 40zM247.5 249q-16.5 16 -16.5 40q0 32 25.5 57t57.5 25q25 0 41 -16.5
t16 -40.5q0 -31 -24.5 -56t-56.5 -25q-26 0 -42.5 16z" />
    <glyph glyph-name="uni1E37" unicode="&#x1e37;" horiz-adv-x="250" 
d="M69 29q-14 21 -14 49q0 12 3 27l90 512q2 12 2 16q0 13 -6.5 24t-20.5 24l59 52q29 -19 42.5 -40t13.5 -49q0 -18 -2 -27l-90 -512q-2 -12 -2 -16q0 -13 6.5 -24t20.5 -24l-59 -52q-29 19 -43 40zM39 -160q-13 13 -13 33q0 25 20.5 45t45.5 20q20 0 33 -13t13 -33
q0 -25 -20 -45t-46 -20q-20 0 -33 13z" />
    <glyph glyph-name="uni1E39" unicode="&#x1e39;" horiz-adv-x="250" 
d="M69 29q-14 21 -14 49q0 12 3 27l90 512q2 12 2 16q0 13 -6.5 24t-20.5 24l59 52q29 -19 42.5 -40t13.5 -49q0 -18 -2 -27l-90 -512q-2 -12 -2 -16q0 -13 6.5 -24t20.5 -24l-59 -52q-29 19 -43 40zM37 -160q-13 13 -13 33q0 25 20.5 45t45.5 20q20 0 33 -13t13 -33
q0 -25 -20 -45t-46 -20q-20 0 -33 13zM67 879h307l-11 -64h-307z" />
    <glyph glyph-name="uni1E3B" unicode="&#x1e3b;" horiz-adv-x="250" 
d="M69 29q-14 21 -14 49q0 12 3 27l90 512q2 12 2 16q0 13 -6.5 24t-20.5 24l59 52q29 -19 42.5 -40t13.5 -49q0 -18 -2 -27l-90 -512q-2 -12 -2 -16q0 -13 6.5 -24t20.5 -24l-59 -52q-29 19 -43 40zM-67 -78h307l-12 -65h-306z" />
    <glyph glyph-name="lslash" unicode="&#x142;" horiz-adv-x="256" 
d="M152 105q-2 -12 -2 -16q0 -13 6.5 -24t20.5 -24l-59 -52q-29 19 -43 40t-14 49q0 12 3 27l38 214l-94 -58l13 77l94 58l39 221q2 12 2 16q0 13 -6.5 24t-20.5 24l59 52q29 -19 42.5 -40t13.5 -49q0 -18 -2 -27l-28 -160l88 54l-13 -76l-89 -55z" />
    <glyph glyph-name="m" unicode="m" horiz-adv-x="822" 
d="M738.5 449.5q32.5 -31.5 32.5 -88.5q0 -21 -4 -40l-56 -321h-88l54 310q3 17 3 31q0 34 -16.5 52.5t-47.5 18.5q-50 0 -87 -36.5t-60 -90.5l-50 -285h-88l55 310q3 17 3 29q0 35 -16.5 54t-47.5 19q-51 0 -88 -37t-59 -90l-50 -285h-88l64 365q2 12 2 16q0 13 -6.5 24.5
t-20.5 24.5l60 51q31 -18 44.5 -40t11.5 -51q66 91 164 91q53 0 83 -28t32 -79q66 107 175 107q57 0 89.5 -31.5z" />
    <glyph glyph-name="uni1E43" unicode="&#x1e43;" horiz-adv-x="822" 
d="M738.5 449.5q32.5 -31.5 32.5 -88.5q0 -21 -4 -40l-56 -321h-88l54 310q3 17 3 31q0 34 -16.5 52.5t-47.5 18.5q-50 0 -87 -36.5t-60 -90.5l-50 -285h-88l55 310q3 17 3 29q0 35 -16.5 54t-47.5 19q-51 0 -88 -37t-59 -90l-50 -285h-88l64 365q2 12 2 16q0 13 -6.5 24.5
t-20.5 24.5l60 51q31 -18 44.5 -40t11.5 -51q66 91 164 91q53 0 83 -28t32 -79q66 107 175 107q57 0 89.5 -31.5zM311 -160q-13 13 -13 33q0 25 20.5 45t45.5 20q20 0 33 -13t13 -33q0 -25 -20 -45t-46 -20q-20 0 -33 13z" />
    <glyph glyph-name="n" unicode="n" horiz-adv-x="549" 
d="M462 448.5q35 -32.5 35 -90.5q0 -17 -3 -37l-57 -321h-87l54 310q2 10 2 27q0 36 -19 55.5t-55 19.5q-51 0 -89 -34.5t-63 -86.5l-52 -291h-88l64 365q2 12 2 16q0 13 -6.5 24.5t-20.5 24.5l60 51q32 -18 45 -39t12 -52q30 41 72.5 66t97.5 25q61 0 96 -32.5z" />
    <glyph glyph-name="nacute" unicode="&#x144;" horiz-adv-x="549" 
d="M462 448.5q35 -32.5 35 -90.5q0 -17 -3 -37l-57 -321h-87l54 310q2 10 2 27q0 36 -19 55.5t-55 19.5q-51 0 -89 -34.5t-63 -86.5l-52 -291h-88l64 365q2 12 2 16q0 13 -6.5 24.5t-20.5 24.5l60 51q32 -18 45 -39t12 -52q30 41 72.5 66t97.5 25q61 0 96 -32.5zM403 693h95
l-130 -149h-72z" />
    <glyph glyph-name="napostrophe" unicode="&#x149;" horiz-adv-x="608" 
d="M200 676.5q12 -13.5 12 -38.5q0 -48 -31.5 -94.5t-81.5 -80.5l-22 28q57 39 73 87q-12 -6 -27 -6q-16 0 -25.5 10t-9.5 27q0 31 23.5 56t52.5 25q24 0 36 -13.5zM521 448.5q35 -32.5 35 -90.5q0 -17 -3 -37l-57 -321h-87l54 310q2 10 2 27q0 36 -19 55.5t-55 19.5
q-51 0 -89 -34.5t-63 -86.5l-52 -291h-88l64 365q2 12 2 16q0 13 -6.5 24.5t-20.5 24.5l60 51q32 -18 45 -39t12 -52q30 41 72.5 66t97.5 25q61 0 96 -32.5z" />
    <glyph glyph-name="ncaron" unicode="&#x148;" horiz-adv-x="549" 
d="M462 448.5q35 -32.5 35 -90.5q0 -17 -3 -37l-57 -321h-87l54 310q2 10 2 27q0 36 -19 55.5t-55 19.5q-51 0 -89 -34.5t-63 -86.5l-52 -291h-88l64 365q2 12 2 16q0 13 -6.5 24.5t-20.5 24.5l60 51q32 -18 45 -39t12 -52q30 41 72.5 66t97.5 25q61 0 96 -32.5zM256 630
q-29 44 -53 67h81q17 -17 34.5 -42t27.5 -47q15 20 42 45.5t52 43.5h81q-34 -24 -77.5 -67.5t-73.5 -85.5h-69q-16 42 -45 86z" />
    <glyph glyph-name="uni0146" unicode="&#x146;" horiz-adv-x="549" 
d="M462 448.5q35 -32.5 35 -90.5q0 -17 -3 -37l-57 -321h-87l54 310q2 10 2 27q0 36 -19 55.5t-55 19.5q-51 0 -89 -34.5t-63 -86.5l-52 -291h-88l64 365q2 12 2 16q0 13 -6.5 24.5t-20.5 24.5l60 51q32 -18 45 -39t12 -52q30 41 72.5 66t97.5 25q61 0 96 -32.5zM264.5 -77
q12.5 -14 12.5 -39q0 -48 -31.5 -93t-80.5 -77l-23 27q57 39 73 84q-12 -6 -27 -6q-17 0 -26.5 10t-9.5 27q0 31 24 56t53 25q23 0 35.5 -14z" />
    <glyph glyph-name="uni1E45" unicode="&#x1e45;" horiz-adv-x="549" 
d="M462 448.5q35 -32.5 35 -90.5q0 -17 -3 -37l-57 -321h-87l54 310q2 10 2 27q0 36 -19 55.5t-55 19.5q-51 0 -89 -34.5t-63 -86.5l-52 -291h-88l64 365q2 12 2 16q0 13 -6.5 24.5t-20.5 24.5l60 51q32 -18 45 -39t12 -52q30 41 72.5 66t97.5 25q61 0 96 -32.5zM302 553.5
q-13 13.5 -13 33.5q0 25 20.5 45t45.5 20q20 0 33 -13.5t13 -32.5q0 -25 -20 -45.5t-46 -20.5q-20 0 -33 13.5z" />
    <glyph glyph-name="uni1E47" unicode="&#x1e47;" horiz-adv-x="549" 
d="M462 448.5q35 -32.5 35 -90.5q0 -17 -3 -37l-57 -321h-87l54 310q2 10 2 27q0 36 -19 55.5t-55 19.5q-51 0 -89 -34.5t-63 -86.5l-52 -291h-88l64 365q2 12 2 16q0 13 -6.5 24.5t-20.5 24.5l60 51q32 -18 45 -39t12 -52q30 41 72.5 66t97.5 25q61 0 96 -32.5zM176 -160
q-13 13 -13 33q0 25 20.5 45t45.5 20q20 0 33 -13t13 -33q0 -25 -20 -45t-46 -20q-20 0 -33 13z" />
    <glyph glyph-name="eng" unicode="&#x14b;" horiz-adv-x="549" 
d="M462 448.5q35 -32.5 35 -90.5q0 -17 -3 -37l-65 -366q-16 -92 -67.5 -137.5t-159.5 -45.5h-36l12 68h36q56 0 86.5 27.5t40.5 87.5l63 355q2 10 2 27q0 36 -19 55.5t-55 19.5q-53 0 -91 -36t-63 -89l-50 -287h-88l64 365q2 12 2 16q0 13 -6.5 24.5t-20.5 24.5l60 51
q31 -18 44 -39.5t12 -53.5q29 42 72 67.5t99 25.5q61 0 96 -32.5z" />
    <glyph glyph-name="uni1E49" unicode="&#x1e49;" horiz-adv-x="549" 
d="M462 448.5q35 -32.5 35 -90.5q0 -17 -3 -37l-57 -321h-87l54 310q2 10 2 27q0 36 -19 55.5t-55 19.5q-51 0 -89 -34.5t-63 -86.5l-52 -291h-88l64 365q2 12 2 16q0 13 -6.5 24.5t-20.5 24.5l60 51q32 -18 45 -39t12 -52q30 41 72.5 66t97.5 25q61 0 96 -32.5zM72 -78h307
l-12 -65h-306z" />
    <glyph glyph-name="ntilde" unicode="&#xf1;" horiz-adv-x="549" 
d="M462 448.5q35 -32.5 35 -90.5q0 -17 -3 -37l-57 -321h-87l54 310q2 10 2 27q0 36 -19 55.5t-55 19.5q-51 0 -89 -34.5t-63 -86.5l-52 -291h-88l64 365q2 12 2 16q0 13 -6.5 24.5t-20.5 24.5l60 51q32 -18 45 -39t12 -52q30 41 72.5 66t97.5 25q61 0 96 -32.5z
M217.5 632.5q30.5 33.5 77.5 33.5q20 0 35.5 -6.5t34.5 -18.5q18 -10 27 -14t20 -4q17 0 27.5 11.5t19.5 36.5h59q-12 -48 -43 -82t-72 -34q-21 0 -36.5 6.5t-34.5 18.5q-16 9 -25.5 13.5t-20.5 4.5q-18 0 -30 -12t-22 -38h-58q11 51 41.5 84.5z" />
    <glyph glyph-name="o" unicode="o" horiz-adv-x="519" 
d="M89 28.5q-48 39.5 -48 106.5q0 18 3 36l23 128q15 86 72 134t157 48q89 0 135.5 -39t46.5 -106q0 -17 -3 -37l-22 -128q-15 -85 -71 -133.5t-155 -48.5q-90 0 -138 39.5zM321 89q35 31 44 82l22 128q3 15 3 28q0 39 -24.5 62t-75.5 23q-58 0 -92 -31t-43 -82l-23 -128
q-2 -9 -2 -27q0 -40 24 -63t74 -23q58 0 93 31z" />
    <glyph glyph-name="oacute" unicode="&#xf3;" horiz-adv-x="519" 
d="M89 28.5q-48 39.5 -48 106.5q0 18 3 36l23 128q15 86 72 134t157 48q89 0 135.5 -39t46.5 -106q0 -17 -3 -37l-22 -128q-15 -85 -71 -133.5t-155 -48.5q-90 0 -138 39.5zM321 89q35 31 44 82l22 128q3 15 3 28q0 39 -24.5 62t-75.5 23q-58 0 -92 -31t-43 -82l-23 -128
q-2 -9 -2 -27q0 -40 24 -63t74 -23q58 0 93 31zM377 693h95l-130 -149h-72z" />
    <glyph glyph-name="obreve" unicode="&#x14f;" horiz-adv-x="519" 
d="M89 28.5q-48 39.5 -48 106.5q0 18 3 36l23 128q15 86 72 134t157 48q89 0 135.5 -39t46.5 -106q0 -17 -3 -37l-22 -128q-15 -85 -71 -133.5t-155 -48.5q-90 0 -138 39.5zM321 89q35 31 44 82l22 128q3 15 3 28q0 39 -24.5 62t-75.5 23q-58 0 -92 -31t-43 -82l-23 -128
q-2 -9 -2 -27q0 -40 24 -63t74 -23q58 0 93 31zM215.5 569.5q-36.5 32.5 -36.5 87.5q0 15 3 30h63q-4 -40 15.5 -63t58.5 -23q40 0 67.5 23t37.5 63h64q-12 -69 -58.5 -109.5t-115.5 -40.5q-62 0 -98.5 32.5z" />
    <glyph glyph-name="uni01D2" unicode="&#x1d2;" horiz-adv-x="519" 
d="M89 28.5q-48 39.5 -48 106.5q0 18 3 36l23 128q15 86 72 134t157 48q89 0 135.5 -39t46.5 -106q0 -17 -3 -37l-22 -128q-15 -85 -71 -133.5t-155 -48.5q-90 0 -138 39.5zM321 89q35 31 44 82l22 128q3 15 3 28q0 39 -24.5 62t-75.5 23q-58 0 -92 -31t-43 -82l-23 -128
q-2 -9 -2 -27q0 -40 24 -63t74 -23q58 0 93 31zM230 630q-29 44 -53 67h81q17 -17 34.5 -42t27.5 -47q15 20 42 45.5t52 43.5h81q-34 -24 -77.5 -67.5t-73.5 -85.5h-69q-16 42 -45 86z" />
    <glyph glyph-name="ocircumflex" unicode="&#xf4;" horiz-adv-x="519" 
d="M89 28.5q-48 39.5 -48 106.5q0 18 3 36l23 128q15 86 72 134t157 48q89 0 135.5 -39t46.5 -106q0 -17 -3 -37l-22 -128q-15 -85 -71 -133.5t-155 -48.5q-90 0 -138 39.5zM321 89q35 31 44 82l22 128q3 15 3 28q0 39 -24.5 62t-75.5 23q-58 0 -92 -31t-43 -82l-23 -128
q-2 -9 -2 -27q0 -40 24 -63t74 -23q58 0 93 31zM227 610q44 44 74 87h69q16 -43 45 -87t53 -66h-82q-17 16 -33.5 41t-27.5 47q-15 -20 -42.5 -45.5t-51.5 -42.5h-81q33 22 77 66z" />
    <glyph glyph-name="uni1ED1" unicode="&#x1ed1;" horiz-adv-x="519" 
d="M89 28.5q-48 39.5 -48 106.5q0 18 3 36l23 128q15 86 72 134t157 48q89 0 135.5 -39t46.5 -106q0 -17 -3 -37l-22 -128q-15 -85 -71 -133.5t-155 -48.5q-90 0 -138 39.5zM321 89q35 31 44 82l22 128q3 15 3 28q0 39 -24.5 62t-75.5 23q-58 0 -92 -31t-43 -82l-23 -128
q-2 -9 -2 -27q0 -40 24 -63t74 -23q58 0 93 31zM516 753h89l-104 -116h-68zM226.5 611q44.5 44 73.5 86h70q15 -43 43.5 -87.5t53.5 -65.5h-78q-18 17 -36.5 43t-25.5 45q-14 -20 -41.5 -46t-51.5 -42h-85q33 23 77.5 67z" />
    <glyph glyph-name="uni1ED9" unicode="&#x1ed9;" horiz-adv-x="519" 
d="M89 28.5q-48 39.5 -48 106.5q0 18 3 36l23 128q15 86 72 134t157 48q89 0 135.5 -39t46.5 -106q0 -17 -3 -37l-22 -128q-15 -85 -71 -133.5t-155 -48.5q-90 0 -138 39.5zM321 89q35 31 44 82l22 128q3 15 3 28q0 39 -24.5 62t-75.5 23q-58 0 -92 -31t-43 -82l-23 -128
q-2 -9 -2 -27q0 -40 24 -63t74 -23q58 0 93 31zM156 -160q-13 13 -13 33q0 25 20.5 45t45.5 20q20 0 33 -13t13 -33q0 -25 -20 -45t-46 -20q-20 0 -33 13zM227 610q44 44 74 87h69q16 -43 45 -87t53 -66h-82q-17 16 -33.5 41t-27.5 47q-15 -20 -42.5 -45.5t-51.5 -42.5h-81
q33 22 77 66z" />
    <glyph glyph-name="uni1ED3" unicode="&#x1ed3;" horiz-adv-x="519" 
d="M89 28.5q-48 39.5 -48 106.5q0 18 3 36l23 128q15 86 72 134t157 48q89 0 135.5 -39t46.5 -106q0 -17 -3 -37l-22 -128q-15 -85 -71 -133.5t-155 -48.5q-90 0 -138 39.5zM321 89q35 31 44 82l22 128q3 15 3 28q0 39 -24.5 62t-75.5 23q-58 0 -92 -31t-43 -82l-23 -128
q-2 -9 -2 -27q0 -40 24 -63t74 -23q58 0 93 31zM422 753h89l43 -116h-68zM226.5 611q44.5 44 73.5 86h70q15 -43 43.5 -87.5t53.5 -65.5h-78q-18 17 -36.5 43t-25.5 45q-14 -20 -41.5 -46t-51.5 -42h-85q33 23 77.5 67z" />
    <glyph glyph-name="uni1ED5" unicode="&#x1ed5;" horiz-adv-x="519" 
d="M89 28.5q-48 39.5 -48 106.5q0 18 3 36l23 128q15 86 72 134t157 48q89 0 135.5 -39t46.5 -106q0 -17 -3 -37l-22 -128q-15 -85 -71 -133.5t-155 -48.5q-90 0 -138 39.5zM321 89q35 31 44 82l22 128q3 15 3 28q0 39 -24.5 62t-75.5 23q-58 0 -92 -31t-43 -82l-23 -128
q-2 -9 -2 -27q0 -40 24 -63t74 -23q58 0 93 31zM567.5 697q-21.5 -20 -61.5 -29l-6 -34h-59l12 64q44 5 60.5 14t16.5 30q0 13 -9 17t-28 4q-24 0 -51 -10l-6 45q36 14 73 14q80 0 80 -56q0 -39 -21.5 -59zM413.5 609.5q28.5 -44.5 53.5 -65.5h-78q-18 17 -36.5 43t-25.5 45
q-14 -20 -41.5 -46t-51.5 -42h-85q33 23 77.5 67t73.5 86h70q15 -43 43.5 -87.5z" />
    <glyph glyph-name="uni1ED7" unicode="&#x1ed7;" horiz-adv-x="519" 
d="M89 28.5q-48 39.5 -48 106.5q0 18 3 36l23 128q15 86 72 134t157 48q89 0 135.5 -39t46.5 -106q0 -17 -3 -37l-22 -128q-15 -85 -71 -133.5t-155 -48.5q-90 0 -138 39.5zM321 89q35 31 44 82l22 128q3 15 3 28q0 39 -24.5 62t-75.5 23q-58 0 -92 -31t-43 -82l-23 -128
q-2 -9 -2 -27q0 -40 24 -63t74 -23q58 0 93 31zM228 801q29 30 74 30q18 0 31.5 -5.5t33.5 -16.5q26 -17 44 -17q15 0 25 10.5t18 33.5h53q-11 -43 -40 -73t-67 -30q-19 0 -32 5.5t-34 16.5q-10 6 -21 11t-21 5q-17 0 -28.5 -10.5t-20.5 -34.5h-54q10 45 39 75zM226.5 611
q44.5 44 73.5 86h70q15 -43 43.5 -87.5t53.5 -65.5h-78q-18 17 -36.5 43t-25.5 45q-14 -20 -41.5 -46t-51.5 -42h-85q33 23 77.5 67z" />
    <glyph glyph-name="odieresis" unicode="&#xf6;" horiz-adv-x="519" 
d="M89 28.5q-48 39.5 -48 106.5q0 18 3 36l23 128q15 86 72 134t157 48q89 0 135.5 -39t46.5 -106q0 -17 -3 -37l-22 -128q-15 -85 -71 -133.5t-155 -48.5q-90 0 -138 39.5zM321 89q35 31 44 82l22 128q3 15 3 28q0 39 -24.5 62t-75.5 23q-58 0 -92 -31t-43 -82l-23 -128
q-2 -9 -2 -27q0 -40 24 -63t74 -23q58 0 93 31zM196 552q-12 12 -12 29q0 23 18 40.5t41 17.5q17 0 28.5 -12t11.5 -29q0 -22 -18 -40t-40 -18q-17 0 -29 12zM363.5 552q-11.5 12 -11.5 29q0 23 18 40.5t41 17.5q18 0 29.5 -12t11.5 -29q0 -22 -18 -40t-40 -18
q-19 0 -30.5 12z" />
    <glyph glyph-name="uni1ECD" unicode="&#x1ecd;" horiz-adv-x="519" 
d="M89 28.5q-48 39.5 -48 106.5q0 18 3 36l23 128q15 86 72 134t157 48q89 0 135.5 -39t46.5 -106q0 -17 -3 -37l-22 -128q-15 -85 -71 -133.5t-155 -48.5q-90 0 -138 39.5zM321 89q35 31 44 82l22 128q3 15 3 28q0 39 -24.5 62t-75.5 23q-58 0 -92 -31t-43 -82l-23 -128
q-2 -9 -2 -27q0 -40 24 -63t74 -23q58 0 93 31zM156 -160q-13 13 -13 33q0 25 20.5 45t45.5 20q20 0 33 -13t13 -33q0 -25 -20 -45t-46 -20q-20 0 -33 13z" />
    <glyph glyph-name="ograve" unicode="&#xf2;" horiz-adv-x="519" 
d="M89 28.5q-48 39.5 -48 106.5q0 18 3 36l23 128q15 86 72 134t157 48q89 0 135.5 -39t46.5 -106q0 -17 -3 -37l-22 -128q-15 -85 -71 -133.5t-155 -48.5q-90 0 -138 39.5zM321 89q35 31 44 82l22 128q3 15 3 28q0 39 -24.5 62t-75.5 23q-58 0 -92 -31t-43 -82l-23 -128
q-2 -9 -2 -27q0 -40 24 -63t74 -23q58 0 93 31zM196 693h95l54 -149h-72z" />
    <glyph glyph-name="uni1ECF" unicode="&#x1ecf;" horiz-adv-x="519" 
d="M89 28.5q-48 39.5 -48 106.5q0 18 3 36l23 128q15 86 72 134t157 48q89 0 135.5 -39t46.5 -106q0 -17 -3 -37l-22 -128q-15 -85 -71 -133.5t-155 -48.5q-90 0 -138 39.5zM321 89q35 31 44 82l22 128q3 15 3 28q0 39 -24.5 62t-75.5 23q-58 0 -92 -31t-43 -82l-23 -128
q-2 -9 -2 -27q0 -40 24 -63t74 -23q58 0 93 31zM418 616q-27 -25 -73 -35l-7 -37h-66l12 70q46 5 67.5 17t21.5 36q0 15 -10.5 21t-30.5 6q-28 0 -56 -10l-7 49q39 17 81 17q44 0 69.5 -17t25.5 -51q0 -41 -27 -66z" />
    <glyph glyph-name="ohorn" unicode="&#x1a1;" horiz-adv-x="544" 
d="M583.5 391.5q-37.5 -43.5 -105.5 -53.5q1 -11 -3 -39l-22 -128q-15 -85 -71 -133.5t-155 -48.5q-90 0 -138 39.5t-48 106.5q0 18 3 36l23 128q15 86 72 134t157 48q71 0 115.5 -25t59.5 -70q36 9 55.5 41.5t31.5 95.5h81q-18 -88 -55.5 -131.5zM390 327q0 39 -24.5 62
t-75.5 23q-58 0 -92 -31t-43 -82l-23 -128q-2 -9 -2 -27q0 -40 24 -63t74 -23q58 0 93 31t44 82l22 128q3 15 3 28z" />
    <glyph glyph-name="uni1EDB" unicode="&#x1edb;" horiz-adv-x="544" 
d="M583.5 391.5q-37.5 -43.5 -105.5 -53.5q1 -11 -3 -39l-22 -128q-15 -85 -71 -133.5t-155 -48.5q-90 0 -138 39.5t-48 106.5q0 18 3 36l23 128q15 86 72 134t157 48q71 0 115.5 -25t59.5 -70q36 9 55.5 41.5t31.5 95.5h81q-18 -88 -55.5 -131.5zM390 327q0 39 -24.5 62
t-75.5 23q-58 0 -92 -31t-43 -82l-23 -128q-2 -9 -2 -27q0 -40 24 -63t74 -23q58 0 93 31t44 82l22 128q3 15 3 28zM377 693h95l-130 -149h-72z" />
    <glyph glyph-name="uni1EE3" unicode="&#x1ee3;" horiz-adv-x="544" 
d="M583.5 391.5q-37.5 -43.5 -105.5 -53.5q1 -11 -3 -39l-22 -128q-15 -85 -71 -133.5t-155 -48.5q-90 0 -138 39.5t-48 106.5q0 18 3 36l23 128q15 86 72 134t157 48q71 0 115.5 -25t59.5 -70q36 9 55.5 41.5t31.5 95.5h81q-18 -88 -55.5 -131.5zM390 327q0 39 -24.5 62
t-75.5 23q-58 0 -92 -31t-43 -82l-23 -128q-2 -9 -2 -27q0 -40 24 -63t74 -23q58 0 93 31t44 82l22 128q3 15 3 28zM156 -160q-13 13 -13 33q0 25 20.5 45t45.5 20q20 0 33 -13t13 -33q0 -25 -20 -45t-46 -20q-20 0 -33 13z" />
    <glyph glyph-name="uni1EDD" unicode="&#x1edd;" horiz-adv-x="544" 
d="M583.5 391.5q-37.5 -43.5 -105.5 -53.5q1 -11 -3 -39l-22 -128q-15 -85 -71 -133.5t-155 -48.5q-90 0 -138 39.5t-48 106.5q0 18 3 36l23 128q15 86 72 134t157 48q71 0 115.5 -25t59.5 -70q36 9 55.5 41.5t31.5 95.5h81q-18 -88 -55.5 -131.5zM390 327q0 39 -24.5 62
t-75.5 23q-58 0 -92 -31t-43 -82l-23 -128q-2 -9 -2 -27q0 -40 24 -63t74 -23q58 0 93 31t44 82l22 128q3 15 3 28zM196 693h95l54 -149h-72z" />
    <glyph glyph-name="uni1EDF" unicode="&#x1edf;" horiz-adv-x="544" 
d="M583.5 391.5q-37.5 -43.5 -105.5 -53.5q1 -11 -3 -39l-22 -128q-15 -85 -71 -133.5t-155 -48.5q-90 0 -138 39.5t-48 106.5q0 18 3 36l23 128q15 86 72 134t157 48q71 0 115.5 -25t59.5 -70q36 9 55.5 41.5t31.5 95.5h81q-18 -88 -55.5 -131.5zM390 327q0 39 -24.5 62
t-75.5 23q-58 0 -92 -31t-43 -82l-23 -128q-2 -9 -2 -27q0 -40 24 -63t74 -23q58 0 93 31t44 82l22 128q3 15 3 28zM418 616q-27 -25 -73 -35l-7 -37h-66l12 70q46 5 67.5 17t21.5 36q0 15 -10.5 21t-30.5 6q-28 0 -56 -10l-7 49q39 17 81 17q44 0 69.5 -17t25.5 -51
q0 -41 -27 -66z" />
    <glyph glyph-name="uni1EE1" unicode="&#x1ee1;" horiz-adv-x="544" 
d="M583.5 391.5q-37.5 -43.5 -105.5 -53.5q1 -11 -3 -39l-22 -128q-15 -85 -71 -133.5t-155 -48.5q-90 0 -138 39.5t-48 106.5q0 18 3 36l23 128q15 86 72 134t157 48q71 0 115.5 -25t59.5 -70q36 9 55.5 41.5t31.5 95.5h81q-18 -88 -55.5 -131.5zM390 327q0 39 -24.5 62
t-75.5 23q-58 0 -92 -31t-43 -82l-23 -128q-2 -9 -2 -27q0 -40 24 -63t74 -23q58 0 93 31t44 82l22 128q3 15 3 28zM191.5 632.5q30.5 33.5 77.5 33.5q20 0 35.5 -6.5t34.5 -18.5q18 -10 27 -14t20 -4q17 0 27.5 11.5t19.5 36.5h59q-12 -48 -43 -82t-72 -34q-21 0 -36.5 6.5
t-34.5 18.5q-16 9 -25.5 13.5t-20.5 4.5q-18 0 -30 -12t-22 -38h-58q11 51 41.5 84.5z" />
    <glyph glyph-name="ohungarumlaut" unicode="&#x151;" horiz-adv-x="519" 
d="M89 28.5q-48 39.5 -48 106.5q0 18 3 36l23 128q15 86 72 134t157 48q89 0 135.5 -39t46.5 -106q0 -17 -3 -37l-22 -128q-15 -85 -71 -133.5t-155 -48.5q-90 0 -138 39.5zM321 89q35 31 44 82l22 128q3 15 3 28q0 39 -24.5 62t-75.5 23q-58 0 -92 -31t-43 -82l-23 -128
q-2 -9 -2 -27q0 -40 24 -63t74 -23q58 0 93 31zM284 693h83l-108 -149h-67zM449 693h83l-108 -149h-66z" />
    <glyph glyph-name="omacron" unicode="&#x14d;" horiz-adv-x="519" 
d="M89 28.5q-48 39.5 -48 106.5q0 18 3 36l23 128q15 86 72 134t157 48q89 0 135.5 -39t46.5 -106q0 -17 -3 -37l-22 -128q-15 -85 -71 -133.5t-155 -48.5q-90 0 -138 39.5zM321 89q35 31 44 82l22 128q3 15 3 28q0 39 -24.5 62t-75.5 23q-58 0 -92 -31t-43 -82l-23 -128
q-2 -9 -2 -27q0 -40 24 -63t74 -23q58 0 93 31zM171 626h307l-11 -64h-307z" />
    <glyph glyph-name="oslash" unicode="&#xf8;" horiz-adv-x="519" 
d="M478 336q0 -17 -3 -37l-22 -128q-15 -85 -71 -133.5t-155 -48.5q-61 0 -103 18l-46 -67h-52l62 89q-47 38 -47 105q0 18 3 37l23 128q15 86 72 134t157 48q55 0 92 -15l44 64h52l-58 -84q52 -39 52 -110zM130 144q0 -25 8 -41l206 299q-20 10 -54 10q-58 0 -92 -31
t-43 -82l-23 -128q-2 -18 -2 -27zM390 327q0 29 -13 48l-209 -304q24 -13 60 -13q58 0 93 31t44 82l22 128q3 15 3 28z" />
    <glyph glyph-name="oslashacute" unicode="&#x1ff;" horiz-adv-x="519" 
d="M478 336q0 -17 -3 -37l-22 -128q-15 -85 -71 -133.5t-155 -48.5q-61 0 -103 18l-46 -67h-52l62 89q-47 38 -47 105q0 18 3 37l23 128q15 86 72 134t157 48q55 0 92 -15l44 64h52l-58 -84q52 -39 52 -110zM130 144q0 -25 8 -41l206 299q-20 10 -54 10q-58 0 -92 -31
t-43 -82l-23 -128q-2 -18 -2 -27zM390 327q0 29 -13 48l-209 -304q24 -13 60 -13q58 0 93 31t44 82l22 128q3 15 3 28zM377 693h95l-130 -149h-72z" />
    <glyph glyph-name="otilde" unicode="&#xf5;" horiz-adv-x="519" 
d="M89 28.5q-48 39.5 -48 106.5q0 18 3 36l23 128q15 86 72 134t157 48q89 0 135.5 -39t46.5 -106q0 -17 -3 -37l-22 -128q-15 -85 -71 -133.5t-155 -48.5q-90 0 -138 39.5zM321 89q35 31 44 82l22 128q3 15 3 28q0 39 -24.5 62t-75.5 23q-58 0 -92 -31t-43 -82l-23 -128
q-2 -9 -2 -27q0 -40 24 -63t74 -23q58 0 93 31zM191.5 632.5q30.5 33.5 77.5 33.5q20 0 35.5 -6.5t34.5 -18.5q18 -10 27 -14t20 -4q17 0 27.5 11.5t19.5 36.5h59q-12 -48 -43 -82t-72 -34q-21 0 -36.5 6.5t-34.5 18.5q-16 9 -25.5 13.5t-20.5 4.5q-18 0 -30 -12t-22 -38
h-58q11 51 41.5 84.5z" />
    <glyph glyph-name="oe" unicode="&#x153;" horiz-adv-x="817" 
d="M87 27.5q-46 38.5 -46 105.5q0 19 3 38l23 128q15 84 74 133t158 49q57 0 95 -18.5t57 -52.5q27 33 67 52t90 19q85 0 133 -39.5t48 -109.5q0 -72 -29 -104t-93 -32h-210l-5 -31q-2 -10 -2 -28q0 -40 24.5 -59.5t77.5 -19.5q42 0 75 12.5t65 38.5l45 -50
q-36 -35 -83 -52.5t-108 -17.5q-125 0 -160 68q-29 -32 -71 -50t-93 -18q-89 0 -135 38.5zM637 259q34 0 49.5 16t15.5 56q0 39 -25.5 60.5t-71.5 21.5q-51 0 -85.5 -29t-42.5 -76l-9 -49h169zM321 89q35 31 44 82l22 128q3 15 3 28q0 39 -24.5 62t-75.5 23q-58 0 -92 -31
t-43 -82l-23 -128q-2 -9 -2 -27q0 -40 24 -63t74 -23q58 0 93 31z" />
    <glyph glyph-name="p" unicode="p" horiz-adv-x="578" 
d="M488.5 431q45.5 -50 45.5 -132q0 -16 -4 -48l-5 -32q-15 -98 -76.5 -164t-159.5 -66q-52 0 -91 19t-60 53l-49 -280h-88l103 584q2 12 2 16q0 14 -6 24t-21 24l59 52q27 -17 40.5 -36t15.5 -44q62 80 167 80q82 0 127.5 -50zM445 288q0 55 -28.5 89.5t-83.5 34.5
q-101 0 -150 -99l-27 -156q7 -49 38.5 -74t82.5 -25q63 0 105.5 44.5t54.5 116.5l5 32q3 20 3 37z" />
    <glyph glyph-name="thorn" unicode="&#xfe;" horiz-adv-x="578" 
d="M148 617q2 12 2 16q0 13 -6 24t-21 24l59 52q30 -19 43.5 -40t13.5 -49q0 -12 -3 -27l-37 -211q25 34 67 54.5t95 20.5q82 0 127.5 -49.5t45.5 -131.5q0 -26 -4 -49l-5 -32q-15 -98 -76.5 -164t-159.5 -66q-53 0 -91.5 19t-59.5 53l-49 -280h-88zM382.5 102.5
q42.5 44.5 54.5 116.5l5 32q3 20 3 37q0 55 -28.5 89.5t-83.5 34.5q-101 0 -150 -99l-27 -156q7 -49 38.5 -74t82.5 -25q63 0 105.5 44.5z" />
    <glyph glyph-name="q" unicode="q" horiz-adv-x="558" 
d="M377 61q-27 -33 -69.5 -52.5t-90.5 -19.5q-81 0 -127 48.5t-46 131.5q0 27 4 50l5 32q16 103 82 166.5t164 63.5q51 0 86.5 -18.5t53.5 -50.5l10 59h88l-121 -690h-88zM396 157l27 157q-7 49 -37 73.5t-78 24.5q-64 0 -110 -45t-57 -116l-5 -32q-3 -19 -3 -38
q0 -57 29 -90t83 -33q101 0 151 99z" />
    <glyph glyph-name="r" unicode="r" horiz-adv-x="398" 
d="M393.5 476q21.5 -5 34.5 -16l-36 -77q-28 20 -68 20q-50 0 -87.5 -40.5t-62.5 -100.5l-46 -262h-88l64 365q2 12 2 16q0 13 -6.5 24.5t-20.5 24.5l60 51q30 -17 43 -36.5t13 -47.5q0 -11 -1 -18q61 102 157 102q21 0 42.5 -5z" />
    <glyph glyph-name="racute" unicode="&#x155;" horiz-adv-x="398" 
d="M393.5 476q21.5 -5 34.5 -16l-36 -77q-28 20 -68 20q-50 0 -87.5 -40.5t-62.5 -100.5l-46 -262h-88l64 365q2 12 2 16q0 13 -6.5 24.5t-20.5 24.5l60 51q30 -17 43 -36.5t13 -47.5q0 -11 -1 -18q61 102 157 102q21 0 42.5 -5zM320 693h95l-130 -149h-72z" />
    <glyph glyph-name="rcaron" unicode="&#x159;" horiz-adv-x="398" 
d="M393.5 476q21.5 -5 34.5 -16l-36 -77q-28 20 -68 20q-50 0 -87.5 -40.5t-62.5 -100.5l-46 -262h-88l64 365q2 12 2 16q0 13 -6.5 24.5t-20.5 24.5l60 51q30 -17 43 -36.5t13 -47.5q0 -11 -1 -18q61 102 157 102q21 0 42.5 -5zM173 630q-29 44 -53 67h81q17 -17 34.5 -42
t27.5 -47q15 20 42 45.5t52 43.5h81q-34 -24 -77.5 -67.5t-73.5 -85.5h-69q-16 42 -45 86z" />
    <glyph glyph-name="uni0157" unicode="&#x157;" horiz-adv-x="398" 
d="M393.5 476q21.5 -5 34.5 -16l-36 -77q-28 20 -68 20q-50 0 -87.5 -40.5t-62.5 -100.5l-46 -262h-88l64 365q2 12 2 16q0 13 -6.5 24.5t-20.5 24.5l60 51q30 -17 43 -36.5t13 -47.5q0 -11 -1 -18q61 102 157 102q21 0 42.5 -5zM108.5 -77q12.5 -14 12.5 -39
q0 -48 -31.5 -93t-80.5 -77l-23 27q57 39 73 84q-12 -6 -27 -6q-17 0 -26.5 10t-9.5 27q0 31 24 56t53 25q23 0 35.5 -14z" />
    <glyph glyph-name="uni1E5B" unicode="&#x1e5b;" horiz-adv-x="398" 
d="M393.5 476q21.5 -5 34.5 -16l-36 -77q-28 20 -68 20q-50 0 -87.5 -40.5t-62.5 -100.5l-46 -262h-88l64 365q2 12 2 16q0 13 -6.5 24.5t-20.5 24.5l60 51q30 -17 43 -36.5t13 -47.5q0 -11 -1 -18q61 102 157 102q21 0 42.5 -5zM20 -160q-13 13 -13 33q0 25 20.5 45
t45.5 20q20 0 33 -13t13 -33q0 -25 -20 -45t-46 -20q-20 0 -33 13z" />
    <glyph glyph-name="uni1E5D" unicode="&#x1e5d;" horiz-adv-x="398" 
d="M393.5 476q21.5 -5 34.5 -16l-36 -77q-28 20 -68 20q-50 0 -87.5 -40.5t-62.5 -100.5l-46 -262h-88l64 365q2 12 2 16q0 13 -6.5 24.5t-20.5 24.5l60 51q30 -17 43 -36.5t13 -47.5q0 -11 -1 -18q61 102 157 102q21 0 42.5 -5zM20 -160q-13 13 -13 33q0 25 20.5 45
t45.5 20q20 0 33 -13t13 -33q0 -25 -20 -45t-46 -20q-20 0 -33 13zM114 626h307l-11 -64h-307z" />
    <glyph glyph-name="uni1E5F" unicode="&#x1e5f;" horiz-adv-x="398" 
d="M393.5 476q21.5 -5 34.5 -16l-36 -77q-28 20 -68 20q-50 0 -87.5 -40.5t-62.5 -100.5l-46 -262h-88l64 365q2 12 2 16q0 13 -6.5 24.5t-20.5 24.5l60 51q30 -17 43 -36.5t13 -47.5q0 -11 -1 -18q61 102 157 102q21 0 42.5 -5zM-84 -78h307l-12 -65h-306z" />
    <glyph glyph-name="s" unicode="s" horiz-adv-x="453" 
d="M75 9q-41 20 -66 63l65 48q21 -35 46 -48.5t68 -13.5q58 0 89.5 21.5t31.5 58.5q0 27 -28 41t-95 26q-62 12 -90 40.5t-28 73.5q0 47 24 84t68.5 57.5t103.5 20.5q128 0 162 -77l-63 -47q-19 29 -44.5 42t-63.5 13q-45 0 -73.5 -22.5t-28.5 -56.5q0 -24 21.5 -37
t62.5 -22q85 -18 121 -44t36 -81q0 -76 -53.5 -118t-155.5 -42q-69 0 -110 20z" />
    <glyph glyph-name="sacute" unicode="&#x15b;" horiz-adv-x="453" 
d="M75 9q-41 20 -66 63l65 48q21 -35 46 -48.5t68 -13.5q58 0 89.5 21.5t31.5 58.5q0 27 -28 41t-95 26q-62 12 -90 40.5t-28 73.5q0 47 24 84t68.5 57.5t103.5 20.5q128 0 162 -77l-63 -47q-19 29 -44.5 42t-63.5 13q-45 0 -73.5 -22.5t-28.5 -56.5q0 -24 21.5 -37
t62.5 -22q85 -18 121 -44t36 -81q0 -76 -53.5 -118t-155.5 -42q-69 0 -110 20zM347 693h95l-130 -149h-72z" />
    <glyph glyph-name="scaron" unicode="&#x161;" horiz-adv-x="453" 
d="M75 9q-41 20 -66 63l65 48q21 -35 46 -48.5t68 -13.5q58 0 89.5 21.5t31.5 58.5q0 27 -28 41t-95 26q-62 12 -90 40.5t-28 73.5q0 47 24 84t68.5 57.5t103.5 20.5q128 0 162 -77l-63 -47q-19 29 -44.5 42t-63.5 13q-45 0 -73.5 -22.5t-28.5 -56.5q0 -24 21.5 -37
t62.5 -22q85 -18 121 -44t36 -81q0 -76 -53.5 -118t-155.5 -42q-69 0 -110 20zM200 630q-29 44 -53 67h81q17 -17 34.5 -42t27.5 -47q15 20 42 45.5t52 43.5h81q-34 -24 -77.5 -67.5t-73.5 -85.5h-69q-16 42 -45 86z" />
    <glyph glyph-name="scedilla" unicode="&#x15f;" horiz-adv-x="453" 
d="M358 230q36 -26 36 -81q0 -70 -45 -111t-133 -48l-16 -34q36 -2 54 -19t18 -46q0 -48 -34.5 -74t-100.5 -26q-56 0 -92 21l24 50q32 -17 67 -17q33 0 48.5 9t15.5 29q0 27 -52 27q-7 0 -31 -2l34 82q-53 4 -87 24t-55 58l65 48q21 -35 46 -48.5t68 -13.5q58 0 89.5 21.5
t31.5 58.5q0 27 -28 41t-95 26q-62 12 -90 40.5t-28 73.5q0 47 24 84t68.5 57.5t103.5 20.5q128 0 162 -77l-63 -47q-19 29 -44.5 42t-63.5 13q-45 0 -73.5 -22.5t-28.5 -56.5q0 -24 21.5 -37t62.5 -22q85 -18 121 -44z" />
    <glyph glyph-name="scircumflex" unicode="&#x15d;" horiz-adv-x="453" 
d="M75 9q-41 20 -66 63l65 48q21 -35 46 -48.5t68 -13.5q58 0 89.5 21.5t31.5 58.5q0 27 -28 41t-95 26q-62 12 -90 40.5t-28 73.5q0 47 24 84t68.5 57.5t103.5 20.5q128 0 162 -77l-63 -47q-19 29 -44.5 42t-63.5 13q-45 0 -73.5 -22.5t-28.5 -56.5q0 -24 21.5 -37
t62.5 -22q85 -18 121 -44t36 -81q0 -76 -53.5 -118t-155.5 -42q-69 0 -110 20zM197 610q44 44 74 87h69q16 -43 45 -87t53 -66h-82q-17 16 -33.5 41t-27.5 47q-15 -20 -42.5 -45.5t-51.5 -42.5h-81q33 22 77 66z" />
    <glyph glyph-name="uni0219" unicode="&#x219;" horiz-adv-x="453" 
d="M75 9q-41 20 -66 63l65 48q21 -35 46 -48.5t68 -13.5q58 0 89.5 21.5t31.5 58.5q0 27 -28 41t-95 26q-62 12 -90 40.5t-28 73.5q0 47 24 84t68.5 57.5t103.5 20.5q128 0 162 -77l-63 -47q-19 29 -44.5 42t-63.5 13q-45 0 -73.5 -22.5t-28.5 -56.5q0 -24 21.5 -37
t62.5 -22q85 -18 121 -44t36 -81q0 -76 -53.5 -118t-155.5 -42q-69 0 -110 20zM209.5 -77q12.5 -14 12.5 -39q0 -48 -31.5 -93t-80.5 -77l-23 27q57 39 73 84q-12 -6 -27 -6q-17 0 -26.5 10t-9.5 27q0 31 24 56t53 25q23 0 35.5 -14z" />
    <glyph glyph-name="uni1E61" unicode="&#x1e61;" horiz-adv-x="453" 
d="M75 9q-41 20 -66 63l65 48q21 -35 46 -48.5t68 -13.5q58 0 89.5 21.5t31.5 58.5q0 27 -28 41t-95 26q-62 12 -90 40.5t-28 73.5q0 47 24 84t68.5 57.5t103.5 20.5q128 0 162 -77l-63 -47q-19 29 -44.5 42t-63.5 13q-45 0 -73.5 -22.5t-28.5 -56.5q0 -24 21.5 -37
t62.5 -22q85 -18 121 -44t36 -81q0 -76 -53.5 -118t-155.5 -42q-69 0 -110 20zM246 553.5q-13 13.5 -13 33.5q0 25 20.5 45t45.5 20q20 0 33 -13.5t13 -32.5q0 -25 -20 -45.5t-46 -20.5q-20 0 -33 13.5z" />
    <glyph glyph-name="uni1E63" unicode="&#x1e63;" horiz-adv-x="453" 
d="M75 9q-41 20 -66 63l65 48q21 -35 46 -48.5t68 -13.5q58 0 89.5 21.5t31.5 58.5q0 27 -28 41t-95 26q-62 12 -90 40.5t-28 73.5q0 47 24 84t68.5 57.5t103.5 20.5q128 0 162 -77l-63 -47q-19 29 -44.5 42t-63.5 13q-45 0 -73.5 -22.5t-28.5 -56.5q0 -24 21.5 -37
t62.5 -22q85 -18 121 -44t36 -81q0 -76 -53.5 -118t-155.5 -42q-69 0 -110 20zM121 -160q-13 13 -13 33q0 25 20.5 45t45.5 20q20 0 33 -13t13 -33q0 -25 -20 -45t-46 -20q-20 0 -33 13z" />
    <glyph glyph-name="germandbls" unicode="&#xdf;" horiz-adv-x="610" 
d="M542 347.5q21 -27.5 21 -64.5q0 -17 -2 -26l-18 -103q-14 -81 -69.5 -123t-149.5 -42q-66 0 -109 20l12 73q39 -21 96 -21t91 25t42 73l17 98q1 6 1 17q0 37 -28 57.5t-77 20.5h-62l12 69h60q59 0 97 35.5t38 91.5q0 43 -31.5 66t-88.5 23q-142 0 -172 -164l-83 -473h-88
l83 473q20 117 85.5 175.5t180.5 58.5q96 0 149 -39t53 -111q0 -61 -31.5 -104t-88.5 -64q39 -14 60 -41.5z" />
    <glyph glyph-name="t" unicode="t" horiz-adv-x="337" 
d="M150 149q-3 -15 -3 -28q0 -56 59 -56h63l-12 -69h-63q-68 0 -102 26t-34 83q0 23 4 44l74 418q1 5 1 14q0 14 -6 26t-21 25l60 51q30 -17 43.5 -37.5t13.5 -48.5q0 -13 -3 -30l-17 -97h134l-13 -69h-133z" />
    <glyph glyph-name="tbar" unicode="&#x167;" horiz-adv-x="370" 
d="M228 401l-19 -109h106l-8 -49h-107l-16 -94q-3 -15 -3 -28q0 -56 59 -56h63l-12 -69h-63q-68 0 -102 25.5t-34 82.5q0 24 4 45l16 94h-77l9 49h77l48 275q2 10 2 15q0 13 -6.5 24.5t-20.5 25.5l60 51q29 -17 42.5 -37t13.5 -48q0 -14 -3 -31l-17 -97h135l-13 -69h-134z
" />
    <glyph glyph-name="tcaron" unicode="&#x165;" horiz-adv-x="361" 
d="M150 149q-3 -15 -3 -28q0 -56 59 -56h63l-12 -69h-63q-68 0 -102 26t-34 83q0 23 4 44l74 418q1 5 1 14q0 14 -6 26t-21 25l60 51q30 -17 43.5 -37.5t13.5 -48.5q0 -13 -3 -30l-17 -97h134l-13 -69h-133zM407 752.5q12 -13.5 12 -38.5q0 -48 -31.5 -94.5t-81.5 -80.5
l-22 28q57 39 73 87q-12 -6 -27 -6q-16 0 -25.5 10t-9.5 27q0 31 23.5 56t52.5 25q24 0 36 -13.5z" />
    <glyph glyph-name="uni0163" unicode="&#x163;" horiz-adv-x="337" 
d="M150 149q-3 -15 -3 -28q0 -56 59 -56h63l-12 -69h-60l-19 -40q36 -2 54 -19t18 -46q0 -48 -34.5 -74t-100.5 -26q-56 0 -92 21l24 50q32 -17 67 -17q33 0 48.5 9t15.5 29q0 27 -52 27q-7 0 -31 -2l39 94q-38 10 -57 35t-19 68q0 23 4 44l74 418q1 5 1 14q0 14 -6 26
t-21 25l60 51q30 -17 43.5 -37.5t13.5 -48.5q0 -13 -3 -30l-17 -97h134l-13 -69h-133z" />
    <glyph glyph-name="uni021B" unicode="&#x21b;" horiz-adv-x="337" 
d="M150 149q-3 -15 -3 -28q0 -56 59 -56h63l-12 -69h-63q-68 0 -102 26t-34 83q0 23 4 44l74 418q1 5 1 14q0 14 -6 26t-21 25l60 51q30 -17 43.5 -37.5t13.5 -48.5q0 -13 -3 -30l-17 -97h134l-13 -69h-133zM187.5 -77q12.5 -14 12.5 -39q0 -48 -31.5 -93t-80.5 -77l-23 27
q57 39 73 84q-12 -6 -27 -6q-17 0 -26.5 10t-9.5 27q0 31 24 56t53 25q23 0 35.5 -14z" />
    <glyph glyph-name="uni1E97" unicode="&#x1e97;" horiz-adv-x="337" 
d="M150 149q-3 -15 -3 -28q0 -56 59 -56h63l-12 -69h-63q-68 0 -102 26t-34 83q0 23 4 44l74 418q1 5 1 14q0 14 -6 26t-21 25l60 51q30 -17 43.5 -37.5t13.5 -48.5q0 -13 -3 -30l-17 -97h134l-13 -69h-133zM92 747q-12 12 -12 29q0 23 18 40.5t41 17.5q17 0 28.5 -12
t11.5 -29q0 -22 -18 -40t-40 -18q-17 0 -29 12zM259.5 747q-11.5 12 -11.5 29q0 23 18 40.5t41 17.5q18 0 29.5 -12t11.5 -29q0 -22 -18 -40t-40 -18q-19 0 -30.5 12z" />
    <glyph glyph-name="uni1E6D" unicode="&#x1e6d;" horiz-adv-x="337" 
d="M150 149q-3 -15 -3 -28q0 -56 59 -56h63l-12 -69h-63q-68 0 -102 26t-34 83q0 23 4 44l74 418q1 5 1 14q0 14 -6 26t-21 25l60 51q30 -17 43.5 -37.5t13.5 -48.5q0 -13 -3 -30l-17 -97h134l-13 -69h-133zM99 -160q-13 13 -13 33q0 25 20.5 45t45.5 20q20 0 33 -13t13 -33
q0 -25 -20 -45t-46 -20q-20 0 -33 13z" />
    <glyph glyph-name="uni1E6F" unicode="&#x1e6f;" horiz-adv-x="337" 
d="M150 149q-3 -15 -3 -28q0 -56 59 -56h63l-12 -69h-63q-68 0 -102 26t-34 83q0 23 4 44l74 418q1 5 1 14q0 14 -6 26t-21 25l60 51q30 -17 43.5 -37.5t13.5 -48.5q0 -13 -3 -30l-17 -97h134l-13 -69h-133zM-5 -78h307l-12 -65h-306z" />
    <glyph glyph-name="u" unicode="u" horiz-adv-x="554" 
d="M448 92q0 -15 6 -25.5t21 -25.5l-63 -52q-30 19 -42.5 40.5t-11.5 51.5q-29 -42 -70.5 -67t-95.5 -25q-64 0 -102 33t-38 94q0 11 4 37l56 317h88l-55 -310q-2 -9 -2 -26q0 -36 20 -56t58 -20q55 0 93 37t62 93l50 282h88l-65 -364q-1 -5 -1 -14z" />
    <glyph glyph-name="uacute" unicode="&#xfa;" horiz-adv-x="554" 
d="M448 92q0 -15 6 -25.5t21 -25.5l-63 -52q-30 19 -42.5 40.5t-11.5 51.5q-29 -42 -70.5 -67t-95.5 -25q-64 0 -102 33t-38 94q0 11 4 37l56 317h88l-55 -310q-2 -9 -2 -26q0 -36 20 -56t58 -20q55 0 93 37t62 93l50 282h88l-65 -364q-1 -5 -1 -14zM392 693h95l-130 -149
h-72z" />
    <glyph glyph-name="ubreve" unicode="&#x16d;" horiz-adv-x="554" 
d="M448 92q0 -15 6 -25.5t21 -25.5l-63 -52q-30 19 -42.5 40.5t-11.5 51.5q-29 -42 -70.5 -67t-95.5 -25q-64 0 -102 33t-38 94q0 11 4 37l56 317h88l-55 -310q-2 -9 -2 -26q0 -36 20 -56t58 -20q55 0 93 37t62 93l50 282h88l-65 -364q-1 -5 -1 -14zM230.5 569.5
q-36.5 32.5 -36.5 87.5q0 15 3 30h63q-4 -40 15.5 -63t58.5 -23q40 0 67.5 23t37.5 63h64q-12 -69 -58.5 -109.5t-115.5 -40.5q-62 0 -98.5 32.5z" />
    <glyph glyph-name="uni01D4" unicode="&#x1d4;" horiz-adv-x="554" 
d="M448 92q0 -15 6 -25.5t21 -25.5l-63 -52q-30 19 -42.5 40.5t-11.5 51.5q-29 -42 -70.5 -67t-95.5 -25q-64 0 -102 33t-38 94q0 11 4 37l56 317h88l-55 -310q-2 -9 -2 -26q0 -36 20 -56t58 -20q55 0 93 37t62 93l50 282h88l-65 -364q-1 -5 -1 -14zM245 630q-29 44 -53 67
h81q17 -17 34.5 -42t27.5 -47q15 20 42 45.5t52 43.5h81q-34 -24 -77.5 -67.5t-73.5 -85.5h-69q-16 42 -45 86z" />
    <glyph glyph-name="ucircumflex" unicode="&#xfb;" horiz-adv-x="554" 
d="M448 92q0 -15 6 -25.5t21 -25.5l-63 -52q-30 19 -42.5 40.5t-11.5 51.5q-29 -42 -70.5 -67t-95.5 -25q-64 0 -102 33t-38 94q0 11 4 37l56 317h88l-55 -310q-2 -9 -2 -26q0 -36 20 -56t58 -20q55 0 93 37t62 93l50 282h88l-65 -364q-1 -5 -1 -14zM242 610q44 44 74 87h69
q16 -43 45 -87t53 -66h-82q-17 16 -33.5 41t-27.5 47q-15 -20 -42.5 -45.5t-51.5 -42.5h-81q33 22 77 66z" />
    <glyph glyph-name="udieresis" unicode="&#xfc;" horiz-adv-x="554" 
d="M448 92q0 -15 6 -25.5t21 -25.5l-63 -52q-30 19 -42.5 40.5t-11.5 51.5q-29 -42 -70.5 -67t-95.5 -25q-64 0 -102 33t-38 94q0 11 4 37l56 317h88l-55 -310q-2 -9 -2 -26q0 -36 20 -56t58 -20q55 0 93 37t62 93l50 282h88l-65 -364q-1 -5 -1 -14zM211 552q-12 12 -12 29
q0 23 18 40.5t41 17.5q17 0 28.5 -12t11.5 -29q0 -22 -18 -40t-40 -18q-17 0 -29 12zM378.5 552q-11.5 12 -11.5 29q0 23 18 40.5t41 17.5q18 0 29.5 -12t11.5 -29q0 -22 -18 -40t-40 -18q-19 0 -30.5 12z" />
    <glyph glyph-name="uni01D8" unicode="&#x1d8;" horiz-adv-x="554" 
d="M448 92q0 -15 6 -25.5t21 -25.5l-63 -52q-30 19 -42.5 40.5t-11.5 51.5q-29 -42 -70.5 -67t-95.5 -25q-64 0 -102 33t-38 94q0 11 4 37l56 317h88l-55 -310q-2 -9 -2 -26q0 -36 20 -56t58 -20q55 0 93 37t62 93l50 282h88l-65 -364q-1 -5 -1 -14zM392 797h92l-106 -116
h-69zM210.5 550.5q-11.5 11.5 -11.5 29.5q0 22 18 39.5t40 17.5q17 0 29 -12t12 -29q0 -22 -18 -39.5t-40 -17.5q-18 0 -29.5 11.5zM378.5 550.5q-11.5 11.5 -11.5 28.5q0 23 18 40.5t41 17.5q17 0 29 -12t12 -29q0 -22 -18 -39.5t-41 -17.5q-18 0 -29.5 11.5z" />
    <glyph glyph-name="uni01DA" unicode="&#x1da;" horiz-adv-x="554" 
d="M448 92q0 -15 6 -25.5t21 -25.5l-63 -52q-30 19 -42.5 40.5t-11.5 51.5q-29 -42 -70.5 -67t-95.5 -25q-64 0 -102 33t-38 94q0 11 4 37l56 317h88l-55 -310q-2 -9 -2 -26q0 -36 20 -56t58 -20q55 0 93 37t62 93l50 282h88l-65 -364q-1 -5 -1 -14zM271 749.5
q-28 35.5 -51 54.5h73q18 -13 35.5 -34.5t25.5 -37.5q11 15 36 36.5t48 35.5h78q-30 -19 -70 -54.5t-67 -68.5h-65q-15 33 -43 68.5zM210.5 550.5q-11.5 11.5 -11.5 29.5q0 22 18 39.5t40 17.5q17 0 29 -12t12 -29q0 -22 -18 -39.5t-40 -17.5q-18 0 -29.5 11.5zM378.5 550.5
q-11.5 11.5 -11.5 28.5q0 23 18 40.5t41 17.5q17 0 29 -12t12 -29q0 -22 -18 -39.5t-41 -17.5q-18 0 -29.5 11.5z" />
    <glyph glyph-name="uni01DC" unicode="&#x1dc;" horiz-adv-x="554" 
d="M448 92q0 -15 6 -25.5t21 -25.5l-63 -52q-30 19 -42.5 40.5t-11.5 51.5q-29 -42 -70.5 -67t-95.5 -25q-64 0 -102 33t-38 94q0 11 4 37l56 317h88l-55 -310q-2 -9 -2 -26q0 -36 20 -56t58 -20q55 0 93 37t62 93l50 282h88l-65 -364q-1 -5 -1 -14zM241 795h91l43 -116h-68
zM210.5 550.5q-11.5 11.5 -11.5 29.5q0 22 18 39.5t40 17.5q17 0 29 -12t12 -29q0 -22 -18 -39.5t-40 -17.5q-18 0 -29.5 11.5zM378.5 550.5q-11.5 11.5 -11.5 28.5q0 23 18 40.5t41 17.5q17 0 29 -12t12 -29q0 -22 -18 -39.5t-41 -17.5q-18 0 -29.5 11.5z" />
    <glyph glyph-name="uni01D6" unicode="&#x1d6;" horiz-adv-x="554" 
d="M448 92q0 -15 6 -25.5t21 -25.5l-63 -52q-30 19 -42.5 40.5t-11.5 51.5q-29 -42 -70.5 -67t-95.5 -25q-64 0 -102 33t-38 94q0 11 4 37l56 317h88l-55 -310q-2 -9 -2 -26q0 -36 20 -56t58 -20q55 0 93 37t62 93l50 282h88l-65 -364q-1 -5 -1 -14zM209 757h307l-11 -65
h-307zM212 550.5q-12 11.5 -12 29.5q0 22 18 39.5t41 17.5q17 0 28.5 -12t11.5 -29q0 -22 -18 -39.5t-40 -17.5q-17 0 -29 11.5zM379.5 550.5q-11.5 11.5 -11.5 28.5q0 23 18 40.5t41 17.5q18 0 29.5 -12t11.5 -29q0 -22 -18 -39.5t-40 -17.5q-19 0 -30.5 11.5z" />
    <glyph glyph-name="uni1EE5" unicode="&#x1ee5;" horiz-adv-x="554" 
d="M448 92q0 -15 6 -25.5t21 -25.5l-63 -52q-30 19 -42.5 40.5t-11.5 51.5q-29 -42 -70.5 -67t-95.5 -25q-64 0 -102 33t-38 94q0 11 4 37l56 317h88l-55 -310q-2 -9 -2 -26q0 -36 20 -56t58 -20q55 0 93 37t62 93l50 282h88l-65 -364q-1 -5 -1 -14zM159 -160q-13 13 -13 33
q0 25 20.5 45t45.5 20q20 0 33 -13t13 -33q0 -25 -20 -45t-46 -20q-20 0 -33 13z" />
    <glyph glyph-name="ugrave" unicode="&#xf9;" horiz-adv-x="554" 
d="M448 92q0 -15 6 -25.5t21 -25.5l-63 -52q-30 19 -42.5 40.5t-11.5 51.5q-29 -42 -70.5 -67t-95.5 -25q-64 0 -102 33t-38 94q0 11 4 37l56 317h88l-55 -310q-2 -9 -2 -26q0 -36 20 -56t58 -20q55 0 93 37t62 93l50 282h88l-65 -364q-1 -5 -1 -14zM211 693h95l54 -149h-72
z" />
    <glyph glyph-name="uni1EE7" unicode="&#x1ee7;" horiz-adv-x="554" 
d="M448 92q0 -15 6 -25.5t21 -25.5l-63 -52q-30 19 -42.5 40.5t-11.5 51.5q-29 -42 -70.5 -67t-95.5 -25q-64 0 -102 33t-38 94q0 11 4 37l56 317h88l-55 -310q-2 -9 -2 -26q0 -36 20 -56t58 -20q55 0 93 37t62 93l50 282h88l-65 -364q-1 -5 -1 -14zM433 616
q-27 -25 -73 -35l-7 -37h-66l12 70q46 5 67.5 17t21.5 36q0 15 -10.5 21t-30.5 6q-28 0 -56 -10l-7 49q39 17 81 17q44 0 69.5 -17t25.5 -51q0 -41 -27 -66z" />
    <glyph glyph-name="uhorn" unicode="&#x1b0;" horiz-adv-x="582" 
d="M449 106q-1 -5 -1 -14q0 -15 6 -25.5t21 -25.5l-63 -52q-30 19 -42.5 40.5t-11.5 51.5q-29 -42 -70.5 -67t-95.5 -25q-64 0 -102 33t-38 94q0 11 4 37l56 317h88l-55 -310q-2 -9 -2 -26q0 -36 20 -56t58 -20q55 0 93 37t62 93l50 282h88l-15 -85q40 6 61 39.5t34 98.5h80
q-20 -95 -62.5 -139t-121.5 -48z" />
    <glyph glyph-name="uni1EE9" unicode="&#x1ee9;" horiz-adv-x="582" 
d="M449 106q-1 -5 -1 -14q0 -15 6 -25.5t21 -25.5l-63 -52q-30 19 -42.5 40.5t-11.5 51.5q-29 -42 -70.5 -67t-95.5 -25q-64 0 -102 33t-38 94q0 11 4 37l56 317h88l-55 -310q-2 -9 -2 -26q0 -36 20 -56t58 -20q55 0 93 37t62 93l50 282h88l-15 -85q40 6 61 39.5t34 98.5h80
q-20 -95 -62.5 -139t-121.5 -48zM392 693h95l-130 -149h-72z" />
    <glyph glyph-name="uni1EF1" unicode="&#x1ef1;" horiz-adv-x="582" 
d="M449 106q-1 -5 -1 -14q0 -15 6 -25.5t21 -25.5l-63 -52q-30 19 -42.5 40.5t-11.5 51.5q-29 -42 -70.5 -67t-95.5 -25q-64 0 -102 33t-38 94q0 11 4 37l56 317h88l-55 -310q-2 -9 -2 -26q0 -36 20 -56t58 -20q55 0 93 37t62 93l50 282h88l-15 -85q40 6 61 39.5t34 98.5h80
q-20 -95 -62.5 -139t-121.5 -48zM159 -160q-13 13 -13 33q0 25 20.5 45t45.5 20q20 0 33 -13t13 -33q0 -25 -20 -45t-46 -20q-20 0 -33 13z" />
    <glyph glyph-name="uni1EEB" unicode="&#x1eeb;" horiz-adv-x="582" 
d="M449 106q-1 -5 -1 -14q0 -15 6 -25.5t21 -25.5l-63 -52q-30 19 -42.5 40.5t-11.5 51.5q-29 -42 -70.5 -67t-95.5 -25q-64 0 -102 33t-38 94q0 11 4 37l56 317h88l-55 -310q-2 -9 -2 -26q0 -36 20 -56t58 -20q55 0 93 37t62 93l50 282h88l-15 -85q40 6 61 39.5t34 98.5h80
q-20 -95 -62.5 -139t-121.5 -48zM211 693h95l54 -149h-72z" />
    <glyph glyph-name="uni1EED" unicode="&#x1eed;" horiz-adv-x="582" 
d="M449 106q-1 -5 -1 -14q0 -15 6 -25.5t21 -25.5l-63 -52q-30 19 -42.5 40.5t-11.5 51.5q-29 -42 -70.5 -67t-95.5 -25q-64 0 -102 33t-38 94q0 11 4 37l56 317h88l-55 -310q-2 -9 -2 -26q0 -36 20 -56t58 -20q55 0 93 37t62 93l50 282h88l-15 -85q40 6 61 39.5t34 98.5h80
q-20 -95 -62.5 -139t-121.5 -48zM433 616q-27 -25 -73 -35l-7 -37h-66l12 70q46 5 67.5 17t21.5 36q0 15 -10.5 21t-30.5 6q-28 0 -56 -10l-7 49q39 17 81 17q44 0 69.5 -17t25.5 -51q0 -41 -27 -66z" />
    <glyph glyph-name="uni1EEF" unicode="&#x1eef;" horiz-adv-x="582" 
d="M449 106q-1 -5 -1 -14q0 -15 6 -25.5t21 -25.5l-63 -52q-30 19 -42.5 40.5t-11.5 51.5q-29 -42 -70.5 -67t-95.5 -25q-64 0 -102 33t-38 94q0 11 4 37l56 317h88l-55 -310q-2 -9 -2 -26q0 -36 20 -56t58 -20q55 0 93 37t62 93l50 282h88l-15 -85q40 6 61 39.5t34 98.5h80
q-20 -95 -62.5 -139t-121.5 -48zM206.5 632.5q30.5 33.5 77.5 33.5q20 0 35.5 -6.5t34.5 -18.5q18 -10 27 -14t20 -4q17 0 27.5 11.5t19.5 36.5h59q-12 -48 -43 -82t-72 -34q-21 0 -36.5 6.5t-34.5 18.5q-16 9 -25.5 13.5t-20.5 4.5q-18 0 -30 -12t-22 -38h-58
q11 51 41.5 84.5z" />
    <glyph glyph-name="uhungarumlaut" unicode="&#x171;" horiz-adv-x="554" 
d="M448 92q0 -15 6 -25.5t21 -25.5l-63 -52q-30 19 -42.5 40.5t-11.5 51.5q-29 -42 -70.5 -67t-95.5 -25q-64 0 -102 33t-38 94q0 11 4 37l56 317h88l-55 -310q-2 -9 -2 -26q0 -36 20 -56t58 -20q55 0 93 37t62 93l50 282h88l-65 -364q-1 -5 -1 -14zM299 693h83l-108 -149
h-67zM464 693h83l-108 -149h-66z" />
    <glyph glyph-name="umacron" unicode="&#x16b;" horiz-adv-x="554" 
d="M448 92q0 -15 6 -25.5t21 -25.5l-63 -52q-30 19 -42.5 40.5t-11.5 51.5q-29 -42 -70.5 -67t-95.5 -25q-64 0 -102 33t-38 94q0 11 4 37l56 317h88l-55 -310q-2 -9 -2 -26q0 -36 20 -56t58 -20q55 0 93 37t62 93l50 282h88l-65 -364q-1 -5 -1 -14zM186 626h307l-11 -64
h-307z" />
    <glyph glyph-name="uogonek" unicode="&#x173;" horiz-adv-x="554" 
d="M425 0q-25 -28 -43.5 -59t-18.5 -57q0 -18 12 -27t32 -9q21 0 56 14l6 -51q-38 -22 -81 -22q-56 0 -80 22.5t-24 54.5q0 38 25 76t72 73q-24 27 -23 66q-29 -42 -70.5 -67t-95.5 -25q-64 0 -102 33t-38 94q0 11 4 37l56 317h88l-55 -310q-2 -9 -2 -26q0 -36 20 -56
t58 -20q55 0 93 37t62 93l50 282h88l-65 -364q-1 -5 -1 -14q0 -15 6 -25.5t21 -25.5z" />
    <glyph glyph-name="uring" unicode="&#x16f;" horiz-adv-x="554" 
d="M448 92q0 -15 6 -25.5t21 -25.5l-63 -52q-30 19 -42.5 40.5t-11.5 51.5q-29 -42 -70.5 -67t-95.5 -25q-64 0 -102 33t-38 94q0 11 4 37l56 317h88l-55 -310q-2 -9 -2 -26q0 -36 20 -56t58 -20q55 0 93 37t62 93l50 282h88l-65 -364q-1 -5 -1 -14zM260 552.5
q-23 21.5 -23 57.5q0 49 34 80.5t86 31.5q40 0 63 -21.5t23 -57.5q0 -49 -34 -80.5t-86 -31.5q-40 0 -63 21.5zM373 594.5q16 17.5 16 43.5q0 19 -10.5 28.5t-30.5 9.5q-25 0 -41 -17.5t-16 -43.5q0 -19 10.5 -28.5t29.5 -9.5q26 0 42 17.5z" />
    <glyph glyph-name="utilde" unicode="&#x169;" horiz-adv-x="554" 
d="M448 92q0 -15 6 -25.5t21 -25.5l-63 -52q-30 19 -42.5 40.5t-11.5 51.5q-29 -42 -70.5 -67t-95.5 -25q-64 0 -102 33t-38 94q0 11 4 37l56 317h88l-55 -310q-2 -9 -2 -26q0 -36 20 -56t58 -20q55 0 93 37t62 93l50 282h88l-65 -364q-1 -5 -1 -14zM206.5 632.5
q30.5 33.5 77.5 33.5q20 0 35.5 -6.5t34.5 -18.5q18 -10 27 -14t20 -4q17 0 27.5 11.5t19.5 36.5h59q-12 -48 -43 -82t-72 -34q-21 0 -36.5 6.5t-34.5 18.5q-16 9 -25.5 13.5t-20.5 4.5q-18 0 -30 -12t-22 -38h-58q11 51 41.5 84.5z" />
    <glyph glyph-name="v" unicode="v" horiz-adv-x="480" 
d="M133.5 12.5q-21.5 23.5 -28.5 83.5l-49 374h85l46 -368q3 -26 7 -35t15 -9q10 0 17 9t20 35l174 368h86l-181 -374q-29 -61 -56 -84t-68 -23q-46 0 -67.5 23.5z" />
    <glyph glyph-name="w" unicode="w" horiz-adv-x="652" 
d="M63 470h80l17 -393q20 5 35 36l165 318l54 -318q4 -17 9 -24.5t14 -9.5l156 391h78l-190 -470h-36q-42 0 -63 19t-27 62l-25 174l-88 -174q-24 -48 -50.5 -64.5t-68.5 -16.5h-36z" />
    <glyph glyph-name="wacute" unicode="&#x1e83;" horiz-adv-x="652" 
d="M63 470h80l17 -393q20 5 35 36l165 318l54 -318q4 -17 9 -24.5t14 -9.5l156 391h78l-190 -470h-36q-42 0 -63 19t-27 62l-25 174l-88 -174q-24 -48 -50.5 -64.5t-68.5 -16.5h-36zM448 693h95l-130 -149h-72z" />
    <glyph glyph-name="wcircumflex" unicode="&#x175;" horiz-adv-x="652" 
d="M63 470h80l17 -393q20 5 35 36l165 318l54 -318q4 -17 9 -24.5t14 -9.5l156 391h78l-190 -470h-36q-42 0 -63 19t-27 62l-25 174l-88 -174q-24 -48 -50.5 -64.5t-68.5 -16.5h-36zM298 610q44 44 74 87h69q16 -43 45 -87t53 -66h-82q-17 16 -33.5 41t-27.5 47
q-15 -20 -42.5 -45.5t-51.5 -42.5h-81q33 22 77 66z" />
    <glyph glyph-name="wdieresis" unicode="&#x1e85;" horiz-adv-x="652" 
d="M63 470h80l17 -393q20 5 35 36l165 318l54 -318q4 -17 9 -24.5t14 -9.5l156 391h78l-190 -470h-36q-42 0 -63 19t-27 62l-25 174l-88 -174q-24 -48 -50.5 -64.5t-68.5 -16.5h-36zM267 552q-12 12 -12 29q0 23 18 40.5t41 17.5q17 0 28.5 -12t11.5 -29q0 -22 -18 -40
t-40 -18q-17 0 -29 12zM434.5 552q-11.5 12 -11.5 29q0 23 18 40.5t41 17.5q18 0 29.5 -12t11.5 -29q0 -22 -18 -40t-40 -18q-19 0 -30.5 12z" />
    <glyph glyph-name="wgrave" unicode="&#x1e81;" horiz-adv-x="652" 
d="M63 470h80l17 -393q20 5 35 36l165 318l54 -318q4 -17 9 -24.5t14 -9.5l156 391h78l-190 -470h-36q-42 0 -63 19t-27 62l-25 174l-88 -174q-24 -48 -50.5 -64.5t-68.5 -16.5h-36zM267 693h95l54 -149h-72z" />
    <glyph glyph-name="x" unicode="x" horiz-adv-x="446" 
d="M273 232l117 -232h-90l-88 177l-148 -177h-90l203 246l-112 224h89l85 -169l141 169h90z" />
    <glyph glyph-name="y" unicode="y" horiz-adv-x="544" 
d="M523 470l-93 -526q-15 -87 -69 -129t-155 -42h-125l12 68h125q106 0 124 104l23 132q-30 -41 -73.5 -64.5t-96.5 -23.5q-65 0 -101 32.5t-36 91.5q0 22 4 41l37 211q1 5 1 15q0 14 -6 25t-20 25l60 51q30 -17 43 -37t13 -48q0 -14 -3 -31l-36 -204q-3 -15 -3 -28
q0 -36 19.5 -55t56.5 -19q54 0 94.5 33t65.5 91l51 287h88z" />
    <glyph glyph-name="yacute" unicode="&#xfd;" horiz-adv-x="544" 
d="M523 470l-93 -526q-15 -87 -69 -129t-155 -42h-125l12 68h125q106 0 124 104l23 132q-30 -41 -73.5 -64.5t-96.5 -23.5q-65 0 -101 32.5t-36 91.5q0 22 4 41l37 211q1 5 1 15q0 14 -6 25t-20 25l60 51q30 -17 43 -37t13 -48q0 -14 -3 -31l-36 -204q-3 -15 -3 -28
q0 -36 19.5 -55t56.5 -19q54 0 94.5 33t65.5 91l51 287h88zM389 693h95l-130 -149h-72z" />
    <glyph glyph-name="ycircumflex" unicode="&#x177;" horiz-adv-x="544" 
d="M523 470l-93 -526q-15 -87 -69 -129t-155 -42h-125l12 68h125q106 0 124 104l23 132q-30 -41 -73.5 -64.5t-96.5 -23.5q-65 0 -101 32.5t-36 91.5q0 22 4 41l37 211q1 5 1 15q0 14 -6 25t-20 25l60 51q30 -17 43 -37t13 -48q0 -14 -3 -31l-36 -204q-3 -15 -3 -28
q0 -36 19.5 -55t56.5 -19q54 0 94.5 33t65.5 91l51 287h88zM239 610q44 44 74 87h69q16 -43 45 -87t53 -66h-82q-17 16 -33.5 41t-27.5 47q-15 -20 -42.5 -45.5t-51.5 -42.5h-81q33 22 77 66z" />
    <glyph glyph-name="ydieresis" unicode="&#xff;" horiz-adv-x="544" 
d="M523 470l-93 -526q-15 -87 -69 -129t-155 -42h-125l12 68h125q106 0 124 104l23 132q-30 -41 -73.5 -64.5t-96.5 -23.5q-65 0 -101 32.5t-36 91.5q0 22 4 41l37 211q1 5 1 15q0 14 -6 25t-20 25l60 51q30 -17 43 -37t13 -48q0 -14 -3 -31l-36 -204q-3 -15 -3 -28
q0 -36 19.5 -55t56.5 -19q54 0 94.5 33t65.5 91l51 287h88zM208 552q-12 12 -12 29q0 23 18 40.5t41 17.5q17 0 28.5 -12t11.5 -29q0 -22 -18 -40t-40 -18q-17 0 -29 12zM375.5 552q-11.5 12 -11.5 29q0 23 18 40.5t41 17.5q18 0 29.5 -12t11.5 -29q0 -22 -18 -40t-40 -18
q-19 0 -30.5 12z" />
    <glyph glyph-name="uni1E8F" unicode="&#x1e8f;" horiz-adv-x="544" 
d="M523 470l-93 -526q-15 -87 -69 -129t-155 -42h-125l12 68h125q106 0 124 104l23 132q-30 -41 -73.5 -64.5t-96.5 -23.5q-65 0 -101 32.5t-36 91.5q0 22 4 41l37 211q1 5 1 15q0 14 -6 25t-20 25l60 51q30 -17 43 -37t13 -48q0 -14 -3 -31l-36 -204q-3 -15 -3 -28
q0 -36 19.5 -55t56.5 -19q54 0 94.5 33t65.5 91l51 287h88zM288 553.5q-13 13.5 -13 33.5q0 25 20.5 45t45.5 20q20 0 33 -13.5t13 -32.5q0 -25 -20 -45.5t-46 -20.5q-20 0 -33 13.5z" />
    <glyph glyph-name="uni1EF5" unicode="&#x1ef5;" horiz-adv-x="544" 
d="M523 470l-93 -526q-15 -87 -69 -129t-155 -42h-125l12 68h125q106 0 124 104l23 132q-30 -41 -73.5 -64.5t-96.5 -23.5q-65 0 -101 32.5t-36 91.5q0 22 4 41l37 211q1 5 1 15q0 14 -6 25t-20 25l60 51q30 -17 43 -37t13 -48q0 -14 -3 -31l-36 -204q-3 -15 -3 -28
q0 -36 19.5 -55t56.5 -19q54 0 94.5 33t65.5 91l51 287h88zM136 -388q-13 13 -13 33q0 25 20.5 45t45.5 20q20 0 33 -13t13 -33q0 -25 -20 -45t-46 -20q-20 0 -33 13z" />
    <glyph glyph-name="ygrave" unicode="&#x1ef3;" horiz-adv-x="544" 
d="M523 470l-93 -526q-15 -87 -69 -129t-155 -42h-125l12 68h125q106 0 124 104l23 132q-30 -41 -73.5 -64.5t-96.5 -23.5q-65 0 -101 32.5t-36 91.5q0 22 4 41l37 211q1 5 1 15q0 14 -6 25t-20 25l60 51q30 -17 43 -37t13 -48q0 -14 -3 -31l-36 -204q-3 -15 -3 -28
q0 -36 19.5 -55t56.5 -19q54 0 94.5 33t65.5 91l51 287h88zM208 693h95l54 -149h-72z" />
    <glyph glyph-name="uni1EF7" unicode="&#x1ef7;" horiz-adv-x="544" 
d="M523 470l-93 -526q-15 -87 -69 -129t-155 -42h-125l12 68h125q106 0 124 104l23 132q-30 -41 -73.5 -64.5t-96.5 -23.5q-65 0 -101 32.5t-36 91.5q0 22 4 41l37 211q1 5 1 15q0 14 -6 25t-20 25l60 51q30 -17 43 -37t13 -48q0 -14 -3 -31l-36 -204q-3 -15 -3 -28
q0 -36 19.5 -55t56.5 -19q54 0 94.5 33t65.5 91l51 287h88zM430 616q-27 -25 -73 -35l-7 -37h-66l12 70q46 5 67.5 17t21.5 36q0 15 -10.5 21t-30.5 6q-28 0 -56 -10l-7 49q39 17 81 17q44 0 69.5 -17t25.5 -51q0 -41 -27 -66z" />
    <glyph glyph-name="uni1EF9" unicode="&#x1ef9;" horiz-adv-x="544" 
d="M523 470l-93 -526q-15 -87 -69 -129t-155 -42h-125l12 68h125q106 0 124 104l23 132q-30 -41 -73.5 -64.5t-96.5 -23.5q-65 0 -101 32.5t-36 91.5q0 22 4 41l37 211q1 5 1 15q0 14 -6 25t-20 25l60 51q30 -17 43 -37t13 -48q0 -14 -3 -31l-36 -204q-3 -15 -3 -28
q0 -36 19.5 -55t56.5 -19q54 0 94.5 33t65.5 91l51 287h88zM203.5 632.5q30.5 33.5 77.5 33.5q20 0 35.5 -6.5t34.5 -18.5q18 -10 27 -14t20 -4q17 0 27.5 11.5t19.5 36.5h59q-12 -48 -43 -82t-72 -34q-21 0 -36.5 6.5t-34.5 18.5q-16 9 -25.5 13.5t-20.5 4.5q-18 0 -30 -12
t-22 -38h-58q11 51 41.5 84.5z" />
    <glyph glyph-name="z" unicode="z" horiz-adv-x="458" 
d="M448 403l-359 -314q0 -20 29 -20h281l-12 -69h-297q-85 0 -85 57q0 9 1 14l7 37l332 293h-271l13 69h372z" />
    <glyph glyph-name="zacute" unicode="&#x17a;" horiz-adv-x="458" 
d="M448 403l-359 -314q0 -20 29 -20h281l-12 -69h-297q-85 0 -85 57q0 9 1 14l7 37l332 293h-271l13 69h372zM354 693h95l-130 -149h-72z" />
    <glyph glyph-name="zcaron" unicode="&#x17e;" horiz-adv-x="458" 
d="M448 403l-359 -314q0 -20 29 -20h281l-12 -69h-297q-85 0 -85 57q0 9 1 14l7 37l332 293h-271l13 69h372zM207 630q-29 44 -53 67h81q17 -17 34.5 -42t27.5 -47q15 20 42 45.5t52 43.5h81q-34 -24 -77.5 -67.5t-73.5 -85.5h-69q-16 42 -45 86z" />
    <glyph glyph-name="zdotaccent" unicode="&#x17c;" horiz-adv-x="458" 
d="M448 403l-359 -314q0 -20 29 -20h281l-12 -69h-297q-85 0 -85 57q0 9 1 14l7 37l332 293h-271l13 69h372zM253 553.5q-13 13.5 -13 33.5q0 25 20.5 45t45.5 20q20 0 33 -13.5t13 -32.5q0 -25 -20 -45.5t-46 -20.5q-20 0 -33 13.5z" />
    <glyph glyph-name="uni1E93" unicode="&#x1e93;" horiz-adv-x="458" 
d="M448 403l-359 -314q0 -20 29 -20h281l-12 -69h-297q-85 0 -85 57q0 9 1 14l7 37l332 293h-271l13 69h372zM135 -160q-13 13 -13 33q0 25 20.5 45t45.5 20q20 0 33 -13t13 -33q0 -25 -20 -45t-46 -20q-20 0 -33 13z" />
    <glyph glyph-name="ordfeminine" unicode="&#xaa;" horiz-adv-x="428" 
d="M395 416q-1 -5 -1 -12q0 -11 5 -19t16 -19l-47 -41q-39 23 -45 57q-49 -57 -131 -57q-51 0 -80 22.5t-29 63.5q0 63 41.5 94.5t118.5 39.5l54 5q27 3 39.5 8.5t17.5 17.5v1q1 6 1 17q0 29 -17.5 44.5t-49.5 15.5q-39 0 -62 -10t-46 -34l-43 35q27 29 62.5 44t97.5 15
q60 0 94.5 -26.5t34.5 -73.5q0 -13 -3 -27zM295.5 401.5q32.5 25.5 38.5 63.5l9 50q-21 -10 -56 -13l-47 -4q-42 -3 -65.5 -22.5t-23.5 -52.5q0 -23 15.5 -35t44.5 -12q52 0 84.5 25.5z" />
    <glyph glyph-name="ordmasculine" unicode="&#xba;" horiz-adv-x="424" 
d="M128.5 355q-35.5 30 -35.5 82q0 18 2 28l18 99q12 66 56.5 103t120.5 37q68 0 103.5 -30t35.5 -82q0 -18 -2 -28l-18 -99q-12 -65 -55.5 -102.5t-119.5 -37.5q-70 0 -105.5 30zM307 402.5q26 23.5 33 62.5l17 99q2 16 2 22q0 30 -18 47t-56 17q-44 0 -69.5 -23t-33.5 -63
l-17 -99q-2 -8 -2 -23q0 -29 18.5 -46t55.5 -17q44 0 70 23.5z" />
    <glyph glyph-name="uni207F" unicode="&#x207f;" horiz-adv-x="493" 
d="M454.5 676.5q30.5 -28.5 30.5 -78.5q0 -15 -3 -32l-50 -282h-77l48 271q3 15 3 27q0 31 -16.5 47t-47.5 16q-46 0 -79 -31t-55 -78l-44 -252h-78l56 316q2 12 2 16q0 13 -5.5 22t-19.5 20l52 47q26 -18 38.5 -35.5t12.5 -44.5q25 36 62.5 58t84.5 22q55 0 85.5 -28.5z
" />
    <glyph glyph-name="uni0394" unicode="&#x394;" horiz-adv-x="667" 
d="M602 0h-619l386 700h93zM116 77h380l-100 516z" />
    <glyph glyph-name="uni0394" unicode="&#x3b4;" horiz-adv-x="667" 
d="M602 0h-619l386 700h93zM116 77h380l-100 516z" />
    <glyph glyph-name="uni03A9" unicode="&#x3a9;" horiz-adv-x="698" 
d="M615.5 657q66.5 -54 66.5 -153q0 -29 -6 -61l-28 -161q-25 -145 -140 -207h115l-13 -75h-243l6 36l8 46q65 13 110 56.5t57 113.5l35 198q4 30 4 41q0 69 -44 107t-123 38q-93 0 -153.5 -49.5t-75.5 -136.5l-35 -198q-4 -26 -4 -38q0 -53 29.5 -86.5t81.5 -45.5l-7 -35
l-8 -47h-242l13 75h114q-73 46 -73 147q0 29 6 60l28 161q23 132 107 200t224 68q124 0 190.5 -54z" />
    <glyph glyph-name="uni03A9" unicode="&#x3c9;" horiz-adv-x="698" 
d="M615.5 657q66.5 -54 66.5 -153q0 -29 -6 -61l-28 -161q-25 -145 -140 -207h115l-13 -75h-243l6 36l8 46q65 13 110 56.5t57 113.5l35 198q4 30 4 41q0 69 -44 107t-123 38q-93 0 -153.5 -49.5t-75.5 -136.5l-35 -198q-4 -26 -4 -38q0 -53 29.5 -86.5t81.5 -45.5l-7 -35
l-8 -47h-242l13 75h114q-73 46 -73 147q0 29 6 60l28 161q23 132 107 200t224 68q124 0 190.5 -54z" />
    <glyph glyph-name="uni03BC" unicode="&#x3bc;" horiz-adv-x="566" 
d="M460 92q0 -15 6 -25.5t21 -25.5l-63 -52q-30 19 -42.5 40.5t-11.5 50.5q-28 -44 -67 -67.5t-87 -23.5q-53 0 -83 38l-45 -255h-88l66 374q1 1 1 4l57 320h88l-56 -314q-1 -7 -1 -19q0 -37 20.5 -57.5t57.5 -20.5q52 0 91 35.5t63 88.5l51 287h88l-65 -364q-1 -5 -1 -14z
" />
    <glyph glyph-name="pi" unicode="&#x3c0;" horiz-adv-x="657" 
d="M476 128q-2 -9 -2 -23q0 -25 16 -35t55 -10l-32 -71q-70 0 -100 20t-30 68q0 17 5 47l48 273h-196l-70 -397h-88l70 397h-107l13 73h597l-13 -73h-118z" />
    <glyph glyph-name="uni0E01" unicode="&#xe01;" horiz-adv-x="608" 
d="M69 229q21 118 122 157l1 4l-94 107l13 70h231q105 0 158 -46t53 -135q0 -30 -6 -65l-57 -321h-86l56 321q6 32 6 58q0 119 -125 119l-167 -3l85 -94l-8 -45q-41 -17 -63.5 -46.5t-32.5 -80.5l-40 -229h-86z" />
    <glyph glyph-name="uni0E02" unicode="&#xe02;" horiz-adv-x="503" 
d="M481 560l-72 -411q-28 -159 -193 -159q-73 0 -115 35t-42 97q0 42 13.5 79t26 56t43.5 62l13 20q-9 -4 -23 -4q-31 0 -49 21t-18 55q0 40 18.5 76t49.5 58t65 22q37 0 57.5 -19.5t20.5 -56.5q0 -44 -19.5 -92.5t-46.5 -91.5q-65 -101 -65 -177q0 -32 20.5 -50t55.5 -18
q42 0 67.5 22.5t33.5 64.5l72 411h87zM123 391.5q6 -9.5 17 -9.5q17 0 33.5 15.5t27 40t10.5 48.5q0 15 -6 24.5t-16 9.5q-18 0 -34.5 -15.5t-27 -39.5t-10.5 -49q0 -15 6 -24.5z" />
    <glyph glyph-name="uni0E03" unicode="&#xe03;" horiz-adv-x="540" 
d="M518 560l-73 -416q-14 -73 -64 -113.5t-129 -40.5q-76 0 -118 33t-42 96q0 51 26 96t80 102q34 36 50 59.5t20 44.5l2 15q1 3 1 10q0 33 -29 57q1 -4 1 -12q0 -37 -17.5 -71t-45.5 -55t-59 -21t-49.5 19.5t-18.5 52.5q0 39 19 74t50 56t66 21q65 0 102 -63l10 56h32
q3 -30 3 -57q0 -55 -12 -95t-27.5 -64.5t-37.5 -52.5q-34 -41 -57 -83t-23 -85q0 -31 19.5 -47.5t58.5 -16.5q41 0 68 22.5t34 62.5l74 416h86zM159.5 402.5q16.5 14.5 27 38t10.5 47.5q0 16 -6.5 25.5t-17.5 9.5q-17 0 -33.5 -15t-27 -38.5t-10.5 -47.5q0 -15 6 -24.5
t18 -9.5q17 0 33.5 14.5z" />
    <glyph glyph-name="uni0E04" unicode="&#xe04;" horiz-adv-x="649" 
d="M541 526.5q60 -40.5 60 -111.5q0 -15 -3 -30l-68 -385h-86l68 385q2 14 2 20q0 44 -37 68.5t-106 24.5q-77 0 -124 -30t-56 -83l-22 -120q39 37 86 59t95 22q41 0 65.5 -17t24.5 -45q0 -41 -41 -68t-100 -27q-37 0 -62 14.5t-26 41.5q-30 -24 -45 -54t-23 -75l-20 -116
h-85l68 385q14 85 85.5 133.5t185.5 48.5q104 0 164 -40.5zM280.5 292q-28.5 -17 -28.5 -37q0 -13 14 -21.5t39 -8.5q38 0 65.5 16t27.5 38q0 13 -15 21.5t-40 8.5q-34 0 -62.5 -17z" />
    <glyph glyph-name="uni0E05" unicode="&#xe05;" horiz-adv-x="655" 
d="M569.5 520.5q40.5 -36.5 40.5 -87.5q0 -8 -2 -22l-72 -411h-86l71 400q2 16 2 23q0 30 -15 53t-43 33l-105 -86l-71 86q-40 -12 -64.5 -40t-31.5 -69l-24 -136q39 37 86 59.5t96 22.5q41 0 65.5 -17t24.5 -45q0 -40 -41 -67.5t-100 -27.5q-38 0 -63 14.5t-26 41.5
q-31 -24 -45.5 -53.5t-22.5 -75.5l-20 -116h-85l72 411q11 61 65.5 102.5t138.5 53.5l57 -80l88 80q70 -10 110.5 -46.5zM280.5 292q-28.5 -17 -28.5 -37q0 -13 14 -21.5t39 -8.5q38 0 66 15.5t28 37.5q0 13 -15 22t-41 9q-34 0 -62.5 -17z" />
    <glyph glyph-name="uni0E06" unicode="&#xe06;" horiz-adv-x="648" 
d="M626 560l-71 -403q-14 -82 -61 -124.5t-124 -42.5q-50 0 -90 23t-63 63q-9 -40 -34 -63t-62 -23q-42 0 -67 35t-25 82q0 59 28 97.5t73 38.5q17 0 32 -6q6 23 22 45t47 50q29 28 43 50t19 44l2 10q1 4 1 12q0 31 -24 53v-8q0 -37 -17.5 -71.5t-46 -56t-59.5 -21.5
q-30 0 -48 20t-18 52q0 39 18.5 74t50 56t66.5 21q64 0 102 -61l9 54h32q5 -38 5 -62q0 -66 -21 -108t-54 -80q-26 -29 -33.5 -47.5t-12.5 -46.5l-4 -21l-1 -9q0 -24 15.5 -54t43.5 -51.5t65 -21.5q43 0 69.5 25.5t34.5 72.5l71 403h87zM188.5 403q16.5 15 27 38t10.5 47
q0 16 -6 25.5t-17 9.5q-17 0 -34 -15t-27.5 -38.5t-10.5 -47.5q0 -15 6.5 -24.5t17.5 -9.5q17 0 33.5 15zM158.5 59.5q12.5 22.5 12.5 60.5q0 33 -11.5 54.5t-33.5 21.5q-19 0 -32 -24t-13 -59q0 -31 11.5 -53.5t31.5 -22.5q22 0 34.5 22.5z" />
    <glyph glyph-name="uni0E07" unicode="&#xe07;" horiz-adv-x="489" 
d="M432.5 547.5q20.5 -19.5 20.5 -54.5q0 -7 -2 -23l-58 -331q-13 -71 -53.5 -105t-113.5 -34h-86q-15 120 -35.5 210t-56.5 168l74 37q35 -66 55 -149.5t37 -202.5h11q35 0 56.5 19.5t27.5 56.5l35 198q-18 -9 -36 -9q-31 0 -49 21.5t-18 55.5q0 42 18.5 79.5t50 60
t66.5 22.5q36 0 56.5 -19.5zM351 392q17 17 28 43t11 51q0 15 -6.5 25t-17.5 10q-17 0 -34 -16.5t-28 -42.5t-11 -51q0 -15 6.5 -25.5t17.5 -10.5q17 0 34 17z" />
    <glyph glyph-name="uni0E08" unicode="&#xe08;" horiz-adv-x="546" 
d="M452.5 530q55.5 -37 55.5 -104q0 -15 -3 -32l-45 -259q-12 -69 -53 -102t-114 -33h-97l5 35q3 22 7 51.5t8 66.5q-15 -6 -32 -6q-37 0 -60 30.5t-23 74.5q0 52 26.5 85t69.5 33q44 0 69.5 -35t27.5 -95q3 -67 -12 -177h11q71 0 83 72l45 259q2 12 2 19q0 40 -35 62.5
t-98 22.5q-65 0 -111 -14.5t-88 -50.5l-37 54q47 41 105.5 60.5t137.5 19.5q100 0 155.5 -37zM220.5 212q12.5 21 12.5 52q0 27 -11 44.5t-30 17.5t-31 -20t-12 -50q0 -27 11.5 -46t30.5 -19q17 0 29.5 21z" />
    <glyph glyph-name="uni0E09" unicode="&#xe09;" horiz-adv-x="643" 
d="M579 214q17 -27 17 -66q0 -43 -15 -79t-41.5 -57.5t-58.5 -21.5q-34 0 -55 24t-23 64q-39 -44 -77 -66t-79 -22q-61 0 -93 29t-32 83q0 21 4 40l1 4q-18 -10 -34 -10q-31 0 -48.5 20.5t-17.5 54.5q0 41 18.5 78t49.5 59.5t66 22.5q36 0 56 -19.5t20 -55.5q0 -6 -2 -22
l-22 -121q-3 -16 -3 -30q0 -31 15 -47.5t45 -16.5q50 0 93.5 40.5t66.5 82.5q8 14 11 30l32 182q2 12 2 18q0 40 -36 63t-98 23q-65 0 -111 -14.5t-88 -50.5l-37 54q47 41 105 60.5t138 19.5q99 0 156 -37.5t57 -105.5q0 -15 -3 -30l-27 -149q31 -4 48 -31zM135.5 199
q16.5 16 27.5 41t11 49q0 15 -6.5 25t-16.5 10q-17 0 -34 -16t-27.5 -40.5t-10.5 -49.5q0 -16 6 -25.5t17 -9.5q17 0 33.5 16zM526.5 70.5q18.5 33.5 18.5 75.5q0 23 -8.5 37.5t-23.5 14.5q-22 0 -40 -34t-18 -76q0 -23 8 -37t22 -14q23 0 41.5 33.5z" />
    <glyph glyph-name="uni0E0A" unicode="&#xe0a;" horiz-adv-x="513" 
d="M481 506q-22 -30 -76 -58l23 -25q14 -15 21.5 -32t7.5 -42q0 -16 -3 -36l-29 -164q-14 -77 -64.5 -118t-134.5 -41q-76 0 -119.5 35.5t-43.5 96.5q0 48 20.5 89.5t70.5 106.5l15 21q-11 -4 -25 -4q-30 0 -48.5 21.5t-18.5 54.5q0 39 19 75.5t50.5 58.5t65.5 22
q37 0 56.5 -20t19.5 -56q0 -44 -20 -95t-46 -88q-3 -5 -23 -35.5t-35 -70t-15 -72.5q0 -32 21.5 -50t60.5 -18q44 0 71.5 22.5t35.5 64.5l27 155q6 30 6 47q0 15 -4.5 25t-14.5 24l-19 24l6 38q33 20 49 35.5t24.5 35.5t14.5 57h86q-10 -54 -32 -84zM135.5 391.5
q6.5 -9.5 16.5 -9.5q17 0 34 15.5t27.5 40t10.5 48.5q0 15 -6 24.5t-17 9.5q-18 0 -34.5 -15.5t-27 -39.5t-10.5 -49q0 -15 6.5 -24.5z" />
    <glyph glyph-name="uni0E0B" unicode="&#xe0b;" horiz-adv-x="541" 
d="M508.5 506q-22.5 -29 -75.5 -57l23 -26q13 -14 20.5 -30.5t7.5 -41.5q0 -10 -4 -38l-30 -169q-14 -74 -65 -114t-132 -40q-76 0 -118.5 34.5t-42.5 97.5q0 41 17 77t36 59.5t53 58.5q35 36 51 59.5t19 44.5l3 15l1 10q0 34 -30 57q1 -4 1 -11q0 -37 -17.5 -71
t-45.5 -55.5t-59 -21.5t-49.5 19.5t-18.5 52.5q0 39 19 74t50 56t66 21q63 0 103 -62l9 55h32q3 -30 3 -57q0 -77 -21.5 -123.5t-56.5 -88.5q-32 -38 -55 -81.5t-23 -82.5q0 -68 78 -68q42 0 70.5 22.5t35.5 62.5l28 160q6 35 6 51q0 14 -3.5 23.5t-13.5 21.5l-20 24l7 38
q32 20 48 35.5t24.5 36t14.5 56.5h86q-9 -55 -31.5 -84zM159 402.5q17 14.5 27.5 38t10.5 47.5q0 16 -6.5 25.5t-17.5 9.5q-17 0 -33.5 -15t-27 -38.5t-10.5 -47.5q0 -15 6 -24.5t17 -9.5q17 0 34 14.5z" />
    <glyph glyph-name="uni0E0C" unicode="&#xe0c;" horiz-adv-x="905" 
d="M883 560l-72 -407q-28 -163 -177 -163q-42 0 -76.5 19.5t-53.5 51.5q-25 -71 -92 -71q-41 0 -65.5 32t-24.5 78q0 57 28 93.5t74 36.5q13 0 23 -3l16 94q5 33 5 55q0 122 -128 122l-167 -3l84 -94l-8 -45q-42 -17 -65 -47t-33 -80l-2 -8q20 9 37 9q31 0 49 -20t18 -54
q0 -42 -18.5 -80.5t-49.5 -62t-66 -23.5q-36 0 -57.5 20t-21.5 56q0 7 2 21l25 142q10 58 41 97.5t81 59.5l1 4l-92 107l13 70h231q106 0 159.5 -45.5t53.5 -134.5q0 -30 -6 -66l-23 -128q-1 -3 -1 -11q0 -24 12.5 -53t36 -49.5t55.5 -20.5q39 0 63.5 24.5t32.5 69.5l71 407
h87zM451 58.5q13 21.5 13 55.5q0 30 -12 50t-33 20q-19 0 -32.5 -23.5t-13.5 -55.5q0 -29 12 -48.5t32 -19.5q21 0 34 21.5zM194 173q-6 10 -17 10q-17 0 -34 -17t-28.5 -43t-11.5 -52q0 -15 6.5 -24.5t18.5 -9.5q17 0 34 16.5t27.5 42.5t10.5 51q0 16 -6 26z" />
    <glyph glyph-name="uni0E0D" unicode="&#xe0d;" horiz-adv-x="892" 
d="M872 560l-56 -318q-20 -114 -88.5 -178t-201.5 -64h-119l56 321q5 33 5 55q0 122 -128 122l-167 -3l84 -94l-8 -45q-42 -17 -65 -47t-33 -80l-2 -8q20 9 37 9q31 0 49 -20t18 -54q0 -42 -18.5 -80.5t-50 -62t-66.5 -23.5q-36 0 -57 20t-21 56q0 5 2 21l25 142
q10 58 41 97.5t81 59.5l1 4l-92 107l13 70h231q106 0 159.5 -45.5t53.5 -134.5q0 -30 -6 -66l-44 -252h29q83 0 131 40t64 133l57 318h86zM194 173q-6 10 -17 10q-17 0 -34 -17t-28.5 -43t-11.5 -52q0 -15 6.5 -24.5t18.5 -9.5q17 0 34 16.5t27.5 42.5t10.5 51q0 16 -6 26z
M645.5 -116q25.5 31 37.5 72h77q-27 -83 -93 -125.5t-169 -42.5q-51 0 -83 19.5t-32 52.5q0 36 35.5 57.5t85.5 21.5q42 0 69 -17.5t27 -44.5q0 -18 -13 -36q33 12 58.5 43zM532.5 -155q20.5 11 20.5 25q0 13 -16.5 21.5t-40.5 8.5q-26 0 -46 -11t-20 -25q0 -12 16 -21
t39 -9q27 0 47.5 11z" />
    <glyph glyph-name="yoYingthai.less" horiz-adv-x="892" 
d="M872 560l-56 -318q-20 -114 -88.5 -178t-201.5 -64h-119l56 321q5 33 5 55q0 122 -128 122l-167 -3l84 -94l-8 -45q-42 -17 -65 -47t-33 -80l-2 -8q20 9 37 9q31 0 49 -20t18 -54q0 -42 -18.5 -80.5t-50 -62t-66.5 -23.5q-36 0 -57 20t-21 56q0 5 2 21l25 142
q10 58 41 97.5t81 59.5l1 4l-92 107l13 70h231q106 0 159.5 -45.5t53.5 -134.5q0 -30 -6 -66l-44 -252h29q83 0 131 40t64 133l57 318h86zM194 173q-6 10 -17 10q-17 0 -34 -17t-28.5 -43t-11.5 -52q0 -15 6.5 -24.5t18.5 -9.5q17 0 34 16.5t27.5 42.5t10.5 51q0 16 -6 26z
" />
    <glyph glyph-name="uni0E0E" unicode="&#xe0e;" horiz-adv-x="643" 
d="M533 524q56 -43 56 -131q0 -28 -6 -61l-104 -593h-86q-48 55 -100 87q-30 -34 -69 -52.5t-83 -18.5q-48 0 -75.5 17.5t-27.5 50.5q0 39 36 62t94 23q57 0 113 -23q14 25 22 58h51q-11 -44 -33 -79q40 -22 82 -62l94 530q5 30 5 49q0 60 -34.5 88.5t-104.5 28.5
q-93 0 -185 -3l86 -96l-54 -312q-8 -45 -36.5 -71t-70.5 -26q-41 0 -65 29t-24 77q0 59 28 96.5t72 37.5q17 0 35 -10l32 183l-80 94l13 70h251q112 0 168 -43zM137 60q12 23 12 57q0 30 -11 48t-30 18q-18 0 -30.5 -23.5t-12.5 -57.5q0 -29 11 -47t30 -18t31 23zM255 -153
q-47 21 -94 21q-33 0 -52.5 -11.5t-19.5 -31.5q0 -14 14.5 -22t44.5 -8q60 0 107 52z" />
    <glyph glyph-name="doChadathai.short" horiz-adv-x="643" 
d="M589 394q0 -29 -6 -62l-94 -532h-85q-57 54 -101 80q-30 -34 -69 -53t-84 -19q-47 0 -75 16.5t-28 48.5q0 39 36.5 63.5t93.5 24.5q56 0 112 -22q14 25 22 57h52q-10 -41 -32 -77q43 -25 83 -60l83 473q5 30 5 49q0 60 -34.5 88.5t-104.5 28.5q-93 0 -185 -3l86 -96
l-53 -304q-8 -46 -36.5 -71.5t-69.5 -25.5q-42 0 -66 29t-24 77q0 58 28 95.5t72 37.5q17 0 35 -10l31 176l-80 94l13 70h251q224 0 224 -173zM138 68q12 23 12 57q0 29 -11 47.5t-29 18.5t-30.5 -24t-12.5 -57q0 -30 11 -47.5t30 -17.5q18 0 30 23zM263 -99q-48 20 -93 20
q-33 0 -52.5 -11.5t-19.5 -31.5q0 -14 14.5 -22t44.5 -8q61 0 106 53z" />
    <glyph glyph-name="uni0E0F" unicode="&#xe0f;" horiz-adv-x="643" 
d="M533 524q56 -43 56 -131q0 -28 -6 -61l-104 -593h-88l-58 98l-91 -99q-26 43 -51 68q-56 -51 -125 -51q-41 0 -66 18.5t-25 49.5q0 39 32 62t84 23q30 0 54 -9t46 -27q22 29 32 74h52q-17 -59 -51 -104l12 -15t16 -24l94 103l58 -101l93 527q5 30 5 49q0 60 -34.5 88.5
t-104.5 28.5q-93 0 -185 -3l86 -96l-54 -308q-7 -46 -36 -72t-70 -26t-65.5 29.5t-24.5 77.5q0 58 28.5 95.5t72.5 37.5q20 0 34 -10l32 180l-80 94l13 70h251q112 0 168 -43zM138 63.5q12 22.5 12 57.5q0 29 -11 47t-30 18q-18 0 -30.5 -23.5t-12.5 -57.5q0 -29 11 -46.5
t30 -17.5t31 22.5zM161 -164q-18 16 -35.5 24t-40.5 8q-28 0 -45 -11t-17 -30q0 -14 12.5 -22.5t36.5 -8.5q49 0 89 40z" />
    <glyph glyph-name="toPatakthai.short" horiz-adv-x="643" 
d="M533 524q56 -43 56 -131q0 -28 -6 -61l-95 -542h-88l-55 85l-80 -85q-22 38 -50 68q-56 -51 -123 -51q-40 0 -64.5 18.5t-24.5 50.5q0 38 31.5 60.5t82.5 22.5q56 0 99 -36q17 26 27 58h49q-18 -54 -45 -87q16 -17 29 -39l81 87l55 -89l85 479q5 30 5 49q0 60 -34.5 88.5
t-104.5 28.5q-93 0 -185 -3l86 -96l-53 -304q-8 -46 -36.5 -71.5t-69.5 -25.5q-42 0 -66 29t-24 77q0 58 28 95.5t72 37.5q20 0 35 -9l31 175l-80 94l13 70h251q112 0 168 -43zM139 68q12 23 12 57q0 29 -11 47.5t-30 18.5q-18 0 -30.5 -24t-12.5 -57q0 -30 11 -47.5
t30 -17.5t31 23zM185 -113q-16 17 -33.5 25t-40.5 8q-28 0 -44 -11.5t-16 -30.5q0 -14 12 -22t36 -8q49 0 86 39z" />
    <glyph glyph-name="uni0E10" unicode="&#xe10;" horiz-adv-x="542" 
d="M188.5 489.5q-38.5 -13.5 -38.5 -31.5q0 -11 30 -21t81 -22l24 -6q102 -25 142.5 -54.5t40.5 -72.5q0 -8 -2 -22l-22 -125q-13 -69 -53.5 -102t-113.5 -33h-97l3 21q6 50 8 82q-15 -7 -35 -7q-37 0 -59 28t-22 69q0 51 27 83.5t71 32.5q42 0 67 -32.5t27 -86.5
q1 -12 1 -38q0 -34 -5 -89h14q70 0 83 72l20 118q1 3 1 10q0 27 -31.5 45t-103.5 39l-25 7q-58 16 -88 26.5t-50.5 26t-20.5 37.5q0 33 29 61t82 45t122 17q72 0 136 -13.5t112 -35.5l-29 -66q-36 19 -99.5 35t-128.5 16q-59 0 -97.5 -13.5zM196 160.5q12 20.5 12 47.5
q0 24 -11 40.5t-30 16.5q-18 0 -29.5 -19t-11.5 -47q0 -25 10.5 -42t29.5 -17q18 0 30 20.5zM393 -47.5q23 -15.5 23 -39.5q0 -7 -1 -10l-28 -162h-62l-73 48l-67 -48q-12 10 -17 16l-34 29q-51 -45 -107 -45q-33 0 -53 15.5t-20 41.5q0 32 25 51.5t67 19.5q24 0 44 -7
t40 -21q17 28 22 58h44q-13 -50 -36 -80q22 -17 35 -30l63 46l82 -52l14 74q-19 -6 -43 -6q-35 0 -57 14t-22 37q0 29 28.5 47.5t71.5 18.5q38 0 61 -15.5zM284.5 -110q12.5 -6 31.5 -6q22 0 38 8t16 19q0 10 -13 16.5t-31 6.5q-23 0 -38.5 -8t-15.5 -20q0 -10 12.5 -16z
M106 -191q-31 26 -64 26q-22 0 -35 -9.5t-13 -24.5q0 -12 10 -18.5t28 -6.5q39 0 74 33z" />
    <glyph glyph-name="thoThanthai.less" horiz-adv-x="542" 
d="M188 489.5q-39 -13.5 -39 -32.5q0 -10 29.5 -20t84.5 -23q9 -1 22 -5q98 -25 140.5 -52t42.5 -74q0 -7 -2 -23l-23 -125q-12 -69 -53 -102t-114 -33h-97l3 22q8 63 9 80q-16 -6 -34 -6q-38 0 -60 29t-22 70q0 52 26 83t70 31q43 0 68.5 -32.5t27.5 -86.5q1 -14 1 -40
q0 -35 -5 -87h14q70 0 83 72l20 118q1 3 1 9q0 30 -33.5 48t-102.5 37q-97 26 -140 46t-43 53q0 34 29.5 61.5t81.5 43.5t118 16q73 0 138 -14t113 -35l-28 -66q-33 18 -97.5 34.5t-127.5 16.5q-62 0 -101 -13.5zM195.5 160q12.5 20 12.5 48q0 24 -11 40.5t-30 16.5
q-18 0 -30 -19t-12 -48q0 -24 11 -41t30 -17q17 0 29.5 20z" />
    <glyph glyph-name="uni0E11" unicode="&#xe11;" horiz-adv-x="680" 
d="M606 538q30 -29 30 -86q0 -19 -5 -49l-71 -403h-86l70 403q4 20 4 39q0 29 -13 42.5t-41 13.5q-55 0 -113.5 -54.5t-113.5 -140.5q-18 -28 -26.5 -52t-13.5 -54l-35 -197h-87l35 197q7 37 24 67t47 70q22 29 33 48.5t14 37.5l3 15q4 35 -23 62v-7q0 -36 -17.5 -70
t-46 -55t-59.5 -21q-30 0 -48.5 20t-18.5 52q0 38 18.5 73t49 56.5t64.5 21.5q67 0 105 -68l11 61h31q4 -35 4 -67q0 -25 -2 -37q39 53 87.5 82t101.5 29q58 0 88 -29zM154 402.5q17 14.5 27.5 38t10.5 47.5q0 16 -6.5 25.5t-17.5 9.5q-17 0 -33.5 -15t-27 -38.5
t-10.5 -47.5q0 -15 6 -24.5t17 -9.5q17 0 34 14.5z" />
    <glyph glyph-name="uni0E12" unicode="&#xe12;" horiz-adv-x="940" 
d="M919 560l-72 -407q-30 -163 -177 -163q-78 0 -123 61q-13 -30 -35 -45.5t-52 -15.5q-41 0 -65.5 31t-24.5 77q0 57 28.5 94t74.5 37q7 0 11 -1l30 172q2 16 2 24q0 30 -14.5 52.5t-40.5 32.5l-104 -86l-72 86q-38 -13 -61 -41t-30 -68l-60 -343q50 9 92.5 40.5t65.5 72.5
q-4 -1 -14 -1q-29 0 -43.5 17.5t-14.5 45.5q0 34 16.5 67t43.5 53.5t55 20.5q30 0 44 -17.5t14 -46.5q0 -68 -40.5 -137t-107 -117t-138.5 -56h-70l74 412q11 60 64.5 102t135.5 54l57 -80l87 80q69 -10 108.5 -46t39.5 -87q0 -7 -2 -23l-39 -218q-1 -4 -1 -12
q0 -25 12.5 -53.5t36 -48.5t55.5 -20q39 0 63 24.5t32 69.5l72 407h87zM267.5 213.5q5.5 -8.5 15.5 -8.5q16 0 32 15t26 38t10 46q0 15 -6 24t-16 9q-16 0 -31.5 -15t-25.5 -38.5t-10 -46.5q0 -15 5.5 -23.5zM499 58.5q13 21.5 13 55.5q0 29 -12 48.5t-32 19.5
q-19 0 -32.5 -22.5t-13.5 -55.5q0 -29 12 -48t32 -19t33 21.5z" />
    <glyph glyph-name="uni0E13" unicode="&#xe13;" horiz-adv-x="924" 
d="M860.5 213q16.5 -27 16.5 -65q0 -42 -15 -78.5t-41.5 -58t-57.5 -21.5q-33 0 -55.5 23.5t-23.5 62.5q-75 -86 -151 -86q-59 0 -89 30t-30 86q0 24 4 47l30 168q6 36 6 65q0 57 -27 84.5t-87 27.5l-167 -3l84 -94l-8 -45q-42 -17 -65 -47t-33 -80l-2 -8q20 9 37 9
q31 0 49 -20t18 -54q0 -42 -18.5 -80.5t-50 -62t-66.5 -23.5q-36 0 -57 20t-21 56q0 5 2 21l25 142q10 58 41 97.5t81 59.5l1 4l-92 107l13 70h231q101 0 150.5 -42.5t49.5 -128.5q0 -32 -8 -75l-29 -168q-3 -18 -3 -34q0 -60 54 -60q37 0 73.5 28t62 65t29.5 60l61 348h87
l-55 -316q30 -4 46.5 -31zM807.5 70.5q18.5 33.5 18.5 75.5q0 24 -8 38t-23 14q-23 0 -41 -34t-18 -76q0 -23 8 -37t22 -14q23 0 41.5 33.5zM194 173q-6 10 -17 10q-17 0 -34 -17t-28.5 -43t-11.5 -52q0 -15 6.5 -24.5t18.5 -9.5q17 0 34 16.5t27.5 42.5t10.5 51q0 16 -6 26
z" />
    <glyph glyph-name="uni0E14" unicode="&#xe14;" horiz-adv-x="642" 
d="M534.5 527q58.5 -40 58.5 -110q0 -15 -3 -32l-68 -385h-84l68 385q2 14 2 20q0 44 -36 68.5t-104 24.5q-76 0 -122.5 -30.5t-55.5 -82.5l-57 -323q44 7 87 33q39 22 66 57h-2q-32 0 -46 18.5t-14 48.5q0 37 18 73.5t46.5 59.5t57.5 23q32 0 48 -19t16 -50q0 -62 -42 -132
t-106 -114q-34 -24 -78.5 -41.5t-76.5 -18.5h-69l68 385q14 85 84.5 133.5t182.5 48.5q103 0 161.5 -40zM275.5 202.5q6.5 -9.5 16.5 -9.5q17 0 34 16t28 41t11 49q0 16 -6.5 25.5t-16.5 9.5q-17 0 -34 -16t-28 -41t-11 -50q0 -15 6.5 -24.5z" />
    <glyph glyph-name="uni0E15" unicode="&#xe15;" horiz-adv-x="649" 
d="M563.5 521q39.5 -36 39.5 -87q0 -7 -2 -23l-73 -411h-84l70 400q2 16 2 23q0 31 -14.5 53t-40.5 33l-104 -86l-72 86q-38 -13 -61.5 -41t-30.5 -68l-60 -338q45 7 86 31.5t67 58.5h-2q-32 0 -46 18.5t-14 48.5q0 37 18 73.5t46.5 59.5t57.5 23q32 0 48 -19t16 -50
q0 -69 -42 -136t-112 -113t-149 -57h-69l72 411q11 60 65 102t136 54l57 -80l87 80q69 -10 108.5 -46zM275.5 202.5q6.5 -9.5 16.5 -9.5q17 0 34 16t28 41t11 49q0 16 -6.5 25.5t-16.5 9.5q-17 0 -34 -16t-28 -41t-11 -50q0 -15 6.5 -24.5z" />
    <glyph glyph-name="uni0E16" unicode="&#xe16;" horiz-adv-x="616" 
d="M505 520.5q56 -46.5 56 -137.5q0 -29 -6 -62l-57 -321h-86l56 321q5 32 5 51q0 126 -133 126l-167 -3l84 -94l-8 -45q-42 -17 -65 -47t-33 -80l-2 -8q20 9 37 9q31 0 49 -20t18 -54q0 -42 -18.5 -80.5t-50 -62t-66.5 -23.5q-36 0 -57 20t-21 56q0 5 2 21l25 142
q10 58 41 97.5t81 59.5l1 4l-92 107l13 70h231q107 0 163 -46.5zM194 173q-6 10 -17 10q-17 0 -34 -17t-28.5 -43t-11.5 -52q0 -15 6.5 -24.5t18.5 -9.5q17 0 34 16.5t27.5 42.5t10.5 51q0 16 -6 26z" />
    <glyph glyph-name="uni0E17" unicode="&#xe17;" horiz-adv-x="667" 
d="M623 453q0 -23 -4 -46l-72 -407h-87l72 407q4 28 4 36q0 29 -13 42t-40 13q-98 0 -239 -252q-15 -26 -24 -48.5t-14 -51.5l-26 -146h-87l60 338q-18 -10 -33 -10q-30 0 -48 21.5t-18 55.5q0 42 18.5 79.5t49 60t65.5 22.5q36 0 57 -20t21 -54q0 -7 -2 -23l-25 -142
q132 239 267 239q118 0 118 -114zM162.5 392q16.5 17 27.5 43t11 51q0 15 -6.5 25t-17.5 10q-17 0 -33.5 -16.5t-27.5 -42.5t-11 -51q0 -16 6 -26t18 -10q17 0 33.5 17z" />
    <glyph glyph-name="uni0E18" unicode="&#xe18;" horiz-adv-x="562" 
d="M114 15.5q-49 25.5 -49 75.5q0 6 2 22l33 185h86l-32 -183q-4 -26 23 -41t79 -15q53 0 85.5 15t37.5 41l23 128q1 3 1 8q0 27 -34.5 44t-110.5 38q-87 25 -127 48t-40 57q0 39 31.5 68t87 45t125.5 16q64 0 122 -11.5t105 -30.5l-29 -65q-35 16 -94.5 28.5t-115.5 12.5
q-61 0 -102.5 -14.5t-41.5 -36.5q0 -14 25.5 -25t91.5 -29q68 -18 108 -33t64 -37t24 -55q0 -5 -2 -19l-24 -139q-23 -123 -216 -123q-87 0 -136 25.5z" />
    </font>
</defs>
</svg>
